<?xml version="1.0" encoding="UTF-8" standalone="no"?>
<!-- Created with Inkscape (http://www.inkscape.org/) -->

<svg
   xmlns:dc="http://purl.org/dc/elements/1.1/"
   xmlns:cc="http://creativecommons.org/ns#"
   xmlns:rdf="http://www.w3.org/1999/02/22-rdf-syntax-ns#"
   xmlns:svg="http://www.w3.org/2000/svg"
   xmlns="http://www.w3.org/2000/svg"
   xmlns:sodipodi="http://sodipodi.sourceforge.net/DTD/sodipodi-0.dtd"
   xmlns:inkscape="http://www.inkscape.org/namespaces/inkscape"
   version="1.1"
   id="svg2"
   xml:space="preserve"
   width="917.0694"
   height="734.83203"
   viewBox="0 0 917.0694 734.83203"
   sodipodi:docname="profile_b0_1.svg"
   inkscape:version="0.92.4 (5da689c313, 2019-01-14)"><metadata
     id="metadata8"><rdf:RDF><cc:Work
         rdf:about=""><dc:format>image/svg+xml</dc:format><dc:type
           rdf:resource="http://purl.org/dc/dcmitype/StillImage" /><dc:title></dc:title></cc:Work></rdf:RDF></metadata><defs
     id="defs6"><clipPath
       clipPathUnits="userSpaceOnUse"
       id="clipPath24"><path
         d="M 55.445,48.75 H 669.242 V 492.27 H 55.445 Z"
         id="path22"
         inkscape:connector-curvature="0" /></clipPath><clipPath
       clipPathUnits="userSpaceOnUse"
       id="clipPath32"><path
         d="M 0,0 H 688 V 552 H 0 Z"
         id="path30"
         inkscape:connector-curvature="0" /></clipPath><clipPath
       clipPathUnits="userSpaceOnUse"
       id="clipPath56"><path
         d="M 55.445,48.75 H 669.242 V 492.27 H 55.445 Z"
         id="path54"
         inkscape:connector-curvature="0" /></clipPath><clipPath
       clipPathUnits="userSpaceOnUse"
       id="clipPath64"><path
         d="M 0,0 H 688 V 552 H 0 Z"
         id="path62"
         inkscape:connector-curvature="0" /></clipPath><clipPath
       clipPathUnits="userSpaceOnUse"
       id="clipPath88"><path
         d="M 55.445,48.75 H 669.242 V 492.27 H 55.445 Z"
         id="path86"
         inkscape:connector-curvature="0" /></clipPath><clipPath
       clipPathUnits="userSpaceOnUse"
       id="clipPath96"><path
         d="M 0,0 H 688 V 552 H 0 Z"
         id="path94"
         inkscape:connector-curvature="0" /></clipPath><clipPath
       clipPathUnits="userSpaceOnUse"
       id="clipPath120"><path
         d="M 55.445,48.75 H 669.242 V 492.27 H 55.445 Z"
         id="path118"
         inkscape:connector-curvature="0" /></clipPath><clipPath
       clipPathUnits="userSpaceOnUse"
       id="clipPath128"><path
         d="M 0,0 H 688 V 552 H 0 Z"
         id="path126"
         inkscape:connector-curvature="0" /></clipPath><clipPath
       clipPathUnits="userSpaceOnUse"
       id="clipPath152"><path
         d="M 55.445,48.75 H 669.242 V 492.27 H 55.445 Z"
         id="path150"
         inkscape:connector-curvature="0" /></clipPath><clipPath
       clipPathUnits="userSpaceOnUse"
       id="clipPath160"><path
         d="M 0,0 H 688 V 552 H 0 Z"
         id="path158"
         inkscape:connector-curvature="0" /></clipPath><clipPath
       clipPathUnits="userSpaceOnUse"
       id="clipPath184"><path
         d="M 55.445,48.75 H 669.242 V 492.27 H 55.445 Z"
         id="path182"
         inkscape:connector-curvature="0" /></clipPath><clipPath
       clipPathUnits="userSpaceOnUse"
       id="clipPath192"><path
         d="M 0,0 H 688 V 552 H 0 Z"
         id="path190"
         inkscape:connector-curvature="0" /></clipPath><clipPath
       clipPathUnits="userSpaceOnUse"
       id="clipPath216"><path
         d="M 55.445,48.75 H 669.242 V 492.27 H 55.445 Z"
         id="path214"
         inkscape:connector-curvature="0" /></clipPath><clipPath
       clipPathUnits="userSpaceOnUse"
       id="clipPath224"><path
         d="M 0,0 H 688 V 552 H 0 Z"
         id="path222"
         inkscape:connector-curvature="0" /></clipPath><clipPath
       clipPathUnits="userSpaceOnUse"
       id="clipPath248"><path
         d="M 55.445,48.75 H 669.242 V 492.27 H 55.445 Z"
         id="path246"
         inkscape:connector-curvature="0" /></clipPath><clipPath
       clipPathUnits="userSpaceOnUse"
       id="clipPath256"><path
         d="M 0,0 H 688 V 552 H 0 Z"
         id="path254"
         inkscape:connector-curvature="0" /></clipPath><clipPath
       clipPathUnits="userSpaceOnUse"
       id="clipPath280"><path
         d="M 55.445,48.75 H 669.242 V 492.27 H 55.445 Z"
         id="path278"
         inkscape:connector-curvature="0" /></clipPath><clipPath
       clipPathUnits="userSpaceOnUse"
       id="clipPath288"><path
         d="M 0,0 H 688 V 552 H 0 Z"
         id="path286"
         inkscape:connector-curvature="0" /></clipPath><clipPath
       clipPathUnits="userSpaceOnUse"
       id="clipPath316"><path
         d="M 55.445,48.75 H 669.242 V 492.27 H 55.445 Z"
         id="path314"
         inkscape:connector-curvature="0" /></clipPath><clipPath
       clipPathUnits="userSpaceOnUse"
       id="clipPath324"><path
         d="M 0,0 H 688 V 552 H 0 Z"
         id="path322"
         inkscape:connector-curvature="0" /></clipPath><clipPath
       clipPathUnits="userSpaceOnUse"
       id="clipPath348"><path
         d="M 55.445,48.75 H 669.242 V 492.27 H 55.445 Z"
         id="path346"
         inkscape:connector-curvature="0" /></clipPath><clipPath
       clipPathUnits="userSpaceOnUse"
       id="clipPath356"><path
         d="M 0,0 H 688 V 552 H 0 Z"
         id="path354"
         inkscape:connector-curvature="0" /></clipPath><clipPath
       clipPathUnits="userSpaceOnUse"
       id="clipPath380"><path
         d="M 55.445,48.75 H 669.242 V 492.27 H 55.445 Z"
         id="path378"
         inkscape:connector-curvature="0" /></clipPath><clipPath
       clipPathUnits="userSpaceOnUse"
       id="clipPath388"><path
         d="M 0,0 H 688 V 552 H 0 Z"
         id="path386"
         inkscape:connector-curvature="0" /></clipPath><clipPath
       clipPathUnits="userSpaceOnUse"
       id="clipPath412"><path
         d="M 55.445,48.75 H 669.242 V 492.27 H 55.445 Z"
         id="path410"
         inkscape:connector-curvature="0" /></clipPath><clipPath
       clipPathUnits="userSpaceOnUse"
       id="clipPath420"><path
         d="M 0,0 H 688 V 552 H 0 Z"
         id="path418"
         inkscape:connector-curvature="0" /></clipPath><clipPath
       clipPathUnits="userSpaceOnUse"
       id="clipPath444"><path
         d="M 55.445,48.75 H 669.242 V 492.27 H 55.445 Z"
         id="path442"
         inkscape:connector-curvature="0" /></clipPath><clipPath
       clipPathUnits="userSpaceOnUse"
       id="clipPath452"><path
         d="M 0,0 H 688 V 552 H 0 Z"
         id="path450"
         inkscape:connector-curvature="0" /></clipPath><clipPath
       clipPathUnits="userSpaceOnUse"
       id="clipPath476"><path
         d="M 55.445,48.75 H 669.242 V 492.27 H 55.445 Z"
         id="path474"
         inkscape:connector-curvature="0" /></clipPath><clipPath
       clipPathUnits="userSpaceOnUse"
       id="clipPath484"><path
         d="M 0,0 H 688 V 552 H 0 Z"
         id="path482"
         inkscape:connector-curvature="0" /></clipPath><clipPath
       clipPathUnits="userSpaceOnUse"
       id="clipPath508"><path
         d="M 55.445,48.75 H 669.242 V 492.27 H 55.445 Z"
         id="path506"
         inkscape:connector-curvature="0" /></clipPath><clipPath
       clipPathUnits="userSpaceOnUse"
       id="clipPath518"><path
         d="M 0,0 H 688 V 552 H 0 Z"
         id="path516"
         inkscape:connector-curvature="0" /></clipPath><clipPath
       clipPathUnits="userSpaceOnUse"
       id="clipPath534"><path
         d="M 0,0 H 688 V 552 H 0 Z"
         id="path532"
         inkscape:connector-curvature="0" /></clipPath><clipPath
       clipPathUnits="userSpaceOnUse"
       id="clipPath550"><path
         d="M 0,0 H 688 V 552 H 0 Z"
         id="path548"
         inkscape:connector-curvature="0" /></clipPath></defs><sodipodi:namedview
     pagecolor="#ffffff"
     bordercolor="#666666"
     borderopacity="1"
     objecttolerance="10"
     gridtolerance="10"
     guidetolerance="10"
     inkscape:pageopacity="0"
     inkscape:pageshadow="2"
     inkscape:window-width="640"
     inkscape:window-height="480"
     id="namedview4"
     showgrid="false"
     inkscape:zoom="0.32116183"
     inkscape:cx="458.5347"
     inkscape:cy="367.41602"
     inkscape:window-x="0"
     inkscape:window-y="0"
     inkscape:window-maximized="0"
     inkscape:current-layer="g10" /><g
     id="g10"
     inkscape:groupmode="layer"
     inkscape:label="profile_b0_1"
     transform="matrix(1.3333333,0,0,1.3333333,0,1.7704134e-5)"><g
       id="g12"><path
         d="M 0,0 H 688 V 552 H 0 Z"
         style="fill:#ffffff;fill-opacity:1;fill-rule:nonzero;stroke:none"
         id="path14"
         inkscape:connector-curvature="0" /><path
         d="M 55.445,48.75 H 669.242 V 492.27 H 55.445 Z"
         style="fill:#ffffff;fill-opacity:1;fill-rule:nonzero;stroke:none"
         id="path16"
         inkscape:connector-curvature="0" /></g><g
       id="g18"><g
         id="g20"
         clip-path="url(#clipPath24)"><g
           id="g26"><g
             id="g28" /><g
             id="g42"><g
               clip-path="url(#clipPath32)"
               id="g40"><g
                 id="g38"><g
                   transform="scale(1,-1)"
                   id="g36"><path
                     d="M 83.344,-492.27 V -48.75"
                     style="fill:none;stroke:#cccccc;stroke-width:1.5;stroke-linecap:round;stroke-linejoin:round;stroke-miterlimit:10;stroke-dasharray:none;stroke-opacity:0.7"
                     id="path34"
                     inkscape:connector-curvature="0" /></g></g></g></g></g></g></g><g
       id="g44"><text
         transform="translate(78.093383,517.3011)"
         style="font-variant:normal;font-weight:normal;font-size:16.5px;font-family:'DejaVu Sans';-inkscape-font-specification:DejaVuSans;writing-mode:lr-tb;fill:#262626;fill-opacity:1;fill-rule:nonzero;stroke:none"
         id="text48"><tspan
           x="0"
           y="0"
           id="tspan46">0</tspan></text>
</g><g
       id="g50"><g
         id="g52"
         clip-path="url(#clipPath56)"><g
           id="g58"><g
             id="g60" /><g
             id="g74"><g
               clip-path="url(#clipPath64)"
               id="g72"><g
                 id="g70"><g
                   transform="scale(1,-1)"
                   id="g68"><path
                     d="M 153.094,-492.27 V -48.75"
                     style="fill:none;stroke:#cccccc;stroke-width:1.5;stroke-linecap:round;stroke-linejoin:round;stroke-miterlimit:10;stroke-dasharray:none;stroke-opacity:0.7"
                     id="path66"
                     inkscape:connector-curvature="0" /></g></g></g></g></g></g></g><g
       id="g76"><text
         transform="translate(142.59338,517.3011)"
         style="font-variant:normal;font-weight:normal;font-size:16.5px;font-family:'DejaVu Sans';-inkscape-font-specification:DejaVuSans;writing-mode:lr-tb;fill:#262626;fill-opacity:1;fill-rule:nonzero;stroke:none"
         id="text80"><tspan
           x="0 10.494"
           y="0"
           sodipodi:role="line"
           id="tspan78">10</tspan></text>
</g><g
       id="g82"><g
         id="g84"
         clip-path="url(#clipPath88)"><g
           id="g90"><g
             id="g92" /><g
             id="g106"><g
               clip-path="url(#clipPath96)"
               id="g104"><g
                 id="g102"><g
                   transform="scale(1,-1)"
                   id="g100"><path
                     d="M 222.844,-492.27 V -48.75"
                     style="fill:none;stroke:#cccccc;stroke-width:1.5;stroke-linecap:round;stroke-linejoin:round;stroke-miterlimit:10;stroke-dasharray:none;stroke-opacity:0.7"
                     id="path98"
                     inkscape:connector-curvature="0" /></g></g></g></g></g></g></g><g
       id="g108"><text
         transform="translate(212.34338,517.3011)"
         style="font-variant:normal;font-weight:normal;font-size:16.5px;font-family:'DejaVu Sans';-inkscape-font-specification:DejaVuSans;writing-mode:lr-tb;fill:#262626;fill-opacity:1;fill-rule:nonzero;stroke:none"
         id="text112"><tspan
           x="0 10.494"
           y="0"
           sodipodi:role="line"
           id="tspan110">20</tspan></text>
</g><g
       id="g114"><g
         id="g116"
         clip-path="url(#clipPath120)"><g
           id="g122"><g
             id="g124" /><g
             id="g138"><g
               clip-path="url(#clipPath128)"
               id="g136"><g
                 id="g134"><g
                   transform="scale(1,-1)"
                   id="g132"><path
                     d="M 292.594,-492.27 V -48.75"
                     style="fill:none;stroke:#cccccc;stroke-width:1.5;stroke-linecap:round;stroke-linejoin:round;stroke-miterlimit:10;stroke-dasharray:none;stroke-opacity:0.7"
                     id="path130"
                     inkscape:connector-curvature="0" /></g></g></g></g></g></g></g><g
       id="g140"><text
         transform="translate(282.09338,517.3011)"
         style="font-variant:normal;font-weight:normal;font-size:16.5px;font-family:'DejaVu Sans';-inkscape-font-specification:DejaVuSans;writing-mode:lr-tb;fill:#262626;fill-opacity:1;fill-rule:nonzero;stroke:none"
         id="text144"><tspan
           x="0 10.494"
           y="0"
           sodipodi:role="line"
           id="tspan142">30</tspan></text>
</g><g
       id="g146"><g
         id="g148"
         clip-path="url(#clipPath152)"><g
           id="g154"><g
             id="g156" /><g
             id="g170"><g
               clip-path="url(#clipPath160)"
               id="g168"><g
                 id="g166"><g
                   transform="scale(1,-1)"
                   id="g164"><path
                     d="M 362.344,-492.27 V -48.75"
                     style="fill:none;stroke:#cccccc;stroke-width:1.5;stroke-linecap:round;stroke-linejoin:round;stroke-miterlimit:10;stroke-dasharray:none;stroke-opacity:0.7"
                     id="path162"
                     inkscape:connector-curvature="0" /></g></g></g></g></g></g></g><g
       id="g172"><text
         transform="translate(351.84338,517.3011)"
         style="font-variant:normal;font-weight:normal;font-size:16.5px;font-family:'DejaVu Sans';-inkscape-font-specification:DejaVuSans;writing-mode:lr-tb;fill:#262626;fill-opacity:1;fill-rule:nonzero;stroke:none"
         id="text176"><tspan
           x="0 10.494"
           y="0"
           sodipodi:role="line"
           id="tspan174">40</tspan></text>
</g><g
       id="g178"><g
         id="g180"
         clip-path="url(#clipPath184)"><g
           id="g186"><g
             id="g188" /><g
             id="g202"><g
               clip-path="url(#clipPath192)"
               id="g200"><g
                 id="g198"><g
                   transform="scale(1,-1)"
                   id="g196"><path
                     d="M 432.094,-492.27 V -48.75"
                     style="fill:none;stroke:#cccccc;stroke-width:1.5;stroke-linecap:round;stroke-linejoin:round;stroke-miterlimit:10;stroke-dasharray:none;stroke-opacity:0.7"
                     id="path194"
                     inkscape:connector-curvature="0" /></g></g></g></g></g></g></g><g
       id="g204"><text
         transform="translate(421.59337,517.3011)"
         style="font-variant:normal;font-weight:normal;font-size:16.5px;font-family:'DejaVu Sans';-inkscape-font-specification:DejaVuSans;writing-mode:lr-tb;fill:#262626;fill-opacity:1;fill-rule:nonzero;stroke:none"
         id="text208"><tspan
           x="0 10.494"
           y="0"
           sodipodi:role="line"
           id="tspan206">50</tspan></text>
</g><g
       id="g210"><g
         id="g212"
         clip-path="url(#clipPath216)"><g
           id="g218"><g
             id="g220" /><g
             id="g234"><g
               clip-path="url(#clipPath224)"
               id="g232"><g
                 id="g230"><g
                   transform="scale(1,-1)"
                   id="g228"><path
                     d="M 501.844,-492.27 V -48.75"
                     style="fill:none;stroke:#cccccc;stroke-width:1.5;stroke-linecap:round;stroke-linejoin:round;stroke-miterlimit:10;stroke-dasharray:none;stroke-opacity:0.7"
                     id="path226"
                     inkscape:connector-curvature="0" /></g></g></g></g></g></g></g><g
       id="g236"><text
         transform="translate(491.34337,517.3011)"
         style="font-variant:normal;font-weight:normal;font-size:16.5px;font-family:'DejaVu Sans';-inkscape-font-specification:DejaVuSans;writing-mode:lr-tb;fill:#262626;fill-opacity:1;fill-rule:nonzero;stroke:none"
         id="text240"><tspan
           x="0 10.494"
           y="0"
           sodipodi:role="line"
           id="tspan238">60</tspan></text>
</g><g
       id="g242"><g
         id="g244"
         clip-path="url(#clipPath248)"><g
           id="g250"><g
             id="g252" /><g
             id="g266"><g
               clip-path="url(#clipPath256)"
               id="g264"><g
                 id="g262"><g
                   transform="scale(1,-1)"
                   id="g260"><path
                     d="M 571.594,-492.27 V -48.75"
                     style="fill:none;stroke:#cccccc;stroke-width:1.5;stroke-linecap:round;stroke-linejoin:round;stroke-miterlimit:10;stroke-dasharray:none;stroke-opacity:0.7"
                     id="path258"
                     inkscape:connector-curvature="0" /></g></g></g></g></g></g></g><g
       id="g268"><text
         transform="translate(561.09337,517.3011)"
         style="font-variant:normal;font-weight:normal;font-size:16.5px;font-family:'DejaVu Sans';-inkscape-font-specification:DejaVuSans;writing-mode:lr-tb;fill:#262626;fill-opacity:1;fill-rule:nonzero;stroke:none"
         id="text272"><tspan
           x="0 10.494"
           y="0"
           sodipodi:role="line"
           id="tspan270">70</tspan></text>
</g><g
       id="g274"><g
         id="g276"
         clip-path="url(#clipPath280)"><g
           id="g282"><g
             id="g284" /><g
             id="g298"><g
               clip-path="url(#clipPath288)"
               id="g296"><g
                 id="g294"><g
                   transform="scale(1,-1)"
                   id="g292"><path
                     d="M 641.344,-492.27 V -48.75"
                     style="fill:none;stroke:#cccccc;stroke-width:1.5;stroke-linecap:round;stroke-linejoin:round;stroke-miterlimit:10;stroke-dasharray:none;stroke-opacity:0.7"
                     id="path290"
                     inkscape:connector-curvature="0" /></g></g></g></g></g></g></g><g
       id="g300"><text
         transform="translate(630.84337,517.3011)"
         style="font-variant:normal;font-weight:normal;font-size:16.5px;font-family:'DejaVu Sans';-inkscape-font-specification:DejaVuSans;writing-mode:lr-tb;fill:#262626;fill-opacity:1;fill-rule:nonzero;stroke:none"
         id="text304"><tspan
           x="0 10.494"
           y="0"
           sodipodi:role="line"
           id="tspan302">80</tspan></text>
<text
         transform="translate(318.97619,538.41048)"
         style="font-variant:normal;font-weight:normal;font-size:18px;font-family:'DejaVu Sans';-inkscape-font-specification:DejaVuSans;writing-mode:lr-tb;fill:#262626;fill-opacity:1;fill-rule:nonzero;stroke:none"
         id="text308"><tspan
           x="0 9.3599997 14.346 19.332001 29.214001 40.284 45.990002 53.046001 58.032001 75.564003"
           y="0"
           sodipodi:role="line"
           id="tspan306">slice time</tspan></text>
</g><g
       id="g310"><g
         id="g312"
         clip-path="url(#clipPath316)"><g
           id="g318"><g
             id="g320" /><g
             id="g334"><g
               clip-path="url(#clipPath324)"
               id="g332"><g
                 id="g330"><g
                   transform="scale(1,-1)"
                   id="g328"><path
                     d="M 55.445,-463.594 H 669.242"
                     style="fill:none;stroke:#cccccc;stroke-width:1.5;stroke-linecap:round;stroke-linejoin:round;stroke-miterlimit:10;stroke-dasharray:none;stroke-opacity:0.7"
                     id="path326"
                     inkscape:connector-curvature="0" /></g></g></g></g></g></g></g><g
       id="g336"><text
         transform="translate(16.693385,469.85791)"
         style="font-variant:normal;font-weight:normal;font-size:16.5px;font-family:'DejaVu Sans';-inkscape-font-specification:DejaVuSans;writing-mode:lr-tb;fill:#262626;fill-opacity:1;fill-rule:nonzero;stroke:none"
         id="text340"><tspan
           x="0 10.494 15.7245"
           y="0"
           sodipodi:role="line"
           id="tspan338">0.0</tspan></text>
</g><g
       id="g342"><g
         id="g344"
         clip-path="url(#clipPath348)"><g
           id="g350"><g
             id="g352" /><g
             id="g366"><g
               clip-path="url(#clipPath356)"
               id="g364"><g
                 id="g362"><g
                   transform="scale(1,-1)"
                   id="g360"><path
                     d="M 55.445,-384.656 H 669.242"
                     style="fill:none;stroke:#cccccc;stroke-width:1.5;stroke-linecap:round;stroke-linejoin:round;stroke-miterlimit:10;stroke-dasharray:none;stroke-opacity:0.7"
                     id="path358"
                     inkscape:connector-curvature="0" /></g></g></g></g></g></g></g><g
       id="g368"><text
         transform="translate(16.693385,390.92142)"
         style="font-variant:normal;font-weight:normal;font-size:16.5px;font-family:'DejaVu Sans';-inkscape-font-specification:DejaVuSans;writing-mode:lr-tb;fill:#262626;fill-opacity:1;fill-rule:nonzero;stroke:none"
         id="text372"><tspan
           x="0 10.494 15.7245"
           y="0"
           sodipodi:role="line"
           id="tspan370">0.2</tspan></text>
</g><g
       id="g374"><g
         id="g376"
         clip-path="url(#clipPath380)"><g
           id="g382"><g
             id="g384" /><g
             id="g398"><g
               clip-path="url(#clipPath388)"
               id="g396"><g
                 id="g394"><g
                   transform="scale(1,-1)"
                   id="g392"><path
                     d="M 55.445,-305.719 H 669.242"
                     style="fill:none;stroke:#cccccc;stroke-width:1.5;stroke-linecap:round;stroke-linejoin:round;stroke-miterlimit:10;stroke-dasharray:none;stroke-opacity:0.7"
                     id="path390"
                     inkscape:connector-curvature="0" /></g></g></g></g></g></g></g><g
       id="g400"><text
         transform="translate(16.693385,311.98494)"
         style="font-variant:normal;font-weight:normal;font-size:16.5px;font-family:'DejaVu Sans';-inkscape-font-specification:DejaVuSans;writing-mode:lr-tb;fill:#262626;fill-opacity:1;fill-rule:nonzero;stroke:none"
         id="text404"><tspan
           x="0 10.494 15.7245"
           y="0"
           sodipodi:role="line"
           id="tspan402">0.4</tspan></text>
</g><g
       id="g406"><g
         id="g408"
         clip-path="url(#clipPath412)"><g
           id="g414"><g
             id="g416" /><g
             id="g430"><g
               clip-path="url(#clipPath420)"
               id="g428"><g
                 id="g426"><g
                   transform="scale(1,-1)"
                   id="g424"><path
                     d="M 55.445,-226.781 H 669.242"
                     style="fill:none;stroke:#cccccc;stroke-width:1.5;stroke-linecap:round;stroke-linejoin:round;stroke-miterlimit:10;stroke-dasharray:none;stroke-opacity:0.7"
                     id="path422"
                     inkscape:connector-curvature="0" /></g></g></g></g></g></g></g><g
       id="g432"><text
         transform="translate(16.693385,233.04846)"
         style="font-variant:normal;font-weight:normal;font-size:16.5px;font-family:'DejaVu Sans';-inkscape-font-specification:DejaVuSans;writing-mode:lr-tb;fill:#262626;fill-opacity:1;fill-rule:nonzero;stroke:none"
         id="text436"><tspan
           x="0 10.494 15.7245"
           y="0"
           sodipodi:role="line"
           id="tspan434">0.6</tspan></text>
</g><g
       id="g438"><g
         id="g440"
         clip-path="url(#clipPath444)"><g
           id="g446"><g
             id="g448" /><g
             id="g462"><g
               clip-path="url(#clipPath452)"
               id="g460"><g
                 id="g458"><g
                   transform="scale(1,-1)"
                   id="g456"><path
                     d="M 55.445,-147.848 H 669.242"
                     style="fill:none;stroke:#cccccc;stroke-width:1.5;stroke-linecap:round;stroke-linejoin:round;stroke-miterlimit:10;stroke-dasharray:none;stroke-opacity:0.7"
                     id="path454"
                     inkscape:connector-curvature="0" /></g></g></g></g></g></g></g><g
       id="g464"><text
         transform="translate(16.693385,154.11197)"
         style="font-variant:normal;font-weight:normal;font-size:16.5px;font-family:'DejaVu Sans';-inkscape-font-specification:DejaVuSans;writing-mode:lr-tb;fill:#262626;fill-opacity:1;fill-rule:nonzero;stroke:none"
         id="text468"><tspan
           x="0 10.494 15.7245"
           y="0"
           sodipodi:role="line"
           id="tspan466">0.8</tspan></text>
</g><g
       id="g470"><g
         id="g472"
         clip-path="url(#clipPath476)"><g
           id="g478"><g
             id="g480" /><g
             id="g494"><g
               clip-path="url(#clipPath484)"
               id="g492"><g
                 id="g490"><g
                   transform="scale(1,-1)"
                   id="g488"><path
                     d="M 55.445,-68.91 H 669.242"
                     style="fill:none;stroke:#cccccc;stroke-width:1.5;stroke-linecap:round;stroke-linejoin:round;stroke-miterlimit:10;stroke-dasharray:none;stroke-opacity:0.7"
                     id="path486"
                     inkscape:connector-curvature="0" /></g></g></g></g></g></g></g><g
       id="g496"><text
         transform="translate(16.693385,75.175492)"
         style="font-variant:normal;font-weight:normal;font-size:16.5px;font-family:'DejaVu Sans';-inkscape-font-specification:DejaVuSans;writing-mode:lr-tb;fill:#262626;fill-opacity:1;fill-rule:nonzero;stroke:none"
         id="text500"><tspan
           x="0 10.494 15.7245"
           y="0"
           sodipodi:role="line"
           id="tspan498">1.0</tspan></text>
</g><g
       id="g502"><g
         id="g504"
         clip-path="url(#clipPath508)"><g
           id="g510"><g
             id="g512"><g
               id="g514"
               clip-path="url(#clipPath518)"><g
                 id="g520"><g
                   id="g522"
                   transform="scale(1,-1)"><path
                     d="m 83.344,-68.91 6.976,-52.899 6.973,-46.347 6.977,-40.364 6.972,-35.128 6.977,-30.762 6.976,-26.547 6.973,-23.586 6.977,-20.687 6.972,-17.512 6.977,-15.235 6.976,-13.218 6.973,-11.571 6.977,-10.113 6.972,-8.711 6.977,-7.371 6.976,-6.531 6.973,-5.848 6.977,-4.894 6.972,-4.039 6.977,-3.481 6.976,-2.508 6.973,-2.312 6.977,-1.461 6.972,-1.59 6.977,-1.07 6.976,-0.68 6.973,-0.332 6.977,-0.406 6.972,-0.707 6.977,-0.735 6.976,-0.441 6.973,-0.336 6.977,-0.129 6.972,-0.184 6.977,-0.132 6.976,-0.211 6.973,-0.535 6.977,-0.09 6.972,-0.051 6.977,-0.09 6.976,0.09 6.973,0.051 6.977,0.09 6.972,0.535 6.977,0.211 6.976,0.132 6.973,0.184 6.977,0.129 6.972,0.336 6.977,0.441 6.976,0.735 6.973,0.707 6.977,0.406 6.972,0.332 6.977,0.68 6.976,1.07 6.973,1.59 6.977,1.461 6.972,2.312 6.977,2.508 6.976,3.481 6.973,4.039 6.977,4.894 6.972,5.848 6.977,6.531 6.976,7.371 6.973,8.711 6.977,10.113 6.972,11.571 6.977,13.218 6.976,15.235 6.973,17.512 6.977,20.687 6.972,23.586 6.977,26.547 6.976,30.762 6.973,35.128 6.977,40.364 6.972,46.347 6.977,52.899"
                     style="fill:none;stroke:#1f77b4;stroke-width:2.25;stroke-linecap:round;stroke-linejoin:round;stroke-miterlimit:10;stroke-dasharray:none;stroke-opacity:1"
                     id="path524"
                     inkscape:connector-curvature="0" /></g></g></g></g></g><g
           id="g526"><g
             id="g528"><g
               id="g530"
               clip-path="url(#clipPath534)"><g
                 id="g536"><g
                   id="g538"
                   transform="scale(1,-1)"><path
                     d="m 83.344,-68.91 6.976,-51.973 6.973,-45.539 6.977,-39.746 6.972,-34.57 6.977,-30.336 6.976,-26.293 6.973,-23.399 6.977,-20.55 6.972,-17.532 6.977,-15.304 6.976,-13.274 6.973,-11.613 6.977,-10.152 6.972,-8.801 6.977,-7.481 6.976,-6.695 6.973,-5.977 6.977,-5.019 6.972,-4.152 6.977,-3.582 6.976,-2.536 6.973,-2.261 6.977,-1.469 6.972,-1.609 6.977,-1.09 6.976,-0.707 6.973,-0.293 6.977,-0.367 6.972,-0.625 6.977,-0.668 6.976,-0.274 6.973,-0.141 6.977,0.071 6.972,0.027 6.977,0.063 6.976,-0.09 6.973,-0.434 6.977,-0.008 6.972,0.008 6.977,-0.101 6.976,0.101 6.973,-0.008 6.977,0.008 6.972,0.434 6.977,0.09 6.976,-0.063 6.973,-0.027 6.977,-0.071 6.972,0.141 6.977,0.274 6.976,0.668 6.973,0.625 6.977,0.367 6.972,0.293 6.977,0.707 6.976,1.09 6.973,1.609 6.977,1.469 6.972,2.261 6.977,2.536 6.976,3.582 6.973,4.152 6.977,5.019 6.972,5.977 6.977,6.695 6.976,7.481 6.973,8.801 6.977,10.152 6.972,11.613 6.977,13.274 6.976,15.304 6.973,17.532 6.977,20.55 6.972,23.399 6.977,26.293 6.976,30.336 6.973,34.57 6.977,39.746 6.972,45.539 6.977,51.973"
                     style="fill:none;stroke:#d62728;stroke-width:2.25;stroke-linecap:round;stroke-linejoin:round;stroke-miterlimit:10;stroke-dasharray:none;stroke-opacity:1"
                     id="path540"
                     inkscape:connector-curvature="0" /></g></g></g></g></g><g
           id="g542"><g
             id="g544"><g
               id="g546"
               clip-path="url(#clipPath550)"><g
                 id="g552"><g
                   id="g554"
                   transform="scale(1,-1)"><path
                     d="m 83.344,-68.91 6.976,-53.828 6.973,-47.153 6.977,-40.98 6.972,-35.684 6.977,-31.191 6.976,-26.805 6.973,-23.773 6.977,-20.817 6.972,-17.492 6.977,-15.172 6.976,-13.156 6.973,-11.531 6.977,-10.074 6.972,-8.622 6.977,-7.261 6.976,-6.371 6.973,-5.719 6.977,-4.77 6.972,-3.921 6.977,-3.379 6.976,-2.481 6.973,-2.363 6.977,-1.457 6.972,-1.563 6.977,-1.05 6.976,-0.661 6.973,-0.363 6.977,-0.453 6.972,-0.789 6.977,-0.797 6.976,-0.605 6.973,-0.532 6.977,-0.332 6.972,-0.394 6.977,-0.328 6.976,-0.336 6.973,-0.629 6.977,-0.18 6.972,-0.105 6.977,-0.082 6.976,0.082 6.973,0.105 6.977,0.18 6.972,0.629 6.977,0.336 6.976,0.328 6.973,0.394 6.977,0.332 6.972,0.532 6.977,0.605 6.976,0.797 6.973,0.789 6.977,0.453 6.972,0.363 6.977,0.661 6.976,1.05 6.973,1.563 6.977,1.457 6.972,2.363 6.977,2.481 6.976,3.379 6.973,3.921 6.977,4.77 6.972,5.719 6.977,6.371 6.976,7.261 6.973,8.622 6.977,10.074 6.972,11.531 6.977,13.156 6.976,15.172 6.973,17.492 6.977,20.817 6.972,23.773 6.977,26.805 6.976,31.191 6.973,35.684 6.977,40.98 6.972,47.153 6.977,53.828"
                     style="fill:none;stroke:#d62728;stroke-width:2.25;stroke-linecap:round;stroke-linejoin:round;stroke-miterlimit:10;stroke-dasharray:none;stroke-opacity:1"
                     id="path556"
                     inkscape:connector-curvature="0" /></g></g></g></g></g></g></g><g
       id="g558"><g
         id="g560"
         transform="scale(1,-1)"><path
           d="M 55.445,-492.27 V -48.75"
           style="fill:none;stroke:#cccccc;stroke-width:1.875;stroke-linecap:square;stroke-linejoin:miter;stroke-miterlimit:10;stroke-dasharray:none;stroke-opacity:1"
           id="path562"
           inkscape:connector-curvature="0" /></g><g
         id="g564"
         transform="scale(1,-1)"><path
           d="M 669.242,-492.27 V -48.75"
           style="fill:none;stroke:#cccccc;stroke-width:1.875;stroke-linecap:square;stroke-linejoin:miter;stroke-miterlimit:10;stroke-dasharray:none;stroke-opacity:1"
           id="path566"
           inkscape:connector-curvature="0" /></g><g
         id="g568"
         transform="scale(1,-1)"><path
           d="M 55.445,-492.27 H 669.242"
           style="fill:none;stroke:#cccccc;stroke-width:1.875;stroke-linecap:square;stroke-linejoin:miter;stroke-miterlimit:10;stroke-dasharray:none;stroke-opacity:1"
           id="path570"
           inkscape:connector-curvature="0" /></g><g
         id="g572"
         transform="scale(1,-1)"><path
           d="M 55.445,-48.75 H 669.242"
           style="fill:none;stroke:#cccccc;stroke-width:1.875;stroke-linecap:square;stroke-linejoin:miter;stroke-miterlimit:10;stroke-dasharray:none;stroke-opacity:1"
           id="path574"
           inkscape:connector-curvature="0" /></g><text
         transform="translate(254.42932,22.593613)"
         style="font-variant:normal;font-weight:normal;font-size:18px;font-family:'DejaVu Sans';-inkscape-font-specification:DejaVuSans;writing-mode:lr-tb;fill:#262626;fill-opacity:1;fill-rule:nonzero;stroke:none"
         id="text580"><tspan
           x="0 10.854 23.346001 37.512001 47.862 53.153999 63.18 74.538002 80.244003 92.807999 106.974 119.466 131.95799 143.31599 153.342 165.65401 176.634 181.92599 196.092 209.556"
           y="0"
           sodipodi:role="line"
           id="tspan576">PROFILE CORRELATION:</tspan><tspan
           x="24.067745 34.093746 45.109745 62.641747 74.053749 85.465744 96.481743 102.18774 117.25375 122.95975 134.40775 140.11374 151.56175 163.00975 174.45775 185.90575"
           y="20.156256"
           sodipodi:role="line"
           id="tspan578">Lambda = 0.69541</tspan></text>
<path
         d="m 270.148,110.387 h 184.391 c 2.203,0 3.301,-1.098 3.301,-3.301 V 60.301 C 457.84,58.102 456.742,57 454.539,57 H 270.148 c -2.203,0 -3.3,1.102 -3.3,3.301 v 46.785 c 0,2.203 1.097,3.301 3.3,3.301 z"
         style="fill:#f4f4f4;fill-opacity:0.8;fill-rule:nonzero;stroke:none"
         id="path582"
         inkscape:connector-curvature="0" /><g
         id="g584"
         transform="scale(1,-1)"><path
           d="m 270.148,-110.387 h 184.391 c 2.203,0 3.301,1.098 3.301,3.301 v 46.785 c 0,2.199 -1.098,3.301 -3.301,3.301 H 270.148 c -2.203,0 -3.3,-1.102 -3.3,-3.301 v -46.785 c 0,-2.203 1.097,-3.301 3.3,-3.301 z"
           style="fill:none;stroke:#cccccc;stroke-width:1.5;stroke-linecap:butt;stroke-linejoin:miter;stroke-miterlimit:10;stroke-dasharray:none;stroke-opacity:0.8"
           id="path586"
           inkscape:connector-curvature="0" /></g><g
         id="g588"
         transform="scale(1,-1)"><path
           d="m 273.445,-70.355 h 33"
           style="fill:none;stroke:#1f77b4;stroke-width:2.25;stroke-linecap:round;stroke-linejoin:round;stroke-miterlimit:10;stroke-dasharray:none;stroke-opacity:1"
           id="path590"
           inkscape:connector-curvature="0" /></g><text
         transform="translate(319.6465,76.131112)"
         style="font-variant:normal;font-weight:normal;font-size:16.5px;font-family:'DejaVu Sans';-inkscape-font-specification:DejaVuSans;writing-mode:lr-tb;fill:#000000;fill-opacity:1;fill-rule:nonzero;stroke:none"
         id="text594"><tspan
           x="0 10.461 20.5425 30.624001 37.091999 45.672001 52.139999 58.921501 69.019501 79.480499 84.710999 100.782 110.9295 121.0275"
           y="0"
           sodipodi:role="line"
           id="tspan592">bootstrap mean</tspan></text>
<g
         id="g596"
         transform="scale(1,-1)"><path
           d="m 273.445,-94.574 h 33"
           style="fill:none;stroke:#d62728;stroke-width:2.25;stroke-linecap:round;stroke-linejoin:round;stroke-miterlimit:10;stroke-dasharray:none;stroke-opacity:1"
           id="path598"
           inkscape:connector-curvature="0" /></g><text
         transform="translate(319.6465,100.34986)"
         style="font-variant:normal;font-weight:normal;font-size:16.5px;font-family:'DejaVu Sans';-inkscape-font-specification:DejaVuSans;writing-mode:lr-tb;fill:#000000;fill-opacity:1;fill-rule:nonzero;stroke:none"
         id="text602"><tspan
           x="0 10.461 20.5425 30.624001 37.091999 45.672001 52.139999 58.921501 69.019501 79.480499 84.710999 93.291 99.759003"
           y="0"
           sodipodi:role="line"
           id="tspan600">bootstrap std</tspan></text>
</g></g></svg>