<?xml version="1.0" encoding="UTF-8" standalone="no"?>
<!-- Created with Inkscape (http://www.inkscape.org/) -->

<svg
   version="1.1"
   id="svg2"
   xml:space="preserve"
   width="353.30295"
   height="128.11243"
   viewBox="0 0 353.30295 128.11243"
   sodipodi:docname="back-vfns.svg"
   inkscape:version="1.1.2 (0a00cf5339, 2022-02-04)"
   xmlns:inkscape="http://www.inkscape.org/namespaces/inkscape"
   xmlns:sodipodi="http://sodipodi.sourceforge.net/DTD/sodipodi-0.dtd"
   xmlns="http://www.w3.org/2000/svg"
   xmlns:svg="http://www.w3.org/2000/svg"><defs
     id="defs6"><clipPath
       clipPathUnits="userSpaceOnUse"
       id="clipPath94"><path
         d="M 0,0 H 265 V 97 H 0 Z"
         id="path92" /></clipPath><clipPath
       clipPathUnits="userSpaceOnUse"
       id="clipPath132"><path
         d="M 0,0 H 265 V 97 H 0 Z"
         id="path130" /></clipPath><clipPath
       clipPathUnits="userSpaceOnUse"
       id="clipPath214"><path
         d="M 0,0 H 265 V 97 H 0 Z"
         id="path212" /></clipPath><clipPath
       clipPathUnits="userSpaceOnUse"
       id="clipPath232"><path
         d="M 0,0 H 265 V 97 H 0 Z"
         id="path230" /></clipPath></defs><sodipodi:namedview
     id="namedview4"
     pagecolor="#ffffff"
     bordercolor="#666666"
     borderopacity="1.0"
     inkscape:pageshadow="2"
     inkscape:pageopacity="0.0"
     inkscape:pagecheckerboard="0"
     showgrid="false"
     inkscape:zoom="3.6257835"
     inkscape:cx="122.31839"
     inkscape:cy="64.124071"
     inkscape:window-width="1920"
     inkscape:window-height="1057"
     inkscape:window-x="0"
     inkscape:window-y="23"
     inkscape:window-maximized="1"
     inkscape:current-layer="g8" /><g
     id="g8"
     inkscape:groupmode="layer"
     inkscape:label="back-vfns"
     transform="matrix(1.3333333,0,0,1.3333333,0,6.536144e-6)"><g
       id="g10"><g
         id="g12"><path
           d="m 0.426,56.668 0.594,0.055 h 1.613 l 1.012,-0.055 1.195,-0.106 1.371,-0.109 1.555,-0.105 1.609,-0.055 1.672,-0.109 1.73,-0.051 h 1.731 l 1.789,-0.11 1.91,-0.054 2.09,-0.106 2.324,-0.109 2.449,-0.106 2.625,-0.109 2.684,-0.051 2.629,-0.109 2.742,-0.051 2.867,-0.055 2.981,-0.054 h 38.613 l 3.82,0.054 3.879,0.055 3.879,0.051 3.938,0.055 4.121,0.105 4.355,0.109 4.356,0.27 4.418,0.215 4.531,0.265 4.418,0.325 4.656,0.215 4.711,0.324 4.656,0.265 4.715,0.215 4.774,0.215 4.953,0.109 5.011,0.161 5.133,0.105 5.195,0.164 5.071,0.106 5.011,0.109 5.016,0.051 4.953,0.054 4.891,0.055 5.012,0.055 5.078,0.051 10.023,0.109 h 26.793 l 3.703,0.051 3.52,0.164 3.344,0.16 3.101,0.16 2.805,0.16 2.387,0.215 1.968,0.164 1.672,0.16 1.371,0.27 1.196,0.215 0.894,0.16 0.598,0.16 h 0.418 l -0.539,0.055 -0.536,-0.321 -0.597,-0.429"
           style="fill:none;stroke:#808080;stroke-width:0.85;stroke-linecap:round;stroke-linejoin:round;stroke-miterlimit:10;stroke-dasharray:none;stroke-opacity:1"
           id="path14" /></g><g
         id="g16"><path
           d="m 193.598,48.121 0.332,0.098 h 0.445 l 0.336,-0.047 h 0.559 l 0.445,-0.051 0.39,-0.051 0.5,-0.101 0.446,-0.047 0.445,-0.051 0.336,-0.051 h 1.227 l -0.391,-0.05"
           style="fill:none;stroke:#808080;stroke-width:0.793644;stroke-linecap:round;stroke-linejoin:round;stroke-miterlimit:10;stroke-dasharray:none;stroke-opacity:1"
           id="path18" /></g><g
         id="g20"><path
           d="m 202.789,46.617 0.336,-0.051 h 4.18 l 0.613,0.051 0.391,0.051 0.445,0.102 0.332,0.046 0.336,0.051"
           style="fill:none;stroke:#808080;stroke-width:0.793644;stroke-linecap:round;stroke-linejoin:round;stroke-miterlimit:10;stroke-dasharray:none;stroke-opacity:1"
           id="path22" /></g><g
         id="g24"><path
           d="m 91.57,45.52 0.336,0.55 0.278,0.403 0.336,0.402 0.332,0.5 0.336,0.504 0.332,0.5 0.39,0.453 0.445,0.449 0.391,0.403 0.445,0.402 0.391,0.301 0.445,0.199 0.278,0.148 0.336,0.051 0.277,0.051 h 0.391 l 0.336,-0.652 0.113,-0.5 0.054,-0.45 0.055,-0.554 v -1.907 l -0.055,-0.5 v -0.55 L 97.758,45.27 97.645,44.918 97.59,44.52 97.477,44.219 97.422,43.863 97.145,44.016"
           style="fill:none;stroke:#808080;stroke-width:0.793644;stroke-linecap:round;stroke-linejoin:round;stroke-miterlimit:10;stroke-dasharray:none;stroke-opacity:1"
           id="path26" /></g><g
         id="g28"><path
           d="m 79.648,42.965 -0.222,-0.254 -0.281,-0.102 -0.336,0.403 -0.164,0.254 -0.168,0.25 -0.223,0.3 -0.277,0.301 -0.282,0.403 -0.332,0.296 -0.336,0.403 -0.332,0.301 -0.336,0.351 -0.281,0.301 -0.332,0.301 -0.164,0.3 -0.227,0.25 -0.222,0.301 -0.332,0.453 -0.168,0.25 -0.281,0.25 0.222,0.2 0.281,0.101 0.5,0.051 0.391,0.051 0.281,0.05 0.555,0.051 0.445,0.098 h 0.5 l 0.614,0.051 h 0.504 l 0.5,0.05 h 0.558 l 0.5,0.051 h 1.227 l 0.281,0.051 0.332,0.051 0.277,0.047 0.336,0.054"
           style="fill:none;stroke:#808080;stroke-width:0.793644;stroke-linecap:round;stroke-linejoin:round;stroke-miterlimit:10;stroke-dasharray:none;stroke-opacity:1"
           id="path30" /></g><g
         id="g32"><path
           d="m 86,44.219 0.168,0.301 0.055,0.296 v 1.809 l -0.055,0.551 v 0.551 l -0.059,0.601 v 0.602 l -0.054,0.55 v 0.954 -0.301 L 86,49.785 85.941,49.281"
           style="fill:none;stroke:#808080;stroke-width:0.793644;stroke-linecap:round;stroke-linejoin:round;stroke-miterlimit:10;stroke-dasharray:none;stroke-opacity:1"
           id="path34" /></g><g
         id="g36"><path
           d="m 86,44.219 0.504,-0.153 0.277,-0.05 h 0.391 l 0.445,-0.047 h 1.059 l 0.5,-0.051 h 2.508 l 0.281,0.051 0.277,0.047 0.391,0.05 0.277,0.051 -0.5,0.102"
           style="fill:none;stroke:#808080;stroke-width:0.793644;stroke-linecap:round;stroke-linejoin:round;stroke-miterlimit:10;stroke-dasharray:none;stroke-opacity:1"
           id="path38" /></g><g
         id="g40"><path
           d="m 79.367,43.766 0.168,-0.301 0.113,-0.403 0.055,-0.351 v -0.301 0.301 l 0.055,0.402 0.054,0.5 0.114,0.555 0.054,0.602 0.055,0.75 0.059,0.753 v 0.801 l 0.054,0.805 v 1.301 l 0.055,0.55 v 0.356 l 0.055,0.449 v -0.301"
           style="fill:none;stroke:#808080;stroke-width:0.793644;stroke-linecap:round;stroke-linejoin:round;stroke-miterlimit:10;stroke-dasharray:none;stroke-opacity:1"
           id="path42" /></g><g
         id="g44"><path
           d="m 10.609,46.172 -0.277,-0.25 0.055,-0.352 0.277,-0.3 0.449,-0.301 0.555,-0.199 0.5,-0.102 0.336,-0.047 h 0.891 l 0.277,0.047 0.281,0.102 0.336,0.402 0.223,0.5 0.109,0.449 v 0.305 l -0.109,0.301 -0.172,0.398 -0.223,0.301 -0.273,0.199 -0.227,0.301 -0.39,0.304 -0.278,0.098 0.278,0.203 0.39,0.098 0.278,0.101 0.394,0.051 0.668,0.199 0.277,0.102 0.446,0.25 0.222,0.352 0.055,0.402 v 0.301 l -0.055,0.297 -0.39,0.453 -0.332,0.301 -0.446,0.3 -0.445,0.2 -0.504,0.152 -0.558,0.203 -0.614,0.047 -0.554,0.101 -0.614,0.098 -0.554,0.055 -0.504,0.047 H 9.66 L 9.328,52.594 8.879,52.492 8.605,52.293"
           style="fill:none;stroke:#808080;stroke-width:0.793644;stroke-linecap:round;stroke-linejoin:round;stroke-miterlimit:10;stroke-dasharray:none;stroke-opacity:1"
           id="path46" /></g><g
         id="g48"><path
           d="m 18.242,44.918 -0.109,0.352 v 1.304 l -0.059,0.602 v 4.012 -0.352 L 18.02,50.488"
           style="fill:none;stroke:#808080;stroke-width:0.793644;stroke-linecap:round;stroke-linejoin:round;stroke-miterlimit:10;stroke-dasharray:none;stroke-opacity:1"
           id="path50" /></g><g
         id="g52"><path
           d="m 16.797,44.418 0.051,-0.352 0.558,-0.148 0.391,-0.102 0.336,-0.05 1,-0.102 h 2.621 l 1,0.102 0.394,0.097 0.387,0.055 0.559,0.047"
           style="fill:none;stroke:#808080;stroke-width:0.793644;stroke-linecap:round;stroke-linejoin:round;stroke-miterlimit:10;stroke-dasharray:none;stroke-opacity:1"
           id="path54" /></g><g
         id="g56"><path
           d="m 18.355,47.926 0.555,-0.047 h 1.336 l 0.504,-0.051 h 0.5 l 0.336,-0.051 h 0.891"
           style="fill:none;stroke:#808080;stroke-width:0.793644;stroke-linecap:round;stroke-linejoin:round;stroke-miterlimit:10;stroke-dasharray:none;stroke-opacity:1"
           id="path58" /></g><g
         id="g60"><path
           d="m 25.82,44.867 v 1.406 l -0.054,0.454 v 0.5 l -0.059,0.5 -0.055,0.503 -0.054,0.551 -0.055,0.5 -0.059,0.504 -0.054,0.399 v 0.703 l -0.11,-0.5 -0.058,-0.504"
           style="fill:none;stroke:#808080;stroke-width:0.793644;stroke-linecap:round;stroke-linejoin:round;stroke-miterlimit:10;stroke-dasharray:none;stroke-opacity:1"
           id="path62" /></g><g
         id="g64"><path
           d="m 25.652,45.172 0.168,0.246 0.168,0.254 0.278,0.351 0.281,0.403 0.332,0.398 0.281,0.453 0.332,0.45 0.336,0.449 0.387,0.453 0.39,0.402 0.391,0.352 0.391,0.25 0.336,0.199 0.445,0.152 0.555,0.102 0.336,0.047 0.277,-0.047 0.223,-0.356 0.168,-0.55 0.054,-0.5 v -1.657 l -0.054,-0.597 -0.114,-0.555 -0.109,-0.5 -0.055,-0.402 -0.113,-0.403 -0.055,-0.3 -0.168,-0.45 -0.109,-0.3 -0.113,-0.352"
           style="fill:none;stroke:#808080;stroke-width:0.793644;stroke-linecap:round;stroke-linejoin:round;stroke-miterlimit:10;stroke-dasharray:none;stroke-opacity:1"
           id="path66" /></g><g
         id="g68"><path
           d="m 223.297,49.074 0.168,-0.301 0.109,-0.3 0.055,-0.301 -0.109,-0.301 -0.282,-0.051 h -0.332 l -0.5,0.2 -0.445,0.453 -0.113,0.3 -0.059,0.399 0.172,0.254 0.223,0.25 0.332,0.199 0.336,0.301 0.445,0.301 0.332,0.203 0.336,0.3 0.332,0.2 0.394,0.203 0.332,0.347 0.278,0.204 0.39,0.347 0.5,0.551 0.282,0.305 0.168,0.25 0.164,0.301 0.058,0.3 -0.445,0.301 -0.281,0.152 -0.555,0.047 -0.504,0.102 h -0.558 l -0.723,0.051 -0.613,-0.051 h -0.614 l -0.609,-0.102 -0.617,-0.097 -0.555,-0.153 -0.391,-0.152 -0.336,-0.148 -0.277,-0.153 -0.332,-0.195 -0.281,-0.102"
           style="fill:none;stroke:#808080;stroke-width:0.793644;stroke-linecap:round;stroke-linejoin:round;stroke-miterlimit:10;stroke-dasharray:none;stroke-opacity:1"
           id="path70" /></g><g
         id="g72"><path
           d="m 210.594,48.219 0.277,0.402 0.168,0.254 0.164,0.25 0.336,0.301 0.223,0.351 0.222,0.399 0.391,0.351 0.332,0.403 0.336,0.402 0.504,0.449 0.387,0.403 0.89,0.703 0.336,0.301 0.336,0.148 0.277,0.199 0.332,0.102 0.395,0.101 h 0.332 l 0.168,-0.351 0.055,-0.352 0.054,-0.449 0.059,-0.453 -0.059,-0.5 v -0.504 l -0.054,-0.551 -0.055,-0.601 -0.055,-0.551 -0.058,-0.403 -0.055,-0.449 -0.059,-0.301 -0.164,-0.453 -0.109,-0.3 0.445,0.203"
           style="fill:none;stroke:#808080;stroke-width:0.793644;stroke-linecap:round;stroke-linejoin:round;stroke-miterlimit:10;stroke-dasharray:none;stroke-opacity:1"
           id="path74" /></g><g
         id="g76"><path
           d="m 211.316,48.523 -0.054,-0.304 -0.114,0.402 v 0.852 l -0.054,0.504 v 1.152 l -0.055,0.601 -0.059,0.551 v 0.551 l -0.054,0.402 v 1.004 -0.5"
           style="fill:none;stroke:#808080;stroke-width:0.793644;stroke-linecap:round;stroke-linejoin:round;stroke-miterlimit:10;stroke-dasharray:none;stroke-opacity:1"
           id="path78" /></g><g
         id="g80"><path
           d="m 203.57,50.93 0.336,0.152 0.446,0.047 h 2.285 l 0.558,0.051 0.332,0.05"
           style="fill:none;stroke:#808080;stroke-width:0.793644;stroke-linecap:round;stroke-linejoin:round;stroke-miterlimit:10;stroke-dasharray:none;stroke-opacity:1"
           id="path82" /></g><g
         id="g84"><path
           d="m 203.293,48.172 -0.281,0.148 -0.11,0.403 v 0.804 l 0.055,0.45 v 0.652 l 0.055,0.601 v 2.911 l 0.281,-0.203 0.055,-0.551 0.054,-0.403"
           style="fill:none;stroke:#808080;stroke-width:0.793644;stroke-linecap:round;stroke-linejoin:round;stroke-miterlimit:10;stroke-dasharray:none;stroke-opacity:1"
           id="path86" /></g><g
         id="g88"><g
           id="g90" /><g
           id="g104"><g
             clip-path="url(#clipPath94)"
             id="g102"><g
               id="g100"><g
                 id="g98"><path
                   d="m 185.422,58.227 -0.059,-0.375"
                   style="fill:none;stroke:#f9f06b;stroke-width:8.5;stroke-linecap:round;stroke-linejoin:round;stroke-miterlimit:10;stroke-dasharray:none;stroke-opacity:0.470588"
                   id="path96" /></g></g></g></g></g><g
         id="g106"><path
           d="m 194.488,48.422 v 2.91 l 0.332,-0.102 0.45,-0.3 0.445,-0.25 0.336,-0.153 0.277,-0.05 h 0.945 l 0.336,0.05 0.614,0.102 0.558,0.199 0.278,0.254 0.332,0.348 0.222,0.402 0.168,0.25 0.223,0.402 0.113,0.5 -0.058,0.403 -0.11,0.301 -0.168,0.398 -0.445,0.355 -0.391,0.149 -0.332,0.199 -0.336,0.152 -0.445,0.051 -0.336,0.098 -0.5,0.101 -0.336,0.051 -0.332,0.098 -0.336,0.055 -0.332,0.046 -0.672,-0.046 -0.5,-0.102 -0.336,-0.102 -0.386,-0.152 -0.336,-0.195 -0.278,-0.153 -0.281,-0.152"
           style="fill:none;stroke:#808080;stroke-width:0.793644;stroke-linecap:round;stroke-linejoin:round;stroke-miterlimit:10;stroke-dasharray:none;stroke-opacity:1"
           id="path108" /></g><g
         id="g110"><path
           d="m 39.027,44.77 0.11,-0.704 -0.055,-0.3 v -0.352 l -0.332,-0.25 -0.617,-0.152 -0.278,0.101 -0.335,0.102 -0.332,0.152 -0.278,0.195 -0.336,0.254 -0.168,0.25 -0.109,0.301 0.168,0.352 0.445,0.5 0.278,0.254 0.277,0.199 0.336,0.199 0.332,0.152 0.394,0.25 0.446,0.301 0.445,0.199 0.445,0.352 0.387,0.25 0.336,0.301 0.336,0.25 0.277,0.304 0.336,0.5 0.11,0.45 0.058,0.402 v 0.352 l -0.281,0.199 -0.668,0.203 -0.504,0.152 -0.445,0.047 -0.446,0.102 h -0.445 l -0.555,-0.051 -0.504,-0.098 -0.667,-0.203 -0.614,-0.25 -0.445,-0.25 -0.391,-0.203 -0.39,-0.199"
           style="fill:none;stroke:#808080;stroke-width:0.793644;stroke-linecap:round;stroke-linejoin:round;stroke-miterlimit:10;stroke-dasharray:none;stroke-opacity:1"
           id="path112" /></g><g
         id="g114"><path
           d="m 84.996,48.027 h 0.391 l 0.277,0.051 0.445,0.051 0.336,0.047 0.446,0.054 0.39,0.047 0.332,0.051 h 1.508 l 0.555,-0.051"
           style="fill:none;stroke:#808080;stroke-width:0.793644;stroke-linecap:round;stroke-linejoin:round;stroke-miterlimit:10;stroke-dasharray:none;stroke-opacity:1"
           id="path116" /></g><g
         id="g118"><path
           d="m 102.938,45.02 -0.055,-0.301 -0.391,-0.153 -0.336,-0.046 -0.554,0.148 -0.336,0.148 -0.278,0.254 -0.277,0.348 -0.223,0.254 -0.113,0.301 -0.055,0.3 -0.058,0.551 0.058,0.551 0.223,0.25 0.555,0.355 0.668,0.297 0.39,0.2 0.446,0.101 0.445,0.152 0.336,0.2 0.445,0.203 0.391,0.199 0.39,0.25 0.391,0.203 0.277,0.25 0.336,0.352 0.11,0.297 0.054,0.402 -0.332,0.453 -0.558,0.352 -0.5,0.097 -0.5,0.102 -0.672,0.101 -0.613,0.047 h -1.223 l -0.668,-0.148 -0.613,-0.152 -0.672,-0.2 -0.5,-0.199 -0.446,-0.101 -0.335,-0.098"
           style="fill:none;stroke:#808080;stroke-width:0.793644;stroke-linecap:round;stroke-linejoin:round;stroke-miterlimit:10;stroke-dasharray:none;stroke-opacity:1"
           id="path120" /></g><g
         id="g122"><path
           d="m 92.129,45.117 0.055,0.453 v 0.903 l -0.055,0.504 -0.055,0.5 -0.058,0.503 -0.055,0.497 -0.055,0.554 -0.113,0.551 -0.109,0.551 -0.114,0.453 -0.168,0.551 -0.222,-0.403"
           style="fill:none;stroke:#808080;stroke-width:0.793644;stroke-linecap:round;stroke-linejoin:round;stroke-miterlimit:10;stroke-dasharray:none;stroke-opacity:1"
           id="path124" /></g><g
         id="g126"><g
           id="g128" /><g
           id="g142"><g
             clip-path="url(#clipPath132)"
             id="g140"><g
               id="g138"><g
                 id="g136"><path
                   d="M 67.023,54.195 67.324,54.09"
                   style="fill:none;stroke:#ff8000;stroke-width:8.5;stroke-linecap:round;stroke-linejoin:round;stroke-miterlimit:10;stroke-dasharray:none;stroke-opacity:0.470588"
                   id="path134" /></g></g></g></g></g><g
         id="g144"><path
           d="m 183.332,47.324 0.121,0.43 v 0.965 l 0.059,0.429 v 0.43 l 0.058,0.539 0.063,0.375 0.058,0.43 0.063,0.32 0.055,0.379 0.062,0.535 0.059,0.43 0.062,0.59 0.055,0.484 v 0.75 l 0.062,0.379 0.059,0.75 v 2.098 l 0.18,0.265"
           style="fill:none;stroke:#808080;stroke-width:0.85;stroke-linecap:round;stroke-linejoin:round;stroke-miterlimit:10;stroke-dasharray:none;stroke-opacity:1"
           id="path146" /></g><g
         id="g148"><path
           d="m 66.547,43.887 v 0.425 l 0.058,0.489 0.059,0.535 v 0.43 l 0.059,0.375 v 1.988 l 0.062,0.43 v 0.375 l 0.059,0.429 v 2.899 l 0.058,0.488 0.063,0.375 0.117,0.32 v -0.32"
           style="fill:none;stroke:#808080;stroke-width:0.85;stroke-linecap:round;stroke-linejoin:round;stroke-miterlimit:10;stroke-dasharray:none;stroke-opacity:1"
           id="path150" /></g><g
         id="g152"><path
           d="m 53.535,88.84 -0.058,-0.59 0.179,-0.59 0.356,-0.808 0.422,-0.86 0.414,-0.965 0.539,-1.129 0.593,-1.234 0.657,-1.398 0.66,-1.395 0.656,-1.453 0.598,-1.5 0.414,-1.453 0.48,-1.5 0.414,-1.399 0.301,-1.394 0.301,-1.293 0.117,-1.18 0.18,-1.019 0.058,-0.914 0.122,-0.75 0.058,-0.7 0.059,-0.593 0.058,-0.535 0.18,-0.75 0.121,-0.59 v 0.964 l -0.062,0.376 v 0.535 l -0.059,0.593 v 3.598 l 0.121,0.535 0.238,0.43 0.239,0.484 0.3,0.321 0.356,0.273 0.539,0.32 0.598,0.055 0.414,-0.055 0.359,-0.164 0.535,-0.32 0.418,-0.43 0.477,-0.644 0.476,-0.696 0.422,-0.808 0.418,-0.86 0.414,-0.859 0.36,-0.805 0.3,-0.753 0.239,-0.645 0.117,-0.426 0.121,-0.539 0.058,-0.32 0.122,-0.539 0.058,0.32 -0.058,0.539 -0.063,0.59 -0.117,1.609 v 1.723 l 0.058,0.855 0.122,0.754 0.117,0.7 0.301,0.589 0.238,0.536 0.297,0.488 0.359,0.32 0.356,0.27 0.3,0.215 v -0.375 l -0.058,-0.594 -0.121,-0.375"
           style="fill:none;stroke:#000000;stroke-width:0.85;stroke-linecap:round;stroke-linejoin:round;stroke-miterlimit:10;stroke-dasharray:none;stroke-opacity:1"
           id="path154" /></g><g
         id="g156"><path
           d="m 78.422,70.898 -0.36,-0.16 -0.296,-0.105 -0.477,-0.055 -0.66,0.27 -0.297,0.324 -0.359,0.375 -0.297,0.43 -0.238,0.535 -0.18,0.429 -0.059,0.43 -0.062,0.32 v 0.325 l 0.238,0.429 0.301,0.27 0.476,0.055 0.539,0.05 0.715,0.11 h 1.254 l 0.656,-0.055 h 0.598 l 0.594,-0.105 0.48,-0.055 0.36,-0.11 0.355,-0.105"
           style="fill:none;stroke:#000000;stroke-width:0.85;stroke-linecap:round;stroke-linejoin:round;stroke-miterlimit:10;stroke-dasharray:none;stroke-opacity:1"
           id="path158" /></g><g
         id="g160"><path
           d="m 177.605,95.445 0.239,0.215 0.355,-0.32 0.184,-0.539 0.117,-0.43 0.176,-0.535 0.121,-0.645 0.18,-0.699 0.238,-0.859 0.301,-0.969 0.296,-1.019 0.356,-1.129 0.301,-1.18 0.359,-1.234 0.356,-1.399 0.418,-1.449 0.359,-1.453 0.418,-1.5 0.359,-1.453 0.356,-1.395 0.179,-1.34 0.239,-1.183 0.058,-1.129 0.121,-1.074 0.063,-1.075 0.055,-1.074 V 66.98 l -0.055,0.536 v 4.296 l 0.055,0.809 0.121,0.695 0.238,0.7 0.238,0.589 0.18,0.594 0.359,0.426 0.18,0.324 0.477,0.321 0.418,0.109 h 0.418 l 0.593,-0.324 0.36,-0.321 0.359,-0.535 0.359,-0.644 0.356,-0.645 0.301,-0.648 0.238,-0.696 0.238,-0.699 0.176,-0.754 0.184,-0.75 0.175,-0.699 0.121,-0.48 0.059,-0.59 0.063,-0.324 v -0.754 l -0.063,0.429 -0.059,0.485 v 0.699 l 0.059,0.699 0.063,0.805 0.058,0.754 0.059,0.75 0.238,0.75 0.18,0.699 0.238,0.644 0.238,0.59 0.121,0.485 0.176,0.375 0.184,0.375 0.238,0.215 -0.062,-0.321"
           style="fill:none;stroke:#000000;stroke-width:0.85;stroke-linecap:round;stroke-linejoin:round;stroke-miterlimit:10;stroke-dasharray:none;stroke-opacity:1"
           id="path162" /></g><g
         id="g164"><path
           d="m 193.359,73.535 -0.179,0.59 v 0.43 l 0.062,0.429 0.117,0.536 0.18,0.484 0.117,0.539 0.121,0.48 0.121,0.43 0.118,0.859 0.238,-0.484 0.18,-0.375 0.355,-0.32 0.301,-0.215 0.476,-0.273 0.301,-0.051 h 0.594 l 0.66,0.109 0.297,0.16 0.238,0.215 0.239,0.27 0.121,0.32 0.238,0.375 0.176,0.699 0.121,0.539 v 0.321 l -0.297,0.375 -0.359,0.164 -0.477,0.105 -0.598,0.106 -0.539,0.054 h -0.535 l -0.476,-0.105 -0.54,-0.16 -0.953,-0.43 -0.48,-0.164"
           style="fill:none;stroke:#000000;stroke-width:0.85;stroke-linecap:round;stroke-linejoin:round;stroke-miterlimit:10;stroke-dasharray:none;stroke-opacity:1"
           id="path166" /></g><g
         id="g168"><path
           d="m 75.258,11.449 -0.18,0.266 0.121,0.43 0.176,0.429 0.359,0.485 0.297,0.32 0.239,0.269"
           style="fill:none;stroke:#0a8ee6;stroke-width:0.85;stroke-linecap:round;stroke-linejoin:round;stroke-miterlimit:10;stroke-dasharray:none;stroke-opacity:1"
           id="path170" /></g><g
         id="g172"><path
           d="m 184.703,26.352 -0.117,-0.321 -0.301,-0.054 -0.359,0.109 -0.356,0.105 -0.297,0.11 -0.359,0.211 -0.238,0.324 -0.238,0.484 -0.18,0.43 v 0.484 l 0.18,0.43 0.296,0.32 0.36,0.321 0.355,0.269 0.36,0.215 0.3,0.109 0.477,0.11 0.297,0.051 h 0.535 l 0.359,-0.051 0.657,-0.11 0.359,-0.164 0.297,-0.16 0.422,-0.32 0.238,-0.375 0.238,-0.484 0.117,-0.434 v -0.965 l -0.117,-0.375 -0.3,-0.32 -0.36,-0.27 -0.355,-0.269 -0.36,-0.16 -0.297,-0.215 -0.296,-0.11 -0.418,-0.105 h -0.481 l -0.656,0.215 -0.297,0.32 -0.359,0.484 -0.536,0.645"
           style="fill:none;stroke:#0a8ee6;stroke-width:0.85;stroke-linecap:round;stroke-linejoin:round;stroke-miterlimit:10;stroke-dasharray:none;stroke-opacity:1"
           id="path174" /></g><g
         id="g176"><path
           d="m 219.078,21.195 -0.297,-0.211 -0.121,-0.324 -0.058,-0.32 -0.301,0.215 -0.176,0.265 0.238,0.27 0.297,0.215 h 0.774 l 0.3,-0.16 0.121,-0.325 -0.062,-0.32 -0.117,-0.324 -0.36,-0.266 -0.296,-0.215 -0.36,-0.109 h -0.359 l -0.356,0.269 -0.242,0.536 -0.055,0.593 v 0.375 l 0.239,0.375 0.297,0.215 0.418,0.106 0.539,0.109 0.714,-0.051 0.418,-0.058 0.297,-0.321 0.118,-0.429 -0.059,-0.43 -0.238,-0.43 -0.239,-0.32 -0.297,-0.215 -0.3,-0.109 h -0.895 l -0.476,0.429 -0.239,0.325 -0.058,0.32 v 0.43 l 0.117,0.32 0.359,0.273 0.539,0.106 h 0.414 l 0.418,-0.106 0.418,-0.218 0.418,-0.27 0.239,-0.265 0.121,-0.325 0.117,-0.32 -0.059,-0.324 -0.058,-0.321 -0.242,-0.32 -0.297,-0.215 -0.356,-0.164 h -0.359 l -0.36,-0.051 h -1.132 l -0.297,0.157 -0.301,0.379 -0.238,0.535 -0.18,0.429 -0.059,0.43 -0.058,0.324 v 0.696 l 0.238,0.324 0.297,0.16 0.359,0.164 0.418,0.106 h 0.895 l 0.297,-0.055 0.48,-0.051 0.297,-0.164 0.356,-0.16 0.3,-0.266 0.18,-0.273 0.059,-0.59 -0.122,-0.645 -0.238,-0.265 -0.297,-0.379 -0.359,-0.32 -0.356,-0.215 -0.359,-0.164 -0.418,-0.157 -0.418,-0.058 h -0.359 l -0.297,0.058 -0.238,0.266 -0.239,0.379 -0.179,0.375 -0.297,0.43"
           style="fill:none;stroke:#0a8ee6;stroke-width:1.41;stroke-linecap:round;stroke-linejoin:round;stroke-miterlimit:10;stroke-dasharray:none;stroke-opacity:1"
           id="path178" /></g><g
         id="g180"><path
           d="m 215.797,17.387 -0.121,-0.325 -0.176,-0.378 -0.184,-0.266 -0.238,-0.324 -0.594,-0.75 -0.476,-0.43 -0.36,-0.375 -0.359,-0.434 -0.477,-0.32 -0.476,-0.43 -0.359,-0.32 -0.477,-0.379 -0.301,-0.265 -0.355,-0.375 -0.418,-0.379 -0.297,-0.215 -0.422,-0.375 -0.238,-0.215 -0.418,-0.27 -0.477,-0.32 -0.418,-0.215 -0.597,-0.269 -0.356,-0.16 -0.476,-0.16 -0.301,-0.11 -0.953,-0.32 -0.477,-0.164 -0.539,-0.11 -0.359,-0.101 -0.356,-0.055 -0.359,-0.055 h -1.61 l -0.777,0.055 -0.777,0.106 -0.715,0.16 -0.418,0.215 -0.297,0.164 -0.418,0.215 -0.238,0.265 -0.36,0.215 -0.359,0.27 -0.297,0.32 -0.355,0.269 -0.598,0.535 -0.539,0.54 -0.238,0.269 -0.297,0.215 -0.301,0.32 -0.18,0.27 -0.238,0.375 -0.18,0.375 -0.175,0.324 -0.18,0.324 -0.18,0.321 -0.179,0.324 -0.118,0.32 -0.183,0.59 -0.176,0.484 -0.117,0.321 -0.184,0.488 -0.238,0.32 0.062,-0.32 -0.062,-0.379 -0.117,-0.324 -0.121,-0.426 -0.18,-0.27 -0.238,-0.214 0.418,0.269 0.3,0.266 0.36,0.215 0.414,0.324 0.539,0.375 0.238,0.215 -0.179,-0.539 -0.239,-0.266 -0.179,-0.324 -0.239,-0.266 -0.355,-0.43 -0.238,-0.214 -0.422,-0.215 -0.418,0.375 -0.239,0.484 -0.238,0.641 -0.18,0.754 -0.238,0.859 -0.18,0.914 -0.296,0.965 -0.239,0.859 -0.238,0.805 -0.18,0.648 -0.121,0.481 -0.058,0.324 -0.059,0.375 0.359,-0.375 0.356,-0.43 0.359,-0.593 0.418,-0.645 0.414,-0.64 0.481,-0.7 0.476,-0.59 0.481,-0.484 0.293,-0.484 0.242,-0.321 0.477,-0.539"
           style="fill:none;stroke:#0a8ee6;stroke-width:0.85;stroke-linecap:round;stroke-linejoin:round;stroke-miterlimit:10;stroke-dasharray:none;stroke-opacity:1"
           id="path182" /></g><g
         id="g184"><path
           d="m 65.289,25.602 -0.18,-0.27 h -0.593 l -0.36,0.109 -0.297,0.161 -0.242,0.214 -0.355,0.485 -0.059,0.375 -0.121,0.48 v 0.324 l 0.121,0.481 0.297,0.379 0.477,0.324 0.597,0.215 0.656,0.16 0.774,0.051 0.48,0.055 0.36,-0.106 0.535,-0.055 0.777,-0.214 0.594,-0.321 0.359,-0.269 0.239,-0.27 0.242,-0.375 0.176,-0.324 0.062,-0.32 0.117,-0.43 0.059,-0.59 v -0.969 l -0.176,-0.539 -0.422,-0.425 -0.297,-0.165 -0.297,-0.105 -0.359,-0.16 -0.355,-0.11 -0.778,-0.105 -0.3,-0.055 h -1.192 l -0.301,0.055 -0.418,0.105 -0.535,0.43 -0.297,0.43 -0.3,0.43"
           style="fill:none;stroke:#0a8ee6;stroke-width:0.85;stroke-linecap:round;stroke-linejoin:round;stroke-miterlimit:10;stroke-dasharray:none;stroke-opacity:1"
           id="path186" /></g><g
         id="g188"><path
           d="m 77.391,16.207 -0.336,-0.141 -0.125,-0.304 -0.121,-0.309 -0.075,-0.359 -0.011,-0.313 0.043,-0.312 0.148,-0.371 0.203,-0.375 0.313,-0.43 0.363,-0.43 0.266,-0.273 0.316,-0.324 0.418,-0.434 0.371,-0.328 0.426,-0.434 0.582,-0.496 0.531,-0.386 0.586,-0.493 0.586,-0.445 0.59,-0.387 0.586,-0.441 0.644,-0.395 0.645,-0.39 0.594,-0.235 0.648,-0.289 0.652,-0.187 0.707,-0.235 0.707,-0.191 0.707,-0.184 0.766,-0.136 0.817,-0.196 0.871,-0.191 0.879,-0.145 0.871,-0.195 0.875,-0.141 0.925,-0.199 0.985,-0.195 0.984,-0.203 1.035,-0.199 1.035,-0.204 1.04,-0.199 1.093,-0.207 1.258,-0.211 1.203,-0.207 1.313,-0.16 1.375,-0.117 1.48,-0.113 1.535,-0.121 1.649,-0.075 1.652,0.032 1.711,0.031 1.656,0.133 1.606,0.191 1.66,0.133 1.664,0.238 1.711,0.082 1.711,0.137 1.824,0.176 1.77,0.133 1.773,0.234 1.719,0.234 1.719,0.289 1.722,0.34 1.664,0.289 1.668,0.344 1.61,0.293 1.613,0.344 1.555,0.347 1.562,0.399 1.504,0.406 1.445,0.348 1.399,0.41 1.394,0.457 1.453,0.457 1.453,0.508 1.458,0.558 1.453,0.512 1.457,0.508 1.402,0.562 1.344,0.512 1.285,0.516 1.238,0.566 1.18,0.469 1.176,0.519 1.179,0.52 1.067,0.422 1.121,0.472 1.066,0.473 1.016,0.477 0.953,0.425 0.902,0.481 0.848,0.48 0.793,0.485 0.68,0.441 0.683,0.488 0.563,0.34 0.457,0.344 0.453,0.289 0.344,0.25 0.23,0.246 0.231,0.199 0.171,0.25 -0.597,0.133"
           style="fill:none;stroke:#0a8ee6;stroke-width:0.802667;stroke-linecap:round;stroke-linejoin:round;stroke-miterlimit:10;stroke-dasharray:none;stroke-opacity:1"
           id="path190" /></g><g
         id="g192"><path
           d="m 75.078,14.969 -0.18,-0.27 -0.296,-0.109 -0.36,0.269 -0.359,0.43 -0.176,0.32 -0.359,0.379 -0.297,0.43 -0.301,0.535 -0.238,0.379 -0.297,0.59 -0.238,0.59 -0.18,0.269 -0.301,0.535 -0.238,0.27 -0.176,0.324 0.477,-0.379 0.476,-0.324 0.297,-0.32 0.359,-0.27 0.778,-0.535 0.715,-0.484 0.476,-0.43 0.356,-0.266 0.48,-0.324 0.359,-0.269 0.356,-0.215 0.359,-0.27 0.36,-0.16 0.418,-0.215 0.297,-0.16"
           style="fill:none;stroke:#0a8ee6;stroke-width:0.85;stroke-linecap:round;stroke-linejoin:round;stroke-miterlimit:10;stroke-dasharray:none;stroke-opacity:1"
           id="path194" /></g><g
         id="g196"><path
           d="m 62.309,19.746 -0.184,-0.43 -0.238,-0.269 -0.297,-0.375 -0.715,-0.645 -0.359,-0.32 -0.239,-0.269 -0.355,-0.379 -0.36,-0.43 L 59.145,16.203 58.727,15.664 58.309,15.289 57.77,14.805 57.234,14.324 56.52,13.84 55.859,13.301 55.086,12.766 54.312,12.281 53.535,11.797 52.699,11.371 51.922,10.938 51.148,10.562 50.434,10.293 49.773,10.078"
           style="fill:none;stroke:#0a8ee6;stroke-width:0.85;stroke-linecap:round;stroke-linejoin:round;stroke-miterlimit:10;stroke-dasharray:none;stroke-opacity:1"
           id="path198" /></g><g
         id="g200"><path
           d="m 29.363,10.293 0.239,-0.32 0.242,-0.375 0.238,-0.27 0.359,-0.269 0.477,-0.266 0.355,-0.273 0.301,-0.161 0.297,-0.054 0.539,-0.16 0.356,-0.055 0.3,-0.051 0.297,-0.055 0.418,-0.054 0.36,-0.055 0.535,-0.051 0.597,-0.054 0.356,-0.055 0.301,-0.051 h 4.894 l 0.535,0.051 0.539,0.109 0.356,0.106 0.301,0.109 0.297,0.051 0.359,0.109 0.359,0.106 0.414,0.054 0.539,0.055 0.301,0.106 0.293,0.058 0.301,0.106 0.359,0.05 0.297,0.059 0.297,0.16 0.359,0.055 0.301,0.101 0.297,0.059 0.297,0.105"
           style="fill:none;stroke:#0a8ee6;stroke-width:0.85;stroke-linecap:round;stroke-linejoin:round;stroke-miterlimit:10;stroke-dasharray:0.5, 3;stroke-dashoffset:0;stroke-opacity:1"
           id="path202" /></g><g
         id="g204"><path
           d="m 62.008,6.559 -0.297,0.16 -0.238,0.269 -0.18,0.324 v 0.641 l 0.059,0.324 0.121,0.375 0.121,0.379 0.293,0.157 0.48,0.058 0.656,0.051 0.539,0.055 0.477,0.054 0.297,0.055 0.297,-0.109 0.301,-0.27 0.238,-0.535 V 8.223 L 64.695,7.953 64.156,7.793 63.859,7.688 63.562,7.578 63.141,7.418 62.844,7.312"
           style="fill:none;stroke:#ff8000;stroke-width:2.26;stroke-linecap:round;stroke-linejoin:round;stroke-miterlimit:10;stroke-dasharray:0.5, 3;stroke-dashoffset:0;stroke-opacity:1"
           id="path206" /></g><g
         id="g208"><g
           id="g210" /><g
           id="g224"><g
             clip-path="url(#clipPath214)"
             id="g222"><g
               id="g220"><g
                 id="g218"><path
                   d="m 77.945,69.234 h -1.73 l -0.36,0.27 -0.238,0.539 -0.121,0.59 v 0.59 l 0.063,0.324 0.058,0.32 0.117,0.324 0.301,0.43 0.356,0.32 0.238,0.215 0.301,0.16 0.297,0.11 0.597,0.375 0.418,0.215 0.297,0.109 0.477,0.051 0.422,0.109 0.296,0.055 h 1.196 l 0.355,-0.11 0.301,-0.265 0.176,-0.274 0.121,-0.429 -0.059,-0.426 -0.238,-0.379 -0.301,-0.266"
                   style="fill:none;stroke:#ff8000;stroke-width:8.5;stroke-linecap:round;stroke-linejoin:round;stroke-miterlimit:10;stroke-dasharray:none;stroke-opacity:0.470588"
                   id="path216" /></g></g></g></g></g><g
         id="g226"><g
           id="g228" /><g
           id="g242"><g
             clip-path="url(#clipPath232)"
             id="g240"><g
               id="g238"><g
                 id="g236"><path
                   d="m 194.137,76.809 -0.36,-0.055 -0.359,-0.211 -0.359,0.051 -0.297,0.109 -0.356,0.16 -0.301,0.215 -0.238,0.32 -0.179,0.54 v 0.804 l 0.238,0.324 0.48,0.375 0.598,0.215 0.594,0.16 0.656,0.055 0.598,0.055 0.355,0.051 0.301,-0.051 h 0.359 l 0.414,-0.164 0.36,-0.321 0.242,-0.269 0.117,-0.43 0.059,-0.324 -0.059,-0.695 -0.062,-0.539 -0.055,-0.375 -0.242,-0.539 -0.18,-0.266 -0.418,-0.379 -0.535,-0.266 -0.301,-0.16 -0.477,-0.164 -0.355,-0.105 h -0.957 l -0.359,0.16"
                   style="fill:none;stroke:#f9f06b;stroke-width:8.5;stroke-linecap:round;stroke-linejoin:round;stroke-miterlimit:10;stroke-dasharray:none;stroke-opacity:0.470588"
                   id="path234" /></g></g></g></g></g></g></g></svg>
