<?xml version="1.0" encoding="UTF-8" standalone="no"?>
<!-- Created with Inkscape (http://www.inkscape.org/) -->

<svg
   version="1.1"
   id="svg2"
   xml:space="preserve"
   width="704.17377"
   height="125.62247"
   viewBox="0 0 704.17377 125.62247"
   sodipodi:docname="ev-op.svg"
   inkscape:version="1.1.2 (0a00cf5339, 2022-02-04)"
   xmlns:inkscape="http://www.inkscape.org/namespaces/inkscape"
   xmlns:sodipodi="http://sodipodi.sourceforge.net/DTD/sodipodi-0.dtd"
   xmlns="http://www.w3.org/2000/svg"
   xmlns:svg="http://www.w3.org/2000/svg"><defs
     id="defs6"><clipPath
       clipPathUnits="userSpaceOnUse"
       id="clipPath202"><path
         d="M 0,0 H 529 V 95 H 0 Z"
         id="path200" /></clipPath><clipPath
       clipPathUnits="userSpaceOnUse"
       id="clipPath220"><path
         d="M 0,0 H 529 V 95 H 0 Z"
         id="path218" /></clipPath><clipPath
       clipPathUnits="userSpaceOnUse"
       id="clipPath238"><path
         d="M 0,0 H 529 V 95 H 0 Z"
         id="path236" /></clipPath><clipPath
       clipPathUnits="userSpaceOnUse"
       id="clipPath256"><path
         d="M 0,0 H 529 V 95 H 0 Z"
         id="path254" /></clipPath><clipPath
       clipPathUnits="userSpaceOnUse"
       id="clipPath274"><path
         d="M 0,0 H 529 V 95 H 0 Z"
         id="path272" /></clipPath><clipPath
       clipPathUnits="userSpaceOnUse"
       id="clipPath292"><path
         d="M 0,0 H 529 V 95 H 0 Z"
         id="path290" /></clipPath></defs><sodipodi:namedview
     id="namedview4"
     pagecolor="#ffffff"
     bordercolor="#666666"
     borderopacity="1.0"
     inkscape:pageshadow="2"
     inkscape:pageopacity="0.0"
     inkscape:pagecheckerboard="0"
     showgrid="false"
     inkscape:zoom="1.8191533"
     inkscape:cx="351.81203"
     inkscape:cy="62.941371"
     inkscape:window-width="1920"
     inkscape:window-height="1057"
     inkscape:window-x="0"
     inkscape:window-y="23"
     inkscape:window-maximized="1"
     inkscape:current-layer="g8" /><g
     id="g8"
     inkscape:groupmode="layer"
     inkscape:label="ev-op"
     transform="matrix(1.3333333,0,0,1.3333333,0,6.473895e-6)"><g
       id="g10"><g
         id="g12"><path
           d="m 9.656,9.898 v 0.375 l 0.035,0.575 0.032,0.308 0.062,0.371 0.133,0.477 0.129,0.512 0.195,0.539 0.227,0.578 0.191,0.543 0.262,0.543 0.226,0.511 0.321,0.543 0.293,0.508 0.324,0.543 0.355,0.578 0.422,0.578 0.422,0.61 0.418,0.648 0.422,0.645 0.453,0.644 0.422,0.676 0.453,0.68 0.485,0.679 0.488,0.645 0.484,0.613 0.52,0.575 0.484,0.578 0.488,0.613 0.485,0.574 0.519,0.613 0.516,0.61 0.519,0.644 0.551,0.649 0.485,0.609 0.488,0.645 0.449,0.613 0.422,0.574 0.391,0.578 0.386,0.543 0.422,0.614 0.387,0.609 0.39,0.644 0.387,0.68 0.391,0.613 0.422,0.61 0.422,0.578 0.418,0.609 0.453,0.614 0.488,0.644 0.484,0.68 0.52,0.676 0.484,0.679 0.52,0.645 0.484,0.613 0.52,0.609 0.515,0.543 0.551,0.614 0.551,0.609 0.582,0.645 0.617,0.714 0.582,0.782 0.613,0.781 0.618,0.746 0.648,0.715 0.648,0.68 0.649,0.675 0.644,0.614 0.649,0.609 0.613,0.613 0.617,0.575 0.582,0.578 0.551,0.613 0.551,0.574 0.519,0.578 0.485,0.614 0.453,0.574 0.484,0.613 0.422,0.578 0.457,0.473 0.485,0.476 0.453,0.407 0.484,0.375 0.52,0.371 0.484,0.375 0.52,0.34 0.515,0.375 0.52,0.371 0.484,0.375 0.488,0.371 0.485,0.375 0.519,0.34 0.485,0.406 0.519,0.375 0.516,0.375 0.519,0.371 0.551,0.34 0.551,0.375 0.551,0.371 1.164,0.68 0.617,0.375 0.613,0.406 0.617,0.371 0.582,0.41 0.582,0.27 0.582,0.308 0.551,0.203 0.551,0.168 0.551,0.203 0.582,0.204 0.617,0.207 0.648,0.234 0.68,0.273 0.742,0.305 0.746,0.274 0.778,0.304 0.777,0.27 0.711,0.207 0.684,0.203 0.679,0.168 0.645,0.137 0.684,0.136 0.679,0.203 0.711,0.172 0.777,0.2 0.809,0.207 0.809,0.203 0.843,0.203 0.84,0.168 0.813,0.172 0.777,0.101 0.777,0.137 0.743,0.066 0.777,0.071 0.777,0.066 0.746,0.102 0.778,0.066 0.808,0.106 0.778,0.097 0.843,0.137 0.809,0.137 0.777,0.136 0.809,0.137 1.555,0.203 0.843,0.102 0.809,0.066 0.875,0.07 0.871,0.067 0.875,0.035 0.875,0.031 0.844,0.035 0.777,0.036 0.778,0.066 0.742,0.07 0.746,0.032 0.777,0.035 0.777,0.031 h 3.012 l 0.711,0.035 0.711,0.07 0.715,0.067 0.68,0.07 0.711,0.067 0.714,0.066 0.68,0.07 0.68,0.067 0.679,0.035 0.649,0.031 0.68,0.035 0.648,0.035 0.68,0.067 0.644,0.066 0.649,0.035 0.617,0.071 0.648,0.031 0.614,0.07 1.296,0.133 0.649,0.035 0.613,0.071 0.649,0.031 0.613,0.07 0.586,0.066 0.551,0.067 0.484,0.035 0.422,0.035 0.258,0.031 h 0.257 l 0.325,0.036"
           style="fill:none;stroke:#ff00ff;stroke-width:0.754679;stroke-linecap:round;stroke-linejoin:round;stroke-miterlimit:10;stroke-dasharray:none;stroke-opacity:1"
           id="path14" /></g><g
         id="g16"><path
           d="M 5.57,73.359 5.363,73.145 5.293,72.426 5.363,72.137 5.57,71.414 5.844,70.836 6.121,70.477 6.395,70.191 6.668,69.902 6.945,69.543 7.219,69.109 7.562,68.676 7.84,68.457 8.113,68.242 8.387,67.887 8.73,67.598 l 0.208,-0.364 0.343,-0.433 0.344,-0.36 0.207,-0.359 0.41,-0.215 0.207,-0.433 0.344,-0.289 0.344,-0.215 0.273,-0.289 0.278,-0.289 0.343,-0.434 0.203,-0.285 0.278,-0.215 0.414,-0.215 0.344,-0.289 0.273,-0.289 0.41,-0.219 0.551,-0.359 0.414,-0.289 0.273,-0.215 0.411,-0.285 0.414,-0.219 0.277,-0.215 0.961,-0.289 0.41,-0.144 0.551,-0.219 0.41,-0.145 0.348,-0.215 0.48,-0.144 0.551,-0.215 0.41,-0.144 1.102,-0.43 0.546,-0.219 0.758,-0.289 0.688,-0.215 0.48,-0.215 0.617,-0.218 0.622,-0.215 0.48,-0.219 1.031,-0.43 0.41,-0.144 0.344,-0.215 0.551,-0.215 0.551,-0.144 0.551,-0.219 0.617,-0.145 0.961,-0.144 0.621,-0.071 0.547,-0.074 0.757,-0.07 0.481,-0.074 0.551,-0.071 0.48,-0.074 h 0.551 l 0.687,-0.07 h 6.801 l 0.895,0.07 0.965,0.074 1.027,0.071 1.172,0.144 1.168,0.145 1.164,0.144 1.168,0.145 1.172,0.144 1.168,0.219 1.031,0.145 1.098,0.14 3.093,0.434 1.032,0.215 0.89,0.144 0.965,0.215 0.965,0.145 0.961,0.218 0.961,0.145 0.961,0.215 0.824,0.144 0.824,0.215 0.824,0.289 0.825,0.285 0.824,0.219 0.762,0.145 0.753,0.144 0.754,0.285 0.758,0.219 0.758,0.289 0.754,0.289 0.758,0.145 0.754,0.144 0.621,0.215 0.613,0.141 0.621,0.215 0.551,0.144 0.617,0.145 0.551,0.289 0.617,0.218 0.687,0.215 0.618,0.145 0.757,0.219 0.758,0.214 0.684,0.289 0.758,0.356 0.824,0.219 0.758,0.289 0.824,0.289 0.754,0.215 0.824,0.289 0.824,0.215 0.828,0.289 0.825,0.285 0.824,0.219 0.758,0.289 0.754,0.285 0.757,0.144 0.825,0.219 0.824,0.145 0.754,0.214 0.758,0.145 0.757,0.219 0.754,0.285 0.754,0.215 0.895,0.359 0.894,0.219 0.895,0.144 0.961,0.36 0.894,0.219 0.961,0.359 0.895,0.359 0.824,0.141 0.891,0.219 0.894,0.144 0.895,0.215 0.961,0.219 0.894,0.215 0.824,0.214 0.895,0.075 1.648,0.289 0.754,0.215 0.824,0.144 0.758,0.07 0.758,0.145 0.754,0.07 0.687,0.074 0.622,0.071 0.683,0.074 0.691,0.145 0.754,0.07 0.688,0.074 0.758,0.07 0.617,0.071 h 0.687 l 0.688,0.074 h 1.992 l 0.688,0.07 0.617,0.074 0.414,0.071 h 0.687 l 0.618,0.074 0.621,0.07 0.547,0.075 h 0.55 l 0.754,0.07 0.414,0.074 h 0.414 l -0.277,0.07 -0.344,0.289 -0.617,0.43"
           style="fill:none;stroke:#3333cc;stroke-width:0.754679;stroke-linecap:round;stroke-linejoin:round;stroke-miterlimit:10;stroke-dasharray:none;stroke-opacity:1"
           id="path18" /></g><g
         id="g20"><path
           d="M 5.227,11.465 5.16,11.754 5.09,12.113 v 1.008 l 0.07,0.793 0.067,0.719 0.066,1.012 0.141,0.793 0.41,2.589 0.207,0.868 0.137,0.722 0.207,0.86 0.207,0.796 0.207,0.938 0.203,0.934 0.136,1.011 0.211,1.008 0.133,0.938 0.211,1.078 0.203,1.082 0.207,1.152 0.203,1.227 0.141,1.222 0.207,1.301 0.203,1.438 0.211,1.367 0.34,1.371 0.273,1.297 0.414,1.156 0.344,1.078 0.41,1.082 0.485,1.008 0.41,1.082 0.344,1.078 0.277,1.227 0.41,1.222 0.207,1.157 0.414,1.296 0.344,1.153 0.344,1.078 0.551,1.086 0.41,1.004 0.547,1.011 0.414,0.864 0.48,0.793 0.621,0.648 0.41,0.719 0.618,0.504 0.55,0.722 0.485,0.723 0.617,0.719 0.48,0.793 0.481,0.578 0.551,0.574 0.48,0.649 0.688,0.433 0.55,0.578 0.618,0.5 0.687,0.504 0.688,0.508 0.617,0.504 0.687,0.504 0.692,0.574 0.754,0.508 0.824,0.359 0.894,0.434 0.824,0.215 0.754,0.215 0.551,0.144 h 1.305 l 0.617,-0.074 h 1.516 l 1.507,-0.141 0.758,-0.07 0.688,-0.145 0.758,-0.218 0.687,-0.215 0.754,-0.434 1.238,-0.867 0.688,-0.426 0.617,-0.363 0.824,-0.434 1.375,-0.718 0.688,-0.508 0.621,-0.645 0.754,-0.578 0.687,-0.723 0.617,-0.644 0.688,-0.578 0.621,-0.649 0.617,-0.507 0.617,-0.571 0.618,-0.433 0.48,-0.508 0.621,-0.504 0.481,-0.434 0.617,-0.429 0.691,-0.504 0.617,-0.649 0.754,-0.793 0.621,-0.793 0.618,-0.722 0.687,-0.719 0.688,-0.648 0.617,-0.649 0.687,-0.723 1.375,-1.437 0.824,-0.723 0.688,-0.718 0.758,-0.723 0.754,-0.649 0.621,-0.718 0.754,-0.649 0.758,-0.648 0.753,-0.649 0.825,-0.648 0.894,-0.648 0.824,-0.653 0.895,-0.574 0.891,-0.504 0.757,-0.504 0.688,-0.363 0.687,-0.359 0.621,-0.286 0.684,-0.359 0.688,-0.434 0.687,-0.363 0.688,-0.43 0.687,-0.363 0.688,-0.285 0.687,-0.289 0.688,-0.359 0.753,-0.29 0.758,-0.359 0.754,-0.289 0.758,-0.289 0.754,-0.285 0.758,-0.36 0.754,-0.289 1.515,-0.578 0.684,-0.219 0.621,-0.214 0.617,-0.219 0.551,-0.215 0.48,-0.141 0.481,-0.07 0.414,-0.074 0.48,-0.145 0.551,-0.07 0.481,-0.074 1.031,-0.07 0.551,-0.075 0.48,-0.07 h 0.617 l 0.344,-0.074 h 1.719 l 0.687,0.074 0.895,0.07 0.824,0.145 0.617,0.219 0.344,0.214 1.102,0.43 0.339,0.145 0.551,0.144 0.551,0.289 0.48,0.289 0.688,0.289 0.48,0.289 0.551,0.215 0.891,0.5 0.484,0.364 0.481,0.214 0.55,0.289 0.414,0.434 0.547,0.359 0.344,0.36 0.481,0.504 0.824,0.793 0.414,0.433 0.344,0.434 0.55,0.43 0.274,0.433 0.48,0.504 0.344,0.434 0.273,0.429 0.344,0.434 0.348,0.578 0.273,0.359 0.41,0.579 0.207,0.355 0.415,0.508 0.414,0.648 0.339,0.504 0.415,0.789 0.41,0.578 0.414,0.723 0.343,0.648 0.481,0.719 0.344,0.723 0.48,0.723 0.414,0.718 0.41,0.649 0.481,0.722 0.414,0.645 0.48,0.578 0.481,0.648 0.414,0.649 0.41,0.43 0.414,0.652 0.344,0.43 0.273,0.507 0.481,0.645 0.347,0.434 0.547,0.722 0.551,0.504 0.481,0.574 0.687,0.793 0.481,0.578 0.55,0.719 0.618,0.649 0.48,0.722 0.551,0.645 0.551,0.793 0.343,0.578 0.618,0.723 0.414,0.574 0.546,0.648 0.551,0.649 0.551,0.574 0.547,0.652 0.551,0.36 0.687,0.648 0.414,0.289 0.617,0.574 0.414,0.434 0.411,0.359 0.687,0.364 0.348,0.07 0.48,0.219 0.414,0.07 0.41,0.144 -0.136,-0.289 -0.485,-0.359"
           style="fill:none;stroke:#008000;stroke-width:0.754679;stroke-linecap:round;stroke-linejoin:round;stroke-miterlimit:10;stroke-dasharray:none;stroke-opacity:1"
           id="path22" /></g><g
         id="g24"><path
           d="m 3.043,84.504 -0.051,0.308 0.297,-0.05 H 5.004 L 5.496,84.711 H 6.625 L 7.363,84.66 h 2.699 l 1.079,-0.051 h 1.132 l 1.125,-0.05 1.133,-0.055 1.176,-0.102 1.18,-0.05 1.226,-0.102 1.278,-0.051 1.324,-0.105 2.75,-0.203 1.422,-0.106 1.425,-0.156 1.469,-0.102 1.477,-0.152 1.519,-0.105 1.524,-0.102 1.519,-0.106 1.477,-0.101 1.519,-0.152 1.52,-0.157 1.473,-0.152 1.476,-0.105 1.469,-0.102 1.476,-0.102 1.571,-0.054 1.523,-0.051 3.141,-0.102 1.469,-0.05 1.425,-0.102 1.325,-0.105 1.277,-0.102 1.277,-0.105 1.324,-0.051 1.329,-0.051 1.324,-0.051 1.371,-0.051 h 3.879 l 1.23,-0.054 h 4.957 l 1.176,-0.051 h 3.535 l 1.129,-0.051 h 2.258 l 1.133,-0.051 h 22.578 l 1.031,-0.054 h 0.934 l 0.98,-0.047 0.934,-0.055 0.933,-0.051 h 14.579 l 0.589,0.051 h 0.539 l 0.493,0.055 h 1.57 l 0.395,0.047 h 0.292 l 0.293,0.054 h 0.59 l 0.539,0.153 0.442,0.054 0.344,0.102 0.492,0.051 0.293,0.051 0.394,0.05 0.391,0.055 h 0.789 l 0.293,0.051 0.394,0.051 0.735,0.05 0.492,0.055 h 0.391 l 0.492,0.047 h 0.293 l 0.394,0.055 h 0.492 l 0.293,0.05 0.297,0.051 0.539,0.102 0.391,0.054 0.344,0.102 0.246,0.051 h 0.344 l 0.343,0.051 0.293,0.05 h 0.297 l 0.246,0.106"
           style="fill:none;stroke:#808080;stroke-width:0.754679;stroke-linecap:round;stroke-linejoin:round;stroke-miterlimit:10;stroke-dasharray:6, 3;stroke-dashoffset:0;stroke-opacity:1"
           id="path26" /></g><g
         id="g28"><path
           d="m 390.891,87.27 -0.051,0.308 0.297,-0.051 h 1.715 l 0.492,-0.05 h 1.129 l 0.738,-0.051 h 2.699 l 1.078,-0.055 h 1.133 l 1.125,-0.051 1.133,-0.05 1.176,-0.102 1.179,-0.051 1.227,-0.105 1.273,-0.051 1.328,-0.102 1.376,-0.105 1.374,-0.102 1.422,-0.101 1.426,-0.156 1.469,-0.106 1.476,-0.152 1.52,-0.102 1.523,-0.105 1.52,-0.102 1.473,-0.101 1.523,-0.157 1.52,-0.152 1.472,-0.156 1.477,-0.102 1.469,-0.101 1.472,-0.106 1.574,-0.051 1.52,-0.05 1.574,-0.051 1.57,-0.055 1.469,-0.047 1.426,-0.105 1.324,-0.102 1.278,-0.105 1.277,-0.102 1.324,-0.051 1.328,-0.05 1.324,-0.055 1.372,-0.051 h 3.878 l 1.231,-0.051 h 4.957 l 1.176,-0.05 h 3.535 l 1.129,-0.055 h 2.258 l 1.132,-0.047 h 22.579 l 1.031,-0.055 h 0.933 l 0.981,-0.05 1.867,-0.102 h 14.578 l 0.59,0.051 h 0.539 l 0.492,0.051 h 1.571 l 0.394,0.05 h 0.293 l 0.293,0.055 h 0.59 l 0.539,0.152 0.441,0.051 0.344,0.106 0.492,0.05 0.293,0.051 0.395,0.051 0.39,0.051 h 0.79 l 0.293,0.051 0.39,0.054 0.738,0.051 0.493,0.051 h 0.39 l 0.492,0.051 h 0.293 l 0.395,0.054 h 0.492 l 0.293,0.047 0.293,0.055 0.543,0.101 0.391,0.051 0.343,0.106 0.246,0.046 h 0.344 l 0.344,0.055 0.293,0.051 h 0.297 l 0.246,0.101"
           style="fill:none;stroke:#808080;stroke-width:0.754679;stroke-linecap:round;stroke-linejoin:round;stroke-miterlimit:10;stroke-dasharray:6, 3;stroke-dashoffset:0;stroke-opacity:1"
           id="path30" /></g><g
         id="g32"><path
           d="m 196.938,6.652 -0.067,0.379 v 0.442 l 0.067,0.691 v 0.758 l 0.07,0.941 v 0.946 l 0.074,1.066 v 1.137 l 0.07,1.254 v 1.449 l -0.07,1.637 v 1.824 l -0.074,2.074 -0.137,2.078 -0.141,2.203 -0.21,2.262 -0.071,2.266 -0.14,2.39 -0.067,2.52 -0.07,2.828 -0.141,3.019 -0.14,3.274 -0.141,3.207 -0.207,3.273 -0.141,3.27 -0.211,3.148 -0.211,2.957 -0.136,2.77 -0.141,2.515 -0.141,2.266 -0.07,2.137 v 5.851 l 0.07,1.828 0.141,1.758 0.141,1.512 0.136,1.258 0.282,1.574 0.07,0.438 0.137,0.441 -0.207,-0.754 -0.071,-0.691"
           style="fill:none;stroke:#000000;stroke-width:0.85;stroke-linecap:round;stroke-linejoin:round;stroke-miterlimit:10;stroke-dasharray:none;stroke-opacity:1"
           id="path34" /></g><g
         id="g36"><path
           d="m 197.777,88.004 h 0.352 l 0.699,0.062 0.488,0.067 h 0.559 l 0.699,0.058 h 7.903 l 1.605,0.129 1.82,0.125 1.887,0.125 2.027,0.192 2.028,0.062 2.164,0.125 2.308,0.063 2.586,0.062 2.868,0.125 2.937,0.129 3.004,0.188 3.008,0.187 3.004,0.188 3.078,0.191 3.144,0.125 3.145,0.129 3.219,0.059 h 6.152 l 2.934,-0.059 2.867,-0.066 2.726,-0.125 h 7.621 l 2.239,0.062 2.093,0.129 1.957,0.125 1.961,0.125 1.957,0.062 1.817,0.063 h 6.711 l 0.98,0.062 0.906,0.125 0.911,0.129 0.769,0.125 0.699,0.059 0.629,0.066 0.559,0.063 0.629,0.125 0.422,0.062 0.629,0.188 0.625,0.191 0.421,0.188 0.422,0.191 -0.422,0.188 -0.277,-0.254"
           style="fill:none;stroke:#000000;stroke-width:0.85;stroke-linecap:round;stroke-linejoin:round;stroke-miterlimit:10;stroke-dasharray:none;stroke-opacity:1"
           id="path38" /></g><g
         id="g40"><path
           d="m 324.172,7.723 -0.277,-0.188 -0.211,0.438 -0.071,0.504 -0.136,0.82 v 0.879 l -0.071,1.008 -0.07,1.195 -0.07,1.383 -0.071,1.511 v 1.7 l -0.07,1.886 v 1.891 l -0.07,2.199 -0.137,2.328 -0.211,2.457 -0.141,2.641 -0.211,2.77 -0.207,2.765 -0.14,2.957 -0.07,3.02 v 12.519 l -0.071,3.461 -0.14,7.172 -0.071,3.336 -0.136,3.082 v 2.895 l -0.071,2.769 -0.07,2.578 -0.141,2.453 -0.207,2.328 -0.215,2.079 -0.277,1.761 -0.141,1.571 -0.14,1.261 -0.137,0.942 -0.07,0.816 -0.071,0.57 -0.07,0.313 -0.07,-0.313 -0.141,-0.628 -0.137,-1.008"
           style="fill:none;stroke:#000000;stroke-width:0.85;stroke-linecap:round;stroke-linejoin:round;stroke-miterlimit:10;stroke-dasharray:none;stroke-opacity:1"
           id="path42" /></g><g
         id="g44"><path
           d="m 201.902,0.426 h 0.352 l 0.348,0.062 h 0.558 l 1.399,0.125 0.91,0.125 1.051,0.125 1.117,0.067 1.187,0.062 1.399,0.063 h 3.004 l 1.679,0.062 1.61,0.125 1.679,0.125 1.813,0.192 1.82,0.125 2.094,0.187 2.242,0.129 2.445,0.188 2.586,0.124 2.657,0.063 2.726,0.063 h 2.656 l 2.657,0.066 2.726,0.058 2.867,0.192 2.934,0.187 2.937,0.254 2.868,0.25 2.867,0.125 2.867,0.188 2.793,0.316 2.797,0.188 2.797,0.254 2.797,0.25 2.726,0.062 2.727,0.192 2.863,0.125 3.008,0.125 3.008,0.128 3.078,0.125 2.793,0.125 2.656,0.063 h 2.52 l 2.445,0.062 h 6.988 l 2.098,0.063 1.82,0.191 1.68,0.188 1.465,0.125 1.187,0.187 0.91,0.125 0.629,0.067 0.422,0.125 0.348,0.062 0.277,0.125"
           style="fill:none;stroke:#000000;stroke-width:0.85;stroke-linecap:round;stroke-linejoin:round;stroke-miterlimit:10;stroke-dasharray:none;stroke-opacity:1"
           id="path46" /></g><g
         id="g48"><path
           d="m 211.875,79.582 0.063,-0.391 0.187,-0.445 0.219,-0.59 0.308,-0.695 0.309,-0.813 0.312,-0.894 0.403,-1.063 0.371,-1.171 0.437,-1.34 0.403,-1.399 0.402,-1.394 0.406,-1.313 0.309,-1.203 0.25,-1.031 0.184,-0.867 0.093,-0.672 0.094,-0.446 -0.125,0.333 -0.062,0.531 -0.09,0.644 -0.067,0.754 -0.058,0.84 -0.063,0.977 -0.031,0.976 v 2.57 l 0.062,0.532 0.09,0.363 0.313,0.25 0.527,-0.055 0.406,-0.195 0.403,-0.363 0.465,-0.586 0.464,-0.727 0.496,-0.84 0.465,-0.921 0.438,-0.95 0.371,-0.922 0.34,-0.863 0.25,-0.812 0.156,-0.727 0.094,-0.641 0.031,-0.531 0.031,-0.422 v -0.445 l -0.062,0.504 -0.031,0.473 -0.063,0.617 -0.031,0.754 -0.063,0.781 -0.062,0.836 -0.031,0.898 -0.032,0.891 v 2.039 l 0.063,0.422 0.093,0.39 0.126,-0.308"
           style="fill:none;stroke:#808080;stroke-width:0.85;stroke-linecap:round;stroke-linejoin:round;stroke-miterlimit:10;stroke-dasharray:none;stroke-opacity:1"
           id="path50" /></g><g
         id="g52"><path
           d="m 223.578,75.281 -0.031,-0.308 -0.125,-0.586 -0.063,-0.418 -0.058,-0.504 -0.067,-0.559 -0.058,-0.644 v -1.254 l 0.031,-0.59 0.027,-0.586 0.032,-0.531 0.066,-0.473 0.027,-0.418 0.032,-0.367 0.062,-0.445 0.313,0.308 0.152,0.418 0.156,0.364 0.094,0.39 v 0.617"
           style="fill:none;stroke:#808080;stroke-width:0.85;stroke-linecap:round;stroke-linejoin:round;stroke-miterlimit:10;stroke-dasharray:none;stroke-opacity:1"
           id="path54" /></g><g
         id="g56"><path
           d="m 222.988,72.375 h 0.344 l 0.402,-0.027 0.34,-0.059"
           style="fill:none;stroke:#808080;stroke-width:0.85;stroke-linecap:round;stroke-linejoin:round;stroke-miterlimit:10;stroke-dasharray:none;stroke-opacity:1"
           id="path58" /></g><g
         id="g60"><path
           d="m 226.527,74.973 -0.062,0.336 -0.188,0.531 -0.183,0.39"
           style="fill:none;stroke:#808080;stroke-width:0.85;stroke-linecap:round;stroke-linejoin:round;stroke-miterlimit:10;stroke-dasharray:none;stroke-opacity:1"
           id="path62" /></g><g
         id="g64"><path
           d="m 228.637,73.297 -0.153,0.308 -0.093,0.364 -0.032,0.418 0.125,0.418 0.278,0.308 0.371,0.141 0.406,0.027 0.465,-0.058 0.281,-0.11 0.277,-0.168 0.219,-0.222 0.246,-0.254 0.309,-0.418 0.156,-0.281 -0.031,-0.332 -0.277,-0.391 -0.403,-0.254 -0.375,-0.141 -0.371,-0.027 -0.402,0.168 -0.469,0.422 -0.152,0.277"
           style="fill:none;stroke:#808080;stroke-width:0.85;stroke-linecap:round;stroke-linejoin:round;stroke-miterlimit:10;stroke-dasharray:none;stroke-opacity:1"
           id="path66" /></g><g
         id="g68"><path
           d="m 233.48,60.168 -0.031,-0.363 0.34,-0.086 0.465,-0.055 0.312,0.082 0.219,0.254 0.031,0.586 -0.093,0.336 -0.157,0.445 -0.218,0.363 -0.246,0.364 -0.282,0.336 -0.308,0.418 -0.219,0.308 0.527,0.028 0.809,0.054 0.465,0.196 0.25,0.199"
           style="fill:none;stroke:#808080;stroke-width:0.85;stroke-linecap:round;stroke-linejoin:round;stroke-miterlimit:10;stroke-dasharray:none;stroke-opacity:1"
           id="path70" /></g><g
         id="g72"><path
           d="m 248.285,70.055 h 0.406 l 0.34,0.027 h 0.403 l 0.496,0.031 0.593,-0.031 h 0.68 l 0.777,-0.055 0.868,-0.082 0.933,-0.113 0.992,-0.109 1.024,-0.114 1.027,-0.054 1.024,-0.059 0.992,-0.055 1.023,-0.054 1.028,-0.086 1.054,-0.082 0.961,-0.086 0.93,-0.082 0.809,-0.086 0.714,-0.082 0.621,-0.055 0.497,-0.058 0.339,-0.028 0.344,-0.027 -0.437,-0.082"
           style="fill:none;stroke:#808080;stroke-width:0.85;stroke-linecap:round;stroke-linejoin:round;stroke-miterlimit:10;stroke-dasharray:none;stroke-opacity:1"
           id="path74" /></g><g
         id="g76"><path
           d="m 266.816,66.648 -0.121,0.278 -0.097,0.699 -0.028,0.391 v 0.812 l 0.028,0.336 0.066,0.445 0.152,-0.445 v -0.422 l -0.031,-0.418 -0.031,-0.363 -0.059,-0.336 -0.097,-0.445 0.375,0.25 0.496,0.25 0.343,0.168 0.372,0.14 0.464,0.196 0.465,0.226 0.5,0.164 0.496,0.223 0.465,0.168 0.434,0.14 0.402,0.114 0.375,0.109 0.309,0.113 0.402,0.223 0.219,0.391 -0.281,0.281 -0.34,0.027 -0.528,0.028 -0.589,0.027 h -0.684 l -0.777,0.031 -0.711,0.11 -0.653,0.113 -0.558,0.14 -0.434,0.137 -0.312,0.086 -0.371,0.137"
           style="fill:none;stroke:#808080;stroke-width:0.85;stroke-linecap:round;stroke-linejoin:round;stroke-miterlimit:10;stroke-dasharray:none;stroke-opacity:1"
           id="path78" /></g><g
         id="g80"><path
           d="m 276.812,83.52 0.032,-0.473 0.246,-0.559 0.344,-0.672 0.402,-0.808 0.496,-0.977 0.559,-1.176 0.593,-1.339 0.649,-1.508 0.621,-1.539 0.59,-1.508 0.496,-1.426 0.375,-1.285 0.246,-1.117 0.156,-0.863 0.063,-0.618 0.031,-0.39 v -0.364 l -0.438,0.141 -0.214,0.25 -0.125,0.336 -0.125,0.449 -0.059,0.5 -0.066,0.559 -0.032,0.699 0.032,0.754 0.125,0.812 0.156,0.782 0.187,0.754 0.215,0.64 0.219,0.531 0.25,0.395 0.246,0.223 0.313,0.109 0.589,0.086 0.309,-0.086 0.344,-0.168 0.402,-0.305 0.371,-0.421 0.375,-0.473 0.309,-0.531 0.277,-0.586 0.188,-0.614 0.125,-0.617 0.152,-0.613 0.035,-0.59 0.063,-0.527 0.027,-0.477 -0.027,-0.418 -0.032,-0.449 -0.218,0.336 v 0.449 l 0.062,0.559 0.156,0.668 0.09,0.726 0.125,0.727 0.094,0.699 0.062,0.672 0.063,0.586 0.062,0.445 0.122,0.477 0.312,-0.196"
           style="fill:none;stroke:#808080;stroke-width:0.85;stroke-linecap:round;stroke-linejoin:round;stroke-miterlimit:10;stroke-dasharray:none;stroke-opacity:1"
           id="path82" /></g><g
         id="g84"><path
           d="m 292.176,79.664 -0.153,-0.5 -0.093,-0.391 -0.157,-0.449 -0.093,-0.5 -0.125,-0.562 -0.09,-0.586 -0.031,-0.614 -0.063,-0.613 -0.062,-0.558 -0.063,-0.504 -0.031,-0.477 -0.063,-0.418 v -0.336 l 0.188,-0.472 0.281,-0.2 0.465,-0.082 0.34,0.168 0.402,0.504 0.219,0.278 0.187,0.308 0.153,0.309 0.156,0.445"
           style="fill:none;stroke:#808080;stroke-width:0.85;stroke-linecap:round;stroke-linejoin:round;stroke-miterlimit:10;stroke-dasharray:none;stroke-opacity:1"
           id="path86" /></g><g
         id="g88"><path
           d="m 291.152,76.984 0.371,0.028 0.594,-0.055 0.34,-0.027 0.496,-0.086 0.371,-0.11"
           style="fill:none;stroke:#808080;stroke-width:0.85;stroke-linecap:round;stroke-linejoin:round;stroke-miterlimit:10;stroke-dasharray:none;stroke-opacity:1"
           id="path90" /></g><g
         id="g92"><path
           d="m 294.133,62.316 -0.371,0.059 -0.063,-0.363 0.278,-0.45 0.281,-0.222 0.34,-0.195 0.375,-0.168 0.277,-0.114 0.34,0.032 0.125,0.64 -0.094,0.672 -0.183,0.781 -0.282,0.813 -0.371,0.808 -0.344,0.645 -0.277,0.555 -0.25,0.449 -0.125,0.304 -0.121,0.422 0.371,0.141 0.371,-0.113 0.406,-0.168 0.559,-0.254 0.465,-0.305 0.465,-0.25 0.312,-0.14"
           style="fill:none;stroke:#808080;stroke-width:0.85;stroke-linecap:round;stroke-linejoin:round;stroke-miterlimit:10;stroke-dasharray:none;stroke-opacity:1"
           id="path94" /></g><g
         id="g96"><path
           d="m 148.941,43.723 0.614,-0.086 2.449,-0.352 2.351,-0.246 2.165,-0.141 1.839,-0.14 1.504,-0.07 1.176,-0.071 h 2.07 l -0.707,0.211"
           style="fill:none;stroke:#808080;stroke-width:1.15258;stroke-linecap:round;stroke-linejoin:round;stroke-miterlimit:10;stroke-dasharray:none;stroke-opacity:1"
           id="path98" /></g><g
         id="g100"><path
           d="m 147.375,52.535 1.852,-0.121 2.543,-0.176 2.445,-0.07 2.258,-0.07 2.027,-0.036 h 1.691 l 1.321,-0.035 0.988,-0.039 0.562,-0.031 0.708,-0.109"
           style="fill:none;stroke:#808080;stroke-width:1.15258;stroke-linecap:round;stroke-linejoin:round;stroke-miterlimit:10;stroke-dasharray:none;stroke-opacity:1"
           id="path102" /></g><g
         id="g104"><path
           d="m 164.664,39.16 -0.047,0.496 -0.14,0.598 v 1.445 l 0.046,0.602 0.047,0.527 0.047,0.422"
           style="fill:none;stroke:#808080;stroke-width:1.15258;stroke-linecap:round;stroke-linejoin:round;stroke-miterlimit:10;stroke-dasharray:none;stroke-opacity:1"
           id="path106" /></g><g
         id="g108"><path
           d="m 165.133,38.387 0.332,0.351 0.328,0.321 0.379,0.386 0.422,0.352 0.422,0.457 0.519,0.496 0.567,0.562 0.562,0.633 0.66,0.707 0.75,0.809 0.899,0.883 0.937,0.914 0.942,0.847 0.851,0.844 0.797,0.778"
           style="fill:none;stroke:#808080;stroke-width:1.15258;stroke-linecap:round;stroke-linejoin:round;stroke-miterlimit:10;stroke-dasharray:none;stroke-opacity:1"
           id="path110" /></g><g
         id="g112"><path
           d="m 164.711,52.414 -0.047,0.387 -0.094,0.39 -0.14,0.563 -0.141,0.598 -0.098,0.531 -0.093,0.422"
           style="fill:none;stroke:#808080;stroke-width:1.15258;stroke-linecap:round;stroke-linejoin:round;stroke-miterlimit:10;stroke-dasharray:none;stroke-opacity:1"
           id="path114" /></g><g
         id="g116"><path
           d="m 164.852,55.656 0.378,-0.316 0.422,-0.352 0.567,-0.426 0.609,-0.457 0.707,-0.492 0.801,-0.566 0.894,-0.527 0.801,-0.563 0.844,-0.566 0.754,-0.493 0.707,-0.492 0.656,-0.426 0.567,-0.421 0.519,-0.352 0.375,-0.246"
           style="fill:none;stroke:#808080;stroke-width:1.15258;stroke-linecap:round;stroke-linejoin:round;stroke-miterlimit:10;stroke-dasharray:none;stroke-opacity:1"
           id="path118" /></g><g
         id="g120"><path
           d="m 342.324,43.555 0.614,-0.086 2.449,-0.356 2.351,-0.246 2.164,-0.14 1.836,-0.141 1.508,-0.07 1.176,-0.071 h 2.07 l -0.707,0.211"
           style="fill:none;stroke:#808080;stroke-width:1.15258;stroke-linecap:round;stroke-linejoin:round;stroke-miterlimit:10;stroke-dasharray:none;stroke-opacity:1"
           id="path122" /></g><g
         id="g124"><path
           d="m 340.758,52.363 1.851,-0.121 2.539,-0.176 2.45,-0.07 2.257,-0.07 2.024,-0.035 h 1.695 l 1.317,-0.036 0.992,-0.035 0.562,-0.035 0.707,-0.105"
           style="fill:none;stroke:#808080;stroke-width:1.15258;stroke-linecap:round;stroke-linejoin:round;stroke-miterlimit:10;stroke-dasharray:none;stroke-opacity:1"
           id="path126" /></g><g
         id="g128"><path
           d="m 358.047,38.992 -0.047,0.492 -0.141,0.602 v 1.445 l 0.043,0.598 0.051,0.527 0.047,0.426"
           style="fill:none;stroke:#808080;stroke-width:1.15258;stroke-linecap:round;stroke-linejoin:round;stroke-miterlimit:10;stroke-dasharray:none;stroke-opacity:1"
           id="path130" /></g><g
         id="g132"><path
           d="m 358.516,38.219 0.332,0.347 0.328,0.321 0.375,0.386 0.426,0.352 0.421,0.461 0.52,0.492 0.562,0.563 0.567,0.636 0.656,0.703 0.754,0.813 0.895,0.879 0.941,0.918 0.941,0.844 0.848,0.847 0.801,0.774"
           style="fill:none;stroke:#808080;stroke-width:1.15258;stroke-linecap:round;stroke-linejoin:round;stroke-miterlimit:10;stroke-dasharray:none;stroke-opacity:1"
           id="path134" /></g><g
         id="g136"><path
           d="m 358.094,52.242 -0.047,0.387 -0.094,0.391 -0.141,0.562 -0.14,0.598 -0.098,0.531 -0.094,0.422"
           style="fill:none;stroke:#808080;stroke-width:1.15258;stroke-linecap:round;stroke-linejoin:round;stroke-miterlimit:10;stroke-dasharray:none;stroke-opacity:1"
           id="path138" /></g><g
         id="g140"><path
           d="m 358.234,55.484 0.379,-0.316 0.422,-0.352 0.567,-0.421 0.609,-0.461 0.707,-0.493 0.801,-0.562 0.894,-0.527 0.801,-0.567 0.844,-0.562 0.754,-0.493 0.707,-0.496 0.656,-0.422 0.566,-0.425 0.52,-0.352 0.375,-0.246"
           style="fill:none;stroke:#808080;stroke-width:1.15258;stroke-linecap:round;stroke-linejoin:round;stroke-miterlimit:10;stroke-dasharray:none;stroke-opacity:1"
           id="path142" /></g><g
         id="g144"><path
           d="m 394.008,10.098 v 0.547 l 0.074,0.382 0.141,0.418 0.109,0.418 0.141,0.481 0.105,0.547 0.145,0.578 0.109,0.672 0.211,0.738 0.18,0.801 0.179,0.836 0.211,0.867 0.25,0.894 0.321,0.903 0.32,0.929 0.43,0.93 0.39,0.996 0.43,0.961 0.465,0.996 0.496,0.93 0.465,0.867 0.429,0.899 0.461,0.898 0.43,0.93 0.426,0.929 0.465,0.934 0.425,0.898 0.43,0.864 0.43,0.773 0.426,0.672 0.429,0.676 0.496,0.609 0.465,0.641 0.5,0.672 0.57,0.738 0.641,0.773 0.75,0.864 0.82,0.867 0.821,0.933 0.855,0.993 0.856,0.964 0.855,0.993 0.856,0.898 0.855,0.836 0.891,0.801 0.894,0.867 0.926,0.867 0.926,0.961 1,0.996 0.961,0.93 1,0.93 0.996,0.867 1,0.8 0.996,0.774 0.965,0.769 0.926,0.707 0.929,0.704 0.926,0.707 0.891,0.64 0.925,0.578 0.895,0.547 0.926,0.481 0.89,0.449 0.891,0.418 0.895,0.418 0.89,0.418 0.961,0.445 1.035,0.449 1.071,0.454 1.066,0.414 1.035,0.355 0.93,0.254 0.89,0.16 0.891,0.195 0.785,0.094 1.711,0.196 h 2.676 l 0.926,-0.036 0.925,-0.031 0.93,-0.031 0.926,-0.063 0.891,-0.129 0.925,-0.128 0.895,-0.161 0.961,-0.195 0.926,-0.191 0.964,-0.192 0.961,-0.195 0.965,-0.223 0.961,-0.191 0.965,-0.195 0.926,-0.125 0.926,-0.129 0.964,-0.098 1.032,-0.094 1.109,-0.066 1.102,-0.098 1.14,-0.094 1.141,-0.097 1.035,-0.063 1.035,-0.066 0.996,-0.031 1.071,-0.032 h 2.14 l 1.071,0.032 1.035,0.097 1.031,0.125 1.035,0.129 0.996,0.129 0.965,0.164 0.926,0.156 0.965,0.227 0.925,0.227 0.926,0.16 0.895,0.254 0.89,0.195 0.891,0.285 0.855,0.258 0.821,0.289 0.82,0.32 0.82,0.289 0.786,0.321 0.82,0.324 0.855,0.32 0.856,0.289 0.855,0.285 0.821,0.293 0.785,0.317 0.746,0.293 0.715,0.32 0.711,0.32 0.679,0.383 0.676,0.453 0.641,0.414 0.679,0.418 0.715,0.418 0.746,0.383 0.715,0.387 0.711,0.387 0.68,0.382 0.64,0.356 0.641,0.414 0.645,0.387 0.605,0.449 0.641,0.449 0.605,0.512 0.57,0.547 0.571,0.511 0.57,0.547 0.539,0.449 0.496,0.45 0.5,0.418 0.465,0.382 0.426,0.387 0.394,0.352 0.391,0.355 0.355,0.32 0.25,0.258 0.43,0.446 0.246,0.226 0.285,0.098 0.325,0.062"
           style="fill:none;stroke:#008000;stroke-width:0.85;stroke-linecap:round;stroke-linejoin:round;stroke-miterlimit:10;stroke-dasharray:none;stroke-opacity:1"
           id="path146" /></g><g
         id="g148"><path
           d="m 406.918,10.195 -0.285,-0.164 -0.035,0.387 0.035,0.387 0.035,0.48 0.07,0.512 0.071,0.578 0.109,0.578 0.176,0.641 0.144,0.707 0.215,0.707 0.211,0.738 0.18,0.801 0.25,0.867 0.179,0.898 0.176,0.961 0.215,0.997 0.141,1.058 0.254,1.125 0.211,1.121 0.214,1.059 0.25,0.996 0.25,0.93 0.25,0.961 0.25,0.902 0.321,0.93 0.285,0.929 0.39,0.93 0.356,0.965 0.43,1.027 0.429,1.059 0.496,1.183 0.536,1.223 0.535,1.281 0.64,1.317 0.68,1.347 0.711,1.348 1.641,2.633 0.89,1.347 0.856,1.411 0.894,1.507 0.856,1.543 0.855,1.508 0.856,1.442 0.855,1.445 0.82,1.414 0.786,1.348 0.75,1.316 0.746,1.25 0.75,1.121 0.746,1.027 0.75,0.899 0.785,0.867 0.75,0.801 0.785,0.805 0.781,0.769 0.785,0.801 0.856,0.738 0.82,0.676 0.856,0.641 0.855,0.546 0.821,0.481 0.785,0.449 0.715,0.32 0.675,0.321 0.68,0.226 0.641,0.258 0.64,0.317 0.676,0.292 0.68,0.415 0.675,0.449 0.75,0.449 0.786,0.48 0.82,0.45 0.785,0.418 0.816,0.386 0.825,0.321 0.746,0.351 0.785,0.289 0.75,0.258 0.711,0.32 0.785,0.289 0.715,0.192 0.746,0.195 0.715,0.16 0.75,0.129 0.711,0.192 0.75,0.16 0.711,0.129 0.715,0.16 0.711,0.129 0.714,0.062 0.676,0.098 h 4.317 l 0.785,0.062 0.82,0.036 0.855,0.093 0.821,0.067 0.785,0.062 0.781,0.063 0.785,0.031 0.75,0.035 0.782,0.031 0.855,0.032 0.824,0.031 0.891,0.035 0.891,0.031 0.855,0.063 0.82,0.035 0.821,0.062 0.785,0.032 0.82,0.035 h 0.746 l 0.785,0.031 0.75,0.031 0.715,0.032 0.746,0.031 h 0.715 l 0.711,0.035 0.715,0.031 h 0.676 l 0.675,0.032 h 2.426 l 0.465,0.031 h 0.461 l 0.465,0.031 h 0.465 l 0.425,0.031 0.395,0.035 0.961,0.094 0.32,0.035 0.395,0.032 h 0.32 l 0.356,0.031 h 0.324 l 0.32,0.031 h 0.32 l 0.536,0.035 0.464,0.032 0.426,0.031 h 0.321"
           style="fill:none;stroke:#ff00ff;stroke-width:0.85;stroke-linecap:round;stroke-linejoin:round;stroke-miterlimit:10;stroke-dasharray:none;stroke-opacity:1"
           id="path150" /></g><g
         id="g152"><path
           d="m 390.16,74.883 -0.035,-0.383 -0.039,-0.355 -0.07,-0.352 V 73.41 l -0.071,-0.898 v -0.805 l 0.035,-0.352 0.036,-0.386 0.07,-0.414 0.074,-0.45 0.106,-0.515 0.179,-0.578 0.211,-0.641 0.215,-0.707 0.215,-0.769 0.57,-1.54 0.285,-0.835 0.321,-0.77 0.285,-0.77 0.285,-0.738 0.32,-0.676 0.25,-0.703 0.321,-0.738 0.324,-0.707 0.355,-0.707 0.391,-0.672 0.395,-0.641 0.39,-0.644 0.395,-0.641 0.461,-0.672 0.464,-0.675 0.5,-0.61 0.532,-0.609 0.574,-0.578 1.141,-1.157 0.605,-0.546 0.605,-0.543 0.641,-0.547 0.606,-0.481 0.644,-0.449 0.641,-0.48 0.64,-0.387 0.645,-0.289 0.676,-0.289 0.675,-0.16 0.715,-0.192 0.785,-0.16 0.821,-0.191 0.89,-0.16 0.856,-0.129 0.855,-0.164 0.821,-0.125 0.785,-0.161 0.785,-0.097 0.785,-0.129 0.746,-0.129 0.785,-0.063 0.821,-0.066 0.82,-0.063 0.891,-0.031 h 2.781 l 0.89,0.031 0.86,0.063 0.816,0.066 0.856,0.129 0.785,0.129 2.461,0.574 0.82,0.258 0.82,0.227 0.856,0.254 0.82,0.289 0.785,0.289 0.786,0.226 0.746,0.289 0.785,0.254 0.785,0.196 0.82,0.289 0.891,0.191 0.891,0.254 0.929,0.227 0.891,0.195 2.566,0.574 0.821,0.227 0.82,0.222 0.82,0.227 0.785,0.223 0.782,0.191 0.82,0.258 0.82,0.226 0.785,0.289 0.75,0.258 0.746,0.254 0.715,0.258 0.711,0.258 0.68,0.289 0.676,0.289 0.679,0.285 0.676,0.324 0.641,0.321 0.679,0.32 0.676,0.32 0.645,0.321 0.676,0.32 0.675,0.324 0.715,0.316 0.715,0.325 0.676,0.289 0.715,0.32 0.711,0.32 0.679,0.321 0.676,0.351 0.75,0.356 0.715,0.32 0.746,0.352 0.82,0.32 0.785,0.324 0.821,0.352 0.781,0.32 0.785,0.32 0.715,0.356 0.676,0.351 0.715,0.321 0.675,0.351 0.641,0.356 0.68,0.351 0.676,0.356 0.714,0.383 0.715,0.355 0.676,0.383 0.715,0.351 0.64,0.325 0.606,0.351 0.605,0.32 0.61,0.29 0.57,0.32 0.57,0.289 0.532,0.289 0.57,0.289 0.57,0.223 0.571,0.293 0.57,0.254 0.574,0.289 1.141,0.64 0.57,0.324 0.535,0.321 0.531,0.32 0.54,0.258 0.496,0.289 0.535,0.254 0.57,0.258 0.535,0.257 0.535,0.254 0.536,0.293 0.535,0.254 0.535,0.321 0.57,0.289 0.57,0.32 0.571,0.258 1.14,0.578 0.641,0.223 0.645,0.289 0.605,0.195 0.606,0.223 0.57,0.226 0.535,0.192 0.57,0.222 0.535,0.196 0.571,0.253 0.57,0.161 0.535,0.226 0.571,0.16 0.57,0.129 0.57,0.192 0.571,0.129 0.605,0.195 0.57,0.156 0.61,0.16 0.57,0.196 0.57,0.128 0.571,0.192 1.14,0.32 0.571,0.098 0.535,0.129 0.5,0.093 0.461,0.098 0.464,0.129 0.461,0.129 0.395,0.094 0.355,0.066 0.36,0.031 0.531,0.129 0.324,0.094 0.285,0.098"
           style="fill:none;stroke:#3333cc;stroke-width:0.85;stroke-linecap:round;stroke-linejoin:round;stroke-miterlimit:10;stroke-dasharray:none;stroke-opacity:1"
           id="path154" /></g><g
         id="g156"><path
           d="m 221.59,25.016 -0.168,-0.301 -0.543,-0.11 -0.375,0.11 -0.543,0.226 -0.586,0.414 -0.625,0.602 -0.543,0.75 -0.543,0.902 -0.504,1.129 -0.418,1.282 -0.289,1.312 -0.211,1.316 0.043,1.204 0.25,1.128 0.457,1.09 0.711,1.016 0.879,0.902 1.043,0.789 1.172,0.563 1.211,0.34 1.293,0.187 1.297,-0.109 1.293,-0.305 1.214,-0.523 1.211,-0.754 1.043,-0.942 0.961,-1.011 0.754,-1.09 0.543,-1.242 0.293,-1.278 0.082,-1.394 -0.125,-1.352 -0.25,-1.316 -0.461,-1.278 -0.625,-1.164 -0.754,-1.132 -0.918,-1.125 -0.918,-1.016 -0.961,-0.863 -0.878,-0.641 -0.754,-0.336 -0.75,-0.152 -0.668,0.074 -0.668,0.262 -0.668,0.453 -0.629,0.789 -0.582,0.941 -0.543,1.125 -0.504,1.317 -0.375,1.394"
           style="fill:none;stroke:#000000;stroke-width:0.85;stroke-linecap:round;stroke-linejoin:round;stroke-miterlimit:10;stroke-dasharray:none;stroke-opacity:1"
           id="path158" /></g><g
         id="g160"><path
           d="m 232.453,36.746 -0.043,0.527 -0.043,0.563 -0.043,0.867 -0.082,0.977 -0.043,1.015 v 3.27 l -0.039,1.09 v 1.804 l -0.043,0.641 -0.043,0.488 -0.039,0.453 -0.379,-0.226 -0.125,-0.301 -0.082,-0.449"
           style="fill:none;stroke:#000000;stroke-width:0.85;stroke-linecap:round;stroke-linejoin:round;stroke-miterlimit:10;stroke-dasharray:none;stroke-opacity:1"
           id="path162" /></g><g
         id="g164"><path
           d="m 231.656,34.68 -0.039,-0.528 v -0.336 l 0.082,-0.378 0.125,-0.336 0.25,-0.414 0.336,-0.376 0.375,-0.3 0.418,-0.305 0.418,-0.184 0.461,-0.117 0.418,-0.109 h 0.457 l 0.504,0.148 0.5,0.227 0.543,0.375 0.543,0.453 0.375,0.41 0.375,0.379 0.293,0.375 0.168,0.375 0.168,0.453 0.043,0.449 0.039,0.454 -0.039,0.449 -0.125,0.453 -0.254,0.488 -0.332,0.563 -0.504,0.527 -0.539,0.527 -0.586,0.489 -0.629,0.375 -0.543,0.265 -0.586,0.149 -0.543,0.078 h -0.5 l -0.457,-0.039 -0.461,-0.078 -0.418,-0.11 -0.375,-0.113 -0.293,-0.152 -0.293,-0.114 -0.375,-0.148 -0.25,-0.188"
           style="fill:none;stroke:#000000;stroke-width:0.85;stroke-linecap:round;stroke-linejoin:round;stroke-miterlimit:10;stroke-dasharray:none;stroke-opacity:1"
           id="path166" /></g><g
         id="g168"><path
           d="m 241.934,36.672 0.461,0.113 h 0.332 l 0.461,-0.113 0.335,-0.113 0.582,-0.414 0.379,-0.45 0.207,-0.488 0.125,-0.527 -0.207,-0.453 -0.504,-0.262 -0.414,-0.113 -0.379,-0.036 -0.5,-0.039 h -0.46 l -0.457,0.188 -0.461,0.262 -0.375,0.378 -0.336,0.489 -0.293,0.527 -0.164,0.563 -0.168,0.562 -0.129,0.641 v 1.203 l 0.129,0.601 0.168,0.528 0.332,0.488 0.379,0.34 0.457,0.371 0.543,0.266 0.625,0.152 0.671,0.148 0.668,0.039 0.711,-0.078 0.625,-0.109 0.629,-0.191 0.539,-0.227 0.5,-0.223 0.379,-0.265 0.332,-0.223 0.254,-0.34 0.168,-0.336 0.125,-0.379 0.039,-0.449 v -0.414 l -0.039,-0.414 -0.043,-0.449 -0.082,-0.414 -0.086,-0.414 -0.082,-0.414 -0.125,-0.34 -0.086,-0.34 -0.082,-0.524 -0.086,-0.3 0.086,0.601 0.125,0.563 0.25,0.488 0.211,0.527 0.25,0.528 0.293,0.488 0.25,0.488 0.293,0.414 0.207,0.301 0.168,0.301 0.125,0.301 0.082,-0.641 0.043,-0.488 0.043,-0.449 0.168,-0.489 0.207,-0.414 0.293,-0.414 0.332,-0.375 0.293,-0.379 0.418,-0.301 0.375,-0.261 0.418,-0.188 0.422,-0.113 0.332,-0.074 0.336,-0.039 h 0.5 l 0.375,0.039 0.375,0.226 0.211,0.262"
           style="fill:none;stroke:#000000;stroke-width:0.85;stroke-linecap:round;stroke-linejoin:round;stroke-miterlimit:10;stroke-dasharray:none;stroke-opacity:1"
           id="path170" /></g><g
         id="g172"><path
           d="m 256.641,35.844 -0.336,0.039 -0.332,0.226 -0.25,0.262 -0.254,0.488 -0.168,0.375 -0.039,0.34 -0.082,0.414 -0.043,0.414 v 0.414 l 0.043,0.375 0.164,0.414 0.254,0.375 0.332,0.301 0.375,0.266 0.375,0.187 0.461,0.149 0.461,0.113 h 0.96 l 0.5,-0.078 0.376,-0.184 0.335,-0.304 0.293,-0.41 0.164,-0.528 0.211,-0.527 0.043,-0.602 0.043,-0.527 -0.043,-0.563 -0.211,-0.453 -0.457,-0.636 -0.378,-0.227 -0.376,-0.187 -0.457,-0.188 -0.421,-0.078 -0.457,-0.07 -0.625,-0.079 -0.297,0.079 -0.164,0.336 -0.043,0.3"
           style="fill:none;stroke:#000000;stroke-width:0.85;stroke-linecap:round;stroke-linejoin:round;stroke-miterlimit:10;stroke-dasharray:none;stroke-opacity:1"
           id="path174" /></g><g
         id="g176"><path
           d="m 260.273,36.898 0.379,0.262 0.375,0.266 0.5,0.375 0.504,0.336 0.457,0.34 0.5,0.3 0.461,0.262 0.332,0.191 0.379,0.11 0.461,0.152 0.289,0.113"
           style="fill:none;stroke:#000000;stroke-width:0.85;stroke-linecap:round;stroke-linejoin:round;stroke-miterlimit:10;stroke-dasharray:none;stroke-opacity:1"
           id="path178" /></g><g
         id="g180"><path
           d="m 268.043,24.188 -0.082,0.339 -0.043,0.379 -0.039,0.563 v 8.16 l 0.039,1.351 0.086,1.243 0.082,1.164 0.086,0.976 0.082,0.75 0.086,0.715"
           style="fill:none;stroke:#000000;stroke-width:0.85;stroke-linecap:round;stroke-linejoin:round;stroke-miterlimit:10;stroke-dasharray:none;stroke-opacity:1"
           id="path182" /></g><g
         id="g184"><path
           d="m 265.664,31.859 0.293,-0.074 0.332,-0.078 0.504,-0.109 0.582,-0.153 0.668,-0.113 0.84,-0.187 0.875,-0.149 0.875,-0.152 0.879,-0.149 0.793,-0.078 0.797,-0.074 0.543,-0.074 0.417,-0.039 0.29,-0.075"
           style="fill:none;stroke:#000000;stroke-width:0.85;stroke-linecap:round;stroke-linejoin:round;stroke-miterlimit:10;stroke-dasharray:none;stroke-opacity:1"
           id="path186" /></g><g
         id="g188"><path
           d="m 277.652,34.828 h -0.332 l -0.293,0.078 -0.293,0.074 -0.418,0.262 -0.375,0.528 -0.125,0.3 -0.125,0.414 v 0.489 l 0.125,0.527 0.168,0.527 0.289,0.563 0.379,0.523 0.414,0.418 0.461,0.336 0.461,0.262 0.457,0.152 0.504,0.074 0.543,0.04 0.586,-0.114 0.582,-0.261 0.543,-0.379 0.543,-0.45 0.504,-0.488 0.418,-0.488 0.332,-0.453 0.293,-0.453 0.211,-0.371 0.125,-0.301 0.125,-0.379 -0.043,-0.375 -0.125,-0.379 -0.125,-0.449 -0.25,-0.375 -0.211,-0.301 -0.25,-0.301 -0.25,-0.226 -0.293,-0.188 -0.375,-0.187 -0.672,-0.149 -0.332,-0.078 h -0.461 l -0.418,0.078 -0.539,0.149 -0.461,0.152 -0.375,0.223 -0.293,0.187 -0.25,0.301 -0.211,0.34 -0.25,0.375 -0.125,0.379 -0.125,0.336"
           style="fill:none;stroke:#000000;stroke-width:0.85;stroke-linecap:round;stroke-linejoin:round;stroke-miterlimit:10;stroke-dasharray:none;stroke-opacity:1"
           id="path190" /></g><g
         id="g192"><path
           d="m 285.172,35.016 -0.207,-0.223 0.293,0.449 0.293,0.414 0.375,0.567 0.375,0.597 0.336,0.715 0.332,0.754 0.293,0.789 0.293,0.75 0.211,0.602 0.125,0.453 0.164,0.262 0.168,0.265 -0.082,-0.414 -0.086,-0.449 -0.039,-0.567 -0.043,-0.601 0.082,-0.602 0.25,-0.601 0.379,-0.602 0.457,-0.562 0.504,-0.453 0.582,-0.375 0.585,-0.227 0.586,-0.148 1.336,-0.079 h 2.633 l 0.75,0.079 0.293,0.074 0.336,0.074 -0.336,0.039"
           style="fill:none;stroke:#000000;stroke-width:0.85;stroke-linecap:round;stroke-linejoin:round;stroke-miterlimit:10;stroke-dasharray:none;stroke-opacity:1"
           id="path194" /></g><g
         id="g196"><g
           id="g198" /><g
           id="g212"><g
             clip-path="url(#clipPath202)"
             id="g210"><g
               id="g208"><g
                 id="g206"><path
                   d="M 10.09,9.527 10.004,9.84 v 0.824 l 0.086,0.629 0.043,0.391 0.172,0.589 0.261,0.352 0.262,0.43 0.133,0.312 0.172,0.317 0.262,0.39 0.261,0.434 0.262,0.43 0.262,0.472 0.218,0.469 0.219,0.43 0.129,0.394 0.219,0.391 0.176,0.355 0.129,0.352 0.261,0.351 0.219,0.313 0.305,0.316 0.347,0.391 0.348,0.394 0.609,0.86 0.262,0.472 0.266,0.43 0.301,0.395 0.261,0.39 0.348,0.352 0.308,0.355 0.348,0.391 0.348,0.473 0.347,0.468 0.395,0.512 0.391,0.469 0.437,0.433 0.391,0.391 0.347,0.391 0.305,0.394 0.305,0.352 0.261,0.355 0.262,0.274 0.262,0.351 0.219,0.356 0.261,0.468 0.219,0.547 0.258,0.512 0.266,0.469 0.261,0.433 0.258,0.391 0.305,0.395 0.308,0.234 0.258,0.312 0.266,0.196 0.215,0.238 0.304,0.313 0.395,0.589 0.176,0.313 0.172,0.351 0.175,0.352 0.215,0.355 0.219,0.274 0.219,0.351 0.218,0.239 0.305,0.273 0.305,0.43 0.261,0.277 0.262,0.43 0.172,0.433 0.262,0.352 0.176,0.469 0.218,0.433 0.258,0.391 0.176,0.395 0.262,0.39 0.261,0.352 0.219,0.277 0.61,0.625 0.261,0.316 0.348,0.391 0.262,0.391 0.304,0.433 0.348,0.43 0.305,0.434 0.351,0.429 0.391,0.473 0.394,0.352 0.391,0.39 0.348,0.395 0.39,0.39 0.352,0.469 0.347,0.434 0.348,0.429 0.391,0.434 0.351,0.469 0.305,0.355 0.434,0.391 0.785,0.785 0.394,0.43 0.391,0.472 0.391,0.43 0.394,0.394 0.477,0.43 0.48,0.352 0.391,0.351 0.437,0.317 0.395,0.351 0.39,0.278 0.348,0.312 0.391,0.313 0.265,0.273 0.348,0.277 0.609,0.469 0.348,0.195 0.305,0.2 0.394,0.195 0.391,0.312 0.347,0.274 0.481,0.394 0.305,0.352 0.347,0.355 0.395,0.391 0.262,0.391 0.39,0.312 0.348,0.317 0.394,0.312 0.434,0.274 0.437,0.355 0.438,0.273 0.434,0.274 0.39,0.277 0.352,0.196 0.347,0.312 0.391,0.238 0.348,0.274 0.394,0.273 0.305,0.235 0.305,0.199 0.261,0.23 0.348,0.2 0.262,0.234 0.304,0.195 0.481,0.395 0.476,0.351 0.219,0.235 0.262,0.156 0.523,0.273 0.438,0.161 0.476,0.234 0.481,0.234 0.262,0.196 0.304,0.156 0.305,0.238 0.305,0.156 0.304,0.235 0.309,0.195 0.519,0.277 0.352,0.118 0.305,0.117 0.433,0.117 0.352,0.117 0.39,0.117 0.434,0.16 0.438,0.157 0.433,0.156 0.481,0.195 0.437,0.196 0.477,0.195 0.437,0.16 0.434,0.156 0.48,0.078 0.524,0.079 0.48,0.078 0.477,0.078 0.48,0.078 0.481,0.117 0.476,0.117 0.481,0.121 0.48,0.114 0.481,0.121 0.476,0.117 0.438,0.117 0.48,0.078 0.477,0.078 0.48,0.079 0.524,0.078 0.523,0.039 0.523,0.117 0.61,0.121 0.519,0.078 0.567,0.156 0.523,0.039 0.481,0.118 0.523,0.117 0.481,0.117 0.738,0.195 h 0.394 l 0.348,0.039 0.481,0.078 0.433,0.079 0.391,0.082 0.437,0.113 0.438,0.121 0.433,0.117 0.481,0.196 0.476,0.117 0.481,0.156 0.523,0.156 0.524,0.082 0.523,0.078 0.567,0.036 0.523,0.082 1.133,0.078 0.566,0.078 0.567,0.156 0.566,0.117 1.047,0.235 0.476,0.039 0.524,0.082 0.48,0.035 0.524,0.078 0.523,0.043 0.477,0.039 1.047,0.078 0.437,0.039 0.524,0.039 0.476,0.078 0.438,0.118 0.476,0.078 0.481,0.117 0.437,0.078 0.434,0.078 0.437,0.082 0.391,0.035 0.391,0.043 0.437,0.078 0.305,0.04 0.695,0.078 0.656,0.078 0.391,0.039 h 0.348 l 0.437,0.039 0.395,0.078 0.566,0.156 0.305,0.117 0.609,0.157 h 0.305 l 0.304,0.043 0.348,0.078 0.438,0.078 0.347,0.117 0.348,0.039 0.351,0.078 0.391,0.078 0.434,0.118 0.871,0.156 0.304,0.039 0.309,0.039 0.348,0.078 0.48,0.039 h 1 l 0.348,0.043 0.613,0.035 h 0.391 l 0.347,-0.035 0.438,-0.043 0.391,-0.078 0.304,-0.039 0.348,-0.039 0.437,-0.117 0.391,-0.039 h 1.047 l 0.566,-0.039 h 0.957 l 0.309,-0.039"
                   style="fill:none;stroke:#dc8add;stroke-width:8.5;stroke-linecap:round;stroke-linejoin:round;stroke-miterlimit:10;stroke-dasharray:none;stroke-opacity:0.470588"
                   id="path204" /></g></g></g></g></g><g
         id="g214"><g
           id="g216" /><g
           id="g230"><g
             clip-path="url(#clipPath220)"
             id="g228"><g
               id="g226"><g
                 id="g224"><path
                   d="m 406.734,11.684 -0.086,0.507 -0.043,0.356 v 1.488 l 0.043,0.395 0.086,0.351 0.133,0.274 0.176,0.312 0.305,0.473 0.172,0.312 0.089,0.317 0.176,0.429 0.172,0.352 0.176,0.473 0.172,0.507 0.175,0.551 0.176,0.586 0.129,0.551 0.262,0.508 0.133,0.394 0.172,0.391 0.261,0.434 0.219,0.39 0.305,0.512 0.261,0.508 0.129,0.507 0.219,0.551 0.176,0.59 0.258,0.625 0.308,0.629 0.258,0.625 0.266,0.629 0.215,0.707 0.218,0.668 0.172,0.664 0.266,0.668 0.129,0.586 0.176,0.551 0.261,0.55 0.129,0.547 0.262,0.551 0.219,0.586 0.214,0.551 0.266,0.586 0.258,0.59 0.262,0.629 0.304,0.625 0.262,0.628 0.176,0.629 0.261,0.586 0.172,0.551 0.262,0.547 0.262,0.512 0.133,0.507 0.171,0.59 0.176,0.547 0.219,0.668 0.172,0.625 0.176,0.59 0.129,0.59 0.089,0.469 0.129,0.39 0.219,0.356 0.129,0.316 0.266,0.309 0.172,0.316 0.132,0.313 0.129,0.351 0.172,0.707 0.133,0.356 0.086,0.351 0.133,0.512 0.132,0.391 0.086,0.39 0.086,0.434 0.043,0.429 0.086,0.352 0.09,0.356 0.086,0.351 0.176,0.316 0.172,0.391 0.218,0.434 0.262,0.429 0.219,0.43 0.258,0.473 0.265,0.429 0.215,0.473 0.438,0.859 0.304,0.395 0.219,0.352 0.215,0.355 0.266,0.313 0.257,0.351 0.305,0.352 0.352,0.355 0.215,0.313 0.261,0.312 0.219,0.277 0.262,0.235 0.304,0.234 0.305,0.156 0.305,0.2 0.304,0.117 0.262,0.156 0.219,0.234 0.391,0.274 0.437,0.277 0.262,0.157 0.304,0.234 0.348,0.195 0.305,0.238 0.265,0.231 0.391,0.316 0.262,0.196 0.39,0.273 0.219,0.277 0.262,0.196 0.347,0.312 0.262,0.313 0.348,0.238 0.219,0.313 0.523,0.351 0.262,0.238 0.304,0.157 0.305,0.195 0.262,0.234 0.348,0.157 0.261,0.238 0.391,0.195 0.262,0.195 0.304,0.274 0.481,0.394 0.261,0.235 0.262,0.156 0.262,0.234 0.476,0.434 0.219,0.234 0.524,0.313 0.261,0.238 0.481,0.274 0.476,0.351 0.266,0.156 0.258,0.239 0.48,0.351 0.352,0.196 0.258,0.156 0.394,0.238 0.348,0.195 0.348,0.235 0.394,0.234 0.391,0.117 0.39,0.2 0.395,0.152 0.433,0.16 0.438,0.234 0.434,0.196 0.48,0.238 0.437,0.195 0.434,0.235 0.481,0.117 0.48,0.234 0.434,0.196 0.48,0.234 0.434,0.199 0.48,0.196 0.481,0.234 0.433,0.195 0.481,0.199 0.523,0.235 0.481,0.117 0.476,0.117 0.481,0.156 0.39,0.118 0.438,0.117 0.39,0.199 0.395,0.156 0.348,0.196 0.39,0.195 0.348,0.199 0.437,0.195 0.348,0.235 0.352,0.195 0.433,0.117 0.352,0.117 0.433,0.079 0.305,0.043 0.391,0.113 0.394,0.082 0.391,0.117 0.48,0.156 0.348,0.118 0.437,0.117 0.391,0.117 0.348,0.078 0.351,0.082 0.391,0.113 0.695,0.2 0.395,0.039 0.347,0.039 0.524,0.039 0.48,0.039 0.434,0.039 0.523,0.078 0.477,0.039 0.527,0.078 0.477,0.039 0.566,0.078 0.524,0.078 0.523,0.083 1.133,0.156 0.609,0.117 0.653,0.039 0.699,0.078 0.695,0.078 0.742,0.078 0.696,0.079 0.699,0.156 0.695,0.156 0.656,0.121 0.653,0.117 0.613,0.078 0.605,0.036 0.614,0.082 0.609,0.039 0.567,0.039 0.566,0.078 0.523,0.078 0.477,0.078 0.48,0.078 0.438,0.078 0.476,0.078 0.309,0.043 0.391,0.079 0.304,0.078 0.348,0.074 0.348,0.078 h 0.304 l 0.614,0.043 0.433,0.039 0.61,0.078 0.351,0.039 0.477,0.039 0.437,0.039 0.305,0.039 0.348,0.04 h 1.351 l 0.61,-0.079 0.566,-0.156 0.394,-0.121 0.391,-0.113 0.742,-0.117 0.391,-0.079 0.305,-0.043 0.437,-0.078 0.567,-0.039 h 0.304"
                   style="fill:none;stroke:#dc8add;stroke-width:8.5;stroke-linecap:round;stroke-linejoin:round;stroke-miterlimit:10;stroke-dasharray:none;stroke-opacity:0.470588"
                   id="path222" /></g></g></g></g></g><g
         id="g232"><g
           id="g234" /><g
           id="g248"><g
             clip-path="url(#clipPath238)"
             id="g246"><g
               id="g244"><g
                 id="g242"><path
                   d="m 393.535,9.957 -0.262,0.469 -0.043,0.355 v 1.688 l 0.043,0.429 0.043,0.434 0.09,0.352 0.129,0.351 0.172,0.356 0.352,0.703 0.086,0.394 0.132,0.391 0.086,0.351 0.129,0.356 0.09,0.312 0.129,0.551 0.129,0.508 0.09,0.391 0.043,0.316 0.086,0.469 0.043,0.472 0.086,0.469 0.089,0.473 0.09,0.43 0.129,0.429 0.219,0.395 0.215,0.39 0.261,0.434 0.305,0.469 0.262,0.511 0.262,0.547 0.304,0.551 0.262,0.508 0.305,0.551 0.261,0.468 0.352,0.512 0.348,0.469 0.304,0.473 0.348,0.468 0.391,0.473 0.351,0.469 0.434,0.472 0.304,0.508 0.395,0.473 0.391,0.547 0.39,0.511 0.352,0.586 0.39,0.59 0.305,0.586 0.348,0.59 0.394,0.508 0.305,0.512 0.391,0.429 0.347,0.356 0.309,0.39 0.347,0.395 0.61,0.781 0.347,0.434 0.305,0.351 0.309,0.395 0.258,0.351 0.261,0.274 0.262,0.355 0.262,0.235 0.261,0.273 0.262,0.352 0.262,0.277 0.305,0.352 0.261,0.273 0.262,0.355 0.219,0.274 0.261,0.234 0.215,0.235 0.219,0.238 0.219,0.234 0.262,0.274 0.128,0.316 0.176,0.274 0.172,0.312 0.481,0.395 0.261,0.308 0.567,0.434 0.523,0.39 0.262,0.278 0.305,0.312 0.261,0.274 0.262,0.316 0.348,0.313 0.566,0.511 0.262,0.196 0.261,0.234 0.305,0.195 0.262,0.235 0.348,0.277 0.609,0.508 0.219,0.234 0.261,0.317 0.305,0.312 0.262,0.274 0.304,0.394 0.262,0.195 0.305,0.313 0.262,0.195 0.304,0.239 0.262,0.234 0.305,0.195 0.261,0.235 0.305,0.234 0.305,0.277 0.394,0.274 0.305,0.234 0.438,0.277 0.605,0.508 0.352,0.274 0.347,0.277 0.481,0.274 0.39,0.195 0.348,0.234 0.437,0.235 0.434,0.199 0.438,0.195 0.39,0.195 0.395,0.196 0.652,0.351 0.434,0.239 0.351,0.156 0.481,0.234 0.39,0.156 0.348,0.196 0.351,0.238 0.391,0.156 0.652,0.352 0.305,0.121 0.348,0.113 0.437,0.199 0.305,0.157 0.48,0.195 0.391,0.156 0.395,0.16 0.433,0.157 0.438,0.156 0.433,0.156 0.438,0.117 0.476,0.157 0.438,0.117 0.48,0.156 0.434,0.121 0.391,0.078 0.394,0.117 0.391,0.079 0.394,0.078 0.391,0.078 0.351,0.078 0.391,0.039 0.652,0.117 0.395,0.078 0.305,0.117 0.39,0.122 0.567,0.152 0.304,0.043 0.305,0.039 0.523,0.078 h 0.524 l 0.348,0.039 0.566,0.117 0.348,0.039 0.656,0.039 0.348,0.04 0.609,0.039 0.609,-0.039 h 0.657 l 0.609,-0.04 h 1.828 l 0.742,-0.039 h 6.535 l 0.395,-0.039 h 0.824 l 0.57,-0.039 0.52,-0.039 h 1.656 l 0.481,-0.039 h 0.566 l 0.481,-0.039 0.519,-0.039 0.961,-0.078 0.434,-0.043 0.48,-0.074 0.438,-0.039 0.476,-0.082 0.438,-0.036 0.437,-0.043 0.434,-0.035 h 0.437 l 0.477,-0.043 0.48,-0.039 h 0.567 l 1.047,-0.078 h 0.523 l 0.477,-0.039 0.961,-0.078 0.433,-0.039 h 1.395 l 0.437,-0.039 h 0.434 l 0.437,-0.039 0.391,-0.039 h 4.488 l 0.352,0.039 0.39,0.078 0.61,0.117 0.304,0.039 0.61,0.117 0.613,0.121 0.305,0.079 0.301,0.078 0.613,0.117 0.347,0.078 0.305,0.078 0.348,0.117 0.652,0.196 0.613,0.16 0.305,0.156 0.305,0.152 0.347,0.122 0.61,0.273 0.523,0.234 0.348,0.121 0.266,0.153 0.39,0.16 0.305,0.156 0.347,0.195 0.305,0.118 0.348,0.156 0.394,0.238 0.61,0.313 0.347,0.117 0.7,0.195 0.695,0.313 0.394,0.238 0.348,0.156 0.305,0.196 0.347,0.234 0.348,0.199 0.352,0.235 0.39,0.234 0.61,0.39 0.347,0.239 0.743,0.351 0.437,0.235 0.305,0.234 0.433,0.317 0.391,0.234 0.351,0.312 0.391,0.317 0.395,0.273 0.304,0.274 0.348,0.277 0.523,0.391 0.61,0.468 0.262,0.239 0.261,0.234 0.305,0.313 0.262,0.273 0.39,0.352 0.262,0.277 0.348,0.312 0.351,0.278 0.215,0.234 0.352,0.313 0.257,0.238 0.266,0.23 0.262,0.2 0.258,0.156 0.437,0.39 0.219,0.235 0.433,0.355 0.305,0.274 0.524,0.429 0.347,0.317 0.262,0.234 0.219,0.235 0.261,0.277 0.305,0.156 0.305,0.195 0.261,0.157"
                   style="fill:none;stroke:#008000;stroke-width:8.5;stroke-linecap:round;stroke-linejoin:round;stroke-miterlimit:10;stroke-dasharray:none;stroke-opacity:0.470588"
                   id="path240" /></g></g></g></g></g><g
         id="g250"><g
           id="g252" /><g
           id="g266"><g
             clip-path="url(#clipPath256)"
             id="g264"><g
               id="g262"><g
                 id="g260"><path
                   d="m 5.34,11.016 -0.043,0.39 v 0.867 l 0.086,0.938 v 0.473 l 0.043,0.468 0.043,0.473 0.133,0.469 0.175,0.429 0.129,0.473 0.176,0.508 0.086,0.473 0.129,0.507 0.176,0.473 0.175,0.551 0.129,0.547 0.129,0.55 0.176,0.547 0.129,0.551 0.219,0.586 0.218,0.59 0.129,0.586 0.133,0.629 0.086,0.59 0.047,0.546 0.086,0.512 0.086,0.508 0.129,0.434 0.09,0.429 0.175,0.469 0.172,0.512 0.133,0.551 0.172,0.585 0.086,0.551 0.09,0.629 0.172,0.664 0.046,0.668 0.129,0.664 0.086,0.629 0.09,0.625 0.043,0.512 0.086,0.469 0.043,0.394 0.047,0.43 0.039,0.433 0.09,0.391 0.043,0.434 0.086,0.429 0.09,0.395 0.128,0.43 0.086,0.351 0.043,0.356 0.047,0.507 0.129,0.512 0.09,0.391 0.129,0.312 0.129,0.434 0.09,0.43 0.129,0.472 0.089,0.43 0.086,0.355 0.086,0.352 0.133,0.586 0.086,0.355 0.172,0.352 0.176,0.433 0.261,0.508 0.305,0.551 0.305,0.625 0.304,0.629 0.219,0.664 0.305,0.668 0.176,0.629 0.172,0.469 0.175,0.433 0.129,0.391 0.176,0.316 0.219,0.43 0.176,0.352 0.171,0.355 0.219,0.43 0.262,0.472 0.305,0.586 0.347,0.59 0.305,0.586 0.305,0.512 0.261,0.508 0.305,0.433 0.262,0.43 0.261,0.473 0.262,0.429 0.219,0.43 0.219,0.473 0.215,0.468 0.261,0.434 0.309,0.508 0.305,0.472 0.3,0.508 0.352,0.512 0.305,0.508 0.304,0.472 0.305,0.43 0.523,0.629 0.262,0.234 0.262,0.313 0.39,0.394 0.219,0.235 0.348,0.394 0.219,0.309 0.261,0.277 0.348,0.352 0.219,0.238 0.347,0.274 0.219,0.234 0.262,0.156 0.305,0.274 0.261,0.156 0.348,0.238 0.305,0.234 0.394,0.196 0.348,0.199 0.39,0.156 0.348,0.196 0.395,0.117 0.652,0.273 0.348,0.039 0.394,0.039 0.438,0.078 0.304,0.039 0.348,0.079 0.391,0.078 0.652,0.121 0.523,0.039 h 0.524 l 0.48,-0.039 0.305,-0.039 0.348,-0.082 h 0.437 l 0.434,-0.078 0.304,-0.118 0.395,-0.078 0.305,-0.078 0.347,-0.117 0.305,-0.117 0.48,-0.156 0.481,-0.118 0.433,-0.156 0.438,-0.121 0.434,-0.156 0.437,-0.156 0.434,-0.196 0.523,-0.156 0.395,-0.238 0.39,-0.157 0.434,-0.195 0.437,-0.195 0.524,-0.195 0.566,-0.239 0.524,-0.23 0.519,-0.239 0.481,-0.195 0.437,-0.238 0.434,-0.274 0.394,-0.273 0.434,-0.273 0.305,-0.239 0.394,-0.23 0.262,-0.199 0.304,-0.196 0.567,-0.234 0.476,-0.238 0.481,-0.313 0.262,-0.156 0.304,-0.234 0.395,-0.235 0.348,-0.238 0.652,-0.391 0.348,-0.234 0.613,-0.434 0.262,-0.234 0.304,-0.234 0.434,-0.317 0.262,-0.312 0.433,-0.352 0.352,-0.316 0.39,-0.313 0.438,-0.312 0.433,-0.313 0.395,-0.316 0.434,-0.313 0.437,-0.316 0.391,-0.352 0.437,-0.39 0.434,-0.395 0.437,-0.43 0.481,-0.39 0.433,-0.356 0.438,-0.351 0.433,-0.356 0.391,-0.351 0.438,-0.352 0.48,-0.351 0.391,-0.317 0.437,-0.351 0.434,-0.274 0.351,-0.316 0.434,-0.274 0.305,-0.273 0.394,-0.234 0.305,-0.2 0.304,-0.195 0.348,-0.117 0.262,-0.156 0.348,-0.196 0.613,-0.355 0.476,-0.274 0.262,-0.156 0.914,-0.469 0.348,-0.121 0.304,-0.156 0.481,-0.352 0.352,-0.238 0.304,-0.273 0.348,-0.274 0.348,-0.195 0.261,-0.195 0.391,-0.157 0.308,-0.195 0.391,-0.199 0.434,-0.117 0.351,-0.235 0.434,-0.156 0.437,-0.238 0.391,-0.313 0.523,-0.234 0.481,-0.313 0.566,-0.316 0.52,-0.234 0.57,-0.313 0.52,-0.316 0.523,-0.235 0.961,-0.547 0.391,-0.238 0.48,-0.234 0.391,-0.195 0.39,-0.235 0.438,-0.156 0.437,-0.16 0.391,-0.157 0.348,-0.117 0.394,-0.117 0.348,-0.078 0.656,-0.156 0.391,-0.117 0.652,-0.239 0.348,-0.117 0.609,-0.156 0.613,-0.156 0.348,-0.118 0.305,-0.039 0.304,-0.078 0.653,-0.121 0.351,-0.078 0.391,-0.078 0.652,-0.117 0.352,-0.039 0.695,-0.079 0.961,-0.078 h 0.738 l 0.305,-0.039 0.48,-0.039 0.434,-0.039 0.395,-0.039 0.738,-0.039 h 1.09 l 0.48,-0.039 h 3.528 l 0.347,0.039 0.524,0.078 0.351,0.117 0.391,0.157 0.394,0.117 0.61,0.472 0.261,0.235 0.477,0.355 0.395,0.352 0.304,0.195 0.481,0.352 0.258,0.195 0.218,0.238 0.219,0.235 0.262,0.273 0.523,0.512 0.524,0.469 0.566,0.472 0.566,0.43 0.52,0.43 0.352,0.238 0.218,0.234 0.301,0.235 0.309,0.195 0.214,0.238 0.309,0.196 0.258,0.273 0.266,0.273 0.304,0.239 0.262,0.195 0.348,0.195 0.347,0.313 0.262,0.195 0.305,0.278 0.347,0.195 0.438,0.234 0.262,0.16 0.39,0.274 0.262,0.195 0.262,0.156 0.523,0.469 0.481,0.317 0.433,0.273 0.262,0.156 0.433,0.434 0.266,0.195 0.434,0.43 0.304,0.355 0.219,0.235 0.262,0.273 0.258,0.273 0.527,0.473 0.129,0.274 0.433,0.668 0.219,0.312 0.133,0.277 0.348,0.43 0.172,0.274 0.265,0.312 0.434,0.59 0.261,0.351 0.262,0.235 0.262,0.355 0.305,0.313 0.261,0.312 0.305,0.395 0.348,0.351 0.308,0.317 0.391,0.351 0.262,0.235 0.347,0.312 0.348,0.278 0.348,0.312 0.394,0.391 0.391,0.355 0.566,0.59 0.61,0.625 0.351,0.391 0.305,0.355 0.304,0.352 0.262,0.355 0.305,0.391 0.262,0.351 0.304,0.317 0.219,0.351 0.258,0.356 0.262,0.351 0.218,0.313 0.262,0.312 0.348,0.551 0.261,0.352 0.176,0.312 0.262,0.317 0.219,0.312 0.214,0.273 0.219,0.278 0.176,0.351 0.262,0.313 0.215,0.355 0.218,0.313 0.262,0.312 0.305,0.473 0.218,0.273 0.219,0.235 0.262,0.316 0.305,0.313 0.476,0.511 0.219,0.313 0.262,0.195 0.218,0.235 0.305,0.273 0.219,0.274 0.262,0.199 h 0.433"
                   style="fill:none;stroke:#008000;stroke-width:8.5;stroke-linecap:round;stroke-linejoin:round;stroke-miterlimit:10;stroke-dasharray:none;stroke-opacity:0.470588"
                   id="path258" /></g></g></g></g></g><g
         id="g268"><g
           id="g270" /><g
           id="g284"><g
             clip-path="url(#clipPath274)"
             id="g282"><g
               id="g280"><g
                 id="g278"><path
                   d="M 4.688,74.348 4.426,74.035 4.336,73.719 4.293,73.406 4.25,72.859 4.336,72.27 4.469,71.957 4.641,71.605 4.945,71.211 5.164,70.82 5.512,70.348 5.863,69.918 6.211,69.445 6.602,68.977 6.82,68.543 7.172,68.113 7.43,67.762 7.734,67.445 7.996,67.211 8.301,67.055 8.695,66.898 9.219,66.66 9.48,66.465 9.738,66.27 l 0.395,-0.274 0.347,-0.316 0.481,-0.352 0.434,-0.39 0.523,-0.395 0.566,-0.391 0.524,-0.39 0.609,-0.317 0.61,-0.312 0.699,-0.352 0.695,-0.355 0.785,-0.469 0.828,-0.473 0.871,-0.507 0.872,-0.551 0.918,-0.508 0.871,-0.512 0.871,-0.468 0.871,-0.434 0.785,-0.43 0.738,-0.312 0.742,-0.278 0.7,-0.234 0.695,-0.195 0.695,-0.235 0.699,-0.16 0.696,-0.195 0.699,-0.195 0.652,-0.157 0.61,-0.156 0.609,-0.199 0.656,-0.156 0.653,-0.157 0.652,-0.195 0.613,-0.156 1.305,-0.235 0.656,-0.082 0.653,-0.078 0.609,-0.035 0.699,-0.082 0.696,-0.039 0.742,-0.074 0.738,-0.043 h 0.785 l 0.742,-0.039 h 0.696 l 0.742,-0.039 0.652,-0.039 0.695,-0.039 0.657,-0.04 h 5.273 l 0.567,-0.039 h 6.14 l 0.438,0.039 0.433,0.04 0.481,0.039 0.48,0.078 0.524,0.117 0.433,0.117 0.438,0.078 0.39,0.078 0.391,0.121 0.352,0.079 0.39,0.039 0.395,0.078 0.39,0.078 0.481,0.078 0.433,0.078 0.481,0.117 0.433,0.117 0.395,0.083 0.391,0.078 0.394,0.035 0.391,0.043 0.305,0.039 0.347,0.078 0.352,0.078 0.304,0.078 0.434,0.078 0.656,0.157 0.434,0.117 0.39,0.117 0.481,0.117 0.305,0.121 0.394,0.078 0.348,0.118 0.347,0.078 0.481,0.078 0.348,0.117 0.394,0.117 0.434,0.156 0.39,0.161 0.481,0.156 0.437,0.156 0.434,0.195 0.48,0.157 0.438,0.195 0.476,0.156 0.481,0.16 0.48,0.196 0.477,0.156 0.48,0.234 0.481,0.121 0.433,0.157 0.438,0.156 0.391,0.156 0.437,0.156 0.348,0.157 0.394,0.156 0.305,0.156 0.391,0.16 0.347,0.196 0.395,0.195 0.433,0.156 0.438,0.238 0.476,0.157 0.438,0.195 0.48,0.156 0.434,0.117 0.391,0.157 0.437,0.121 0.481,0.195 0.437,0.156 0.52,0.118 0.48,0.234 0.477,0.156 0.48,0.156 0.481,0.161 0.523,0.113 0.523,0.082 0.477,0.156 0.523,0.156 0.481,0.157 0.523,0.156 0.481,0.16 0.476,0.156 0.524,0.157 0.48,0.156 0.481,0.195 0.519,0.156 0.438,0.161 0.48,0.156 0.477,0.117 0.48,0.117 0.438,0.117 0.476,0.196 0.481,0.117 0.48,0.16 0.477,0.156 0.48,0.078 0.481,0.118 0.476,0.117 0.481,0.195 0.48,0.117 0.481,0.156 0.476,0.2 0.481,0.117 0.48,0.156 0.434,0.195 0.523,0.118 0.438,0.117 0.433,0.199 0.481,0.117 0.433,0.117 0.438,0.157 0.48,0.156 0.434,0.156 0.48,0.156 0.524,0.2 0.476,0.117 0.524,0.195 0.566,0.156 0.524,0.118 0.566,0.238 0.567,0.113 0.566,0.199 0.609,0.157 0.614,0.195 0.609,0.156 0.566,0.156 0.61,0.161 0.566,0.078 0.524,0.195 0.523,0.156 0.477,0.157 0.48,0.117 0.524,0.156 0.48,0.121 0.523,0.117 0.477,0.114 0.481,0.043 0.523,0.078 0.48,0.117 0.563,0.078 0.527,0.117 0.52,0.078 0.566,0.16 0.524,0.153 0.523,0.078 0.481,0.121 0.433,0.117 0.438,0.117 0.652,0.196 h 0.523 l 0.481,0.078 0.652,0.234 0.305,0.117 0.305,0.078 0.304,0.043 h 0.481 l 0.347,-0.043 h 0.7 l 0.347,-0.035 0.305,-0.043 0.523,-0.078"
                   style="fill:none;stroke:#3333cc;stroke-width:8.5;stroke-linecap:round;stroke-linejoin:round;stroke-miterlimit:10;stroke-dasharray:none;stroke-opacity:0.470588"
                   id="path276" /></g></g></g></g></g><g
         id="g286"><g
           id="g288" /><g
           id="g302"><g
             clip-path="url(#clipPath292)"
             id="g300"><g
               id="g298"><g
                 id="g296"><path
                   d="m 389.176,79.172 -0.172,-0.274 -0.09,-0.433 V 76.66 l 0.047,-0.39 0.043,-0.391 0.043,-0.356 0.043,-0.429 0.043,-0.434 0.043,-0.43 0.043,-0.468 0.047,-0.512 v -0.512 l 0.043,-0.468 0.086,-0.469 0.089,-0.395 0.129,-0.39 0.129,-0.313 0.176,-0.355 0.129,-0.352 0.133,-0.316 0.129,-0.391 0.175,-0.351 0.129,-0.352 0.262,-0.395 0.176,-0.273 0.129,-0.313 0.132,-0.316 0.172,-0.629 0.219,-0.351 0.438,-0.629 0.261,-0.274 0.305,-0.547 0.129,-0.277 0.176,-0.273 0.176,-0.313 0.218,-0.277 0.258,-0.313 0.219,-0.39 0.305,-0.395 0.394,-0.586 0.477,-0.629 0.523,-0.746 0.523,-0.781 0.567,-0.824 0.566,-0.864 0.567,-0.824 0.609,-0.824 0.609,-0.785 0.567,-0.742 0.609,-0.707 0.567,-0.625 0.613,-0.59 0.523,-0.551 0.563,-0.508 0.527,-0.508 0.477,-0.433 0.48,-0.43 0.524,-0.355 0.48,-0.352 0.477,-0.355 0.523,-0.313 0.524,-0.273 0.476,-0.313 0.481,-0.238 0.39,-0.274 0.438,-0.234 0.433,-0.156 0.395,-0.196 0.437,-0.16 0.391,-0.156 0.437,-0.117 0.391,-0.117 0.434,-0.039 0.394,-0.039 0.438,-0.039 0.39,-0.04 0.434,-0.078 0.437,-0.039 0.481,-0.078 0.476,-0.121 0.481,-0.117 0.523,-0.078 0.524,-0.117 0.566,-0.079 0.61,-0.039 1.132,-0.078 h 1.133 l 2.266,0.156 h 2.875 l 0.566,0.04 0.567,0.078 0.48,0.117 0.477,0.082 0.437,0.195 0.395,0.117 0.433,0.118 0.348,0.117 0.395,0.078 0.609,0.117 0.394,0.039 0.305,0.117 0.348,0.117 0.304,0.122 0.567,0.234 0.305,0.195 0.347,0.117 0.348,0.196 0.262,0.195 0.394,0.082 0.258,0.156 0.305,0.079 0.394,0.195 0.391,0.117 0.437,0.156 0.391,0.16 0.48,0.079 0.438,0.117 0.519,0.156 0.524,0.195 0.48,0.157 0.567,0.234 0.523,0.16 0.524,0.195 0.609,0.235 0.566,0.156 0.61,0.199 0.566,0.156 0.567,0.235 0.566,0.156 0.566,0.195 0.61,0.157 0.566,0.16 0.567,0.195 0.609,0.195 0.613,0.274 0.61,0.234 0.566,0.278 0.566,0.273 0.61,0.234 0.566,0.235 0.61,0.195 0.613,0.238 0.605,0.235 0.614,0.234 0.609,0.317 0.609,0.312 0.653,0.313 0.656,0.273 0.609,0.238 0.61,0.274 0.566,0.273 0.566,0.234 0.567,0.278 0.652,0.195 0.699,0.235 0.739,0.273 0.742,0.277 0.742,0.313 0.828,0.312 0.828,0.356 1.743,0.625 0.828,0.277 0.785,0.313 0.781,0.312 0.742,0.356 0.742,0.273 0.696,0.352 0.652,0.312 0.656,0.238 0.696,0.313 0.699,0.273 0.738,0.274 0.699,0.355 0.653,0.235 0.652,0.273 0.566,0.238 0.614,0.196 0.566,0.234 0.524,0.234 0.523,0.274 0.477,0.238 0.961,0.547 0.433,0.238 0.481,0.235 0.48,0.273 0.434,0.234 0.437,0.356 0.434,0.312 0.437,0.313 0.434,0.316 0.437,0.352 0.391,0.273 0.434,0.278 0.394,0.312 0.438,0.274 0.433,0.316 0.481,0.313 0.433,0.39 0.481,0.395 0.437,0.351 0.477,0.352 0.48,0.273 0.481,0.317 0.476,0.312 0.571,0.238 0.519,0.309 0.524,0.199 0.566,0.235 0.523,0.273 0.524,0.238 0.523,0.313 0.567,0.234 0.609,0.313 0.609,0.316 0.61,0.313 0.656,0.273 0.695,0.316 0.743,0.235 0.781,0.273 0.785,0.278 0.828,0.273 1.57,0.469 0.739,0.238 0.699,0.234 0.785,0.274 0.695,0.234 0.743,0.239 0.742,0.234 0.695,0.234 0.738,0.196 0.743,0.234 0.785,0.195 0.742,0.196 0.738,0.121 0.699,0.195 0.653,0.117 0.652,0.156 0.613,0.239 0.567,0.152 0.562,0.16 0.524,0.156 0.961,0.313 0.39,0.121 0.438,0.117 0.347,0.078 0.305,0.079 0.434,0.156 0.304,0.078 -0.476,0.039 -0.434,0.039"
                   style="fill:none;stroke:#3333cc;stroke-width:8.5;stroke-linecap:round;stroke-linejoin:round;stroke-miterlimit:10;stroke-dasharray:none;stroke-opacity:0.470588"
                   id="path294" /></g></g></g></g></g></g></g></svg>
