<?xml version="1.0" encoding="UTF-8" standalone="no"?>
<!-- Created with Inkscape (http://www.inkscape.org/) -->

<svg
   version="1.1"
   id="svg2"
   xml:space="preserve"
   width="297.22424"
   height="132.05428"
   viewBox="0 0 297.22424 132.05428"
   sodipodi:docname="intrinsic.svg"
   inkscape:version="1.1.2 (0a00cf5339, 2022-02-04)"
   xmlns:inkscape="http://www.inkscape.org/namespaces/inkscape"
   xmlns:sodipodi="http://sodipodi.sourceforge.net/DTD/sodipodi-0.dtd"
   xmlns="http://www.w3.org/2000/svg"
   xmlns:svg="http://www.w3.org/2000/svg"><defs
     id="defs6"><clipPath
       clipPathUnits="userSpaceOnUse"
       id="clipPath234"><path
         d="M 0,0 H 223 V 100 H 0 Z"
         id="path232" /></clipPath><clipPath
       clipPathUnits="userSpaceOnUse"
       id="clipPath252"><path
         d="M 0,0 H 223 V 100 H 0 Z"
         id="path250" /></clipPath><clipPath
       clipPathUnits="userSpaceOnUse"
       id="clipPath270"><path
         d="M 0,0 H 223 V 100 H 0 Z"
         id="path268" /></clipPath><clipPath
       clipPathUnits="userSpaceOnUse"
       id="clipPath288"><path
         d="M 0,0 H 223 V 100 H 0 Z"
         id="path286" /></clipPath></defs><sodipodi:namedview
     id="namedview4"
     pagecolor="#ffffff"
     bordercolor="#666666"
     borderopacity="1.0"
     inkscape:pageshadow="2"
     inkscape:pageopacity="0.0"
     inkscape:pagecheckerboard="0"
     showgrid="false"
     inkscape:zoom="4.3098772"
     inkscape:cx="102.90316"
     inkscape:cy="66.011161"
     inkscape:window-width="1920"
     inkscape:window-height="1057"
     inkscape:window-x="0"
     inkscape:window-y="23"
     inkscape:window-maximized="1"
     inkscape:current-layer="g8" /><g
     id="g8"
     inkscape:groupmode="layer"
     inkscape:label="intrinsic"
     transform="matrix(1.3333333,0,0,1.3333333,0,3.301357e-6)"><g
       id="g10"><g
         id="g12"><path
           d="m 119.031,28.73 -0.422,0.106 -0.293,0.16 -0.3,0.055 -0.36,0.16 -0.238,0.273 -0.418,0.426 -0.535,0.539 -0.418,0.696 -0.477,0.753 -0.48,0.7 -0.36,0.75 -0.476,0.804 -0.297,0.805 -0.238,0.809 -0.297,0.804 -0.121,0.805 -0.18,0.754 -0.176,0.75 -0.062,0.754 -0.059,0.695 v 4.836 l 0.059,0.969 0.117,0.91 0.121,0.969 0.18,0.914 0.238,0.91 0.238,0.859 0.301,0.809 0.36,0.75 0.292,0.699 0.481,0.75 0.418,0.754 0.476,0.805 0.536,0.859 0.539,0.856 0.476,0.918 0.539,0.855 0.477,0.863 0.418,0.75 0.598,0.75 0.535,0.645 0.535,0.594 0.66,0.644 0.594,0.59 0.718,0.699 0.715,0.641 0.715,0.703 0.778,0.695 0.714,0.699 0.778,0.645 0.777,0.699 0.836,0.59 0.895,0.59 1.015,0.594 0.953,0.589 1.074,0.536 1.075,0.539 1.07,0.59 1.137,0.539 1.074,0.535 1.074,0.429 1.133,0.43 1.137,0.43 1.132,0.375 1.133,0.484 1.137,0.321 1.191,0.324 1.196,0.32 1.191,0.324 1.254,0.266 1.191,0.379 1.254,0.324 1.196,0.266 1.254,0.324 1.191,0.215 1.254,0.215 1.25,0.214 1.199,0.051 1.25,0.11 1.254,0.054 h 1.375 l 1.371,0.051 h 2.922 l 1.492,-0.051 1.551,-0.054 1.555,-0.161 1.609,-0.164 1.613,-0.215 1.61,-0.324 1.793,-0.215 1.789,-0.316 1.968,-0.379 2.028,-0.43 2.09,-0.484 1.968,-0.535 2.032,-0.594 1.968,-0.695 1.911,-0.754 1.968,-0.805 1.848,-0.914 1.793,-0.965 1.789,-1.074 1.73,-1.019 1.672,-1.075 1.493,-1.023 1.429,-1.02 1.375,-1.074 1.313,-1.019 1.191,-1.02 1.195,-1.023 1.012,-0.911 1.137,-1.019 1.074,-1.02 0.953,-1.078 0.957,-1.07 0.715,-0.969 0.656,-0.968 0.598,-0.915 0.535,-1.019 0.418,-1.02 0.422,-0.968 0.355,-0.911 0.36,-0.914 0.297,-0.859 0.297,-0.965 0.359,-0.969 0.18,-1.019 0.179,-1.074 0.18,-1.125 0.059,-1.133 0.058,-1.125 v -1.074 l 0.063,-0.969 -0.063,-0.965 -0.117,-0.969 -0.18,-0.91 -0.297,-0.914 -0.421,-0.914 -0.477,-0.914 -0.594,-0.914 -0.422,-0.91 -0.593,-0.965 -1.196,-1.938 -0.773,-0.964 -0.719,-0.86 -0.773,-0.859 -0.836,-0.86 -0.899,-0.804 -0.953,-0.86 -1.015,-0.754 -0.954,-0.804 -1.789,-1.61 -0.836,-0.804 -0.894,-0.754 -0.899,-0.805 -0.894,-0.754 -0.953,-0.754 -0.957,-0.804 -0.953,-0.75 -1.016,-0.75 -1.016,-0.704 -0.953,-0.75 -0.953,-0.644 -0.957,-0.645 -0.953,-0.64 -1.074,-0.594 -1.016,-0.59 L 194.105,8.91 193.027,8.371 192.016,7.84 191,7.406 l -1.074,-0.48 -1.074,-0.27 -1.075,-0.375 -1.074,-0.324 -1.133,-0.32 -1.074,-0.434 -1.133,-0.265 -1.133,-0.27 -1.136,-0.27 -1.133,-0.214 -1.074,-0.215 -1.196,-0.16 -1.132,-0.106 -1.254,-0.055 -2.625,-0.109 h -5.133 l -1.254,0.109 -1.254,0.106 -1.191,0.215 -1.075,0.215 -1.136,0.214 -1.012,0.215 -1.016,0.27 -1.011,0.215 -1.078,0.32 -1.016,0.324 -1.012,0.324 -0.953,0.375 -0.957,0.375 -0.957,0.43 -0.953,0.32 -0.895,0.539 -0.894,0.43 -0.836,0.43 -0.832,0.484 -0.777,0.375 -0.719,0.375 -0.715,0.434 -0.777,0.375 -0.653,0.375 -0.66,0.484 -0.656,0.321 -0.598,0.374 -0.594,0.325 -0.597,0.265 -0.598,0.27 -0.476,0.215 -0.54,0.379 -0.535,0.214 -0.418,0.321 -0.539,0.375 -0.535,0.324 -0.539,0.32 -0.535,0.321 -0.535,0.324 -0.539,0.324 -0.477,0.27 -1.078,0.64 -0.535,0.324 -0.477,0.375 -0.535,0.27 -0.418,0.375 -0.359,0.324 -0.356,0.215 -0.3,0.32 -0.598,0.539 -0.356,0.215"
           style="fill:none;stroke:#808080;stroke-width:0.85;stroke-linecap:round;stroke-linejoin:round;stroke-miterlimit:10;stroke-dasharray:0.5, 3;stroke-dashoffset:0;stroke-opacity:1"
           id="path14" /></g><g
         id="g16"><path
           d="m 16.441,16.051 0.598,0.164 0.477,0.105 0.597,0.106 0.598,0.109 0.715,0.16 0.715,0.11 0.898,0.109 1.016,0.106 1.011,0.054 1.133,0.055 h 5.789 l 1.133,0.051 1.016,0.054 1.074,0.11 1.016,0.051 h 1.132 l 1.254,0.054 h 1.254 l 1.25,0.055 h 1.254 l 1.254,0.051 h 5.25 l 1.375,-0.051 h 2.688 l 1.308,-0.055 1.254,-0.054 1.254,-0.051 1.254,-0.11 h 1.254 l 1.312,-0.054 1.313,-0.051 1.316,-0.055 1.309,-0.109 1.371,-0.11 1.375,-0.105 3.101,-0.109 h 4.895 l 1.613,0.054 1.551,0.055 1.492,0.055 1.434,0.05 h 2.625 l 1.371,0.059 1.375,0.051 1.308,0.055 1.317,0.054 1.074,0.055 h 1.012 l 0.898,0.051 h 0.774 l 0.718,0.054 0.594,0.055 0.418,0.106 h 0.418 l 0.297,0.054 -0.059,-0.375"
           style="fill:none;stroke:#808080;stroke-width:1.07475;stroke-linecap:round;stroke-linejoin:round;stroke-miterlimit:10;stroke-dasharray:none;stroke-opacity:0.489819"
           id="path18" /></g><g
         id="g20"><path
           d="m 26.172,58.535 0.359,-0.215 0.36,-0.16 0.359,-0.215 0.414,-0.215 0.539,-0.16 0.598,-0.16 0.773,-0.109 0.715,-0.106 0.777,-0.058 0.778,-0.106 0.715,-0.054 h 0.718 l 0.715,-0.055 0.715,-0.051 0.715,-0.109 0.66,-0.106 0.715,-0.109 0.656,-0.16 0.598,-0.106 0.597,-0.109 0.598,-0.055 0.535,-0.105 0.598,-0.055 h 1.133 l 0.597,-0.055 0.594,-0.05 0.422,-0.055 0.535,-0.109 0.535,-0.051 0.477,-0.055 0.66,-0.055 0.535,-0.054 h 0.477 l 0.539,-0.051 h 1.73 l 0.657,0.051 h 0.773 l 0.84,0.054 h 1.668 l 0.894,0.055 0.899,0.106 0.894,0.054 0.832,0.055 h 0.719 l 0.656,0.105 0.598,0.055 0.535,0.055 0.418,0.054 h 0.418 l 0.418,0.106 0.539,0.055 h 0.895 l 0.359,-0.055 h 0.594 l 0.359,-0.055 h 0.836 l 0.656,-0.051 0.418,-0.054 0.356,-0.055 h 1.136 l 0.297,0.055 0.598,0.054 0.535,0.051 h 0.539 l 0.774,0.055 h 1.254 l 0.777,0.055 h 1.848 l 1.015,-0.055 1.016,-0.106 0.953,-0.054 2.031,-0.11 1.071,-0.05 1.078,-0.055 1.191,-0.055 h 8.059 l 1.371,-0.054 h 1.375 l 1.308,-0.051 h 5.313 l 0.836,0.051 h 0.777 l 0.656,0.054 0.414,0.055 0.36,0.055 0.359,0.105 0.36,0.109 -0.418,0.051"
           style="fill:none;stroke:#808080;stroke-width:1.07475;stroke-linecap:round;stroke-linejoin:round;stroke-miterlimit:10;stroke-dasharray:none;stroke-opacity:0.489819"
           id="path22" /></g><g
         id="g24"><path
           d="m 0.211,35.281 0.898,0.051 0.778,0.109 0.894,0.106 0.953,0.058 1.075,0.106 1.195,0.055 1.191,0.105 1.313,0.055 1.191,0.054 1.254,0.055 1.254,0.051 1.195,0.055 1.192,0.054 h 1.195 l 1.133,0.055 h 2.211 l 1.07,-0.055 h 2.09 l 0.957,-0.054 h 0.895 l 0.894,-0.055 0.836,-0.051 h 1.609 L 28.32,35.98 h 0.778 l 0.832,-0.054 h 0.777 l 0.777,-0.055 h 8.473 l 0.777,0.055 0.778,0.109 0.715,0.106 0.773,0.109 0.719,0.051 0.773,0.054 0.899,0.055 0.832,0.051 h 0.957 l 0.953,0.055 0.898,0.054 h 0.953 l 0.895,0.055 h 2.625 l 0.777,0.051 h 0.715 l 0.656,0.054 h 4 l 0.598,-0.054 h 0.715 l 0.656,-0.051 0.777,-0.055 h 0.774 l 0.777,-0.054 0.715,-0.055 h 0.715 l 0.476,-0.051 h 5.493 l 0.476,0.051 h 0.598 l 0.598,0.055 h 2.324"
           style="fill:none;stroke:#808080;stroke-width:1.07475;stroke-linecap:round;stroke-linejoin:round;stroke-miterlimit:10;stroke-dasharray:none;stroke-opacity:0.489819"
           id="path26" /></g><g
         id="g28"><path
           d="m 197.027,33.672 -0.359,-0.11 -0.238,0.215 0.062,0.43 0.238,0.27 0.356,0.214 0.359,0.325 0.36,0.05 h 0.773 l 0.36,-0.05 0.355,-0.059 0.359,-0.215 0.301,-0.16 0.059,-0.32 0.121,-0.324 0.058,-0.43 v -0.696 l -0.179,-0.269 -0.239,-0.215 -0.418,-0.269 h -1.132 l -0.301,0.054 -0.356,0.215 -0.3,0.215 -0.297,0.375 -0.36,0.164 -0.297,0.48 -0.238,0.43 -0.062,0.485 v 1.394 l 0.062,0.324 0.18,0.321 0.414,0.324 0.359,0.105 0.418,0.16 h 0.778 l 0.355,-0.05 0.301,-0.055 0.359,-0.375 0.293,-0.43 0.242,-0.375 0.36,-0.324 0.238,-0.215 0.059,-0.375 0.117,-0.324 0.121,-0.48 0.117,-0.325 v -1.125 l -0.297,-0.324 -0.355,-0.109 -0.36,-0.055"
           style="fill:none;stroke:#ff00ff;stroke-width:5.67;stroke-linecap:round;stroke-linejoin:round;stroke-miterlimit:10;stroke-dasharray:none;stroke-opacity:1"
           id="path30" /></g><g
         id="g32"><path
           d="m 182.109,54.242 -0.359,-0.16 -0.535,-0.273 -0.36,-0.161 -0.417,-0.054 h -0.657 l -0.418,0.109 -0.476,0.106 -0.657,0.324 -0.597,0.429 -0.418,0.325 -0.539,0.48 -0.356,0.43 -0.3,0.484 -0.356,0.594 -0.18,0.535 -0.238,0.59 -0.121,0.645 -0.117,0.644 v 0.645 l 0.117,0.699 0.18,0.59 0.359,0.484 0.297,0.484 0.418,0.321 0.535,0.324 0.539,0.266 0.598,0.214 0.656,0.325 1.43,0.32 0.84,0.16 0.832,0.109 0.898,0.055 0.895,0.051 0.836,0.059 h 0.894 l 0.832,-0.059 0.836,-0.106 0.777,-0.16 0.778,-0.324 0.656,-0.32 0.594,-0.43 0.539,-0.43 0.418,-0.433 0.418,-0.481 0.3,-0.484 0.239,-0.535 0.238,-0.539 0.117,-0.539 0.059,-0.59 0.062,-0.645 v -0.64 l -0.062,-0.645 -0.238,-0.648 -0.36,-0.645 -0.476,-0.59 -0.536,-0.59 -0.535,-0.48 -0.539,-0.434 -0.597,-0.32 -0.598,-0.324 -0.895,-0.43 -0.773,-0.16 -0.422,-0.055 h -0.414 l -0.359,-0.05 -0.418,-0.055 h -0.418 l -0.477,-0.055 -0.894,0.055 -0.477,0.055 -0.477,0.214 -0.48,0.215 -0.297,0.266 -0.418,0.269 -0.597,0.321 -0.36,0.215 -0.238,0.273 -0.238,0.32 -0.297,0.27 -0.239,0.32 -0.238,0.324 -0.422,0.696 -0.117,0.484 -0.238,0.859 -0.059,0.54 -0.062,0.375 -0.059,0.535 0.059,0.484 0.062,0.375 0.117,0.484 0.121,0.325 0.297,0.265 0.239,0.375 0.418,0.27 0.476,0.269 0.477,0.215 0.48,0.16 0.535,0.164 0.539,0.106 0.539,0.109 0.653,0.106 h 0.957 l 0.535,-0.055 0.418,-0.051 0.598,-0.164 0.359,-0.16 0.238,-0.266 0.36,-0.273 0.238,-0.375 0.297,-0.375 0.238,-0.43 0.18,-0.535 0.117,-0.539 0.121,-0.59 0.063,-0.539 0.054,-0.59 -0.054,-0.535 -0.184,-0.484 -0.176,-0.379 -0.301,-0.43 -0.355,-0.375 -0.301,-0.32 -0.359,-0.27 -0.356,-0.16 -0.3,-0.055 -0.297,-0.105 -0.418,-0.109 -0.539,-0.106 h -0.414 l -0.418,0.375 -0.239,0.321 -0.179,0.269 -0.18,0.324 -0.18,0.641 -0.121,0.488 v 0.426 l -0.055,0.43 v 0.429 l 0.118,0.325 0.359,0.429 0.477,0.215 0.355,0.109 0.539,0.106 0.656,-0.055 0.598,-0.051 0.477,-0.164 0.238,-0.269 0.18,-0.375 0.175,-0.32 v -0.918 l -0.054,-0.426 v -0.43 l -0.121,-0.379 -0.418,-0.426 -0.715,-0.324 -0.36,-0.16 -0.296,-0.055 -0.36,-0.105 h -0.476 l -0.301,0.105 -0.239,0.215 -0.355,0.215 -0.184,0.324 -0.238,0.375 -0.176,0.696 -0.062,0.324 -0.059,0.375 v 0.754 l 0.059,0.48 0.183,0.27 0.415,0.539 0.359,0.105 0.598,0.27 0.359,0.054 h 0.832 l 0.418,-0.054 0.297,-0.375 0.242,-0.539 0.059,-0.321 v -0.375 l 0.058,-0.324 V 57.41 l -0.058,-0.433 -0.059,-0.317 -0.359,-0.164 -0.536,-0.051 -0.359,0.051 -0.297,0.055 h -0.422 l -0.593,0.051 -0.301,0.058 -0.477,0.051 -0.297,0.055 -0.3,0.054 -0.536,0.106 -0.296,0.16 -0.36,0.109 -0.359,0.106 -0.238,0.215 -0.297,0.269 -0.239,0.485 -0.121,0.375 -0.179,0.429 -0.059,0.43 -0.059,0.324 v 1.125 l 0.118,0.539 0.121,0.375 0.179,0.324 0.176,0.321 0.18,0.324 0.297,0.266 0.301,0.324 0.359,0.215 0.238,0.214 0.297,0.161 0.477,0.32 0.359,0.16 0.301,0.109 0.355,0.106 0.418,0.109 0.36,0.106 h 1.492 l 0.355,0.109 h 0.778 l 0.296,-0.051 0.36,-0.058 0.359,-0.051 0.36,-0.164 0.355,-0.106 0.297,-0.21 0.301,-0.219 0.355,-0.215 0.301,-0.27 0.176,-0.265 0.301,-0.375 0.238,-0.43 0.238,-0.324 0.18,-0.379 0.179,-0.32 0.239,-0.321 0.179,-0.269 0.297,-0.43 0.242,-0.269"
           style="fill:none;stroke:#ff8000;stroke-width:5.67;stroke-linecap:round;stroke-linejoin:round;stroke-miterlimit:10;stroke-dasharray:none;stroke-opacity:1"
           id="path34" /></g><g
         id="g36"><path
           d="m 144.215,29.16 0.238,-0.215"
           style="fill:none;stroke:#008000;stroke-width:5.67;stroke-linecap:round;stroke-linejoin:round;stroke-miterlimit:10;stroke-dasharray:none;stroke-opacity:1"
           id="path38" /></g><g
         id="g40"><path
           d="m 174.23,24.918 v 0"
           style="fill:none;stroke:#3333cc;stroke-width:5.67;stroke-linecap:round;stroke-linejoin:round;stroke-miterlimit:10;stroke-dasharray:none;stroke-opacity:1"
           id="path42" /></g><g
         id="g44"><path
           d="M 150.539,56.977 V 56.551"
           style="fill:none;stroke:#3333cc;stroke-width:5.67;stroke-linecap:round;stroke-linejoin:round;stroke-miterlimit:10;stroke-dasharray:none;stroke-opacity:1"
           id="path46" /></g><g
         id="g48"><path
           d="m 128.398,40.547 0.063,-0.379"
           style="fill:none;stroke:#3333cc;stroke-width:0.85;stroke-linecap:round;stroke-linejoin:round;stroke-miterlimit:10;stroke-dasharray:none;stroke-opacity:1"
           id="path50" /></g><g
         id="g52"><path
           d="m 152.211,39.363 v 0"
           style="fill:none;stroke:#3333cc;stroke-width:0.85;stroke-linecap:round;stroke-linejoin:round;stroke-miterlimit:10;stroke-dasharray:none;stroke-opacity:1"
           id="path54" /></g><g
         id="g56"><path
           d="m 163.07,43.875 v 0"
           style="fill:none;stroke:#3333cc;stroke-width:0.85;stroke-linecap:round;stroke-linejoin:round;stroke-miterlimit:10;stroke-dasharray:none;stroke-opacity:1"
           id="path58" /></g><g
         id="g60"><path
           d="m 159.191,25.023 v 0"
           style="fill:none;stroke:#3333cc;stroke-width:0.85;stroke-linecap:round;stroke-linejoin:round;stroke-miterlimit:10;stroke-dasharray:none;stroke-opacity:1"
           id="path62" /></g><g
         id="g64"><path
           d="m 145.289,67.504 v 0"
           style="fill:none;stroke:#3333cc;stroke-width:0.85;stroke-linecap:round;stroke-linejoin:round;stroke-miterlimit:10;stroke-dasharray:none;stroke-opacity:1"
           id="path66" /></g><g
         id="g68"><path
           d="m 160.207,69.277 v 0"
           style="fill:none;stroke:#3333cc;stroke-width:0.85;stroke-linecap:round;stroke-linejoin:round;stroke-miterlimit:10;stroke-dasharray:none;stroke-opacity:1"
           id="path70" /></g><g
         id="g72"><path
           d="m 183.121,39.848 -0.176,-0.325"
           style="fill:none;stroke:#3333cc;stroke-width:0.85;stroke-linecap:round;stroke-linejoin:round;stroke-miterlimit:10;stroke-dasharray:none;stroke-opacity:1"
           id="path74" /></g><g
         id="g76"><path
           d="m 186.109,16.754 v 0"
           style="fill:none;stroke:#3333cc;stroke-width:0.85;stroke-linecap:round;stroke-linejoin:round;stroke-miterlimit:10;stroke-dasharray:none;stroke-opacity:1"
           id="path78" /></g><g
         id="g80"><path
           d="m 130.488,56.711 0.239,-0.266"
           style="fill:none;stroke:#3333cc;stroke-width:0.85;stroke-linecap:round;stroke-linejoin:round;stroke-miterlimit:10;stroke-dasharray:none;stroke-opacity:1"
           id="path82" /></g><g
         id="g84"><path
           d="m 214.336,51.07 v 0"
           style="fill:none;stroke:#3333cc;stroke-width:0.85;stroke-linecap:round;stroke-linejoin:round;stroke-miterlimit:10;stroke-dasharray:none;stroke-opacity:1"
           id="path86" /></g><g
         id="g88"><path
           d="m 156.863,14.605 v 0"
           style="fill:none;stroke:#3333cc;stroke-width:0.85;stroke-linecap:round;stroke-linejoin:round;stroke-miterlimit:10;stroke-dasharray:none;stroke-opacity:1"
           id="path90" /></g><g
         id="g92"><path
           d="m 176.977,16.754 v 0"
           style="fill:none;stroke:#008000;stroke-width:0.85;stroke-linecap:round;stroke-linejoin:round;stroke-miterlimit:10;stroke-dasharray:none;stroke-opacity:1"
           id="path94" /></g><g
         id="g96"><path
           d="m 203.652,56.281 -0.058,-0.375 -0.063,-0.429 -0.058,-0.539 -0.063,-0.536"
           style="fill:none;stroke:#008000;stroke-width:0.85;stroke-linecap:round;stroke-linejoin:round;stroke-miterlimit:10;stroke-dasharray:none;stroke-opacity:1"
           id="path98" /></g><g
         id="g100"><path
           d="m 199.293,19.977 0.238,-0.27"
           style="fill:none;stroke:#008000;stroke-width:0.85;stroke-linecap:round;stroke-linejoin:round;stroke-miterlimit:10;stroke-dasharray:none;stroke-opacity:1"
           id="path102" /></g><g
         id="g104"><path
           d="m 140.871,47.312 v 0"
           style="fill:none;stroke:#008000;stroke-width:0.85;stroke-linecap:round;stroke-linejoin:round;stroke-miterlimit:10;stroke-dasharray:none;stroke-opacity:1"
           id="path106" /></g><g
         id="g108"><path
           d="m 133.949,25.078 v 0"
           style="fill:none;stroke:#008000;stroke-width:0.85;stroke-linecap:round;stroke-linejoin:round;stroke-miterlimit:10;stroke-dasharray:none;stroke-opacity:1"
           id="path110" /></g><g
         id="g112"><path
           d="m 209.68,44.52 v 0"
           style="fill:none;stroke:#008000;stroke-width:0.85;stroke-linecap:round;stroke-linejoin:round;stroke-miterlimit:10;stroke-dasharray:none;stroke-opacity:1"
           id="path114" /></g><g
         id="g116"><path
           d="m 171.664,12.832 v 0"
           style="fill:none;stroke:#008000;stroke-width:0.85;stroke-linecap:round;stroke-linejoin:round;stroke-miterlimit:10;stroke-dasharray:none;stroke-opacity:1"
           id="path118" /></g><g
         id="g120"><path
           d="m 171.484,69.602 -0.296,0.105 -0.356,0.109 -0.301,-0.484"
           style="fill:none;stroke:#008000;stroke-width:0.85;stroke-linecap:round;stroke-linejoin:round;stroke-miterlimit:10;stroke-dasharray:none;stroke-opacity:1"
           id="path122" /></g><g
         id="g124"><path
           d="m 165.637,42.746 v 0"
           style="fill:none;stroke:#008000;stroke-width:0.85;stroke-linecap:round;stroke-linejoin:round;stroke-miterlimit:10;stroke-dasharray:none;stroke-opacity:1"
           id="path126" /></g><g
         id="g128"><path
           d="m 159.133,53.543 v 0"
           style="fill:none;stroke:#008000;stroke-width:0.85;stroke-linecap:round;stroke-linejoin:round;stroke-miterlimit:10;stroke-dasharray:none;stroke-opacity:1"
           id="path130" /></g><g
         id="g132"><path
           d="m 170.352,33.402 v 0"
           style="fill:none;stroke:#008000;stroke-width:0.85;stroke-linecap:round;stroke-linejoin:round;stroke-miterlimit:10;stroke-dasharray:none;stroke-opacity:1"
           id="path134" /></g><g
         id="g136"><path
           d="m 136.039,50.641 v 0"
           style="fill:none;stroke:#008000;stroke-width:0.85;stroke-linecap:round;stroke-linejoin:round;stroke-miterlimit:10;stroke-dasharray:none;stroke-opacity:1"
           id="path138" /></g><g
         id="g140"><path
           d="m 143.137,40.492 v 0"
           style="fill:none;stroke:#ff00ff;stroke-width:0.85;stroke-linecap:round;stroke-linejoin:round;stroke-miterlimit:10;stroke-dasharray:none;stroke-opacity:1"
           id="path142" /></g><g
         id="g144"><path
           d="m 211.59,40.602 -0.36,-0.11"
           style="fill:none;stroke:#ff00ff;stroke-width:0.85;stroke-linecap:round;stroke-linejoin:round;stroke-miterlimit:10;stroke-dasharray:none;stroke-opacity:1"
           id="path146" /></g><g
         id="g148"><path
           d="m 180.379,18.148 v 0"
           style="fill:none;stroke:#ff00ff;stroke-width:0.85;stroke-linecap:round;stroke-linejoin:round;stroke-miterlimit:10;stroke-dasharray:none;stroke-opacity:1"
           id="path150" /></g><g
         id="g152"><path
           d="m 186.941,31.039 v 0"
           style="fill:none;stroke:#ff00ff;stroke-width:0.85;stroke-linecap:round;stroke-linejoin:round;stroke-miterlimit:10;stroke-dasharray:none;stroke-opacity:1"
           id="path154" /></g><g
         id="g156"><path
           d="m 201.98,65.734 h -0.535 l -0.422,-0.105"
           style="fill:none;stroke:#ff00ff;stroke-width:0.85;stroke-linecap:round;stroke-linejoin:round;stroke-miterlimit:10;stroke-dasharray:none;stroke-opacity:1"
           id="path158" /></g><g
         id="g160"><path
           d="m 122.488,48.012 -0.293,-0.055"
           style="fill:none;stroke:#ff00ff;stroke-width:0.85;stroke-linecap:round;stroke-linejoin:round;stroke-miterlimit:10;stroke-dasharray:none;stroke-opacity:1"
           id="path162" /></g><g
         id="g164"><path
           d="m 149.586,16.32 v 0"
           style="fill:none;stroke:#ff00ff;stroke-width:0.85;stroke-linecap:round;stroke-linejoin:round;stroke-miterlimit:10;stroke-dasharray:none;stroke-opacity:1"
           id="path166" /></g><g
         id="g168"><path
           d="m 123.684,36.84 v 0"
           style="fill:none;stroke:#ff00ff;stroke-width:0.85;stroke-linecap:round;stroke-linejoin:round;stroke-miterlimit:10;stroke-dasharray:none;stroke-opacity:1"
           id="path170" /></g><g
         id="g172"><path
           d="m 154,75.938 -0.059,-0.485 -0.121,-0.43"
           style="fill:none;stroke:#ff00ff;stroke-width:0.85;stroke-linecap:round;stroke-linejoin:round;stroke-miterlimit:10;stroke-dasharray:none;stroke-opacity:1"
           id="path174" /></g><g
         id="g176"><path
           d="m 137.289,58.75 -0.238,0.324"
           style="fill:none;stroke:#ff00ff;stroke-width:0.85;stroke-linecap:round;stroke-linejoin:round;stroke-miterlimit:10;stroke-dasharray:none;stroke-opacity:1"
           id="path178" /></g><g
         id="g180"><path
           d="m 129.234,28.996 v 0"
           style="fill:none;stroke:#ff00ff;stroke-width:0.85;stroke-linecap:round;stroke-linejoin:round;stroke-miterlimit:10;stroke-dasharray:none;stroke-opacity:1"
           id="path182" /></g><g
         id="g184"><path
           d="m 136.992,39.848 v 0"
           style="fill:none;stroke:#ff00ff;stroke-width:0.85;stroke-linecap:round;stroke-linejoin:round;stroke-miterlimit:10;stroke-dasharray:none;stroke-opacity:1"
           id="path186" /></g><g
         id="g188"><path
           d="m 157.758,36.73 v 0"
           style="fill:none;stroke:#ff8000;stroke-width:0.85;stroke-linecap:round;stroke-linejoin:round;stroke-miterlimit:10;stroke-dasharray:none;stroke-opacity:1"
           id="path190" /></g><g
         id="g192"><path
           d="m 170.41,52.254 -0.176,0.269 -0.179,-0.324"
           style="fill:none;stroke:#ff8000;stroke-width:0.85;stroke-linecap:round;stroke-linejoin:round;stroke-miterlimit:10;stroke-dasharray:none;stroke-opacity:1"
           id="path194" /></g><g
         id="g196"><path
           d="m 185.57,11.008 0.059,-0.324"
           style="fill:none;stroke:#ff8000;stroke-width:0.85;stroke-linecap:round;stroke-linejoin:round;stroke-miterlimit:10;stroke-dasharray:none;stroke-opacity:1"
           id="path198" /></g><g
         id="g200"><path
           d="m 133.172,46.562 v 0"
           style="fill:none;stroke:#ff8000;stroke-width:0.85;stroke-linecap:round;stroke-linejoin:round;stroke-miterlimit:10;stroke-dasharray:none;stroke-opacity:1"
           id="path202" /></g><g
         id="g204"><path
           d="m 188.195,73.523 -0.238,-0.324 -0.301,-0.215 -0.355,-0.109 -0.598,-0.105 -0.656,0.105 -0.297,0.164 -0.301,0.32 -0.297,0.43 -0.238,0.484 -0.297,0.59 -0.179,0.539 -0.122,0.536 v 0.539 l 0.18,0.535 0.18,0.539 0.418,0.429 0.535,0.426 0.656,0.324 1.555,0.54 0.832,0.054 h 0.777 l 0.778,-0.054 0.593,-0.161 0.598,-0.269 0.418,-0.215 0.297,-0.219"
           style="fill:none;stroke:#ff8000;stroke-width:0.85;stroke-linecap:round;stroke-linejoin:round;stroke-miterlimit:10;stroke-dasharray:none;stroke-opacity:1"
           id="path206" /></g><g
         id="g208"><path
           d="m 210.812,23.25 0.122,-0.375 v -0.32 l -0.418,-0.164 -0.719,0.054 -0.297,0.055 -0.477,0.215 -0.296,0.215 -0.36,0.32 -0.179,0.375 0.417,0.379 0.297,0.266 0.36,0.164 0.297,0.16 0.359,0.16 0.355,0.215 0.422,0.215 0.418,0.378 0.297,0.321 0.238,0.32 0.118,0.324 0.121,0.321 0.058,0.433 v 0.321 l -0.535,0.324 -0.418,0.215 -0.597,0.05 -0.536,0.055 -0.539,0.055 h -2.148"
           style="fill:none;stroke:#ff00ff;stroke-width:0.85;stroke-linecap:round;stroke-linejoin:round;stroke-miterlimit:10;stroke-dasharray:none;stroke-opacity:1"
           id="path210" /></g><g
         id="g212"><path
           d="m 169.934,1.5 -0.301,-0.109 -0.414,0.644 -0.18,0.539 -0.18,0.485 -0.179,0.644 v 1.559 l 0.062,0.429 0.117,0.481 0.481,0.59 0.355,0.269 0.477,0.16 0.66,0.161 0.832,0.164 0.539,-0.11 0.477,-0.269 0.539,-0.375 0.476,-0.481 0.356,-0.488 0.301,-0.59 0.238,-0.59 0.121,-0.695 0.117,-0.699 0.059,-0.699 V 1.5 l -0.059,-0.43 -0.18,-0.644 -0.296,0.484 v 2.203 l 0.058,0.75 0.063,0.75 0.117,0.649 0.058,0.531 0.063,0.379 0.117,0.324 0.18,0.32"
           style="fill:none;stroke:#3333cc;stroke-width:0.85;stroke-linecap:round;stroke-linejoin:round;stroke-miterlimit:10;stroke-dasharray:none;stroke-opacity:1"
           id="path214" /></g><g
         id="g216"><path
           d="m 138.723,10.199 v 0.594 l 0.058,0.375 0.063,0.644 0.058,0.645 0.118,0.754 0.121,0.91 0.117,0.859 0.121,0.86 0.18,0.754 0.179,0.75 0.117,0.699 0.122,0.59 0.058,0.429 0.063,0.43 0.117,0.485 -0.36,-0.485 -0.296,-0.269 -0.598,-0.375 -0.535,-0.27 -0.301,-0.055 -0.355,-0.054 -0.481,-0.051 -0.418,0.105 -0.476,0.27 -0.418,0.269 -0.297,0.43 -0.18,0.375 -0.176,0.324 -0.062,0.321 -0.121,0.59 0.3,0.593 0.297,0.16 0.418,0.27 0.477,0.266 0.418,0.109 0.597,0.105 0.54,0.055 0.535,-0.055 0.48,-0.214 0.414,-0.161"
           style="fill:none;stroke:#008000;stroke-width:0.85;stroke-linecap:round;stroke-linejoin:round;stroke-miterlimit:10;stroke-dasharray:none;stroke-opacity:1"
           id="path218" /></g><g
         id="g220"><path
           d="m 124.176,82.254 -0.242,0.496 -0.125,0.492 -0.059,0.606 -0.125,0.66 v 0.711 l -0.059,0.828 v 12.57 l 0.122,-0.383 0.062,-0.437"
           style="fill:none;stroke:#808080;stroke-width:0.85;stroke-linecap:round;stroke-linejoin:round;stroke-miterlimit:10;stroke-dasharray:none;stroke-opacity:1"
           id="path222" /></g><g
         id="g224"><path
           d="m 122.164,83.078 -0.246,-0.219 v -0.386 l 0.305,-0.547 0.488,-0.387 0.914,-0.492 0.367,-0.109 0.43,-0.11 0.426,-0.109 0.547,-0.055 0.55,-0.055 h 1.528 l 0.547,0.055 0.429,0.219 0.547,0.219 0.367,0.328 0.305,0.441 0.305,0.438 0.246,0.55 0.242,0.606 0.246,0.547 0.121,0.55 0.059,0.547 0.062,0.442 v 0.496 l -0.183,0.437 -0.246,0.438 -0.426,0.387 -0.551,0.382 -0.547,0.332 -1.344,0.438 -0.73,0.164 -0.672,0.109 -0.609,0.11 -0.61,0.054 -0.918,0.055 -0.363,0.055 h -0.672"
           style="fill:none;stroke:#808080;stroke-width:0.85;stroke-linecap:round;stroke-linejoin:round;stroke-miterlimit:10;stroke-dasharray:none;stroke-opacity:1"
           id="path226" /></g><g
         id="g228"><g
           id="g230" /><g
           id="g244"><g
             clip-path="url(#clipPath234)"
             id="g242"><g
               id="g240"><g
                 id="g238"><path
                   d="m 173.477,22.129 -0.305,0.109 -0.43,0.219 -0.367,0.219 -0.305,0.332 -0.242,0.219 -0.183,0.277 -0.184,0.273 -0.059,0.547 -0.062,0.332 v 0.766 l 0.18,0.332 0.371,0.273 0.304,0.11 0.364,0.164 0.304,0.109 0.43,0.164 0.367,0.059 h 0.485 l 0.308,-0.059 0.363,-0.051 0.305,-0.168 0.426,-0.218 0.371,-0.274 0.242,-0.332 0.121,-0.328 0.063,-0.332 0.058,-0.383 0.121,-0.492 v -0.879 l -0.179,-0.273 -0.309,-0.168 -0.363,-0.051 -0.305,-0.059 -0.305,-0.109 -0.308,-0.055"
                   style="fill:none;stroke:#3333cc;stroke-width:8.5;stroke-linecap:round;stroke-linejoin:round;stroke-miterlimit:10;stroke-dasharray:none;stroke-opacity:0.470588"
                   id="path236" /></g></g></g></g></g><g
         id="g246"><g
           id="g248" /><g
           id="g262"><g
             clip-path="url(#clipPath252)"
             id="g260"><g
               id="g258"><g
                 id="g256"><path
                   d="m 150.168,54.031 -0.246,-0.219 -0.301,-0.054 -0.488,0.109 -0.367,0.11 -0.426,0.218 -0.43,0.383 -0.426,0.277 -0.246,0.219 -0.242,0.387 -0.308,0.769 -0.059,0.493 -0.059,0.328 v 0.551 l 0.059,0.437 0.246,0.328 0.18,0.278 0.367,0.273 0.43,0.219 0.363,0.109 0.305,0.055 0.55,0.109 0.364,0.059 0.488,0.109 0.488,-0.058 0.613,-0.11 0.364,-0.051 0.429,-0.222 0.364,-0.328 0.367,-0.332 0.183,-0.329 0.125,-0.437 0.059,-0.606 0.059,-0.437 0.062,-0.438 -0.062,-0.609 -0.059,-0.433 -0.184,-0.387 -0.246,-0.332 -0.304,-0.328 -0.364,-0.219 -0.246,-0.219"
                   style="fill:none;stroke:#3333cc;stroke-width:8.5;stroke-linecap:round;stroke-linejoin:round;stroke-miterlimit:10;stroke-dasharray:none;stroke-opacity:0.470588"
                   id="path254" /></g></g></g></g></g><g
         id="g264"><g
           id="g266" /><g
           id="g280"><g
             clip-path="url(#clipPath270)"
             id="g278"><g
               id="g276"><g
                 id="g274"><path
                   d="m 200.867,28.664 -0.363,-0.109 -0.242,-0.219 -0.309,-0.223 -0.363,-0.273 -0.43,-0.164 -0.363,-0.059 -0.43,-0.109 h -1.277 l -0.309,0.109 -0.609,0.278 -0.305,0.164 -0.367,0.218 -0.367,0.278 -0.184,0.273 -0.242,0.328 -0.305,0.383 -0.183,0.277 -0.305,0.329 -0.246,0.328 -0.242,0.332 -0.121,0.328 -0.184,0.332 -0.121,0.66 v 0.711 l 0.121,0.383 0.059,0.332 0.429,0.328 0.305,0.332 0.43,0.273 0.301,0.164 0.367,0.164 0.367,0.219 0.426,0.223 0.429,0.219 0.305,0.164 0.363,0.218 0.305,0.168 0.309,0.051 0.363,0.059 0.367,0.109 0.305,0.106 0.547,0.168 0.429,0.109 0.368,0.164 0.425,0.055 0.368,0.109 h 1.402 l 0.305,-0.109 0.367,-0.274 0.304,-0.222 0.184,-0.274 0.184,-0.328 0.179,-0.383 0.125,-0.332 0.063,-0.383 0.121,-0.328 0.121,-0.386 V 33.551 L 203.98,33 l -0.179,-0.328 -0.125,-0.274 -0.242,-0.273 -0.122,-0.277 -0.304,-0.332 -0.371,-0.274 -0.305,-0.273 -0.426,-0.274 -0.363,-0.332 -0.367,-0.218 -0.309,-0.11 -0.426,-0.219 -1.218,-0.437 h -0.305 l -0.367,-0.059 h -1.707 l -0.367,0.11 -0.364,0.058 -0.308,0.11 -0.367,0.164 -0.243,0.218 -0.363,0.219 -0.367,0.164 -0.367,0.223 -0.305,0.273 -0.305,0.223 -0.308,0.16 -0.301,0.164 -0.184,0.278 -0.367,0.273 -0.121,0.387 -0.062,0.328 -0.059,0.383 v 1.265 l 0.18,0.328 0.246,0.332 0.183,0.325 0.243,0.277 0.367,0.219 0.304,0.109 0.426,0.274 0.309,0.113 0.426,0.219 0.304,0.109 0.364,0.164 0.308,0.055 0.305,0.109 0.304,0.055 0.368,0.058 0.367,0.11 0.363,0.051 0.367,0.058 0.364,0.055 h 1.711 l 0.367,-0.113 0.426,-0.274 0.367,-0.219 0.3,-0.277 0.188,-0.273 0.242,-0.219 0.246,-0.328 0.18,-0.274 0.121,-0.277 0.125,-0.274 0.063,-0.382 0.058,-0.551 v -0.383 l 0.121,-0.328 -0.062,-0.66 v -0.551 l -0.117,-0.551 -0.125,-0.601 -0.122,-0.332 -0.183,-0.438 -0.246,-0.328 -0.242,-0.277 -0.184,-0.383 v -0.66 l 0.672,0.332 0.305,0.219 0.429,0.328 0.301,0.164 0.367,0.332 0.184,0.383 0.246,0.328 0.121,0.332 0.059,0.328 0.062,0.332"
                   style="fill:none;stroke:#ff00ff;stroke-width:8.5;stroke-linecap:round;stroke-linejoin:round;stroke-miterlimit:10;stroke-dasharray:none;stroke-opacity:0.470588"
                   id="path272" /></g></g></g></g></g><g
         id="g282"><g
           id="g284" /><g
           id="g298"><g
             clip-path="url(#clipPath288)"
             id="g296"><g
               id="g294"><g
                 id="g292"><path
                   d="m 144.066,27.234 -0.304,0.164 -0.246,0.219 -0.364,0.223 -0.125,0.273 -0.117,0.332 v 0.325 l 0.363,0.168 0.305,0.109 0.367,0.164 0.367,-0.055 0.364,-0.054 0.183,-0.332 0.184,-0.383 0.062,-0.438 0.122,-0.383 -0.368,-0.273 h -0.429"
                   style="fill:none;stroke:#008000;stroke-width:8.5;stroke-linecap:round;stroke-linejoin:round;stroke-miterlimit:10;stroke-dasharray:none;stroke-opacity:0.470588"
                   id="path290" /></g></g></g></g></g></g></g></svg>
