<?xml version="1.0" encoding="UTF-8" standalone="no"?>
<!-- Created with Inkscape (http://www.inkscape.org/) -->

<svg
   version="1.1"
   id="svg2"
   xml:space="preserve"
   width="977.20795"
   height="271.3894"
   viewBox="0 0 977.20795 271.3894"
   sodipodi:docname="mellin.svg"
   inkscape:version="1.1.2 (0a00cf5339, 2022-02-04)"
   xmlns:inkscape="http://www.inkscape.org/namespaces/inkscape"
   xmlns:sodipodi="http://sodipodi.sourceforge.net/DTD/sodipodi-0.dtd"
   xmlns="http://www.w3.org/2000/svg"
   xmlns:svg="http://www.w3.org/2000/svg"><defs
     id="defs6" /><sodipodi:namedview
     id="namedview4"
     pagecolor="#ffffff"
     bordercolor="#666666"
     borderopacity="1.0"
     inkscape:pageshadow="2"
     inkscape:pageopacity="0.0"
     inkscape:pagecheckerboard="0"
     showgrid="false"
     inkscape:zoom="1.3108776"
     inkscape:cx="488.22255"
     inkscape:cy="135.40547"
     inkscape:window-width="1920"
     inkscape:window-height="1057"
     inkscape:window-x="0"
     inkscape:window-y="23"
     inkscape:window-maximized="1"
     inkscape:current-layer="g8" /><g
     id="g8"
     inkscape:groupmode="layer"
     inkscape:label="mellin"
     transform="matrix(1.3333333,0,0,1.3333333,0,2.7847352e-6)"><g
       id="g10"><g
         id="g12"><path
           d="m 51.859,55.758 -0.214,-0.067 -0.29,-0.031 -0.183,0.031 0.398,-0.031 0.364,-0.031 h 3.918 l 0.656,0.031 h 0.722 l 0.727,0.031 0.762,-0.031 h 0.871 l 0.98,-0.066 1.016,-0.063 1.125,-0.101 1.199,-0.16 1.195,-0.133 1.27,-0.164 1.309,-0.196 1.304,-0.195 1.344,-0.195 1.379,-0.262 1.414,-0.195 1.418,-0.196 1.449,-0.132 1.418,-0.098 1.485,-0.066 1.488,-0.063 1.562,-0.066 1.559,-0.067 1.523,-0.031 1.414,-0.035 h 1.383 l 1.379,-0.031 h 6.676 l 1.234,-0.032 h 1.235 l 1.195,-0.031 h 3.445 l 1.055,0.031 1.09,0.063 1.051,0.066 1.015,0.067 1.016,0.097 1.015,0.032 1.055,0.066 1.16,0.031 1.16,0.035 1.125,0.032 1.125,0.035 1.016,0.031 0.981,0.066 0.945,0.063 0.941,0.066 0.946,0.035 0.941,0.032 0.945,0.031 h 2.793 l 0.91,0.031 0.872,0.035 0.867,0.032 0.836,0.035 0.836,0.031 0.832,0.066 0.8,0.063 0.832,0.066 0.836,0.032 0.871,0.035 0.872,0.031 0.871,0.035 0.871,0.063 0.871,0.035 0.832,0.062 0.801,0.035 0.832,0.067 0.8,0.062 0.836,0.067 0.832,0.066 0.801,0.031 0.688,0.032 0.547,0.035 h 1.015 l 0.18,0.031"
           style="fill:none;stroke:#808080;stroke-width:0.516858;stroke-linecap:round;stroke-linejoin:round;stroke-miterlimit:10;stroke-dasharray:6, 3;stroke-dashoffset:0;stroke-opacity:1"
           id="path14" /></g><g
         id="g16"><path
           d="m 51.316,49.75 0.039,0.195 h 1.524 l 0.289,-0.035 0.254,-0.062 0.254,-0.067 0.363,-0.164 0.289,-0.195 0.363,-0.195 0.364,-0.231 0.328,-0.226 0.289,-0.262 0.254,-0.328 0.289,-0.293 0.293,-0.391 0.289,-0.359 0.328,-0.391 0.254,-0.426 0.25,-0.425 0.219,-0.457 0.254,-0.458 0.328,-0.457 0.289,-0.488 0.328,-0.523 0.215,-0.524 0.293,-0.523 0.289,-0.621 0.328,-0.653 0.398,-0.75 0.399,-0.785 0.363,-0.816 0.363,-0.715 0.364,-0.723 0.324,-0.683 0.367,-0.688 0.359,-0.719 0.403,-0.75 0.359,-0.785 0.363,-0.816 0.293,-0.75 0.289,-0.75 0.219,-0.656 0.254,-0.617 0.508,-1.243 0.219,-0.621 0.214,-0.586 0.219,-0.621 0.11,-0.586 0.144,-0.523 0.109,-0.492 0.18,-0.457 0.145,-0.422 0.183,-0.426 0.219,-0.426 0.145,-0.426 0.218,-0.39 0.145,-0.426 0.254,-0.422 0.289,-0.492 0.289,-0.524 0.328,-0.519 0.289,-0.492 0.293,-0.422 0.215,-0.36 0.254,-0.292 0.254,-0.262 0.218,-0.199 0.219,-0.196 0.219,-0.226 0.254,-0.196 0.144,-0.199 0.289,-0.262 0.473,-0.457 0.328,-0.226 0.215,-0.164 0.289,-0.195 0.184,-0.098 0.218,-0.164 0.469,-0.36 0.293,-0.23 0.219,-0.129 0.324,-0.195 0.254,-0.129 0.254,-0.199 0.328,-0.164 0.324,-0.192 0.219,-0.133 0.289,-0.129 0.219,-0.132 0.254,-0.032 0.328,-0.097 0.508,-0.133 0.254,-0.063 0.183,-0.035 0.215,-0.031 0.254,-0.031 h 0.438 l 0.214,0.031 0.184,0.031 h 0.289 l 0.254,0.035 0.328,0.063 0.359,0.133 0.438,0.195 0.18,0.066 0.148,0.129 0.254,0.133 0.215,0.129 0.254,0.227 0.402,0.23 0.18,0.098 0.218,0.164 0.219,0.129 0.18,0.133 0.144,0.16 0.184,0.132 0.219,0.196 0.359,0.328 0.219,0.293 0.144,0.164 0.329,0.262 0.179,0.164 0.145,0.129 0.183,0.195 0.289,0.328 0.11,0.195 0.144,0.196 0.254,0.195 0.184,0.195 0.254,0.231 0.179,0.195 0.219,0.227 0.18,0.199 0.219,0.226 0.218,0.196 0.215,0.23 0.258,0.196 0.469,0.359 0.472,0.359 0.508,0.328 0.293,0.161 0.18,0.101 0.324,0.094 0.184,0.066 0.179,0.067 0.219,0.066 0.219,0.063 0.473,0.101 0.253,0.031 0.18,0.032 0.254,0.035 0.328,0.031 h 0.508 l 0.219,-0.031 0.289,-0.035 0.254,-0.063 0.398,-0.164 0.18,-0.031 0.367,-0.199 0.18,-0.164 0.218,-0.196 0.215,-0.195 0.438,-0.391 0.215,-0.195 0.183,-0.199 0.219,-0.227 0.18,-0.195 0.183,-0.231 0.18,-0.226 0.219,-0.231 0.179,-0.195 0.219,-0.226 0.184,-0.262 0.215,-0.231 0.183,-0.324 0.18,-0.297 0.437,-0.718 0.215,-0.262 0.219,-0.293 0.145,-0.293 0.218,-0.262 0.145,-0.324 0.144,-0.328 0.219,-0.328 0.145,-0.328 0.183,-0.356 0.215,-0.328 0.145,-0.293 0.148,-0.359 0.145,-0.36 0.179,-0.39 0.145,-0.395 0.254,-0.391 0.218,-0.492 0.254,-0.422 0.254,-0.488 0.219,-0.461 0.219,-0.39 0.179,-0.36 0.219,-0.293 0.219,-0.359 0.219,-0.293 0.25,-0.328 0.218,-0.36 0.254,-0.328 0.254,-0.359 0.219,-0.324 0.289,-0.391 0.219,-0.363 0.289,-0.391 0.258,-0.359 0.289,-0.391 0.254,-0.262 0.179,-0.261 0.254,-0.227 0.145,-0.195 0.183,-0.231 0.145,-0.132 0.183,-0.161 0.254,-0.164 0.325,-0.23 0.179,-0.129 0.184,-0.133 0.328,-0.191 0.219,-0.102 0.324,-0.195 0.219,-0.098 0.324,-0.164 0.219,-0.062 0.218,-0.133 0.29,-0.129 0.292,-0.102 0.25,-0.093 0.329,-0.102 0.363,-0.098 0.324,-0.062 0.438,-0.098 0.328,-0.066 0.324,-0.067 0.328,-0.031 0.324,-0.066 0.328,-0.032 0.254,-0.035 h 0.289 l 0.293,-0.031 h 1.485 l 0.328,0.031 0.289,0.035 0.293,0.063 0.543,0.133 0.219,0.066 0.253,0.098 0.325,0.129 0.183,0.097 0.364,0.164 0.218,0.098 0.289,0.129 0.364,0.133 0.289,0.164 0.328,0.164 0.289,0.094 0.254,0.199 0.219,0.098 0.218,0.195 0.215,0.164 0.219,0.195 0.473,0.36 0.253,0.293 0.219,0.23 0.254,0.324 0.18,0.231 0.219,0.226 0.144,0.262 0.18,0.231 0.183,0.292 0.219,0.196 0.18,0.297 0.183,0.257 0.18,0.262 0.109,0.328 0.145,0.227 0.145,0.262 0.109,0.195 0.144,0.297 0.145,0.293 0.109,0.293 0.145,0.359 0.109,0.293 0.149,0.328 0.07,0.36 0.109,0.328 0.11,0.39 0.07,0.36 0.109,0.39 0.075,0.36 0.105,0.425 0.074,0.422 0.11,0.395 0.109,0.422 0.074,0.359 0.106,0.36 0.074,0.359 0.035,0.23 0.074,0.262 0.036,0.195 v 0.227 l 0.035,0.328 0.039,0.262 0.035,0.621 0.035,0.359 0.074,0.36 0.075,0.488 0.035,0.426 0.07,0.422 0.074,0.461 0.035,0.39 0.11,0.426 0.074,0.391 0.07,0.39 0.145,0.395 0.109,0.422 0.145,0.488 0.148,0.492 0.106,0.555 0.148,0.554 0.145,0.555 0.105,0.559 0.148,0.457 0.145,0.453 0.145,0.394 0.144,0.36 0.145,0.39 0.144,0.395 0.149,0.422 0.144,0.426 0.219,0.457 0.289,0.914 0.219,0.492 0.109,0.422 0.145,0.394 0.214,0.391 0.145,0.359 0.184,0.325 0.144,0.328 0.184,0.293 0.144,0.328 0.145,0.324 0.219,0.359 0.144,0.364 0.18,0.355 0.218,0.359 0.145,0.36 0.219,0.262 0.218,0.292 0.215,0.297 0.184,0.293 0.144,0.262 0.219,0.293 0.145,0.293 0.144,0.262 0.219,0.297 0.109,0.195 0.18,0.258 0.219,0.328 0.328,0.59 0.18,0.261 0.144,0.227 0.145,0.293 0.109,0.195 0.219,0.196 0.144,0.261 0.219,0.297 0.36,0.52 0.218,0.261 0.149,0.164 0.179,0.227 0.145,0.199 0.363,0.457 0.254,0.293 0.145,0.196 0.293,0.293 0.254,0.296 0.179,0.067 0.145,0.129 0.218,0.164 0.219,0.195 0.18,0.164 0.144,0.164 0.149,0.16 0.144,0.133 0.215,0.129 0.184,0.164 0.18,0.129 -0.254,0.066"
           style="fill:none;stroke:#ff8000;stroke-width:1.32525;stroke-linecap:round;stroke-linejoin:round;stroke-miterlimit:10;stroke-dasharray:none;stroke-opacity:1"
           id="path18" /></g><g
         id="g20"><path
           d="M 0.945,125.566 0.73,125.5 0.438,125.469 0.258,125.5 0.656,125.469 1.02,125.434 h 3.918 l 0.652,0.035 h 0.726 l 0.727,0.031 0.762,-0.031 h 0.871 l 0.98,-0.067 1.016,-0.062 1.125,-0.102 1.199,-0.16 1.195,-0.133 1.27,-0.164 1.309,-0.195 1.304,-0.195 1.344,-0.196 1.379,-0.261 1.414,-0.196 1.414,-0.199 1.453,-0.129 1.418,-0.098 1.484,-0.066 1.489,-0.062 1.562,-0.067 1.559,-0.066 1.523,-0.031 1.414,-0.036 h 1.379 l 1.383,-0.031 h 6.676 l 1.234,-0.031 h 1.231 l 1.199,-0.031 h 3.445 l 1.055,0.031 1.09,0.062 1.051,0.067 1.015,0.066 1.016,0.098 1.015,0.031 1.055,0.066 1.16,0.032 1.16,0.035 1.125,0.031 1.125,0.035 1.016,0.032 0.981,0.062 0.945,0.066 0.941,0.067 0.946,0.035 0.941,0.031 0.945,0.032 h 2.793 l 0.906,0.031 0.872,0.035 0.871,0.031 0.836,0.035 0.836,0.032 0.832,0.066 0.8,0.062 0.832,0.067 0.836,0.031 0.871,0.035 0.871,0.032 0.872,0.035 0.871,0.062 0.871,0.035 0.832,0.063 0.801,0.035 0.832,0.066 0.8,0.063 0.832,0.066 0.836,0.067 0.797,0.031 0.692,0.031 0.543,0.035 h 1.019 l 0.18,0.032"
           style="fill:none;stroke:#808080;stroke-width:0.516858;stroke-linecap:round;stroke-linejoin:round;stroke-miterlimit:10;stroke-dasharray:6, 3;stroke-dashoffset:0;stroke-opacity:1"
           id="path22" /></g><g
         id="g24"><path
           d="m 1.934,118.926 -0.149,0.265 0.582,0.043 0.442,0.086 0.582,0.047 0.632,0.086 0.731,0.043 0.875,0.043 1.023,0.043 1.02,0.047 1.023,-0.047 1.071,-0.086 1.07,-0.176 1.019,-0.261 1.122,-0.352 1.214,-0.437 1.313,-0.481 1.363,-0.57 1.41,-0.571 1.461,-0.613 1.41,-0.656 1.461,-0.609 1.411,-0.661 1.363,-0.656 1.359,-0.656 1.363,-0.703 1.364,-0.785 1.41,-0.789 1.461,-0.875 1.461,-0.918 1.457,-1.008 1.461,-1.051 1.461,-1.008 1.554,-1.051 1.559,-1.007 1.605,-1.051 1.555,-1.051 1.461,-1.094 1.457,-1.094 1.317,-1.14 1.363,-1.137 1.312,-1.183 1.313,-1.141 1.316,-1.137 1.262,-1.094 1.215,-1.05 1.219,-1.008 1.121,-1.004 1.066,-0.965 0.973,-0.922 0.976,-0.875 0.875,-0.875 0.875,-0.789 0.875,-0.742 0.778,-0.66 0.781,-0.613 0.73,-0.61 0.68,-0.527 0.684,-0.524 0.582,-0.394 0.582,-0.352 0.586,-0.304 0.535,-0.309 0.582,-0.305 0.535,-0.222 0.535,-0.258 0.488,-0.176 0.438,-0.223 0.488,-0.175 0.434,-0.129 0.441,-0.176 0.438,-0.086 0.437,-0.09 0.875,-0.086 h 1.41 l 0.438,0.043 0.488,0.043 0.731,0.133 0.386,0.219 0.442,0.176 0.437,0.218 0.387,0.262 0.488,0.133 0.387,0.172 0.488,0.265 0.34,0.219 0.391,0.262 0.386,0.351 0.731,0.614 0.344,0.347 0.238,0.395 0.246,0.484 0.293,0.395 0.195,0.48 0.289,0.438 0.293,0.48 0.196,0.481 0.289,0.484 0.195,0.48 0.246,0.481 0.293,0.527 0.191,0.481 0.196,0.527 0.195,0.438 0.098,0.437 0.144,0.438 0.149,0.437 0.191,0.527 0.391,0.961 0.289,0.528 0.195,0.566 0.246,0.57 0.192,0.614 0.101,0.613 0.145,0.613 0.144,0.571 0.145,0.523 0.148,0.484 0.098,0.524 0.144,0.48 0.196,0.528 0.195,0.57 0.144,0.566 0.196,0.614 0.097,0.57 0.149,0.57 0.191,0.524 0.196,0.527 0.144,0.481 0.149,0.437 0.097,0.395 0.094,0.394 0.148,0.305 0.145,0.351 0.098,0.262 0.097,0.309 0.196,0.523 0.195,0.395 0.144,0.218"
           style="fill:none;stroke:#ff8000;stroke-width:1.32525;stroke-linecap:round;stroke-linejoin:round;stroke-miterlimit:10;stroke-dasharray:none;stroke-opacity:1"
           id="path26" /></g><g
         id="g28"><path
           d="m 42.078,203.285 -0.215,-0.066 -0.293,-0.031 -0.179,0.031 0.398,-0.031 0.363,-0.032 h 3.918 l 0.657,0.032 h 0.722 l 0.727,0.031 0.762,-0.031 h 0.871 l 0.98,-0.067 1.016,-0.062 1.125,-0.102 1.199,-0.16 1.195,-0.133 1.27,-0.164 1.308,-0.195 1.305,-0.196 1.344,-0.195 1.379,-0.262 2.828,-0.39 1.453,-0.133 1.418,-0.098 1.484,-0.062 1.489,-0.067 1.562,-0.066 1.559,-0.066 1.523,-0.032 1.414,-0.031 h 1.379 l 1.383,-0.035 h 6.676 l 1.234,-0.031 h 1.234 l 1.196,-0.032 h 3.445 l 1.055,0.032 1.09,0.066 1.05,0.063 1.016,0.066 1.016,0.098 1.015,0.035 1.055,0.062 1.16,0.031 1.16,0.036 1.125,0.031 1.125,0.035 1.016,0.031 0.98,0.067 0.946,0.062 0.941,0.067 0.945,0.035 0.942,0.031 0.945,0.031 h 2.793 l 0.91,0.035 0.867,0.032 0.871,0.031 0.836,0.035 0.836,0.031 0.832,0.067 0.801,0.066 0.832,0.063 0.836,0.031 0.871,0.035 0.871,0.031 0.871,0.035 0.872,0.063 0.871,0.035 0.832,0.063 0.8,0.035 0.832,0.066 0.801,0.063 0.832,0.066 0.836,0.067 0.797,0.031 0.691,0.031 0.543,0.035 h 1.02 l 0.18,0.031"
           style="fill:none;stroke:#808080;stroke-width:0.516858;stroke-linecap:round;stroke-linejoin:round;stroke-miterlimit:10;stroke-dasharray:6, 3;stroke-dashoffset:0;stroke-opacity:1"
           id="path30" /></g><g
         id="g32"><path
           d="m 43.062,199.535 0.247,-0.219 0.386,-0.261 0.196,-0.176 0.437,-0.352 0.293,-0.175 0.34,-0.129 0.488,-0.219 0.438,-0.176 0.535,-0.219 0.531,-0.218 0.539,-0.176 0.629,-0.305 0.633,-0.308 0.633,-0.352 0.586,-0.395 0.582,-0.39 0.683,-0.395 0.633,-0.484 0.727,-0.524 0.73,-0.613 0.777,-0.699 0.735,-0.746 0.777,-0.789 0.778,-0.832 0.73,-0.918 0.777,-0.922 0.731,-1.004 0.73,-0.965 0.727,-1.004 0.633,-1.008 0.636,-1.007 0.582,-1.094 0.633,-1.098 0.535,-1.226 0.536,-1.313 0.484,-1.312 0.391,-1.27 0.437,-1.269 0.438,-1.141 0.39,-1.137 0.438,-1.093 0.437,-1.098 0.289,-1.137 0.395,-1.14 0.34,-1.18 0.339,-1.184 0.438,-1.183 0.484,-1.18 0.489,-1.141 0.582,-1.093 0.535,-0.961 0.488,-0.879 0.535,-0.875 0.582,-0.832 0.539,-0.875 0.535,-0.789 0.438,-0.567 0.289,-0.394 0.34,-0.352 0.344,-0.351 0.386,-0.438 0.489,-0.566 0.386,-0.528 0.438,-0.394 0.344,-0.352 0.289,-0.215 0.293,-0.132 0.437,-0.176 0.246,-0.133 0.293,-0.043 0.238,-0.09 0.247,-0.043 0.242,-0.039 h 0.293 l 0.242,-0.047 h 0.684 l 0.531,0.129 0.293,0.176 0.343,0.133 0.438,0.219 0.484,0.218 0.489,0.176 0.535,0.176 0.531,0.219 0.539,0.218 0.582,0.309 0.535,0.262 0.485,0.261 0.488,0.309 0.437,0.262 0.34,0.304 0.34,0.266 0.391,0.262 0.293,0.218 0.34,0.219 0.488,0.571 0.242,0.39 0.195,0.352 0.293,0.48 0.145,0.395 0.293,0.394 0.242,0.438 0.195,0.394 0.243,0.395 0.292,0.57 0.243,0.481 0.246,0.308 0.144,0.215 0.196,0.352 0.191,0.261 0.148,0.309 0.387,0.613 0.293,0.613 0.242,0.524 0.149,0.219 0.144,0.265 0.246,0.262 0.192,0.262 0.195,0.261 0.293,0.309 0.484,0.57 0.247,0.348 0.242,0.309 0.242,0.347 0.293,0.309 0.289,0.348 0.293,0.351 0.34,0.438 0.343,0.394 0.34,0.395 0.391,0.351 0.434,0.305 0.39,0.262 0.391,0.265 0.387,0.305 0.343,0.262 0.34,0.222 0.34,0.215 0.391,0.223 0.386,0.176 0.684,0.347 0.633,0.352 0.34,0.176 0.339,0.086 0.633,0.175 0.293,0.043 0.535,0.133 0.34,0.086 0.293,0.09 0.242,0.043 0.34,0.043 h 1.457 l 0.246,-0.043 h 0.582 l 0.539,-0.043 0.68,-0.09 0.68,-0.086 0.441,-0.047 0.387,-0.043 0.484,-0.043 0.391,-0.043 0.684,-0.043 h 1.214 l 0.34,0.043 0.293,0.043 0.535,0.133 0.289,0.086 0.34,0.09 0.586,0.215 0.293,0.222 0.387,0.219 0.293,0.176 0.293,0.215 0.39,0.308 0.192,0.176 0.441,0.262 0.34,0.394 0.387,0.305 0.39,0.352 0.196,0.304 0.34,0.399 0.144,0.304 0.246,0.176 0.094,0.305 0.148,0.262 0.243,0.265 0.144,0.305 0.199,0.176 0.192,0.351 0.195,0.219 0.148,0.305 0.29,0.308 0.195,0.305 0.293,0.57 0.144,0.395 0.196,0.305 0.195,0.394 0.191,0.395 0.149,0.394 0.191,0.395 0.293,0.656 0.195,0.351 0.293,0.657 0.391,0.609 0.242,0.442 0.242,0.347 0.196,0.485 0.195,0.437 0.145,0.391 0.195,0.527 0.148,0.437 0.192,0.442 0.246,0.437 0.34,0.786 0.144,0.394 0.098,0.309 0.144,0.48 0.247,0.438 0.144,0.304 0.195,0.176 0.196,0.309 0.289,0.48 0.097,0.266 0.196,0.433 0.242,0.438 0.148,0.266 0.192,0.351 0.195,0.172 0.148,0.266"
           style="fill:none;stroke:#ff8000;stroke-width:1.32525;stroke-linecap:round;stroke-linejoin:round;stroke-miterlimit:10;stroke-dasharray:none;stroke-opacity:1"
           id="path34" /></g><g
         id="g36"><path
           d="m 151.59,165.406 -0.219,-0.066 -0.289,-0.031 -0.184,0.031 0.399,-0.031 0.367,-0.036 h 3.918 l 0.652,0.036 h 0.727 l 0.723,0.031 0.765,-0.031 h 0.871 l 0.977,-0.067 1.019,-0.066 1.122,-0.098 1.199,-0.164 1.199,-0.129 1.269,-0.164 1.305,-0.195 1.309,-0.196 1.34,-0.195 1.379,-0.262 1.417,-0.199 1.415,-0.195 1.449,-0.129 1.418,-0.098 1.484,-0.066 1.488,-0.066 1.563,-0.063 1.558,-0.066 1.528,-0.032 1.414,-0.035 h 1.379 l 1.379,-0.031 h 6.675 l 1.235,-0.035 h 1.234 l 1.199,-0.031 h 3.446 l 1.051,0.031 1.089,0.066 1.055,0.067 1.016,0.066 1.015,0.098 1.016,0.031 1.051,0.066 1.16,0.032 1.164,0.035 2.25,0.062 1.016,0.035 0.98,0.063 0.941,0.066 0.946,0.067 0.941,0.031 0.945,0.031 0.942,0.035 h 2.797 l 0.906,0.032 0.871,0.035 0.871,0.031 0.832,0.035 0.836,0.031 0.836,0.063 0.797,0.066 0.836,0.067 0.832,0.031 0.871,0.035 0.875,0.031 0.867,0.032 0.871,0.066 0.871,0.031 0.836,0.067 0.797,0.035 0.836,0.062 0.797,0.067 0.836,0.066 0.832,0.067 0.801,0.031 0.687,0.031 0.547,0.031 h 1.016 l 0.183,0.036"
           style="fill:none;stroke:#808080;stroke-width:0.516858;stroke-linecap:round;stroke-linejoin:round;stroke-miterlimit:10;stroke-dasharray:6, 3;stroke-dashoffset:0;stroke-opacity:1"
           id="path38" /></g><g
         id="g40"><path
           d="m 151.887,157.219 0.265,-0.239 0.168,-0.48 0.133,-0.297 0.133,-0.328 0.199,-0.391 0.199,-0.449 0.2,-0.539 0.168,-0.598 0.199,-0.718 0.199,-0.809 0.234,-0.898 0.266,-0.989 0.297,-1.105 0.367,-1.109 0.332,-1.137 0.367,-1.137 0.364,-1.105 0.402,-1.11 0.43,-1.136 0.398,-1.168 0.469,-1.11 0.465,-1.137 0.464,-1.046 0.567,-1.02 0.566,-1.016 0.563,-0.957 0.601,-0.957 0.598,-0.898 0.598,-0.84 0.597,-0.777 0.567,-0.688 0.566,-0.66 0.563,-0.629 0.5,-0.539 0.5,-0.508 0.5,-0.418 0.464,-0.39 0.434,-0.36 0.496,-0.359 0.567,-0.359 0.566,-0.329 0.633,-0.328 0.664,-0.269 0.597,-0.301 0.633,-0.27 0.664,-0.238 0.664,-0.269 0.633,-0.239 0.668,-0.211 0.629,-0.21 0.664,-0.18 0.668,-0.117 0.664,-0.09 h 1.328 l 0.602,0.058 0.598,0.09 0.597,0.121 0.535,0.18 0.563,0.148 0.5,0.18 0.5,0.211 0.465,0.176 0.5,0.211 0.429,0.179 0.434,0.18 0.434,0.211 0.429,0.27 0.403,0.328 0.429,0.359 0.403,0.387 0.398,0.422 0.43,0.418 0.402,0.39 0.43,0.387 0.398,0.359 0.465,0.332 0.469,0.36 0.496,0.359 0.5,0.387 0.5,0.449 0.465,0.481 0.5,0.476 0.5,0.512 0.465,0.476 0.531,0.45 0.465,0.418 0.433,0.359 0.465,0.332 0.434,0.238 0.465,0.239 0.464,0.242 0.532,0.176 0.531,0.273 0.535,0.207 0.563,0.18 0.535,0.179 0.562,0.122 0.567,0.089 0.566,0.028 1.133,0.062 0.598,-0.031 h 0.562 l 0.566,-0.09 0.598,-0.09 0.602,-0.121 0.629,-0.179 0.632,-0.118 0.668,-0.179 0.664,-0.243 0.629,-0.179 0.7,-0.239 0.667,-0.207 0.665,-0.211 0.628,-0.269 0.633,-0.211 0.633,-0.18 0.664,-0.148 0.699,-0.09 0.7,-0.059 0.699,-0.062 0.699,-0.059 h 1.496 l 0.695,0.032 0.7,0.058 0.632,0.059 0.598,0.121 0.602,0.117 0.566,0.18 0.496,0.183 0.5,0.207 0.5,0.239 0.496,0.273 0.5,0.266 0.496,0.269 0.5,0.301 0.465,0.238 0.469,0.301 0.43,0.27 0.433,0.3 0.434,0.329 0.398,0.3 0.434,0.328 0.43,0.329 0.433,0.39 0.434,0.387 0.398,0.391 0.399,0.386 0.367,0.391 0.363,0.449 0.367,0.449 0.367,0.477 0.364,0.512 0.367,0.476 0.367,0.539 0.399,0.481 0.398,0.539 0.434,0.508 0.429,0.507 0.434,0.512 0.433,0.508 0.43,0.508 0.434,0.508 0.465,0.57 0.464,0.598 0.434,0.57 0.398,0.598 0.399,0.57 0.367,0.539 0.399,0.566 0.433,0.571 0.434,0.566 0.429,0.539 0.403,0.512 0.363,0.539 0.332,0.449 0.301,0.418 0.234,0.328 0.133,0.238 0.199,0.301 0.266,0.09"
           style="fill:none;stroke:#ff8000;stroke-width:1.32525;stroke-linecap:round;stroke-linejoin:round;stroke-miterlimit:10;stroke-dasharray:none;stroke-opacity:1"
           id="path42" /></g><g
         id="g44"><path
           d="m 158.031,91.902 -0.215,-0.066 -0.293,-0.031 -0.179,0.031 0.398,-0.031 0.363,-0.032 h 3.918 l 0.653,0.032 h 0.726 l 0.727,0.031 0.762,-0.031 h 0.871 l 0.98,-0.067 1.016,-0.062 1.125,-0.102 1.195,-0.16 1.199,-0.133 1.27,-0.164 1.305,-0.195 1.308,-0.195 1.344,-0.196 1.379,-0.261 2.828,-0.391 1.453,-0.133 1.414,-0.098 1.488,-0.062 1.489,-0.066 1.558,-0.067 1.563,-0.066 1.523,-0.032 1.414,-0.031 h 1.379 l 1.379,-0.035 h 6.68 l 1.23,-0.031 h 1.235 l 1.199,-0.031 h 3.445 l 1.055,0.031 1.086,0.066 1.054,0.063 1.016,0.066 1.016,0.098 1.015,0.035 1.055,0.062 1.16,0.032 1.16,0.035 1.125,0.031 1.125,0.035 1.016,0.031 0.98,0.067 0.942,0.062 0.945,0.067 0.945,0.035 0.942,0.031 0.945,0.031 h 2.793 l 0.906,0.036 1.743,0.062 0.836,0.035 0.835,0.032 0.833,0.066 0.8,0.066 0.832,0.063 0.836,0.031 0.871,0.035 0.871,0.031 0.872,0.036 0.871,0.066 0.871,0.031 0.832,0.063 0.801,0.035 0.832,0.066 0.8,0.063 0.832,0.066 0.836,0.067 0.797,0.031 0.692,0.031 0.543,0.035 h 1.015 l 0.184,0.032"
           style="fill:none;stroke:#808080;stroke-width:0.516858;stroke-linecap:round;stroke-linejoin:round;stroke-miterlimit:10;stroke-dasharray:6, 3;stroke-dashoffset:0;stroke-opacity:1"
           id="path46" /></g><g
         id="g48"><path
           d="m 158.77,87.18 0.199,-0.207 0.398,-0.121 0.469,-0.18 0.23,-0.09 0.266,-0.09 0.402,-0.18 0.266,-0.058 0.363,-0.152 0.332,-0.149 0.367,-0.211 0.301,-0.117 0.266,-0.09 0.332,-0.18 0.234,-0.121 0.297,-0.121 0.301,-0.148 0.297,-0.149 0.367,-0.179 0.332,-0.149 0.301,-0.179 0.332,-0.18 0.367,-0.211 0.399,-0.18 0.433,-0.179 0.43,-0.211 0.465,-0.207 0.468,-0.27 0.43,-0.242 0.434,-0.328 0.433,-0.297 0.364,-0.301 0.367,-0.301 0.332,-0.297 0.332,-0.3 0.332,-0.27 0.336,-0.297 0.297,-0.269 0.3,-0.301 0.266,-0.328 0.297,-0.332 0.269,-0.328 0.297,-0.36 0.469,-0.656 0.531,-0.719 0.297,-0.39 0.301,-0.391 0.301,-0.387 0.297,-0.39 0.3,-0.391 0.297,-0.387 0.301,-0.418 0.332,-0.418 0.332,-0.39 0.367,-0.391 0.332,-0.359 0.332,-0.387 0.368,-0.359 0.363,-0.391 0.402,-0.391 0.332,-0.417 0.399,-0.418 0.367,-0.418 0.367,-0.422 0.363,-0.356 0.368,-0.39 0.363,-0.329 0.398,-0.269 0.336,-0.301 0.363,-0.211 0.399,-0.179 0.367,-0.18 0.398,-0.207 0.403,-0.153 0.363,-0.207 0.399,-0.152 0.367,-0.09 0.398,-0.179 0.367,-0.086 0.332,-0.121 0.332,-0.09 0.301,-0.063 0.297,-0.058 0.301,-0.059 0.367,-0.09 0.297,-0.058 0.266,-0.032 0.3,-0.031 0.434,-0.027 h 0.266 l 0.296,-0.032 h 1.832 l 0.266,0.032 0.332,0.058 0.301,0.032 0.266,0.058 0.531,0.09 0.301,0.09 0.23,0.09 0.367,0.148 0.496,0.211 0.301,0.117 0.266,0.063 0.332,0.148 0.433,0.238 0.266,0.18 0.266,0.121 0.367,0.211 0.265,0.18 0.301,0.18 0.297,0.238 0.27,0.18 0.296,0.238 0.266,0.238 0.301,0.211 0.297,0.242 0.301,0.238 0.3,0.18 0.266,0.238 0.266,0.208 0.265,0.179 0.266,0.242 0.301,0.239 0.332,0.211 0.23,0.269 0.301,0.238 0.531,0.45 0.336,0.211 0.266,0.238 0.398,0.301 0.297,0.238 0.566,0.449 0.266,0.211 0.301,0.207 0.367,0.238 0.332,0.243 0.363,0.179 0.301,0.239 0.332,0.179 0.332,0.211 0.301,0.207 0.367,0.242 0.332,0.266 0.332,0.242 0.363,0.297 0.403,0.211 0.398,0.238 0.434,0.211 0.43,0.211 0.464,0.238 0.469,0.18 0.496,0.18 0.469,0.179 0.496,0.18 0.434,0.18 0.464,0.207 0.434,0.242 0.43,0.18 0.5,0.238 0.433,0.18 0.465,0.238 0.465,0.211 0.5,0.148 0.465,0.211 0.5,0.121 0.5,0.149 0.496,0.18 0.5,0.121 0.5,0.117 0.496,0.18 0.535,0.148 0.531,0.121 0.497,0.211 0.5,0.148 1,0.36 0.496,0.148 0.535,0.18 0.496,0.18 0.5,0.152 0.465,0.117 0.469,0.149 0.496,0.121 0.5,0.09 0.496,0.121 0.535,0.089 0.531,0.118 0.531,0.09 0.536,0.093 0.531,0.117 0.531,0.09 0.566,0.09 0.532,0.09 0.531,0.059 0.465,0.062 0.5,0.09 0.5,0.059 0.465,0.058 0.5,0.09 0.496,0.062 0.5,0.059 0.531,0.059 0.5,0.058 0.531,0.094 0.531,0.059 0.5,0.058 0.536,0.063 0.464,0.027 0.465,0.031 0.43,0.059 0.469,0.031 0.929,0.117 0.465,0.063 0.434,0.058 0.465,0.063 0.398,0.027 0.399,0.031 0.367,0.028 0.367,0.031 h 1.363 l -0.301,0.27"
           style="fill:none;stroke:#ff8000;stroke-width:1.32525;stroke-linecap:round;stroke-linejoin:round;stroke-miterlimit:10;stroke-dasharray:none;stroke-opacity:1"
           id="path50" /></g><g
         id="g52"><path
           d="m 477.004,88.91 0.305,-0.09 0.402,0.047 0.504,0.133 0.601,0.363 0.504,0.543 0.602,0.68 0.605,0.906 0.602,1.039 0.555,1.223 0.554,1.266 0.5,1.316 0.403,1.312 0.406,1.313 0.301,1.355 0.25,1.45 0.254,1.445 0.097,1.449 0.153,1.496 0.101,2.805 v 2.625 l -0.051,1.223 -0.05,1.132 -0.051,1.086 -0.102,0.907 -0.097,0.765 -0.102,0.68 -0.152,0.59 -0.149,0.59 -0.203,0.586 -0.25,0.453 -0.203,0.363 -0.301,0.227 -0.351,-0.184 -0.254,-0.406 -0.149,-0.317 -0.254,-0.406 -0.199,-0.363 -0.051,-0.317"
           style="fill:none;stroke:#000000;stroke-width:0.778596;stroke-linecap:round;stroke-linejoin:round;stroke-miterlimit:10;stroke-dasharray:none;stroke-opacity:1"
           id="path54" /></g><g
         id="g56"><path
           d="m 469.664,119.191 -0.203,0.227 0.504,-0.137 0.402,-0.183 0.504,-0.18 0.301,-0.09 0.351,-0.137 h 0.305 l 0.551,-0.132 0.402,-0.094"
           style="fill:none;stroke:#000000;stroke-width:0.778596;stroke-linecap:round;stroke-linejoin:round;stroke-miterlimit:10;stroke-dasharray:none;stroke-opacity:1"
           id="path58" /></g><g
         id="g60"><path
           d="m 471.574,123.129 -0.051,-0.274 -0.05,-0.269 -0.2,-0.5 -0.203,-0.633 -0.3,-0.769 -0.352,-0.95 -0.301,-1.086 -0.301,-1.179 -0.203,-1.129 -0.25,-1.133 -0.101,-0.996 -0.051,-0.906 -0.051,-0.77 v -0.676 l 0.102,-0.589 0.101,-0.543 0.199,-0.407 0.204,-0.273 0.3,-0.18 0.403,-0.09 0.453,-0.047 h 0.453 l 0.402,0.09 0.352,0.137 0.402,0.316 0.25,0.18 0.153,0.453 -0.051,0.41 -0.051,0.454"
           style="fill:none;stroke:#000000;stroke-width:0.778596;stroke-linecap:round;stroke-linejoin:round;stroke-miterlimit:10;stroke-dasharray:none;stroke-opacity:1"
           id="path62" /></g><g
         id="g64"><path
           d="m 451.004,130.191 -0.098,0.27 -0.051,-0.723 0.149,-0.769 0.254,-1.09 0.301,-1.223 0.453,-1.492 0.453,-1.629 0.652,-1.855 0.707,-2.129 0.805,-2.215 0.851,-2.219 0.809,-2.129 0.551,-1.808 0.504,-1.45 0.25,-1.175 0.148,-0.86 0.106,-0.636 -0.051,-0.77 -0.102,-0.269 -0.25,0.542 -0.152,0.633 -0.102,0.907 -0.097,0.906 -0.051,0.992 -0.051,0.953 -0.051,0.949 0.051,0.86 0.25,0.726 0.301,0.586 0.305,0.41 0.504,0.274 0.449,0.133 h 0.453 l 0.601,-0.09 0.454,-0.274 0.503,-0.453 0.504,-0.586 0.454,-0.769 0.402,-0.907 0.402,-1.042 0.352,-1.176 0.301,-1.313 0.3,-1.265 0.203,-1.27 0.149,-1.039 0.051,-0.812 0.05,-0.5 -0.148,0.859 -0.102,0.953 -0.05,1.129 -0.051,1.176 -0.051,1.222 v 1.176 l 0.051,1.09 0.101,0.992 0.149,0.86 0.203,0.726 0.152,0.496 0.149,0.321 0.152,0.316 -0.152,-0.363 -0.149,-0.317 -0.152,-0.273 -0.102,-0.27"
           style="fill:none;stroke:#000000;stroke-width:0.778596;stroke-linecap:round;stroke-linejoin:round;stroke-miterlimit:10;stroke-dasharray:none;stroke-opacity:1"
           id="path66" /></g><g
         id="g68"><path
           d="m 444.719,113.441 -0.098,0.59 -0.101,0.586 -0.153,0.68 -0.25,0.859 -0.203,0.77 -0.199,0.679 -0.305,0.633 -0.199,0.543 -0.25,0.453"
           style="fill:none;stroke:#000000;stroke-width:0.778596;stroke-linecap:round;stroke-linejoin:round;stroke-miterlimit:10;stroke-dasharray:none;stroke-opacity:1"
           id="path70" /></g><g
         id="g72"><path
           d="m 413.941,89.816 -0.3,-0.136 -0.352,-0.09 -0.254,0.18 -0.199,0.32 -0.402,0.539 -0.356,0.773 -0.402,0.86 -0.449,1.039 -0.454,1.176 -0.453,1.222 -0.402,1.313 -0.402,1.359 -0.301,1.402 -0.25,1.539 -0.254,1.676 -0.149,1.766 -0.101,1.808 -0.102,1.766 -0.05,1.719 v 1.629 l 0.05,1.586 0.102,1.402 0.199,1.223 0.203,0.996 0.199,0.769 0.204,0.496 0.101,0.274 0.25,0.316 -0.453,-0.316 -0.352,-0.227 -0.3,-0.179 -0.403,-0.047"
           style="fill:none;stroke:#000000;stroke-width:0.778596;stroke-linecap:round;stroke-linejoin:round;stroke-miterlimit:10;stroke-dasharray:none;stroke-opacity:1"
           id="path74" /></g><g
         id="g76"><path
           d="m 395.734,106.562 h 2.063 l 0.504,0.043 0.554,0.047 0.454,0.047 0.453,0.043 0.351,0.047 h 0.352 l 0.351,0.047 -0.25,-0.32 -0.402,-0.18"
           style="fill:none;stroke:#000000;stroke-width:0.778596;stroke-linecap:round;stroke-linejoin:round;stroke-miterlimit:10;stroke-dasharray:none;stroke-opacity:1"
           id="path78" /></g><g
         id="g80"><path
           d="m 398.102,116.066 v -0.543 l -0.051,-0.496 -0.153,-0.589 -0.152,-0.723 -0.148,-0.863 -0.102,-0.95 -0.101,-1.039 -0.098,-1.086 -0.051,-1.222 -0.101,-1.313 -0.153,-1.449 -0.199,-1.586 -0.203,-1.582 -0.25,-1.676 -0.152,-1.582 -0.102,-1.496 -0.047,-1.445 V 95.02 l 0.047,-1.266 0.203,-1.223 0.199,-1.176 0.356,-1.043 0.453,-0.992 0.5,-0.859 0.656,-0.727 0.602,-0.496 0.605,-0.32 0.602,-0.133 0.504,0.133 0.554,0.227 0.5,0.41 0.403,0.543 0.402,0.539 0.25,0.59 0.203,0.543 0.152,0.41 0.047,0.316 0.051,0.27 -0.051,0.273 -0.097,0.453 -0.203,0.449"
           style="fill:none;stroke:#000000;stroke-width:0.778596;stroke-linecap:round;stroke-linejoin:round;stroke-miterlimit:10;stroke-dasharray:none;stroke-opacity:1"
           id="path82" /></g><g
         id="g84"><path
           d="m 385.676,141.957 h 0.453 l 0.453,-0.043 0.453,-0.047 0.606,-0.094 0.351,-0.089 0.453,-0.043 0.403,-0.09 0.703,-0.09"
           style="fill:none;stroke:#000000;stroke-width:0.778596;stroke-linecap:round;stroke-linejoin:round;stroke-miterlimit:10;stroke-dasharray:none;stroke-opacity:1"
           id="path86" /></g><g
         id="g88"><path
           d="m 387.641,144.898 -0.051,-0.316 -0.051,-0.363 -0.051,-0.496 -0.101,-0.59 -0.102,-0.543 -0.148,-0.633 -0.102,-0.637 -0.101,-0.629 -0.098,-0.636 -0.051,-0.676 v -1.223 l 0.051,-0.636 0.098,-0.586 0.152,-0.59 0.199,-0.586 0.153,-0.543 0.152,-0.363 0.148,-0.407 0.051,-0.273 0.203,-0.363 0.352,-0.047 0.402,0.32 0.199,0.316 0.203,0.454 0.301,0.453 0.153,0.316 0.148,0.406 0.152,0.317 0.051,0.363 0.051,0.359 v 0.543"
           style="fill:none;stroke:#000000;stroke-width:0.778596;stroke-linecap:round;stroke-linejoin:round;stroke-miterlimit:10;stroke-dasharray:none;stroke-opacity:1"
           id="path90" /></g><g
         id="g92"><path
           d="m 365.812,155.719 -0.253,-0.274 0.203,-0.41 0.3,-0.633 0.555,-0.906 0.703,-1.129 0.805,-1.496 0.957,-1.762 1.004,-2.129 1.008,-2.308 1.008,-2.488 0.902,-2.493 0.855,-2.394 0.703,-2.176 0.555,-1.855 0.352,-1.629 0.25,-1.313 0.101,-1.039 0.051,-0.863 0.051,-0.813 v -0.316 l -0.102,0.269 -0.152,0.547 -0.148,0.86 -0.204,0.992 -0.148,1.09 -0.102,1.082 -0.101,1 -0.051,0.992 v 1.633 l 0.203,0.539 0.199,0.453 0.403,0.273 0.453,0.137 0.504,0.137 0.652,-0.047 0.707,-0.09 0.703,-0.316 0.703,-0.5 0.704,-0.676 0.656,-0.906 0.601,-0.953 0.453,-1.176 0.301,-1.36 0.25,-1.355 0.106,-1.359 0.097,-1.266 v -0.953 l -0.148,-0.813 -0.152,-0.632 -0.153,-0.411 -0.097,-0.269 -0.102,0.269 -0.051,0.543 -0.101,0.86 v 3.625 l 0.101,1.265 0.102,1.223 0.101,1.133 0.246,1.039 0.157,0.996 0.199,0.812 0.254,0.727 0.097,0.543 0.149,0.316 0.101,0.317 -0.199,-0.274 -0.504,-0.359"
           style="fill:none;stroke:#000000;stroke-width:0.778596;stroke-linecap:round;stroke-linejoin:round;stroke-miterlimit:10;stroke-dasharray:none;stroke-opacity:1"
           id="path94" /></g><g
         id="g96"><path
           d="m 357.062,127.203 -0.351,-0.137 -0.805,-0.179 -0.254,-0.184 -0.351,-0.586 -0.153,-0.5 -0.148,-0.543 -0.051,-0.722 -0.051,-0.77 0.153,-0.906 0.301,-1.043 0.402,-0.992 0.504,-0.953 0.551,-0.77 0.605,-0.59 0.602,-0.449 0.707,-0.317 0.703,-0.273 0.754,-0.137 0.855,-0.043 0.805,0.137 0.957,0.27 0.906,0.406 0.902,0.59 0.856,0.586 0.805,0.683 0.754,0.766 0.652,0.816 0.656,0.949 0.453,0.95 0.403,1.09 0.3,1.175 0.153,1.313 0.148,1.402 -0.148,1.539 -0.254,1.449 -0.453,1.493 -0.602,1.312 -0.754,1.223 -0.855,0.996 -0.907,0.859 -0.906,0.68 -0.906,0.543 -0.852,0.453 -0.804,0.316 -0.805,0.227 -0.754,0.137 -0.656,0.133 -0.602,-0.043 -0.402,-0.047 -0.305,-0.18 -0.199,-0.273 -0.101,-0.36 -0.051,-0.453 0.101,-0.496 0.102,-0.547 0.301,-0.543 0.402,-0.586 0.453,-0.543 0.555,-0.5 0.551,-0.406 0.554,-0.363 0.555,-0.27 0.551,-0.137 0.351,-0.136 0.403,-0.043 0.355,-0.047 0.551,-0.043 h 0.703 l 0.301,0.043 0.554,0.047 h 0.754"
           style="fill:none;stroke:#000000;stroke-width:0.778596;stroke-linecap:round;stroke-linejoin:round;stroke-miterlimit:10;stroke-dasharray:none;stroke-opacity:1"
           id="path98" /></g><g
         id="g100"><path
           d="m 351.984,105.297 h -0.304 l 0.304,-0.047 0.5,-0.09 0.758,-0.137 1.004,-0.136 1.258,-0.133 1.508,-0.094 1.711,-0.09 1.91,-0.09 2.012,-0.046 2.062,-0.043 h 3.973 l 1.859,0.043 1.762,0.183 1.656,0.18 1.461,0.18 1.359,0.23 1.055,0.133 0.957,0.183 1.207,0.18 0.352,0.09 0.3,0.043 -0.3,-0.133 -0.555,-0.18 -0.754,-0.183"
           style="fill:none;stroke:#000000;stroke-width:0.778596;stroke-linecap:round;stroke-linejoin:round;stroke-miterlimit:10;stroke-dasharray:none;stroke-opacity:1"
           id="path102" /></g><g
         id="g104"><path
           d="m 358.922,77.504 0.152,-0.316 -0.051,-0.317 -0.05,-0.273 -0.051,-0.36 v -1.945 l 0.152,-0.5 0.149,-0.406 0.254,-0.453 0.25,-0.454 0.253,-0.359 0.301,-0.41 0.301,-0.406 0.352,-0.407 0.453,-0.316 0.504,-0.273 0.453,-0.227 0.551,-0.18 0.503,-0.136 0.504,-0.09 0.5,0.09 0.504,0.089 0.504,0.317 0.555,0.41 0.551,0.539 0.504,0.637 0.554,0.633 0.551,0.679 1.109,1.446 0.5,0.816 0.504,0.77 0.403,0.812 0.351,0.863 0.254,0.903 0.199,0.953 0.153,0.996 0.148,1.086 0.051,1.039 0.051,1.09 v 0.992 l -0.102,0.906 -0.199,0.906 -0.402,0.86 -0.504,0.859 -0.602,0.86 -0.707,0.722 -0.703,0.727 -0.703,0.633 -0.707,0.453 -0.653,0.453 -0.703,0.269 -0.605,0.141 -0.653,0.133 -0.656,-0.043 -0.551,-0.047 -0.503,-0.184 -0.301,-0.222 -0.352,-0.274 -0.25,-0.406 -0.203,-0.41 -0.199,-0.496 -0.203,-1.086 -0.051,-0.543 v -0.586 l 0.203,-0.547 0.199,-0.586 0.352,-0.5 0.402,-0.496 0.453,-0.406 0.555,-0.41 0.551,-0.317 0.605,-0.226 0.551,-0.18 0.555,-0.09 0.554,-0.047 0.551,0.047 0.555,0.09 0.601,0.18 0.555,0.183 0.555,0.18 0.453,0.18 0.352,0.136 0.402,0.274 0.25,0.179 -0.551,0.137"
           style="fill:none;stroke:#000000;stroke-width:0.778596;stroke-linecap:round;stroke-linejoin:round;stroke-miterlimit:10;stroke-dasharray:none;stroke-opacity:1"
           id="path106" /></g><g
         id="g108"><path
           d="m 282.273,105.859 -0.332,0.2 0.059,-0.594 0.219,-0.793 0.328,-1.086 0.273,-1.332 0.332,-1.535 0.328,-1.676 0.329,-1.781 0.328,-1.828 0.222,-1.829 0.219,-1.726 0.11,-1.633 0.054,-1.531 v -1.336 l -0.109,-1.137 -0.11,-0.988 -0.218,-0.692 -0.168,-0.492 -0.274,-0.347 -0.164,0.593 0.11,0.493 0.273,0.543 0.387,0.644 0.601,0.594 0.606,0.543 0.769,0.394 0.77,0.297 0.824,0.149 0.875,0.05 0.879,-0.148 0.879,-0.395 0.879,-0.542 0.879,-0.743 0.769,-0.793 0.766,-0.789 0.66,-0.742 0.605,-0.742 0.438,-0.59 0.273,-0.445 0.168,-0.297 -0.66,0.543 -0.551,0.789 -0.601,1.187 -0.551,1.582 -0.437,1.829 -0.278,1.878 -0.109,1.926 -0.055,1.731 0.113,1.578 0.27,1.387 0.441,1.136 0.497,0.84 0.328,0.594 0.382,0.391 0.387,0.199 0.656,0.148 h 0.442 l 0.273,-0.148 -0.054,-0.395"
           style="fill:none;stroke:#000000;stroke-width:0.85;stroke-linecap:round;stroke-linejoin:round;stroke-miterlimit:10;stroke-dasharray:none;stroke-opacity:1"
           id="path110" /></g><g
         id="g112"><path
           d="m 267.996,122.855 0.805,0.09 1.004,-0.09 1.558,-0.226 1.965,-0.406 2.16,-0.543 2.465,-0.586 2.664,-0.684 2.867,-0.676 2.969,-0.636 2.965,-0.539 2.867,-0.321 2.719,-0.222 2.516,-0.094 h 4.472 l 1.813,0.137 1.457,0.136 1.258,0.18 1.156,0.137 0.906,0.047 0.805,0.043 h 1.406 l 0.504,-0.043 0.301,-0.047"
           style="fill:none;stroke:#0a8ee6;stroke-width:1.22475;stroke-linecap:round;stroke-linejoin:round;stroke-miterlimit:4;stroke-dasharray:none;stroke-opacity:1"
           id="path114" /></g><g
         id="g116"><path
           d="m 421.887,97.195 0.101,0.317 0.2,0.496 0.253,0.5 0.301,0.586 0.453,0.816 0.504,0.813 0.602,0.953 0.605,0.996 0.754,0.992 0.754,1.043 0.906,1.086 0.907,1.043 0.902,0.949 0.906,0.949 0.856,0.86 0.754,0.816 0.753,0.633 0.653,0.543 0.453,0.363 0.453,0.274 0.301,0.132 0.304,0.09 v -1.222 l -0.05,-0.903 -0.153,-1.086 -0.152,-1.222 -0.148,-1.36 -0.102,-1.582 -0.102,-1.629 -0.097,-1.629 -0.051,-1.585 v -2.536 l 0.051,-0.949 0.047,-0.726 0.05,-0.496 v -0.364 0.41 l -0.05,0.36 v 0.316 l -0.047,0.453"
           style="fill:none;stroke:#0a8ee6;stroke-width:1.22475;stroke-linecap:round;stroke-linejoin:round;stroke-miterlimit:4;stroke-dasharray:none;stroke-opacity:1"
           id="path118" /></g><g
         id="g120"><path
           d="m 420.832,98.508 -0.355,-0.137 -0.2,0.359 -0.097,0.5 -0.106,0.77 -0.097,0.996 -0.149,1.223 -0.152,1.355 -0.153,1.449 -0.148,1.493 -0.152,1.496 -0.051,1.359 -0.051,1.219 -0.051,0.996 v 0.769 l 0.051,0.543 0.102,0.364 0.203,0.226 0.301,-0.406 0.05,-0.5 0.051,-0.723 0.047,-0.816 0.051,-0.949 0.203,-0.996 0.25,-0.996"
           style="fill:none;stroke:#0a8ee6;stroke-width:1.22475;stroke-linecap:round;stroke-linejoin:round;stroke-miterlimit:4;stroke-dasharray:none;stroke-opacity:1"
           id="path122" /></g><g
         id="g124"><path
           d="m 315.121,114.801 v 0.316 l 0.098,0.363 0.152,0.543 0.199,0.633 0.2,0.723 0.156,0.726 0.097,0.723 0.051,0.633 0.102,0.41 0.097,0.406 0.055,-0.363 -0.105,-0.633 -0.098,-0.859 -0.148,-0.953 -0.207,-0.86 -0.297,-0.812 -0.403,-0.727 -0.351,-0.632 -0.305,-0.497 -0.199,-0.316 -0.254,-0.273 0.555,0.136 0.554,0.18 0.7,0.316 0.757,0.364 0.856,0.363 0.902,0.453 0.957,0.359 1.055,0.274 1.109,0.406 1.156,0.317 1.208,0.363 1.257,0.363 1.157,0.316 1.054,0.407 0.957,0.316 0.754,0.317 0.653,0.273 0.402,0.18 0.254,0.179 -0.102,0.274 -0.402,0.226 -0.703,0.227 -1.008,0.359 -1.156,0.227 -1.356,0.183 -1.41,0.18 -1.457,0.227 -1.461,0.226 -1.406,0.36 -1.309,0.5"
           style="fill:none;stroke:#0a8ee6;stroke-width:1.22475;stroke-linecap:round;stroke-linejoin:round;stroke-miterlimit:4;stroke-dasharray:none;stroke-opacity:1"
           id="path126" /></g><g
         id="g128"><path
           d="m 512.441,120.117 0.805,0.09 1.004,-0.09 1.559,-0.226 1.964,-0.411 2.161,-0.539 2.464,-0.589 2.664,-0.68 2.868,-0.68 2.968,-0.633 2.965,-0.543 2.867,-0.316 2.719,-0.227 2.516,-0.089 h 4.473 l 1.812,0.136 1.457,0.137 1.258,0.18 1.156,0.136 0.906,0.043 0.805,0.047 h 1.406 l 0.504,-0.047 0.301,-0.043"
           style="fill:none;stroke:#0a8ee6;stroke-width:1.22475;stroke-linecap:round;stroke-linejoin:round;stroke-miterlimit:4;stroke-dasharray:none;stroke-opacity:1"
           id="path130" /></g><g
         id="g132"><path
           d="m 559.566,112.062 v 0.313 l 0.098,0.363 0.152,0.543 0.2,0.637 0.203,0.723 0.152,0.722 0.098,0.727 0.051,0.633 0.101,0.406 0.102,0.41 0.05,-0.363 -0.105,-0.637 -0.098,-0.859 -0.148,-0.95 -0.203,-0.859 -0.301,-0.812 -0.402,-0.727 -0.352,-0.633 -0.305,-0.5 -0.199,-0.312 -0.254,-0.274 0.555,0.133 0.555,0.184 0.703,0.316 0.754,0.363 0.855,0.36 0.902,0.453 0.958,0.363 1.054,0.274 1.11,0.406 1.156,0.316 1.207,0.364 1.258,0.359 1.156,0.316 1.055,0.407 0.957,0.32 0.754,0.316 0.652,0.27 0.402,0.183 0.254,0.18 -0.101,0.274 -0.403,0.222 -0.703,0.231 -1.008,0.359 -1.156,0.227 -1.355,0.183 -1.411,0.18 -1.457,0.226 -1.461,0.223 -1.406,0.363 -1.308,0.496"
           style="fill:none;stroke:#0a8ee6;stroke-width:1.22475;stroke-linecap:round;stroke-linejoin:round;stroke-miterlimit:4;stroke-dasharray:none;stroke-opacity:1"
           id="path134" /></g><g
         id="g136"><path
           d="m 527.539,106.492 -0.328,0.199 0.055,-0.593 0.218,-0.793 0.328,-1.086 0.278,-1.332 0.328,-1.532 0.328,-1.679 0.332,-1.781 0.328,-1.829 0.219,-1.828 0.219,-1.726 0.113,-1.633 0.055,-1.531 v -1.336 l -0.11,-1.137 -0.109,-0.988 -0.219,-0.688 -0.168,-0.496 -0.273,-0.344 -0.164,0.59 0.109,0.496 0.274,0.543 0.386,0.641 0.602,0.594 0.601,0.543 0.77,0.394 0.773,0.297 0.821,0.148 0.879,0.051 0.878,-0.148 0.879,-0.395 0.879,-0.543 0.875,-0.742 0.77,-0.789 0.769,-0.793 0.657,-0.742 0.605,-0.738 0.442,-0.594 0.273,-0.445 0.164,-0.297 -0.656,0.543 -0.551,0.793 -0.606,1.183 -0.546,1.582 -0.442,1.828 -0.273,1.879 -0.11,1.926 -0.054,1.731 0.109,1.578 0.274,1.386 0.441,1.137 0.492,0.84 0.332,0.594 0.383,0.39 0.383,0.2 0.66,0.148 h 0.441 l 0.274,-0.148 -0.055,-0.395"
           style="fill:none;stroke:#000000;stroke-width:0.85;stroke-linecap:round;stroke-linejoin:round;stroke-miterlimit:10;stroke-dasharray:none;stroke-opacity:1"
           id="path138" /></g><g
         id="g140"><path
           d="m 546.906,81.551 0.387,0.148 0.602,0.047 h 1.593"
           style="fill:none;stroke:#000000;stroke-width:0.85;stroke-linecap:round;stroke-linejoin:round;stroke-miterlimit:10;stroke-dasharray:none;stroke-opacity:1"
           id="path142" /></g><g
         id="g144"><path
           d="m 554.539,79.426 v 0.543 l 0.055,0.492 0.054,0.594 0.055,0.84 v 2.667"
           style="fill:none;stroke:#000000;stroke-width:0.85;stroke-linecap:round;stroke-linejoin:round;stroke-miterlimit:10;stroke-dasharray:none;stroke-opacity:1"
           id="path146" /></g><g
         id="g148"><path
           d="m 614.219,139.609 -0.11,-0.347 -0.109,-0.293 -0.223,-0.25 -0.269,0.148 -0.113,0.395 0.054,0.394 0.223,0.25 0.492,0.098 h 0.328 l 0.442,-0.594 0.054,-0.394 0.055,-0.543 -0.273,-0.2 -0.332,0.051 -0.165,0.395 -0.109,0.347 0.055,0.493 0.437,0.347 0.442,0.047 0.437,-0.148 0.387,-0.395 0.164,-0.297 -0.055,-0.441 -0.219,-0.399 -0.496,-0.347 -0.437,-0.196 -0.441,-0.05 -0.329,0.297 -0.109,0.496 0.055,0.543"
           style="fill:none;stroke:#808080;stroke-width:0.85;stroke-linecap:round;stroke-linejoin:round;stroke-miterlimit:10;stroke-dasharray:none;stroke-opacity:1"
           id="path150" /></g><g
         id="g152"><path
           d="m 627.945,139.164 0.551,0.348 0.328,0.097 0.328,-0.05 0.274,-0.2 0.054,-0.39 -0.164,-0.297 -0.218,0.394 0.054,0.395 0.274,0.195 0.386,-0.195 0.11,-0.492 0.055,-0.348 v -0.348 l -0.274,-0.195 -0.328,-0.101 -0.223,0.246 -0.218,0.449 v 0.441 l 0.273,0.496 0.438,0.098 0.277,-0.395 0.055,-0.343 0.054,-0.348 v -0.348 l -0.219,-0.296 -0.437,-0.247 -0.387,-0.097 -0.277,0.394 v 0.446 l 0.059,0.343 0.218,0.446 0.274,-0.149"
           style="fill:none;stroke:#808080;stroke-width:0.85;stroke-linecap:round;stroke-linejoin:round;stroke-miterlimit:10;stroke-dasharray:none;stroke-opacity:1"
           id="path154" /></g><g
         id="g156"><path
           d="m 644.965,139.066 0.219,0.344 h 0.386 l -0.058,-0.344 -0.27,-0.347 -0.551,-0.199 h -0.328 l -0.441,-0.047 -0.274,0.246 -0.054,0.593 0.164,0.543 0.492,0.196 0.496,0.152 0.547,-0.152 0.387,-0.196 0.437,-0.496 0.164,-0.293 0.059,-0.296 -0.059,-0.395 -0.547,-0.199 -0.273,0.297 -0.168,0.394 -0.109,0.297 0.058,0.445 0.27,0.149 0.332,-0.149 0.054,-0.297 v -0.445 l -0.109,-0.347 -0.328,-0.145 -0.387,-0.051 -0.164,0.348 v 0.344"
           style="fill:none;stroke:#808080;stroke-width:0.85;stroke-linecap:round;stroke-linejoin:round;stroke-miterlimit:10;stroke-dasharray:none;stroke-opacity:1"
           id="path158" /></g><g
         id="g160"><path
           d="m 662.148,139.262 -0.218,-0.246 h 0.824 l 0.328,-0.098 0.223,-0.297 -0.114,-0.445 -0.437,-0.149 -0.328,0.246 -0.114,0.497 v 0.445 l 0.278,0.344 0.328,0.097 0.328,-0.047 0.442,-0.097 0.273,-0.153 0.164,-0.543 0.164,-0.492 0.055,-0.492 -0.219,-0.348 -0.602,-0.199 -0.382,-0.148 -0.332,-0.051 h -0.438 l -0.441,0.695 -0.219,0.594 v 0.937 l 0.219,0.297 0.332,0.246 0.383,0.051 0.496,-0.051 0.328,-0.097 0.383,-0.199 0.273,-0.297 -0.219,-0.344"
           style="fill:none;stroke:#808080;stroke-width:0.85;stroke-linecap:round;stroke-linejoin:round;stroke-miterlimit:10;stroke-dasharray:none;stroke-opacity:1"
           id="path162" /></g><g
         id="g164"><path
           d="m 681.75,137.73 -0.109,-0.347 -0.332,-0.098 -0.329,0.098 0.11,0.347 0.219,-0.296 -0.438,0.148 -0.328,0.543 -0.055,0.297 0.11,0.348 0.218,0.296 0.442,0.098 h 0.547 l 0.55,-0.051 0.438,-0.195 0.273,-0.398 0.168,-0.344 v -0.446 l -0.332,-0.347 -0.547,-0.297 -0.441,-0.145 -0.328,-0.101 -0.277,0.246 -0.106,0.594 0.328,0.246"
           style="fill:none;stroke:#808080;stroke-width:0.85;stroke-linecap:round;stroke-linejoin:round;stroke-miterlimit:10;stroke-dasharray:none;stroke-opacity:1"
           id="path166" /></g><g
         id="g168"><path
           d="m 697.125,139.164 0.219,-0.594 0.383,0.051 h 0.441 l 0.164,-0.297 0.164,-0.398 0.055,-0.391 -0.055,-0.297 -0.441,-0.25 h -0.766 l -0.332,0.2 -0.219,0.394 -0.054,0.543 0.222,0.25 0.27,0.145 0.386,-0.098 0.165,-0.297 -0.055,-0.492 -0.219,-0.297 -0.328,0.098 0.051,0.347"
           style="fill:none;stroke:#808080;stroke-width:0.85;stroke-linecap:round;stroke-linejoin:round;stroke-miterlimit:10;stroke-dasharray:none;stroke-opacity:1"
           id="path170" /></g><g
         id="g172"><path
           d="m 715.352,137.781 -0.329,-0.199 -0.332,-0.098 -0.273,-0.148 -0.273,0.344 0.109,0.297 0.273,0.199 h 0.328 l 0.278,-0.149 0.164,-0.394 -0.055,-0.395 -0.219,-0.25 -0.386,-0.097 -0.164,0.297 v 0.394 l 0.437,0.344 0.551,0.101 0.605,-0.148 0.329,-0.297 -0.274,-0.246 -0.332,-0.051 h -0.383 l -0.218,0.348 0.109,0.344 0.328,0.148 -0.219,-0.344 -0.551,-0.246 -0.492,-0.101 h -0.437 l -0.168,0.296 0.113,0.395 0.328,0.348 0.383,0.199 0.387,0.098 h 0.492 l 0.492,-0.098 0.387,-0.348 0.441,-0.492 -0.058,-0.398 -0.164,-0.348 -0.383,-0.047 h -0.442 l -0.273,0.199"
           style="fill:none;stroke:#808080;stroke-width:0.85;stroke-linecap:round;stroke-linejoin:round;stroke-miterlimit:10;stroke-dasharray:none;stroke-opacity:1"
           id="path174" /></g><g
         id="g176"><path
           d="m 732.207,137.582 -0.273,-0.246 -0.223,-0.25 -0.383,0.152 -0.109,0.492 0.219,0.297 0.273,-0.394 0.059,-0.445 -0.059,-0.297 -0.438,-0.149 -0.382,0.246 -0.114,0.496 v 0.348 l 0.114,0.293 0.273,0.199 h 0.438 l 0.332,-0.101 0.273,-0.246 0.219,-0.442 0.054,-0.297 -0.164,-0.543 -0.769,-0.25 -0.438,-0.047 -0.273,0.196 -0.164,0.394 -0.113,0.395 -0.055,0.347 0.109,0.297 0.387,0.098 0.273,-0.199 0.165,-0.293 -0.219,-0.297 -0.164,0.297"
           style="fill:none;stroke:#808080;stroke-width:0.85;stroke-linecap:round;stroke-linejoin:round;stroke-miterlimit:10;stroke-dasharray:none;stroke-opacity:1"
           id="path178" /></g><g
         id="g180"><path
           d="m 612.844,107.242 -0.328,-0.097 -0.11,-0.297 0.332,-0.543 0.602,-0.594 0.551,-0.445 0.492,-0.395 0.715,-0.492 0.605,-0.445 0.602,-0.446 0.66,-0.496 0.656,-0.492 0.715,-0.492 0.769,-0.594 0.77,-0.543 0.77,-0.547 0.71,-0.492 0.715,-0.492 0.657,-0.449 0.609,-0.442 0.984,-0.89 0.278,-0.297 0.273,-0.297 0.383,-0.348 0.332,-0.246 0.219,-0.297 0.492,-0.297 0.273,-0.195"
           style="fill:none;stroke:#ff8000;stroke-width:1.97475;stroke-linecap:round;stroke-linejoin:round;stroke-miterlimit:10;stroke-dasharray:none;stroke-opacity:0.615686"
           id="path182" /></g><g
         id="g184"><path
           d="m 628.273,95.879 0.332,0.394 0.547,0.497 0.274,0.246 0.277,0.347 0.438,0.395 0.332,0.293 0.382,0.347 0.274,0.297 0.277,0.246 0.328,0.348 0.274,0.348 0.328,0.293 0.219,0.246 0.222,0.347 0.328,0.348 0.219,0.344 0.223,0.394 0.328,0.297 0.437,0.543 0.274,0.246 0.277,0.2 0.274,0.296 0.328,0.25 0.387,0.293 0.273,0.297 0.332,0.297 0.273,0.25 0.274,0.293 0.164,0.297 0.328,0.25 0.168,0.293 0.492,0.394 0.274,0.395 0.222,0.25 0.11,0.293 0.328,0.496 0.109,0.297 0.223,0.344 0.269,0.347 0.223,0.399 0.219,0.246 0.273,0.246 0.223,0.246 0.273,0.348 0.274,0.246 0.277,0.246 0.219,0.297 h 1.152 l 0.383,0.101 0.66,0.098 0.442,0.148 0.601,0.149 0.332,0.047 0.383,0.051 0.437,0.05 0.715,0.098 0.496,0.047 0.711,0.101 0.551,0.098 0.438,0.149 0.769,0.199 0.328,0.097 0.383,0.098 0.551,0.148 0.383,0.149 0.496,0.246 0.437,0.199 0.774,0.297 0.383,0.047 0.437,0.102 0.441,0.148 0.329,0.098 0.437,0.148 0.332,0.098 0.328,0.101 0.492,0.098 0.661,0.148 0.386,0.098 0.438,0.051 0.441,0.148 0.438,0.149 0.492,0.195 0.332,0.051 0.383,0.148 0.386,0.149 0.27,0.246 0.387,0.199 h 0.386 l 0.493,0.195 0.382,0.051 0.551,0.149 0.328,0.097 0.332,0.051 0.657,0.148 -0.274,0.2 -0.496,-0.2"
           style="fill:none;stroke:#ff8000;stroke-width:1.97475;stroke-linecap:round;stroke-linejoin:round;stroke-miterlimit:10;stroke-dasharray:none;stroke-opacity:0.615686"
           id="path186" /></g><g
         id="g188"><path
           d="m 665.445,116.137 0.438,-0.395 0.332,-0.246 0.273,-0.199 0.766,-0.492 0.332,-0.25 0.383,-0.246 0.328,-0.247 0.332,-0.148 0.328,-0.246 0.441,-0.199 0.383,-0.246 0.547,-0.348 0.442,-0.246 0.55,-0.348 0.492,-0.343 0.547,-0.297 0.606,-0.297 1.101,-0.492 1.204,-0.594 0.714,-0.297 0.661,-0.348 0.605,-0.297 0.602,-0.293 0.55,-0.347 0.547,-0.297 0.551,-0.293 0.328,-0.25 0.442,-0.246 0.382,-0.25"
           style="fill:none;stroke:#ff8000;stroke-width:1.97475;stroke-linecap:round;stroke-linejoin:round;stroke-miterlimit:10;stroke-dasharray:none;stroke-opacity:0.615686"
           id="path190" /></g><g
         id="g192"><path
           d="m 680.707,106.996 -0.332,0.199 -0.383,0.098 -0.164,0.344 v 0.347 l -0.109,0.297 -0.11,0.348 0.164,-0.496 0.055,-0.692 0.11,-0.543 0.167,-0.644 0.165,-0.692 0.164,-0.738 0.218,-0.695 0.219,-0.688 0.168,-0.695 0.219,-0.641 0.273,-0.644 0.219,-0.641 0.219,-0.644 0.219,-0.641 0.222,-0.691 0.164,-0.742 0.164,-0.739 0.278,-0.746 0.164,-0.738 0.273,-0.742 0.219,-0.739 0.109,-0.695 0.219,-0.641 0.168,-0.691 0.273,-0.644 0.274,-0.692 0.332,-0.691 0.269,-0.692 0.332,-0.742 0.274,-0.738 0.328,-0.742 0.277,-0.692 0.219,-0.691 0.277,-0.695 0.219,-0.688 0.219,-0.594 0.273,-0.593 0.164,-0.594 0.329,-0.543 0.168,-0.641 0.437,-1.187 0.273,-0.594 0.278,-0.543 0.656,-1.187 0.332,-0.59 0.383,-0.645 0.332,-0.594 0.437,-0.687 0.274,-0.695 0.273,-0.692 0.332,-0.64 0.219,-0.543 0.277,-0.497 0.106,-0.496 0.223,-0.441 0.218,-0.395 0.328,-0.89 0.223,-0.445 0.164,-0.497 0.164,-0.492 0.274,-0.492 0.218,-0.449 0.223,-0.442 0.219,-0.296 0.109,-0.348 0.164,-0.395 0.164,-0.343 0.164,-0.348 0.168,-0.293"
           style="fill:none;stroke:#ff8000;stroke-width:1.97475;stroke-linecap:round;stroke-linejoin:round;stroke-miterlimit:10;stroke-dasharray:none;stroke-opacity:0.615686"
           id="path194" /></g><g
         id="g196"><path
           d="m 696.957,65.293 0.387,0.395 0.218,0.394 0.383,0.348 0.387,0.394 0.328,0.344 0.442,0.398 0.382,0.395 0.219,0.246 0.332,0.25 0.328,0.246 0.219,0.297 0.332,0.246 0.27,0.297 0.332,0.297 0.382,0.297 0.387,0.297 0.328,0.296 0.332,0.247 0.328,0.347 0.383,0.293 0.387,0.297 0.383,0.348 0.383,0.293 0.277,0.347 0.328,0.2 0.164,0.343 0.277,0.344 0.329,0.25 0.328,0.297 0.328,0.246 0.383,0.297 0.445,0.297 0.27,0.148 0.441,0.395 0.437,0.297 0.387,0.199 0.274,0.246 0.273,0.195 0.277,0.297 0.274,0.199 0.219,0.344 0.273,0.297 0.273,0.148 0.278,0.2 0.273,0.148 0.387,0.344 0.273,0.148 0.328,0.199 0.438,0.247 0.332,0.148 0.219,0.246 0.218,-0.246 0.333,-0.297 0.437,-0.445 0.328,-0.344 0.551,-0.496 0.328,-0.395 0.387,-0.296 0.492,-0.493 0.496,-0.394 0.492,-0.445 0.496,-0.446 0.493,-0.496 0.437,-0.445 0.496,-0.442 0.496,-0.543 0.492,-0.546 0.606,-0.59 0.601,-0.645 0.497,-0.64 0.55,-0.645 0.547,-0.641 0.492,-0.64 0.496,-0.547 0.497,-0.543 0.328,-0.395 0.437,-0.445 0.332,-0.297 0.328,-0.344 0.328,-0.347 0.223,-0.246 0.274,-0.344 0.328,-0.496 0.218,-0.348 0.383,-0.394 0.387,-0.348 -0.328,0.051"
           style="fill:none;stroke:#ff8000;stroke-width:1.97475;stroke-linecap:round;stroke-linejoin:round;stroke-miterlimit:10;stroke-dasharray:none;stroke-opacity:0.615686"
           id="path198" /></g><g
         id="g200"><path
           d="m 614.438,108.285 v 0"
           style="fill:none;stroke:#ff8000;stroke-width:0.42;stroke-linecap:round;stroke-linejoin:round;stroke-miterlimit:10;stroke-dasharray:0.5, 3;stroke-dashoffset:0;stroke-opacity:0.615686"
           id="path202" /></g><g
         id="g204"><path
           d="m 612.559,108.621 -0.036,-0.305 0.239,-0.277"
           style="fill:none;stroke:#ff8000;stroke-width:0.42;stroke-linecap:round;stroke-linejoin:round;stroke-miterlimit:10;stroke-dasharray:0.5, 3;stroke-dashoffset:0;stroke-opacity:0.615686"
           id="path206" /></g><g
         id="g208"><path
           d="m 613.07,107.609 -0.238,0.305 -0.102,0.309 -0.035,0.461 -0.035,0.613 -0.031,0.648 -0.035,0.305 v 2.828 l 0.035,0.305 v 0.308 l 0.031,0.336 v 3.075 l 0.035,0.582 v 0.308 l 0.035,0.582 0.032,0.309 0.035,0.492 v 4.426 l 0.07,0.582 0.067,0.308 0.035,0.305 0.07,0.309 0.031,0.336 v 0.308 l 0.035,0.309 v 1.597 l -0.035,0.336 -0.031,0.555 -0.035,0.399 -0.102,0.675 -0.07,0.368 -0.035,0.308 v 0.43 l -0.035,0.551 -0.067,0.402 -0.101,0.461 -0.102,0.367 v 0.34 l 0.137,0.367 0.066,0.398 0.035,0.586 0.032,0.305 v 0.461 l 0.105,0.367 -0.035,-0.336"
           style="fill:none;stroke:#ff8000;stroke-width:0.42;stroke-linecap:round;stroke-linejoin:round;stroke-miterlimit:10;stroke-dasharray:0.5, 3;stroke-dashoffset:0;stroke-opacity:0.615686"
           id="path210" /></g><g
         id="g212"><path
           d="m 627,97.715 0.203,0.277 0.172,0.309 v 2.582 l 0.031,0.429 0.106,0.524 0.031,0.305 0.035,0.523 0.035,0.551 0.032,0.43 0.07,0.523 0.035,0.371 0.031,0.305 0.035,0.613 0.036,0.617 v 3.223 l 0.035,0.308 0.066,0.34 0.07,0.305 0.067,0.34 0.105,0.367 0.067,0.367 0.035,0.371 0.035,0.399 0.031,0.34 v 0.367 l 0.035,0.367 v 0.371 l 0.036,0.367 v 6.082 l -0.036,0.461 v 0.461 l -0.035,0.461 -0.031,0.524 -0.035,0.519 -0.07,0.984 -0.032,0.403 -0.07,0.734 v 0.34 l -0.035,0.305 v 0.863 l 0.07,0.582 0.067,0.336 0.105,0.461 0.066,0.402 0.036,0.399 0.066,0.398 0.07,0.524 0.032,0.398 0.07,0.461 0.035,0.398 0.031,0.309 v 0.34 l 0.035,0.336 0.137,0.492 0.137,0.367 0.101,0.309 0.036,0.304 v 0.985"
           style="fill:none;stroke:#ff8000;stroke-width:0.42;stroke-linecap:round;stroke-linejoin:round;stroke-miterlimit:10;stroke-dasharray:0.5, 3;stroke-dashoffset:0;stroke-opacity:0.615686"
           id="path214" /></g><g
         id="g216"><path
           d="m 642.289,111.355 -0.031,0.309 0.066,0.305 0.102,0.308 0.136,0.43 0.036,0.309 0.066,0.367 0.035,0.371 0.071,0.859 v 0.43 l 0.031,0.492 0.035,0.492 0.07,0.461 0.102,0.551 0.035,0.645 v 0.339 l 0.031,0.336 v 0.371 l 0.035,0.336 v 2.336 l 0.036,0.368 0.07,0.339 0.066,0.305 0.071,0.34 0.031,0.34 0.035,0.336 0.035,0.398 v 0.863 l -0.035,0.426 v 0.434 l -0.035,0.398 -0.031,0.43 v 0.43 l -0.036,0.429 v 0.461 l -0.035,0.43 v 0.922 l -0.035,0.461 v 2.89 l 0.035,0.426 v 0.402 l 0.035,0.368 v 0.34 l -0.035,0.55 -0.035,0.461 -0.031,0.34 -0.035,0.305 -0.035,0.429 -0.036,0.403 -0.035,0.398 -0.031,0.367 -0.035,0.34 -0.07,0.399 -0.102,0.308"
           style="fill:none;stroke:#ff8000;stroke-width:0.42;stroke-linecap:round;stroke-linejoin:round;stroke-miterlimit:10;stroke-dasharray:0.5, 3;stroke-dashoffset:0;stroke-opacity:0.615686"
           id="path218" /></g><g
         id="g220"><path
           d="m 681.066,110.191 -0.031,0.457 -0.035,0.493 v 0.554 l -0.035,0.551 v 2.059 l 0.035,0.461 v 0.492 l 0.035,0.554 0.031,0.583 v 0.644 l 0.036,0.645 v 0.675 l -0.036,0.676 v 0.707 l -0.031,0.707 -0.07,0.676 -0.07,0.617 -0.032,0.582 -0.07,0.551 -0.031,0.492 v 3.164 l 0.031,0.524 v 0.523 l 0.035,0.551 -0.035,0.555 v 0.582 l -0.031,0.586 -0.035,0.582 -0.036,0.523 -0.035,0.461 -0.031,0.461 -0.035,0.367 -0.035,0.371 -0.035,0.367 -0.032,0.336 v 3.258 l -0.035,0.551 v 0.492 l -0.035,0.309 -0.031,0.308 -0.035,0.336 -0.036,0.371 -0.101,-0.34 -0.035,-0.367 0.035,-0.523"
           style="fill:none;stroke:#ff8000;stroke-width:0.42;stroke-linecap:round;stroke-linejoin:round;stroke-miterlimit:10;stroke-dasharray:0.5, 3;stroke-dashoffset:0;stroke-opacity:0.615686"
           id="path222" /></g><g
         id="g224"><path
           d="m 696.531,66.781 -0.066,0.309 -0.035,0.43 -0.035,0.304 v 3.996 l -0.036,0.492 v 2.274 l -0.031,0.43 v 0.429 l -0.035,0.461 -0.035,0.43 -0.035,0.461 -0.067,0.461 -0.035,0.488 v 0.953 l -0.035,0.461 v 0.465 l -0.035,0.426 -0.031,0.461 -0.071,0.465 -0.066,0.488 -0.106,0.523 -0.066,0.524 -0.066,0.488 -0.071,0.523 v 3.872 l -0.035,0.523 v 0.488 l -0.031,0.524 -0.07,1.047 -0.036,0.55 -0.031,0.524 -0.035,0.523 -0.035,0.488 v 2.184 l -0.031,0.399 v 0.769 l -0.036,0.398 -0.035,0.461 -0.066,0.493 -0.035,0.523 -0.071,0.52 -0.031,0.492 v 1.472 l 0.066,0.586 0.036,0.305 0.035,0.371 0.031,0.367 0.035,0.371 0.071,0.399 0.031,0.461 v 0.492 l 0.035,0.551 v 3.687 l -0.035,0.645 v 5.347 l -0.031,0.735 v 10.199 l -0.036,0.555 v 4.761 l 0.036,0.493 v 0.461 l 0.031,0.398 v 0.398 l 0.035,0.368 v 0.371 l 0.035,0.429 v 2.52"
           style="fill:none;stroke:#ff8000;stroke-width:0.42;stroke-linecap:round;stroke-linejoin:round;stroke-miterlimit:10;stroke-dasharray:0.5, 3;stroke-dashoffset:0;stroke-opacity:0.615686"
           id="path226" /></g><g
         id="g228"><path
           d="m 712.746,81.926 -0.242,-0.215 0.137,-0.309 -0.032,0.434 -0.035,0.613 v 2.61 l 0.035,0.707 0.032,0.644 0.07,0.676 0.035,0.676 0.066,0.617 0.067,0.707 0.035,0.644 0.07,0.676 0.032,0.707 v 0.735 l 0.035,0.707 0.07,1.476 0.035,0.735 0.032,0.738 v 6.574 l -0.032,0.863 v 2.301 l 0.203,1.352 0.172,0.676 0.172,0.707 0.133,0.738 0.137,0.828 0.105,0.863 0.133,0.86 0.137,0.796 0.207,0.708 0.101,0.675 0.102,0.707 0.101,0.801 0.036,0.859 v 0.891 l -0.036,0.918 -0.031,0.895 -0.105,0.796 -0.102,0.77 -0.137,0.707 -0.136,0.676 -0.102,0.644 -0.066,0.676 v 1.414 l 0.066,0.676 0.07,0.676 0.067,0.644 0.137,0.614 0.101,0.554 0.137,0.551 0.137,0.555 0.066,0.551 0.035,0.523 v 0.523 l -0.035,0.551 v 0.524 l -0.031,0.554 -0.035,0.582 -0.036,0.493 -0.031,0.492 v 0.492 l 0.031,0.488 0.071,0.524 0.066,0.492 0.102,0.43 0.07,0.429 0.07,0.461 0.067,0.461 0.07,0.367 0.066,0.34 0.071,0.336 0.066,-0.367 0.035,-0.613"
           style="fill:none;stroke:#ff8000;stroke-width:0.42;stroke-linecap:round;stroke-linejoin:round;stroke-miterlimit:10;stroke-dasharray:0.5, 3;stroke-dashoffset:0;stroke-opacity:0.615686"
           id="path230" /></g><g
         id="g232"><path
           d="m 730.562,64.355 -0.238,-0.246 -0.136,0.278 v 0.429 l 0.035,0.52 0.035,0.434 v 4.023 l 0.031,0.676 0.035,0.707 0.067,0.734 0.035,0.77 v 0.8 l 0.035,0.86 v 1.933 l -0.035,1.075 -0.035,1.105 -0.067,1.078 -0.101,1.074 -0.071,0.954 -0.066,0.953 -0.035,0.949 v 1.844 l 0.035,0.922 0.066,0.921 0.106,0.985 0.066,0.98 0.102,1.016 0.07,1.074 0.066,1.047 0.036,1.074 v 1.074 l -0.036,1.106 -0.101,1.105 -0.137,1.168 -0.207,1.168 -0.168,1.137 -0.137,1.106 -0.101,1.105 -0.035,1.074 v 1.047 l 0.066,1.012 0.172,0.984 0.172,0.891 0.238,0.922 0.172,0.89 0.102,0.801 0.136,0.797 0.102,0.738 0.102,0.676 0.105,0.707 0.066,0.676 0.071,0.676 0.031,0.644 v 0.613 l 0.035,0.649 v 3.348 l -0.035,0.734 v 5.191 l 0.035,0.617 0.066,0.524 0.071,0.519 0.066,0.524 0.071,0.523 0.203,1.164 0.07,0.586 0.031,0.582 0.035,0.586 0.036,0.614 v 0.613 l 0.035,0.613 v 1.199 l -0.035,0.493 v 0.46 l -0.036,0.309 v 0.367"
           style="fill:none;stroke:#ff8000;stroke-width:0.42;stroke-linecap:round;stroke-linejoin:round;stroke-miterlimit:10;stroke-dasharray:0.5, 3;stroke-dashoffset:0;stroke-opacity:0.615686"
           id="path234" /></g><g
         id="g236"><path
           d="m 663.555,116.609 0.035,0.309 v 3.84 l -0.035,0.34 v 0.398 l -0.032,0.52 0.067,0.492 0.07,0.43 0.031,0.429 0.071,0.492 0.066,0.368 0.106,0.433 0.066,0.43 0.035,0.308 0.031,0.426 v 0.492 l 0.036,0.461 0.07,0.43 0.101,0.555 0.071,0.308 0.066,0.457 0.07,0.403 0.032,0.367 v 0.402 l 0.035,0.52 0.035,0.308 v 0.828 l -0.035,0.555 v 0.52 l -0.035,0.308 -0.032,0.645 v 0.859 l -0.035,0.524 -0.07,0.492 -0.102,0.551 -0.066,0.461 -0.035,0.433 -0.07,0.488 -0.036,0.34 -0.066,0.367 -0.102,0.34 -0.035,-0.586"
           style="fill:none;stroke:#ff8000;stroke-width:0.42;stroke-linecap:round;stroke-linejoin:round;stroke-miterlimit:10;stroke-dasharray:0.5, 3;stroke-dashoffset:0;stroke-opacity:0.615686"
           id="path238" /></g></g></g></svg>
