<?xml version="1.0" encoding="UTF-8" standalone="no"?>
<!-- Created with Inkscape (http://www.inkscape.org/) -->

<svg
   version="1.1"
   id="svg2"
   xml:space="preserve"
   width="672"
   height="480"
   viewBox="0 0 672 480"
   sodipodi:docname="3fns_Quad_MHOU.pdf"
   xmlns:inkscape="http://www.inkscape.org/namespaces/inkscape"
   xmlns:sodipodi="http://sodipodi.sourceforge.net/DTD/sodipodi-0.dtd"
   xmlns="http://www.w3.org/2000/svg"
   xmlns:svg="http://www.w3.org/2000/svg"><defs
     id="defs6"><clipPath
       clipPathUnits="userSpaceOnUse"
       id="clipPath20"><path
         d="M 77.16,15.77 H 493.199 V 306.852 H 77.16 Z"
         id="path18" /></clipPath><clipPath
       clipPathUnits="userSpaceOnUse"
       id="clipPath28"><path
         d="M 0,0 H 504 V 360 H 0 Z"
         id="path26" /></clipPath><clipPath
       clipPathUnits="userSpaceOnUse"
       id="clipPath160"><path
         d="M 77.16,15.77 H 493.199 V 306.852 H 77.16 Z"
         id="path158" /></clipPath><clipPath
       clipPathUnits="userSpaceOnUse"
       id="clipPath170"><path
         d="M 0,0 H 504 V 360 H 0 Z"
         id="path168" /></clipPath><clipPath
       clipPathUnits="userSpaceOnUse"
       id="clipPath182"><path
         d="m 77.16,190 h 416.039 v 1 H 77.16 Z"
         id="path180" /></clipPath><clipPath
       clipPathUnits="userSpaceOnUse"
       id="clipPath192"><path
         d="M 0,0 H 504 V 360 H 0 Z"
         id="path190" /></clipPath></defs><sodipodi:namedview
     id="namedview4"
     pagecolor="#ffffff"
     bordercolor="#666666"
     borderopacity="1.0"
     inkscape:pageshadow="2"
     inkscape:pageopacity="0.0"
     inkscape:pagecheckerboard="0" /><g
     id="g8"
     inkscape:groupmode="layer"
     inkscape:label="3fns_Quad_MHOU"
     transform="matrix(1.3333333,0,0,1.3333333,0,1.2e-5)"><g
       id="g10"><path
         d="M 77.16,15.77 H 493.199 V 306.852 H 77.16 Z"
         style="fill:#ffffff;fill-opacity:1;fill-rule:nonzero;stroke:none"
         id="path12" /></g><g
       id="g14"><g
         id="g16"
         clip-path="url(#clipPath20)"><g
           id="g22"><g
             id="g24" /><g
             id="g40"><g
               clip-path="url(#clipPath28)"
               id="g38"><g
                 id="g36"><path
                   d="m 69.098,-450.16 v 232.476 l 0.113,62.965 0.148,65.18 0.192,65.203 0.238,63.164 0.309,59.668 0.39,55.219 0.5,50.035 0.633,44.086 0.813,37.144 1.031,28.926 1.312,19.578 1.676,10.317 2.133,2.972 2.723,-1.808 3.464,-5.297 4.415,-8.777 5.628,-13.036 7.172,-19.269 9.137,-28.195 13.176,-41.664 13.172,-32.766 13.175,-21.59 13.176,-14.183 13.176,-9.086 13.176,-5.813 13.172,-4.16 13.175,-2.91 13.176,-2.281 13.176,-2.715 13.176,-0.012 13.172,1.215 13.175,0.527 13.176,3.711 13.176,5.449 13.176,6.41 13.176,5.813 13.171,4.434 13.176,5.277 13.176,7.551 13.176,8.031 13.176,3.629 13.171,4.371 13.176,0.359 13.176,2.559 13.176,0.598 13.176,-0.887 13.171,-0.524 13.176,-1.316 -13.176,-11.5 -13.171,-4.5 -13.176,-6.465 -13.176,-4.359 -13.176,-2.918 -13.176,-7.145 -13.171,-8.527 -13.176,-9.871 -13.176,-3.496 -13.176,-6.317 -13.176,-10.312 -13.171,-11.223 -13.176,-10.113 -13.176,-9.606 -13.176,-8.824 -13.176,-6.347 -13.175,-5.165 -13.172,-1.851 -13.176,0.226 -13.176,1.942 -13.176,4.262 -13.175,5.839 -13.172,8.055 -13.176,11.348 -13.176,15.844 -13.176,21.921 -13.175,28.258 -13.172,30.36 -13.176,29.382 -9.137,21.262 -7.172,16.664 -5.628,11.012 -4.415,4.57 -3.464,-2.508 -2.723,-10.32 -2.133,-18.008 -1.676,-24.328 -1.312,-29.711 -1.031,-35.652 -0.813,-42.867 -0.633,-50.825 -0.5,-58.562 -0.39,-65.32 -0.309,-70.664 -0.238,-74.59 -0.192,-77.457 -0.148,-79.852 z"
                   style="fill:#1e75b3;fill-opacity:0.2;fill-rule:nonzero;stroke:none"
                   id="path30" /><path
                   d="M 69.098,-1080.262 V 412.414 l 0.113,24.254 0.148,15.426 0.192,6.695 0.238,-1.793 0.309,-9.652 0.39,-16.528 0.5,-22.043 0.633,-25.711 0.813,-26.574 1.031,-21.765 1.312,-1.176 1.676,32.086 2.133,39.387 2.723,30.761 3.464,18.574 4.415,5.633 5.628,-7.828 7.172,-22.371 9.137,-38.176 13.176,-60.273 13.172,-55.117 13.175,-43.688 13.176,-31.492 13.176,-21.273 13.176,-13.977 13.172,-9.477 13.175,-6.5 13.176,-4.785 13.176,-4.472 13.176,-1.735 13.172,-0.238 13.175,-0.449 13.176,2.855 13.176,4.781 13.176,5.887 13.176,5.434 13.171,4.183 13.176,5.098 13.176,7.402 13.176,7.938 13.176,3.594 13.171,4.347 13.176,0.344 13.176,2.555 13.176,0.59 13.176,-0.887 13.171,-0.52 13.176,-1.32 -13.176,-11.5 -13.171,-4.5 -13.176,-6.465 -13.176,-4.363 -13.176,-2.926 -13.176,-7.16 -13.171,-8.551 -13.176,-9.91 -13.176,-3.586 -13.176,-6.465 L 348.273,114.5 335.102,103.031 321.926,92.539 308.75,82.406 295.574,72.918 282.398,65.707 269.223,59.566 256.051,56.262 242.875,54.77 l -13.176,0.183 -13.176,1.762 -13.175,2.246 -13.172,2.738 -13.176,3.184 -13.176,3.656 -13.176,4.613 -13.175,6.164 -13.172,8.004 -13.176,10.774 -9.137,11.281 -7.172,13.563 -5.628,16.218 -4.415,18.981 -3.464,21.363 -2.723,22.25 -2.133,18.406 -1.676,-2.562 -1.312,-50.461 -1.031,-86.344 -0.813,-106.59 -0.633,-120.617 -0.5,-130.641 -0.39,-137.066 -0.309,-139.988 -0.238,-139.543 -0.192,-135.965 -0.148,-129.606 z"
                   style="fill:#9ccae1;fill-opacity:0.2;fill-rule:nonzero;stroke:none"
                   id="path32" /><path
                   d="M 69.098,-1080.262 V 412.414 l 0.113,24.254 0.148,15.426 0.192,6.695 0.238,-1.793 0.309,-9.652 0.39,-16.528 0.5,-22.043 0.633,-25.711 0.813,-26.574 1.031,-21.765 1.312,-1.176 1.676,32.086 2.133,39.387 2.723,30.761 3.464,18.574 4.415,5.633 5.628,-7.828 7.172,-22.371 9.137,-38.176 13.176,-60.273 13.172,-55.117 13.175,-43.688 13.176,-31.492 13.176,-21.273 13.176,-13.977 13.172,-9.477 13.175,-6.5 13.176,-4.785 13.176,-4.472 13.176,-1.735 13.172,-0.238 13.175,-0.449 13.176,2.855 13.176,4.781 13.176,5.887 13.176,5.434 13.171,4.183 13.176,5.098 13.176,7.402 13.176,7.938 13.176,3.594 13.171,4.347 13.176,0.344 13.176,2.555 13.176,0.59 13.176,-0.887 13.171,-0.52 13.176,-1.32 -13.176,-11.5 -13.171,-4.5 -13.176,-6.465 -13.176,-4.363 -13.176,-2.926 -13.176,-7.16 -13.171,-8.551 -13.176,-9.91 -13.176,-3.586 -13.176,-6.465 L 348.273,114.5 335.102,103.031 321.926,92.539 308.75,82.406 295.574,72.918 282.398,65.707 269.223,59.566 256.051,56.262 242.875,54.77 l -13.176,0.183 -13.176,1.762 -13.175,2.246 -13.172,2.738 -13.176,3.184 -13.176,3.656 -13.176,4.613 -13.175,6.164 -13.172,8.004 -13.176,10.774 -9.137,11.281 -7.172,13.563 -5.628,16.218 -4.415,18.981 -3.464,21.363 -2.723,22.25 -2.133,18.406 -1.676,-2.562 -1.312,-50.461 -1.031,-86.344 -0.813,-106.59 -0.633,-120.617 -0.5,-130.641 -0.39,-137.066 -0.309,-139.988 -0.238,-139.543 -0.192,-135.965 -0.148,-129.606 z"
                   style="fill:none;stroke:#9ccae1;stroke-width:1;stroke-linecap:butt;stroke-linejoin:round;stroke-miterlimit:10;stroke-dasharray:none;stroke-opacity:0.2"
                   id="path34" /></g></g></g></g></g></g><g
       id="g42"><path
         d="m 153.578,306.852 v 3.5"
         style="fill:none;stroke:#000000;stroke-width:0.8;stroke-linecap:butt;stroke-linejoin:round;stroke-miterlimit:10;stroke-dasharray:none;stroke-opacity:1"
         id="path44" /><path
         d="m 151.102,319.32 c 0,-1.156 -0.063,-2.281 -0.579,-3.343 -0.562,-1.157 -1.562,-1.469 -2.25,-1.469 -0.812,0 -1.796,0.406 -2.312,1.562 -0.391,0.875 -0.531,1.75 -0.531,3.25 0,1.36 0.093,2.375 0.593,3.36 0.547,1.062 1.5,1.406 2.235,1.406 1.219,0 1.906,-0.734 2.312,-1.531 0.5,-1.047 0.532,-2.422 0.532,-3.235 z m -2.844,4.485 c -0.453,0 -1.36,-0.25 -1.625,-1.782 -0.156,-0.828 -0.156,-1.89 -0.156,-2.859 0,-1.156 0,-2.187 0.234,-3 0.234,-0.937 0.937,-1.375 1.547,-1.375 0.531,0 1.344,0.328 1.609,1.516 0.172,0.797 0.172,1.906 0.172,2.859 0,0.922 0,1.984 -0.156,2.844 -0.266,1.531 -1.141,1.797 -1.625,1.797 z"
         style="fill:#000000;fill-opacity:1;fill-rule:nonzero;stroke:none"
         id="path46" /><path
         d="m 154.242,323.117 c 0,-0.406 -0.328,-0.687 -0.672,-0.687 -0.39,0 -0.672,0.343 -0.672,0.672 0,0.406 0.329,0.687 0.672,0.687 0.391,0 0.672,-0.328 0.672,-0.672 z"
         style="fill:#000000;fill-opacity:1;fill-rule:nonzero;stroke:none"
         id="path48" /><path
         d="m 161.613,321.445 h -0.312 c -0.031,0.235 -0.156,1 -0.281,1.235 -0.11,0.125 -0.907,0.125 -1.313,0.125 h -2.594 c 0.375,-0.328 1.235,-1.219 1.594,-1.563 2.125,-1.953 2.906,-2.672 2.906,-4.047 0,-1.609 -1.265,-2.687 -2.89,-2.687 -1.625,0 -2.563,1.39 -2.563,2.578 0,0.719 0.61,0.719 0.656,0.719 0.282,0 0.657,-0.203 0.657,-0.657 0,-0.39 -0.266,-0.656 -0.657,-0.656 -0.125,0 -0.156,0 -0.203,0.016 0.266,-0.953 1.016,-1.594 1.922,-1.594 1.188,0 1.922,0.984 1.922,2.281 0,1.188 -0.687,2.219 -1.484,3.11 l -2.813,3.156 v 0.328 h 5.094 z"
         style="fill:#000000;fill-opacity:1;fill-rule:nonzero;stroke:none"
         id="path50" /><path
         d="m 238.484,306.852 v 3.5"
         style="fill:none;stroke:#000000;stroke-width:0.8;stroke-linecap:butt;stroke-linejoin:round;stroke-miterlimit:10;stroke-dasharray:none;stroke-opacity:1"
         id="path52" /><path
         d="m 236.008,319.32 c 0,-1.156 -0.063,-2.281 -0.578,-3.343 -0.563,-1.157 -1.563,-1.469 -2.25,-1.469 -0.813,0 -1.797,0.406 -2.313,1.562 -0.39,0.875 -0.531,1.75 -0.531,3.25 0,1.36 0.094,2.375 0.594,3.36 0.547,1.062 1.5,1.406 2.234,1.406 1.219,0 1.906,-0.734 2.313,-1.531 0.5,-1.047 0.531,-2.422 0.531,-3.235 z m -2.844,4.485 c -0.453,0 -1.359,-0.25 -1.625,-1.782 -0.156,-0.828 -0.156,-1.89 -0.156,-2.859 0,-1.156 0,-2.187 0.234,-3 0.235,-0.937 0.938,-1.375 1.547,-1.375 0.531,0 1.344,0.328 1.609,1.516 0.172,0.797 0.172,1.906 0.172,2.859 0,0.922 0,1.984 -0.156,2.844 -0.266,1.531 -1.141,1.797 -1.625,1.797 z"
         style="fill:#000000;fill-opacity:1;fill-rule:nonzero;stroke:none"
         id="path54" /><path
         d="m 239.148,323.117 c 0,-0.406 -0.328,-0.687 -0.671,-0.687 -0.391,0 -0.672,0.343 -0.672,0.672 0,0.406 0.328,0.687 0.672,0.687 0.39,0 0.671,-0.328 0.671,-0.672 z"
         style="fill:#000000;fill-opacity:1;fill-rule:nonzero;stroke:none"
         id="path56" /><path
         d="m 245.41,314.711 c 0,-0.266 0,-0.344 -0.187,-0.344 -0.11,0 -0.157,0 -0.266,0.172 l -4.203,6.516 v 0.406 h 3.672 v 1.266 c 0,0.515 -0.031,0.656 -1.047,0.656 h -0.281 v 0.406 c 0.328,-0.031 1.422,-0.031 1.812,-0.031 0.391,0 1.516,0 1.828,0.031 v -0.406 h -0.281 c -1,0 -1.047,-0.141 -1.047,-0.656 v -1.266 h 1.422 v -0.406 h -1.422 z m -0.922,1.078 v 5.266 h -3.39 z"
         style="fill:#000000;fill-opacity:1;fill-rule:nonzero;stroke:none"
         id="path58" /><path
         d="m 323.387,306.852 v 3.5"
         style="fill:none;stroke:#000000;stroke-width:0.8;stroke-linecap:butt;stroke-linejoin:round;stroke-miterlimit:10;stroke-dasharray:none;stroke-opacity:1"
         id="path60" /><path
         d="m 320.914,319.32 c 0,-1.156 -0.062,-2.281 -0.578,-3.343 -0.563,-1.157 -1.563,-1.469 -2.25,-1.469 -0.813,0 -1.797,0.406 -2.313,1.562 -0.39,0.875 -0.531,1.75 -0.531,3.25 0,1.36 0.094,2.375 0.594,3.36 0.547,1.062 1.5,1.406 2.234,1.406 1.219,0 1.907,-0.734 2.313,-1.531 0.5,-1.047 0.531,-2.422 0.531,-3.235 z m -2.844,4.485 c -0.453,0 -1.359,-0.25 -1.625,-1.782 -0.156,-0.828 -0.156,-1.89 -0.156,-2.859 0,-1.156 0,-2.187 0.234,-3 0.235,-0.937 0.938,-1.375 1.547,-1.375 0.532,0 1.344,0.328 1.61,1.516 0.172,0.797 0.172,1.906 0.172,2.859 0,0.922 0,1.984 -0.157,2.844 -0.265,1.531 -1.14,1.797 -1.625,1.797 z"
         style="fill:#000000;fill-opacity:1;fill-rule:nonzero;stroke:none"
         id="path62" /><path
         d="m 324.055,323.117 c 0,-0.406 -0.328,-0.687 -0.672,-0.687 -0.391,0 -0.672,0.343 -0.672,0.672 0,0.406 0.328,0.687 0.672,0.687 0.39,0 0.672,-0.328 0.672,-0.672 z"
         style="fill:#000000;fill-opacity:1;fill-rule:nonzero;stroke:none"
         id="path64" /><path
         d="m 327.004,318.93 c 0,-3.532 1.719,-4.078 2.469,-4.078 0.5,0 1,0.14 1.265,0.562 -0.172,0 -0.687,0 -0.687,0.578 0,0.297 0.203,0.563 0.562,0.563 0.344,0 0.594,-0.203 0.594,-0.61 0,-0.718 -0.531,-1.437 -1.75,-1.437 -1.766,0 -3.594,1.797 -3.594,4.875 0,3.828 1.672,4.703 2.86,4.703 1.515,0 2.812,-1.328 2.812,-3.141 0,-1.859 -1.297,-3.093 -2.687,-3.093 -1.25,0 -1.703,1.062 -1.844,1.453 z m 1.719,4.781 c -0.891,0 -1.297,-0.781 -1.422,-1.078 -0.125,-0.36 -0.266,-1.047 -0.266,-2.031 0,-1.094 0.5,-2.485 1.75,-2.485 0.766,0 1.172,0.516 1.391,1 0.219,0.516 0.219,1.219 0.219,1.813 0,0.703 0,1.343 -0.266,1.875 -0.344,0.656 -0.859,0.906 -1.406,0.906 z"
         style="fill:#000000;fill-opacity:1;fill-rule:nonzero;stroke:none"
         id="path66" /><path
         d="m 408.293,306.852 v 3.5"
         style="fill:none;stroke:#000000;stroke-width:0.8;stroke-linecap:butt;stroke-linejoin:round;stroke-miterlimit:10;stroke-dasharray:none;stroke-opacity:1"
         id="path68" /><path
         d="m 405.82,319.32 c 0,-1.156 -0.062,-2.281 -0.578,-3.343 -0.562,-1.157 -1.562,-1.469 -2.25,-1.469 -0.812,0 -1.797,0.406 -2.312,1.562 -0.391,0.875 -0.532,1.75 -0.532,3.25 0,1.36 0.094,2.375 0.594,3.36 0.547,1.062 1.5,1.406 2.235,1.406 1.218,0 1.906,-0.734 2.312,-1.531 0.5,-1.047 0.531,-2.422 0.531,-3.235 z m -2.843,4.485 c -0.454,0 -1.36,-0.25 -1.625,-1.782 -0.157,-0.828 -0.157,-1.89 -0.157,-2.859 0,-1.156 0,-2.187 0.235,-3 0.234,-0.937 0.937,-1.375 1.547,-1.375 0.531,0 1.343,0.328 1.609,1.516 0.172,0.797 0.172,1.906 0.172,2.859 0,0.922 0,1.984 -0.156,2.844 -0.266,1.531 -1.141,1.797 -1.625,1.797 z"
         style="fill:#000000;fill-opacity:1;fill-rule:nonzero;stroke:none"
         id="path70" /><path
         d="m 408.961,323.117 c 0,-0.406 -0.328,-0.687 -0.672,-0.687 -0.391,0 -0.672,0.343 -0.672,0.672 0,0.406 0.328,0.687 0.672,0.687 0.391,0 0.672,-0.328 0.672,-0.672 z"
         style="fill:#000000;fill-opacity:1;fill-rule:nonzero;stroke:none"
         id="path72" /><path
         d="m 414.348,318.758 c 0.703,-0.375 1.718,-1.031 1.718,-2.203 0,-1.203 -1.171,-2.047 -2.453,-2.047 -1.39,0 -2.468,1.015 -2.468,2.297 0,0.468 0.14,0.937 0.531,1.422 0.14,0.171 0.156,0.187 1.14,0.875 -1.359,0.625 -2.046,1.562 -2.046,2.578 0,1.484 1.406,2.406 2.828,2.406 1.547,0 2.843,-1.141 2.843,-2.609 0,-1.422 -1,-2.063 -2.093,-2.719 z m -1.891,-1.266 c -0.187,-0.125 -0.75,-0.484 -0.75,-1.172 0,-0.906 0.953,-1.468 1.891,-1.468 1,0 1.89,0.718 1.89,1.718 0,0.86 -0.609,1.547 -1.422,1.985 z m 0.656,1.797 1.688,1.109 c 0.359,0.235 1,0.672 1,1.516 0,1.063 -1.078,1.797 -2.188,1.797 -1.187,0 -2.203,-0.875 -2.203,-2.031 0,-1.078 0.797,-1.969 1.703,-2.391 z"
         style="fill:#000000;fill-opacity:1;fill-rule:nonzero;stroke:none"
         id="path74" /><path
         d="m 289.074,336.832 c -0.625,0.109 -0.875,0.594 -0.875,0.969 0,0.484 0.375,0.64 0.656,0.64 0.61,0 1.016,-0.515 1.016,-1.046 0,-0.844 -0.953,-1.219 -1.781,-1.219 -1.219,0 -1.906,1.187 -2.078,1.562 -0.453,-1.484 -1.688,-1.562 -2.047,-1.562 -2.031,0 -3.11,2.609 -3.11,3.047 0,0.078 0.079,0.172 0.219,0.172 0.156,0 0.203,-0.11 0.235,-0.188 0.671,-2.219 2.015,-2.641 2.593,-2.641 0.891,0 1.078,0.844 1.078,1.313 0,0.437 -0.125,0.906 -0.359,1.859 l -0.687,2.735 c -0.297,1.187 -0.875,2.281 -1.922,2.281 -0.11,0 -0.61,0 -1.016,-0.25 0.719,-0.141 0.875,-0.734 0.875,-0.984 0,-0.391 -0.297,-0.641 -0.687,-0.641 -0.469,0 -0.985,0.422 -0.985,1.062 0,0.844 0.938,1.219 1.781,1.219 0.969,0 1.641,-0.765 2.063,-1.578 0.312,1.172 1.312,1.578 2.047,1.578 2.031,0 3.109,-2.609 3.109,-3.047 0,-0.109 -0.078,-0.187 -0.203,-0.187 -0.172,0 -0.203,0.109 -0.25,0.265 -0.547,1.75 -1.703,2.563 -2.594,2.563 -0.703,0 -1.078,-0.516 -1.078,-1.328 0,-0.438 0.078,-0.766 0.406,-2.078 l 0.688,-2.703 c 0.297,-1.204 0.984,-2.079 1.891,-2.079 0.046,0 0.609,0 1.015,0.266 z"
         style="fill:#000000;fill-opacity:1;fill-rule:nonzero;stroke:none"
         id="path76" /><path
         d="m 77.16,306.852 h -3.5"
         style="fill:none;stroke:#000000;stroke-width:0.8;stroke-linecap:butt;stroke-linejoin:round;stroke-miterlimit:10;stroke-dasharray:none;stroke-opacity:1"
         id="path78" /><path
         d="m 44.223,308.617 c 0.25,0 0.5,0 0.5,-0.281 0,-0.281 -0.25,-0.281 -0.5,-0.281 h -7.547 c -0.235,0 -0.485,0 -0.485,0.281 0,0.281 0.25,0.281 0.485,0.281 z"
         style="fill:#000000;fill-opacity:1;fill-rule:nonzero;stroke:none"
         id="path80" /><path
         d="m 52.133,307.352 c 0,-1.157 -0.063,-2.282 -0.578,-3.344 -0.563,-1.156 -1.563,-1.469 -2.25,-1.469 -0.813,0 -1.797,0.406 -2.313,1.563 -0.39,0.875 -0.531,1.75 -0.531,3.25 0,1.359 0.094,2.375 0.594,3.359 0.547,1.062 1.5,1.406 2.234,1.406 1.219,0 1.906,-0.734 2.313,-1.531 0.5,-1.047 0.531,-2.422 0.531,-3.234 z m -2.844,4.484 c -0.453,0 -1.359,-0.25 -1.625,-1.781 -0.156,-0.828 -0.156,-1.891 -0.156,-2.86 0,-1.156 0,-2.187 0.234,-3 0.235,-0.937 0.938,-1.375 1.547,-1.375 0.531,0 1.344,0.328 1.609,1.516 0.172,0.797 0.172,1.906 0.172,2.859 0,0.922 0,1.985 -0.156,2.844 -0.266,1.531 -1.141,1.797 -1.625,1.797 z"
         style="fill:#000000;fill-opacity:1;fill-rule:nonzero;stroke:none"
         id="path82" /><path
         d="m 55.273,311.148 c 0,-0.406 -0.328,-0.687 -0.671,-0.687 -0.391,0 -0.672,0.344 -0.672,0.672 0,0.406 0.328,0.687 0.672,0.687 0.39,0 0.671,-0.328 0.671,-0.672 z"
         style="fill:#000000;fill-opacity:1;fill-rule:nonzero;stroke:none"
         id="path84" /><path
         d="m 62.754,307.352 c 0,-1.157 -0.063,-2.282 -0.578,-3.344 -0.563,-1.156 -1.563,-1.469 -2.25,-1.469 -0.813,0 -1.797,0.406 -2.313,1.563 -0.39,0.875 -0.531,1.75 -0.531,3.25 0,1.359 0.094,2.375 0.594,3.359 0.547,1.062 1.5,1.406 2.234,1.406 1.219,0 1.906,-0.734 2.313,-1.531 0.5,-1.047 0.531,-2.422 0.531,-3.234 z m -2.844,4.484 c -0.453,0 -1.359,-0.25 -1.625,-1.781 -0.156,-0.828 -0.156,-1.891 -0.156,-2.86 0,-1.156 0,-2.187 0.234,-3 0.235,-0.937 0.938,-1.375 1.547,-1.375 0.531,0 1.344,0.328 1.61,1.516 0.171,0.797 0.171,1.906 0.171,2.859 0,0.922 0,1.985 -0.156,2.844 -0.265,1.531 -1.14,1.797 -1.625,1.797 z"
         style="fill:#000000;fill-opacity:1;fill-rule:nonzero;stroke:none"
         id="path86" /><path
         d="m 69.465,309.477 h -0.313 c -0.031,0.234 -0.156,1 -0.281,1.234 -0.109,0.125 -0.906,0.125 -1.312,0.125 h -2.594 c 0.375,-0.328 1.234,-1.219 1.594,-1.563 2.125,-1.953 2.906,-2.671 2.906,-4.046 0,-1.61 -1.266,-2.688 -2.891,-2.688 -1.625,0 -2.562,1.391 -2.562,2.578 0,0.719 0.609,0.719 0.656,0.719 0.281,0 0.656,-0.203 0.656,-0.656 0,-0.391 -0.265,-0.657 -0.656,-0.657 -0.125,0 -0.156,0 -0.203,0.016 0.265,-0.953 1.015,-1.594 1.922,-1.594 1.187,0 1.922,0.985 1.922,2.282 0,1.187 -0.688,2.218 -1.485,3.109 l -2.812,3.156 v 0.328 h 5.093 z"
         style="fill:#000000;fill-opacity:1;fill-rule:nonzero;stroke:none"
         id="path88" /><path
         d="m 77.16,248.633 h -3.5"
         style="fill:none;stroke:#000000;stroke-width:0.8;stroke-linecap:butt;stroke-linejoin:round;stroke-miterlimit:10;stroke-dasharray:none;stroke-opacity:1"
         id="path90" /><path
         d="m 44.223,250.398 c 0.25,0 0.5,0 0.5,-0.281 0,-0.281 -0.25,-0.281 -0.5,-0.281 h -7.547 c -0.235,0 -0.485,0 -0.485,0.281 0,0.281 0.25,0.281 0.485,0.281 z"
         style="fill:#000000;fill-opacity:1;fill-rule:nonzero;stroke:none"
         id="path92" /><path
         d="m 52.133,249.133 c 0,-1.156 -0.063,-2.281 -0.578,-3.344 -0.563,-1.156 -1.563,-1.469 -2.25,-1.469 -0.813,0 -1.797,0.407 -2.313,1.563 -0.39,0.875 -0.531,1.75 -0.531,3.25 0,1.359 0.094,2.375 0.594,3.359 0.547,1.063 1.5,1.406 2.234,1.406 1.219,0 1.906,-0.734 2.313,-1.531 0.5,-1.047 0.531,-2.422 0.531,-3.234 z m -2.844,4.484 c -0.453,0 -1.359,-0.25 -1.625,-1.781 -0.156,-0.828 -0.156,-1.891 -0.156,-2.859 0,-1.157 0,-2.188 0.234,-3 0.235,-0.938 0.938,-1.375 1.547,-1.375 0.531,0 1.344,0.328 1.609,1.515 0.172,0.797 0.172,1.906 0.172,2.86 0,0.921 0,1.984 -0.156,2.843 -0.266,1.532 -1.141,1.797 -1.625,1.797 z"
         style="fill:#000000;fill-opacity:1;fill-rule:nonzero;stroke:none"
         id="path94" /><path
         d="m 55.273,252.93 c 0,-0.407 -0.328,-0.688 -0.671,-0.688 -0.391,0 -0.672,0.344 -0.672,0.672 0,0.406 0.328,0.688 0.672,0.688 0.39,0 0.671,-0.329 0.671,-0.672 z"
         style="fill:#000000;fill-opacity:1;fill-rule:nonzero;stroke:none"
         id="path96" /><path
         d="m 62.754,249.133 c 0,-1.156 -0.063,-2.281 -0.578,-3.344 -0.563,-1.156 -1.563,-1.469 -2.25,-1.469 -0.813,0 -1.797,0.407 -2.313,1.563 -0.39,0.875 -0.531,1.75 -0.531,3.25 0,1.359 0.094,2.375 0.594,3.359 0.547,1.063 1.5,1.406 2.234,1.406 1.219,0 1.906,-0.734 2.313,-1.531 0.5,-1.047 0.531,-2.422 0.531,-3.234 z m -2.844,4.484 c -0.453,0 -1.359,-0.25 -1.625,-1.781 -0.156,-0.828 -0.156,-1.891 -0.156,-2.859 0,-1.157 0,-2.188 0.234,-3 0.235,-0.938 0.938,-1.375 1.547,-1.375 0.531,0 1.344,0.328 1.61,1.515 0.171,0.797 0.171,1.906 0.171,2.86 0,0.921 0,1.984 -0.156,2.843 -0.265,1.532 -1.14,1.797 -1.625,1.797 z"
         style="fill:#000000;fill-opacity:1;fill-rule:nonzero;stroke:none"
         id="path98" /><path
         d="m 67.34,244.664 c 0,-0.328 0,-0.344 -0.281,-0.344 -0.329,0.375 -1.032,0.891 -2.469,0.891 v 0.406 c 0.328,0 1.015,0 1.797,-0.359 v 7.265 c 0,0.5 -0.047,0.672 -1.282,0.672 h -0.421 v 0.407 c 0.375,-0.032 1.718,-0.032 2.187,-0.032 0.453,0 1.797,0 2.172,0.032 v -0.407 h -0.438 c -1.218,0 -1.265,-0.172 -1.265,-0.672 z"
         style="fill:#000000;fill-opacity:1;fill-rule:nonzero;stroke:none"
         id="path100" /><path
         d="m 77.16,190.418 h -3.5"
         style="fill:none;stroke:#000000;stroke-width:0.8;stroke-linecap:butt;stroke-linejoin:round;stroke-miterlimit:10;stroke-dasharray:none;stroke-opacity:1"
         id="path102" /><path
         d="m 52.133,190.918 c 0,-1.156 -0.063,-2.281 -0.578,-3.344 -0.563,-1.156 -1.563,-1.469 -2.25,-1.469 -0.813,0 -1.797,0.407 -2.313,1.563 -0.39,0.875 -0.531,1.75 -0.531,3.25 0,1.359 0.094,2.375 0.594,3.359 0.547,1.063 1.5,1.407 2.234,1.407 1.219,0 1.906,-0.735 2.313,-1.532 0.5,-1.047 0.531,-2.422 0.531,-3.234 z m -2.844,4.484 c -0.453,0 -1.359,-0.25 -1.625,-1.781 -0.156,-0.828 -0.156,-1.891 -0.156,-2.859 0,-1.157 0,-2.188 0.234,-3 0.235,-0.938 0.938,-1.375 1.547,-1.375 0.531,0 1.344,0.328 1.609,1.515 0.172,0.797 0.172,1.907 0.172,2.86 0,0.922 0,1.984 -0.156,2.843 -0.266,1.532 -1.141,1.797 -1.625,1.797 z"
         style="fill:#000000;fill-opacity:1;fill-rule:nonzero;stroke:none"
         id="path104" /><path
         d="m 55.273,194.715 c 0,-0.406 -0.328,-0.688 -0.671,-0.688 -0.391,0 -0.672,0.344 -0.672,0.672 0,0.406 0.328,0.688 0.672,0.688 0.39,0 0.671,-0.328 0.671,-0.672 z"
         style="fill:#000000;fill-opacity:1;fill-rule:nonzero;stroke:none"
         id="path106" /><path
         d="m 62.754,190.918 c 0,-1.156 -0.063,-2.281 -0.578,-3.344 -0.563,-1.156 -1.563,-1.469 -2.25,-1.469 -0.813,0 -1.797,0.407 -2.313,1.563 -0.39,0.875 -0.531,1.75 -0.531,3.25 0,1.359 0.094,2.375 0.594,3.359 0.547,1.063 1.5,1.407 2.234,1.407 1.219,0 1.906,-0.735 2.313,-1.532 0.5,-1.047 0.531,-2.422 0.531,-3.234 z m -2.844,4.484 c -0.453,0 -1.359,-0.25 -1.625,-1.781 -0.156,-0.828 -0.156,-1.891 -0.156,-2.859 0,-1.157 0,-2.188 0.234,-3 0.235,-0.938 0.938,-1.375 1.547,-1.375 0.531,0 1.344,0.328 1.61,1.515 0.171,0.797 0.171,1.907 0.171,2.86 0,0.922 0,1.984 -0.156,2.843 -0.265,1.532 -1.14,1.797 -1.625,1.797 z"
         style="fill:#000000;fill-opacity:1;fill-rule:nonzero;stroke:none"
         id="path108" /><path
         d="m 69.574,190.918 c 0,-1.156 -0.062,-2.281 -0.578,-3.344 -0.562,-1.156 -1.562,-1.469 -2.25,-1.469 -0.812,0 -1.797,0.407 -2.312,1.563 -0.391,0.875 -0.532,1.75 -0.532,3.25 0,1.359 0.094,2.375 0.594,3.359 0.547,1.063 1.5,1.407 2.234,1.407 1.219,0 1.907,-0.735 2.313,-1.532 0.5,-1.047 0.531,-2.422 0.531,-3.234 z m -2.844,4.484 c -0.453,0 -1.359,-0.25 -1.625,-1.781 -0.156,-0.828 -0.156,-1.891 -0.156,-2.859 0,-1.157 0,-2.188 0.235,-3 0.234,-0.938 0.937,-1.375 1.546,-1.375 0.532,0 1.344,0.328 1.61,1.515 0.172,0.797 0.172,1.907 0.172,2.86 0,0.922 0,1.984 -0.157,2.843 -0.265,1.532 -1.14,1.797 -1.625,1.797 z"
         style="fill:#000000;fill-opacity:1;fill-rule:nonzero;stroke:none"
         id="path110" /><path
         d="m 77.16,132.203 h -3.5"
         style="fill:none;stroke:#000000;stroke-width:0.8;stroke-linecap:butt;stroke-linejoin:round;stroke-miterlimit:10;stroke-dasharray:none;stroke-opacity:1"
         id="path112" /><path
         d="m 52.133,132.703 c 0,-1.156 -0.063,-2.281 -0.578,-3.344 -0.563,-1.156 -1.563,-1.468 -2.25,-1.468 -0.813,0 -1.797,0.406 -2.313,1.562 -0.39,0.875 -0.531,1.75 -0.531,3.25 0,1.359 0.094,2.375 0.594,3.359 0.547,1.063 1.5,1.407 2.234,1.407 1.219,0 1.906,-0.735 2.313,-1.531 0.5,-1.047 0.531,-2.422 0.531,-3.235 z m -2.844,4.485 c -0.453,0 -1.359,-0.25 -1.625,-1.782 -0.156,-0.828 -0.156,-1.89 -0.156,-2.859 0,-1.156 0,-2.188 0.234,-3 0.235,-0.938 0.938,-1.375 1.547,-1.375 0.531,0 1.344,0.328 1.609,1.516 0.172,0.796 0.172,1.906 0.172,2.859 0,0.922 0,1.984 -0.156,2.844 -0.266,1.531 -1.141,1.797 -1.625,1.797 z"
         style="fill:#000000;fill-opacity:1;fill-rule:nonzero;stroke:none"
         id="path114" /><path
         d="m 55.273,136.5 c 0,-0.406 -0.328,-0.688 -0.671,-0.688 -0.391,0 -0.672,0.344 -0.672,0.672 0,0.407 0.328,0.688 0.672,0.688 0.39,0 0.671,-0.328 0.671,-0.672 z"
         style="fill:#000000;fill-opacity:1;fill-rule:nonzero;stroke:none"
         id="path116" /><path
         d="m 62.754,132.703 c 0,-1.156 -0.063,-2.281 -0.578,-3.344 -0.563,-1.156 -1.563,-1.468 -2.25,-1.468 -0.813,0 -1.797,0.406 -2.313,1.562 -0.39,0.875 -0.531,1.75 -0.531,3.25 0,1.359 0.094,2.375 0.594,3.359 0.547,1.063 1.5,1.407 2.234,1.407 1.219,0 1.906,-0.735 2.313,-1.531 0.5,-1.047 0.531,-2.422 0.531,-3.235 z m -2.844,4.485 c -0.453,0 -1.359,-0.25 -1.625,-1.782 -0.156,-0.828 -0.156,-1.89 -0.156,-2.859 0,-1.156 0,-2.188 0.234,-3 0.235,-0.938 0.938,-1.375 1.547,-1.375 0.531,0 1.344,0.328 1.61,1.516 0.171,0.796 0.171,1.906 0.171,2.859 0,0.922 0,1.984 -0.156,2.844 -0.265,1.531 -1.14,1.797 -1.625,1.797 z"
         style="fill:#000000;fill-opacity:1;fill-rule:nonzero;stroke:none"
         id="path118" /><path
         d="m 67.34,128.234 c 0,-0.328 0,-0.343 -0.281,-0.343 -0.329,0.375 -1.032,0.89 -2.469,0.89 v 0.407 c 0.328,0 1.015,0 1.797,-0.36 v 7.266 c 0,0.5 -0.047,0.672 -1.282,0.672 h -0.421 v 0.406 c 0.375,-0.031 1.718,-0.031 2.187,-0.031 0.453,0 1.797,0 2.172,0.031 v -0.406 h -0.438 c -1.218,0 -1.265,-0.172 -1.265,-0.672 z"
         style="fill:#000000;fill-opacity:1;fill-rule:nonzero;stroke:none"
         id="path120" /><path
         d="m 77.16,73.984 h -3.5"
         style="fill:none;stroke:#000000;stroke-width:0.8;stroke-linecap:butt;stroke-linejoin:round;stroke-miterlimit:10;stroke-dasharray:none;stroke-opacity:1"
         id="path122" /><path
         d="m 52.133,74.484 c 0,-1.156 -0.063,-2.281 -0.578,-3.343 -0.563,-1.157 -1.563,-1.469 -2.25,-1.469 -0.813,0 -1.797,0.406 -2.313,1.562 -0.39,0.875 -0.531,1.75 -0.531,3.25 0,1.36 0.094,2.375 0.594,3.36 0.547,1.062 1.5,1.406 2.234,1.406 1.219,0 1.906,-0.734 2.313,-1.531 0.5,-1.047 0.531,-2.422 0.531,-3.235 z m -2.844,4.485 c -0.453,0 -1.359,-0.25 -1.625,-1.781 -0.156,-0.829 -0.156,-1.891 -0.156,-2.86 0,-1.156 0,-2.187 0.234,-3 0.235,-0.937 0.938,-1.375 1.547,-1.375 0.531,0 1.344,0.328 1.609,1.516 0.172,0.797 0.172,1.906 0.172,2.859 0,0.922 0,1.984 -0.156,2.844 -0.266,1.531 -1.141,1.797 -1.625,1.797 z"
         style="fill:#000000;fill-opacity:1;fill-rule:nonzero;stroke:none"
         id="path124" /><path
         d="m 55.273,78.281 c 0,-0.406 -0.328,-0.687 -0.671,-0.687 -0.391,0 -0.672,0.344 -0.672,0.672 0,0.406 0.328,0.687 0.672,0.687 0.39,0 0.671,-0.328 0.671,-0.672 z"
         style="fill:#000000;fill-opacity:1;fill-rule:nonzero;stroke:none"
         id="path126" /><path
         d="m 62.754,74.484 c 0,-1.156 -0.063,-2.281 -0.578,-3.343 -0.563,-1.157 -1.563,-1.469 -2.25,-1.469 -0.813,0 -1.797,0.406 -2.313,1.562 -0.39,0.875 -0.531,1.75 -0.531,3.25 0,1.36 0.094,2.375 0.594,3.36 0.547,1.062 1.5,1.406 2.234,1.406 1.219,0 1.906,-0.734 2.313,-1.531 0.5,-1.047 0.531,-2.422 0.531,-3.235 z m -2.844,4.485 c -0.453,0 -1.359,-0.25 -1.625,-1.781 -0.156,-0.829 -0.156,-1.891 -0.156,-2.86 0,-1.156 0,-2.187 0.234,-3 0.235,-0.937 0.938,-1.375 1.547,-1.375 0.531,0 1.344,0.328 1.61,1.516 0.171,0.797 0.171,1.906 0.171,2.859 0,0.922 0,1.984 -0.156,2.844 -0.265,1.531 -1.14,1.797 -1.625,1.797 z"
         style="fill:#000000;fill-opacity:1;fill-rule:nonzero;stroke:none"
         id="path128" /><path
         d="m 69.465,76.609 h -0.313 c -0.031,0.235 -0.156,1 -0.281,1.235 -0.109,0.125 -0.906,0.125 -1.312,0.125 h -2.594 c 0.375,-0.328 1.234,-1.219 1.594,-1.563 2.125,-1.953 2.906,-2.672 2.906,-4.047 0,-1.609 -1.266,-2.687 -2.891,-2.687 -1.625,0 -2.562,1.39 -2.562,2.578 0,0.719 0.609,0.719 0.656,0.719 0.281,0 0.656,-0.203 0.656,-0.657 0,-0.39 -0.265,-0.656 -0.656,-0.656 -0.125,0 -0.156,0 -0.203,0.016 0.265,-0.953 1.015,-1.594 1.922,-1.594 1.187,0 1.922,0.984 1.922,2.281 0,1.188 -0.688,2.219 -1.485,3.11 l -2.812,3.156 v 0.328 h 5.093 z"
         style="fill:#000000;fill-opacity:1;fill-rule:nonzero;stroke:none"
         id="path130" /><path
         d="m 77.16,15.77 h -3.5"
         style="fill:none;stroke:#000000;stroke-width:0.8;stroke-linecap:butt;stroke-linejoin:round;stroke-miterlimit:10;stroke-dasharray:none;stroke-opacity:1"
         id="path132" /><path
         d="m 52.133,16.27 c 0,-1.157 -0.063,-2.282 -0.578,-3.344 -0.563,-1.156 -1.563,-1.469 -2.25,-1.469 -0.813,0 -1.797,0.406 -2.313,1.563 -0.39,0.875 -0.531,1.75 -0.531,3.25 0,1.359 0.094,2.375 0.594,3.359 0.547,1.062 1.5,1.406 2.234,1.406 1.219,0 1.906,-0.734 2.313,-1.531 0.5,-1.047 0.531,-2.422 0.531,-3.234 z m -2.844,4.484 c -0.453,0 -1.359,-0.25 -1.625,-1.781 -0.156,-0.828 -0.156,-1.891 -0.156,-2.86 0,-1.156 0,-2.187 0.234,-3 0.235,-0.937 0.938,-1.375 1.547,-1.375 0.531,0 1.344,0.328 1.609,1.516 0.172,0.797 0.172,1.906 0.172,2.859 0,0.922 0,1.985 -0.156,2.844 -0.266,1.531 -1.141,1.797 -1.625,1.797 z"
         style="fill:#000000;fill-opacity:1;fill-rule:nonzero;stroke:none"
         id="path134" /><path
         d="m 55.273,20.066 c 0,-0.406 -0.328,-0.687 -0.671,-0.687 -0.391,0 -0.672,0.344 -0.672,0.672 0,0.406 0.328,0.687 0.672,0.687 0.39,0 0.671,-0.328 0.671,-0.672 z"
         style="fill:#000000;fill-opacity:1;fill-rule:nonzero;stroke:none"
         id="path136" /><path
         d="m 62.754,16.27 c 0,-1.157 -0.063,-2.282 -0.578,-3.344 -0.563,-1.156 -1.563,-1.469 -2.25,-1.469 -0.813,0 -1.797,0.406 -2.313,1.563 -0.39,0.875 -0.531,1.75 -0.531,3.25 0,1.359 0.094,2.375 0.594,3.359 0.547,1.062 1.5,1.406 2.234,1.406 1.219,0 1.906,-0.734 2.313,-1.531 0.5,-1.047 0.531,-2.422 0.531,-3.234 z m -2.844,4.484 c -0.453,0 -1.359,-0.25 -1.625,-1.781 -0.156,-0.828 -0.156,-1.891 -0.156,-2.86 0,-1.156 0,-2.187 0.234,-3 0.235,-0.937 0.938,-1.375 1.547,-1.375 0.531,0 1.344,0.328 1.61,1.516 0.171,0.797 0.171,1.906 0.171,2.859 0,0.922 0,1.985 -0.156,2.844 -0.265,1.531 -1.14,1.797 -1.625,1.797 z"
         style="fill:#000000;fill-opacity:1;fill-rule:nonzero;stroke:none"
         id="path138" /><path
         d="m 65.887,15.723 c -0.235,0.015 -0.282,0.031 -0.282,0.156 0,0.141 0.063,0.141 0.313,0.141 h 0.641 c 1.187,0 1.718,0.984 1.718,2.312 0,1.828 -0.953,2.328 -1.625,2.328 -0.672,0 -1.828,-0.328 -2.218,-1.25 0.437,0.078 0.843,-0.172 0.843,-0.687 0,-0.391 -0.297,-0.672 -0.687,-0.672 -0.328,0 -0.688,0.187 -0.688,0.719 0,1.25 1.235,2.265 2.782,2.265 1.656,0 2.89,-1.281 2.89,-2.687 0,-1.282 -1.031,-2.282 -2.375,-2.516 1.219,-0.359 2,-1.375 2,-2.469 0,-1.093 -1.14,-1.906 -2.5,-1.906 -1.39,0 -2.422,0.859 -2.422,1.875 0,0.563 0.422,0.672 0.641,0.672 0.297,0 0.625,-0.219 0.625,-0.641 0,-0.437 -0.328,-0.64 -0.641,-0.64 -0.078,0 -0.109,0 -0.156,0.015 0.531,-0.937 1.844,-0.937 1.906,-0.937 0.469,0 1.375,0.203 1.375,1.562 0,0.266 -0.047,1.047 -0.453,1.657 -0.406,0.609 -0.89,0.656 -1.265,0.671 z"
         style="fill:#000000;fill-opacity:1;fill-rule:nonzero;stroke:none"
         id="path140" /><path
         d="m 17.945,179.773 c 0.11,0.625 0.594,0.875 0.969,0.875 0.484,0 0.641,-0.375 0.641,-0.656 0,-0.609 -0.516,-1.015 -1.047,-1.015 -0.844,0 -1.219,0.953 -1.219,1.781 0,1.219 1.188,1.906 1.563,2.078 -1.485,0.453 -1.563,1.687 -1.563,2.047 0,2.031 2.609,3.109 3.047,3.109 0.078,0 0.172,-0.078 0.172,-0.219 0,-0.156 -0.11,-0.203 -0.188,-0.234 -2.218,-0.672 -2.64,-2.016 -2.64,-2.594 0,-0.89 0.843,-1.078 1.312,-1.078 0.438,0 0.906,0.125 1.86,0.36 l 2.734,0.687 c 1.187,0.297 2.281,0.875 2.281,1.922 0,0.109 0,0.609 -0.25,1.016 -0.14,-0.719 -0.734,-0.875 -0.984,-0.875 -0.391,0 -0.641,0.296 -0.641,0.687 0,0.469 0.422,0.984 1.063,0.984 0.843,0 1.218,-0.937 1.218,-1.781 0,-0.969 -0.765,-1.64 -1.578,-2.062 1.172,-0.313 1.578,-1.313 1.578,-2.047 0,-2.031 -2.609,-3.11 -3.046,-3.11 -0.11,0 -0.188,0.079 -0.188,0.204 0,0.171 0.109,0.203 0.266,0.25 1.75,0.546 2.562,1.703 2.562,2.593 0,0.703 -0.515,1.078 -1.328,1.078 -0.437,0 -0.766,-0.078 -2.078,-0.406 l -2.703,-0.687 c -1.203,-0.297 -2.078,-0.985 -2.078,-1.891 0,-0.047 0,-0.609 0.265,-1.016 z"
         style="fill:#000000;fill-opacity:1;fill-rule:nonzero;stroke:none"
         id="path142" /><path
         d="m 18.586,170.336 c 0,0.391 0,0.562 0.234,0.844 0.094,0.125 0.391,0.343 0.719,0.343 0.391,0 0.641,-0.296 0.641,-0.687 0,-0.469 -0.407,-1.016 -1.203,-1.016 -0.954,0 -1.688,0.922 -1.688,2.297 0,2.61 2.844,5.219 5.672,5.219 1.734,0 3.312,-1.078 3.312,-3.109 0,-2.704 -2.109,-4.422 -2.375,-4.422 -0.125,0 -0.218,0.125 -0.218,0.203 0,0.062 0.015,0.078 0.203,0.25 1.687,1.281 1.984,3.172 1.984,3.937 0,1.375 -1.187,1.813 -2.187,1.813 -0.703,0 -2.625,-0.344 -3.985,-1.063 -0.937,-0.515 -2.015,-1.593 -2.015,-2.843 0,-0.266 0.047,-1.36 0.906,-1.766 z"
         style="fill:#000000;fill-opacity:1;fill-rule:nonzero;stroke:none"
         id="path144" /><path
         d="m 15.621,164.164 v -3.859 c 0,-0.188 0,-0.438 -0.25,-0.438 -0.266,0 -0.266,0.235 -0.266,0.438 v 3.859 h -3.859 c -0.187,0 -0.437,0 -0.437,0.25 0,0.266 0.234,0.266 0.437,0.266 h 3.859 v 3.843 c 0,0.204 0,0.454 0.25,0.454 0.266,0 0.266,-0.235 0.266,-0.454 v -3.843 h 3.844 c 0.203,0 0.453,0 0.453,-0.25 0,-0.266 -0.234,-0.266 -0.453,-0.266 z"
         style="fill:#000000;fill-opacity:1;fill-rule:nonzero;stroke:none"
         id="path146" /><path
         d="m 30.93,152.516 c -0.016,0 -0.063,0 -0.125,0.062 -0.922,0.906 -3.485,3.36 -9.688,3.36 -6.219,0 -8.75,-2.407 -9.75,-3.391 -0.015,0 -0.062,-0.031 -0.125,-0.031 -0.047,0 -0.094,0.062 -0.094,0.14 0,0.219 1.469,1.906 3.672,2.891 2.203,0.984 4.36,1.265 6.266,1.265 1.437,0 3.875,-0.14 6.437,-1.328 2.079,-0.953 3.532,-2.593 3.532,-2.828 0,-0.109 -0.047,-0.14 -0.125,-0.14 z"
         style="fill:#000000;fill-opacity:1;fill-rule:nonzero;stroke:none"
         id="path148" /><path
         d="m 17.945,142.113 c 0.11,0.625 0.594,0.875 0.969,0.875 0.484,0 0.641,-0.375 0.641,-0.656 0,-0.609 -0.516,-1.016 -1.047,-1.016 -0.844,0 -1.219,0.954 -1.219,1.782 0,1.218 1.188,1.906 1.563,2.078 -1.485,0.453 -1.563,1.687 -1.563,2.047 0,2.031 2.609,3.109 3.047,3.109 0.078,0 0.172,-0.078 0.172,-0.219 0,-0.156 -0.11,-0.203 -0.188,-0.234 -2.218,-0.672 -2.64,-2.016 -2.64,-2.594 0,-0.89 0.843,-1.078 1.312,-1.078 0.438,0 0.906,0.125 1.86,0.359 l 2.734,0.688 c 1.187,0.297 2.281,0.875 2.281,1.922 0,0.109 0,0.609 -0.25,1.015 -0.14,-0.718 -0.734,-0.875 -0.984,-0.875 -0.391,0 -0.641,0.297 -0.641,0.688 0,0.469 0.422,0.984 1.063,0.984 0.843,0 1.218,-0.937 1.218,-1.781 0,-0.969 -0.765,-1.641 -1.578,-2.062 1.172,-0.313 1.578,-1.313 1.578,-2.047 0,-2.032 -2.609,-3.11 -3.046,-3.11 -0.11,0 -0.188,0.078 -0.188,0.203 0,0.172 0.109,0.204 0.266,0.25 1.75,0.547 2.562,1.704 2.562,2.594 0,0.703 -0.515,1.078 -1.328,1.078 -0.437,0 -0.766,-0.078 -2.078,-0.406 l -2.703,-0.687 c -1.203,-0.297 -2.078,-0.985 -2.078,-1.891 0,-0.047 0,-0.609 0.265,-1.016 z"
         style="fill:#000000;fill-opacity:1;fill-rule:nonzero;stroke:none"
         id="path150" /><path
         d="m 21.117,135.23 c -1.437,0 -3.875,0.141 -6.437,1.329 -2.078,0.953 -3.532,2.593 -3.532,2.828 0,0.062 0.016,0.14 0.125,0.14 0.032,0 0.063,-0.015 0.094,-0.031 1,-0.969 3.531,-3.391 9.719,-3.391 6.219,0 8.75,2.407 9.75,3.391 0.031,0.016 0.062,0.031 0.094,0.031 0.093,0 0.125,-0.078 0.125,-0.14 0,-0.219 -1.485,-1.907 -3.672,-2.891 -2.203,-0.984 -4.36,-1.266 -6.266,-1.266 z"
         style="fill:#000000;fill-opacity:1;fill-rule:nonzero;stroke:none"
         id="path152" /></g><g
       id="g154"><g
         id="g156"
         clip-path="url(#clipPath160)"><g
           id="g162"><g
             id="g164"><g
               id="g166"
               clip-path="url(#clipPath170)"><g
                 id="g172"><path
                   d="m 70.016,-1 0.082,17.609 0.39,60.27 0.5,54.297 0.633,47.457 0.813,40.004 1.031,32.289 1.312,24.644 1.676,17.325 2.133,10.488 2.723,4.258 3.464,-1.395 4.415,-6.672 5.628,-12.023 7.172,-17.969 9.137,-24.727 13.176,-35.527 13.172,-31.558 13.175,-24.926 13.176,-18.055 13.176,-12.461 13.176,-8.582 13.172,-6.109 13.175,-4.371 13.176,-3.274 13.176,-2.328 13.176,-0.121 13.172,1.535 13.175,2.844 13.176,5.031 13.176,7.137 13.176,8.008 13.176,7.964 13.171,7.829 13.176,7.793 13.176,6.933 13.176,5.762 13.176,6.754 13.171,6.445 13.176,3.754 13.176,2.738 13.176,2.481 13.176,2.789 13.171,1.988 13.176,5.09"
                   style="fill:none;stroke:#1e75b3;stroke-width:1;stroke-linecap:square;stroke-linejoin:round;stroke-miterlimit:10;stroke-dasharray:none;stroke-opacity:1"
                   id="path174" /></g></g></g></g></g></g><g
       id="g176"><g
         id="g178"
         clip-path="url(#clipPath182)"><g
           id="g184"><g
             id="g186"><g
               id="g188"
               clip-path="url(#clipPath192)"><g
                 id="g194"><path
                   d="M 68.676,190.418 H 493.199"
                   style="fill:none;stroke:#000000;stroke-width:0.5;stroke-linecap:butt;stroke-linejoin:round;stroke-miterlimit:10;stroke-dasharray:0.5, 0.825;stroke-dashoffset:0;stroke-opacity:1"
                   id="path196" /></g></g></g></g></g></g><g
       id="g198"><path
         d="M 77.16,306.852 V 15.77"
         style="fill:none;stroke:#000000;stroke-width:0.8;stroke-linecap:square;stroke-linejoin:miter;stroke-miterlimit:10;stroke-dasharray:none;stroke-opacity:1"
         id="path200" /><path
         d="M 493.199,306.852 V 15.77"
         style="fill:none;stroke:#000000;stroke-width:0.8;stroke-linecap:square;stroke-linejoin:miter;stroke-miterlimit:10;stroke-dasharray:none;stroke-opacity:1"
         id="path202" /><path
         d="M 77.16,306.852 H 493.199"
         style="fill:none;stroke:#000000;stroke-width:0.8;stroke-linecap:square;stroke-linejoin:miter;stroke-miterlimit:10;stroke-dasharray:none;stroke-opacity:1"
         id="path204" /><path
         d="M 77.16,15.77 H 493.199"
         style="fill:none;stroke:#000000;stroke-width:0.8;stroke-linecap:square;stroke-linejoin:miter;stroke-miterlimit:10;stroke-dasharray:none;stroke-opacity:1"
         id="path206" /><path
         d="m 159.547,299.852 h 323.851 c 1.868,0 2.801,-0.934 2.801,-2.801 v -20.442 c 0,-1.867 -0.933,-2.797 -2.801,-2.797 H 159.547 c -1.867,0 -2.801,0.93 -2.801,2.797 v 20.442 c 0,1.867 0.934,2.801 2.801,2.801 z"
         style="fill:#ffffff;fill-opacity:0.8;fill-rule:nonzero;stroke:none"
         id="path208" /><path
         d="m 159.547,299.852 h 323.851 c 1.868,0 2.801,-0.934 2.801,-2.801 v -20.442 c 0,-1.867 -0.933,-2.797 -2.801,-2.797 H 159.547 c -1.867,0 -2.801,0.93 -2.801,2.797 v 20.442 c 0,1.867 0.934,2.801 2.801,2.801 z"
         style="fill:none;stroke:#cacaca;stroke-width:1;stroke-linecap:butt;stroke-linejoin:miter;stroke-miterlimit:10;stroke-dasharray:none;stroke-opacity:0.8"
         id="path210" /><path
         d="m 162.344,285.863 h 28"
         style="fill:none;stroke:#1e75b3;stroke-width:1;stroke-linecap:square;stroke-linejoin:round;stroke-miterlimit:10;stroke-dasharray:none;stroke-opacity:1"
         id="path212" /><path
         d="m 204.578,282.297 c 0,-0.516 0.031,-0.656 1.078,-0.656 h 0.313 v -0.407 c -0.328,0.032 -1.531,0.032 -1.953,0.032 -0.422,0 -1.625,0 -1.969,-0.032 v 0.407 h 0.312 c 1.047,0 1.079,0.14 1.079,0.656 v 7.406 c 0,0.516 -0.032,0.656 -1.079,0.656 h -0.312 v 0.407 c 0.344,-0.032 1.531,-0.032 1.953,-0.032 0.422,0 1.641,0 1.969,0.032 v -0.407 h -0.313 c -1.047,0 -1.078,-0.14 -1.078,-0.656 z"
         style="fill:#000000;fill-opacity:1;fill-rule:nonzero;stroke:none"
         id="path214" /><path
         d="m 212.672,287.375 c 0,-1.297 0,-1.687 -0.313,-2.141 -0.406,-0.531 -1.062,-0.625 -1.531,-0.625 -1.359,0 -1.89,1.157 -2,1.438 h -0.016 v -1.438 l -1.89,0.157 v 0.406 c 0.937,0 1.047,0.094 1.047,0.781 v 3.781 c 0,0.625 -0.141,0.625 -1.047,0.625 v 0.407 c 0.359,-0.032 1.109,-0.032 1.5,-0.032 0.406,0 1.156,0 1.516,0.032 v -0.407 c -0.891,0 -1.063,0 -1.063,-0.625 v -2.593 c 0,-1.469 0.969,-2.25 1.828,-2.25 0.875,0 1.063,0.718 1.063,1.562 v 3.281 c 0,0.625 -0.141,0.625 -1.063,0.625 v 0.407 c 0.375,-0.032 1.125,-0.032 1.516,-0.032 0.406,0 1.156,0 1.515,0.032 v -0.407 c -0.687,0 -1.046,0 -1.062,-0.421 z"
         style="fill:#000000;fill-opacity:1;fill-rule:nonzero;stroke:none"
         id="path216" /><path
         d="m 216.008,285.156 h 1.969 v -0.406 h -1.969 v -2.562 h -0.313 c -0.015,1.312 -0.515,2.64 -1.781,2.687 v 0.281 h 1.188 v 3.875 c 0,1.547 1.031,1.875 1.765,1.875 0.891,0 1.344,-0.859 1.344,-1.875 v -0.797 h -0.313 V 289 c 0,1.016 -0.39,1.594 -0.937,1.594 -0.953,0 -0.953,-1.297 -0.953,-1.532 z"
         style="fill:#000000;fill-opacity:1;fill-rule:nonzero;stroke:none"
         id="path218" /><path
         d="m 221.293,287.516 c 0,-1.36 0.562,-2.625 1.641,-2.625 0.109,0 0.14,0 0.187,0.015 -0.109,0.063 -0.328,0.141 -0.328,0.516 0,0.406 0.312,0.562 0.547,0.562 0.265,0 0.547,-0.187 0.547,-0.562 0,-0.422 -0.375,-0.813 -0.969,-0.813 -1.188,0 -1.594,1.282 -1.672,1.547 h -0.016 v -1.547 l -1.875,0.157 v 0.406 c 0.954,0 1.063,0.094 1.063,0.781 v 3.781 c 0,0.625 -0.156,0.625 -1.063,0.625 v 0.407 c 0.391,-0.032 1.157,-0.032 1.579,-0.032 0.375,0 1.359,0 1.687,0.032 v -0.407 h -0.281 c -1.016,0 -1.047,-0.156 -1.047,-0.656 z"
         style="fill:#000000;fill-opacity:1;fill-rule:nonzero;stroke:none"
         id="path220" /><path
         d="m 226.684,282.172 c 0,-0.36 -0.282,-0.688 -0.672,-0.688 -0.375,0 -0.672,0.297 -0.672,0.672 0,0.422 0.328,0.688 0.672,0.688 0.422,0 0.672,-0.36 0.672,-0.672 z m -1.922,2.594 v 0.406 c 0.89,0 1.015,0.078 1.015,0.766 v 3.796 c 0,0.625 -0.14,0.625 -1.062,0.625 v 0.407 c 0.39,-0.032 1.062,-0.032 1.469,-0.032 0.156,0 0.968,0 1.437,0.032 v -0.407 c -0.906,0 -0.953,-0.062 -0.953,-0.609 v -5.141 z"
         style="fill:#000000;fill-opacity:1;fill-rule:nonzero;stroke:none"
         id="path222" /><path
         d="m 234.246,287.375 c 0,-1.297 0,-1.687 -0.312,-2.141 -0.407,-0.531 -1.063,-0.625 -1.532,-0.625 -1.359,0 -1.89,1.157 -2,1.438 h -0.015 v -1.438 l -1.891,0.157 v 0.406 c 0.938,0 1.047,0.094 1.047,0.781 v 3.781 c 0,0.625 -0.141,0.625 -1.047,0.625 v 0.407 c 0.359,-0.032 1.109,-0.032 1.5,-0.032 0.406,0 1.156,0 1.516,0.032 v -0.407 c -0.891,0 -1.063,0 -1.063,-0.625 v -2.593 c 0,-1.469 0.969,-2.25 1.828,-2.25 0.875,0 1.063,0.718 1.063,1.562 v 3.281 c 0,0.625 -0.141,0.625 -1.063,0.625 v 0.407 c 0.375,-0.032 1.125,-0.032 1.516,-0.032 0.406,0 1.156,0 1.516,0.032 v -0.407 c -0.688,0 -1.047,0 -1.063,-0.421 z"
         style="fill:#000000;fill-opacity:1;fill-rule:nonzero;stroke:none"
         id="path224" /><path
         d="m 240.195,284.859 c 0,-0.25 0,-0.312 -0.14,-0.312 -0.11,0 -0.375,0.297 -0.469,0.422 -0.438,-0.344 -0.875,-0.422 -1.313,-0.422 -1.687,0 -2.203,0.922 -2.203,1.687 0,0.157 0,0.641 0.532,1.125 0.453,0.391 0.921,0.485 1.562,0.61 0.781,0.156 0.953,0.203 1.297,0.484 0.266,0.203 0.437,0.516 0.437,0.906 0,0.594 -0.343,1.266 -1.578,1.266 -0.922,0 -1.593,-0.531 -1.89,-1.922 -0.063,-0.25 -0.063,-0.265 -0.078,-0.281 -0.016,-0.063 -0.079,-0.063 -0.125,-0.063 -0.157,0 -0.157,0.079 -0.157,0.329 v 1.89 c 0,0.25 0,0.328 0.141,0.328 0.078,0 0.094,-0.015 0.328,-0.312 0.063,-0.094 0.063,-0.125 0.281,-0.344 0.532,0.656 1.282,0.656 1.516,0.656 1.469,0 2.187,-0.812 2.187,-1.906 0,-0.766 -0.453,-1.203 -0.578,-1.328 -0.5,-0.438 -0.875,-0.516 -1.797,-0.688 -0.421,-0.078 -1.437,-0.281 -1.437,-1.109 0,-0.437 0.281,-1.078 1.547,-1.078 1.515,0 1.594,1.297 1.625,1.734 0.015,0.11 0.109,0.11 0.156,0.11 0.156,0 0.156,-0.079 0.156,-0.329 z"
         style="fill:#000000;fill-opacity:1;fill-rule:nonzero;stroke:none"
         id="path226" /><path
         d="m 243.422,282.172 c 0,-0.36 -0.281,-0.688 -0.672,-0.688 -0.375,0 -0.672,0.297 -0.672,0.672 0,0.422 0.328,0.688 0.672,0.688 0.422,0 0.672,-0.36 0.672,-0.672 z m -1.922,2.594 v 0.406 c 0.891,0 1.016,0.078 1.016,0.766 v 3.796 c 0,0.625 -0.141,0.625 -1.063,0.625 v 0.407 c 0.391,-0.032 1.063,-0.032 1.469,-0.032 0.156,0 0.969,0 1.437,0.032 v -0.407 c -0.906,0 -0.953,-0.062 -0.953,-0.609 v -5.141 z"
         style="fill:#000000;fill-opacity:1;fill-rule:nonzero;stroke:none"
         id="path228" /><path
         d="m 249.828,285.609 c -0.156,0 -0.672,0 -0.672,0.563 0,0.344 0.235,0.578 0.563,0.578 0.328,0 0.593,-0.203 0.593,-0.609 0,-0.922 -0.984,-1.594 -2.109,-1.594 -1.641,0 -2.937,1.453 -2.937,3.203 0,1.781 1.343,3.156 2.922,3.156 1.843,0 2.265,-1.672 2.265,-1.797 0,-0.125 -0.109,-0.125 -0.141,-0.125 -0.124,0 -0.14,0.032 -0.187,0.204 -0.313,0.984 -1.063,1.406 -1.813,1.406 -0.859,0 -1.984,-0.735 -1.984,-2.86 0,-2.312 1.188,-2.89 1.891,-2.89 0.531,0 1.297,0.218 1.609,0.765 z"
         style="fill:#000000;fill-opacity:1;fill-rule:nonzero;stroke:none"
         id="path230" /><path
         d="m 264.492,281.266 c 0,-0.25 0,-0.328 -0.14,-0.328 -0.079,0 -0.094,0.031 -0.172,0.171 l -0.688,1.11 c -0.625,-0.781 -1.578,-1.281 -2.578,-1.281 -2.562,0 -4.766,2.203 -4.766,5.062 0,2.875 2.235,5.062 4.766,5.062 2.281,0 3.578,-2 3.578,-3.531 0,-0.156 0,-0.234 -0.156,-0.234 -0.141,0 -0.141,0.062 -0.141,0.156 -0.125,2.219 -1.75,3.203 -3.109,3.203 -0.969,0 -3.641,-0.594 -3.641,-4.656 0,-4.031 2.625,-4.656 3.625,-4.656 1.469,0 2.75,1.25 3.032,3.344 0.031,0.156 0.031,0.203 0.203,0.203 0.187,0 0.187,-0.047 0.187,-0.313 z"
         style="fill:#000000;fill-opacity:1;fill-rule:nonzero;stroke:none"
         id="path232" /><path
         d="m 271.465,287.375 c 0,-1.297 0,-1.687 -0.313,-2.141 -0.406,-0.531 -1.062,-0.625 -1.531,-0.625 -1.203,0 -1.766,0.907 -1.953,1.344 h -0.016 v -4.875 l -1.937,0.156 v 0.407 c 0.937,0 1.047,0.093 1.047,0.781 v 7.312 c 0,0.625 -0.141,0.625 -1.047,0.625 v 0.407 c 0.359,-0.032 1.109,-0.032 1.5,-0.032 0.406,0 1.156,0 1.515,0.032 v -0.407 c -0.89,0 -1.062,0 -1.062,-0.625 v -2.593 c 0,-1.469 0.969,-2.25 1.828,-2.25 0.875,0 1.063,0.718 1.063,1.562 v 3.281 c 0,0.625 -0.141,0.625 -1.063,0.625 v 0.407 c 0.375,-0.032 1.125,-0.032 1.516,-0.032 0.406,0 1.156,0 1.515,0.032 v -0.407 c -0.687,0 -1.047,0 -1.062,-0.421 z"
         style="fill:#000000;fill-opacity:1;fill-rule:nonzero;stroke:none"
         id="path234" /><path
         d="m 278.227,287.047 c 0,-0.766 0,-1.313 -0.625,-1.859 -0.485,-0.454 -1.11,-0.641 -1.719,-0.641 -1.156,0 -2.031,0.75 -2.031,1.656 0,0.406 0.265,0.594 0.593,0.594 0.328,0 0.563,-0.235 0.563,-0.563 0,-0.578 -0.5,-0.578 -0.703,-0.578 0.312,-0.578 0.984,-0.828 1.547,-0.828 0.64,0 1.468,0.531 1.468,1.781 v 0.563 c -2.812,0.031 -3.875,1.203 -3.875,2.281 0,1.109 1.282,1.453 2.141,1.453 0.922,0 1.547,-0.562 1.812,-1.234 0.063,0.656 0.485,1.156 1.094,1.156 0.281,0 1.094,-0.187 1.094,-1.297 v -0.781 h -0.297 v 0.781 c 0,0.781 -0.344,0.907 -0.531,0.907 -0.531,0 -0.531,-0.75 -0.531,-0.954 z m -0.907,1.75 c 0,1.375 -1.031,1.828 -1.625,1.828 -0.687,0 -1.25,-0.5 -1.25,-1.172 0,-1.844 2.375,-2.015 2.875,-2.031 z"
         style="fill:#000000;fill-opacity:1;fill-rule:nonzero;stroke:none"
         id="path236" /><path
         d="m 281.984,287.516 c 0,-1.36 0.563,-2.625 1.641,-2.625 0.109,0 0.141,0 0.187,0.015 -0.109,0.063 -0.328,0.141 -0.328,0.516 0,0.406 0.313,0.562 0.547,0.562 0.266,0 0.547,-0.187 0.547,-0.562 0,-0.422 -0.375,-0.813 -0.969,-0.813 -1.187,0 -1.593,1.282 -1.671,1.547 h -0.016 v -1.547 l -1.875,0.157 v 0.406 c 0.953,0 1.062,0.094 1.062,0.781 v 3.781 c 0,0.625 -0.156,0.625 -1.062,0.625 v 0.407 c 0.391,-0.032 1.156,-0.032 1.578,-0.032 0.375,0 1.359,0 1.687,0.032 v -0.407 h -0.281 c -1.015,0 -1.047,-0.156 -1.047,-0.656 z"
         style="fill:#000000;fill-opacity:1;fill-rule:nonzero;stroke:none"
         id="path238" /><path
         d="m 294.957,287.375 c 0,-1.297 0,-1.687 -0.312,-2.141 -0.407,-0.531 -1.063,-0.625 -1.532,-0.625 -1.172,0 -1.75,0.844 -1.968,1.391 -0.204,-1.078 -0.954,-1.391 -1.829,-1.391 -1.359,0 -1.89,1.157 -2,1.438 h -0.015 v -1.438 l -1.891,0.157 v 0.406 c 0.938,0 1.047,0.094 1.047,0.781 v 3.781 c 0,0.625 -0.141,0.625 -1.047,0.625 v 0.407 c 0.36,-0.032 1.11,-0.032 1.5,-0.032 0.406,0 1.156,0 1.516,0.032 v -0.407 c -0.891,0 -1.063,0 -1.063,-0.625 v -2.593 c 0,-1.469 0.969,-2.25 1.828,-2.25 0.875,0 1.063,0.718 1.063,1.562 v 3.281 c 0,0.625 -0.141,0.625 -1.063,0.625 v 0.407 c 0.375,-0.032 1.125,-0.032 1.516,-0.032 0.406,0 1.156,0 1.516,0.032 v -0.407 c -0.891,0 -1.063,0 -1.063,-0.625 v -2.593 c 0,-1.469 0.969,-2.25 1.828,-2.25 0.875,0 1.063,0.718 1.063,1.562 v 3.281 c 0,0.625 -0.156,0.625 -1.063,0.625 v 0.407 c 0.375,-0.032 1.125,-0.032 1.516,-0.032 0.406,0 1.156,0 1.516,0.032 v -0.407 c -0.688,0 -1.047,0 -1.063,-0.421 z"
         style="fill:#000000;fill-opacity:1;fill-rule:nonzero;stroke:none"
         id="path240" /><path
         d="m 299.043,290.828 c 0,-0.875 -0.297,-1.422 -0.828,-1.422 -0.406,0 -0.672,0.313 -0.672,0.672 0,0.375 0.266,0.688 0.672,0.688 0.219,0 0.375,-0.094 0.453,-0.172 0.047,-0.032 0.062,-0.032 0.062,-0.032 0.032,0 0.032,0.188 0.032,0.266 0,0.891 -0.36,1.719 -0.969,2.36 -0.063,0.046 -0.078,0.078 -0.078,0.124 0,0.079 0.078,0.141 0.14,0.141 0.125,0 1.188,-1.031 1.188,-2.625 z"
         style="fill:#000000;fill-opacity:1;fill-rule:nonzero;stroke:none"
         id="path242" /><path
         d="m 315.645,284.047 c 0,-1.781 -0.782,-3.125 -2.485,-3.125 -1.453,0 -2.687,1.172 -2.781,1.266 -1.109,1.093 -1.531,2.359 -1.531,2.39 0,0.078 0.062,0.094 0.14,0.094 0.266,0 0.485,-0.141 0.703,-0.297 0.25,-0.187 0.266,-0.219 0.407,-0.547 0.125,-0.281 0.453,-0.953 0.968,-1.547 0.329,-0.375 0.61,-0.578 1.172,-0.578 1.36,0 2.219,1.109 2.219,2.938 0,2.843 -2.031,5.671 -4.609,5.671 -1.985,0 -3.063,-1.578 -3.063,-3.578 0,-1.906 0.969,-3.984 3.016,-5.187 0.14,-0.094 0.547,-0.344 0.547,-0.516 0,-0.109 -0.11,-0.109 -0.141,-0.109 -0.484,0 -4.609,2.219 -4.609,6.406 0,1.953 1.015,3.75 3.328,3.75 2.719,0 6.719,-2.734 6.719,-7.031 z"
         style="fill:#000000;fill-opacity:1;fill-rule:nonzero;stroke:none"
         id="path244" /><path
         d="m 320.824,294.156 c 0,-0.047 0,-0.062 -0.234,-0.312 -1.391,-1.406 -2.172,-3.703 -2.172,-6.547 0,-2.719 0.656,-5.047 2.266,-6.688 0.14,-0.125 0.14,-0.156 0.14,-0.203 0,-0.078 -0.062,-0.109 -0.125,-0.109 -0.172,0 -1.328,1.015 -2,2.375 -0.719,1.406 -1.031,2.906 -1.031,4.625 0,1.234 0.187,2.891 0.906,4.391 0.828,1.671 1.969,2.578 2.125,2.578 0.063,0 0.125,-0.032 0.125,-0.11 z"
         style="fill:#000000;fill-opacity:1;fill-rule:nonzero;stroke:none"
         id="path246" /><path
         d="m 328.059,287.234 c 0,-1.359 -0.766,-2.625 -2.235,-2.625 -1.828,0 -3.656,2 -3.656,3.985 0,1.203 0.75,2.312 2.172,2.312 0.859,0 1.89,-0.344 2.89,-1.172 0.188,0.782 0.625,1.172 1.219,1.172 0.766,0 1.141,-0.781 1.141,-0.968 0,-0.126 -0.094,-0.126 -0.141,-0.126 -0.109,0 -0.125,0.047 -0.172,0.157 -0.125,0.343 -0.437,0.656 -0.781,0.656 -0.437,0 -0.437,-0.891 -0.437,-1.75 1.437,-1.703 1.765,-3.453 1.765,-3.469 0,-0.125 -0.109,-0.125 -0.156,-0.125 -0.125,0 -0.141,0.047 -0.188,0.297 -0.187,0.61 -0.546,1.703 -1.421,2.844 z m -0.875,2.157 c -1.219,1.109 -2.329,1.234 -2.813,1.234 -1,0 -1.266,-0.875 -1.266,-1.531 0,-0.61 0.297,-2.032 0.735,-2.797 0.562,-0.969 1.359,-1.406 1.984,-1.406 1.344,0 1.344,1.765 1.344,2.937 0,0.36 -0.016,0.719 -0.016,1.063 0,0.281 0.016,0.359 0.032,0.5 z"
         style="fill:#000000;fill-opacity:1;fill-rule:nonzero;stroke:none"
         id="path248" /><path
         d="m 334.895,283.969 h -0.282 c -0.015,0.125 -0.093,0.703 -0.218,0.859 -0.063,0.094 -0.735,0.094 -0.922,0.094 h -1.75 L 332.691,284 c 1.61,-1.391 2.204,-1.906 2.204,-2.891 0,-1.125 -0.938,-1.906 -2.125,-1.906 -1.125,0 -1.891,0.891 -1.891,1.766 0,0.5 0.422,0.547 0.5,0.547 0.219,0 0.516,-0.157 0.516,-0.516 0,-0.281 -0.204,-0.5 -0.516,-0.5 -0.047,0 -0.078,0 -0.109,0 0.234,-0.688 0.859,-1 1.39,-1 0.985,0 1.328,0.922 1.328,1.609 0,0.985 -0.75,1.797 -1.218,2.313 l -1.782,1.922 c -0.109,0.109 -0.109,0.14 -0.109,0.359 h 3.734 z"
         style="fill:#000000;fill-opacity:1;fill-rule:nonzero;stroke:none"
         id="path250" /><path
         d="m 334.168,290.555 c -0.422,0.047 -0.453,0.375 -0.453,0.437 0,0.172 0.125,0.297 0.312,0.297 0.266,0 0.453,-0.219 0.453,-0.547 0,-0.484 -0.468,-0.844 -1.203,-0.844 -1.297,0 -1.672,0.969 -1.672,1.422 0,0.375 0.188,0.563 0.313,0.688 0.187,0.187 0.453,0.234 0.812,0.312 0.438,0.078 0.532,0.11 0.704,0.235 0.156,0.109 0.25,0.265 0.25,0.468 0,0.266 -0.235,1.047 -1.422,1.047 -0.219,0 -0.907,-0.031 -1.125,-0.468 0.5,0 0.593,-0.391 0.593,-0.532 0,-0.297 -0.265,-0.359 -0.375,-0.359 -0.171,0 -0.546,0.141 -0.546,0.656 0,0.594 0.625,0.953 1.453,0.953 1.64,0 2,-1.203 2,-1.625 0,-0.375 -0.203,-0.609 -0.328,-0.718 -0.25,-0.266 -0.563,-0.329 -0.907,-0.391 -0.109,-0.031 -0.328,-0.078 -0.359,-0.078 -0.328,-0.078 -0.5,-0.266 -0.5,-0.516 0,-0.109 0.062,-0.422 0.344,-0.625 0.265,-0.219 0.64,-0.234 0.765,-0.234 0.344,0 0.75,0.109 0.891,0.422 z"
         style="fill:#000000;fill-opacity:1;fill-rule:nonzero;stroke:none"
         id="path252" /><path
         d="m 339.832,287.297 c 0,-1.063 -0.141,-2.797 -0.922,-4.422 -0.828,-1.672 -1.969,-2.578 -2.125,-2.578 -0.047,0 -0.125,0.031 -0.125,0.109 0,0.047 0,0.078 0.235,0.313 1.406,1.406 2.187,3.719 2.187,6.562 0,2.703 -0.656,5.031 -2.281,6.672 -0.141,0.141 -0.141,0.156 -0.141,0.203 0,0.078 0.078,0.11 0.125,0.11 0.188,0 1.328,-1 2.016,-2.375 0.703,-1.422 1.031,-2.922 1.031,-4.594 z"
         style="fill:#000000;fill-opacity:1;fill-rule:nonzero;stroke:none"
         id="path254" /><path
         d="m 355.75,287.375 c 0,-1.297 0,-1.687 -0.312,-2.141 -0.407,-0.531 -1.063,-0.625 -1.532,-0.625 -1.172,0 -1.75,0.844 -1.968,1.391 -0.204,-1.078 -0.954,-1.391 -1.829,-1.391 -1.359,0 -1.89,1.157 -2,1.438 h -0.015 v -1.438 l -1.891,0.157 v 0.406 c 0.938,0 1.047,0.094 1.047,0.781 v 3.781 c 0,0.625 -0.141,0.625 -1.047,0.625 v 0.407 c 0.359,-0.032 1.109,-0.032 1.5,-0.032 0.406,0 1.156,0 1.516,0.032 v -0.407 c -0.891,0 -1.063,0 -1.063,-0.625 v -2.593 c 0,-1.469 0.969,-2.25 1.828,-2.25 0.875,0 1.063,0.718 1.063,1.562 v 3.281 c 0,0.625 -0.141,0.625 -1.063,0.625 v 0.407 c 0.375,-0.032 1.125,-0.032 1.516,-0.032 0.406,0 1.156,0 1.516,0.032 v -0.407 c -0.891,0 -1.063,0 -1.063,-0.625 v -2.593 c 0,-1.469 0.969,-2.25 1.828,-2.25 0.875,0 1.063,0.718 1.063,1.562 v 3.281 c 0,0.625 -0.156,0.625 -1.063,0.625 v 0.407 c 0.375,-0.032 1.125,-0.032 1.516,-0.032 0.406,0 1.156,0 1.515,0.032 v -0.407 c -0.687,0 -1.046,0 -1.062,-0.421 z"
         style="fill:#000000;fill-opacity:1;fill-rule:nonzero;stroke:none"
         id="path256" /><path
         d="m 362.508,287.047 c 0,-0.766 0,-1.313 -0.625,-1.859 -0.485,-0.454 -1.11,-0.641 -1.719,-0.641 -1.156,0 -2.031,0.75 -2.031,1.656 0,0.406 0.265,0.594 0.594,0.594 0.328,0 0.562,-0.235 0.562,-0.563 0,-0.578 -0.5,-0.578 -0.703,-0.578 0.312,-0.578 0.984,-0.828 1.547,-0.828 0.64,0 1.469,0.531 1.469,1.781 v 0.563 c -2.813,0.031 -3.875,1.203 -3.875,2.281 0,1.109 1.281,1.453 2.14,1.453 0.922,0 1.547,-0.562 1.813,-1.234 0.062,0.656 0.484,1.156 1.093,1.156 0.282,0 1.094,-0.187 1.094,-1.297 v -0.781 h -0.297 v 0.781 c 0,0.781 -0.343,0.907 -0.531,0.907 -0.531,0 -0.531,-0.75 -0.531,-0.954 z m -0.906,1.75 c 0,1.375 -1.032,1.828 -1.625,1.828 -0.688,0 -1.25,-0.5 -1.25,-1.172 0,-1.844 2.375,-2.015 2.875,-2.031 z"
         style="fill:#000000;fill-opacity:1;fill-rule:nonzero;stroke:none"
         id="path258" /><path
         d="m 366.281,285.156 h 1.969 v -0.406 h -1.969 v -2.562 h -0.312 c -0.016,1.312 -0.516,2.64 -1.781,2.687 v 0.281 h 1.187 v 3.875 c 0,1.547 1.031,1.875 1.766,1.875 0.89,0 1.343,-0.859 1.343,-1.875 v -0.797 h -0.312 V 289 c 0,1.016 -0.391,1.594 -0.938,1.594 -0.953,0 -0.953,-1.297 -0.953,-1.532 z"
         style="fill:#000000;fill-opacity:1;fill-rule:nonzero;stroke:none"
         id="path260" /><path
         d="m 374.281,285.609 c -0.156,0 -0.672,0 -0.672,0.563 0,0.344 0.235,0.578 0.563,0.578 0.328,0 0.594,-0.203 0.594,-0.609 0,-0.922 -0.985,-1.594 -2.11,-1.594 -1.64,0 -2.937,1.453 -2.937,3.203 0,1.781 1.343,3.156 2.922,3.156 1.843,0 2.265,-1.672 2.265,-1.797 0,-0.125 -0.109,-0.125 -0.14,-0.125 -0.125,0 -0.141,0.032 -0.188,0.204 -0.312,0.984 -1.062,1.406 -1.812,1.406 -0.86,0 -1.985,-0.735 -1.985,-2.86 0,-2.312 1.188,-2.89 1.891,-2.89 0.531,0 1.297,0.218 1.609,0.765 z"
         style="fill:#000000;fill-opacity:1;fill-rule:nonzero;stroke:none"
         id="path262" /><path
         d="m 381.129,287.375 c 0,-1.297 0,-1.687 -0.313,-2.141 -0.406,-0.531 -1.062,-0.625 -1.531,-0.625 -1.203,0 -1.765,0.907 -1.953,1.344 h -0.016 v -4.875 l -1.937,0.156 v 0.407 c 0.937,0 1.047,0.093 1.047,0.781 v 7.312 c 0,0.625 -0.141,0.625 -1.047,0.625 v 0.407 c 0.359,-0.032 1.109,-0.032 1.5,-0.032 0.406,0 1.156,0 1.516,0.032 v -0.407 c -0.891,0 -1.063,0 -1.063,-0.625 v -2.593 c 0,-1.469 0.969,-2.25 1.828,-2.25 0.875,0 1.063,0.718 1.063,1.562 v 3.281 c 0,0.625 -0.141,0.625 -1.063,0.625 v 0.407 c 0.375,-0.032 1.125,-0.032 1.516,-0.032 0.406,0 1.156,0 1.515,0.032 v -0.407 c -0.687,0 -1.046,0 -1.062,-0.421 z"
         style="fill:#000000;fill-opacity:1;fill-rule:nonzero;stroke:none"
         id="path264" /><path
         d="m 391.582,294.156 c 0,-0.047 0,-0.062 -0.234,-0.312 -1.391,-1.406 -2.172,-3.703 -2.172,-6.547 0,-2.719 0.656,-5.047 2.265,-6.688 0.141,-0.125 0.141,-0.156 0.141,-0.203 0,-0.078 -0.062,-0.109 -0.125,-0.109 -0.172,0 -1.328,1.015 -2,2.375 -0.719,1.406 -1.031,2.906 -1.031,4.625 0,1.234 0.187,2.891 0.906,4.391 0.828,1.671 1.969,2.578 2.125,2.578 0.063,0 0.125,-0.032 0.125,-0.11 z"
         style="fill:#000000;fill-opacity:1;fill-rule:nonzero;stroke:none"
         id="path266" /><path
         d="m 395.398,286.328 h 2.36 c 1.625,0 3.125,-1.109 3.125,-2.516 0,-1.343 -1.36,-2.578 -3.25,-2.578 h -4.688 v 0.407 h 0.266 c 1.016,0 1.047,0.14 1.047,0.656 v 7.406 c 0,0.516 -0.031,0.656 -1.047,0.656 h -0.266 v 0.407 c 0.328,-0.032 1.469,-0.032 1.875,-0.032 0.422,0 1.563,0 1.907,0.032 v -0.407 h -0.282 c -1.015,0 -1.047,-0.14 -1.047,-0.656 z M 395.367,286 v -3.797 c 0,-0.469 0.031,-0.562 0.641,-0.562 h 1.312 c 2.266,0 2.266,1.578 2.266,2.171 0,0.594 0,2.188 -2.281,2.188 z"
         style="fill:#000000;fill-opacity:1;fill-rule:nonzero;stroke:none"
         id="path268" /><path
         d="m 402.234,281.234 v 0.407 h 0.266 c 1.016,0 1.047,0.14 1.047,0.656 v 7.406 c 0,0.516 -0.031,0.656 -1.047,0.656 h -0.266 v 0.407 h 4.875 c 2.329,0 4.203,-2.094 4.203,-4.672 0,-2.703 -1.89,-4.86 -4.203,-4.86 z m 3.063,9.125 c -0.609,0 -0.641,-0.093 -0.641,-0.562 v -7.594 c 0,-0.469 0.032,-0.562 0.641,-0.562 h 1.469 c 1.156,0 2.078,0.562 2.64,1.484 0.641,0.984 0.641,2.391 0.641,2.953 0,0.781 -0.016,2.094 -0.813,3.125 -0.468,0.578 -1.296,1.156 -2.468,1.156 z"
         style="fill:#000000;fill-opacity:1;fill-rule:nonzero;stroke:none"
         id="path270" /><path
         d="m 420.027,281.266 h -7.39 v 0.406 h 0.265 c 1.016,0 1.047,0.14 1.047,0.656 v 7.375 c 0,0.516 -0.031,0.656 -1.047,0.656 h -0.265 v 0.407 c 0.328,-0.032 1.578,-0.032 1.984,-0.032 0.5,0 1.719,0 2.125,0.032 v -0.407 h -0.422 c -1.203,0 -1.234,-0.171 -1.234,-0.671 v -3.469 h 1.219 c 1.312,0 1.453,0.453 1.453,1.625 h 0.312 v -3.656 h -0.312 c 0,1.171 -0.141,1.624 -1.453,1.624 h -1.219 v -3.593 c 0,-0.453 0.031,-0.547 0.64,-0.547 h 1.735 c 2.015,0 2.422,0.734 2.609,2.703 h 0.313 z"
         style="fill:#000000;fill-opacity:1;fill-rule:nonzero;stroke:none"
         id="path272" /><path
         d="m 426.52,287.547 h 3.859 c 0.187,0 0.437,0 0.437,-0.25 0,-0.266 -0.234,-0.266 -0.437,-0.266 h -3.859 v -3.859 c 0,-0.188 0,-0.438 -0.25,-0.438 -0.266,0 -0.266,0.235 -0.266,0.438 v 3.859 h -3.844 c -0.203,0 -0.453,0 -0.453,0.25 0,0.266 0.234,0.266 0.453,0.266 h 3.844 v 3.844 c 0,0.203 0,0.453 0.25,0.453 0.266,0 0.266,-0.235 0.266,-0.453 z"
         style="fill:#000000;fill-opacity:1;fill-rule:nonzero;stroke:none"
         id="path274" /><path
         d="m 434.773,281.5 c -0.093,-0.266 -0.109,-0.266 -0.421,-0.266 h -2.172 v 0.407 h 0.281 c 1,0 1.047,0.14 1.047,0.656 v 7.031 c 0,0.375 0,1.031 -1.328,1.031 v 0.407 c 0.375,-0.032 1.109,-0.032 1.5,-0.032 0.39,0 1.125,0 1.484,0.032 v -0.407 c -1.312,0 -1.312,-0.656 -1.312,-1.031 v -7.625 l 3.375,8.797 c 0.046,0.156 0.093,0.266 0.234,0.266 0.125,0 0.156,-0.063 0.234,-0.282 l 3.391,-8.843 h 0.016 v 8.062 c 0,0.516 -0.047,0.656 -1.047,0.656 h -0.282 v 0.407 c 0.329,-0.032 1.438,-0.032 1.844,-0.032 0.406,0 1.516,0 1.844,0.032 v -0.407 h -0.281 c -1,0 -1.047,-0.14 -1.047,-0.656 v -7.406 c 0,-0.516 0.047,-0.656 1.047,-0.656 h 0.281 v -0.407 h -2.172 c -0.297,0 -0.312,0.016 -0.422,0.282 l -3.047,7.937 z"
         style="fill:#000000;fill-opacity:1;fill-rule:nonzero;stroke:none"
         id="path276" /><path
         d="m 452.41,282.297 c 0,-0.516 0.047,-0.656 1.047,-0.656 h 0.281 v -0.407 c -0.328,0.032 -1.484,0.032 -1.89,0.032 -0.407,0 -1.563,0 -1.891,-0.032 v 0.407 h 0.281 c 1,0 1.047,0.14 1.047,0.656 v 3.312 h -4.172 v -3.312 c 0,-0.516 0.032,-0.656 1.047,-0.656 h 0.281 v -0.407 c -0.343,0.032 -1.484,0.032 -1.89,0.032 -0.422,0 -1.563,0 -1.891,-0.032 v 0.407 h 0.266 c 1.015,0 1.047,0.14 1.047,0.656 v 7.406 c 0,0.516 -0.032,0.656 -1.047,0.656 h -0.266 v 0.407 c 0.328,-0.032 1.469,-0.032 1.875,-0.032 0.422,0 1.563,0 1.906,0.032 v -0.407 h -0.281 c -1.015,0 -1.047,-0.14 -1.047,-0.656 V 286 h 4.172 v 3.703 c 0,0.516 -0.047,0.656 -1.047,0.656 h -0.281 v 0.407 c 0.328,-0.032 1.484,-0.032 1.891,-0.032 0.406,0 1.562,0 1.89,0.032 v -0.407 h -0.281 c -1,0 -1.047,-0.14 -1.047,-0.656 z"
         style="fill:#000000;fill-opacity:1;fill-rule:nonzero;stroke:none"
         id="path278" /><path
         d="m 464.18,286.031 c 0,-2.89 -2.11,-5.093 -4.547,-5.093 -2.485,0 -4.563,2.234 -4.563,5.093 0,2.844 2.11,5.031 4.547,5.031 2.5,0 4.563,-2.218 4.563,-5.031 z m -4.547,4.703 c -1.422,0 -3.266,-1.343 -3.266,-4.906 0,-3.422 1.938,-4.578 3.25,-4.578 1.391,0 3.266,1.203 3.266,4.578 0,3.625 -1.891,4.906 -3.25,4.906 z"
         style="fill:#000000;fill-opacity:1;fill-rule:nonzero;stroke:none"
         id="path280" /><path
         d="m 472.887,287.562 c 0,1.954 -1.328,3.094 -2.641,3.094 -0.828,0 -2.281,-0.562 -2.281,-3 v -5.359 c 0,-0.516 0.031,-0.656 1.047,-0.656 h 0.281 v -0.407 c -0.344,0.032 -1.484,0.032 -1.891,0.032 -0.422,0 -1.562,0 -1.89,-0.032 v 0.407 h 0.265 c 1.016,0 1.047,0.14 1.047,0.656 v 5.281 c 0,2.016 1.625,3.484 3.391,3.484 1.953,0 3.047,-1.906 3.047,-3.296 v -5.282 c 0,-0.843 1.078,-0.843 1.328,-0.843 v -0.407 c -0.36,0.032 -1.11,0.032 -1.5,0.032 -0.406,0 -1.172,0 -1.531,-0.032 v 0.407 c 1.328,0 1.328,0.656 1.328,1.031 z"
         style="fill:#000000;fill-opacity:1;fill-rule:nonzero;stroke:none"
         id="path282" /><path
         d="m 479.109,287.297 c 0,-1.063 -0.14,-2.797 -0.921,-4.422 -0.829,-1.672 -1.969,-2.578 -2.126,-2.578 -0.046,0 -0.124,0.031 -0.124,0.109 0,0.047 0,0.078 0.234,0.313 1.406,1.406 2.187,3.719 2.187,6.562 0,2.703 -0.656,5.031 -2.281,6.672 -0.14,0.141 -0.14,0.156 -0.14,0.203 0,0.078 0.078,0.11 0.124,0.11 0.188,0 1.329,-1 2.016,-2.375 0.703,-1.422 1.031,-2.922 1.031,-4.594 z"
         style="fill:#000000;fill-opacity:1;fill-rule:nonzero;stroke:none"
         id="path284" /></g></g></svg>
