<?xml version="1.0" encoding="UTF-8" standalone="no"?>
<!-- Created with Inkscape (http://www.inkscape.org/) -->

<svg
   version="1.1"
   id="svg2"
   xml:space="preserve"
   width="480"
   height="336"
   viewBox="0 0 480 336"
   sodipodi:docname="lhcb-zcharm-pheno.pdf"
   xmlns:inkscape="http://www.inkscape.org/namespaces/inkscape"
   xmlns:sodipodi="http://sodipodi.sourceforge.net/DTD/sodipodi-0.dtd"
   xmlns="http://www.w3.org/2000/svg"
   xmlns:svg="http://www.w3.org/2000/svg"><defs
     id="defs6"><clipPath
       clipPathUnits="userSpaceOnUse"
       id="clipPath20"><path
         d="M 54.684,52 H 142 V 95 H 54.684 Z"
         id="path18" /></clipPath><clipPath
       clipPathUnits="userSpaceOnUse"
       id="clipPath28"><path
         d="M 0,0 H 360 V 252 H 0 Z"
         id="path26" /></clipPath><clipPath
       clipPathUnits="userSpaceOnUse"
       id="clipPath46"><path
         d="M 54.684,58 H 142 V 89 H 54.684 Z"
         id="path44" /></clipPath><clipPath
       clipPathUnits="userSpaceOnUse"
       id="clipPath54"><path
         d="M 0,0 H 360 V 252 H 0 Z"
         id="path52" /></clipPath><clipPath
       clipPathUnits="userSpaceOnUse"
       id="clipPath72"><path
         d="M 54.684,73 H 142 v 1 H 54.684 Z"
         id="path70" /></clipPath><clipPath
       clipPathUnits="userSpaceOnUse"
       id="clipPath82"><path
         d="M 0,0 H 360 V 252 H 0 Z"
         id="path80" /></clipPath><clipPath
       clipPathUnits="userSpaceOnUse"
       id="clipPath106"><path
         d="m 228,112 h 115.637 v 36 H 228 Z"
         id="path104" /></clipPath><clipPath
       clipPathUnits="userSpaceOnUse"
       id="clipPath114"><path
         d="M 0,0 H 360 V 252 H 0 Z"
         id="path112" /></clipPath><clipPath
       clipPathUnits="userSpaceOnUse"
       id="clipPath130"><path
         d="m 227,112 h 116.637 v 37 H 227 Z"
         id="path128" /></clipPath><clipPath
       clipPathUnits="userSpaceOnUse"
       id="clipPath138"><path
         d="M 0,0 H 360 V 252 H 0 Z"
         id="path136" /></clipPath><clipPath
       clipPathUnits="userSpaceOnUse"
       id="clipPath154"><path
         d="m 228,116 h 115.637 v 28 H 228 Z"
         id="path152" /></clipPath><clipPath
       clipPathUnits="userSpaceOnUse"
       id="clipPath162"><path
         d="M 0,0 H 360 V 252 H 0 Z"
         id="path160" /></clipPath><clipPath
       clipPathUnits="userSpaceOnUse"
       id="clipPath178"><path
         d="m 227,115 h 116.637 v 30 H 227 Z"
         id="path176" /></clipPath><clipPath
       clipPathUnits="userSpaceOnUse"
       id="clipPath186"><path
         d="M 0,0 H 360 V 252 H 0 Z"
         id="path184" /></clipPath><clipPath
       clipPathUnits="userSpaceOnUse"
       id="clipPath202"><path
         d="m 227,129 h 116.637 v 2 H 227 Z"
         id="path200" /></clipPath><clipPath
       clipPathUnits="userSpaceOnUse"
       id="clipPath212"><path
         d="M 0,0 H 360 V 252 H 0 Z"
         id="path210" /></clipPath><clipPath
       clipPathUnits="userSpaceOnUse"
       id="clipPath438"><path
         d="m 86.281,96.379 h 14.242 v 14.242 H 86.281 Z"
         id="path436" /></clipPath><clipPath
       clipPathUnits="userSpaceOnUse"
       id="clipPath448"><path
         d="M 0,0 H 360 V 252 H 0 Z"
         id="path446" /></clipPath><clipPath
       clipPathUnits="userSpaceOnUse"
       id="clipPath464"><path
         d="m 172.965,123.637 h 14.246 v 14.246 h -14.246 z"
         id="path462" /></clipPath><clipPath
       clipPathUnits="userSpaceOnUse"
       id="clipPath474"><path
         d="M 0,0 H 360 V 252 H 0 Z"
         id="path472" /></clipPath><clipPath
       clipPathUnits="userSpaceOnUse"
       id="clipPath490"><path
         d="m 274.102,139.207 h 14.242 v 14.242 h -14.242 z"
         id="path488" /></clipPath><clipPath
       clipPathUnits="userSpaceOnUse"
       id="clipPath500"><path
         d="M 0,0 H 360 V 252 H 0 Z"
         id="path498" /></clipPath></defs><sodipodi:namedview
     id="namedview4"
     pagecolor="#ffffff"
     bordercolor="#666666"
     borderopacity="1.0"
     inkscape:pageshadow="2"
     inkscape:pageopacity="0.0"
     inkscape:pagecheckerboard="0" /><g
     id="g8"
     inkscape:groupmode="layer"
     inkscape:label="lhcb-zcharm-pheno"
     transform="matrix(1.3333333,0,0,1.3333333,0,8.4e-6)"><g
       id="g10"><path
         d="M 54.684,13.551 H 343.637 V 207.832 H 54.684 Z"
         style="fill:#ffffff;fill-opacity:1;fill-rule:nonzero;stroke:none"
         id="path12" /></g><g
       id="g14"><g
         id="g16"
         clip-path="url(#clipPath20)"><g
           id="g22"><g
             id="g24" /><g
             id="g38"><g
               clip-path="url(#clipPath28)"
               id="g36"><g
                 id="g34"><path
                   d="m 54.684,52.883 h 86.684 v 41.23 H 54.684 Z"
                   style="fill:#7f7f7f;fill-opacity:0.5;fill-rule:nonzero;stroke:none"
                   id="path30" /><path
                   d="m 54.684,52.883 h 86.684 v 41.23 H 54.684 Z"
                   style="fill:none;stroke:#7f7f7f;stroke-width:1;stroke-linecap:butt;stroke-linejoin:round;stroke-miterlimit:10;stroke-dasharray:none;stroke-opacity:0.5"
                   id="path32" /></g></g></g></g></g></g><g
       id="g40"><g
         id="g42"
         clip-path="url(#clipPath46)"><g
           id="g48"><g
             id="g50" /><g
             id="g64"><g
               clip-path="url(#clipPath54)"
               id="g62"><g
                 id="g60"><path
                   d="m 54.684,58.512 h 86.684 V 88.489 H 54.684 Z"
                   style="fill:#7f7f7f;fill-opacity:0.7;fill-rule:nonzero;stroke:none"
                   id="path56" /><path
                   d="m 54.684,58.512 h 86.684 V 88.489 H 54.684 Z"
                   style="fill:none;stroke:#7f7f7f;stroke-width:1;stroke-linecap:butt;stroke-linejoin:round;stroke-miterlimit:10;stroke-dasharray:none;stroke-opacity:0.7"
                   id="path58" /></g></g></g></g></g></g><g
       id="g66"><g
         id="g68"
         clip-path="url(#clipPath72)"><g
           id="g74"><g
             id="g76"><g
               id="g78"
               clip-path="url(#clipPath82)"><g
                 id="g84"><path
                   d="m 54.684,73.5 h 86.683 z"
                   style="fill:none;stroke:#000000;stroke-width:1;stroke-linecap:butt;stroke-linejoin:round;stroke-miterlimit:10;stroke-dasharray:none;stroke-opacity:1"
                   id="path86" /></g></g></g></g></g></g><g
       id="g88"><path
         d="m 141.367,138.57 h 86.688 v 24.73 h -86.688 z"
         style="fill:#7f7f7f;fill-opacity:0.5;fill-rule:nonzero;stroke:none"
         id="path90" /><path
         d="m 141.367,138.57 h 86.688 v 24.73 h -86.688 z"
         style="fill:none;stroke:#7f7f7f;stroke-width:1;stroke-linecap:butt;stroke-linejoin:round;stroke-miterlimit:10;stroke-dasharray:none;stroke-opacity:0.5"
         id="path92" /><path
         d="m 141.367,142.055 h 86.688 v 17.762 h -86.688 z"
         style="fill:#7f7f7f;fill-opacity:0.7;fill-rule:nonzero;stroke:none"
         id="path94" /><path
         d="m 141.367,142.055 h 86.688 v 17.762 h -86.688 z"
         style="fill:none;stroke:#7f7f7f;stroke-width:1;stroke-linecap:butt;stroke-linejoin:round;stroke-miterlimit:10;stroke-dasharray:none;stroke-opacity:0.7"
         id="path96" /><path
         d="m 141.367,150.934 h 86.688 z"
         style="fill:none;stroke:#000000;stroke-width:1;stroke-linecap:butt;stroke-linejoin:round;stroke-miterlimit:10;stroke-dasharray:none;stroke-opacity:1"
         id="path98" /></g><g
       id="g100"><g
         id="g102"
         clip-path="url(#clipPath106)"><g
           id="g108"><g
             id="g110" /><g
             id="g122"><g
               clip-path="url(#clipPath114)"
               id="g120"><g
                 id="g118"><path
                   d="m 228.055,112.52 h 115.582 v 35.199 H 228.055 Z"
                   style="fill:#7f7f7f;fill-opacity:0.5;fill-rule:nonzero;stroke:none"
                   id="path116" /></g></g></g></g></g></g><g
       id="g124"><g
         id="g126"
         clip-path="url(#clipPath130)"><g
           id="g132"><g
             id="g134" /><g
             id="g146"><g
               clip-path="url(#clipPath138)"
               id="g144"><g
                 id="g142"><path
                   d="m 228.055,112.52 h 115.582 v 35.199 H 228.055 Z"
                   style="fill:none;stroke:#7f7f7f;stroke-width:1;stroke-linecap:butt;stroke-linejoin:round;stroke-miterlimit:10;stroke-dasharray:none;stroke-opacity:0.5"
                   id="path140" /></g></g></g></g></g></g><g
       id="g148"><g
         id="g150"
         clip-path="url(#clipPath154)"><g
           id="g156"><g
             id="g158" /><g
             id="g170"><g
               clip-path="url(#clipPath162)"
               id="g168"><g
                 id="g166"><path
                   d="m 228.055,116.242 h 115.582 v 27.754 H 228.055 Z"
                   style="fill:#7f7f7f;fill-opacity:0.7;fill-rule:nonzero;stroke:none"
                   id="path164" /></g></g></g></g></g></g><g
       id="g172"><g
         id="g174"
         clip-path="url(#clipPath178)"><g
           id="g180"><g
             id="g182" /><g
             id="g194"><g
               clip-path="url(#clipPath186)"
               id="g192"><g
                 id="g190"><path
                   d="m 228.055,116.242 h 115.582 v 27.754 H 228.055 Z"
                   style="fill:none;stroke:#7f7f7f;stroke-width:1;stroke-linecap:butt;stroke-linejoin:round;stroke-miterlimit:10;stroke-dasharray:none;stroke-opacity:0.7"
                   id="path188" /></g></g></g></g></g></g><g
       id="g196"><g
         id="g198"
         clip-path="url(#clipPath202)"><g
           id="g204"><g
             id="g206"><g
               id="g208"
               clip-path="url(#clipPath212)"><g
                 id="g214"><path
                   d="M 228.055,130.117 H 343.637 Z"
                   style="fill:none;stroke:#000000;stroke-width:1;stroke-linecap:butt;stroke-linejoin:round;stroke-miterlimit:10;stroke-dasharray:none;stroke-opacity:1"
                   id="path216" /></g></g></g></g></g></g><g
       id="g218"><path
         d="m 54.684,207.832 v 3.5"
         style="fill:none;stroke:#000000;stroke-width:0.8;stroke-linecap:butt;stroke-linejoin:round;stroke-miterlimit:10;stroke-dasharray:none;stroke-opacity:1"
         id="path220" /><path
         d="m 49.582,221.164 1.063,-1.031 c 1.546,-1.375 2.14,-1.906 2.14,-2.906 0,-1.141 -0.89,-1.938 -2.109,-1.938 -1.125,0 -1.86,0.922 -1.86,1.813 0,0.546 0.5,0.546 0.532,0.546 0.172,0 0.515,-0.109 0.515,-0.531 0,-0.25 -0.187,-0.515 -0.531,-0.515 -0.078,0 -0.094,0 -0.125,0.015 0.219,-0.656 0.766,-1.015 1.344,-1.015 0.906,0 1.328,0.812 1.328,1.625 0,0.796 -0.484,1.578 -1.047,2.203 l -1.906,2.125 c -0.11,0.109 -0.11,0.14 -0.11,0.375 h 3.704 l 0.265,-1.735 h -0.234 c -0.063,0.297 -0.125,0.735 -0.235,0.891 -0.062,0.078 -0.718,0.078 -0.937,0.078 z"
         style="fill:#000000;fill-opacity:1;fill-rule:nonzero;stroke:none"
         id="path222" /><path
         d="m 55.207,221.398 c 0,-0.281 -0.234,-0.531 -0.516,-0.531 -0.296,0 -0.531,0.25 -0.531,0.531 0,0.297 0.235,0.532 0.531,0.532 0.282,0 0.516,-0.235 0.516,-0.532 z"
         style="fill:#000000;fill-opacity:1;fill-rule:nonzero;stroke:none"
         id="path224" /><path
         d="m 60.645,218.742 c 0,-0.797 -0.047,-1.594 -0.391,-2.328 -0.453,-0.969 -1.281,-1.125 -1.688,-1.125 -0.609,0 -1.328,0.266 -1.75,1.188 -0.312,0.687 -0.359,1.468 -0.359,2.265 0,0.75 0.031,1.641 0.453,2.406 0.422,0.797 1.156,1 1.641,1 0.531,0 1.297,-0.203 1.734,-1.156 0.313,-0.687 0.36,-1.469 0.36,-2.25 z m -2.094,3.188 c -0.391,0 -0.985,-0.25 -1.156,-1.203 -0.11,-0.594 -0.11,-1.516 -0.11,-2.11 0,-0.64 0,-1.297 0.078,-1.828 0.188,-1.187 0.938,-1.281 1.188,-1.281 0.328,0 0.984,0.187 1.172,1.172 0.109,0.562 0.109,1.312 0.109,1.937 0,0.75 0,1.422 -0.109,2.063 -0.157,0.953 -0.719,1.25 -1.172,1.25 z"
         style="fill:#000000;fill-opacity:1;fill-rule:nonzero;stroke:none"
         id="path226" /><path
         d="m 112.473,207.832 v 3.5"
         style="fill:none;stroke:#000000;stroke-width:0.8;stroke-linecap:butt;stroke-linejoin:round;stroke-miterlimit:10;stroke-dasharray:none;stroke-opacity:1"
         id="path228" /><path
         d="m 107.375,221.164 1.063,-1.031 c 1.546,-1.375 2.14,-1.906 2.14,-2.906 0,-1.141 -0.89,-1.938 -2.109,-1.938 -1.125,0 -1.86,0.922 -1.86,1.813 0,0.546 0.5,0.546 0.532,0.546 0.171,0 0.515,-0.109 0.515,-0.531 0,-0.25 -0.187,-0.515 -0.531,-0.515 -0.078,0 -0.094,0 -0.125,0.015 0.219,-0.656 0.766,-1.015 1.344,-1.015 0.906,0 1.328,0.812 1.328,1.625 0,0.796 -0.484,1.578 -1.047,2.203 l -1.906,2.125 c -0.11,0.109 -0.11,0.14 -0.11,0.375 h 3.703 l 0.266,-1.735 h -0.234 c -0.063,0.297 -0.125,0.735 -0.235,0.891 -0.062,0.078 -0.718,0.078 -0.937,0.078 z"
         style="fill:#000000;fill-opacity:1;fill-rule:nonzero;stroke:none"
         id="path230" /><path
         d="m 112.996,221.398 c 0,-0.281 -0.234,-0.531 -0.516,-0.531 -0.296,0 -0.531,0.25 -0.531,0.531 0,0.297 0.235,0.532 0.531,0.532 0.282,0 0.516,-0.235 0.516,-0.532 z"
         style="fill:#000000;fill-opacity:1;fill-rule:nonzero;stroke:none"
         id="path232" /><path
         d="m 118.324,219.93 c 0,-1.188 -0.812,-2.188 -1.89,-2.188 -0.469,0 -0.907,0.156 -1.266,0.516 v -1.953 c 0.203,0.062 0.531,0.125 0.844,0.125 1.234,0 1.937,-0.907 1.937,-1.032 0,-0.062 -0.031,-0.109 -0.109,-0.109 0,0 -0.031,0 -0.078,0.031 -0.203,0.094 -0.688,0.297 -1.36,0.297 -0.39,0 -0.859,-0.078 -1.328,-0.281 -0.078,-0.031 -0.094,-0.031 -0.109,-0.031 -0.11,0 -0.11,0.078 -0.11,0.234 v 2.953 c 0,0.172 0,0.25 0.141,0.25 0.078,0 0.094,-0.015 0.141,-0.078 0.109,-0.156 0.468,-0.703 1.281,-0.703 0.516,0 0.766,0.453 0.844,0.641 0.156,0.375 0.187,0.75 0.187,1.25 0,0.359 0,0.953 -0.25,1.375 -0.234,0.39 -0.609,0.64 -1.062,0.64 -0.719,0 -1.297,-0.531 -1.469,-1.109 0.031,0 0.062,0.015 0.172,0.015 0.328,0 0.5,-0.25 0.5,-0.484 0,-0.25 -0.172,-0.5 -0.5,-0.5 -0.141,0 -0.485,0.078 -0.485,0.531 0,0.86 0.688,1.828 1.797,1.828 1.157,0 2.172,-0.953 2.172,-2.218 z"
         style="fill:#000000;fill-opacity:1;fill-rule:nonzero;stroke:none"
         id="path234" /><path
         d="m 170.266,207.832 v 3.5"
         style="fill:none;stroke:#000000;stroke-width:0.8;stroke-linecap:butt;stroke-linejoin:round;stroke-miterlimit:10;stroke-dasharray:none;stroke-opacity:1"
         id="path236" /><path
         d="m 166.789,218.414 c 0.813,-0.266 1.391,-0.953 1.391,-1.75 0,-0.812 -0.875,-1.375 -1.828,-1.375 -1,0 -1.766,0.594 -1.766,1.359 0,0.329 0.219,0.516 0.516,0.516 0.296,0 0.5,-0.219 0.5,-0.516 0,-0.484 -0.469,-0.484 -0.61,-0.484 0.297,-0.5 0.953,-0.625 1.313,-0.625 0.422,0 0.968,0.219 0.968,1.109 0,0.125 -0.031,0.704 -0.281,1.141 -0.297,0.484 -0.64,0.516 -0.89,0.516 -0.079,0.015 -0.313,0.031 -0.391,0.031 -0.078,0.016 -0.141,0.031 -0.141,0.125 0,0.109 0.063,0.109 0.235,0.109 h 0.437 c 0.813,0 1.188,0.672 1.188,1.657 0,1.359 -0.688,1.64 -1.125,1.64 -0.438,0 -1.188,-0.172 -1.532,-0.75 0.344,0.047 0.657,-0.172 0.657,-0.547 0,-0.359 -0.266,-0.562 -0.547,-0.562 -0.25,0 -0.563,0.14 -0.563,0.578 0,0.906 0.922,1.562 2.016,1.562 1.219,0 2.125,-0.906 2.125,-1.921 0,-0.813 -0.641,-1.594 -1.672,-1.813 z"
         style="fill:#000000;fill-opacity:1;fill-rule:nonzero;stroke:none"
         id="path238" /><path
         d="m 170.785,221.398 c 0,-0.281 -0.234,-0.531 -0.515,-0.531 -0.297,0 -0.532,0.25 -0.532,0.531 0,0.297 0.235,0.532 0.532,0.532 0.281,0 0.515,-0.235 0.515,-0.532 z"
         style="fill:#000000;fill-opacity:1;fill-rule:nonzero;stroke:none"
         id="path240" /><path
         d="m 176.227,218.742 c 0,-0.797 -0.047,-1.594 -0.391,-2.328 -0.453,-0.969 -1.281,-1.125 -1.688,-1.125 -0.609,0 -1.328,0.266 -1.75,1.188 -0.312,0.687 -0.359,1.468 -0.359,2.265 0,0.75 0.031,1.641 0.453,2.406 0.422,0.797 1.156,1 1.641,1 0.531,0 1.297,-0.203 1.734,-1.156 0.313,-0.687 0.36,-1.469 0.36,-2.25 z m -2.094,3.188 c -0.391,0 -0.985,-0.25 -1.156,-1.203 -0.11,-0.594 -0.11,-1.516 -0.11,-2.11 0,-0.64 0,-1.297 0.078,-1.828 0.188,-1.187 0.938,-1.281 1.188,-1.281 0.328,0 0.984,0.187 1.172,1.172 0.109,0.562 0.109,1.312 0.109,1.937 0,0.75 0,1.422 -0.109,2.063 -0.157,0.953 -0.719,1.25 -1.172,1.25 z"
         style="fill:#000000;fill-opacity:1;fill-rule:nonzero;stroke:none"
         id="path242" /><path
         d="m 228.055,207.832 v 3.5"
         style="fill:none;stroke:#000000;stroke-width:0.8;stroke-linecap:butt;stroke-linejoin:round;stroke-miterlimit:10;stroke-dasharray:none;stroke-opacity:1"
         id="path244" /><path
         d="m 224.578,218.414 c 0.813,-0.266 1.391,-0.953 1.391,-1.75 0,-0.812 -0.875,-1.375 -1.828,-1.375 -1,0 -1.766,0.594 -1.766,1.359 0,0.329 0.219,0.516 0.516,0.516 0.297,0 0.5,-0.219 0.5,-0.516 0,-0.484 -0.469,-0.484 -0.61,-0.484 0.297,-0.5 0.953,-0.625 1.313,-0.625 0.422,0 0.968,0.219 0.968,1.109 0,0.125 -0.031,0.704 -0.281,1.141 -0.297,0.484 -0.64,0.516 -0.89,0.516 -0.079,0.015 -0.313,0.031 -0.391,0.031 -0.078,0.016 -0.141,0.031 -0.141,0.125 0,0.109 0.063,0.109 0.235,0.109 h 0.437 c 0.813,0 1.188,0.672 1.188,1.657 0,1.359 -0.688,1.64 -1.125,1.64 -0.438,0 -1.188,-0.172 -1.532,-0.75 0.344,0.047 0.657,-0.172 0.657,-0.547 0,-0.359 -0.266,-0.562 -0.547,-0.562 -0.25,0 -0.563,0.14 -0.563,0.578 0,0.906 0.922,1.562 2.016,1.562 1.219,0 2.125,-0.906 2.125,-1.921 0,-0.813 -0.641,-1.594 -1.672,-1.813 z"
         style="fill:#000000;fill-opacity:1;fill-rule:nonzero;stroke:none"
         id="path246" /><path
         d="m 228.578,221.398 c 0,-0.281 -0.234,-0.531 -0.516,-0.531 -0.296,0 -0.531,0.25 -0.531,0.531 0,0.297 0.235,0.532 0.531,0.532 0.282,0 0.516,-0.235 0.516,-0.532 z"
         style="fill:#000000;fill-opacity:1;fill-rule:nonzero;stroke:none"
         id="path248" /><path
         d="m 233.906,219.93 c 0,-1.188 -0.812,-2.188 -1.89,-2.188 -0.469,0 -0.907,0.156 -1.266,0.516 v -1.953 c 0.203,0.062 0.531,0.125 0.844,0.125 1.234,0 1.937,-0.907 1.937,-1.032 0,-0.062 -0.031,-0.109 -0.109,-0.109 0,0 -0.031,0 -0.078,0.031 -0.203,0.094 -0.688,0.297 -1.36,0.297 -0.39,0 -0.859,-0.078 -1.328,-0.281 -0.078,-0.031 -0.094,-0.031 -0.109,-0.031 -0.109,0 -0.109,0.078 -0.109,0.234 v 2.953 c 0,0.172 0,0.25 0.14,0.25 0.078,0 0.094,-0.015 0.141,-0.078 0.109,-0.156 0.469,-0.703 1.281,-0.703 0.516,0 0.766,0.453 0.844,0.641 0.156,0.375 0.187,0.75 0.187,1.25 0,0.359 0,0.953 -0.25,1.375 -0.234,0.39 -0.609,0.64 -1.062,0.64 -0.719,0 -1.297,-0.531 -1.469,-1.109 0.031,0 0.062,0.015 0.172,0.015 0.328,0 0.5,-0.25 0.5,-0.484 0,-0.25 -0.172,-0.5 -0.5,-0.5 -0.141,0 -0.484,0.078 -0.484,0.531 0,0.86 0.687,1.828 1.796,1.828 1.157,0 2.172,-0.953 2.172,-2.218 z"
         style="fill:#000000;fill-opacity:1;fill-rule:nonzero;stroke:none"
         id="path250" /><path
         d="m 285.844,207.832 v 3.5"
         style="fill:none;stroke:#000000;stroke-width:0.8;stroke-linecap:butt;stroke-linejoin:round;stroke-miterlimit:10;stroke-dasharray:none;stroke-opacity:1"
         id="path252" /><path
         d="m 282.418,220.289 v 0.859 c 0,0.36 -0.031,0.469 -0.766,0.469 h -0.203 v 0.313 c 0.406,-0.032 0.922,-0.032 1.344,-0.032 0.422,0 0.937,0 1.359,0.032 v -0.313 h -0.218 c -0.735,0 -0.75,-0.109 -0.75,-0.469 v -0.859 h 0.984 v -0.312 h -0.984 v -4.532 c 0,-0.203 0,-0.265 -0.172,-0.265 -0.078,0 -0.11,0 -0.188,0.125 l -3.062,4.672 v 0.312 z m 0.047,-0.312 h -2.422 l 2.422,-3.719 z"
         style="fill:#000000;fill-opacity:1;fill-rule:nonzero;stroke:none"
         id="path254" /><path
         d="m 286.367,221.398 c 0,-0.281 -0.234,-0.531 -0.515,-0.531 -0.297,0 -0.532,0.25 -0.532,0.531 0,0.297 0.235,0.532 0.532,0.532 0.281,0 0.515,-0.235 0.515,-0.532 z"
         style="fill:#000000;fill-opacity:1;fill-rule:nonzero;stroke:none"
         id="path256" /><path
         d="m 291.805,218.742 c 0,-0.797 -0.047,-1.594 -0.391,-2.328 -0.453,-0.969 -1.281,-1.125 -1.687,-1.125 -0.61,0 -1.329,0.266 -1.75,1.188 -0.313,0.687 -0.36,1.468 -0.36,2.265 0,0.75 0.031,1.641 0.453,2.406 0.422,0.797 1.157,1 1.641,1 0.531,0 1.297,-0.203 1.734,-1.156 0.313,-0.687 0.36,-1.469 0.36,-2.25 z m -2.094,3.188 c -0.391,0 -0.984,-0.25 -1.156,-1.203 -0.11,-0.594 -0.11,-1.516 -0.11,-2.11 0,-0.64 0,-1.297 0.078,-1.828 0.188,-1.187 0.938,-1.281 1.188,-1.281 0.328,0 0.984,0.187 1.172,1.172 0.109,0.562 0.109,1.312 0.109,1.937 0,0.75 0,1.422 -0.109,2.063 -0.156,0.953 -0.719,1.25 -1.172,1.25 z"
         style="fill:#000000;fill-opacity:1;fill-rule:nonzero;stroke:none"
         id="path258" /><path
         d="m 343.637,207.832 v 3.5"
         style="fill:none;stroke:#000000;stroke-width:0.8;stroke-linecap:butt;stroke-linejoin:round;stroke-miterlimit:10;stroke-dasharray:none;stroke-opacity:1"
         id="path260" /><path
         d="m 340.207,220.289 v 0.859 c 0,0.36 -0.031,0.469 -0.766,0.469 h -0.203 v 0.313 c 0.407,-0.032 0.922,-0.032 1.344,-0.032 0.422,0 0.938,0 1.359,0.032 v -0.313 h -0.218 c -0.735,0 -0.75,-0.109 -0.75,-0.469 v -0.859 h 0.984 v -0.312 h -0.984 v -4.532 c 0,-0.203 0,-0.265 -0.172,-0.265 -0.078,0 -0.11,0 -0.188,0.125 l -3.062,4.672 v 0.312 z m 0.047,-0.312 h -2.422 l 2.422,-3.719 z"
         style="fill:#000000;fill-opacity:1;fill-rule:nonzero;stroke:none"
         id="path262" /><path
         d="m 344.156,221.398 c 0,-0.281 -0.234,-0.531 -0.515,-0.531 -0.297,0 -0.532,0.25 -0.532,0.531 0,0.297 0.235,0.532 0.532,0.532 0.281,0 0.515,-0.235 0.515,-0.532 z"
         style="fill:#000000;fill-opacity:1;fill-rule:nonzero;stroke:none"
         id="path264" /><path
         d="m 349.488,219.93 c 0,-1.188 -0.812,-2.188 -1.89,-2.188 -0.469,0 -0.907,0.156 -1.266,0.516 v -1.953 c 0.203,0.062 0.531,0.125 0.844,0.125 1.234,0 1.937,-0.907 1.937,-1.032 0,-0.062 -0.031,-0.109 -0.109,-0.109 0,0 -0.031,0 -0.078,0.031 -0.203,0.094 -0.688,0.297 -1.36,0.297 -0.39,0 -0.859,-0.078 -1.328,-0.281 -0.078,-0.031 -0.093,-0.031 -0.109,-0.031 -0.109,0 -0.109,0.078 -0.109,0.234 v 2.953 c 0,0.172 0,0.25 0.14,0.25 0.078,0 0.094,-0.015 0.141,-0.078 0.109,-0.156 0.469,-0.703 1.281,-0.703 0.516,0 0.766,0.453 0.844,0.641 0.156,0.375 0.187,0.75 0.187,1.25 0,0.359 0,0.953 -0.25,1.375 -0.234,0.39 -0.609,0.64 -1.062,0.64 -0.719,0 -1.297,-0.531 -1.469,-1.109 0.031,0 0.063,0.015 0.172,0.015 0.328,0 0.5,-0.25 0.5,-0.484 0,-0.25 -0.172,-0.5 -0.5,-0.5 -0.141,0 -0.484,0.078 -0.484,0.531 0,0.86 0.687,1.828 1.796,1.828 1.157,0 2.172,-0.953 2.172,-2.218 z"
         style="fill:#000000;fill-opacity:1;fill-rule:nonzero;stroke:none"
         id="path266" /><path
         d="m 188.766,240.074 c -0.375,0.531 -0.922,1 -1.61,1 -0.172,0 -0.828,-0.015 -1.047,-0.672 0.047,0.016 0.11,0.016 0.141,0.016 0.422,0 0.703,-0.359 0.703,-0.672 0,-0.328 -0.265,-0.437 -0.484,-0.437 -0.219,0 -0.703,0.171 -0.703,0.843 0,0.719 0.593,1.203 1.39,1.203 1.391,0 2.813,-1.281 3.203,-2.828 l 1.36,-5.437 c 0.015,-0.078 0.047,-0.156 0.047,-0.25 0,-0.203 -0.172,-0.344 -0.375,-0.344 -0.125,0 -0.422,0.063 -0.532,0.469 l -1.031,4.109 c -0.078,0.25 -0.078,0.281 -0.187,0.438 -0.282,0.39 -0.735,0.859 -1.407,0.859 -0.781,0 -0.859,-0.766 -0.859,-1.141 0,-0.796 0.391,-1.875 0.766,-2.875 0.14,-0.406 0.234,-0.609 0.234,-0.875 0,-0.593 -0.422,-1.125 -1.109,-1.125 -1.282,0 -1.797,2.032 -1.797,2.141 0,0.047 0.062,0.125 0.156,0.125 0.125,0 0.141,-0.062 0.187,-0.25 0.344,-1.172 0.876,-1.734 1.422,-1.734 0.125,0 0.36,0 0.36,0.468 0,0.36 -0.156,0.766 -0.36,1.297 -0.687,1.828 -0.687,2.282 -0.687,2.61 0,1.328 0.953,1.64 1.641,1.64 0.406,0 0.906,-0.125 1.406,-0.64 v 0.015 c -0.203,0.813 -0.344,1.36 -0.828,2.047 z"
         style="fill:#000000;fill-opacity:1;fill-rule:nonzero;stroke:none"
         id="path268" /><path
         d="m 196.785,241.902 c 0,-0.047 0,-0.062 -0.234,-0.312 -1.391,-1.406 -2.172,-3.703 -2.172,-6.547 0,-2.719 0.656,-5.047 2.266,-6.688 0.14,-0.125 0.14,-0.156 0.14,-0.203 0,-0.078 -0.062,-0.109 -0.125,-0.109 -0.172,0 -1.328,1.016 -2,2.375 -0.719,1.406 -1.031,2.906 -1.031,4.625 0,1.234 0.187,2.891 0.906,4.391 0.828,1.671 1.969,2.578 2.125,2.578 0.063,0 0.125,-0.032 0.125,-0.11 z"
         style="fill:#000000;fill-opacity:1;fill-rule:nonzero;stroke:none"
         id="path270" /><path
         d="m 207.328,229.418 c 0.078,-0.094 0.156,-0.188 0.156,-0.328 0,-0.094 -0.015,-0.11 -0.343,-0.11 h -5.75 c -0.329,0 -0.344,0.016 -0.422,0.266 l -0.766,2.516 c -0.047,0.14 -0.047,0.172 -0.047,0.187 0,0.063 0.047,0.141 0.141,0.141 0.109,0 0.141,-0.047 0.203,-0.235 0.516,-1.5 1.188,-2.468 3.391,-2.468 h 2.297 l -7.641,8.656 c -0.141,0.141 -0.188,0.203 -0.188,0.359 0,0.11 0.063,0.11 0.329,0.11 h 5.968 c 0.313,0 0.328,-0.016 0.406,-0.266 l 0.985,-3.078 c 0.015,-0.047 0.047,-0.141 0.047,-0.203 0,-0.063 -0.063,-0.141 -0.141,-0.141 -0.109,0 -0.125,0.016 -0.234,0.36 -0.594,1.812 -1.203,2.89 -3.641,2.89 h -2.406 z"
         style="fill:#000000;fill-opacity:1;fill-rule:nonzero;stroke:none"
         id="path272" /><path
         d="m 211.852,235.043 c 0,-1.063 -0.141,-2.797 -0.922,-4.422 -0.828,-1.672 -1.969,-2.578 -2.125,-2.578 -0.047,0 -0.125,0.031 -0.125,0.109 0,0.047 0,0.078 0.234,0.313 1.406,1.406 2.188,3.719 2.188,6.562 0,2.703 -0.657,5.032 -2.282,6.672 -0.14,0.141 -0.14,0.156 -0.14,0.203 0,0.078 0.078,0.11 0.125,0.11 0.187,0 1.328,-1 2.015,-2.375 0.703,-1.422 1.032,-2.922 1.032,-4.594 z"
         style="fill:#000000;fill-opacity:1;fill-rule:nonzero;stroke:none"
         id="path274" /><path
         d="m 54.684,207.832 h -3.5"
         style="fill:none;stroke:#000000;stroke-width:0.8;stroke-linecap:butt;stroke-linejoin:round;stroke-miterlimit:10;stroke-dasharray:none;stroke-opacity:1"
         id="path276" /><path
         d="m 34.551,208.195 c 0,-0.797 -0.047,-1.593 -0.391,-2.328 -0.453,-0.969 -1.281,-1.125 -1.687,-1.125 -0.61,0 -1.328,0.266 -1.75,1.188 -0.313,0.687 -0.36,1.468 -0.36,2.265 0,0.75 0.032,1.641 0.453,2.407 0.422,0.796 1.157,1 1.641,1 0.531,0 1.297,-0.204 1.734,-1.157 0.313,-0.687 0.36,-1.468 0.36,-2.25 z m -2.094,3.188 c -0.391,0 -0.984,-0.25 -1.156,-1.203 -0.11,-0.594 -0.11,-1.516 -0.11,-2.11 0,-0.64 0,-1.297 0.079,-1.828 0.187,-1.187 0.937,-1.281 1.187,-1.281 0.328,0 0.984,0.187 1.172,1.172 0.109,0.562 0.109,1.312 0.109,1.937 0,0.75 0,1.422 -0.109,2.063 -0.156,0.953 -0.719,1.25 -1.172,1.25 z"
         style="fill:#000000;fill-opacity:1;fill-rule:nonzero;stroke:none"
         id="path278" /><path
         d="m 36.859,210.852 c 0,-0.282 -0.234,-0.532 -0.515,-0.532 -0.297,0 -0.532,0.25 -0.532,0.532 0,0.296 0.235,0.531 0.532,0.531 0.281,0 0.515,-0.235 0.515,-0.531 z"
         style="fill:#000000;fill-opacity:1;fill-rule:nonzero;stroke:none"
         id="path280" /><path
         d="m 42.297,208.195 c 0,-0.797 -0.047,-1.593 -0.391,-2.328 -0.453,-0.969 -1.281,-1.125 -1.687,-1.125 -0.61,0 -1.328,0.266 -1.75,1.188 -0.313,0.687 -0.36,1.468 -0.36,2.265 0,0.75 0.032,1.641 0.453,2.407 0.422,0.796 1.157,1 1.641,1 0.531,0 1.297,-0.204 1.735,-1.157 0.312,-0.687 0.359,-1.468 0.359,-2.25 z m -2.094,3.188 c -0.391,0 -0.984,-0.25 -1.156,-1.203 -0.109,-0.594 -0.109,-1.516 -0.109,-2.11 0,-0.64 0,-1.297 0.078,-1.828 0.187,-1.187 0.937,-1.281 1.187,-1.281 0.328,0 0.985,0.187 1.172,1.172 0.109,0.562 0.109,1.312 0.109,1.937 0,0.75 0,1.422 -0.109,2.063 -0.156,0.953 -0.719,1.25 -1.172,1.25 z"
         style="fill:#000000;fill-opacity:1;fill-rule:nonzero;stroke:none"
         id="path282" /><path
         d="m 43.969,210.617 1.062,-1.031 c 1.547,-1.375 2.141,-1.906 2.141,-2.906 0,-1.141 -0.891,-1.938 -2.11,-1.938 -1.124,0 -1.859,0.922 -1.859,1.813 0,0.547 0.5,0.547 0.531,0.547 0.172,0 0.516,-0.11 0.516,-0.532 0,-0.25 -0.188,-0.515 -0.531,-0.515 -0.078,0 -0.094,0 -0.125,0.015 0.218,-0.656 0.765,-1.015 1.344,-1.015 0.906,0 1.328,0.812 1.328,1.625 0,0.797 -0.485,1.578 -1.047,2.203 l -1.907,2.125 c -0.109,0.109 -0.109,0.14 -0.109,0.375 h 3.703 l 0.266,-1.735 h -0.234 c -0.063,0.297 -0.126,0.735 -0.235,0.891 -0.062,0.078 -0.719,0.078 -0.937,0.078 z"
         style="fill:#000000;fill-opacity:1;fill-rule:nonzero;stroke:none"
         id="path284" /><path
         d="m 54.684,180.078 h -3.5"
         style="fill:none;stroke:#000000;stroke-width:0.8;stroke-linecap:butt;stroke-linejoin:round;stroke-miterlimit:10;stroke-dasharray:none;stroke-opacity:1"
         id="path286" /><path
         d="m 34.551,180.438 c 0,-0.797 -0.047,-1.594 -0.391,-2.329 -0.453,-0.968 -1.281,-1.125 -1.687,-1.125 -0.61,0 -1.328,0.266 -1.75,1.188 -0.313,0.687 -0.36,1.469 -0.36,2.266 0,0.75 0.032,1.64 0.453,2.406 0.422,0.797 1.157,1 1.641,1 0.531,0 1.297,-0.203 1.734,-1.156 0.313,-0.688 0.36,-1.469 0.36,-2.25 z m -2.094,3.187 c -0.391,0 -0.984,-0.25 -1.156,-1.203 -0.11,-0.594 -0.11,-1.516 -0.11,-2.11 0,-0.64 0,-1.296 0.079,-1.828 0.187,-1.187 0.937,-1.281 1.187,-1.281 0.328,0 0.984,0.188 1.172,1.172 0.109,0.563 0.109,1.313 0.109,1.937 0,0.75 0,1.422 -0.109,2.063 -0.156,0.953 -0.719,1.25 -1.172,1.25 z"
         style="fill:#000000;fill-opacity:1;fill-rule:nonzero;stroke:none"
         id="path288" /><path
         d="m 36.859,183.094 c 0,-0.282 -0.234,-0.532 -0.515,-0.532 -0.297,0 -0.532,0.25 -0.532,0.532 0,0.297 0.235,0.531 0.532,0.531 0.281,0 0.515,-0.234 0.515,-0.531 z"
         style="fill:#000000;fill-opacity:1;fill-rule:nonzero;stroke:none"
         id="path290" /><path
         d="m 42.297,180.438 c 0,-0.797 -0.047,-1.594 -0.391,-2.329 -0.453,-0.968 -1.281,-1.125 -1.687,-1.125 -0.61,0 -1.328,0.266 -1.75,1.188 -0.313,0.687 -0.36,1.469 -0.36,2.266 0,0.75 0.032,1.64 0.453,2.406 0.422,0.797 1.157,1 1.641,1 0.531,0 1.297,-0.203 1.735,-1.156 0.312,-0.688 0.359,-1.469 0.359,-2.25 z m -2.094,3.187 c -0.391,0 -0.984,-0.25 -1.156,-1.203 -0.109,-0.594 -0.109,-1.516 -0.109,-2.11 0,-0.64 0,-1.296 0.078,-1.828 0.187,-1.187 0.937,-1.281 1.187,-1.281 0.328,0 0.985,0.188 1.172,1.172 0.109,0.563 0.109,1.313 0.109,1.937 0,0.75 0,1.422 -0.109,2.063 -0.156,0.953 -0.719,1.25 -1.172,1.25 z"
         style="fill:#000000;fill-opacity:1;fill-rule:nonzero;stroke:none"
         id="path292" /><path
         d="m 45.594,180.109 c 0.812,-0.265 1.39,-0.953 1.39,-1.75 0,-0.812 -0.875,-1.375 -1.828,-1.375 -1,0 -1.765,0.594 -1.765,1.36 0,0.328 0.218,0.515 0.515,0.515 0.297,0 0.5,-0.218 0.5,-0.515 0,-0.485 -0.468,-0.485 -0.609,-0.485 0.297,-0.5 0.953,-0.625 1.312,-0.625 0.422,0 0.969,0.219 0.969,1.11 0,0.125 -0.031,0.703 -0.281,1.14 -0.297,0.485 -0.641,0.516 -0.891,0.516 -0.078,0.016 -0.312,0.031 -0.39,0.031 -0.078,0.016 -0.141,0.031 -0.141,0.125 0,0.11 0.063,0.11 0.234,0.11 h 0.438 c 0.812,0 1.187,0.672 1.187,1.656 0,1.359 -0.687,1.64 -1.125,1.64 -0.437,0 -1.187,-0.171 -1.531,-0.75 0.344,0.047 0.656,-0.171 0.656,-0.546 0,-0.36 -0.265,-0.563 -0.546,-0.563 -0.25,0 -0.563,0.141 -0.563,0.578 0,0.907 0.922,1.563 2.016,1.563 1.218,0 2.125,-0.906 2.125,-1.922 0,-0.813 -0.641,-1.594 -1.672,-1.813 z"
         style="fill:#000000;fill-opacity:1;fill-rule:nonzero;stroke:none"
         id="path294" /><path
         d="m 54.684,152.324 h -3.5"
         style="fill:none;stroke:#000000;stroke-width:0.8;stroke-linecap:butt;stroke-linejoin:round;stroke-miterlimit:10;stroke-dasharray:none;stroke-opacity:1"
         id="path296" /><path
         d="m 34.551,152.684 c 0,-0.797 -0.047,-1.594 -0.391,-2.329 -0.453,-0.968 -1.281,-1.125 -1.687,-1.125 -0.61,0 -1.328,0.266 -1.75,1.188 -0.313,0.687 -0.36,1.469 -0.36,2.266 0,0.75 0.032,1.64 0.453,2.406 0.422,0.797 1.157,1 1.641,1 0.531,0 1.297,-0.203 1.734,-1.156 0.313,-0.688 0.36,-1.469 0.36,-2.25 z m -2.094,3.187 c -0.391,0 -0.984,-0.25 -1.156,-1.203 -0.11,-0.594 -0.11,-1.516 -0.11,-2.109 0,-0.641 0,-1.297 0.079,-1.829 0.187,-1.187 0.937,-1.281 1.187,-1.281 0.328,0 0.984,0.188 1.172,1.172 0.109,0.563 0.109,1.313 0.109,1.938 0,0.75 0,1.421 -0.109,2.062 -0.156,0.953 -0.719,1.25 -1.172,1.25 z"
         style="fill:#000000;fill-opacity:1;fill-rule:nonzero;stroke:none"
         id="path298" /><path
         d="m 36.859,155.34 c 0,-0.281 -0.234,-0.531 -0.515,-0.531 -0.297,0 -0.532,0.25 -0.532,0.531 0,0.297 0.235,0.531 0.532,0.531 0.281,0 0.515,-0.234 0.515,-0.531 z"
         style="fill:#000000;fill-opacity:1;fill-rule:nonzero;stroke:none"
         id="path300" /><path
         d="m 42.297,152.684 c 0,-0.797 -0.047,-1.594 -0.391,-2.329 -0.453,-0.968 -1.281,-1.125 -1.687,-1.125 -0.61,0 -1.328,0.266 -1.75,1.188 -0.313,0.687 -0.36,1.469 -0.36,2.266 0,0.75 0.032,1.64 0.453,2.406 0.422,0.797 1.157,1 1.641,1 0.531,0 1.297,-0.203 1.735,-1.156 0.312,-0.688 0.359,-1.469 0.359,-2.25 z m -2.094,3.187 c -0.391,0 -0.984,-0.25 -1.156,-1.203 -0.109,-0.594 -0.109,-1.516 -0.109,-2.109 0,-0.641 0,-1.297 0.078,-1.829 0.187,-1.187 0.937,-1.281 1.187,-1.281 0.328,0 0.985,0.188 1.172,1.172 0.109,0.563 0.109,1.313 0.109,1.938 0,0.75 0,1.421 -0.109,2.062 -0.156,0.953 -0.719,1.25 -1.172,1.25 z"
         style="fill:#000000;fill-opacity:1;fill-rule:nonzero;stroke:none"
         id="path302" /><path
         d="m 45.641,154.23 v 0.86 c 0,0.359 -0.032,0.469 -0.766,0.469 h -0.203 v 0.312 c 0.406,-0.031 0.922,-0.031 1.344,-0.031 0.422,0 0.937,0 1.359,0.031 v -0.312 h -0.219 c -0.734,0 -0.75,-0.11 -0.75,-0.469 v -0.86 h 0.985 v -0.312 h -0.985 v -4.531 c 0,-0.203 0,-0.266 -0.172,-0.266 -0.078,0 -0.109,0 -0.187,0.125 l -3.063,4.672 v 0.312 z m 0.047,-0.312 h -2.422 l 2.422,-3.719 z"
         style="fill:#000000;fill-opacity:1;fill-rule:nonzero;stroke:none"
         id="path304" /><path
         d="m 54.684,124.566 h -3.5"
         style="fill:none;stroke:#000000;stroke-width:0.8;stroke-linecap:butt;stroke-linejoin:round;stroke-miterlimit:10;stroke-dasharray:none;stroke-opacity:1"
         id="path306" /><path
         d="m 34.551,124.93 c 0,-0.797 -0.047,-1.594 -0.391,-2.328 -0.453,-0.969 -1.281,-1.125 -1.687,-1.125 -0.61,0 -1.328,0.265 -1.75,1.187 -0.313,0.688 -0.36,1.469 -0.36,2.266 0,0.75 0.032,1.64 0.453,2.406 0.422,0.797 1.157,1 1.641,1 0.531,0 1.297,-0.203 1.734,-1.156 0.313,-0.688 0.36,-1.469 0.36,-2.25 z m -2.094,3.187 c -0.391,0 -0.984,-0.25 -1.156,-1.203 -0.11,-0.594 -0.11,-1.516 -0.11,-2.109 0,-0.641 0,-1.297 0.079,-1.828 0.187,-1.188 0.937,-1.282 1.187,-1.282 0.328,0 0.984,0.188 1.172,1.172 0.109,0.563 0.109,1.313 0.109,1.938 0,0.75 0,1.422 -0.109,2.062 -0.156,0.953 -0.719,1.25 -1.172,1.25 z"
         style="fill:#000000;fill-opacity:1;fill-rule:nonzero;stroke:none"
         id="path308" /><path
         d="m 36.859,127.586 c 0,-0.281 -0.234,-0.531 -0.515,-0.531 -0.297,0 -0.532,0.25 -0.532,0.531 0,0.297 0.235,0.531 0.532,0.531 0.281,0 0.515,-0.234 0.515,-0.531 z"
         style="fill:#000000;fill-opacity:1;fill-rule:nonzero;stroke:none"
         id="path310" /><path
         d="m 42.297,124.93 c 0,-0.797 -0.047,-1.594 -0.391,-2.328 -0.453,-0.969 -1.281,-1.125 -1.687,-1.125 -0.61,0 -1.328,0.265 -1.75,1.187 -0.313,0.688 -0.36,1.469 -0.36,2.266 0,0.75 0.032,1.64 0.453,2.406 0.422,0.797 1.157,1 1.641,1 0.531,0 1.297,-0.203 1.735,-1.156 0.312,-0.688 0.359,-1.469 0.359,-2.25 z m -2.094,3.187 c -0.391,0 -0.984,-0.25 -1.156,-1.203 -0.109,-0.594 -0.109,-1.516 -0.109,-2.109 0,-0.641 0,-1.297 0.078,-1.828 0.187,-1.188 0.937,-1.282 1.187,-1.282 0.328,0 0.985,0.188 1.172,1.172 0.109,0.563 0.109,1.313 0.109,1.938 0,0.75 0,1.422 -0.109,2.062 -0.156,0.953 -0.719,1.25 -1.172,1.25 z"
         style="fill:#000000;fill-opacity:1;fill-rule:nonzero;stroke:none"
         id="path312" /><path
         d="m 47.172,126.117 c 0,-1.187 -0.813,-2.187 -1.891,-2.187 -0.469,0 -0.906,0.156 -1.265,0.515 v -1.953 c 0.203,0.063 0.531,0.125 0.843,0.125 1.235,0 1.938,-0.906 1.938,-1.031 0,-0.063 -0.031,-0.109 -0.109,-0.109 0,0 -0.032,0 -0.079,0.031 -0.203,0.094 -0.687,0.297 -1.359,0.297 -0.391,0 -0.859,-0.078 -1.328,-0.282 -0.078,-0.031 -0.094,-0.031 -0.11,-0.031 -0.109,0 -0.109,0.078 -0.109,0.235 v 2.953 c 0,0.172 0,0.25 0.141,0.25 0.078,0 0.094,-0.016 0.14,-0.078 0.11,-0.157 0.469,-0.704 1.282,-0.704 0.515,0 0.765,0.454 0.843,0.641 0.157,0.375 0.188,0.75 0.188,1.25 0,0.359 0,0.953 -0.25,1.375 -0.235,0.391 -0.609,0.641 -1.063,0.641 -0.718,0 -1.296,-0.532 -1.468,-1.11 0.031,0 0.062,0.016 0.172,0.016 0.328,0 0.5,-0.25 0.5,-0.484 0,-0.25 -0.172,-0.5 -0.5,-0.5 -0.141,0 -0.485,0.078 -0.485,0.531 0,0.859 0.688,1.828 1.797,1.828 1.156,0 2.172,-0.953 2.172,-2.219 z"
         style="fill:#000000;fill-opacity:1;fill-rule:nonzero;stroke:none"
         id="path314" /><path
         d="m 54.684,96.812 h -3.5"
         style="fill:none;stroke:#000000;stroke-width:0.8;stroke-linecap:butt;stroke-linejoin:round;stroke-miterlimit:10;stroke-dasharray:none;stroke-opacity:1"
         id="path316" /><path
         d="m 34.551,97.176 c 0,-0.797 -0.047,-1.594 -0.391,-2.328 -0.453,-0.969 -1.281,-1.125 -1.687,-1.125 -0.61,0 -1.328,0.265 -1.75,1.187 -0.313,0.688 -0.36,1.469 -0.36,2.266 0,0.75 0.032,1.64 0.453,2.406 0.422,0.797 1.157,1 1.641,1 0.531,0 1.297,-0.203 1.734,-1.156 0.313,-0.688 0.36,-1.469 0.36,-2.25 z m -2.094,3.187 c -0.391,0 -0.984,-0.25 -1.156,-1.203 -0.11,-0.594 -0.11,-1.515 -0.11,-2.109 0,-0.641 0,-1.297 0.079,-1.828 0.187,-1.188 0.937,-1.282 1.187,-1.282 0.328,0 0.984,0.188 1.172,1.172 0.109,0.563 0.109,1.313 0.109,1.938 0,0.75 0,1.422 -0.109,2.062 -0.156,0.953 -0.719,1.25 -1.172,1.25 z"
         style="fill:#000000;fill-opacity:1;fill-rule:nonzero;stroke:none"
         id="path318" /><path
         d="m 36.859,99.832 c 0,-0.281 -0.234,-0.531 -0.515,-0.531 -0.297,0 -0.532,0.25 -0.532,0.531 0,0.297 0.235,0.531 0.532,0.531 0.281,0 0.515,-0.234 0.515,-0.531 z"
         style="fill:#000000;fill-opacity:1;fill-rule:nonzero;stroke:none"
         id="path320" /><path
         d="m 42.297,97.176 c 0,-0.797 -0.047,-1.594 -0.391,-2.328 -0.453,-0.969 -1.281,-1.125 -1.687,-1.125 -0.61,0 -1.328,0.265 -1.75,1.187 -0.313,0.688 -0.36,1.469 -0.36,2.266 0,0.75 0.032,1.64 0.453,2.406 0.422,0.797 1.157,1 1.641,1 0.531,0 1.297,-0.203 1.735,-1.156 0.312,-0.688 0.359,-1.469 0.359,-2.25 z m -2.094,3.187 c -0.391,0 -0.984,-0.25 -1.156,-1.203 -0.109,-0.594 -0.109,-1.515 -0.109,-2.109 0,-0.641 0,-1.297 0.078,-1.828 0.187,-1.188 0.937,-1.282 1.187,-1.282 0.328,0 0.985,0.188 1.172,1.172 0.109,0.563 0.109,1.313 0.109,1.938 0,0.75 0,1.422 -0.109,2.062 -0.156,0.953 -0.719,1.25 -1.172,1.25 z"
         style="fill:#000000;fill-opacity:1;fill-rule:nonzero;stroke:none"
         id="path322" /><path
         d="m 44.016,97.098 v -0.25 c 0,-2.516 1.234,-2.875 1.75,-2.875 0.234,0 0.656,0.062 0.875,0.406 -0.157,0 -0.547,0 -0.547,0.437 0,0.313 0.234,0.469 0.453,0.469 0.156,0 0.469,-0.094 0.469,-0.484 0,-0.594 -0.438,-1.078 -1.266,-1.078 -1.281,0 -2.625,1.281 -2.625,3.484 0,2.672 1.156,3.375 2.078,3.375 1.109,0 2.063,-0.937 2.063,-2.25 0,-1.266 -0.891,-2.219 -2,-2.219 -0.672,0 -1.047,0.5 -1.25,0.985 z m 1.187,3.203 c -0.625,0 -0.922,-0.594 -0.984,-0.75 -0.188,-0.469 -0.188,-1.266 -0.188,-1.438 0,-0.781 0.328,-1.781 1.219,-1.781 0.172,0 0.625,0 0.938,0.625 0.171,0.359 0.171,0.875 0.171,1.359 0,0.485 0,0.985 -0.171,1.344 -0.297,0.594 -0.75,0.641 -0.985,0.641 z"
         style="fill:#000000;fill-opacity:1;fill-rule:nonzero;stroke:none"
         id="path324" /><path
         d="m 54.684,69.059 h -3.5"
         style="fill:none;stroke:#000000;stroke-width:0.8;stroke-linecap:butt;stroke-linejoin:round;stroke-miterlimit:10;stroke-dasharray:none;stroke-opacity:1"
         id="path326" /><path
         d="m 34.551,69.422 c 0,-0.797 -0.047,-1.594 -0.391,-2.328 -0.453,-0.969 -1.281,-1.125 -1.687,-1.125 -0.61,0 -1.328,0.265 -1.75,1.187 -0.313,0.688 -0.36,1.469 -0.36,2.266 0,0.75 0.032,1.64 0.453,2.406 0.422,0.797 1.157,1 1.641,1 0.531,0 1.297,-0.203 1.734,-1.156 0.313,-0.688 0.36,-1.469 0.36,-2.25 z m -2.094,3.187 c -0.391,0 -0.984,-0.25 -1.156,-1.203 -0.11,-0.594 -0.11,-1.515 -0.11,-2.109 0,-0.641 0,-1.297 0.079,-1.828 0.187,-1.188 0.937,-1.281 1.187,-1.281 0.328,0 0.984,0.187 1.172,1.171 0.109,0.563 0.109,1.313 0.109,1.938 0,0.75 0,1.422 -0.109,2.062 -0.156,0.953 -0.719,1.25 -1.172,1.25 z"
         style="fill:#000000;fill-opacity:1;fill-rule:nonzero;stroke:none"
         id="path328" /><path
         d="m 36.859,72.078 c 0,-0.281 -0.234,-0.531 -0.515,-0.531 -0.297,0 -0.532,0.25 -0.532,0.531 0,0.297 0.235,0.531 0.532,0.531 0.281,0 0.515,-0.234 0.515,-0.531 z"
         style="fill:#000000;fill-opacity:1;fill-rule:nonzero;stroke:none"
         id="path330" /><path
         d="m 42.297,69.422 c 0,-0.797 -0.047,-1.594 -0.391,-2.328 -0.453,-0.969 -1.281,-1.125 -1.687,-1.125 -0.61,0 -1.328,0.265 -1.75,1.187 -0.313,0.688 -0.36,1.469 -0.36,2.266 0,0.75 0.032,1.64 0.453,2.406 0.422,0.797 1.157,1 1.641,1 0.531,0 1.297,-0.203 1.735,-1.156 0.312,-0.688 0.359,-1.469 0.359,-2.25 z m -2.094,3.187 c -0.391,0 -0.984,-0.25 -1.156,-1.203 -0.109,-0.594 -0.109,-1.515 -0.109,-2.109 0,-0.641 0,-1.297 0.078,-1.828 0.187,-1.188 0.937,-1.281 1.187,-1.281 0.328,0 0.985,0.187 1.172,1.171 0.109,0.563 0.109,1.313 0.109,1.938 0,0.75 0,1.422 -0.109,2.062 -0.156,0.953 -0.719,1.25 -1.172,1.25 z"
         style="fill:#000000;fill-opacity:1;fill-rule:nonzero;stroke:none"
         id="path332" /><path
         d="m 47.453,66.531 c 0.078,-0.109 0.078,-0.125 0.078,-0.343 h -2.422 c -1.203,0 -1.234,-0.126 -1.265,-0.313 h -0.25 l -0.328,2.047 h 0.25 c 0.031,-0.156 0.109,-0.781 0.25,-0.906 0.062,-0.063 0.843,-0.063 0.968,-0.063 h 2.063 c -0.109,0.156 -0.891,1.25 -1.109,1.578 -0.907,1.344 -1.235,2.735 -1.235,3.75 0,0.094 0,0.547 0.469,0.547 0.453,0 0.453,-0.453 0.453,-0.547 v -0.515 c 0,-0.547 0.031,-1.094 0.109,-1.625 0.047,-0.235 0.172,-1.094 0.625,-1.703 z"
         style="fill:#000000;fill-opacity:1;fill-rule:nonzero;stroke:none"
         id="path334" /><path
         d="m 54.684,41.305 h -3.5"
         style="fill:none;stroke:#000000;stroke-width:0.8;stroke-linecap:butt;stroke-linejoin:round;stroke-miterlimit:10;stroke-dasharray:none;stroke-opacity:1"
         id="path336" /><path
         d="m 34.551,41.664 c 0,-0.797 -0.047,-1.594 -0.391,-2.328 -0.453,-0.969 -1.281,-1.125 -1.687,-1.125 -0.61,0 -1.328,0.266 -1.75,1.187 -0.313,0.688 -0.36,1.469 -0.36,2.266 0,0.75 0.032,1.641 0.453,2.406 0.422,0.797 1.157,1 1.641,1 0.531,0 1.297,-0.203 1.734,-1.156 0.313,-0.687 0.36,-1.469 0.36,-2.25 z m -2.094,3.188 c -0.391,0 -0.984,-0.25 -1.156,-1.204 -0.11,-0.593 -0.11,-1.515 -0.11,-2.109 0,-0.641 0,-1.297 0.079,-1.828 0.187,-1.188 0.937,-1.281 1.187,-1.281 0.328,0 0.984,0.187 1.172,1.172 0.109,0.562 0.109,1.312 0.109,1.937 0,0.75 0,1.422 -0.109,2.063 -0.156,0.953 -0.719,1.25 -1.172,1.25 z"
         style="fill:#000000;fill-opacity:1;fill-rule:nonzero;stroke:none"
         id="path338" /><path
         d="m 36.859,44.32 c 0,-0.281 -0.234,-0.531 -0.515,-0.531 -0.297,0 -0.532,0.25 -0.532,0.531 0,0.297 0.235,0.532 0.532,0.532 0.281,0 0.515,-0.235 0.515,-0.532 z"
         style="fill:#000000;fill-opacity:1;fill-rule:nonzero;stroke:none"
         id="path340" /><path
         d="m 42.297,41.664 c 0,-0.797 -0.047,-1.594 -0.391,-2.328 -0.453,-0.969 -1.281,-1.125 -1.687,-1.125 -0.61,0 -1.328,0.266 -1.75,1.187 -0.313,0.688 -0.36,1.469 -0.36,2.266 0,0.75 0.032,1.641 0.453,2.406 0.422,0.797 1.157,1 1.641,1 0.531,0 1.297,-0.203 1.735,-1.156 0.312,-0.687 0.359,-1.469 0.359,-2.25 z m -2.094,3.188 c -0.391,0 -0.984,-0.25 -1.156,-1.204 -0.109,-0.593 -0.109,-1.515 -0.109,-2.109 0,-0.641 0,-1.297 0.078,-1.828 0.187,-1.188 0.937,-1.281 1.187,-1.281 0.328,0 0.985,0.187 1.172,1.172 0.109,0.562 0.109,1.312 0.109,1.937 0,0.75 0,1.422 -0.109,2.063 -0.156,0.953 -0.719,1.25 -1.172,1.25 z"
         style="fill:#000000;fill-opacity:1;fill-rule:nonzero;stroke:none"
         id="path342" /><path
         d="m 44.328,40.289 c -0.453,-0.297 -0.5,-0.625 -0.5,-0.797 0,-0.609 0.656,-1.031 1.36,-1.031 0.718,0 1.359,0.516 1.359,1.234 0,0.578 -0.391,1.047 -0.985,1.391 z m 1.453,0.953 c 0.719,-0.375 1.203,-0.89 1.203,-1.547 0,-0.922 -0.875,-1.484 -1.781,-1.484 -1,0 -1.812,0.734 -1.812,1.672 0,0.172 0.015,0.625 0.437,1.094 0.11,0.109 0.484,0.359 0.734,0.531 -0.578,0.297 -1.437,0.844 -1.437,1.844 0,1.046 1.016,1.718 2.063,1.718 1.124,0 2.078,-0.828 2.078,-1.89 0,-0.36 -0.11,-0.813 -0.5,-1.235 -0.188,-0.203 -0.344,-0.297 -0.985,-0.703 z m -1,0.422 1.235,0.781 c 0.281,0.188 0.75,0.485 0.75,1.094 0,0.734 -0.75,1.25 -1.563,1.25 -0.859,0 -1.578,-0.609 -1.578,-1.437 0,-0.579 0.313,-1.219 1.156,-1.688 z"
         style="fill:#000000;fill-opacity:1;fill-rule:nonzero;stroke:none"
         id="path344" /><path
         d="m 54.684,13.551 h -3.5"
         style="fill:none;stroke:#000000;stroke-width:0.8;stroke-linecap:butt;stroke-linejoin:round;stroke-miterlimit:10;stroke-dasharray:none;stroke-opacity:1"
         id="path346" /><path
         d="m 34.551,13.91 c 0,-0.797 -0.047,-1.594 -0.391,-2.328 -0.453,-0.969 -1.281,-1.125 -1.687,-1.125 -0.61,0 -1.328,0.266 -1.75,1.188 -0.313,0.687 -0.36,1.468 -0.36,2.265 0,0.75 0.032,1.641 0.453,2.406 0.422,0.797 1.157,1 1.641,1 0.531,0 1.297,-0.203 1.734,-1.156 0.313,-0.687 0.36,-1.469 0.36,-2.25 z m -2.094,3.188 c -0.391,0 -0.984,-0.25 -1.156,-1.203 -0.11,-0.594 -0.11,-1.516 -0.11,-2.11 0,-0.64 0,-1.297 0.079,-1.828 0.187,-1.187 0.937,-1.281 1.187,-1.281 0.328,0 0.984,0.187 1.172,1.172 0.109,0.562 0.109,1.312 0.109,1.937 0,0.75 0,1.422 -0.109,2.063 -0.156,0.953 -0.719,1.25 -1.172,1.25 z"
         style="fill:#000000;fill-opacity:1;fill-rule:nonzero;stroke:none"
         id="path348" /><path
         d="m 36.859,16.566 c 0,-0.281 -0.234,-0.531 -0.515,-0.531 -0.297,0 -0.532,0.25 -0.532,0.531 0,0.297 0.235,0.532 0.532,0.532 0.281,0 0.515,-0.235 0.515,-0.532 z"
         style="fill:#000000;fill-opacity:1;fill-rule:nonzero;stroke:none"
         id="path350" /><path
         d="m 42.297,13.91 c 0,-0.797 -0.047,-1.594 -0.391,-2.328 -0.453,-0.969 -1.281,-1.125 -1.687,-1.125 -0.61,0 -1.328,0.266 -1.75,1.188 -0.313,0.687 -0.36,1.468 -0.36,2.265 0,0.75 0.032,1.641 0.453,2.406 0.422,0.797 1.157,1 1.641,1 0.531,0 1.297,-0.203 1.735,-1.156 0.312,-0.687 0.359,-1.469 0.359,-2.25 z m -2.094,3.188 c -0.391,0 -0.984,-0.25 -1.156,-1.203 -0.109,-0.594 -0.109,-1.516 -0.109,-2.11 0,-0.64 0,-1.297 0.078,-1.828 0.187,-1.187 0.937,-1.281 1.187,-1.281 0.328,0 0.985,0.187 1.172,1.172 0.109,0.562 0.109,1.312 0.109,1.937 0,0.75 0,1.422 -0.109,2.063 -0.156,0.953 -0.719,1.25 -1.172,1.25 z"
         style="fill:#000000;fill-opacity:1;fill-rule:nonzero;stroke:none"
         id="path352" /><path
         d="m 46.359,13.926 v 0.328 c 0,2.328 -1.031,2.781 -1.609,2.781 -0.172,0 -0.719,-0.015 -0.984,-0.359 0.437,0 0.515,-0.281 0.515,-0.453 0,-0.313 -0.234,-0.453 -0.453,-0.453 -0.156,0 -0.453,0.078 -0.453,0.468 0,0.672 0.531,1.078 1.375,1.078 1.297,0 2.516,-1.359 2.516,-3.5 0,-2.687 -1.157,-3.359 -2.047,-3.359 -0.547,0 -1.031,0.188 -1.453,0.625 -0.422,0.453 -0.641,0.875 -0.641,1.625 0,1.234 0.875,2.219 1.984,2.219 0.61,0 1.016,-0.422 1.25,-1 z m -1.234,0.765 c -0.156,0 -0.625,0 -0.922,-0.625 -0.187,-0.375 -0.187,-0.859 -0.187,-1.359 0,-0.531 0,-1 0.218,-1.375 0.266,-0.5 0.641,-0.625 0.985,-0.625 0.469,0 0.797,0.344 0.969,0.781 0.109,0.328 0.156,0.953 0.156,1.407 0,0.828 -0.344,1.796 -1.219,1.796 z"
         style="fill:#000000;fill-opacity:1;fill-rule:nonzero;stroke:none"
         id="path354" /><path
         d="m 11.695,174.164 c 0,-2.672 0.657,-3.375 1.578,-3.375 0.86,0 2.532,0.672 2.61,2.969 0.031,0.687 0.515,1.172 0.672,1.172 0.078,0 0.078,-0.063 0.078,-0.078 0.109,-0.579 0.375,-0.86 2.031,-1.594 1.469,-0.641 2.109,-1 2.109,-1.828 0,-1.688 -1.718,-3.282 -2.031,-3.282 -0.094,0 -0.094,0.11 -0.094,0.141 0,0.172 0.188,0.719 0.594,1.016 0.328,0.218 0.766,0.531 0.766,1.203 0,0.719 -1,1.156 -2.094,1.625 -0.687,0.297 -1.203,0.547 -1.578,0.859 -0.75,-2.015 -2.203,-3.39 -3.656,-3.39 -1.75,0 -1.75,2.343 -1.75,4.453 0,1.39 0,2.172 0.5,3.359 0.828,1.859 1.984,2.109 2.093,2.109 0.094,0 0.11,-0.046 0.11,-0.14 0,-0.219 -0.188,-0.547 -0.266,-0.656 -0.187,-0.282 -0.281,-0.329 -0.531,-0.407 -0.563,-0.203 -1.047,-0.593 -1.141,-2.343 0.86,0.062 2.157,0.187 4.188,0.656 1.562,0.39 3.094,0.906 4.594,1.515 0.156,0.063 0.187,0.063 0.187,0.063 0.109,0 0.109,-0.109 0.109,-0.141 0,-0.265 -0.343,-0.859 -0.609,-1.015 -0.062,-0.032 -4,-1.797 -8.469,-2.235 z"
         style="fill:#000000;fill-opacity:1;fill-rule:nonzero;stroke:none"
         id="path356" /><path
         d="m 11.664,164.078 c 0.016,0.36 0.297,0.563 0.547,0.563 0.281,0 0.344,-0.25 0.344,-0.375 0,-0.188 -0.172,-0.547 -0.625,-0.547 -0.516,0 -0.844,0.515 -0.844,1.187 0,1.328 1.344,2.672 2.75,2.672 0.969,0 1.672,-0.656 1.672,-1.64 0,-1.469 -1.016,-2.282 -1.141,-2.282 -0.062,0 -0.14,0.063 -0.14,0.141 0,0.047 0.015,0.047 0.109,0.141 0.734,0.578 0.922,1.468 0.922,1.984 0,0.547 -0.36,0.906 -1.063,0.906 -0.422,0 -1.39,-0.187 -2.015,-0.578 -0.344,-0.219 -0.86,-0.734 -0.86,-1.344 0,-0.187 0.047,-0.594 0.344,-0.828 z"
         style="fill:#000000;fill-opacity:1;fill-rule:nonzero;stroke:none"
         id="path358" /><path
         d="m 17.98,164.047 c -0.187,0 -0.359,0.141 -0.359,0.375 0,0.25 0.219,0.531 0.516,0.531 0.25,0 0.359,-0.187 0.359,-0.359 0,-0.313 -0.281,-0.547 -0.516,-0.547 z m 6.547,2 c 0.828,0.203 1.313,0.719 1.313,1.203 0,0.219 -0.031,0.234 -0.063,0.359 -0.078,-0.187 -0.281,-0.39 -0.515,-0.39 -0.219,0 -0.36,0.172 -0.36,0.375 0,0.265 0.235,0.531 0.563,0.531 0.422,0 0.609,-0.422 0.609,-0.875 0,-0.703 -0.515,-1.641 -1.484,-1.891 l -3.61,-0.906 c -0.156,-0.031 -0.312,-0.031 -0.312,-0.031 -0.547,0 -0.906,0.39 -0.906,0.937 0,1.016 1.39,1.594 1.5,1.594 0.093,0 0.109,-0.062 0.109,-0.141 0,-0.093 -0.016,-0.109 -0.203,-0.187 -0.625,-0.266 -1.172,-0.734 -1.172,-1.25 0,-0.281 0.281,-0.297 0.453,-0.297 0.016,0 0.203,0 0.313,0.031 z"
         style="fill:#000000;fill-opacity:1;fill-rule:nonzero;stroke:none"
         id="path360" /><path
         d="m 23.852,158.309 c -0.047,0 -0.063,0 -0.313,0.234 -1.406,1.391 -3.703,2.172 -6.547,2.172 -2.719,0 -5.047,-0.656 -6.687,-2.266 -0.125,-0.14 -0.157,-0.14 -0.203,-0.14 -0.079,0 -0.11,0.062 -0.11,0.125 0,0.171 1.016,1.328 2.375,2 1.406,0.718 2.906,1.031 4.625,1.031 1.235,0 2.891,-0.188 4.391,-0.906 1.672,-0.829 2.578,-1.969 2.578,-2.125 0,-0.063 -0.031,-0.125 -0.109,-0.125 z"
         style="fill:#000000;fill-opacity:1;fill-rule:nonzero;stroke:none"
         id="path362" /><path
         d="m 22.023,153.859 c 0.532,0.375 1,0.922 1,1.61 0,0.172 -0.015,0.828 -0.671,1.047 0.015,-0.047 0.015,-0.11 0.015,-0.141 0,-0.422 -0.359,-0.703 -0.672,-0.703 -0.328,0 -0.437,0.266 -0.437,0.484 0,0.219 0.172,0.703 0.844,0.703 0.718,0 1.203,-0.593 1.203,-1.39 0,-1.391 -1.282,-2.813 -2.828,-3.203 l -5.438,-1.36 c -0.078,-0.015 -0.156,-0.047 -0.25,-0.047 -0.203,0 -0.344,0.172 -0.344,0.375 0,0.125 0.063,0.422 0.469,0.532 l 4.109,1.031 c 0.25,0.078 0.282,0.078 0.438,0.187 0.391,0.282 0.859,0.735 0.859,1.407 0,0.781 -0.765,0.859 -1.14,0.859 -0.797,0 -1.875,-0.391 -2.875,-0.766 -0.407,-0.14 -0.61,-0.234 -0.875,-0.234 -0.594,0 -1.125,0.422 -1.125,1.109 0,1.282 2.031,1.797 2.14,1.797 0.047,0 0.125,-0.062 0.125,-0.156 0,-0.125 -0.062,-0.141 -0.25,-0.188 -1.172,-0.343 -1.734,-0.874 -1.734,-1.421 0,-0.125 0,-0.36 0.469,-0.36 0.359,0 0.765,0.157 1.297,0.36 1.828,0.687 2.281,0.687 2.609,0.687 1.328,0 1.641,-0.953 1.641,-1.64 0,-0.407 -0.125,-0.907 -0.641,-1.407 h 0.016 c 0.812,0.203 1.359,0.344 2.046,0.828 z"
         style="fill:#000000;fill-opacity:1;fill-rule:nonzero;stroke:none"
         id="path364" /><path
         d="m 16.227,143.793 c -0.079,-0.078 -0.141,-0.125 -0.25,-0.125 -0.094,0 -0.094,0.062 -0.094,0.25 v 4.234 c 0,0.235 0.015,0.25 0.203,0.313 l 1.687,0.515 c 0.079,0.032 0.141,0.047 0.188,0.047 0.078,0 0.125,-0.062 0.125,-0.14 0,-0.063 -0.047,-0.11 -0.109,-0.125 -1.094,-0.375 -1.797,-0.844 -1.797,-2.438 v -1.625 l 6.109,5.547 c 0.047,0.016 0.125,0.031 0.156,0.031 0.11,0 0.11,-0.047 0.11,-0.25 v -4.359 c 0,-0.25 -0.016,-0.25 -0.203,-0.313 l -2.141,-0.687 c -0.016,0 -0.125,-0.031 -0.141,-0.031 -0.031,0 -0.125,0.015 -0.125,0.125 0,0.109 0.047,0.125 0.235,0.187 1.265,0.406 2.047,0.844 2.047,2.578 v 1.719 z"
         style="fill:#000000;fill-opacity:1;fill-rule:nonzero;stroke:none"
         id="path366" /><path
         d="m 16.992,138.914 c -1.062,0 -2.797,0.141 -4.422,0.922 -1.672,0.828 -2.578,1.969 -2.578,2.125 0,0.047 0.031,0.125 0.11,0.125 0.046,0 0.078,0 0.312,-0.234 1.406,-1.407 3.719,-2.188 6.563,-2.188 2.703,0 5.031,0.656 6.671,2.281 0.141,0.141 0.157,0.141 0.204,0.141 0.078,0 0.109,-0.078 0.109,-0.125 0,-0.188 -1,-1.328 -2.375,-2.016 -1.422,-0.703 -2.922,-1.031 -4.594,-1.031 z"
         style="fill:#000000;fill-opacity:1;fill-rule:nonzero;stroke:none"
         id="path368" /><path
         d="m 15.945,124.254 c 0,-0.188 0,-0.438 -0.25,-0.438 -0.265,0 -0.265,0.235 -0.265,0.438 v 8.219 c 0,0.203 0,0.453 0.25,0.453 0.265,0 0.265,-0.235 0.265,-0.453 z m 2.594,0 c 0,-0.188 0,-0.438 -0.25,-0.438 -0.266,0 -0.266,0.235 -0.266,0.438 v 8.219 c 0,0.203 0,0.453 0.25,0.453 0.266,0 0.266,-0.235 0.266,-0.453 z"
         style="fill:#000000;fill-opacity:1;fill-rule:nonzero;stroke:none"
         id="path370" /><path
         d="m 15.195,112.074 c 0,-0.172 0,-0.64 -0.437,-0.64 -0.313,0 -0.313,0.265 -0.313,0.515 v 3.094 c 0,2.094 2.328,3.594 3.985,3.594 1.187,0 2.172,-0.766 2.172,-2.016 0,-1.656 -1.766,-3.453 -3.86,-3.453 -0.547,0 -1.078,0.125 -1.547,0.453 z m 5.125,4.531 c 0,0.704 -0.547,1.219 -1.5,1.219 -0.843,0 -3.625,-0.5 -3.625,-2.547 0,-0.609 0.297,-1.265 1.375,-1.265 0.485,0 1.657,0.218 2.469,0.703 0.828,0.5 1.281,1.265 1.281,1.89 z"
         style="fill:#000000;fill-opacity:1;fill-rule:nonzero;stroke:none"
         id="path372" /><path
         d="m 23.852,106.375 c -0.047,0 -0.063,0 -0.313,0.234 -1.406,1.391 -3.703,2.172 -6.547,2.172 -2.719,0 -5.047,-0.656 -6.687,-2.265 -0.125,-0.141 -0.157,-0.141 -0.203,-0.141 -0.079,0 -0.11,0.063 -0.11,0.125 0,0.172 1.016,1.328 2.375,2 1.406,0.719 2.906,1.031 4.625,1.031 1.235,0 2.891,-0.187 4.391,-0.906 1.672,-0.828 2.578,-1.969 2.578,-2.125 0,-0.062 -0.031,-0.125 -0.109,-0.125 z"
         style="fill:#000000;fill-opacity:1;fill-rule:nonzero;stroke:none"
         id="path374" /><path
         d="m 11.367,95.828 c -0.094,-0.078 -0.187,-0.156 -0.328,-0.156 -0.094,0 -0.109,0.016 -0.109,0.344 v 5.75 c 0,0.328 0.015,0.343 0.265,0.422 l 2.516,0.765 C 13.852,103 13.883,103 13.898,103 c 0.063,0 0.141,-0.047 0.141,-0.141 0,-0.109 -0.047,-0.14 -0.234,-0.203 -1.5,-0.515 -2.469,-1.187 -2.469,-3.39 v -2.297 l 8.656,7.64 c 0.141,0.141 0.203,0.188 0.36,0.188 0.109,0 0.109,-0.063 0.109,-0.328 V 98.5 c 0,-0.312 -0.016,-0.328 -0.266,-0.406 l -3.078,-0.985 c -0.047,-0.015 -0.14,-0.047 -0.203,-0.047 -0.062,0 -0.141,0.063 -0.141,0.141 0,0.109 0.016,0.125 0.36,0.235 1.812,0.593 2.89,1.203 2.89,3.64 v 2.406 z"
         style="fill:#000000;fill-opacity:1;fill-rule:nonzero;stroke:none"
         id="path376" /><path
         d="m 15.211,89.797 c 0,0.265 0,0.391 0.172,0.578 0.062,0.094 0.281,0.25 0.5,0.25 0.281,0 0.453,-0.219 0.453,-0.484 0,-0.329 -0.281,-0.703 -0.844,-0.703 -0.672,0 -1.187,0.64 -1.187,1.593 0,1.828 2,3.657 3.984,3.657 1.203,0 2.313,-0.75 2.313,-2.172 0,-1.891 -1.485,-3.094 -1.657,-3.094 -0.093,0 -0.156,0.078 -0.156,0.14 0,0.032 0.016,0.047 0.141,0.172 1.187,0.891 1.39,2.219 1.39,2.75 0,0.969 -0.843,1.266 -1.531,1.266 -0.484,0 -1.844,-0.234 -2.797,-0.734 -0.656,-0.36 -1.406,-1.11 -1.406,-2 0,-0.172 0.031,-0.938 0.625,-1.219 z"
         style="fill:#000000;fill-opacity:1;fill-rule:nonzero;stroke:none"
         id="path378" /><path
         d="m 16.992,85.43 c -1.062,0 -2.797,0.14 -4.422,0.922 -1.672,0.828 -2.578,1.968 -2.578,2.125 0,0.046 0.031,0.125 0.11,0.125 0.046,0 0.078,0 0.312,-0.235 1.406,-1.406 3.719,-2.187 6.563,-2.187 2.703,0 5.031,0.656 6.671,2.281 0.141,0.141 0.157,0.141 0.204,0.141 0.078,0 0.109,-0.079 0.109,-0.125 0,-0.188 -1,-1.329 -2.375,-2.016 -1.422,-0.703 -2.922,-1.031 -4.594,-1.031 z"
         style="fill:#000000;fill-opacity:1;fill-rule:nonzero;stroke:none"
         id="path380" /><path
         d="m 10.508,78.074 c -0.016,0 -0.219,-0.078 -0.25,-0.078 -0.172,0 -0.266,0.125 -0.266,0.25 0,0.063 0,0.188 0.313,0.297 l 13.125,4.672 c 0.015,0 0.218,0.094 0.25,0.094 0.172,0 0.265,-0.141 0.265,-0.25 0,-0.094 -0.015,-0.219 -0.297,-0.313 z"
         style="fill:#000000;fill-opacity:1;fill-rule:nonzero;stroke:none"
         id="path382" /><path
         d="m 15.195,70.145 c 0,-0.172 0,-0.641 -0.437,-0.641 -0.313,0 -0.313,0.266 -0.313,0.516 v 3.093 c 0,2.094 2.328,3.594 3.985,3.594 1.187,0 2.172,-0.766 2.172,-2.016 0,-1.656 -1.766,-3.453 -3.86,-3.453 -0.547,0 -1.078,0.125 -1.547,0.453 z m 5.125,4.531 c 0,0.703 -0.547,1.219 -1.5,1.219 -0.843,0 -3.625,-0.5 -3.625,-2.547 0,-0.61 0.297,-1.266 1.375,-1.266 0.485,0 1.657,0.219 2.469,0.703 0.828,0.5 1.281,1.266 1.281,1.891 z"
         style="fill:#000000;fill-opacity:1;fill-rule:nonzero;stroke:none"
         id="path384" /><path
         d="m 23.852,64.434 c -0.047,0 -0.063,0 -0.313,0.234 -1.406,1.391 -3.703,2.172 -6.547,2.172 -2.719,0 -5.047,-0.656 -6.687,-2.266 -0.125,-0.14 -0.157,-0.14 -0.203,-0.14 -0.079,0 -0.11,0.062 -0.11,0.125 0,0.171 1.016,1.328 2.375,2 1.406,0.718 2.906,1.031 4.625,1.031 1.235,0 2.891,-0.188 4.391,-0.906 1.672,-0.829 2.578,-1.969 2.578,-2.125 0,-0.063 -0.031,-0.125 -0.109,-0.125 z"
         style="fill:#000000;fill-opacity:1;fill-rule:nonzero;stroke:none"
         id="path386" /><path
         d="m 11.367,53.891 c -0.094,-0.079 -0.187,-0.157 -0.328,-0.157 -0.094,0 -0.109,0.016 -0.109,0.344 v 5.75 c 0,0.328 0.015,0.344 0.265,0.422 l 2.516,0.766 c 0.141,0.046 0.172,0.046 0.187,0.046 0.063,0 0.141,-0.046 0.141,-0.14 0,-0.11 -0.047,-0.141 -0.234,-0.203 -1.5,-0.516 -2.469,-1.188 -2.469,-3.391 v -2.297 l 8.656,7.641 c 0.141,0.14 0.203,0.187 0.36,0.187 0.109,0 0.109,-0.062 0.109,-0.328 v -5.969 c 0,-0.312 -0.016,-0.328 -0.266,-0.406 l -3.078,-0.984 c -0.047,-0.016 -0.14,-0.047 -0.203,-0.047 -0.062,0 -0.141,0.063 -0.141,0.141 0,0.109 0.016,0.125 0.36,0.234 1.812,0.594 2.89,1.203 2.89,3.641 v 2.406 z"
         style="fill:#000000;fill-opacity:1;fill-rule:nonzero;stroke:none"
         id="path388" /><path
         d="m 16.039,48.418 c -0.219,-0.047 -0.422,-0.047 -0.469,-0.047 -0.812,0 -1.265,0.594 -1.265,1.219 0,1.422 2.047,2.172 2.14,2.172 0.063,0 0.125,-0.063 0.125,-0.141 0,-0.109 -0.062,-0.125 -0.203,-0.203 -1.344,-0.547 -1.781,-1.25 -1.781,-1.781 0,-0.297 0.156,-0.438 0.641,-0.438 0.343,0 0.468,0.031 0.734,0.094 l 5.25,1.328 c 1.031,0.266 1.812,0.922 1.812,1.688 0,0.046 0,0.343 -0.14,0.609 -0.063,-0.328 -0.328,-0.594 -0.656,-0.594 -0.235,0 -0.454,0.156 -0.454,0.469 0,0.359 0.313,0.703 0.719,0.703 0.578,0 0.813,-0.625 0.813,-1.187 0,-0.969 -0.703,-2.235 -2.11,-2.594 z m -4.281,-0.563 c -0.36,0 -0.469,0.297 -0.469,0.454 0,0.375 0.375,0.703 0.672,0.703 0.219,0 0.469,-0.172 0.469,-0.469 0,-0.328 -0.313,-0.688 -0.672,-0.688 z"
         style="fill:#000000;fill-opacity:1;fill-rule:nonzero;stroke:none"
         id="path390" /><path
         d="m 16.992,42.934 c -1.062,0 -2.797,0.14 -4.422,0.921 -1.672,0.829 -2.578,1.969 -2.578,2.125 0,0.047 0.031,0.125 0.11,0.125 0.046,0 0.078,0 0.312,-0.234 1.406,-1.406 3.719,-2.187 6.563,-2.187 2.703,0 5.031,0.656 6.671,2.281 0.141,0.14 0.157,0.14 0.204,0.14 0.078,0 0.109,-0.078 0.109,-0.125 0,-0.187 -1,-1.328 -2.375,-2.015 -1.422,-0.703 -2.922,-1.031 -4.594,-1.031 z"
         style="fill:#000000;fill-opacity:1;fill-rule:nonzero;stroke:none"
         id="path392" /><path
         d="M 93.402,107.508 V 99.121"
         style="fill:none;stroke:#1e75b3;stroke-width:2;stroke-linecap:butt;stroke-linejoin:round;stroke-miterlimit:10;stroke-dasharray:none;stroke-opacity:1"
         id="path394" /><path
         d="M 180.09,137.555 V 124.207"
         style="fill:none;stroke:#1e75b3;stroke-width:2;stroke-linecap:butt;stroke-linejoin:round;stroke-miterlimit:10;stroke-dasharray:none;stroke-opacity:1"
         id="path396" /><path
         d="m 281.223,160.184 v -24.86"
         style="fill:none;stroke:#1e75b3;stroke-width:2;stroke-linecap:butt;stroke-linejoin:round;stroke-miterlimit:10;stroke-dasharray:none;stroke-opacity:1"
         id="path398" /><path
         d="m 102.648,110.199 v -4.222"
         style="fill:none;stroke:#2b9e2b;stroke-width:2;stroke-linecap:butt;stroke-linejoin:round;stroke-miterlimit:10;stroke-dasharray:none;stroke-opacity:1"
         id="path400" /><path
         d="m 189.336,149.922 v -2.57"
         style="fill:none;stroke:#2b9e2b;stroke-width:2;stroke-linecap:butt;stroke-linejoin:round;stroke-miterlimit:10;stroke-dasharray:none;stroke-opacity:1"
         id="path402" /><path
         d="m 290.469,180.922 v -3.043"
         style="fill:none;stroke:#2b9e2b;stroke-width:2;stroke-linecap:butt;stroke-linejoin:round;stroke-miterlimit:10;stroke-dasharray:none;stroke-opacity:1"
         id="path404" /><path
         d="m 95.402,107.508 h -4"
         style="fill:none;stroke:#1e75b3;stroke-width:1;stroke-linecap:butt;stroke-linejoin:round;stroke-miterlimit:10;stroke-dasharray:none;stroke-opacity:1"
         id="path406" /><path
         d="m 182.09,137.555 h -4"
         style="fill:none;stroke:#1e75b3;stroke-width:1;stroke-linecap:butt;stroke-linejoin:round;stroke-miterlimit:10;stroke-dasharray:none;stroke-opacity:1"
         id="path408" /><path
         d="m 283.223,160.184 h -4"
         style="fill:none;stroke:#1e75b3;stroke-width:1;stroke-linecap:butt;stroke-linejoin:round;stroke-miterlimit:10;stroke-dasharray:none;stroke-opacity:1"
         id="path410" /><path
         d="m 95.402,99.121 h -4"
         style="fill:none;stroke:#1e75b3;stroke-width:1;stroke-linecap:butt;stroke-linejoin:round;stroke-miterlimit:10;stroke-dasharray:none;stroke-opacity:1"
         id="path412" /><path
         d="m 182.09,124.207 h -4"
         style="fill:none;stroke:#1e75b3;stroke-width:1;stroke-linecap:butt;stroke-linejoin:round;stroke-miterlimit:10;stroke-dasharray:none;stroke-opacity:1"
         id="path414" /><path
         d="m 283.223,135.324 h -4"
         style="fill:none;stroke:#1e75b3;stroke-width:1;stroke-linecap:butt;stroke-linejoin:round;stroke-miterlimit:10;stroke-dasharray:none;stroke-opacity:1"
         id="path416" /><path
         d="m 104.648,110.199 h -4"
         style="fill:none;stroke:#2b9e2b;stroke-width:1;stroke-linecap:butt;stroke-linejoin:round;stroke-miterlimit:10;stroke-dasharray:none;stroke-opacity:1"
         id="path418" /><path
         d="m 191.336,149.922 h -4"
         style="fill:none;stroke:#2b9e2b;stroke-width:1;stroke-linecap:butt;stroke-linejoin:round;stroke-miterlimit:10;stroke-dasharray:none;stroke-opacity:1"
         id="path420" /><path
         d="m 292.469,180.922 h -4"
         style="fill:none;stroke:#2b9e2b;stroke-width:1;stroke-linecap:butt;stroke-linejoin:round;stroke-miterlimit:10;stroke-dasharray:none;stroke-opacity:1"
         id="path422" /><path
         d="m 104.648,105.977 h -4"
         style="fill:none;stroke:#2b9e2b;stroke-width:1;stroke-linecap:butt;stroke-linejoin:round;stroke-miterlimit:10;stroke-dasharray:none;stroke-opacity:1"
         id="path424" /><path
         d="m 191.336,147.352 h -4"
         style="fill:none;stroke:#2b9e2b;stroke-width:1;stroke-linecap:butt;stroke-linejoin:round;stroke-miterlimit:10;stroke-dasharray:none;stroke-opacity:1"
         id="path426" /><path
         d="m 292.469,177.879 h -4"
         style="fill:none;stroke:#2b9e2b;stroke-width:1;stroke-linecap:butt;stroke-linejoin:round;stroke-miterlimit:10;stroke-dasharray:none;stroke-opacity:1"
         id="path428" /><path
         d="m 93.402,105.621 2.121,-2.121 -2.121,-2.121 -2.121,2.121 z"
         style="fill:#1e75b3;fill-opacity:1;fill-rule:nonzero;stroke:none"
         id="path430" /></g><g
       id="g432"><g
         id="g434"
         clip-path="url(#clipPath438)"><g
           id="g440"><g
             id="g442"><g
               id="g444"
               clip-path="url(#clipPath448)"><g
                 id="g450"><path
                   d="m 93.402,105.621 2.121,-2.121 -2.121,-2.121 -2.121,2.121 z"
                   style="fill:none;stroke:#1e75b3;stroke-width:1;stroke-linecap:butt;stroke-linejoin:miter;stroke-miterlimit:10;stroke-dasharray:none;stroke-opacity:1"
                   id="path452" /></g></g></g></g></g></g><g
       id="g454"><path
         d="m 180.09,132.883 2.121,-2.121 -2.121,-2.125 -2.125,2.125 z"
         style="fill:#1e75b3;fill-opacity:1;fill-rule:nonzero;stroke:none"
         id="path456" /></g><g
       id="g458"><g
         id="g460"
         clip-path="url(#clipPath464)"><g
           id="g466"><g
             id="g468"><g
               id="g470"
               clip-path="url(#clipPath474)"><g
                 id="g476"><path
                   d="m 180.09,132.883 2.121,-2.121 -2.121,-2.125 -2.125,2.125 z"
                   style="fill:none;stroke:#1e75b3;stroke-width:1;stroke-linecap:butt;stroke-linejoin:miter;stroke-miterlimit:10;stroke-dasharray:none;stroke-opacity:1"
                   id="path478" /></g></g></g></g></g></g><g
       id="g480"><path
         d="m 281.223,148.449 2.121,-2.121 -2.121,-2.121 -2.121,2.121 z"
         style="fill:#1e75b3;fill-opacity:1;fill-rule:nonzero;stroke:none"
         id="path482" /></g><g
       id="g484"><g
         id="g486"
         clip-path="url(#clipPath490)"><g
           id="g492"><g
             id="g494"><g
               id="g496"
               clip-path="url(#clipPath500)"><g
                 id="g502"><path
                   d="m 281.223,148.449 2.121,-2.121 -2.121,-2.121 -2.121,2.121 z"
                   style="fill:none;stroke:#1e75b3;stroke-width:1;stroke-linecap:butt;stroke-linejoin:miter;stroke-miterlimit:10;stroke-dasharray:none;stroke-opacity:1"
                   id="path504" /></g></g></g></g></g></g><g
       id="g506"><path
         d="m 101.148,106.367 h 3 v 3 h -3 z"
         style="fill:#2b9e2b;fill-opacity:1;fill-rule:nonzero;stroke:#2b9e2b;stroke-width:1;stroke-linecap:butt;stroke-linejoin:miter;stroke-miterlimit:10;stroke-dasharray:none;stroke-opacity:1"
         id="path508" /><path
         d="m 187.836,147.012 h 3 v 3 h -3 z"
         style="fill:#2b9e2b;fill-opacity:1;fill-rule:nonzero;stroke:#2b9e2b;stroke-width:1;stroke-linecap:butt;stroke-linejoin:miter;stroke-miterlimit:10;stroke-dasharray:none;stroke-opacity:1"
         id="path510" /><path
         d="m 288.969,177.816 h 3 v 3 h -3 z"
         style="fill:#2b9e2b;fill-opacity:1;fill-rule:nonzero;stroke:#2b9e2b;stroke-width:1;stroke-linecap:butt;stroke-linejoin:miter;stroke-miterlimit:10;stroke-dasharray:none;stroke-opacity:1"
         id="path512" /><path
         d="M 54.684,207.832 V 13.551"
         style="fill:none;stroke:#000000;stroke-width:0.8;stroke-linecap:square;stroke-linejoin:miter;stroke-miterlimit:10;stroke-dasharray:none;stroke-opacity:1"
         id="path514" /><path
         d="M 343.637,207.832 V 13.551"
         style="fill:none;stroke:#000000;stroke-width:0.8;stroke-linecap:square;stroke-linejoin:miter;stroke-miterlimit:10;stroke-dasharray:none;stroke-opacity:1"
         id="path516" /><path
         d="M 54.684,207.832 H 343.637"
         style="fill:none;stroke:#000000;stroke-width:0.8;stroke-linecap:square;stroke-linejoin:miter;stroke-miterlimit:10;stroke-dasharray:none;stroke-opacity:1"
         id="path518" /><path
         d="M 54.684,13.551 H 343.637"
         style="fill:none;stroke:#000000;stroke-width:0.8;stroke-linecap:square;stroke-linejoin:miter;stroke-miterlimit:10;stroke-dasharray:none;stroke-opacity:1"
         id="path520" /><path
         d="m 186.473,79.711 h 148.062 c 1.735,0 2.602,-0.867 2.602,-2.602 V 22.648 c 0,-1.734 -0.867,-2.597 -2.602,-2.597 H 186.473 c -1.731,0 -2.598,0.863 -2.598,2.597 v 54.461 c 0,1.735 0.867,2.602 2.598,2.602 z"
         style="fill:#ffffff;fill-opacity:0.8;fill-rule:nonzero;stroke:none"
         id="path522" /><path
         d="m 186.473,79.711 h 148.062 c 1.735,0 2.602,-0.867 2.602,-2.602 V 22.648 c 0,-1.734 -0.867,-2.597 -2.602,-2.597 H 186.473 c -1.731,0 -2.598,0.863 -2.598,2.597 v 54.461 c 0,1.735 0.867,2.602 2.598,2.602 z"
         style="fill:none;stroke:#cacaca;stroke-width:1;stroke-linecap:butt;stroke-linejoin:miter;stroke-miterlimit:10;stroke-dasharray:none;stroke-opacity:0.8"
         id="path524" /><path
         d="m 189.074,25.477 h 26 v 9.102 h -26 z"
         style="fill:#7f7f7f;fill-opacity:0.5;fill-rule:nonzero;stroke:none"
         id="path526" /><path
         d="m 189.074,25.477 h 26 v 9.102 h -26 z"
         style="fill:none;stroke:#7f7f7f;stroke-width:1;stroke-linecap:butt;stroke-linejoin:miter;stroke-miterlimit:10;stroke-dasharray:none;stroke-opacity:0.5"
         id="path528" /><path
         d="m 232.863,31.266 h -0.297 c -0.125,1.296 -0.296,2.937 -2.562,2.937 h -1.125 c -0.563,0 -0.594,-0.094 -0.594,-0.515 v -6.954 c 0,-0.468 0.031,-0.625 1.156,-0.625 h 0.391 v -0.375 c -0.375,0.016 -1.516,0.016 -1.969,0.016 -0.39,0 -1.547,0 -1.859,-0.016 v 0.375 h 0.266 c 0.921,0 0.968,0.125 0.968,0.61 v 6.875 c 0,0.484 -0.047,0.609 -0.968,0.609 h -0.266 v 0.375 h 6.516 z"
         style="fill:#000000;fill-opacity:1;fill-rule:nonzero;stroke:none"
         id="path530" /><path
         d="m 241.121,26.719 c 0,-0.485 0.031,-0.61 0.969,-0.61 h 0.265 v -0.375 c -0.312,0.016 -1.375,0.016 -1.75,0.016 -0.39,0 -1.453,0 -1.765,-0.016 v 0.375 h 0.265 c 0.922,0 0.969,0.125 0.969,0.61 v 3.062 h -3.875 v -3.062 c 0,-0.485 0.031,-0.61 0.969,-0.61 h 0.266 v -0.375 c -0.313,0.016 -1.375,0.016 -1.75,0.016 -0.391,0 -1.454,0 -1.766,-0.016 v 0.375 h 0.266 c 0.921,0 0.968,0.125 0.968,0.61 v 6.875 c 0,0.484 -0.047,0.609 -0.968,0.609 h -0.266 v 0.375 c 0.312,-0.031 1.375,-0.031 1.75,-0.031 0.391,0 1.453,0 1.766,0.031 v -0.375 h -0.266 c -0.938,0 -0.969,-0.125 -0.969,-0.609 v -3.438 h 3.875 v 3.438 c 0,0.484 -0.047,0.609 -0.969,0.609 h -0.265 v 0.375 c 0.312,-0.031 1.375,-0.031 1.75,-0.031 0.39,0 1.453,0 1.765,0.031 v -0.375 h -0.265 c -0.938,0 -0.969,-0.125 -0.969,-0.609 z"
         style="fill:#000000;fill-opacity:1;fill-rule:nonzero;stroke:none"
         id="path532" /><path
         d="m 251.348,25.75 c 0,-0.219 0,-0.297 -0.141,-0.297 -0.078,0 -0.094,0.031 -0.172,0.156 l -0.625,1.032 c -0.578,-0.735 -1.469,-1.188 -2.406,-1.188 -2.359,0 -4.406,2.047 -4.406,4.688 0,2.687 2.062,4.703 4.406,4.703 2.125,0 3.344,-1.844 3.344,-3.266 0,-0.14 0,-0.219 -0.157,-0.219 -0.125,0 -0.14,0.063 -0.14,0.157 -0.11,2.046 -1.61,2.953 -2.875,2.953 -0.906,0 -3.375,-0.531 -3.375,-4.328 0,-3.735 2.437,-4.313 3.359,-4.313 1.36,0 2.563,1.156 2.813,3.11 0.031,0.156 0.031,0.187 0.187,0.187 0.188,0 0.188,-0.031 0.188,-0.297 z"
         style="fill:#000000;fill-opacity:1;fill-rule:nonzero;stroke:none"
         id="path534" /><path
         d="m 254.207,25.594 -1.797,0.14 v 0.375 c 0.891,0 0.985,0.094 0.985,0.719 v 7.75 h 0.281 c 0.062,-0.109 0.422,-0.75 0.469,-0.844 0.296,0.485 0.859,0.969 1.687,0.969 1.484,0 2.797,-1.25 2.797,-2.922 0,-1.64 -1.219,-2.922 -2.656,-2.922 -0.703,0 -1.313,0.329 -1.766,0.875 z m 0.031,4.844 c 0,-0.235 0,-0.266 0.141,-0.469 0.312,-0.469 0.891,-0.844 1.516,-0.844 0.39,0 1.75,0.156 1.75,2.641 0,0.875 -0.125,1.406 -0.438,1.875 -0.266,0.406 -0.781,0.812 -1.422,0.812 -0.703,0 -1.156,-0.453 -1.375,-0.812 -0.172,-0.266 -0.172,-0.313 -0.172,-0.547 z"
         style="fill:#000000;fill-opacity:1;fill-rule:nonzero;stroke:none"
         id="path536" /><path
         d="m 266.574,25.734 v 0.375 c 0.875,0 0.985,0.094 0.985,0.719 v 2.86 c -0.282,-0.376 -0.829,-0.829 -1.625,-0.829 -1.5,0 -2.797,1.282 -2.797,2.938 0,1.641 1.234,2.906 2.656,2.906 0.984,0 1.547,-0.641 1.734,-0.891 v 0.891 l 1.828,-0.125 v -0.375 c -0.875,0 -0.984,-0.094 -0.984,-0.719 v -7.89 z m 0.953,7.328 c 0,0.235 0,0.266 -0.187,0.563 -0.297,0.453 -0.828,0.828 -1.485,0.828 -0.328,0 -1.734,-0.141 -1.734,-2.641 0,-0.937 0.156,-1.453 0.438,-1.89 0.265,-0.391 0.781,-0.797 1.421,-0.797 0.813,0 1.266,0.578 1.391,0.797 0.156,0.219 0.156,0.234 0.156,0.469 z"
         style="fill:#000000;fill-opacity:1;fill-rule:nonzero;stroke:none"
         id="path538" /><path
         d="m 274.715,31.125 c 0,-0.703 0,-1.219 -0.563,-1.734 -0.453,-0.407 -1.047,-0.594 -1.609,-0.594 -1.063,0 -1.875,0.703 -1.875,1.547 0,0.375 0.234,0.562 0.531,0.562 0.313,0 0.531,-0.234 0.531,-0.531 0,-0.531 -0.468,-0.531 -0.656,-0.531 0.297,-0.547 0.922,-0.782 1.438,-0.782 0.593,0 1.359,0.485 1.359,1.657 v 0.515 c -2.609,0.047 -3.594,1.125 -3.594,2.125 0,1.032 1.203,1.344 1.985,1.344 0.859,0 1.437,-0.515 1.687,-1.141 0.047,0.61 0.453,1.079 1.016,1.079 0.265,0 1.015,-0.172 1.015,-1.219 v -0.719 h -0.281 v 0.719 c 0,0.734 -0.312,0.844 -0.5,0.844 -0.484,0 -0.484,-0.688 -0.484,-0.875 z m -0.844,1.625 c 0,1.266 -0.937,1.703 -1.5,1.703 -0.641,0 -1.172,-0.469 -1.172,-1.094 0,-1.703 2.203,-1.859 2.672,-1.89 z"
         style="fill:#000000;fill-opacity:1;fill-rule:nonzero;stroke:none"
         id="path540" /><path
         d="m 278.223,29.375 h 1.828 V 29 h -1.828 v -2.391 h -0.282 c -0.015,1.219 -0.484,2.469 -1.656,2.5 v 0.266 h 1.094 v 3.594 c 0,1.437 0.969,1.734 1.656,1.734 0.813,0 1.235,-0.797 1.235,-1.734 v -0.735 h -0.282 v 0.719 c 0,0.922 -0.375,1.469 -0.875,1.469 -0.89,0 -0.89,-1.203 -0.89,-1.422 z"
         style="fill:#000000;fill-opacity:1;fill-rule:nonzero;stroke:none"
         id="path542" /><path
         d="m 285.969,31.125 c 0,-0.703 0,-1.219 -0.563,-1.734 -0.453,-0.407 -1.047,-0.594 -1.609,-0.594 -1.063,0 -1.875,0.703 -1.875,1.547 0,0.375 0.234,0.562 0.531,0.562 0.313,0 0.531,-0.234 0.531,-0.531 0,-0.531 -0.468,-0.531 -0.656,-0.531 0.297,-0.547 0.922,-0.782 1.438,-0.782 0.593,0 1.359,0.485 1.359,1.657 v 0.515 c -2.609,0.047 -3.594,1.125 -3.594,2.125 0,1.032 1.203,1.344 1.985,1.344 0.859,0 1.437,-0.515 1.687,-1.141 0.047,0.61 0.453,1.079 1.016,1.079 0.265,0 1.015,-0.172 1.015,-1.219 v -0.719 h -0.281 v 0.719 c 0,0.734 -0.312,0.844 -0.5,0.844 -0.484,0 -0.484,-0.688 -0.484,-0.875 z m -0.844,1.625 c 0,1.266 -0.937,1.703 -1.5,1.703 -0.641,0 -1.172,-0.469 -1.172,-1.094 0,-1.703 2.203,-1.859 2.672,-1.89 z"
         style="fill:#000000;fill-opacity:1;fill-rule:nonzero;stroke:none"
         id="path544" /><path
         d="m 202.074,55.113 v -13"
         style="fill:none;stroke:#1e75b3;stroke-width:2;stroke-linecap:butt;stroke-linejoin:round;stroke-miterlimit:10;stroke-dasharray:none;stroke-opacity:1"
         id="path546" /><path
         d="m 204.074,55.113 h -4"
         style="fill:none;stroke:#1e75b3;stroke-width:1;stroke-linecap:butt;stroke-linejoin:round;stroke-miterlimit:10;stroke-dasharray:none;stroke-opacity:1"
         id="path548" /><path
         d="m 204.074,42.113 h -4"
         style="fill:none;stroke:#1e75b3;stroke-width:1;stroke-linecap:butt;stroke-linejoin:round;stroke-miterlimit:10;stroke-dasharray:none;stroke-opacity:1"
         id="path550" /><path
         d="m 202.074,50.734 2.121,-2.121 -2.121,-2.121 -2.121,2.121 z"
         style="fill:#1e75b3;fill-opacity:1;fill-rule:nonzero;stroke:#1e75b3;stroke-width:1;stroke-linecap:butt;stroke-linejoin:miter;stroke-miterlimit:10;stroke-dasharray:none;stroke-opacity:1"
         id="path552" /><path
         d="m 229.363,44.32 v 0.375 c 0.875,0 0.985,0.094 0.985,0.719 v 2.859 c -0.282,-0.375 -0.828,-0.828 -1.625,-0.828 -1.5,0 -2.797,1.282 -2.797,2.938 0,1.64 1.234,2.906 2.656,2.906 0.984,0 1.547,-0.641 1.734,-0.891 v 0.891 l 1.829,-0.125 v -0.375 c -0.875,0 -0.985,-0.094 -0.985,-0.719 v -7.89 z m 0.953,7.328 c 0,0.235 0,0.266 -0.187,0.563 -0.297,0.453 -0.828,0.828 -1.484,0.828 -0.329,0 -1.735,-0.141 -1.735,-2.641 0,-0.937 0.156,-1.453 0.438,-1.89 0.265,-0.391 0.781,-0.797 1.422,-0.797 0.812,0 1.265,0.578 1.39,0.797 0.156,0.219 0.156,0.234 0.156,0.469 z"
         style="fill:#000000;fill-opacity:1;fill-rule:nonzero;stroke:none"
         id="path554" /><path
         d="m 237.477,50.164 c 0.281,0 0.296,0 0.296,-0.25 0,-1.312 -0.687,-2.531 -2.265,-2.531 -1.469,0 -2.61,1.344 -2.61,2.937 0,1.719 1.313,2.969 2.75,2.969 1.547,0 2.125,-1.391 2.125,-1.672 0,-0.078 -0.062,-0.125 -0.14,-0.125 -0.094,0 -0.125,0.063 -0.156,0.125 -0.329,1.094 -1.204,1.391 -1.75,1.391 -0.532,0 -1.844,-0.36 -1.844,-2.61 v -0.234 z m -3.579,-0.25 c 0.094,-2.031 1.235,-2.266 1.594,-2.266 1.391,0 1.469,1.829 1.485,2.266 z"
         style="fill:#000000;fill-opacity:1;fill-rule:nonzero;stroke:none"
         id="path556" /><path
         d="m 240.375,47.961 h 1.453 v -0.375 h -1.484 V 46.07 c 0,-1.172 0.594,-1.765 1.125,-1.765 0.109,0 0.297,0.031 0.453,0.109 -0.047,0 -0.375,0.125 -0.375,0.5 0,0.297 0.203,0.5 0.5,0.5 0.312,0 0.531,-0.203 0.531,-0.516 0,-0.484 -0.469,-0.859 -1.094,-0.859 -0.906,0 -1.937,0.703 -1.937,2.031 v 1.516 h -1 v 0.375 h 1 v 4.25 c 0,0.578 -0.141,0.578 -0.985,0.578 v 0.375 c 0.376,-0.031 1.079,-0.031 1.469,-0.031 0.344,0 1.266,0 1.563,0.031 v -0.375 h -0.25 c -0.953,0 -0.969,-0.141 -0.969,-0.609 z"
         style="fill:#000000;fill-opacity:1;fill-rule:nonzero;stroke:none"
         id="path558" /><path
         d="m 247.012,49.711 c 0,-0.703 0,-1.219 -0.563,-1.734 -0.453,-0.407 -1.047,-0.594 -1.609,-0.594 -1.063,0 -1.875,0.703 -1.875,1.547 0,0.375 0.234,0.562 0.531,0.562 0.313,0 0.531,-0.234 0.531,-0.531 0,-0.531 -0.468,-0.531 -0.656,-0.531 0.297,-0.547 0.922,-0.782 1.438,-0.782 0.593,0 1.359,0.485 1.359,1.657 v 0.515 c -2.609,0.047 -3.594,1.125 -3.594,2.125 0,1.032 1.203,1.344 1.985,1.344 0.859,0 1.437,-0.516 1.687,-1.141 0.047,0.61 0.453,1.079 1.016,1.079 0.265,0 1.015,-0.172 1.015,-1.219 v -0.719 h -0.281 v 0.719 c 0,0.734 -0.312,0.844 -0.5,0.844 -0.484,0 -0.484,-0.688 -0.484,-0.875 z m -0.844,1.625 c 0,1.266 -0.938,1.703 -1.5,1.703 -0.641,0 -1.172,-0.469 -1.172,-1.094 0,-1.703 2.203,-1.859 2.672,-1.89 z"
         style="fill:#000000;fill-opacity:1;fill-rule:nonzero;stroke:none"
         id="path560" /><path
         d="m 252.285,47.602 v 0.375 c 0.875,0 0.985,0.078 0.985,0.718 v 2.313 c 0,1.109 -0.579,2.031 -1.547,2.031 -1.063,0 -1.141,-0.609 -1.141,-1.297 v -4.297 l -1.812,0.157 v 0.375 c 0.984,0 0.984,0.031 0.984,1.187 v 1.938 c 0,0.812 0,1.265 0.375,1.703 0.312,0.328 0.844,0.484 1.516,0.484 0.218,0 0.625,0 1.062,-0.375 0.375,-0.297 0.594,-0.781 0.594,-0.781 v 1.156 l 1.797,-0.125 v -0.375 c -0.875,0 -0.985,-0.094 -0.985,-0.719 v -4.625 z"
         style="fill:#000000;fill-opacity:1;fill-rule:nonzero;stroke:none"
         id="path562" /><path
         d="m 257.613,44.18 -1.812,0.14 v 0.375 c 0.89,0 0.984,0.094 0.984,0.719 v 6.797 c 0,0.578 -0.14,0.578 -0.984,0.578 v 0.375 c 0.375,-0.031 1,-0.031 1.39,-0.031 0.391,0 1.032,0 1.407,0.031 v -0.375 c -0.828,0 -0.985,0 -0.985,-0.578 z"
         style="fill:#000000;fill-opacity:1;fill-rule:nonzero;stroke:none"
         id="path564" /><path
         d="m 261.059,47.961 h 1.828 v -0.375 h -1.828 v -2.391 h -0.282 c -0.015,1.219 -0.484,2.469 -1.656,2.5 v 0.266 h 1.094 v 3.594 c 0,1.437 0.969,1.734 1.656,1.734 0.813,0 1.234,-0.797 1.234,-1.734 V 50.82 h -0.281 v 0.719 c 0,0.922 -0.375,1.469 -0.875,1.469 -0.89,0 -0.89,-1.203 -0.89,-1.422 z"
         style="fill:#000000;fill-opacity:1;fill-rule:nonzero;stroke:none"
         id="path566" /><path
         d="m 272.098,48.367 c -0.157,0 -0.641,0 -0.641,0.531 0,0.313 0.234,0.532 0.531,0.532 0.313,0 0.547,-0.172 0.547,-0.547 0,-0.875 -0.906,-1.5 -1.953,-1.5 -1.516,0 -2.719,1.344 -2.719,2.984 0,1.656 1.25,2.922 2.703,2.922 1.719,0 2.11,-1.547 2.11,-1.672 0,-0.109 -0.094,-0.109 -0.141,-0.109 -0.109,0 -0.125,0.031 -0.156,0.187 -0.297,0.922 -0.984,1.313 -1.688,1.313 -0.796,0 -1.843,-0.688 -1.843,-2.656 0,-2.157 1.093,-2.672 1.75,-2.672 0.484,0 1.203,0.187 1.5,0.687 z"
         style="fill:#000000;fill-opacity:1;fill-rule:nonzero;stroke:none"
         id="path568" /><path
         d="m 278.457,50.023 c 0,-1.218 0,-1.578 -0.297,-1.984 -0.375,-0.516 -0.984,-0.594 -1.422,-0.594 -1.125,0 -1.64,0.844 -1.812,1.25 H 274.91 V 44.18 l -1.797,0.14 v 0.375 c 0.875,0 0.985,0.094 0.985,0.719 v 6.797 c 0,0.578 -0.157,0.578 -0.985,0.578 v 0.375 c 0.328,-0.031 1.032,-0.031 1.391,-0.031 0.375,0 1.078,0 1.406,0.031 v -0.375 c -0.828,0 -0.984,0 -0.984,-0.578 v -2.422 c 0,-1.359 0.906,-2.078 1.703,-2.078 0.797,0 0.984,0.656 0.984,1.453 v 3.047 c 0,0.578 -0.14,0.578 -0.984,0.578 v 0.375 c 0.344,-0.031 1.031,-0.031 1.406,-0.031 0.375,0 1.063,0 1.406,0.031 v -0.375 c -0.656,0 -0.968,0 -0.984,-0.391 z"
         style="fill:#000000;fill-opacity:1;fill-rule:nonzero;stroke:none"
         id="path570" /><path
         d="m 284.723,49.711 c 0,-0.703 0,-1.219 -0.563,-1.734 -0.453,-0.407 -1.047,-0.594 -1.609,-0.594 -1.063,0 -1.875,0.703 -1.875,1.547 0,0.375 0.234,0.562 0.531,0.562 0.313,0 0.531,-0.234 0.531,-0.531 0,-0.531 -0.468,-0.531 -0.656,-0.531 0.297,-0.547 0.922,-0.782 1.438,-0.782 0.593,0 1.359,0.485 1.359,1.657 v 0.515 c -2.609,0.047 -3.594,1.125 -3.594,2.125 0,1.032 1.203,1.344 1.985,1.344 0.859,0 1.437,-0.516 1.687,-1.141 0.047,0.61 0.453,1.079 1.016,1.079 0.265,0 1.015,-0.172 1.015,-1.219 v -0.719 h -0.281 v 0.719 c 0,0.734 -0.312,0.844 -0.5,0.844 -0.484,0 -0.484,-0.688 -0.484,-0.875 z m -0.844,1.625 c 0,1.266 -0.938,1.703 -1.5,1.703 -0.641,0 -1.172,-0.469 -1.172,-1.094 0,-1.703 2.203,-1.859 2.672,-1.89 z"
         style="fill:#000000;fill-opacity:1;fill-rule:nonzero;stroke:none"
         id="path572" /><path
         d="m 288.215,50.148 c 0,-1.265 0.531,-2.437 1.515,-2.437 0.11,0 0.141,0 0.188,0.016 -0.109,0.046 -0.313,0.125 -0.313,0.468 0,0.391 0.297,0.532 0.5,0.532 0.266,0 0.532,-0.172 0.532,-0.532 0,-0.375 -0.36,-0.75 -0.907,-0.75 -1.109,0 -1.484,1.203 -1.562,1.438 h -0.016 v -1.438 l -1.734,0.157 v 0.375 c 0.891,0 0.984,0.078 0.984,0.718 v 3.516 c 0,0.578 -0.14,0.578 -0.984,0.578 v 0.375 c 0.359,-0.031 1.078,-0.031 1.469,-0.031 0.343,0 1.265,0 1.562,0.031 v -0.375 h -0.25 c -0.953,0 -0.984,-0.141 -0.984,-0.609 z"
         style="fill:#000000;fill-opacity:1;fill-rule:nonzero;stroke:none"
         id="path574" /><path
         d="m 300.262,50.023 c 0,-1.218 0,-1.578 -0.297,-1.984 -0.375,-0.516 -0.985,-0.594 -1.422,-0.594 -1.078,0 -1.609,0.782 -1.828,1.282 -0.172,-0.985 -0.875,-1.282 -1.688,-1.282 -1.265,0 -1.75,1.078 -1.859,1.344 h -0.016 v -1.344 l -1.75,0.157 v 0.375 c 0.875,0 0.985,0.078 0.985,0.718 v 3.516 c 0,0.578 -0.157,0.578 -0.985,0.578 v 0.375 c 0.328,-0.031 1.032,-0.031 1.391,-0.031 0.375,0 1.078,0 1.406,0.031 v -0.375 c -0.828,0 -0.984,0 -0.984,-0.578 v -2.422 c 0,-1.359 0.906,-2.078 1.703,-2.078 0.797,0 0.984,0.656 0.984,1.453 v 3.047 c 0,0.578 -0.14,0.578 -0.984,0.578 v 0.375 c 0.344,-0.031 1.031,-0.031 1.406,-0.031 0.375,0 1.063,0 1.406,0.031 v -0.375 c -0.828,0 -0.984,0 -0.984,-0.578 v -2.422 c 0,-1.359 0.891,-2.078 1.703,-2.078 0.797,0 0.985,0.656 0.985,1.453 v 3.047 c 0,0.578 -0.157,0.578 -0.985,0.578 v 0.375 c 0.328,-0.031 1.031,-0.031 1.391,-0.031 0.375,0 1.078,0 1.406,0.031 v -0.375 c -0.641,0 -0.969,0 -0.984,-0.391 z"
         style="fill:#000000;fill-opacity:1;fill-rule:nonzero;stroke:none"
         id="path576" /><path
         d="m 202.074,73.699 v -13"
         style="fill:none;stroke:#2b9e2b;stroke-width:2;stroke-linecap:butt;stroke-linejoin:round;stroke-miterlimit:10;stroke-dasharray:none;stroke-opacity:1"
         id="path578" /><path
         d="m 204.074,73.699 h -4"
         style="fill:none;stroke:#2b9e2b;stroke-width:1;stroke-linecap:butt;stroke-linejoin:round;stroke-miterlimit:10;stroke-dasharray:none;stroke-opacity:1"
         id="path580" /><path
         d="m 204.074,60.699 h -4"
         style="fill:none;stroke:#2b9e2b;stroke-width:1;stroke-linecap:butt;stroke-linejoin:round;stroke-miterlimit:10;stroke-dasharray:none;stroke-opacity:1"
         id="path582" /><path
         d="m 200.574,65.699 h 3 v 3 h -3 z"
         style="fill:#2b9e2b;fill-opacity:1;fill-rule:nonzero;stroke:#2b9e2b;stroke-width:1;stroke-linecap:butt;stroke-linejoin:miter;stroke-miterlimit:10;stroke-dasharray:none;stroke-opacity:1"
         id="path584" /><path
         d="m 228.645,73.891 c -0.829,0 -0.985,0 -0.985,-0.594 v -2.25 c 0.235,0.328 0.766,0.828 1.594,0.828 1.484,0 2.797,-1.25 2.797,-2.922 0,-1.641 -1.219,-2.922 -2.625,-2.922 -1.141,0 -1.75,0.828 -1.797,0.875 v -0.875 l -1.797,0.157 v 0.374 c 0.906,0 0.984,0.079 0.984,0.657 v 6.078 c 0,0.594 -0.14,0.594 -0.984,0.594 v 0.375 c 0.344,-0.032 1.047,-0.032 1.406,-0.032 0.375,0 1.078,0 1.407,0.032 z m -0.985,-6.266 c 0,-0.25 0,-0.266 0.141,-0.469 0.39,-0.594 1.031,-0.828 1.515,-0.828 0.969,0 1.75,1.172 1.75,2.625 0,1.547 -0.875,2.672 -1.875,2.672 -0.406,0 -0.781,-0.172 -1.031,-0.422 -0.297,-0.297 -0.5,-0.547 -0.5,-0.922 z"
         style="fill:#000000;fill-opacity:1;fill-rule:nonzero;stroke:none"
         id="path586" /><path
         d="m 237.828,68.75 c 0.281,0 0.297,0 0.297,-0.25 0,-1.312 -0.687,-2.531 -2.266,-2.531 -1.468,0 -2.609,1.343 -2.609,2.937 0,1.719 1.312,2.969 2.75,2.969 1.547,0 2.125,-1.391 2.125,-1.672 0,-0.078 -0.063,-0.125 -0.141,-0.125 -0.093,0 -0.125,0.063 -0.156,0.125 -0.328,1.094 -1.203,1.391 -1.75,1.391 -0.531,0 -1.844,-0.36 -1.844,-2.61 V 68.75 Z M 234.25,68.5 c 0.094,-2.031 1.234,-2.266 1.594,-2.266 1.39,0 1.468,1.828 1.484,2.266 z"
         style="fill:#000000;fill-opacity:1;fill-rule:nonzero;stroke:none"
         id="path588" /><path
         d="m 240.648,68.734 c 0,-1.265 0.532,-2.437 1.516,-2.437 0.109,0 0.141,0 0.188,0.015 -0.11,0.047 -0.313,0.126 -0.313,0.469 0,0.391 0.297,0.531 0.5,0.531 0.266,0 0.531,-0.171 0.531,-0.531 0,-0.375 -0.359,-0.75 -0.906,-0.75 -1.109,0 -1.484,1.203 -1.562,1.438 h -0.016 v -1.438 l -1.734,0.157 v 0.374 c 0.89,0 0.984,0.079 0.984,0.719 v 3.516 c 0,0.578 -0.141,0.578 -0.984,0.578 v 0.375 c 0.359,-0.031 1.078,-0.031 1.468,-0.031 0.344,0 1.266,0 1.563,0.031 v -0.375 h -0.25 c -0.953,0 -0.985,-0.141 -0.985,-0.609 z"
         style="fill:#000000;fill-opacity:1;fill-rule:nonzero;stroke:none"
         id="path590" /><path
         d="m 245.586,66.547 h 1.828 v -0.375 h -1.828 v -2.391 h -0.281 c -0.016,1.219 -0.485,2.469 -1.657,2.5 v 0.266 h 1.094 v 3.594 c 0,1.437 0.969,1.734 1.656,1.734 0.813,0 1.235,-0.797 1.235,-1.734 v -0.735 h -0.281 v 0.719 c 0,0.922 -0.375,1.469 -0.875,1.469 -0.891,0 -0.891,-1.203 -0.891,-1.422 z"
         style="fill:#000000;fill-opacity:1;fill-rule:nonzero;stroke:none"
         id="path592" /><path
         d="m 252.273,66.188 v 0.374 c 0.875,0 0.985,0.079 0.985,0.719 v 2.313 c 0,1.109 -0.578,2.031 -1.547,2.031 -1.063,0 -1.141,-0.609 -1.141,-1.297 v -4.297 l -1.812,0.157 v 0.374 c 0.984,0 0.984,0.032 0.984,1.188 v 1.938 c 0,0.812 0,1.265 0.375,1.703 0.313,0.328 0.844,0.484 1.516,0.484 0.219,0 0.625,0 1.062,-0.375 0.375,-0.297 0.594,-0.781 0.594,-0.781 v 1.156 l 1.797,-0.125 v -0.375 c -0.875,0 -0.984,-0.094 -0.984,-0.719 v -4.625 z"
         style="fill:#000000;fill-opacity:1;fill-rule:nonzero;stroke:none"
         id="path594" /><path
         d="m 257.523,68.734 c 0,-1.265 0.532,-2.437 1.516,-2.437 0.109,0 0.141,0 0.188,0.015 -0.11,0.047 -0.313,0.126 -0.313,0.469 0,0.391 0.297,0.531 0.5,0.531 0.266,0 0.531,-0.171 0.531,-0.531 0,-0.375 -0.359,-0.75 -0.906,-0.75 -1.109,0 -1.484,1.203 -1.562,1.438 h -0.016 v -1.438 l -1.734,0.157 v 0.374 c 0.89,0 0.984,0.079 0.984,0.719 v 3.516 c 0,0.578 -0.141,0.578 -0.984,0.578 v 0.375 c 0.359,-0.031 1.078,-0.031 1.468,-0.031 0.344,0 1.266,0 1.563,0.031 v -0.375 h -0.25 c -0.953,0 -0.985,-0.141 -0.985,-0.609 z"
         style="fill:#000000;fill-opacity:1;fill-rule:nonzero;stroke:none"
         id="path596" /><path
         d="m 262.445,62.766 -1.797,0.14 v 0.375 c 0.891,0 0.985,0.094 0.985,0.719 v 7.75 h 0.281 c 0.063,-0.109 0.422,-0.75 0.469,-0.844 0.297,0.485 0.859,0.969 1.687,0.969 1.485,0 2.797,-1.25 2.797,-2.922 0,-1.641 -1.219,-2.922 -2.656,-2.922 -0.703,0 -1.313,0.328 -1.766,0.875 z m 0.032,4.843 c 0,-0.234 0,-0.265 0.14,-0.468 0.313,-0.469 0.891,-0.844 1.516,-0.844 0.39,0 1.75,0.156 1.75,2.641 0,0.874 -0.125,1.406 -0.438,1.874 -0.265,0.407 -0.781,0.813 -1.422,0.813 -0.703,0 -1.156,-0.453 -1.375,-0.813 -0.171,-0.265 -0.171,-0.312 -0.171,-0.546 z"
         style="fill:#000000;fill-opacity:1;fill-rule:nonzero;stroke:none"
         id="path598" /><path
         d="m 272.324,68.297 c 0,-0.703 0,-1.219 -0.562,-1.735 -0.453,-0.406 -1.047,-0.593 -1.61,-0.593 -1.062,0 -1.875,0.703 -1.875,1.547 0,0.375 0.235,0.562 0.532,0.562 0.312,0 0.531,-0.234 0.531,-0.531 0,-0.531 -0.469,-0.531 -0.656,-0.531 0.296,-0.547 0.921,-0.782 1.437,-0.782 0.594,0 1.359,0.485 1.359,1.657 v 0.515 c -2.609,0.047 -3.593,1.125 -3.593,2.125 0,1.031 1.203,1.344 1.984,1.344 0.859,0 1.438,-0.516 1.688,-1.141 0.046,0.61 0.453,1.078 1.015,1.078 0.266,0 1.016,-0.171 1.016,-1.218 v -0.719 h -0.281 v 0.719 c 0,0.734 -0.313,0.844 -0.5,0.844 -0.485,0 -0.485,-0.688 -0.485,-0.876 z m -0.844,1.625 c 0,1.266 -0.937,1.703 -1.5,1.703 -0.64,0 -1.171,-0.469 -1.171,-1.094 0,-1.703 2.203,-1.859 2.671,-1.89 z"
         style="fill:#000000;fill-opacity:1;fill-rule:nonzero;stroke:none"
         id="path600" /><path
         d="m 275.828,66.547 h 1.828 v -0.375 h -1.828 v -2.391 h -0.281 c -0.016,1.219 -0.485,2.469 -1.656,2.5 v 0.266 h 1.093 v 3.594 c 0,1.437 0.969,1.734 1.657,1.734 0.812,0 1.234,-0.797 1.234,-1.734 v -0.735 h -0.281 v 0.719 c 0,0.922 -0.375,1.469 -0.875,1.469 -0.891,0 -0.891,-1.203 -0.891,-1.422 z"
         style="fill:#000000;fill-opacity:1;fill-rule:nonzero;stroke:none"
         id="path602" /><path
         d="m 280.828,63.766 c 0,-0.328 -0.266,-0.625 -0.625,-0.625 -0.344,0 -0.625,0.265 -0.625,0.625 0,0.375 0.313,0.625 0.625,0.625 0.391,0 0.625,-0.329 0.625,-0.625 z m -1.781,2.422 v 0.374 c 0.828,0 0.937,0.079 0.937,0.704 v 3.531 c 0,0.578 -0.14,0.578 -0.984,0.578 v 0.375 c 0.375,-0.031 0.984,-0.031 1.359,-0.031 0.157,0 0.907,0 1.344,0.031 v -0.375 c -0.844,0 -0.891,-0.063 -0.891,-0.578 v -4.766 z"
         style="fill:#000000;fill-opacity:1;fill-rule:nonzero;stroke:none"
         id="path604" /><path
         d="m 287.367,67.391 c 0.125,-0.282 0.344,-0.829 1.172,-0.844 v -0.375 c -0.375,0.016 -0.562,0.016 -0.969,0.016 -0.265,0 -0.453,0 -1.047,-0.016 v 0.375 c 0.532,0.015 0.594,0.406 0.594,0.547 0,0.125 -0.015,0.187 -0.078,0.344 l -1.328,3.343 -1.453,-3.656 c -0.063,-0.187 -0.078,-0.187 -0.078,-0.25 0,-0.328 0.5,-0.328 0.734,-0.328 v -0.375 c -0.328,0.016 -1,0.016 -1.344,0.016 -0.437,0 -0.468,0 -1.25,-0.016 v 0.375 c 0.719,0 0.86,0.047 1.016,0.453 l 1.844,4.641 c 0.062,0.171 0.093,0.234 0.25,0.234 0.093,0 0.172,-0.016 0.25,-0.234 z"
         style="fill:#000000;fill-opacity:1;fill-rule:nonzero;stroke:none"
         id="path606" /><path
         d="m 293.387,68.75 c 0.281,0 0.297,0 0.297,-0.25 0,-1.312 -0.688,-2.531 -2.266,-2.531 -1.469,0 -2.609,1.343 -2.609,2.937 0,1.719 1.312,2.969 2.75,2.969 1.546,0 2.125,-1.391 2.125,-1.672 0,-0.078 -0.063,-0.125 -0.141,-0.125 -0.094,0 -0.125,0.063 -0.156,0.125 -0.328,1.094 -1.203,1.391 -1.75,1.391 -0.532,0 -1.844,-0.36 -1.844,-2.61 V 68.75 Z m -3.578,-0.25 c 0.093,-2.031 1.234,-2.266 1.593,-2.266 1.391,0 1.469,1.828 1.485,2.266 z"
         style="fill:#000000;fill-opacity:1;fill-rule:nonzero;stroke:none"
         id="path608" /><path
         d="m 302.34,66.953 c -0.156,0 -0.641,0 -0.641,0.531 0,0.313 0.235,0.532 0.531,0.532 0.313,0 0.547,-0.172 0.547,-0.547 0,-0.875 -0.906,-1.5 -1.953,-1.5 -1.515,0 -2.719,1.343 -2.719,2.984 0,1.656 1.25,2.922 2.704,2.922 1.718,0 2.109,-1.547 2.109,-1.672 0,-0.109 -0.094,-0.109 -0.141,-0.109 -0.109,0 -0.125,0.031 -0.156,0.187 -0.297,0.922 -0.984,1.313 -1.687,1.313 -0.797,0 -1.844,-0.688 -1.844,-2.656 0,-2.157 1.094,-2.672 1.75,-2.672 0.484,0 1.203,0.187 1.5,0.687 z"
         style="fill:#000000;fill-opacity:1;fill-rule:nonzero;stroke:none"
         id="path610" /><path
         d="m 308.699,68.609 c 0,-1.218 0,-1.578 -0.297,-1.984 -0.375,-0.516 -0.984,-0.594 -1.422,-0.594 -1.125,0 -1.64,0.844 -1.812,1.25 h -0.016 v -4.515 l -1.797,0.14 v 0.375 c 0.875,0 0.985,0.094 0.985,0.719 v 6.797 c 0,0.578 -0.156,0.578 -0.985,0.578 v 0.375 c 0.329,-0.031 1.032,-0.031 1.391,-0.031 0.375,0 1.078,0 1.406,0.031 v -0.375 c -0.828,0 -0.984,0 -0.984,-0.578 v -2.422 c 0,-1.359 0.906,-2.078 1.703,-2.078 0.797,0 0.984,0.656 0.984,1.453 v 3.047 c 0,0.578 -0.14,0.578 -0.984,0.578 v 0.375 c 0.344,-0.031 1.031,-0.031 1.406,-0.031 0.375,0 1.063,0 1.407,0.031 v -0.375 c -0.657,0 -0.969,0 -0.985,-0.391 z"
         style="fill:#000000;fill-opacity:1;fill-rule:nonzero;stroke:none"
         id="path612" /><path
         d="m 314.965,68.297 c 0,-0.703 0,-1.219 -0.563,-1.735 -0.453,-0.406 -1.047,-0.593 -1.609,-0.593 -1.063,0 -1.875,0.703 -1.875,1.547 0,0.375 0.234,0.562 0.531,0.562 0.313,0 0.531,-0.234 0.531,-0.531 0,-0.531 -0.468,-0.531 -0.656,-0.531 0.297,-0.547 0.922,-0.782 1.438,-0.782 0.593,0 1.359,0.485 1.359,1.657 v 0.515 c -2.609,0.047 -3.594,1.125 -3.594,2.125 0,1.031 1.203,1.344 1.985,1.344 0.859,0 1.437,-0.516 1.687,-1.141 0.047,0.61 0.453,1.078 1.016,1.078 0.265,0 1.015,-0.171 1.015,-1.218 v -0.719 h -0.281 v 0.719 c 0,0.734 -0.312,0.844 -0.5,0.844 -0.484,0 -0.484,-0.688 -0.484,-0.876 z m -0.844,1.625 c 0,1.266 -0.937,1.703 -1.5,1.703 -0.641,0 -1.172,-0.469 -1.172,-1.094 0,-1.703 2.203,-1.859 2.672,-1.89 z"
         style="fill:#000000;fill-opacity:1;fill-rule:nonzero;stroke:none"
         id="path614" /><path
         d="m 318.457,68.734 c 0,-1.265 0.531,-2.437 1.516,-2.437 0.109,0 0.14,0 0.187,0.015 -0.109,0.047 -0.312,0.126 -0.312,0.469 0,0.391 0.297,0.531 0.5,0.531 0.265,0 0.531,-0.171 0.531,-0.531 0,-0.375 -0.359,-0.75 -0.906,-0.75 -1.11,0 -1.485,1.203 -1.563,1.438 h -0.015 v -1.438 l -1.735,0.157 v 0.374 c 0.891,0 0.985,0.079 0.985,0.719 v 3.516 c 0,0.578 -0.141,0.578 -0.985,0.578 v 0.375 c 0.36,-0.031 1.078,-0.031 1.469,-0.031 0.344,0 1.266,0 1.562,0.031 v -0.375 h -0.25 c -0.953,0 -0.984,-0.141 -0.984,-0.609 z"
         style="fill:#000000;fill-opacity:1;fill-rule:nonzero;stroke:none"
         id="path616" /><path
         d="m 330.504,68.609 c 0,-1.218 0,-1.578 -0.297,-1.984 -0.375,-0.516 -0.984,-0.594 -1.422,-0.594 -1.078,0 -1.609,0.781 -1.828,1.281 -0.172,-0.984 -0.875,-1.281 -1.687,-1.281 -1.266,0 -1.75,1.078 -1.86,1.344 h -0.015 v -1.344 l -1.75,0.157 v 0.374 c 0.875,0 0.984,0.079 0.984,0.719 v 3.516 c 0,0.578 -0.156,0.578 -0.984,0.578 v 0.375 c 0.328,-0.031 1.031,-0.031 1.39,-0.031 0.375,0 1.078,0 1.406,0.031 v -0.375 c -0.828,0 -0.984,0 -0.984,-0.578 v -2.422 c 0,-1.359 0.906,-2.078 1.703,-2.078 0.797,0 0.985,0.656 0.985,1.453 v 3.047 c 0,0.578 -0.141,0.578 -0.985,0.578 v 0.375 c 0.344,-0.031 1.031,-0.031 1.406,-0.031 0.375,0 1.063,0 1.407,0.031 v -0.375 c -0.828,0 -0.985,0 -0.985,-0.578 v -2.422 c 0,-1.359 0.891,-2.078 1.703,-2.078 0.797,0 0.985,0.656 0.985,1.453 v 3.047 c 0,0.578 -0.156,0.578 -0.985,0.578 v 0.375 c 0.329,-0.031 1.032,-0.031 1.391,-0.031 0.375,0 1.078,0 1.406,0.031 v -0.375 c -0.64,0 -0.968,0 -0.984,-0.391 z"
         style="fill:#000000;fill-opacity:1;fill-rule:nonzero;stroke:none"
         id="path618" /></g></g></svg>
