<?xml version="1.0" encoding="UTF-8" standalone="no"?>
<!-- Created with Inkscape (http://www.inkscape.org/) -->

<svg
   version="1.1"
   id="svg2"
   xml:space="preserve"
   width="672"
   height="480"
   viewBox="0 0 672 480"
   sodipodi:docname="pull_baseline_EMC_LHCb_Zc.pdf"
   xmlns:inkscape="http://www.inkscape.org/namespaces/inkscape"
   xmlns:sodipodi="http://sodipodi.sourceforge.net/DTD/sodipodi-0.dtd"
   xmlns="http://www.w3.org/2000/svg"
   xmlns:svg="http://www.w3.org/2000/svg"><defs
     id="defs6"><clipPath
       clipPathUnits="userSpaceOnUse"
       id="clipPath102"><path
         d="m 48.879,88 h 437.133 v 1 H 48.879 Z"
         id="path100" /></clipPath><clipPath
       clipPathUnits="userSpaceOnUse"
       id="clipPath112"><path
         d="M 0,0 H 504 V 360 H 0 Z"
         id="path110" /></clipPath><clipPath
       clipPathUnits="userSpaceOnUse"
       id="clipPath124"><path
         d="m 48.879,306 h 437.133 v 0.852 H 48.879 Z"
         id="path122" /></clipPath><clipPath
       clipPathUnits="userSpaceOnUse"
       id="clipPath134"><path
         d="M 0,0 H 504 V 360 H 0 Z"
         id="path132" /></clipPath><clipPath
       clipPathUnits="userSpaceOnUse"
       id="clipPath146"><path
         d="M 48.879,126 H 486.012 V 300 H 48.879 Z"
         id="path144" /></clipPath><clipPath
       clipPathUnits="userSpaceOnUse"
       id="clipPath156"><path
         d="M 0,0 H 504 V 360 H 0 Z"
         id="path154" /></clipPath><clipPath
       clipPathUnits="userSpaceOnUse"
       id="clipPath168"><path
         d="M 48.879,72 H 486.012 V 301 H 48.879 Z"
         id="path166" /></clipPath><clipPath
       clipPathUnits="userSpaceOnUse"
       id="clipPath178"><path
         d="M 0,0 H 504 V 360 H 0 Z"
         id="path176" /></clipPath><clipPath
       clipPathUnits="userSpaceOnUse"
       id="clipPath190"><path
         d="M 48.879,89 H 486.012 V 302 H 48.879 Z"
         id="path188" /></clipPath><clipPath
       clipPathUnits="userSpaceOnUse"
       id="clipPath200"><path
         d="M 0,0 H 504 V 360 H 0 Z"
         id="path198" /></clipPath><clipPath
       clipPathUnits="userSpaceOnUse"
       id="clipPath212"><path
         d="M 48.879,71 H 486.012 V 301 H 48.879 Z"
         id="path210" /></clipPath><clipPath
       clipPathUnits="userSpaceOnUse"
       id="clipPath222"><path
         d="M 0,0 H 504 V 360 H 0 Z"
         id="path220" /></clipPath></defs><sodipodi:namedview
     id="namedview4"
     pagecolor="#ffffff"
     bordercolor="#666666"
     borderopacity="1.0"
     inkscape:pageshadow="2"
     inkscape:pageopacity="0.0"
     inkscape:pagecheckerboard="0" /><g
     id="g8"
     inkscape:groupmode="layer"
     inkscape:label="pull_baseline_EMC_LHCb_Zc"
     transform="matrix(1.3333333,0,0,1.3333333,0,1.2e-5)"><g
       id="g10"><path
         d="M 48.879,15.77 H 486.012 V 306.852 H 48.879 Z"
         style="fill:#ffffff;fill-opacity:1;fill-rule:nonzero;stroke:none"
         id="path12" /><path
         d="m 129.168,306.852 v 3.5"
         style="fill:none;stroke:#000000;stroke-width:0.8;stroke-linecap:butt;stroke-linejoin:round;stroke-miterlimit:10;stroke-dasharray:none;stroke-opacity:1"
         id="path14" /><path
         d="m 126.695,319.32 c 0,-1.156 -0.062,-2.281 -0.578,-3.343 -0.562,-1.157 -1.562,-1.469 -2.25,-1.469 -0.812,0 -1.797,0.406 -2.312,1.562 -0.391,0.875 -0.532,1.75 -0.532,3.25 0,1.36 0.094,2.375 0.594,3.36 0.547,1.062 1.5,1.406 2.235,1.406 1.218,0 1.906,-0.734 2.312,-1.531 0.5,-1.047 0.531,-2.422 0.531,-3.235 z m -2.843,4.485 c -0.454,0 -1.36,-0.25 -1.625,-1.782 -0.157,-0.828 -0.157,-1.89 -0.157,-2.859 0,-1.156 0,-2.187 0.235,-3 0.234,-0.937 0.937,-1.375 1.547,-1.375 0.531,0 1.343,0.328 1.609,1.516 0.172,0.797 0.172,1.906 0.172,2.859 0,0.922 0,1.984 -0.156,2.844 -0.266,1.531 -1.141,1.797 -1.625,1.797 z"
         style="fill:#000000;fill-opacity:1;fill-rule:nonzero;stroke:none"
         id="path16" /><path
         d="m 129.836,323.117 c 0,-0.406 -0.328,-0.687 -0.672,-0.687 -0.391,0 -0.672,0.343 -0.672,0.672 0,0.406 0.328,0.687 0.672,0.687 0.391,0 0.672,-0.328 0.672,-0.672 z"
         style="fill:#000000;fill-opacity:1;fill-rule:nonzero;stroke:none"
         id="path18" /><path
         d="m 137.207,321.445 h -0.312 c -0.032,0.235 -0.157,1 -0.282,1.235 -0.109,0.125 -0.906,0.125 -1.312,0.125 h -2.594 c 0.375,-0.328 1.234,-1.219 1.594,-1.563 2.125,-1.953 2.906,-2.672 2.906,-4.047 0,-1.609 -1.266,-2.687 -2.891,-2.687 -1.625,0 -2.562,1.39 -2.562,2.578 0,0.719 0.609,0.719 0.656,0.719 0.281,0 0.656,-0.203 0.656,-0.657 0,-0.39 -0.265,-0.656 -0.656,-0.656 -0.125,0 -0.156,0 -0.203,0.016 0.266,-0.953 1.016,-1.594 1.922,-1.594 1.187,0 1.922,0.984 1.922,2.281 0,1.188 -0.688,2.219 -1.485,3.11 l -2.812,3.156 v 0.328 h 5.094 z"
         style="fill:#000000;fill-opacity:1;fill-rule:nonzero;stroke:none"
         id="path20" /><path
         d="m 218.379,306.852 v 3.5"
         style="fill:none;stroke:#000000;stroke-width:0.8;stroke-linecap:butt;stroke-linejoin:round;stroke-miterlimit:10;stroke-dasharray:none;stroke-opacity:1"
         id="path22" /><path
         d="m 215.906,319.32 c 0,-1.156 -0.062,-2.281 -0.578,-3.343 -0.562,-1.157 -1.562,-1.469 -2.25,-1.469 -0.812,0 -1.797,0.406 -2.312,1.562 -0.391,0.875 -0.532,1.75 -0.532,3.25 0,1.36 0.094,2.375 0.594,3.36 0.547,1.062 1.5,1.406 2.234,1.406 1.219,0 1.907,-0.734 2.313,-1.531 0.5,-1.047 0.531,-2.422 0.531,-3.235 z m -2.844,4.485 c -0.453,0 -1.359,-0.25 -1.624,-1.782 -0.157,-0.828 -0.157,-1.89 -0.157,-2.859 0,-1.156 0,-2.187 0.235,-3 0.234,-0.937 0.937,-1.375 1.546,-1.375 0.532,0 1.344,0.328 1.61,1.516 0.172,0.797 0.172,1.906 0.172,2.859 0,0.922 0,1.984 -0.156,2.844 -0.266,1.531 -1.141,1.797 -1.626,1.797 z"
         style="fill:#000000;fill-opacity:1;fill-rule:nonzero;stroke:none"
         id="path24" /><path
         d="m 219.047,323.117 c 0,-0.406 -0.328,-0.687 -0.672,-0.687 -0.391,0 -0.672,0.343 -0.672,0.672 0,0.406 0.328,0.687 0.672,0.687 0.391,0 0.672,-0.328 0.672,-0.672 z"
         style="fill:#000000;fill-opacity:1;fill-rule:nonzero;stroke:none"
         id="path26" /><path
         d="m 225.309,314.711 c 0,-0.266 0,-0.344 -0.188,-0.344 -0.109,0 -0.156,0 -0.266,0.172 l -4.203,6.516 v 0.406 h 3.672 v 1.266 c 0,0.515 -0.031,0.656 -1.047,0.656 h -0.281 v 0.406 c 0.328,-0.031 1.422,-0.031 1.813,-0.031 0.39,0 1.515,0 1.828,0.031 v -0.406 h -0.282 c -1,0 -1.046,-0.141 -1.046,-0.656 v -1.266 h 1.421 v -0.406 h -1.421 z m -0.922,1.078 v 5.266 h -3.391 z"
         style="fill:#000000;fill-opacity:1;fill-rule:nonzero;stroke:none"
         id="path28" /><path
         d="m 307.59,306.852 v 3.5"
         style="fill:none;stroke:#000000;stroke-width:0.8;stroke-linecap:butt;stroke-linejoin:round;stroke-miterlimit:10;stroke-dasharray:none;stroke-opacity:1"
         id="path30" /><path
         d="m 305.117,319.32 c 0,-1.156 -0.062,-2.281 -0.578,-3.343 -0.562,-1.157 -1.562,-1.469 -2.25,-1.469 -0.812,0 -1.797,0.406 -2.312,1.562 -0.391,0.875 -0.532,1.75 -0.532,3.25 0,1.36 0.094,2.375 0.594,3.36 0.547,1.062 1.5,1.406 2.234,1.406 1.219,0 1.907,-0.734 2.313,-1.531 0.5,-1.047 0.531,-2.422 0.531,-3.235 z m -2.844,4.485 c -0.453,0 -1.359,-0.25 -1.625,-1.782 -0.156,-0.828 -0.156,-1.89 -0.156,-2.859 0,-1.156 0,-2.187 0.235,-3 0.234,-0.937 0.937,-1.375 1.546,-1.375 0.532,0 1.344,0.328 1.61,1.516 0.172,0.797 0.172,1.906 0.172,2.859 0,0.922 0,1.984 -0.157,2.844 -0.265,1.531 -1.14,1.797 -1.625,1.797 z"
         style="fill:#000000;fill-opacity:1;fill-rule:nonzero;stroke:none"
         id="path32" /><path
         d="m 308.258,323.117 c 0,-0.406 -0.328,-0.687 -0.672,-0.687 -0.391,0 -0.672,0.343 -0.672,0.672 0,0.406 0.328,0.687 0.672,0.687 0.391,0 0.672,-0.328 0.672,-0.672 z"
         style="fill:#000000;fill-opacity:1;fill-rule:nonzero;stroke:none"
         id="path34" /><path
         d="m 311.207,318.93 c 0,-3.532 1.719,-4.078 2.469,-4.078 0.5,0 1,0.14 1.265,0.562 -0.171,0 -0.687,0 -0.687,0.578 0,0.297 0.203,0.563 0.562,0.563 0.344,0 0.594,-0.203 0.594,-0.61 0,-0.718 -0.531,-1.437 -1.75,-1.437 -1.765,0 -3.594,1.797 -3.594,4.875 0,3.828 1.672,4.703 2.86,4.703 1.515,0 2.812,-1.328 2.812,-3.141 0,-1.859 -1.297,-3.093 -2.687,-3.093 -1.25,0 -1.703,1.062 -1.844,1.453 z m 1.719,4.781 c -0.891,0 -1.297,-0.781 -1.422,-1.078 -0.125,-0.36 -0.266,-1.047 -0.266,-2.031 0,-1.094 0.5,-2.485 1.75,-2.485 0.766,0 1.172,0.516 1.391,1 0.219,0.516 0.219,1.219 0.219,1.813 0,0.703 0,1.343 -0.266,1.875 -0.344,0.656 -0.859,0.906 -1.406,0.906 z"
         style="fill:#000000;fill-opacity:1;fill-rule:nonzero;stroke:none"
         id="path36" /><path
         d="m 396.801,306.852 v 3.5"
         style="fill:none;stroke:#000000;stroke-width:0.8;stroke-linecap:butt;stroke-linejoin:round;stroke-miterlimit:10;stroke-dasharray:none;stroke-opacity:1"
         id="path38" /><path
         d="m 394.328,319.32 c 0,-1.156 -0.062,-2.281 -0.578,-3.343 -0.562,-1.157 -1.562,-1.469 -2.25,-1.469 -0.812,0 -1.797,0.406 -2.312,1.562 -0.391,0.875 -0.532,1.75 -0.532,3.25 0,1.36 0.094,2.375 0.594,3.36 0.547,1.062 1.5,1.406 2.234,1.406 1.219,0 1.907,-0.734 2.313,-1.531 0.5,-1.047 0.531,-2.422 0.531,-3.235 z m -2.844,4.485 c -0.453,0 -1.359,-0.25 -1.625,-1.782 -0.156,-0.828 -0.156,-1.89 -0.156,-2.859 0,-1.156 0,-2.187 0.235,-3 0.234,-0.937 0.937,-1.375 1.546,-1.375 0.532,0 1.344,0.328 1.61,1.516 0.172,0.797 0.172,1.906 0.172,2.859 0,0.922 0,1.984 -0.157,2.844 -0.265,1.531 -1.14,1.797 -1.625,1.797 z"
         style="fill:#000000;fill-opacity:1;fill-rule:nonzero;stroke:none"
         id="path40" /><path
         d="m 397.469,323.117 c 0,-0.406 -0.328,-0.687 -0.672,-0.687 -0.391,0 -0.672,0.343 -0.672,0.672 0,0.406 0.328,0.687 0.672,0.687 0.391,0 0.672,-0.328 0.672,-0.672 z"
         style="fill:#000000;fill-opacity:1;fill-rule:nonzero;stroke:none"
         id="path42" /><path
         d="m 402.855,318.758 c 0.704,-0.375 1.719,-1.031 1.719,-2.203 0,-1.203 -1.172,-2.047 -2.453,-2.047 -1.391,0 -2.469,1.015 -2.469,2.297 0,0.468 0.141,0.937 0.532,1.422 0.14,0.171 0.156,0.187 1.14,0.875 -1.359,0.625 -2.047,1.562 -2.047,2.578 0,1.484 1.407,2.406 2.828,2.406 1.547,0 2.844,-1.141 2.844,-2.609 0,-1.422 -1,-2.063 -2.094,-2.719 z m -1.89,-1.266 c -0.188,-0.125 -0.75,-0.484 -0.75,-1.172 0,-0.906 0.953,-1.468 1.89,-1.468 1,0 1.891,0.718 1.891,1.718 0,0.86 -0.609,1.547 -1.422,1.985 z m 0.656,1.797 1.688,1.109 c 0.359,0.235 1,0.672 1,1.516 0,1.063 -1.079,1.797 -2.188,1.797 -1.187,0 -2.203,-0.875 -2.203,-2.031 0,-1.078 0.797,-1.969 1.703,-2.391 z"
         style="fill:#000000;fill-opacity:1;fill-rule:nonzero;stroke:none"
         id="path44" /><path
         d="m 271.34,336.832 c -0.625,0.109 -0.875,0.594 -0.875,0.969 0,0.484 0.375,0.64 0.656,0.64 0.609,0 1.016,-0.515 1.016,-1.046 0,-0.844 -0.953,-1.219 -1.782,-1.219 -1.218,0 -1.906,1.187 -2.078,1.562 -0.453,-1.484 -1.687,-1.562 -2.047,-1.562 -2.031,0 -3.109,2.609 -3.109,3.047 0,0.078 0.078,0.172 0.219,0.172 0.156,0 0.203,-0.11 0.234,-0.188 0.672,-2.219 2.016,-2.641 2.594,-2.641 0.891,0 1.078,0.844 1.078,1.313 0,0.437 -0.125,0.906 -0.359,1.859 l -0.688,2.735 c -0.297,1.187 -0.875,2.281 -1.922,2.281 -0.109,0 -0.609,0 -1.015,-0.25 0.718,-0.141 0.875,-0.734 0.875,-0.984 0,-0.391 -0.297,-0.641 -0.688,-0.641 -0.469,0 -0.984,0.422 -0.984,1.062 0,0.844 0.937,1.219 1.781,1.219 0.969,0 1.641,-0.765 2.063,-1.578 0.312,1.172 1.312,1.578 2.046,1.578 2.032,0 3.11,-2.609 3.11,-3.047 0,-0.109 -0.078,-0.187 -0.203,-0.187 -0.172,0 -0.203,0.109 -0.25,0.265 -0.547,1.75 -1.703,2.563 -2.594,2.563 -0.703,0 -1.078,-0.516 -1.078,-1.328 0,-0.438 0.078,-0.766 0.406,-2.078 l 0.688,-2.703 c 0.296,-1.204 0.984,-2.079 1.89,-2.079 0.047,0 0.61,0 1.016,0.266 z"
         style="fill:#000000;fill-opacity:1;fill-rule:nonzero;stroke:none"
         id="path46" /><path
         d="m 48.879,306.852 h -3.5"
         style="fill:none;stroke:#000000;stroke-width:0.8;stroke-linecap:butt;stroke-linejoin:round;stroke-miterlimit:10;stroke-dasharray:none;stroke-opacity:1"
         id="path48" /><path
         d="m 41.301,307.352 c 0,-1.157 -0.063,-2.282 -0.578,-3.344 -0.563,-1.156 -1.563,-1.469 -2.25,-1.469 -0.813,0 -1.797,0.406 -2.313,1.563 -0.39,0.875 -0.531,1.75 -0.531,3.25 0,1.359 0.094,2.375 0.594,3.359 0.547,1.062 1.5,1.406 2.234,1.406 1.219,0 1.906,-0.734 2.313,-1.531 0.5,-1.047 0.531,-2.422 0.531,-3.234 z m -2.844,4.484 c -0.453,0 -1.359,-0.25 -1.625,-1.781 -0.156,-0.828 -0.156,-1.891 -0.156,-2.86 0,-1.156 0,-2.187 0.234,-3 0.235,-0.937 0.938,-1.375 1.547,-1.375 0.531,0 1.344,0.328 1.609,1.516 0.172,0.797 0.172,1.906 0.172,2.859 0,0.922 0,1.985 -0.156,2.844 -0.266,1.531 -1.141,1.797 -1.625,1.797 z"
         style="fill:#000000;fill-opacity:1;fill-rule:nonzero;stroke:none"
         id="path50" /><path
         d="m 48.879,234.082 h -3.5"
         style="fill:none;stroke:#000000;stroke-width:0.8;stroke-linecap:butt;stroke-linejoin:round;stroke-miterlimit:10;stroke-dasharray:none;stroke-opacity:1"
         id="path52" /><path
         d="m 39.066,230.113 c 0,-0.328 0,-0.343 -0.281,-0.343 -0.328,0.375 -1.031,0.89 -2.469,0.89 v 0.406 c 0.329,0 1.016,0 1.797,-0.359 v 7.266 c 0,0.5 -0.047,0.672 -1.281,0.672 H 36.41 v 0.406 c 0.375,-0.031 1.719,-0.031 2.188,-0.031 0.453,0 1.797,0 2.172,0.031 v -0.406 h -0.438 c -1.219,0 -1.266,-0.172 -1.266,-0.672 z"
         style="fill:#000000;fill-opacity:1;fill-rule:nonzero;stroke:none"
         id="path54" /><path
         d="m 48.879,161.309 h -3.5"
         style="fill:none;stroke:#000000;stroke-width:0.8;stroke-linecap:butt;stroke-linejoin:round;stroke-miterlimit:10;stroke-dasharray:none;stroke-opacity:1"
         id="path56" /><path
         d="m 41.191,163.934 h -0.312 c -0.031,0.234 -0.156,1 -0.281,1.234 -0.11,0.125 -0.907,0.125 -1.313,0.125 h -2.594 c 0.375,-0.328 1.235,-1.219 1.594,-1.563 2.125,-1.953 2.906,-2.671 2.906,-4.046 0,-1.61 -1.265,-2.688 -2.89,-2.688 -1.625,0 -2.563,1.391 -2.563,2.578 0,0.719 0.61,0.719 0.657,0.719 0.281,0 0.656,-0.203 0.656,-0.656 0,-0.391 -0.266,-0.657 -0.656,-0.657 -0.125,0 -0.157,0 -0.204,0.016 0.266,-0.953 1.016,-1.594 1.922,-1.594 1.188,0 1.922,0.985 1.922,2.282 0,1.187 -0.687,2.218 -1.484,3.109 l -2.813,3.156 v 0.328 h 5.094 z"
         style="fill:#000000;fill-opacity:1;fill-rule:nonzero;stroke:none"
         id="path58" /><path
         d="m 48.879,88.539 h -3.5"
         style="fill:none;stroke:#000000;stroke-width:0.8;stroke-linecap:butt;stroke-linejoin:round;stroke-miterlimit:10;stroke-dasharray:none;stroke-opacity:1"
         id="path60" /><path
         d="m 37.613,88.492 c -0.234,0.016 -0.281,0.031 -0.281,0.156 0,0.141 0.063,0.141 0.313,0.141 h 0.64 c 1.188,0 1.719,0.984 1.719,2.313 0,1.828 -0.953,2.328 -1.625,2.328 -0.672,0 -1.828,-0.328 -2.219,-1.25 0.438,0.078 0.844,-0.172 0.844,-0.688 0,-0.39 -0.297,-0.672 -0.688,-0.672 -0.328,0 -0.687,0.188 -0.687,0.719 0,1.25 1.234,2.266 2.781,2.266 1.656,0 2.891,-1.282 2.891,-2.688 0,-1.281 -1.031,-2.281 -2.375,-2.515 1.219,-0.36 2,-1.375 2,-2.469 0,-1.094 -1.141,-1.906 -2.5,-1.906 -1.391,0 -2.422,0.859 -2.422,1.875 0,0.562 0.422,0.671 0.641,0.671 0.296,0 0.625,-0.218 0.625,-0.64 0,-0.438 -0.329,-0.641 -0.641,-0.641 -0.078,0 -0.109,0 -0.156,0.016 0.531,-0.938 1.843,-0.938 1.906,-0.938 0.469,0 1.375,0.203 1.375,1.563 0,0.265 -0.047,1.047 -0.453,1.656 -0.406,0.609 -0.891,0.656 -1.266,0.672 z"
         style="fill:#000000;fill-opacity:1;fill-rule:nonzero;stroke:none"
         id="path62" /><path
         d="m 48.879,15.77 h -3.5"
         style="fill:none;stroke:#000000;stroke-width:0.8;stroke-linecap:butt;stroke-linejoin:round;stroke-miterlimit:10;stroke-dasharray:none;stroke-opacity:1"
         id="path64" /><path
         d="m 40.082,11.66 c 0,-0.265 0,-0.344 -0.187,-0.344 -0.11,0 -0.157,0 -0.266,0.172 l -4.203,6.516 v 0.406 h 3.672 v 1.266 c 0,0.515 -0.032,0.656 -1.047,0.656 H 37.77 v 0.406 c 0.328,-0.031 1.421,-0.031 1.812,-0.031 0.391,0 1.516,0 1.828,0.031 v -0.406 h -0.281 c -1,0 -1.047,-0.141 -1.047,-0.656 V 18.41 h 1.422 v -0.406 h -1.422 z m -0.922,1.078 v 5.266 h -3.39 z"
         style="fill:#000000;fill-opacity:1;fill-rule:nonzero;stroke:none"
         id="path66" /><path
         d="m 11.852,217.961 c -0.36,0 -0.719,0 -0.719,0.406 0,0.391 0.359,0.391 0.719,0.391 h 18.484 c 0.359,0 0.719,0 0.719,-0.391 0,-0.406 -0.36,-0.406 -0.719,-0.406 z"
         style="fill:#000000;fill-opacity:1;fill-rule:nonzero;stroke:none"
         id="path68" /><path
         d="m 18.586,207.801 c 0,0.39 0,0.562 0.234,0.844 0.094,0.125 0.391,0.343 0.719,0.343 0.391,0 0.641,-0.297 0.641,-0.687 0,-0.469 -0.407,-1.016 -1.203,-1.016 -0.954,0 -1.688,0.922 -1.688,2.297 0,2.609 2.844,5.219 5.672,5.219 1.734,0 3.312,-1.078 3.312,-3.11 0,-2.703 -2.109,-4.421 -2.375,-4.421 -0.125,0 -0.218,0.125 -0.218,0.203 0,0.062 0.015,0.078 0.203,0.25 1.687,1.281 1.984,3.172 1.984,3.937 0,1.375 -1.187,1.813 -2.187,1.813 -0.703,0 -2.625,-0.344 -3.985,-1.063 -0.937,-0.515 -2.015,-1.594 -2.015,-2.844 0,-0.265 0.047,-1.359 0.906,-1.765 z"
         style="fill:#000000;fill-opacity:1;fill-rule:nonzero;stroke:none"
         id="path70" /><path
         d="m 15.621,201.637 v -3.86 c 0,-0.187 0,-0.437 -0.25,-0.437 -0.266,0 -0.266,0.234 -0.266,0.437 v 3.86 h -3.859 c -0.187,0 -0.437,0 -0.437,0.25 0,0.265 0.234,0.265 0.437,0.265 h 3.859 v 3.844 c 0,0.203 0,0.453 0.25,0.453 0.266,0 0.266,-0.234 0.266,-0.453 v -3.844 h 3.844 c 0.203,0 0.453,0 0.453,-0.25 0,-0.265 -0.234,-0.265 -0.453,-0.265 z"
         style="fill:#000000;fill-opacity:1;fill-rule:nonzero;stroke:none"
         id="path72" /><path
         d="m 30.93,189.988 c -0.016,0 -0.063,0 -0.125,0.063 -0.922,0.906 -3.485,3.359 -9.688,3.359 -6.219,0 -8.75,-2.406 -9.75,-3.39 -0.015,0 -0.062,-0.032 -0.125,-0.032 -0.047,0 -0.094,0.063 -0.094,0.141 0,0.219 1.469,1.906 3.672,2.891 2.203,0.984 4.36,1.265 6.266,1.265 1.437,0 3.875,-0.14 6.437,-1.328 2.079,-0.953 3.532,-2.594 3.532,-2.828 0,-0.109 -0.047,-0.141 -0.125,-0.141 z"
         style="fill:#000000;fill-opacity:1;fill-rule:nonzero;stroke:none"
         id="path74" /><path
         d="m 17.945,179.586 c 0.11,0.625 0.594,0.875 0.969,0.875 0.484,0 0.641,-0.375 0.641,-0.656 0,-0.61 -0.516,-1.016 -1.047,-1.016 -0.844,0 -1.219,0.953 -1.219,1.781 0,1.219 1.188,1.907 1.563,2.078 -1.485,0.454 -1.563,1.688 -1.563,2.047 0,2.032 2.609,3.11 3.047,3.11 0.078,0 0.172,-0.078 0.172,-0.219 0,-0.156 -0.11,-0.203 -0.188,-0.234 -2.218,-0.672 -2.64,-2.016 -2.64,-2.594 0,-0.891 0.843,-1.078 1.312,-1.078 0.438,0 0.906,0.125 1.86,0.359 l 2.734,0.688 c 1.187,0.296 2.281,0.875 2.281,1.921 0,0.11 0,0.61 -0.25,1.016 -0.14,-0.719 -0.734,-0.875 -0.984,-0.875 -0.391,0 -0.641,0.297 -0.641,0.688 0,0.468 0.422,0.984 1.063,0.984 0.843,0 1.218,-0.938 1.218,-1.781 0,-0.969 -0.765,-1.641 -1.578,-2.063 1.172,-0.312 1.578,-1.312 1.578,-2.047 0,-2.031 -2.609,-3.109 -3.046,-3.109 -0.11,0 -0.188,0.078 -0.188,0.203 0,0.172 0.109,0.203 0.266,0.25 1.75,0.547 2.562,1.703 2.562,2.594 0,0.703 -0.515,1.078 -1.328,1.078 -0.437,0 -0.766,-0.078 -2.078,-0.406 l -2.703,-0.688 c -1.203,-0.297 -2.078,-0.984 -2.078,-1.89 0,-0.047 0,-0.61 0.265,-1.016 z"
         style="fill:#000000;fill-opacity:1;fill-rule:nonzero;stroke:none"
         id="path76" /><path
         d="m 21.117,172.703 c -1.437,0 -3.875,0.141 -6.437,1.328 -2.078,0.953 -3.532,2.594 -3.532,2.828 0,0.063 0.016,0.141 0.125,0.141 0.032,0 0.063,-0.016 0.094,-0.031 1,-0.969 3.531,-3.391 9.719,-3.391 6.219,0 8.75,2.406 9.75,3.391 0.031,0.015 0.062,0.031 0.094,0.031 0.093,0 0.125,-0.078 0.125,-0.141 0,-0.218 -1.485,-1.906 -3.672,-2.89 -2.203,-0.985 -4.36,-1.266 -6.266,-1.266 z"
         style="fill:#000000;fill-opacity:1;fill-rule:nonzero;stroke:none"
         id="path78" /><path
         d="m 11.867,162.336 c -0.015,0 -0.312,-0.125 -0.359,-0.125 -0.235,0 -0.375,0.203 -0.375,0.359 0,0.11 0,0.282 0.437,0.438 l 18.75,6.687 c 0.016,0 0.313,0.11 0.36,0.11 0.234,0 0.375,-0.203 0.375,-0.36 0,-0.109 -0.032,-0.297 -0.438,-0.437 z"
         style="fill:#000000;fill-opacity:1;fill-rule:nonzero;stroke:none"
         id="path80" /><path
         d="m 17.383,155.965 c 0.625,2.547 3.265,4.375 5.594,4.375 2.14,0 3.328,-1.438 3.328,-3.031 0,-2.344 -3.219,-3.938 -5.875,-3.938 -1.797,0 -2.891,0.828 -3.547,1.328 -0.938,0.735 -2.469,1.938 -3.422,1.938 -0.344,0 -0.938,-0.266 -0.938,-1.141 0,-0.609 0.219,-1 0.563,-1.594 0.109,-0.172 0.375,-0.64 0.375,-0.89 0,-0.422 -0.422,-0.719 -0.734,-0.719 -0.375,0 -0.438,0.297 -0.594,1 -0.203,0.937 -0.203,1.203 -0.203,1.547 0,0.344 0,2.297 2.031,2.297 0.969,0 2.109,-0.5 3.422,-1.172 z m 0.375,-0.235 c 1.578,-0.75 2.172,-1.046 3.469,-1.046 1.562,0 4.687,0.828 4.687,2.609 0,0.781 -0.516,1.891 -2.375,1.891 -1.297,0 -5.062,-0.735 -5.781,-3.454 z"
         style="fill:#000000;fill-opacity:1;fill-rule:nonzero;stroke:none"
         id="path82" /><path
         d="m 18.586,143.965 c 0,0.39 0,0.562 0.234,0.844 0.094,0.125 0.391,0.343 0.719,0.343 0.391,0 0.641,-0.297 0.641,-0.687 0,-0.469 -0.407,-1.016 -1.203,-1.016 -0.954,0 -1.688,0.922 -1.688,2.297 0,2.609 2.844,5.219 5.672,5.219 1.734,0 3.312,-1.078 3.312,-3.11 0,-2.703 -2.109,-4.421 -2.375,-4.421 -0.125,0 -0.218,0.125 -0.218,0.203 0,0.062 0.015,0.078 0.203,0.25 1.687,1.281 1.984,3.172 1.984,3.937 0,1.375 -1.187,1.813 -2.187,1.813 -0.703,0 -2.625,-0.344 -3.985,-1.063 -0.937,-0.515 -2.015,-1.594 -2.015,-2.844 0,-0.265 0.047,-1.359 0.906,-1.765 z"
         style="fill:#000000;fill-opacity:1;fill-rule:nonzero;stroke:none"
         id="path84" /><path
         d="m 15.621,137.777 v -3.859 c 0,-0.188 0,-0.438 -0.25,-0.438 -0.266,0 -0.266,0.235 -0.266,0.438 v 3.859 h -3.859 c -0.187,0 -0.437,0 -0.437,0.25 0,0.266 0.234,0.266 0.437,0.266 h 3.859 v 3.844 c 0,0.203 0,0.453 0.25,0.453 0.266,0 0.266,-0.235 0.266,-0.453 v -3.844 h 3.844 c 0.203,0 0.453,0 0.453,-0.25 0,-0.266 -0.234,-0.266 -0.453,-0.266 z"
         style="fill:#000000;fill-opacity:1;fill-rule:nonzero;stroke:none"
         id="path86" /><path
         d="m 30.93,126.129 c -0.016,0 -0.063,0 -0.125,0.062 -0.922,0.907 -3.485,3.36 -9.688,3.36 -6.219,0 -8.75,-2.406 -9.75,-3.391 -0.015,0 -0.062,-0.031 -0.125,-0.031 -0.047,0 -0.094,0.062 -0.094,0.141 0,0.218 1.469,1.906 3.672,2.89 2.203,0.985 4.36,1.266 6.266,1.266 1.437,0 3.875,-0.141 6.437,-1.328 2.079,-0.953 3.532,-2.594 3.532,-2.828 0,-0.11 -0.047,-0.141 -0.125,-0.141 z"
         style="fill:#000000;fill-opacity:1;fill-rule:nonzero;stroke:none"
         id="path88" /><path
         d="m 17.945,115.727 c 0.11,0.625 0.594,0.875 0.969,0.875 0.484,0 0.641,-0.375 0.641,-0.657 0,-0.609 -0.516,-1.015 -1.047,-1.015 -0.844,0 -1.219,0.953 -1.219,1.781 0,1.219 1.188,1.906 1.563,2.078 -1.485,0.453 -1.563,1.688 -1.563,2.047 0,2.031 2.609,3.109 3.047,3.109 0.078,0 0.172,-0.078 0.172,-0.218 0,-0.157 -0.11,-0.204 -0.188,-0.235 -2.218,-0.672 -2.64,-2.015 -2.64,-2.594 0,-0.89 0.843,-1.078 1.312,-1.078 0.438,0 0.906,0.125 1.86,0.36 l 2.734,0.687 c 1.187,0.297 2.281,0.875 2.281,1.922 0,0.109 0,0.609 -0.25,1.016 -0.14,-0.719 -0.734,-0.875 -0.984,-0.875 -0.391,0 -0.641,0.297 -0.641,0.687 0,0.469 0.422,0.985 1.063,0.985 0.843,0 1.218,-0.938 1.218,-1.782 0,-0.968 -0.765,-1.64 -1.578,-2.062 1.172,-0.313 1.578,-1.313 1.578,-2.047 0,-2.031 -2.609,-3.109 -3.046,-3.109 -0.11,0 -0.188,0.078 -0.188,0.203 0,0.172 0.109,0.203 0.266,0.25 1.75,0.547 2.562,1.703 2.562,2.593 0,0.704 -0.515,1.079 -1.328,1.079 -0.437,0 -0.766,-0.079 -2.078,-0.407 l -2.703,-0.687 c -1.203,-0.297 -2.078,-0.985 -2.078,-1.891 0,-0.047 0,-0.609 0.265,-1.015 z"
         style="fill:#000000;fill-opacity:1;fill-rule:nonzero;stroke:none"
         id="path90" /><path
         d="m 21.117,108.844 c -1.437,0 -3.875,0.14 -6.437,1.328 -2.078,0.953 -3.532,2.594 -3.532,2.828 0,0.062 0.016,0.141 0.125,0.141 0.032,0 0.063,-0.016 0.094,-0.032 1,-0.968 3.531,-3.39 9.719,-3.39 6.219,0 8.75,2.406 9.75,3.39 0.031,0.016 0.062,0.032 0.094,0.032 0.093,0 0.125,-0.079 0.125,-0.141 0,-0.219 -1.485,-1.906 -3.672,-2.891 -2.203,-0.984 -4.36,-1.265 -6.266,-1.265 z"
         style="fill:#000000;fill-opacity:1;fill-rule:nonzero;stroke:none"
         id="path92" /><path
         d="m 11.852,103.852 c -0.36,0 -0.719,0 -0.719,0.406 0,0.39 0.359,0.39 0.719,0.39 h 18.484 c 0.359,0 0.719,0 0.719,-0.39 0,-0.406 -0.36,-0.406 -0.719,-0.406 z"
         style="fill:#000000;fill-opacity:1;fill-rule:nonzero;stroke:none"
         id="path94" /></g><g
       id="g96"><g
         id="g98"
         clip-path="url(#clipPath102)"><g
           id="g104"><g
             id="g106"><g
               id="g108"
               clip-path="url(#clipPath112)"><g
                 id="g114"><path
                   d="M 39.965,88.539 H 486.012"
                   style="fill:none;stroke:#000000;stroke-width:0.5;stroke-linecap:butt;stroke-linejoin:round;stroke-miterlimit:10;stroke-dasharray:0.5, 0.825;stroke-dashoffset:0;stroke-opacity:1"
                   id="path116" /></g></g></g></g></g></g><g
       id="g118"><g
         id="g120"
         clip-path="url(#clipPath124)"><g
           id="g126"><g
             id="g128"><g
               id="g130"
               clip-path="url(#clipPath134)"><g
                 id="g136"><path
                   d="M 39.965,306.852 H 486.012"
                   style="fill:none;stroke:#000000;stroke-width:0.5;stroke-linecap:butt;stroke-linejoin:round;stroke-miterlimit:10;stroke-dasharray:0.5, 0.825;stroke-dashoffset:0;stroke-opacity:1"
                   id="path138" /></g></g></g></g></g></g><g
       id="g140"><g
         id="g142"
         clip-path="url(#clipPath146)"><g
           id="g148"><g
             id="g150"><g
               id="g152"
               clip-path="url(#clipPath156)"><g
                 id="g158"><path
                   d="m 44.418,276.438 0.574,-22.141 0.653,-29.07 0.73,-25.407 0.828,-4.777 0.93,9.273 1.055,11.676 1.191,9.996 1.34,7.93 1.515,6.367 1.711,5.231 1.93,4.425 2.18,3.879 2.461,3.512 2.777,3.32 3.137,3.258 3.539,3.36 3.996,3.625 4.508,4.109 5.089,4.898 13.844,15.668 13.844,1.93 13.844,-24.961 13.844,-26.789 13.843,-25.16 13.84,-20.938 13.844,-16.554 13.844,-12.493 13.843,-9.859 13.844,-11.25 13.844,-6.363 13.84,-4.516 13.843,-9.594 13.844,-0.621 13.844,3.137 13.844,7.125 13.843,5.695 13.84,-0.933 13.844,6.097 13.844,27.329 13.844,30.093 13.843,8.703 13.844,15.36 13.84,1 13.844,12.801 13.843,5.031 13.844,-0.738 13.844,-0.051 13.84,48.996"
                   style="fill:none;stroke:#1e75b3;stroke-width:2;stroke-linecap:square;stroke-linejoin:round;stroke-miterlimit:10;stroke-dasharray:none;stroke-opacity:1"
                   id="path160" /></g></g></g></g></g></g><g
       id="g162"><g
         id="g164"
         clip-path="url(#clipPath168)"><g
           id="g170"><g
             id="g172"><g
               id="g174"
               clip-path="url(#clipPath178)"><g
                 id="g180"><path
                   d="m 44.418,241.328 0.574,-40.137 0.653,-64.832 0.73,-62.375 0.828,21.231 0.93,48.906 1.055,34.879 1.191,23.082 1.34,16.133 1.515,11.914 1.711,9.223 1.93,7.418 2.18,6.148 2.461,5.246 2.777,4.637 3.137,4.23 3.539,4.059 3.996,4.094 4.508,4.367 5.089,4.949 13.844,14.996 13.844,-4.512 13.844,-23.66 13.844,-26.957 13.843,-28.746 13.84,-29.176 13.844,-28.09 13.844,-24.863 13.843,-19.75 13.844,-15.199 13.844,-12.555 13.84,-2.492 13.843,3.785 13.844,2.571 13.844,5.07 13.844,9.687 13.843,10.653 13.84,2.726 13.844,36.301 13.844,50.426 13.844,31.238 13.843,9.938 13.844,-8.192 13.84,10.508 13.844,-10.844 13.843,0.149 13.844,-0.746 13.844,0.339 13.84,61.852"
                   style="fill:none;stroke:#ff7d0c;stroke-width:2;stroke-linecap:butt;stroke-linejoin:round;stroke-miterlimit:10;stroke-dasharray:7.4, 3.2;stroke-dashoffset:0;stroke-opacity:1"
                   id="path182" /></g></g></g></g></g></g><g
       id="g184"><g
         id="g186"
         clip-path="url(#clipPath190)"><g
           id="g192"><g
             id="g194"><g
               id="g196"
               clip-path="url(#clipPath200)"><g
                 id="g202"><path
                   d="m 44.418,272.832 0.574,-23.762 0.653,-31.527 0.73,-27.25 0.828,-3.984 0.93,11.472 1.055,13.352 1.191,11.109 1.34,8.699 1.515,6.926 1.711,5.668 1.93,4.789 2.18,4.184 2.461,3.789 2.777,3.558 3.137,3.481 3.539,3.559 3.996,3.82 4.508,4.281 5.089,5.047 13.844,15.715 13.844,2.336 13.844,-23.192 13.844,-24.539 13.843,-23.414 13.84,-20.777 13.844,-18.613 13.844,-17.036 13.843,-16.64 13.844,-21.356 13.844,-14.965 13.84,-8.417 13.843,-17.153 13.844,-1.68 13.844,2.575 13.844,8.691 13.843,8.508 13.84,0.359 13.844,10.34 13.844,40.129 13.844,39.816 13.843,2.915 13.844,14.003 13.84,1.688 13.844,19.57 13.843,7.25 13.844,-0.711 13.844,-0.097 13.84,55.183"
                   style="fill:none;stroke:#2b9e2b;stroke-width:2;stroke-linecap:butt;stroke-linejoin:round;stroke-miterlimit:10;stroke-dasharray:2, 3.3;stroke-dashoffset:0;stroke-opacity:1"
                   id="path204" /></g></g></g></g></g></g><g
       id="g206"><g
         id="g208"
         clip-path="url(#clipPath212)"><g
           id="g214"><g
             id="g216"><g
               id="g218"
               clip-path="url(#clipPath222)"><g
                 id="g224"><path
                   d="m 44.418,242.301 0.574,-39.739 0.653,-63.167 0.73,-59.426 0.828,18.941 0.93,46.168 1.055,33.774 1.191,22.652 1.34,15.957 1.515,11.851 1.711,9.219 1.93,7.434 2.18,6.191 2.461,5.297 2.777,4.695 3.137,4.305 3.539,4.141 3.996,4.191 4.508,4.477 5.089,5.07 13.844,15.242 13.844,-4.672 13.844,-23.429 13.844,-26.614 13.843,-28.297 13.84,-28.515 13.844,-27.402 13.844,-24.774 13.843,-21.18 13.844,-18.336 13.844,-16.781 13.84,-6.719 13.843,3.075 13.844,2.894 13.844,4.883 13.844,8.914 13.843,8.441 13.84,2.122 13.844,42.535 13.844,55.019 13.844,33.356 13.843,5.281 13.844,-9.207 13.84,18.344 13.844,-9.75 13.843,-1.703 13.844,-1.137 13.844,0.176 13.84,62"
                   style="fill:none;stroke:#d42626;stroke-width:2;stroke-linecap:butt;stroke-linejoin:round;stroke-miterlimit:10;stroke-dasharray:12.8, 3.2, 2, 3.2;stroke-dashoffset:0;stroke-opacity:1"
                   id="path226" /></g></g></g></g></g></g><g
       id="g228"><path
         d="M 48.879,306.852 V 15.77"
         style="fill:none;stroke:#000000;stroke-width:0.8;stroke-linecap:square;stroke-linejoin:miter;stroke-miterlimit:10;stroke-dasharray:none;stroke-opacity:1"
         id="path230" /><path
         d="M 486.012,306.852 V 15.77"
         style="fill:none;stroke:#000000;stroke-width:0.8;stroke-linecap:square;stroke-linejoin:miter;stroke-miterlimit:10;stroke-dasharray:none;stroke-opacity:1"
         id="path232" /><path
         d="M 48.879,306.852 H 486.012"
         style="fill:none;stroke:#000000;stroke-width:0.8;stroke-linecap:square;stroke-linejoin:miter;stroke-miterlimit:10;stroke-dasharray:none;stroke-opacity:1"
         id="path234" /><path
         d="M 48.879,15.77 H 486.012"
         style="fill:none;stroke:#000000;stroke-width:0.8;stroke-linecap:square;stroke-linejoin:miter;stroke-miterlimit:10;stroke-dasharray:none;stroke-opacity:1"
         id="path236" /><path
         d="m 356.117,32.691 c 0,-0.906 0.235,-0.906 1.672,-0.906 V 31.27 c -0.641,0.046 -1.656,0.046 -2.328,0.046 -0.672,0 -1.688,0 -2.328,-0.046 v 0.515 c 1.437,0 1.672,0 1.672,0.906 v 10.766 c 0,0.906 -0.235,0.906 -1.672,0.906 v 0.516 c 0.64,-0.047 1.656,-0.047 2.328,-0.047 0.672,0 1.687,0 2.328,0.047 v -0.516 c -1.437,0 -1.672,0 -1.672,-0.906 z"
         style="fill:#000000;fill-opacity:1;fill-rule:nonzero;stroke:none"
         id="path238" /><path
         d="m 366.977,38.816 c 0,-1.015 -0.204,-2.656 -2.547,-2.656 -1.578,0 -2.391,1.203 -2.688,2 h -0.015 v -2 l -2.36,0.219 v 0.516 c 1.172,0 1.36,0.109 1.36,1.078 v 5.531 c 0,0.75 -0.079,0.859 -1.36,0.859 v 0.516 c 0.485,-0.047 1.36,-0.047 1.875,-0.047 0.516,0 1.406,0 1.891,0.047 v -0.516 c -1.281,0 -1.36,-0.078 -1.36,-0.859 v -3.828 c 0,-1.828 1.125,-3.203 2.516,-3.203 1.469,0 1.641,1.312 1.641,2.265 v 4.766 c 0,0.75 -0.094,0.859 -1.36,0.859 v 0.516 c 0.469,-0.047 1.36,-0.047 1.875,-0.047 0.516,0 1.407,0 1.891,0.047 v -0.516 c -1.281,0 -1.359,-0.078 -1.359,-0.859 z"
         style="fill:#000000;fill-opacity:1;fill-rule:nonzero;stroke:none"
         id="path240" /><path
         d="m 371.371,36.832 h 2.781 v -0.516 h -2.781 v -3.687 h -0.359 c -0.047,2.047 -0.75,3.844 -2.438,3.891 v 0.312 h 1.735 v 5.594 c 0,0.375 0,2.609 2.312,2.609 1.172,0 1.844,-1.156 1.844,-2.625 v -1.14 h -0.36 v 1.125 c 0,1.375 -0.531,2.281 -1.375,2.281 -0.562,0 -1.359,-0.391 -1.359,-2.203 z"
         style="fill:#000000;fill-opacity:1;fill-rule:nonzero;stroke:none"
         id="path242" /><path
         d="m 378.391,40.176 c 0,-1.906 0.828,-3.703 2.312,-3.703 0.141,0 0.281,0.015 0.422,0.078 0,0 -0.437,0.14 -0.437,0.656 0,0.484 0.374,0.672 0.671,0.672 0.25,0 0.688,-0.125 0.688,-0.688 0,-0.64 -0.641,-1.031 -1.328,-1.031 -1.5,0 -2.172,1.469 -2.36,2.172 h -0.031 V 36.16 l -2.297,0.219 v 0.516 c 1.172,0 1.344,0.109 1.344,1.078 v 5.531 c 0,0.75 -0.078,0.859 -1.344,0.859 v 0.516 c 0.469,-0.047 1.391,-0.047 1.907,-0.047 0.578,0 1.593,0 2.124,0.047 v -0.516 c -1.421,0 -1.671,0 -1.671,-0.906 z"
         style="fill:#000000;fill-opacity:1;fill-rule:nonzero;stroke:none"
         id="path244" /><path
         d="m 385.555,32.613 c 0,-0.437 -0.36,-0.828 -0.828,-0.828 -0.438,0 -0.813,0.36 -0.813,0.828 0,0.438 0.359,0.813 0.813,0.813 0.437,0 0.828,-0.36 0.828,-0.813 z m -2.344,3.766 v 0.516 c 1.125,0 1.281,0.109 1.281,1.078 v 5.531 c 0,0.75 -0.078,0.859 -1.359,0.859 v 0.516 c 0.484,-0.047 1.344,-0.047 1.844,-0.047 0.468,0 1.296,0 1.75,0.047 v -0.516 c -1.172,0 -1.219,-0.125 -1.219,-0.843 v -7.36 z"
         style="fill:#000000;fill-opacity:1;fill-rule:nonzero;stroke:none"
         id="path246" /><path
         d="m 395.688,38.816 c 0,-1.015 -0.204,-2.656 -2.547,-2.656 -1.579,0 -2.391,1.203 -2.688,2 h -0.015 v -2 l -2.36,0.219 v 0.516 c 1.172,0 1.36,0.109 1.36,1.078 v 5.531 c 0,0.75 -0.079,0.859 -1.36,0.859 v 0.516 c 0.484,-0.047 1.36,-0.047 1.875,-0.047 0.516,0 1.406,0 1.891,0.047 v -0.516 c -1.282,0 -1.36,-0.078 -1.36,-0.859 v -3.828 c 0,-1.828 1.125,-3.203 2.516,-3.203 1.469,0 1.641,1.312 1.641,2.265 v 4.766 c 0,0.75 -0.094,0.859 -1.36,0.859 v 0.516 c 0.469,-0.047 1.36,-0.047 1.875,-0.047 0.516,0 1.406,0 1.891,0.047 v -0.516 c -1.281,0 -1.359,-0.078 -1.359,-0.859 z"
         style="fill:#000000;fill-opacity:1;fill-rule:nonzero;stroke:none"
         id="path248" /><path
         d="m 403.742,36.473 c 0,-0.36 -0.015,-0.375 -0.14,-0.375 -0.079,0 -0.094,0.015 -0.344,0.312 -0.047,0.078 -0.235,0.281 -0.297,0.36 -0.641,-0.672 -1.531,-0.704 -1.875,-0.704 -2.203,0 -3,1.157 -3,2.313 0,1.797 2.031,2.219 2.609,2.344 1.25,0.25 1.688,0.328 2.11,0.687 0.265,0.235 0.703,0.688 0.703,1.391 0,0.844 -0.485,1.922 -2.313,1.922 -1.734,0 -2.359,-1.313 -2.718,-3.078 -0.047,-0.266 -0.047,-0.297 -0.219,-0.297 -0.156,0 -0.172,0.031 -0.172,0.422 v 2.875 c 0,0.359 0.016,0.375 0.141,0.375 0.093,0 0.109,-0.016 0.218,-0.188 0.11,-0.172 0.422,-0.656 0.532,-0.844 0.406,0.532 1.093,1.047 2.218,1.047 1.969,0 3.032,-1.078 3.032,-2.625 0,-1.015 -0.547,-1.562 -0.797,-1.797 -0.61,-0.609 -1.297,-0.75 -2.141,-0.906 -1.094,-0.25 -2.484,-0.531 -2.484,-1.734 0,-0.532 0.281,-1.625 2.281,-1.625 2.141,0 2.25,2 2.297,2.64 0.015,0.094 0.125,0.11 0.172,0.11 0.187,0 0.187,-0.063 0.187,-0.391 z"
         style="fill:#000000;fill-opacity:1;fill-rule:nonzero;stroke:none"
         id="path250" /><path
         d="m 407.832,32.613 c 0,-0.437 -0.359,-0.828 -0.828,-0.828 -0.438,0 -0.813,0.36 -0.813,0.828 0,0.438 0.36,0.813 0.813,0.813 0.437,0 0.828,-0.36 0.828,-0.813 z m -2.344,3.766 v 0.516 c 1.125,0 1.282,0.109 1.282,1.078 v 5.531 c 0,0.75 -0.079,0.859 -1.36,0.859 v 0.516 c 0.485,-0.047 1.344,-0.047 1.844,-0.047 0.469,0 1.297,0 1.75,0.047 v -0.516 c -1.172,0 -1.219,-0.125 -1.219,-0.843 v -7.36 z"
         style="fill:#000000;fill-opacity:1;fill-rule:nonzero;stroke:none"
         id="path252" /><path
         d="m 416.652,37.91 c -0.375,0 -0.937,0 -0.937,0.688 0,0.562 0.453,0.718 0.719,0.718 0.14,0 0.718,-0.062 0.718,-0.75 0,-1.421 -1.359,-2.5 -2.89,-2.5 -2.11,0 -3.907,1.954 -3.907,4.516 0,2.641 1.875,4.453 3.907,4.453 2.468,0 3.093,-2.281 3.093,-2.5 0,-0.094 -0.031,-0.14 -0.171,-0.14 -0.141,0 -0.157,0.015 -0.235,0.265 -0.515,1.625 -1.656,2.016 -2.515,2.016 -1.266,0 -2.797,-1.172 -2.797,-4.125 0,-3.016 1.468,-4.125 2.64,-4.125 0.782,0 1.938,0.39 2.375,1.484 z"
         style="fill:#000000;fill-opacity:1;fill-rule:nonzero;stroke:none"
         id="path254" /><path
         d="m 436.18,31.348 c 0,-0.36 -0.032,-0.375 -0.141,-0.375 -0.078,0 -0.109,0.015 -0.234,0.265 l -0.891,1.672 c -0.969,-1.234 -2.172,-1.953 -3.703,-1.953 -3.406,0 -6.484,3 -6.484,7.109 0,4.141 3.078,7.125 6.515,7.125 3.047,0 4.938,-2.687 4.938,-4.968 0,-0.203 0,-0.282 -0.188,-0.282 -0.156,0 -0.156,0.063 -0.172,0.235 -0.156,2.797 -2.156,4.5 -4.312,4.5 -2.031,0 -5.266,-1.438 -5.266,-6.61 0,-5.203 3.297,-6.593 5.235,-6.593 2.25,0 3.875,1.953 4.265,4.718 0.031,0.235 0.031,0.282 0.219,0.282 0.219,0 0.219,-0.047 0.219,-0.407 z"
         style="fill:#000000;fill-opacity:1;fill-rule:nonzero;stroke:none"
         id="path256" /><path
         d="m 445.359,38.816 c 0,-1.015 -0.203,-2.656 -2.547,-2.656 -1.64,0 -2.437,1.313 -2.671,1.969 h -0.016 v -7.078 l -2.375,0.219 v 0.515 c 1.172,0 1.359,0.125 1.359,1.078 v 10.641 c 0,0.75 -0.078,0.859 -1.359,0.859 v 0.516 c 0.484,-0.047 1.359,-0.047 1.875,-0.047 0.516,0 1.406,0 1.891,0.047 v -0.516 c -1.282,0 -1.36,-0.078 -1.36,-0.859 v -3.828 c 0,-1.828 1.125,-3.203 2.516,-3.203 1.469,0 1.64,1.312 1.64,2.265 v 4.766 c 0,0.75 -0.093,0.859 -1.359,0.859 v 0.516 c 0.469,-0.047 1.359,-0.047 1.875,-0.047 0.516,0 1.406,0 1.891,0.047 v -0.516 c -1.281,0 -1.36,-0.078 -1.36,-0.859 z"
         style="fill:#000000;fill-opacity:1;fill-rule:nonzero;stroke:none"
         id="path258" /><path
         d="m 454.43,39.723 c 0,-1.313 0,-2.016 -0.844,-2.797 -0.734,-0.656 -1.594,-0.86 -2.266,-0.86 -1.578,0 -2.703,1.25 -2.703,2.563 0,0.734 0.594,0.766 0.719,0.766 0.25,0 0.703,-0.157 0.703,-0.719 0,-0.485 -0.375,-0.703 -0.703,-0.703 -0.094,0 -0.188,0.015 -0.25,0.031 0.422,-1.25 1.5,-1.609 2.203,-1.609 0.984,0 2.078,0.875 2.078,2.546 v 0.875 c -1.172,0.047 -2.578,0.204 -3.703,0.797 -1.25,0.703 -1.609,1.703 -1.609,2.453 0,1.532 1.797,1.969 2.843,1.969 1.094,0 2.11,-0.609 2.563,-1.75 0.031,0.875 0.594,1.672 1.469,1.672 0.422,0 1.468,-0.281 1.468,-1.844 v -1.125 h -0.359 v 1.141 c 0,1.219 -0.531,1.375 -0.797,1.375 -0.812,0 -0.812,-1.047 -0.812,-1.922 z m -1.063,2.39 c 0,1.735 -1.234,2.61 -2.328,2.61 -1,0 -1.766,-0.735 -1.766,-1.657 0,-0.593 0.25,-1.656 1.407,-2.296 0.953,-0.532 2.062,-0.61 2.687,-0.657 z"
         style="fill:#000000;fill-opacity:1;fill-rule:nonzero;stroke:none"
         id="path260" /><path
         d="m 459.367,40.176 c 0,-1.906 0.828,-3.703 2.313,-3.703 0.14,0 0.281,0.015 0.422,0.078 0,0 -0.438,0.14 -0.438,0.656 0,0.484 0.375,0.672 0.672,0.672 0.25,0 0.687,-0.125 0.687,-0.688 0,-0.64 -0.64,-1.031 -1.328,-1.031 -1.5,0 -2.172,1.469 -2.359,2.172 h -0.031 V 36.16 l -2.297,0.219 v 0.516 c 1.172,0 1.344,0.109 1.344,1.078 v 5.531 c 0,0.75 -0.079,0.859 -1.344,0.859 v 0.516 c 0.469,-0.047 1.39,-0.047 1.906,-0.047 0.578,0 1.594,0 2.125,0.047 v -0.516 c -1.422,0 -1.672,0 -1.672,-0.906 z"
         style="fill:#000000;fill-opacity:1;fill-rule:nonzero;stroke:none"
         id="path262" /><path
         d="m 476.902,38.816 c 0,-0.984 -0.187,-2.656 -2.547,-2.656 -1.359,0 -2.296,0.906 -2.656,1.985 h -0.015 c -0.235,-1.625 -1.422,-1.985 -2.532,-1.985 -1.578,0 -2.39,1.203 -2.687,2 h -0.016 v -2 l -2.359,0.219 v 0.516 c 1.172,0 1.359,0.109 1.359,1.078 v 5.531 c 0,0.75 -0.078,0.859 -1.359,0.859 v 0.516 c 0.484,-0.047 1.359,-0.047 1.875,-0.047 0.515,0 1.406,0 1.89,0.047 v -0.516 c -1.281,0 -1.359,-0.078 -1.359,-0.859 v -3.828 c 0,-1.828 1.125,-3.203 2.516,-3.203 1.468,0 1.64,1.312 1.64,2.265 v 4.766 c 0,0.75 -0.093,0.859 -1.359,0.859 v 0.516 c 0.469,-0.047 1.359,-0.047 1.875,-0.047 0.516,0 1.406,0 1.891,0.047 v -0.516 c -1.282,0 -1.36,-0.078 -1.36,-0.859 v -3.828 c 0,-1.828 1.125,-3.203 2.516,-3.203 1.469,0 1.625,1.312 1.625,2.265 v 4.766 c 0,0.75 -0.078,0.859 -1.344,0.859 v 0.516 c 0.469,-0.047 1.344,-0.047 1.859,-0.047 0.532,0 1.422,0 1.907,0.047 v -0.516 c -1.282,0 -1.36,-0.078 -1.36,-0.859 z"
         style="fill:#000000;fill-opacity:1;fill-rule:nonzero;stroke:none"
         id="path264" /><path
         d="m 169.367,299.852 h 196.16 c 1.868,0 2.801,-0.934 2.801,-2.801 v -79.215 c 0,-1.867 -0.933,-2.801 -2.801,-2.801 h -196.16 c -1.867,0 -2.801,0.934 -2.801,2.801 v 79.215 c 0,1.867 0.934,2.801 2.801,2.801 z"
         style="fill:#ffffff;fill-opacity:0.8;fill-rule:nonzero;stroke:none"
         id="path266" /><path
         d="m 169.367,299.852 h 196.16 c 1.868,0 2.801,-0.934 2.801,-2.801 v -79.215 c 0,-1.867 -0.933,-2.801 -2.801,-2.801 h -196.16 c -1.867,0 -2.801,0.934 -2.801,2.801 v 79.215 c 0,1.867 0.934,2.801 2.801,2.801 z"
         style="fill:none;stroke:#cacaca;stroke-width:1;stroke-linecap:butt;stroke-linejoin:miter;stroke-miterlimit:10;stroke-dasharray:none;stroke-opacity:0.8"
         id="path268" /><path
         d="m 172.164,225.672 h 28"
         style="fill:none;stroke:#1e75b3;stroke-width:2;stroke-linecap:square;stroke-linejoin:round;stroke-miterlimit:10;stroke-dasharray:none;stroke-opacity:1"
         id="path270" /><path
         d="m 211.961,221.043 v 0.406 h 0.281 c 1.016,0 1.047,0.141 1.047,0.656 v 7.407 c 0,0.515 -0.031,0.656 -1.047,0.656 h -0.281 v 0.406 h 5.25 c 1.797,0 3.062,-1.219 3.062,-2.547 0,-1.14 -1.015,-2.25 -2.687,-2.437 1.328,-0.25 2.297,-1.141 2.297,-2.188 0,-1.203 -1.219,-2.359 -3.047,-2.359 z m 2.391,4.437 v -3.468 c 0,-0.469 0.031,-0.563 0.64,-0.563 h 1.766 c 1.39,0 1.89,1.203 1.89,1.953 0,0.922 -0.718,2.078 -2.265,2.078 z m 0.64,4.688 c -0.609,0 -0.64,-0.094 -0.64,-0.563 v -3.843 h 2.609 c 1.344,0 2.031,1.172 2.031,2.25 0,1.125 -0.844,2.156 -2.219,2.156 z"
         style="fill:#000000;fill-opacity:1;fill-rule:nonzero;stroke:none"
         id="path272" /><path
         d="m 226.422,226.855 c 0,-0.765 0,-1.312 -0.625,-1.859 -0.485,-0.453 -1.109,-0.641 -1.719,-0.641 -1.156,0 -2.031,0.75 -2.031,1.657 0,0.406 0.265,0.593 0.594,0.593 0.328,0 0.562,-0.234 0.562,-0.562 0,-0.578 -0.5,-0.578 -0.703,-0.578 0.312,-0.578 0.984,-0.828 1.547,-0.828 0.641,0 1.469,0.531 1.469,1.781 v 0.562 c -2.813,0.032 -3.875,1.204 -3.875,2.282 0,1.109 1.281,1.453 2.14,1.453 0.922,0 1.547,-0.563 1.813,-1.235 0.062,0.657 0.484,1.157 1.094,1.157 0.281,0 1.093,-0.188 1.093,-1.297 v -0.781 h -0.297 v 0.781 c 0,0.781 -0.343,0.906 -0.531,0.906 -0.531,0 -0.531,-0.75 -0.531,-0.953 z m -0.906,1.75 c 0,1.375 -1.032,1.829 -1.625,1.829 -0.688,0 -1.25,-0.5 -1.25,-1.172 0,-1.844 2.375,-2.016 2.875,-2.032 z"
         style="fill:#000000;fill-opacity:1;fill-rule:nonzero;stroke:none"
         id="path274" /><path
         d="m 232.43,224.668 c 0,-0.25 0,-0.313 -0.141,-0.313 -0.109,0 -0.375,0.297 -0.469,0.422 -0.437,-0.343 -0.875,-0.422 -1.312,-0.422 -1.688,0 -2.203,0.922 -2.203,1.688 0,0.156 0,0.641 0.531,1.125 0.453,0.391 0.922,0.484 1.562,0.609 0.782,0.157 0.954,0.203 1.297,0.485 0.266,0.203 0.438,0.515 0.438,0.906 0,0.594 -0.344,1.266 -1.578,1.266 -0.922,0 -1.594,-0.532 -1.891,-1.922 -0.062,-0.25 -0.062,-0.266 -0.078,-0.282 -0.016,-0.062 -0.078,-0.062 -0.125,-0.062 -0.156,0 -0.156,0.078 -0.156,0.328 v 1.891 c 0,0.25 0,0.328 0.14,0.328 0.078,0 0.094,-0.016 0.328,-0.313 0.063,-0.093 0.063,-0.125 0.282,-0.343 0.531,0.656 1.281,0.656 1.515,0.656 1.469,0 2.188,-0.813 2.188,-1.906 0,-0.766 -0.453,-1.204 -0.578,-1.329 -0.5,-0.437 -0.875,-0.515 -1.797,-0.687 -0.422,-0.078 -1.438,-0.281 -1.438,-1.109 0,-0.438 0.282,-1.079 1.547,-1.079 1.516,0 1.594,1.297 1.625,1.735 0.016,0.109 0.11,0.109 0.156,0.109 0.157,0 0.157,-0.078 0.157,-0.328 z"
         style="fill:#000000;fill-opacity:1;fill-rule:nonzero;stroke:none"
         id="path276" /><path
         d="m 238.578,227.34 c 0.313,0 0.328,0 0.328,-0.266 0,-1.406 -0.75,-2.719 -2.437,-2.719 -1.594,0 -2.813,1.438 -2.813,3.157 0,1.843 1.422,3.203 2.969,3.203 1.656,0 2.281,-1.516 2.281,-1.797 0,-0.094 -0.062,-0.141 -0.14,-0.141 -0.125,0 -0.141,0.063 -0.172,0.141 -0.36,1.172 -1.297,1.484 -1.891,1.484 -0.578,0 -1.984,-0.39 -1.984,-2.797 v -0.265 z m -3.844,-0.266 c 0.11,-2.187 1.328,-2.437 1.719,-2.437 1.5,0 1.578,1.953 1.594,2.437 z"
         style="fill:#000000;fill-opacity:1;fill-rule:nonzero;stroke:none"
         id="path278" /><path
         d="m 241.707,220.887 -1.953,0.156 v 0.406 c 0.953,0 1.062,0.094 1.062,0.781 v 7.313 c 0,0.625 -0.14,0.625 -1.062,0.625 v 0.406 c 0.391,-0.031 1.078,-0.031 1.5,-0.031 0.422,0 1.109,0 1.5,0.031 v -0.406 c -0.891,0 -1.047,0 -1.047,-0.625 z"
         style="fill:#000000;fill-opacity:1;fill-rule:nonzero;stroke:none"
         id="path280" /><path
         d="m 245.504,221.98 c 0,-0.359 -0.281,-0.687 -0.672,-0.687 -0.375,0 -0.672,0.297 -0.672,0.672 0,0.422 0.328,0.687 0.672,0.687 0.422,0 0.672,-0.359 0.672,-0.672 z m -1.922,2.594 v 0.406 c 0.891,0 1.016,0.079 1.016,0.766 v 3.797 c 0,0.625 -0.141,0.625 -1.063,0.625 v 0.406 c 0.391,-0.031 1.063,-0.031 1.469,-0.031 0.156,0 0.969,0 1.437,0.031 v -0.406 c -0.906,0 -0.953,-0.063 -0.953,-0.609 v -5.141 z"
         style="fill:#000000;fill-opacity:1;fill-rule:nonzero;stroke:none"
         id="path282" /><path
         d="m 253.066,227.184 c 0,-1.297 0,-1.688 -0.312,-2.141 -0.406,-0.531 -1.063,-0.625 -1.531,-0.625 -1.36,0 -1.891,1.156 -2,1.437 h -0.016 v -1.437 l -1.891,0.156 v 0.406 c 0.938,0 1.047,0.094 1.047,0.782 v 3.781 c 0,0.625 -0.14,0.625 -1.047,0.625 v 0.406 c 0.36,-0.031 1.11,-0.031 1.5,-0.031 0.407,0 1.157,0 1.516,0.031 v -0.406 c -0.891,0 -1.062,0 -1.062,-0.625 v -2.594 c 0,-1.469 0.968,-2.25 1.828,-2.25 0.875,0 1.062,0.719 1.062,1.563 v 3.281 c 0,0.625 -0.14,0.625 -1.062,0.625 v 0.406 c 0.375,-0.031 1.125,-0.031 1.515,-0.031 0.407,0 1.157,0 1.516,0.031 v -0.406 c -0.688,0 -1.047,0 -1.063,-0.422 z"
         style="fill:#000000;fill-opacity:1;fill-rule:nonzero;stroke:none"
         id="path284" /><path
         d="m 259.781,227.34 c 0.313,0 0.328,0 0.328,-0.266 0,-1.406 -0.75,-2.719 -2.437,-2.719 -1.594,0 -2.813,1.438 -2.813,3.157 0,1.843 1.422,3.203 2.969,3.203 1.656,0 2.281,-1.516 2.281,-1.797 0,-0.094 -0.062,-0.141 -0.14,-0.141 -0.125,0 -0.141,0.063 -0.172,0.141 -0.359,1.172 -1.297,1.484 -1.891,1.484 -0.578,0 -1.984,-0.39 -1.984,-2.797 v -0.265 z m -3.843,-0.266 c 0.109,-2.187 1.328,-2.437 1.718,-2.437 1.5,0 1.578,1.953 1.594,2.437 z"
         style="fill:#000000;fill-opacity:1;fill-rule:nonzero;stroke:none"
         id="path286" /><path
         d="m 269.242,221.043 v 0.406 c 0.953,0 1.063,0.094 1.063,0.781 v 3.079 c -0.297,-0.407 -0.891,-0.891 -1.75,-0.891 -1.61,0 -3.016,1.375 -3.016,3.156 0,1.766 1.328,3.141 2.859,3.141 1.063,0 1.672,-0.703 1.875,-0.969 v 0.969 l 1.969,-0.141 v -0.406 c -0.953,0 -1.062,-0.094 -1.062,-0.781 v -8.5 z m 1.031,7.906 c 0,0.25 0,0.281 -0.203,0.594 -0.328,0.484 -0.906,0.891 -1.593,0.891 -0.36,0 -1.875,-0.141 -1.875,-2.844 0,-1 0.171,-1.563 0.468,-2.031 0.282,-0.422 0.844,-0.86 1.547,-0.86 0.86,0 1.344,0.625 1.485,0.86 0.171,0.234 0.171,0.25 0.171,0.515 z"
         style="fill:#000000;fill-opacity:1;fill-rule:nonzero;stroke:none"
         id="path288" /><path
         d="m 278.02,226.855 c 0,-0.765 0,-1.312 -0.625,-1.859 -0.485,-0.453 -1.11,-0.641 -1.719,-0.641 -1.156,0 -2.031,0.75 -2.031,1.657 0,0.406 0.265,0.593 0.593,0.593 0.328,0 0.563,-0.234 0.563,-0.562 0,-0.578 -0.5,-0.578 -0.703,-0.578 0.312,-0.578 0.984,-0.828 1.547,-0.828 0.64,0 1.468,0.531 1.468,1.781 v 0.562 c -2.812,0.032 -3.875,1.204 -3.875,2.282 0,1.109 1.282,1.453 2.141,1.453 0.922,0 1.547,-0.563 1.812,-1.235 0.063,0.657 0.485,1.157 1.094,1.157 0.281,0 1.094,-0.188 1.094,-1.297 v -0.781 h -0.297 v 0.781 c 0,0.781 -0.344,0.906 -0.531,0.906 -0.531,0 -0.531,-0.75 -0.531,-0.953 z m -0.907,1.75 c 0,1.375 -1.031,1.829 -1.625,1.829 -0.687,0 -1.25,-0.5 -1.25,-1.172 0,-1.844 2.375,-2.016 2.875,-2.032 z"
         style="fill:#000000;fill-opacity:1;fill-rule:nonzero;stroke:none"
         id="path290" /><path
         d="m 281.793,224.965 h 1.969 v -0.406 h -1.969 v -2.563 h -0.313 c -0.015,1.313 -0.515,2.641 -1.781,2.688 v 0.281 h 1.188 v 3.875 c 0,1.547 1.031,1.875 1.765,1.875 0.891,0 1.344,-0.86 1.344,-1.875 v -0.797 h -0.312 v 0.766 c 0,1.015 -0.391,1.593 -0.938,1.593 -0.953,0 -0.953,-1.297 -0.953,-1.531 z"
         style="fill:#000000;fill-opacity:1;fill-rule:nonzero;stroke:none"
         id="path292" /><path
         d="m 290.141,226.855 c 0,-0.765 0,-1.312 -0.625,-1.859 -0.485,-0.453 -1.11,-0.641 -1.719,-0.641 -1.156,0 -2.031,0.75 -2.031,1.657 0,0.406 0.265,0.593 0.593,0.593 0.329,0 0.563,-0.234 0.563,-0.562 0,-0.578 -0.5,-0.578 -0.703,-0.578 0.312,-0.578 0.984,-0.828 1.547,-0.828 0.64,0 1.468,0.531 1.468,1.781 v 0.562 c -2.812,0.032 -3.875,1.204 -3.875,2.282 0,1.109 1.282,1.453 2.141,1.453 0.922,0 1.547,-0.563 1.812,-1.235 0.063,0.657 0.485,1.157 1.094,1.157 0.282,0 1.094,-0.188 1.094,-1.297 v -0.781 h -0.297 v 0.781 c 0,0.781 -0.344,0.906 -0.531,0.906 -0.531,0 -0.531,-0.75 -0.531,-0.953 z m -0.907,1.75 c 0,1.375 -1.031,1.829 -1.625,1.829 -0.687,0 -1.25,-0.5 -1.25,-1.172 0,-1.844 2.375,-2.016 2.875,-2.032 z"
         style="fill:#000000;fill-opacity:1;fill-rule:nonzero;stroke:none"
         id="path294" /><path
         d="m 296.148,224.668 c 0,-0.25 0,-0.313 -0.14,-0.313 -0.11,0 -0.375,0.297 -0.469,0.422 -0.437,-0.343 -0.875,-0.422 -1.312,-0.422 -1.688,0 -2.204,0.922 -2.204,1.688 0,0.156 0,0.641 0.532,1.125 0.453,0.391 0.922,0.484 1.562,0.609 0.781,0.157 0.953,0.203 1.297,0.485 0.266,0.203 0.438,0.515 0.438,0.906 0,0.594 -0.344,1.266 -1.579,1.266 -0.921,0 -1.593,-0.532 -1.89,-1.922 -0.063,-0.25 -0.063,-0.266 -0.078,-0.282 -0.016,-0.062 -0.078,-0.062 -0.125,-0.062 -0.157,0 -0.157,0.078 -0.157,0.328 v 1.891 c 0,0.25 0,0.328 0.141,0.328 0.078,0 0.094,-0.016 0.328,-0.313 0.063,-0.093 0.063,-0.125 0.281,-0.343 0.532,0.656 1.282,0.656 1.516,0.656 1.469,0 2.188,-0.813 2.188,-1.906 0,-0.766 -0.454,-1.204 -0.579,-1.329 -0.5,-0.437 -0.875,-0.515 -1.796,-0.687 -0.422,-0.078 -1.438,-0.281 -1.438,-1.109 0,-0.438 0.281,-1.079 1.547,-1.079 1.516,0 1.594,1.297 1.625,1.735 0.016,0.109 0.109,0.109 0.156,0.109 0.156,0 0.156,-0.078 0.156,-0.328 z"
         style="fill:#000000;fill-opacity:1;fill-rule:nonzero;stroke:none"
         id="path296" /><path
         d="m 302.297,227.34 c 0.312,0 0.328,0 0.328,-0.266 0,-1.406 -0.75,-2.719 -2.437,-2.719 -1.594,0 -2.813,1.438 -2.813,3.157 0,1.843 1.422,3.203 2.969,3.203 1.656,0 2.281,-1.516 2.281,-1.797 0,-0.094 -0.063,-0.141 -0.141,-0.141 -0.125,0 -0.14,0.063 -0.172,0.141 -0.359,1.172 -1.296,1.484 -1.89,1.484 -0.578,0 -1.984,-0.39 -1.984,-2.797 v -0.265 z m -3.844,-0.266 c 0.109,-2.187 1.328,-2.437 1.719,-2.437 1.5,0 1.578,1.953 1.594,2.437 z"
         style="fill:#000000;fill-opacity:1;fill-rule:nonzero;stroke:none"
         id="path298" /><path
         d="m 305.363,224.965 h 1.969 v -0.406 h -1.969 v -2.563 h -0.312 c -0.016,1.313 -0.516,2.641 -1.781,2.688 v 0.281 h 1.187 v 3.875 c 0,1.547 1.031,1.875 1.766,1.875 0.89,0 1.343,-0.86 1.343,-1.875 v -0.797 h -0.312 v 0.766 c 0,1.015 -0.391,1.593 -0.938,1.593 -0.953,0 -0.953,-1.297 -0.953,-1.531 z"
         style="fill:#000000;fill-opacity:1;fill-rule:nonzero;stroke:none"
         id="path300" /><path
         d="m 172.164,245.582 h 28"
         style="fill:none;stroke:#ff7d0c;stroke-width:2;stroke-linecap:butt;stroke-linejoin:round;stroke-miterlimit:10;stroke-dasharray:7.4, 3.2;stroke-dashoffset:0;stroke-opacity:1"
         id="path302" /><path
         d="m 216.93,247.262 h 3.859 c 0.188,0 0.438,0 0.438,-0.25 0,-0.266 -0.235,-0.266 -0.438,-0.266 h -3.859 v -3.859 c 0,-0.188 0,-0.438 -0.25,-0.438 -0.266,0 -0.266,0.235 -0.266,0.438 v 3.859 h -3.844 c -0.203,0 -0.453,0 -0.453,0.25 0,0.266 0.235,0.266 0.453,0.266 h 3.844 v 3.843 c 0,0.204 0,0.454 0.25,0.454 0.266,0 0.266,-0.235 0.266,-0.454 z"
         style="fill:#000000;fill-opacity:1;fill-rule:nonzero;stroke:none"
         id="path304" /><path
         d="m 235.438,246.902 h -0.313 c -0.328,2.188 -0.672,3.172 -3.031,3.172 h -1.891 c -0.609,0 -0.641,-0.094 -0.641,-0.562 v -3.766 h 1.266 c 1.344,0 1.5,0.438 1.5,1.641 h 0.297 v -3.672 h -0.297 c 0,1.203 -0.156,1.625 -1.5,1.625 h -1.266 v -3.406 c 0,-0.454 0.032,-0.547 0.641,-0.547 h 1.859 c 2.047,0 2.485,0.687 2.688,2.703 h 0.312 l -0.374,-3.11 h -7.579 v 0.407 h 0.266 c 1.016,0 1.047,0.14 1.047,0.656 v 7.375 c 0,0.516 -0.031,0.656 -1.047,0.656 h -0.266 v 0.406 h 7.766 z"
         style="fill:#000000;fill-opacity:1;fill-rule:nonzero;stroke:none"
         id="path306" /><path
         d="m 239.023,241.215 c -0.093,-0.266 -0.109,-0.266 -0.421,-0.266 h -2.172 v 0.406 h 0.281 c 1,0 1.047,0.141 1.047,0.657 v 7.031 c 0,0.375 0,1.031 -1.328,1.031 v 0.406 c 0.375,-0.031 1.109,-0.031 1.5,-0.031 0.39,0 1.125,0 1.484,0.031 v -0.406 c -1.312,0 -1.312,-0.656 -1.312,-1.031 v -7.625 l 3.375,8.797 c 0.046,0.156 0.093,0.265 0.234,0.265 0.125,0 0.156,-0.062 0.234,-0.281 l 3.391,-8.844 h 0.016 v 8.063 c 0,0.516 -0.047,0.656 -1.047,0.656 h -0.282 v 0.406 c 0.329,-0.031 1.438,-0.031 1.844,-0.031 0.406,0 1.516,0 1.844,0.031 v -0.406 h -0.281 c -1,0 -1.047,-0.14 -1.047,-0.656 v -7.406 c 0,-0.516 0.047,-0.657 1.047,-0.657 h 0.281 v -0.406 h -2.172 c -0.297,0 -0.312,0.016 -0.422,0.281 l -3.047,7.938 z"
         style="fill:#000000;fill-opacity:1;fill-rule:nonzero;stroke:none"
         id="path308" /><path
         d="m 257.426,240.98 c 0,-0.25 0,-0.328 -0.141,-0.328 -0.078,0 -0.094,0.032 -0.172,0.172 l -0.687,1.11 c -0.625,-0.782 -1.578,-1.282 -2.578,-1.282 -2.563,0 -4.766,2.203 -4.766,5.063 0,2.875 2.234,5.062 4.766,5.062 2.281,0 3.578,-2 3.578,-3.531 0,-0.156 0,-0.234 -0.156,-0.234 -0.141,0 -0.141,0.062 -0.141,0.156 -0.125,2.219 -1.75,3.203 -3.109,3.203 -0.969,0 -3.641,-0.594 -3.641,-4.656 0,-4.031 2.625,-4.656 3.625,-4.656 1.469,0 2.75,1.25 3.031,3.343 0.031,0.157 0.031,0.203 0.203,0.203 0.188,0 0.188,-0.046 0.188,-0.312 z"
         style="fill:#000000;fill-opacity:1;fill-rule:nonzero;stroke:none"
         id="path310" /><path
         d="m 270.715,240.98 h -7.391 v 0.407 h 0.266 c 1.015,0 1.047,0.14 1.047,0.656 v 7.375 c 0,0.516 -0.032,0.656 -1.047,0.656 h -0.266 v 0.406 c 0.328,-0.031 1.578,-0.031 1.985,-0.031 0.5,0 1.718,0 2.125,0.031 v -0.406 h -0.422 c -1.203,0 -1.235,-0.172 -1.235,-0.672 v -3.468 h 1.219 c 1.313,0 1.453,0.453 1.453,1.625 h 0.313 v -3.657 h -0.313 c 0,1.172 -0.14,1.625 -1.453,1.625 h -1.219 v -3.593 c 0,-0.454 0.032,-0.547 0.641,-0.547 h 1.734 c 2.016,0 2.422,0.734 2.61,2.703 h 0.312 z"
         style="fill:#000000;fill-opacity:1;fill-rule:nonzero;stroke:none"
         id="path312" /><path
         d="m 275.598,241.684 c -0.36,0.015 -0.563,0.296 -0.563,0.546 0,0.282 0.25,0.344 0.375,0.344 0.188,0 0.547,-0.172 0.547,-0.625 0,-0.515 -0.516,-0.844 -1.187,-0.844 -1.329,0 -2.672,1.344 -2.672,2.75 0,0.969 0.656,1.672 1.64,1.672 1.469,0 2.282,-1.015 2.282,-1.14 0,-0.063 -0.063,-0.141 -0.141,-0.141 -0.047,0 -0.047,0.016 -0.141,0.109 -0.578,0.735 -1.468,0.922 -1.984,0.922 -0.547,0 -0.906,-0.359 -0.906,-1.062 0,-0.422 0.187,-1.391 0.578,-2.016 0.219,-0.344 0.734,-0.859 1.344,-0.859 0.187,0 0.593,0.047 0.828,0.344 z"
         style="fill:#000000;fill-opacity:1;fill-rule:nonzero;stroke:none"
         id="path314" /><path
         d="m 276.191,252.207 h -0.281 c -0.015,0.125 -0.094,0.703 -0.219,0.859 -0.062,0.094 -0.734,0.094 -0.921,0.094 h -1.75 l 0.968,-0.922 c 1.61,-1.39 2.203,-1.906 2.203,-2.89 0,-1.125 -0.937,-1.907 -2.125,-1.907 -1.125,0 -1.89,0.891 -1.89,1.766 0,0.5 0.422,0.547 0.5,0.547 0.219,0 0.515,-0.156 0.515,-0.516 0,-0.281 -0.203,-0.5 -0.515,-0.5 -0.047,0 -0.078,0 -0.11,0 0.235,-0.687 0.86,-1 1.391,-1 0.984,0 1.328,0.922 1.328,1.61 0,0.984 -0.75,1.797 -1.219,2.312 l -1.781,1.922 c -0.109,0.109 -0.109,0.141 -0.109,0.359 h 3.734 z"
         style="fill:#000000;fill-opacity:1;fill-rule:nonzero;stroke:none"
         id="path316" /><path
         d="m 172.164,265.98 h 28"
         style="fill:none;stroke:#2b9e2b;stroke-width:2;stroke-linecap:butt;stroke-linejoin:round;stroke-miterlimit:10;stroke-dasharray:2, 3.3;stroke-dashoffset:0;stroke-opacity:1"
         id="path318" /><path
         d="m 216.93,267.66 h 3.859 c 0.188,0 0.438,0 0.438,-0.25 0,-0.265 -0.235,-0.265 -0.438,-0.265 h -3.859 v -3.86 c 0,-0.187 0,-0.437 -0.25,-0.437 -0.266,0 -0.266,0.234 -0.266,0.437 v 3.86 h -3.844 c -0.203,0 -0.453,0 -0.453,0.25 0,0.265 0.235,0.265 0.453,0.265 h 3.844 v 3.844 c 0,0.203 0,0.453 0.25,0.453 0.266,0 0.266,-0.234 0.266,-0.453 z"
         style="fill:#000000;fill-opacity:1;fill-rule:nonzero;stroke:none"
         id="path320" /><path
         d="m 234.484,267.301 h -0.312 c -0.141,1.406 -0.313,3.172 -2.75,3.172 h -1.219 c -0.609,0 -0.641,-0.094 -0.641,-0.563 v -7.484 c 0,-0.5 0.032,-0.672 1.235,-0.672 h 0.422 v -0.406 c -0.407,0.031 -1.625,0.031 -2.125,0.031 -0.406,0 -1.656,0 -1.985,-0.031 v 0.406 h 0.266 c 1.016,0 1.047,0.141 1.047,0.656 v 7.406 c 0,0.516 -0.031,0.657 -1.047,0.657 h -0.266 v 0.406 h 7.016 z"
         style="fill:#000000;fill-opacity:1;fill-rule:nonzero;stroke:none"
         id="path322" /><path
         d="m 243.383,262.41 c 0,-0.515 0.047,-0.656 1.047,-0.656 h 0.281 v -0.406 c -0.328,0.031 -1.484,0.031 -1.891,0.031 -0.406,0 -1.562,0 -1.89,-0.031 v 0.406 h 0.281 c 1,0 1.047,0.141 1.047,0.656 v 3.313 h -4.172 v -3.313 c 0,-0.515 0.031,-0.656 1.047,-0.656 h 0.281 v -0.406 c -0.344,0.031 -1.484,0.031 -1.891,0.031 -0.421,0 -1.562,0 -1.89,-0.031 v 0.406 h 0.265 c 1.016,0 1.047,0.141 1.047,0.656 v 7.406 c 0,0.516 -0.031,0.657 -1.047,0.657 h -0.265 v 0.406 c 0.328,-0.031 1.469,-0.031 1.875,-0.031 0.422,0 1.562,0 1.906,0.031 v -0.406 h -0.281 c -1.016,0 -1.047,-0.141 -1.047,-0.657 v -3.703 h 4.172 v 3.703 c 0,0.516 -0.047,0.657 -1.047,0.657 h -0.281 v 0.406 c 0.328,-0.031 1.484,-0.031 1.89,-0.031 0.407,0 1.563,0 1.891,0.031 v -0.406 h -0.281 c -1,0 -1.047,-0.141 -1.047,-0.657 z"
         style="fill:#000000;fill-opacity:1;fill-rule:nonzero;stroke:none"
         id="path324" /><path
         d="m 254.387,261.379 c 0,-0.25 0,-0.328 -0.141,-0.328 -0.078,0 -0.094,0.031 -0.172,0.172 l -0.687,1.109 c -0.625,-0.781 -1.578,-1.281 -2.578,-1.281 -2.563,0 -4.766,2.203 -4.766,5.062 0,2.875 2.234,5.063 4.766,5.063 2.281,0 3.578,-2 3.578,-3.531 0,-0.157 0,-0.235 -0.157,-0.235 -0.14,0 -0.14,0.063 -0.14,0.156 -0.125,2.219 -1.75,3.204 -3.11,3.204 -0.968,0 -3.64,-0.594 -3.64,-4.657 0,-4.031 2.625,-4.656 3.625,-4.656 1.469,0 2.75,1.25 3.031,3.344 0.031,0.156 0.031,0.203 0.203,0.203 0.188,0 0.188,-0.047 0.188,-0.313 z"
         style="fill:#000000;fill-opacity:1;fill-rule:nonzero;stroke:none"
         id="path326" /><path
         d="m 257.48,261.191 -1.937,0.157 v 0.406 c 0.953,0 1.062,0.094 1.062,0.781 v 8.344 h 0.313 c 0.047,-0.109 0.437,-0.813 0.5,-0.906 0.312,0.515 0.922,1.047 1.812,1.047 1.594,0 3.016,-1.36 3.016,-3.157 0,-1.765 -1.312,-3.14 -2.859,-3.14 -0.782,0 -1.438,0.359 -1.907,0.937 z m 0.032,5.219 c 0,-0.25 0,-0.281 0.156,-0.5 0.328,-0.5 0.937,-0.906 1.625,-0.906 0.422,0 1.891,0.172 1.891,2.844 0,0.937 -0.141,1.531 -0.485,2.031 -0.265,0.422 -0.828,0.859 -1.531,0.859 -0.75,0 -1.234,-0.484 -1.469,-0.859 -0.187,-0.297 -0.187,-0.359 -0.187,-0.594 z"
         style="fill:#000000;fill-opacity:1;fill-rule:nonzero;stroke:none"
         id="path328" /><path
         d="m 274.746,261.832 c 0.109,-0.172 0.109,-0.187 0.109,-0.281 0,-0.203 -0.078,-0.203 -0.343,-0.203 h -6.125 l -0.157,3.109 h 0.297 c 0.11,-1.578 0.532,-2.703 2.797,-2.703 h 2.235 l -5.532,8.797 c 0,0.312 0.016,0.328 0.344,0.328 h 6.328 l 0.219,-3.688 h -0.297 c -0.109,1.969 -0.391,3.25 -2.937,3.25 h -2.36 z"
         style="fill:#000000;fill-opacity:1;fill-rule:nonzero;stroke:none"
         id="path330" /><path
         d="m 281.184,267.66 h 3.859 c 0.187,0 0.437,0 0.437,-0.25 0,-0.265 -0.234,-0.265 -0.437,-0.265 h -3.859 v -3.86 c 0,-0.187 0,-0.437 -0.25,-0.437 -0.266,0 -0.266,0.234 -0.266,0.437 v 3.86 h -3.844 c -0.203,0 -0.453,0 -0.453,0.25 0,0.265 0.234,0.265 0.453,0.265 h 3.844 v 3.844 c 0,0.203 0,0.453 0.25,0.453 0.266,0 0.266,-0.234 0.266,-0.453 z"
         style="fill:#000000;fill-opacity:1;fill-rule:nonzero;stroke:none"
         id="path332" /><path
         d="m 291.281,265.723 c -0.156,0 -0.672,0 -0.672,0.562 0,0.344 0.235,0.578 0.563,0.578 0.328,0 0.594,-0.203 0.594,-0.609 0,-0.922 -0.985,-1.594 -2.11,-1.594 -1.64,0 -2.937,1.453 -2.937,3.203 0,1.782 1.343,3.157 2.922,3.157 1.843,0 2.265,-1.672 2.265,-1.797 0,-0.125 -0.109,-0.125 -0.14,-0.125 -0.125,0 -0.141,0.031 -0.188,0.203 -0.312,0.984 -1.062,1.406 -1.812,1.406 -0.86,0 -1.985,-0.734 -1.985,-2.859 0,-2.313 1.188,-2.891 1.891,-2.891 0.531,0 1.297,0.219 1.609,0.766 z"
         style="fill:#000000;fill-opacity:1;fill-rule:nonzero;stroke:none"
         id="path334" /><path
         d="m 172.164,285.891 h 28"
         style="fill:none;stroke:#d42626;stroke-width:2;stroke-linecap:butt;stroke-linejoin:round;stroke-miterlimit:10;stroke-dasharray:12.8, 3.2, 2, 3.2;stroke-dashoffset:0;stroke-opacity:1"
         id="path336" /><path
         d="m 216.93,287.57 h 3.859 c 0.188,0 0.438,0 0.438,-0.25 0,-0.265 -0.235,-0.265 -0.438,-0.265 h -3.859 v -3.86 c 0,-0.187 0,-0.437 -0.25,-0.437 -0.266,0 -0.266,0.234 -0.266,0.437 v 3.86 h -3.844 c -0.203,0 -0.453,0 -0.453,0.25 0,0.265 0.235,0.265 0.453,0.265 h 3.844 v 3.844 c 0,0.203 0,0.453 0.25,0.453 0.266,0 0.266,-0.234 0.266,-0.453 z"
         style="fill:#000000;fill-opacity:1;fill-rule:nonzero;stroke:none"
         id="path338" /><path
         d="m 235.438,287.211 h -0.313 c -0.328,2.187 -0.672,3.172 -3.031,3.172 h -1.891 c -0.609,0 -0.641,-0.094 -0.641,-0.563 v -3.765 h 1.266 c 1.344,0 1.5,0.437 1.5,1.64 h 0.297 v -3.672 h -0.297 c 0,1.204 -0.156,1.625 -1.5,1.625 h -1.266 v -3.406 c 0,-0.453 0.032,-0.547 0.641,-0.547 h 1.859 c 2.047,0 2.485,0.688 2.688,2.703 h 0.312 l -0.374,-3.109 h -7.579 v 0.406 h 0.266 c 1.016,0 1.047,0.141 1.047,0.657 v 7.375 c 0,0.515 -0.031,0.656 -1.047,0.656 h -0.266 v 0.406 h 7.766 z"
         style="fill:#000000;fill-opacity:1;fill-rule:nonzero;stroke:none"
         id="path340" /><path
         d="m 239.023,281.523 c -0.093,-0.265 -0.109,-0.265 -0.421,-0.265 h -2.172 v 0.406 h 0.281 c 1,0 1.047,0.141 1.047,0.656 v 7.032 c 0,0.375 0,1.031 -1.328,1.031 v 0.406 c 0.375,-0.031 1.109,-0.031 1.5,-0.031 0.39,0 1.125,0 1.484,0.031 v -0.406 c -1.312,0 -1.312,-0.656 -1.312,-1.031 v -7.625 l 3.375,8.796 c 0.046,0.157 0.093,0.266 0.234,0.266 0.125,0 0.156,-0.062 0.234,-0.281 l 3.391,-8.844 h 0.016 v 8.063 c 0,0.515 -0.047,0.656 -1.047,0.656 h -0.282 v 0.406 c 0.329,-0.031 1.438,-0.031 1.844,-0.031 0.406,0 1.516,0 1.844,0.031 v -0.406 h -0.281 c -1,0 -1.047,-0.141 -1.047,-0.656 v -7.407 c 0,-0.515 0.047,-0.656 1.047,-0.656 h 0.281 v -0.406 h -2.172 c -0.297,0 -0.312,0.015 -0.422,0.281 l -3.047,7.938 z"
         style="fill:#000000;fill-opacity:1;fill-rule:nonzero;stroke:none"
         id="path342" /><path
         d="m 257.426,281.289 c 0,-0.25 0,-0.328 -0.141,-0.328 -0.078,0 -0.094,0.031 -0.172,0.172 l -0.687,1.109 c -0.625,-0.781 -1.578,-1.281 -2.578,-1.281 -2.563,0 -4.766,2.203 -4.766,5.062 0,2.875 2.234,5.063 4.766,5.063 2.281,0 3.578,-2 3.578,-3.531 0,-0.157 0,-0.235 -0.156,-0.235 -0.141,0 -0.141,0.063 -0.141,0.157 -0.125,2.218 -1.75,3.203 -3.109,3.203 -0.969,0 -3.641,-0.594 -3.641,-4.657 0,-4.031 2.625,-4.656 3.625,-4.656 1.469,0 2.75,1.25 3.031,3.344 0.031,0.156 0.031,0.203 0.203,0.203 0.188,0 0.188,-0.047 0.188,-0.312 z"
         style="fill:#000000;fill-opacity:1;fill-rule:nonzero;stroke:none"
         id="path344" /><path
         d="m 270.715,281.289 h -7.391 v 0.406 h 0.266 c 1.015,0 1.047,0.141 1.047,0.657 v 7.375 c 0,0.515 -0.032,0.656 -1.047,0.656 h -0.266 v 0.406 c 0.328,-0.031 1.578,-0.031 1.985,-0.031 0.5,0 1.718,0 2.125,0.031 v -0.406 h -0.422 c -1.203,0 -1.235,-0.172 -1.235,-0.672 v -3.469 h 1.219 c 1.313,0 1.453,0.453 1.453,1.625 h 0.313 v -3.656 h -0.313 c 0,1.172 -0.14,1.625 -1.453,1.625 h -1.219 v -3.594 c 0,-0.453 0.032,-0.547 0.641,-0.547 h 1.734 c 2.016,0 2.422,0.735 2.61,2.703 h 0.312 z"
         style="fill:#000000;fill-opacity:1;fill-rule:nonzero;stroke:none"
         id="path346" /><path
         d="m 275.598,281.992 c -0.36,0.016 -0.563,0.297 -0.563,0.547 0,0.281 0.25,0.344 0.375,0.344 0.188,0 0.547,-0.172 0.547,-0.625 0,-0.516 -0.516,-0.844 -1.187,-0.844 -1.329,0 -2.672,1.344 -2.672,2.75 0,0.969 0.656,1.672 1.64,1.672 1.469,0 2.282,-1.016 2.282,-1.141 0,-0.062 -0.063,-0.14 -0.141,-0.14 -0.047,0 -0.047,0.015 -0.141,0.109 -0.578,0.734 -1.468,0.922 -1.984,0.922 -0.547,0 -0.906,-0.359 -0.906,-1.063 0,-0.421 0.187,-1.39 0.578,-2.015 0.219,-0.344 0.734,-0.86 1.344,-0.86 0.187,0 0.593,0.047 0.828,0.344 z"
         style="fill:#000000;fill-opacity:1;fill-rule:nonzero;stroke:none"
         id="path348" /><path
         d="m 276.191,292.516 h -0.281 c -0.015,0.125 -0.094,0.703 -0.219,0.859 -0.062,0.094 -0.734,0.094 -0.921,0.094 h -1.75 l 0.968,-0.922 c 1.61,-1.391 2.203,-1.906 2.203,-2.891 0,-1.125 -0.937,-1.906 -2.125,-1.906 -1.125,0 -1.89,0.891 -1.89,1.766 0,0.5 0.422,0.546 0.5,0.546 0.219,0 0.515,-0.156 0.515,-0.515 0,-0.281 -0.203,-0.5 -0.515,-0.5 -0.047,0 -0.078,0 -0.11,0 0.235,-0.688 0.86,-1 1.391,-1 0.984,0 1.328,0.922 1.328,1.609 0,0.985 -0.75,1.797 -1.219,2.313 l -1.781,1.922 c -0.109,0.109 -0.109,0.14 -0.109,0.359 h 3.734 z"
         style="fill:#000000;fill-opacity:1;fill-rule:nonzero;stroke:none"
         id="path350" /><path
         d="m 287.305,287.57 h 3.859 c 0.188,0 0.438,0 0.438,-0.25 0,-0.265 -0.235,-0.265 -0.438,-0.265 h -3.859 v -3.86 c 0,-0.187 0,-0.437 -0.25,-0.437 -0.266,0 -0.266,0.234 -0.266,0.437 v 3.86 h -3.844 c -0.203,0 -0.453,0 -0.453,0.25 0,0.265 0.235,0.265 0.453,0.265 h 3.844 v 3.844 c 0,0.203 0,0.453 0.25,0.453 0.266,0 0.266,-0.234 0.266,-0.453 z"
         style="fill:#000000;fill-opacity:1;fill-rule:nonzero;stroke:none"
         id="path352" /><path
         d="m 304.863,287.211 h -0.312 c -0.141,1.406 -0.313,3.172 -2.75,3.172 h -1.219 c -0.609,0 -0.641,-0.094 -0.641,-0.563 v -7.484 c 0,-0.5 0.032,-0.672 1.235,-0.672 h 0.422 v -0.406 c -0.407,0.031 -1.625,0.031 -2.125,0.031 -0.407,0 -1.657,0 -1.985,-0.031 v 0.406 h 0.266 c 1.016,0 1.047,0.141 1.047,0.656 v 7.407 c 0,0.515 -0.031,0.656 -1.047,0.656 h -0.266 v 0.406 h 7.016 z"
         style="fill:#000000;fill-opacity:1;fill-rule:nonzero;stroke:none"
         id="path354" /><path
         d="m 313.758,282.32 c 0,-0.515 0.047,-0.656 1.047,-0.656 h 0.281 v -0.406 c -0.328,0.031 -1.484,0.031 -1.891,0.031 -0.406,0 -1.562,0 -1.89,-0.031 v 0.406 h 0.281 c 1,0 1.047,0.141 1.047,0.656 v 3.313 h -4.172 v -3.313 c 0,-0.515 0.031,-0.656 1.047,-0.656 h 0.281 v -0.406 c -0.344,0.031 -1.484,0.031 -1.891,0.031 -0.421,0 -1.562,0 -1.89,-0.031 v 0.406 h 0.265 c 1.016,0 1.047,0.141 1.047,0.656 v 7.407 c 0,0.515 -0.031,0.656 -1.047,0.656 h -0.265 v 0.406 c 0.328,-0.031 1.469,-0.031 1.875,-0.031 0.422,0 1.562,0 1.906,0.031 v -0.406 h -0.281 c -1.016,0 -1.047,-0.141 -1.047,-0.656 v -3.704 h 4.172 v 3.704 c 0,0.515 -0.047,0.656 -1.047,0.656 h -0.281 v 0.406 c 0.328,-0.031 1.484,-0.031 1.89,-0.031 0.407,0 1.563,0 1.891,0.031 v -0.406 h -0.281 c -1,0 -1.047,-0.141 -1.047,-0.656 z"
         style="fill:#000000;fill-opacity:1;fill-rule:nonzero;stroke:none"
         id="path356" /><path
         d="m 324.762,281.289 c 0,-0.25 0,-0.328 -0.141,-0.328 -0.078,0 -0.094,0.031 -0.172,0.172 l -0.687,1.109 c -0.625,-0.781 -1.578,-1.281 -2.578,-1.281 -2.563,0 -4.766,2.203 -4.766,5.062 0,2.875 2.234,5.063 4.766,5.063 2.281,0 3.578,-2 3.578,-3.531 0,-0.157 0,-0.235 -0.157,-0.235 -0.14,0 -0.14,0.063 -0.14,0.157 -0.125,2.218 -1.75,3.203 -3.11,3.203 -0.968,0 -3.64,-0.594 -3.64,-4.657 0,-4.031 2.625,-4.656 3.625,-4.656 1.469,0 2.75,1.25 3.031,3.344 0.031,0.156 0.031,0.203 0.203,0.203 0.188,0 0.188,-0.047 0.188,-0.312 z"
         style="fill:#000000;fill-opacity:1;fill-rule:nonzero;stroke:none"
         id="path358" /><path
         d="m 327.855,281.102 -1.937,0.156 v 0.406 c 0.953,0 1.062,0.094 1.062,0.781 v 8.344 h 0.313 c 0.047,-0.109 0.437,-0.812 0.5,-0.906 0.312,0.515 0.922,1.047 1.812,1.047 1.594,0 3.016,-1.36 3.016,-3.157 0,-1.765 -1.312,-3.14 -2.859,-3.14 -0.782,0 -1.438,0.359 -1.907,0.937 z m 0.032,5.218 c 0,-0.25 0,-0.281 0.156,-0.5 0.328,-0.5 0.937,-0.906 1.625,-0.906 0.422,0 1.891,0.172 1.891,2.844 0,0.937 -0.141,1.531 -0.485,2.031 -0.265,0.422 -0.828,0.859 -1.531,0.859 -0.75,0 -1.234,-0.484 -1.469,-0.859 -0.187,-0.297 -0.187,-0.359 -0.187,-0.594 z"
         style="fill:#000000;fill-opacity:1;fill-rule:nonzero;stroke:none"
         id="path360" /><path
         d="m 345.125,281.742 c 0.109,-0.172 0.109,-0.187 0.109,-0.281 0,-0.203 -0.078,-0.203 -0.343,-0.203 h -6.125 l -0.157,3.109 h 0.297 c 0.11,-1.578 0.532,-2.703 2.797,-2.703 h 2.235 l -5.532,8.797 c 0,0.312 0.016,0.328 0.344,0.328 h 6.328 l 0.219,-3.687 H 345 c -0.109,1.968 -0.391,3.25 -2.938,3.25 h -2.359 z"
         style="fill:#000000;fill-opacity:1;fill-rule:nonzero;stroke:none"
         id="path362" /><path
         d="m 351.559,287.57 h 3.859 c 0.187,0 0.437,0 0.437,-0.25 0,-0.265 -0.234,-0.265 -0.437,-0.265 h -3.859 v -3.86 c 0,-0.187 0,-0.437 -0.25,-0.437 -0.266,0 -0.266,0.234 -0.266,0.437 v 3.86 h -3.844 c -0.203,0 -0.453,0 -0.453,0.25 0,0.265 0.234,0.265 0.453,0.265 h 3.844 v 3.844 c 0,0.203 0,0.453 0.25,0.453 0.266,0 0.266,-0.234 0.266,-0.453 z"
         style="fill:#000000;fill-opacity:1;fill-rule:nonzero;stroke:none"
         id="path364" /><path
         d="m 361.656,285.633 c -0.156,0 -0.672,0 -0.672,0.562 0,0.344 0.235,0.578 0.563,0.578 0.328,0 0.594,-0.203 0.594,-0.609 0,-0.922 -0.985,-1.594 -2.11,-1.594 -1.64,0 -2.937,1.453 -2.937,3.203 0,1.782 1.344,3.157 2.922,3.157 1.843,0 2.265,-1.672 2.265,-1.797 0,-0.125 -0.109,-0.125 -0.14,-0.125 -0.125,0 -0.141,0.031 -0.188,0.203 -0.312,0.984 -1.062,1.406 -1.812,1.406 -0.86,0 -1.985,-0.734 -1.985,-2.859 0,-2.313 1.188,-2.891 1.891,-2.891 0.531,0 1.297,0.219 1.609,0.766 z"
         style="fill:#000000;fill-opacity:1;fill-rule:nonzero;stroke:none"
         id="path366" /></g></g></svg>
