<?xml version="1.0" encoding="UTF-8" standalone="no"?>
<!-- Created with Inkscape (http://www.inkscape.org/) -->

<svg
   version="1.1"
   id="svg2"
   xml:space="preserve"
   width="503.74927"
   height="169.63333"
   viewBox="0 0 503.74927 169.63333"
   sodipodi:docname="vfns-details.pdf"
   xmlns:inkscape="http://www.inkscape.org/namespaces/inkscape"
   xmlns:sodipodi="http://sodipodi.sourceforge.net/DTD/sodipodi-0.dtd"
   xmlns="http://www.w3.org/2000/svg"
   xmlns:svg="http://www.w3.org/2000/svg"><defs
     id="defs6"><clipPath
       clipPathUnits="userSpaceOnUse"
       id="clipPath66"><path
         d="M 0,0 H 378 V 128 H 0 Z"
         id="path64" /></clipPath><clipPath
       clipPathUnits="userSpaceOnUse"
       id="clipPath84"><path
         d="M 0,0 H 378 V 128 H 0 Z"
         id="path82" /></clipPath></defs><sodipodi:namedview
     id="namedview4"
     pagecolor="#ffffff"
     bordercolor="#666666"
     borderopacity="1.0"
     inkscape:pageshadow="2"
     inkscape:pageopacity="0.0"
     inkscape:pagecheckerboard="0" /><g
     id="g8"
     inkscape:groupmode="layer"
     inkscape:label="vfns-details"
     transform="matrix(1.3333333,0,0,1.3333333,0,3.5741666e-6)"><g
       id="g10"><g
         id="g12"><path
           d="m 0.703,86.941 0.41,0.266 0.36,0.051 0.347,0.054 0.414,0.051 0.414,0.055 0.532,0.055 h 0.468 l 0.59,0.05 h 1.59 l 0.531,0.055 0.586,0.106 0.653,0.105 0.59,0.106 0.648,0.16 0.59,0.109 0.644,0.106 0.649,0.05 0.707,0.106 0.711,0.051 0.761,0.109 0.829,0.051 1.761,0.109 0.883,-0.055 h 1.008 l 1,-0.054 h 2.351 l 1.297,-0.051 h 4.481 l 1.527,-0.055 h 1.477 l 1.527,-0.054 1.477,-0.051 1.589,-0.055 1.649,-0.051 1.648,-0.105 1.707,-0.051 1.774,-0.055 1.765,-0.109 1.762,-0.051 1.824,-0.054 1.774,-0.051 1.765,-0.055 1.829,-0.051 1.765,-0.054 1.887,-0.106 1.883,-0.055 1.883,-0.05 3.656,-0.11 1.941,-0.051 1.945,-0.105 2.122,-0.156 2.175,-0.164 2.121,-0.157 2.125,-0.16 2.055,-0.156 2.067,-0.164 2.003,-0.156 2.059,-0.106 2.121,-0.105 2.117,-0.11 2.184,-0.05 2.062,-0.106 2.122,-0.105 2.121,-0.16 2.004,-0.106 2.058,-0.16 2.063,-0.16 2.004,-0.106 2.058,-0.105 1.945,-0.16 2,-0.051 2.004,-0.055 2.067,-0.051 2.179,-0.054 h 2.176 l 2.184,-0.051 h 2.18 l 2.054,-0.055 2.184,-0.05 2.234,-0.055 2.36,-0.055 2.472,-0.105 2.531,-0.055 2.481,-0.051 h 2.527 l 2.477,-0.055 2.531,-0.05 2.649,-0.055 2.539,-0.051 2.585,-0.054 2.594,-0.051 2.653,-0.055 2.769,-0.055 2.824,-0.05 2.887,-0.055 2.773,-0.106 2.649,-0.05 2.648,-0.055 2.711,-0.051 2.707,-0.054 2.774,-0.055 h 5.238 l 2.535,-0.051 h 9.899 l 2.414,0.051 2.414,0.055 2.535,0.054 2.648,0.051 2.59,0.055 2.598,0.105 2.473,0.051 2.468,0.055 2.481,0.05 h 12.547 l 4.945,0.11 2.594,0.051 2.531,0.054 2.527,0.051 2.598,0.105 2.644,0.106 2.887,0.109 2.949,0.051 2.883,0.055 2.891,0.055 h 2.824 l 2.945,0.05 h 2.95 l 3.058,0.055 h 3.004 l 3.012,0.051 h 2.941 l 2.946,0.054 h 14.839 l 3.125,-0.054 h 5.954 l 2.828,-0.051 h 20.086 l 2.121,0.051 1.937,0.054 1.774,0.106 1.707,0.051 h 1.531 l 1.473,0.054 1.414,0.055 1.351,0.051 1.238,0.055 1.239,0.105 1.121,0.105 1.054,0.106 0.946,0.105 0.762,0.055 0.71,0.055 h 0.946 l 0.347,0.051 0.356,0.054"
           style="fill:none;stroke:#000000;stroke-width:1.41;stroke-linecap:round;stroke-linejoin:round;stroke-miterlimit:10;stroke-dasharray:none;stroke-opacity:1"
           id="path14" /></g><g
         id="g16"><path
           d="m 361.977,81.641 -0.18,0.797 v 0.847 l 0.058,0.848 v 0.898 l 0.055,0.903 v 0.796 l 0.067,0.633 0.113,0.426 0.176,0.32 v -0.691 l -0.055,-0.688 -0.121,-0.957 -0.18,-1.003 -0.293,-1.008 -0.297,-0.957 -0.347,-0.844 -0.293,-0.691 -0.184,-0.477 -0.176,-0.266 0.59,0.321 0.652,0.316 0.704,0.316 0.882,0.321 0.946,0.422 1.054,0.371 1.243,0.531 1.414,0.531 1.468,0.477 1.536,0.582 1.468,0.422 1.36,0.425 1.175,0.372 0.946,0.316 0.59,0.32 0.468,0.211 0.289,0.16 -0.289,0.317 -0.707,0.215 -1.121,0.265 -1.468,0.262 -1.708,0.32 -1.886,0.266 -2.004,0.316 -1.942,0.371 -1.769,0.426 -1.414,0.422 -1.063,0.586 -0.879,0.582 -0.652,0.637"
           style="fill:none;stroke:#000000;stroke-width:1.41;stroke-linecap:round;stroke-linejoin:round;stroke-miterlimit:10;stroke-dasharray:none;stroke-opacity:1"
           id="path18" /></g><g
         id="g20"><path
           d="m 184.191,78.777 -0.05,0.797 v 1.481 l 0.05,0.797 0.121,0.953 0.059,1.062 0.063,1.113 v 3.391 l 0.054,1.012"
           style="fill:none;stroke:#000000;stroke-width:1.41;stroke-linecap:round;stroke-linejoin:round;stroke-miterlimit:10;stroke-dasharray:none;stroke-opacity:1"
           id="path22" /></g><g
         id="g24"><path
           d="m 316.789,82.754 -0.293,-0.266 -0.234,-0.265 h -0.41 l -0.18,0.32 -0.117,0.582 v 0.316 l 0.058,0.321 0.293,0.582 0.59,0.265 0.594,0.055 h 0.469 l 0.761,-0.109 0.414,-0.367 0.239,-0.481 0.117,-0.371 0.176,-0.531 -0.063,-0.528 -0.055,-0.476 -0.175,-0.266 -0.535,-0.32 -0.29,-0.16 -0.472,-0.106 h -0.531 l -0.293,0.106 -0.532,0.531 -0.121,0.32 -0.176,0.582 -0.054,0.692 -0.063,0.316 0.239,0.477 0.531,0.371 0.469,0.16 0.531,0.051 h 1.004 l 0.293,-0.106 0.23,-0.422 0.184,-0.425 0.175,-0.637 0.055,-0.317 -0.23,-0.687 -0.184,-0.27 -0.414,-0.421 -0.523,-0.161 -0.293,-0.054 h -0.707 l -0.477,0.32 -0.351,0.586 -0.239,0.582 v 0.316 l -0.054,0.477 0.531,0.266 0.347,0.054 0.59,-0.32 0.239,-0.211 0.351,-0.266 -0.055,-0.371 -0.418,-0.316 -0.347,-0.055 -0.36,-0.051 -0.054,0.372"
           style="fill:none;stroke:#000000;stroke-width:1.41;stroke-linecap:round;stroke-linejoin:round;stroke-miterlimit:10;stroke-dasharray:none;stroke-opacity:1"
           id="path26" /></g><g
         id="g28"><path
           d="m 41.059,87.633 -0.297,-0.321 -0.176,-0.371 -0.234,-0.265 -0.414,-0.106 -0.352,0.16 -0.238,0.266 -0.063,0.367 0.301,0.321 0.293,0.054 0.297,0.106 0.523,-0.055 0.653,-0.211 0.414,-0.426 0.172,-0.316 0.058,-0.586 v -0.367 l -0.176,-0.531 -0.531,-0.372 -0.473,-0.16 -0.347,-0.05 -0.531,-0.055 -0.352,-0.051 -0.477,0.051 -0.468,0.105 -0.239,0.266 -0.468,0.637 -0.176,0.636 0.054,0.692 0.297,0.367 0.293,0.32 0.536,0.317 0.761,0.265 0.41,0.051 h 0.414 l 0.469,0.055 0.36,-0.055 0.414,-0.207 0.23,-0.215 0.234,-0.371 0.176,-0.32 0.184,-0.262 0.113,-0.32 0.117,-0.317 0.063,-0.691 v -0.367 l -0.18,-0.375 -0.176,-0.317 -0.238,-0.265 -0.469,-0.266 -0.414,-0.105 -0.468,-0.106 h -0.829 l -0.523,0.321 -0.238,0.367 -0.118,0.476 -0.058,0.637 v 0.531 l 0.113,0.582 0.184,0.637 0.347,0.531 0.293,0.422 0.477,0.375 0.352,0.211 0.414,0.105 0.468,0.106 0.77,-0.106 0.293,-0.16 0.293,-0.371 0.297,-0.367 0.117,-0.426 0.113,-0.375 -0.055,-0.367 -0.121,-0.371 -0.23,-0.211 -0.359,-0.32 -0.29,-0.106 -0.418,-0.16 -0.347,-0.055 -0.36,0.321"
           style="fill:none;stroke:#000000;stroke-width:1.41;stroke-linecap:round;stroke-linejoin:round;stroke-miterlimit:10;stroke-dasharray:none;stroke-opacity:1"
           id="path30" /></g><g
         id="g32"><path
           d="m 40.938,25.023 -0.293,-0.16 -0.415,0.106 -0.121,0.426 0.067,0.476 0.469,0.317 0.414,0.16 0.347,0.105 0.653,0.109 0.347,-0.054 0.707,-0.055 0.657,-0.316 0.289,-0.266 0.238,-0.215 0.23,-0.371 0.243,-0.367 0.117,-0.426 v -0.531 l -0.36,-0.426 -0.23,-0.211 -0.594,-0.105 -0.59,-0.051 h -0.347 l -0.36,0.051 -0.41,0.211 -0.297,0.215 -0.347,0.316 -0.176,0.266 -0.238,0.265 -0.176,0.32"
           style="fill:none;stroke:#808080;stroke-width:1.41;stroke-linecap:round;stroke-linejoin:round;stroke-miterlimit:10;stroke-dasharray:none;stroke-opacity:1"
           id="path34" /></g><g
         id="g36"><path
           d="m 47.531,23.91 h 6.723 l 0.766,0.051 h 0.761 l 0.824,0.055 h 5.364 l 0.761,0.05 h 0.883 l 0.883,0.055 H 90.77 l 1.765,0.055 h 1.828 l 1.77,0.051 h 11.133 l 2.004,0.054 h 2.121 l 2.238,0.051 2.351,0.055 h 2.36 l 2.351,0.051 h 19.973 l 2.184,0.054 h 2.175 l 2.18,0.051 h 6.418 l 2.184,0.055 h 2.297 l 2.414,0.05 2.535,0.055 h 2.527 l 2.418,0.055 h 12.313 l 2.535,0.054 h 2.414 l 2.472,0.051 h 14.493 l 2.589,0.055 2.708,0.051 2.832,0.054 h 2.945 l 2.887,0.051 2.882,0.055 h 2.95 l 3.004,0.051 h 12.25 l 3.058,0.054 3.07,0.051 3.122,0.055 3.175,0.055 h 3.481 l 3.535,0.054 h 3.711 l 3.648,0.051 3.653,0.051 h 3.648 l 3.656,0.054 3.657,0.051 h 3.531 l 3.473,0.055 h 6.597 l 3.184,0.051 h 3.234 l 3.242,0.054 3.297,0.055 3.242,0.055 3.004,0.051"
           style="fill:none;stroke:#808080;stroke-width:1.41;stroke-linecap:round;stroke-linejoin:round;stroke-miterlimit:10;stroke-dasharray:none;stroke-opacity:1"
           id="path38" /></g><g
         id="g40"><path
           d="m 311.488,22.586 -0.297,-0.16 -0.113,0.422 0.059,0.476 v 0.531 l 0.054,0.583 0.067,0.636 0.054,0.637 0.055,0.742 v 0.797 l 0.067,0.738 v 2.602 l 0.054,-0.692 v -0.687"
           style="fill:none;stroke:#808080;stroke-width:1.41;stroke-linecap:round;stroke-linejoin:round;stroke-miterlimit:10;stroke-dasharray:none;stroke-opacity:1"
           id="path42" /></g><g
         id="g44"><path
           d="m 311.367,22.266 0.238,0.265 0.415,0.371 0.414,0.266 0.351,0.262 0.293,0.215 0.293,0.16 0.238,0.211 0.536,0.422 0.64,0.265 0.301,0.16 0.406,0.266 0.238,0.211 0.356,0.16 0.41,0.105 0.473,0.106 0.351,0.16 0.41,0.16 v 0.317 l -0.117,0.32 -0.23,0.207 -0.36,0.16 -0.585,0.32 -0.239,0.211 -0.347,0.266 -0.239,0.211 -0.414,0.215 -0.469,0.211 -0.414,0.211 -0.586,0.16 -0.418,0.316 -0.41,0.215 -0.414,0.106 -0.468,0.211 -0.586,0.05 -0.473,0.055 -0.649,0.105"
           style="fill:none;stroke:#808080;stroke-width:1.41;stroke-linecap:round;stroke-linejoin:round;stroke-miterlimit:10;stroke-dasharray:none;stroke-opacity:1"
           id="path46" /></g><g
         id="g48"><path
           d="m 184.254,25.605 0.18,0.266 V 45.91 l -0.063,0.848 v 1.961 l -0.059,1.058 v 2.121 l -0.058,0.957 v 15.692 l -0.063,0.633 v 15.269"
           style="fill:none;stroke:#008000;stroke-width:2.26;stroke-linecap:round;stroke-linejoin:round;stroke-miterlimit:10;stroke-dasharray:none;stroke-opacity:1"
           id="path50" /></g><g
         id="g52"><path
           d="m 183.312,26.137 v 0"
           style="fill:none;stroke:#ff0000;stroke-width:2.26;stroke-linecap:round;stroke-linejoin:round;stroke-miterlimit:10;stroke-dasharray:none;stroke-opacity:1"
           id="path54" /></g><g
         id="g56"><path
           d="m 181.484,25.605 0.356,0.106 v 8.43 l 0.058,0.476 v 0.586 l 0.063,0.688 v 22.898 l 0.055,0.586 v 0.531 l 0.054,0.528 v 1.273 l 0.067,0.637 v 0.742 l 0.054,0.687 v 4.563 l 0.063,0.422 v 0.476 l 0.058,0.637 v 2.227 l 0.055,0.582 v 0.586 l 0.063,0.636 v 2.7 l 0.054,0.796 0.063,0.317 v 4.086"
           style="fill:none;stroke:#ff0000;stroke-width:2.26;stroke-linecap:round;stroke-linejoin:round;stroke-miterlimit:10;stroke-dasharray:none;stroke-opacity:1"
           id="path58" /></g><g
         id="g60"><g
           id="g62" /><g
           id="g76"><g
             clip-path="url(#clipPath66)"
             id="g74"><g
               id="g72"><g
                 id="g70"><path
                   d="m 160.16,39.492 -0.351,0.27 -0.239,-0.215 0.176,-0.317 0.359,-0.054 h 1.293 l 0.469,0.054 0.477,0.051 0.347,0.055 0.297,0.105 0.532,0.161 0.351,0.054 0.359,0.262 h 0.758 l 0.414,0.16 0.243,0.215 0.293,0.312 0.292,0.11 v 3.34 l -0.058,0.422 -0.063,0.48 -0.054,0.316 -0.176,0.532 -0.121,0.476 -0.059,0.317 -0.054,0.691 -0.067,0.371 -0.058,0.637 -0.055,0.422 -0.063,0.582 v 0.531 l -0.054,0.32 v 1.164 l -0.063,0.426 -0.058,0.477 v 1.855 l -0.055,0.688 -0.121,0.32 -0.113,0.477 -0.067,0.742 -0.059,0.371 v 0.898 l -0.054,0.321 v 0.586 l -0.063,0.421 -0.117,0.528 -0.176,0.636 -0.054,0.372 -0.118,0.48 -0.066,0.316 -0.059,0.477 v 0.32 l -0.054,0.477 v 1.906 l -0.063,0.426 v 0.898 l -0.117,0.375 -0.059,0.317 -0.292,0.105 h -1.59 l -0.356,0.106 h -0.351 l -0.535,0.105 -0.411,0.106 h -3.882 l -0.59,0.16 -0.77,0.32 -0.351,0.156 -0.414,0.055 -0.825,0.266 -0.414,0.105 -0.347,0.16 -0.536,0.16 -0.824,0.211 -0.523,0.157 -0.418,0.109 -0.528,0.156 -0.359,0.106 -0.348,0.105 -0.589,0.106 -0.469,0.054 h -0.707 l -0.414,0.055 -0.707,0.055 h -1.653 l -0.351,-0.055 h -1.063 l -0.414,-0.055 h -0.347 l -0.36,-0.054 -0.41,-0.051 -0.352,-0.055 -0.535,-0.105 -0.347,-0.106 -0.532,-0.105 -0.468,-0.16 -0.414,-0.106 -0.532,-0.105 -0.414,-0.157 -0.293,-0.109 -0.468,-0.105 -0.411,-0.106 -0.472,-0.055 -0.477,-0.105 -0.469,-0.051 -0.468,-0.054 -0.532,-0.051 -0.589,-0.11 -0.946,-0.054 h -0.531 l -0.527,-0.051 h -0.946 l -0.41,-0.051 -0.347,-0.055 h -4.125 l -0.946,0.106 -0.527,0.105 -0.594,0.055 -0.762,0.106 -0.71,0.105 -0.649,0.105 -0.644,0.161 -1.415,0.32 -0.707,0.105 -0.707,0.157 -0.652,0.16 -0.707,0.105 -0.641,0.16 -0.652,0.157 -0.707,0.109 -0.59,0.106 -0.527,0.105 -0.527,0.055 -0.473,0.05 -0.531,0.106 -0.414,0.055 h -0.469 l -0.477,0.054 h -0.469 l -0.531,0.051 -0.469,0.055 -0.468,0.051 -0.36,0.054 H 93.363 l -0.468,0.051 h -0.59 l -0.477,0.055 h -0.523 l -0.477,0.051 h -0.523 l -0.477,0.054 -0.527,0.051 h -0.477 l -0.523,0.055 H 87.18 l -0.532,0.054 h -0.531 l -0.527,0.055 h -0.414 l -0.473,0.051 -0.297,0.054 -0.41,0.051 -0.297,0.055 h -0.41 l -0.824,0.051 -0.356,0.054 h -0.41 l -0.414,0.051 h -0.82 l -0.293,0.055 -0.36,0.051 -0.347,0.054 -0.653,0.11 -0.531,0.051 -0.351,0.05 -0.586,0.055 -0.532,0.051 H 76.16 l -0.348,0.054 h -0.351 l -0.707,0.106 -0.707,0.109 -0.531,0.106 h -0.477 l -0.883,0.051 h -0.59 l -0.41,0.054 -0.59,0.051 h -5.363 l -1.055,0.106 h -1.472 l -0.41,0.054 -1.121,0.16 -0.766,0.106 -0.707,0.054 -0.531,0.051 -0.532,0.106 -0.468,0.051 -0.36,0.054 h -0.469 l -0.468,0.106 -0.653,0.109 -0.351,-0.055 -0.41,-0.105 -0.293,-0.109 -0.36,-0.106 -0.23,-0.207 -0.235,-0.269 -0.124,-0.477 V 69.82 l 0.066,-0.371 0.293,-1.328 0.113,-0.476 0.184,-0.528 0.054,-0.426 0.122,-0.48 0.054,-0.477 0.117,-0.582 0.121,-0.531 0.118,-0.582 0.121,-0.477 0.054,-0.421 0.122,-0.375 0.171,-0.582 0.063,-0.372 0.176,-0.636 0.175,-0.582 0.055,-0.477 0.238,-0.742 0.059,-0.426 0.063,-0.316 0.054,-0.371 v -0.317 l 0.117,-0.476 0.063,-0.321 0.113,-0.586 v -7.683 l 0.063,-0.531 0.058,-0.477 v -4.082 l -0.058,-0.477 -0.063,-0.32 -0.054,-0.422 -0.059,-0.425 -0.063,-0.372 -0.117,-0.316 -0.054,-0.32 -0.122,-0.477 -0.117,-0.316 -0.468,-0.532 -0.293,-0.21 0.293,0.265 0.414,0.156 0.464,0.27 0.536,0.207 0.586,0.32 0.292,0.106 0.473,0.16 0.649,0.211 0.468,0.215 0.293,0.156 0.414,0.105 0.59,0.215 0.36,0.051 0.293,0.106 0.347,0.105 0.297,0.105 0.477,0.11 0.41,0.055 0.586,0.261 0.648,0.16 0.77,0.211 0.468,0.211 0.293,0.106 0.469,0.16 0.297,0.109 0.356,0.106 0.414,0.105 0.351,0.051 0.527,0.055 0.536,0.05 0.41,0.055 0.644,0.106 0.356,0.105 0.297,0.055 0.531,0.105 0.406,0.106 0.594,0.16 0.523,0.105 0.418,0.106 0.649,0.211 0.351,0.109 0.946,0.211 0.523,0.051 0.359,0.105 0.532,0.055 0.586,0.055 0.589,0.05 h 12.543 l 0.711,-0.05 h 0.707 L 92.48,45.75 h 0.649 l 0.707,-0.055 h 0.644 l 0.708,-0.05 h 0.71 l 0.649,-0.055 0.707,-0.051 0.707,-0.055 h 0.766 l 0.757,-0.05 h 4.305 l 0.707,-0.055 h 9.367 l 0.586,0.055 h 0.707 l 0.707,0.05 0.707,0.055 0.707,0.051 0.77,0.055 0.707,0.05 1.644,0.11 0.829,0.05 0.761,0.055 0.824,0.055 0.766,0.051 0.774,0.054 0.761,0.051 h 0.707 l 0.707,0.055 h 0.703 l 0.774,0.051 h 1.351 l 0.649,0.054 0.59,0.051 0.586,0.109 h 0.59 l 0.585,0.051 h 0.59 l 0.59,0.055 h 0.527 l 0.59,0.051 h 3.895 l 0.762,0.054 0.351,0.051 h 2.774 l 0.414,-0.051 0.41,-0.054 0.351,-0.266 0.586,-0.527 0.36,-0.371 0.293,-0.266 0.414,-0.531 0.23,-0.371 0.293,-0.422 0.238,-0.481 0.176,-0.261 0.239,-0.372 0.238,-0.265 0.176,-0.266 0.171,-0.371 0.063,-0.316 -0.356,-0.215 -0.292,-0.055 -0.293,-0.105 0.117,-0.367 0.234,-0.215 0.293,-0.106 -0.293,-0.105 -0.711,-0.106 -0.707,-0.054 -0.469,-0.055 h -0.824 l -0.473,-0.051 -0.824,-0.055 h -0.527 l -0.707,-0.05 h -3.774 l -0.531,-0.055 h -2.179 l -0.641,0.105 -0.477,0.055 h -0.41 l -0.648,0.051 -0.473,0.055 -0.707,0.16 -0.352,0.051 -0.414,0.054 -0.824,0.106 -0.414,0.05 -0.348,0.11 -0.535,0.055 -0.707,0.05 h -0.707 l -0.347,0.055 h -0.36 l -0.41,0.051 h -5.945 l -0.653,-0.051 h -0.824 l -0.351,-0.055 h -0.356 l -0.351,-0.05 -0.477,-0.055 -0.351,-0.055 h -1.586 l -0.59,-0.055 h -0.473 l -0.473,-0.05 h -1.175 l -0.356,-0.055 -0.59,-0.051 h -4.769 l -0.766,0.051 -0.707,0.055 h -0.824 l -0.82,0.05 -0.481,0.055 h -0.816 l -0.707,0.055 -0.828,0.055 H 91.773 L 91.008,40.715 H 90.48 L 89.77,40.66 h -1.239 l -0.41,-0.055 h -0.883 l -0.711,-0.05 H 85.703 L 85.234,40.5 H 84.82 l -0.351,-0.051 h -6.305 l -0.41,0.051 -0.41,0.055 h -0.36 l -0.347,0.05 -0.297,0.055 h -0.594 l -0.285,0.11 -0.356,0.05 -0.417,0.055 h -1.122 l -0.464,0.051 -0.414,0.054 h -8.719 l -0.059,0.477 v 2.438 l 0.059,0.796 0.058,0.848 0.121,0.848 0.118,0.742 0.117,0.637 0.297,0.793 0.23,0.371 0.477,0.531 0.117,0.316 0.527,-0.05"
                   style="fill:none;stroke:#8bc0ff;stroke-width:30;stroke-linecap:round;stroke-linejoin:round;stroke-miterlimit:10;stroke-dasharray:none;stroke-opacity:0.329412"
                   id="path68" /></g></g></g></g></g><g
         id="g78"><g
           id="g80" /><g
           id="g94"><g
             clip-path="url(#clipPath84)"
             id="g92"><g
               id="g90"><g
                 id="g88"><path
                   d="m 204.051,42.676 -0.297,0.156 -0.356,-0.262 -0.238,-0.215 -0.293,-0.21 -0.23,-0.211 -0.36,-0.215 -0.297,-0.207 -0.171,-0.321 -0.293,-0.476 -0.118,-0.32 -0.058,-0.317 0.469,0.16 0.531,0.211 0.297,0.106 0.523,0.32 0.36,0.211 0.292,0.105 0.469,0.106 0.293,0.109 0.531,0.156 0.532,0.106 0.527,0.051 0.301,0.054 0.586,0.055 h 0.941 l 0.356,0.051 0.347,0.055 0.297,0.054 h 0.36 l 0.464,0.051 0.707,0.055 0.473,0.051 h 0.942 l 0.652,0.054 0.644,0.051 0.356,0.055 0.527,0.05 0.653,0.055 0.585,0.055 h 0.883 l 0.297,0.055 0.41,0.05 h 6.008 l 0.586,-0.05 0.477,-0.055 0.468,-0.11 h 0.477 l 0.406,-0.05 0.297,-0.055 0.648,-0.051 0.293,-0.054 0.59,-0.051 0.293,-0.055 0.477,-0.051 1.414,-0.109 0.351,-0.051 0.469,-0.055 h 0.477 l 0.469,-0.054 0.644,-0.051 0.531,-0.055 0.649,-0.051 0.527,-0.105 0.594,-0.051 h 0.59 l 0.644,-0.054 h 1.18 l 0.644,-0.055 0.536,-0.055 h 0.586 l 0.589,-0.051 h 1.063 l 0.406,-0.054 0.531,-0.051 0.829,-0.16 0.878,-0.051 0.653,-0.055 h 1.941 l 0.473,-0.05 h 1.472 l 1.059,-0.055 h 0.477 l 0.531,-0.055 h 8.129 l 0.41,0.055 0.297,0.055 0.703,0.05 0.644,0.055 h 0.766 l 0.359,0.051 h 0.411 l 0.414,0.054 h 3.765 l 0.883,0.106 0.707,0.051 0.594,0.054 h 6.769 l 0.473,0.051 1,0.055 h 4.242 l 0.414,-0.055 h 1.356 l 0.765,-0.051 h 0.707 l 0.649,-0.054 h 0.766 l 0.707,-0.051 h 3.535 l 0.64,-0.055 h 1.657 l 0.527,0.055 0.594,0.105 0.347,0.161 0.36,0.105 0.293,0.105 h 2.175 l 0.293,0.106 h 1.415 l 0.359,-0.055 0.351,-0.101 0.414,-0.16 0.348,-0.161 0.36,-0.054 0.347,-0.051 0.36,0.051 0.171,0.375 v 2.754 l -0.058,0.531 v 3.867 l 0.058,0.32 0.063,0.688 -0.063,0.637 v 1.804 l -0.058,0.528 v 0.476 l -0.059,0.531 v 0.477 l -0.054,0.32 -0.067,0.477 v 0.316 l -0.055,0.532 -0.054,0.425 v 3.231 l -0.067,0.48 v 0.371 l -0.054,0.317 v 0.32 l -0.063,0.582 v 0.316 l -0.055,0.372 -0.058,0.476 v 0.32 l -0.063,0.372 v 0.847 l -0.058,0.317 v 1.113 l -0.059,0.375 v 1.695 l -0.054,0.317 -0.067,0.32 0.531,0.156 0.356,-0.051 0.351,-0.054 0.36,0.054 0.23,0.211 0.356,0.16 0.297,0.157 0.296,0.211 0.29,0.164 -0.415,0.105 h -1.054 l -0.477,-0.054 -0.644,-0.051 -0.297,-0.055 -0.528,-0.109 -0.417,-0.051 -0.348,-0.055 -0.41,-0.051 h -0.414 l -0.297,-0.054 -0.531,-0.051 -0.293,-0.055 -0.59,-0.105 -0.293,-0.106 -0.653,-0.16 -0.41,-0.105 -0.347,-0.106 -0.657,-0.051 -0.347,-0.054 -0.36,-0.055 -0.41,-0.051 h -4.355 l -0.411,-0.054 -0.296,-0.055 -0.411,-0.106 -0.472,-0.105 -0.36,-0.051 -0.293,-0.054 -0.414,-0.161 -0.347,-0.054 -0.531,-0.102 -0.352,-0.105 -0.356,-0.055 -0.351,-0.051 -0.356,-0.055 -0.765,0.055 -0.531,0.106 -0.532,0.207 -0.707,0.215 -0.644,0.21 -0.77,0.321 -0.762,0.211 -0.828,0.211 -0.882,0.371 -0.825,0.211 -0.879,0.32 -0.769,0.32 -0.77,0.262 -0.761,0.266 -0.828,0.16 -0.825,0.211 -0.707,0.105 -0.761,0.16 -1.18,0.211 -0.473,0.106 -0.527,0.105 -0.649,0.11 -0.945,0.054 -0.406,0.051 -0.711,0.055 h -0.824 l -0.41,-0.055 -0.473,-0.051 -0.414,-0.054 -0.527,-0.161 -0.297,-0.054 -0.356,-0.106 -0.644,-0.156 -0.36,-0.055 -0.586,-0.16 -0.414,-0.051 -0.59,-0.16 -0.531,-0.051 -0.406,-0.105 -0.41,-0.055 -0.36,-0.109 -0.41,-0.105 -0.707,-0.157 -0.351,-0.054 -0.414,-0.051 -0.414,-0.106 -0.352,-0.054 -0.531,-0.106 -0.41,-0.055 -0.707,-0.105 -0.469,-0.051 -0.36,-0.105 -0.464,-0.055 -0.473,-0.109 -0.477,-0.051 -0.468,-0.106 -0.469,-0.054 -0.356,-0.051 h -0.351 l -0.707,-0.106 -0.477,-0.054 -0.82,-0.106 -0.414,-0.054 h -0.41 l -0.477,-0.106 -0.348,-0.051 h -0.472 l -0.707,-0.105 h -0.41 l -0.414,-0.055 -0.883,-0.051 -0.946,-0.054 -0.586,-0.055 -0.945,-0.051 h -0.937 l -0.657,-0.054 h -1 l -0.527,-0.055 -0.59,-0.051 h -0.59 l -0.644,-0.055 -0.594,-0.05 h -0.59 l -0.586,-0.055 -0.59,-0.051 h -0.585 l -0.536,-0.054 h -2.293 l -0.828,-0.051 -0.527,-0.055 -0.77,-0.055 -0.644,-0.054 h -0.41 l -0.36,-0.051 -0.586,-0.051 -0.882,-0.055 h -0.586 l -0.59,-0.05 h -1.414 l -0.356,-0.055 h -6.183 l -0.77,0.055 -0.527,0.05 h -1.707 l -0.707,0.055 -0.77,0.051 h -2.234 l -0.356,0.051 -0.297,0.054 h -2.585 l -0.297,-0.054 -0.293,-0.102 -0.293,-0.105 -0.36,-0.215 -0.296,-0.211 -0.348,-0.106 -0.235,-0.211 -0.296,-0.269 -0.239,-0.313 -0.297,-0.375 -0.113,-0.371 -0.18,-0.261 -0.054,-0.321 -0.063,-0.531 v -1.168 l 0.117,-0.316 v -0.317 l 0.122,-0.316 0.117,-0.426 v -0.848 l 0.054,-0.425 0.067,-0.371 v -3.34 l -0.121,-0.426 V 55.77 l -0.117,-0.426 -0.063,-0.317 v -8.851 l 0.121,0.527 0.059,0.32 0.179,0.582 0.055,0.692 0.117,0.633 0.063,0.371 0.055,0.32 0.121,0.688 0.058,0.32 0.063,0.531 0.175,0.582 0.118,0.422 0.117,0.531 v 0.903 l 0.058,0.371 v 0.316 l 0.172,0.637 0.118,0.527 0.066,0.375 v 1.164 l 0.058,0.426 0.055,0.316 v 1.965 l 0.117,0.582 0.121,0.422 v 4.879 l 0.118,0.531 0.121,0.317 0.054,0.476 0.055,0.371 0.184,0.266 0.293,0.266 0.297,0.156 0.293,0.109 0.414,0.106 0.293,0.105 0.293,0.055 0.351,0.105 0.473,0.106 h 5.945 l 0.477,-0.055 h 1 l 0.589,-0.051 h 1.653 l 0.586,-0.054 h 0.468 l 0.653,-0.051 0.937,-0.055 1.004,-0.051 1.063,-0.054 h 0.707 l 0.527,-0.055 0.649,-0.051 0.531,-0.054 h 1.887"
                   style="fill:none;stroke:#8bc0ff;stroke-width:30;stroke-linecap:round;stroke-linejoin:round;stroke-miterlimit:10;stroke-dasharray:none;stroke-opacity:0.329412"
                   id="path86" /></g></g></g></g></g><g
         id="g96"><path
           d="m 86.426,51.609 -0.305,0.11 v -0.324 l 0.121,-0.696 0.238,-0.324 0.247,-0.27 0.351,-0.375 0.418,-0.265 0.359,-0.274 0.54,-0.265 0.539,-0.164 0.535,-0.16 0.593,-0.106 0.418,-0.055 h 1.012 l 0.485,0.11 0.535,0.211 0.355,0.379 0.297,0.429 0.242,0.485 0.184,0.429 0.113,0.375 0.063,0.375 0.058,0.321 -0.058,0.379 -0.243,0.429 -0.238,0.321 -0.301,0.378 -0.351,0.215 -0.238,0.215 -0.297,0.106 0.472,0.054 h 0.66 l 0.473,0.051 0.481,0.109 0.472,0.055 0.481,0.106 0.355,0.054 0.418,0.106 0.418,0.215 0.36,0.273 0.363,0.317 0.234,0.378 0.184,0.27 0.117,0.43 0.117,0.32 0.063,0.375 0.117,0.379 -0.117,0.59 -0.243,0.215 -0.359,0.269 -0.535,0.32 -0.652,0.325 -0.661,0.32 -1.429,0.75 -0.657,0.324 -0.66,0.215 -0.593,0.215 -0.598,0.109 -0.418,0.106 -0.356,0.054 h -0.417 l -0.54,-0.054 -0.418,-0.106 -0.363,-0.269 -0.351,-0.379 -0.243,-0.317 v -0.324"
           style="fill:none;stroke:#62a0ea;stroke-width:0.85;stroke-linecap:round;stroke-linejoin:round;stroke-miterlimit:10;stroke-dasharray:none;stroke-opacity:1"
           id="path98" /></g><g
         id="g100"><path
           d="m 104.445,49.465 -0.175,0.426 -0.059,0.644 -0.117,0.86 -0.067,0.914 -0.054,0.914 v 0.91 l -0.067,0.969 -0.054,0.914 -0.063,0.859 -0.059,0.805 -0.058,0.644 -0.063,0.75 v 0.703 -1.613 l 0.063,-0.648"
           style="fill:none;stroke:#62a0ea;stroke-width:0.85;stroke-linecap:round;stroke-linejoin:round;stroke-miterlimit:10;stroke-dasharray:none;stroke-opacity:1"
           id="path102" /></g><g
         id="g104"><path
           d="m 103.906,49.25 -0.297,-0.164 0.364,-0.27 0.414,-0.054 0.593,-0.051 0.485,-0.055 0.648,-0.105 0.606,-0.055 0.593,-0.109 0.594,-0.051 0.598,-0.055 0.601,-0.054 h 0.536 l 0.593,-0.055 h 1.496 l -0.418,0.215 -0.476,0.215"
           style="fill:none;stroke:#62a0ea;stroke-width:0.85;stroke-linecap:round;stroke-linejoin:round;stroke-miterlimit:10;stroke-dasharray:none;stroke-opacity:1"
           id="path106" /></g><g
         id="g108"><path
           d="m 104.094,53.223 h -0.364 l 0.364,0.429 0.414,0.16 0.597,0.215 0.594,0.161 0.535,0.109 0.539,0.051 0.539,0.054 h 2.868 l 0.054,-0.375"
           style="fill:none;stroke:#62a0ea;stroke-width:0.85;stroke-linecap:round;stroke-linejoin:round;stroke-miterlimit:10;stroke-dasharray:none;stroke-opacity:1"
           id="path110" /></g><g
         id="g112"><path
           d="m 111.902,50.215 0.243,-0.215 0.238,-0.27 0.121,-0.375 -0.063,0.536 v 0.593 l -0.058,0.696 -0.059,0.754 -0.179,0.75 -0.122,0.859 -0.175,0.805 -0.118,0.863 -0.179,0.859 -0.121,0.805 -0.118,0.699 -0.124,0.481 -0.118,0.429 -0.121,0.43 0.297,0.215 0.723,0.055 0.472,0.054 0.539,0.051 0.598,0.055 0.535,0.054 h 2.032 l 0.417,0.055 0.297,0.051 0.297,0.055 0.305,0.054 -0.481,0.055 -0.418,-0.109"
           style="fill:none;stroke:#62a0ea;stroke-width:0.85;stroke-linecap:round;stroke-linejoin:round;stroke-miterlimit:10;stroke-dasharray:none;stroke-opacity:1"
           id="path114" /></g><g
         id="g116"><path
           d="m 233.289,50.535 0.063,-0.375 v -0.32 11.222 l -0.243,-0.48"
           style="fill:none;stroke:#62a0ea;stroke-width:0.85;stroke-linecap:round;stroke-linejoin:round;stroke-miterlimit:10;stroke-dasharray:none;stroke-opacity:1"
           id="path118" /></g><g
         id="g120"><path
           d="m 233.289,51.074 -0.355,0.266 -0.297,0.324 -0.422,0.379 -0.18,0.266 -0.418,0.484 -0.472,0.484 -0.418,0.59 -0.598,0.695 -0.539,0.594 -0.36,0.43 -0.418,0.484 -0.359,0.375 -0.297,0.266 -0.301,0.43 -0.293,0.214 -0.296,0.325 0.414,0.05 0.418,0.059 0.422,0.051 0.414,0.055 0.593,0.054 0.485,0.055 0.472,0.051 0.954,0.054 h 0.539 l 0.476,0.055 h 0.656 l 0.539,0.055 0.536,-0.055 h 1.254 l 0.359,-0.055 h 0.418 l 0.418,-0.054"
           style="fill:none;stroke:#62a0ea;stroke-width:0.85;stroke-linecap:round;stroke-linejoin:round;stroke-miterlimit:10;stroke-dasharray:none;stroke-opacity:1"
           id="path122" /></g><g
         id="g124"><path
           d="m 239.91,51.555 0.242,0.648 0.118,0.535 0.058,0.645 v 0.805 l 0.067,0.859 v 6.23 l 0.171,0.325 0.18,-0.379 v -0.965"
           style="fill:none;stroke:#62a0ea;stroke-width:0.85;stroke-linecap:round;stroke-linejoin:round;stroke-miterlimit:10;stroke-dasharray:none;stroke-opacity:1"
           id="path126" /></g><g
         id="g128"><path
           d="m 239.438,52.094 0.359,0.109 h 0.891 l 0.476,-0.055 0.656,-0.105 0.602,-0.109 0.598,-0.055 0.593,-0.109 0.535,-0.051 h 2.989 l -0.539,0.375"
           style="fill:none;stroke:#62a0ea;stroke-width:0.85;stroke-linecap:round;stroke-linejoin:round;stroke-miterlimit:10;stroke-dasharray:none;stroke-opacity:1"
           id="path130" /></g><g
         id="g132"><path
           d="m 237.648,58.324 0.536,0.11 0.476,0.05 0.652,0.055 h 5.915 l -0.122,-0.43"
           style="fill:none;stroke:#62a0ea;stroke-width:0.85;stroke-linecap:round;stroke-linejoin:round;stroke-miterlimit:10;stroke-dasharray:none;stroke-opacity:1"
           id="path134" /></g><g
         id="g136"><path
           d="m 248.508,51.129 0.054,0.426 0.067,0.539 v 1.664 l -0.067,0.644 -0.054,0.7 -0.063,0.644 -0.175,0.75 -0.18,0.703 -0.117,0.696 -0.121,0.75 -0.122,0.644 -0.058,0.645 -0.117,0.433 -0.063,0.321 -0.058,0.374 0.418,0.055 0.359,0.055 0.531,0.051 h 0.539 l 0.535,-0.051 h 3.047 l 0.657,0.105 0.476,0.055 0.539,0.106 0.414,0.054 0.481,0.11 -0.657,0.105 -0.714,0.16"
           style="fill:none;stroke:#62a0ea;stroke-width:0.85;stroke-linecap:round;stroke-linejoin:round;stroke-miterlimit:10;stroke-dasharray:none;stroke-opacity:1"
           id="path138" /></g><g
         id="g140"><path
           d="m 146.105,100.055 h 0.356 l 0.418,-0.16 0.355,-0.055 h 2.207 l 0.598,-0.055 h 0.656 l 1.371,-0.105 1.317,-0.11 0.652,-0.05 0.656,-0.055 0.664,-0.055 0.774,-0.055 0.719,-0.05 0.769,-0.055 0.836,-0.109 0.899,-0.051 0.836,-0.055 0.953,-0.055 0.836,-0.054 0.777,-0.051 0.769,-0.055 0.719,-0.109 0.719,-0.106 0.535,-0.105 0.535,-0.055 0.418,-0.054 h 4.063 l 0.418,-0.055 h 0.418 l 0.351,-0.106 0.363,-0.109 h 0.352"
           style="fill:none;stroke:#f66151;stroke-width:0.84975;stroke-linecap:round;stroke-linejoin:round;stroke-miterlimit:10;stroke-dasharray:none;stroke-opacity:1"
           id="path142" /></g><g
         id="g144"><path
           d="m 174.027,97.477 -0.355,0.16 -0.238,0.269 -0.243,0.215 0.364,-0.215 0.351,-0.215 0.485,-0.375 0.355,-0.375 0.359,-0.379 0.36,-0.32 0.234,-0.32 0.36,-0.27 0.355,-0.269 0.305,-0.27 0.351,-0.16 0.422,-0.375 0.293,-0.215 0.305,-0.164 0.121,0.324 v 3.223 l -0.063,0.43 V 98.5"
           style="fill:none;stroke:#f66151;stroke-width:0.84975;stroke-linecap:round;stroke-linejoin:round;stroke-miterlimit:10;stroke-dasharray:none;stroke-opacity:1"
           id="path146" /></g><g
         id="g148"><path
           d="m 178.508,98.711 0.297,0.164 0.3,0.051 0.657,-0.051 h 0.355 l 0.481,-0.055 h 0.714 l 0.594,-0.054 h 0.899 l 0.773,-0.055 h 0.777 l 0.833,-0.051 h 0.781 l 0.832,-0.055 0.84,-0.105 0.832,-0.109 0.773,-0.106 0.719,-0.109 0.539,-0.055 0.598,-0.109 0.418,-0.051 0.472,-0.106 0.414,-0.058 0.539,-0.106 0.602,-0.054 0.418,-0.055 0.594,-0.051 h 1.132 l -0.472,0.16"
           style="fill:none;stroke:#f66151;stroke-width:0.84975;stroke-linecap:round;stroke-linejoin:round;stroke-miterlimit:10;stroke-dasharray:none;stroke-opacity:1"
           id="path150" /></g><g
         id="g152"><path
           d="m 148.664,109.023 0.121,0.325 0.117,-0.325 0.418,-0.109 0.422,-0.051 0.598,-0.105 h 1.672 l 0.418,0.051 0.418,0.164 0.297,0.16 0.296,0.535 -0.058,0.484 -0.063,0.321 -0.234,0.269 -0.359,0.375 -0.418,0.27 -0.832,0.324 -0.301,0.055 -0.297,0.05 -0.359,0.11 0.418,0.105 0.296,0.055 0.481,0.109 0.473,0.16 0.898,0.215 0.715,0.266 0.418,0.269 0.418,0.59 0.297,0.594 0.058,0.375 -0.18,0.375 -0.71,0.324 -0.54,0.321 -0.359,0.214 -0.598,0.215 -0.539,0.27 -0.539,0.16 -0.648,0.215 -0.602,0.054 -0.593,0.051 h -1.196 l -0.539,-0.105 -0.836,-0.27 -0.472,-0.375 -0.297,-0.16 0.351,-0.16"
           style="fill:none;stroke:#f66151;stroke-width:0.84975;stroke-linecap:round;stroke-linejoin:round;stroke-miterlimit:10;stroke-dasharray:none;stroke-opacity:1"
           id="path154" /></g><g
         id="g156"><path
           d="m 160.242,112.141 h -0.355 l 0.418,0.054 h 0.472 l 0.661,0.051 0.66,-0.051 h 0.836 l 0.769,-0.054 0.836,-0.11 0.899,-0.16 0.777,-0.105 0.773,-0.11 0.715,-0.105 h 1.676 l -0.305,0.051"
           style="fill:none;stroke:#f66151;stroke-width:0.84975;stroke-linecap:round;stroke-linejoin:round;stroke-miterlimit:10;stroke-dasharray:none;stroke-opacity:1"
           id="path158" /></g><g
         id="g160"><path
           d="m 169.195,111.551 0.243,0.375 0.117,0.375 0.179,0.484 -0.242,-0.43 -0.18,-0.324 -0.175,-0.375 -0.176,-0.379 -0.184,-0.48 -0.054,-0.375 0.351,-0.11 h 0.781 l 0.36,0.055 0.473,0.106 0.476,0.054 0.602,0.11 0.535,0.051 0.652,0.214 0.602,0.16 0.593,0.215 0.661,0.274 0.418,0.215 0.535,0.16 0.355,0.16 0.481,0.055 0.297,0.16 -0.36,0.16 -0.355,0.109 -0.953,0.43 -1.321,0.32 h -0.715 l -0.589,0.055 h -0.598 l -0.418,0.055 -0.422,0.05 -0.355,0.055 -0.36,0.106 -0.301,0.214"
           style="fill:none;stroke:#f66151;stroke-width:0.84975;stroke-linecap:round;stroke-linejoin:round;stroke-miterlimit:10;stroke-dasharray:none;stroke-opacity:1"
           id="path162" /></g><g
         id="g164"><path
           d="m 187.812,109.562 0.18,0.645 0.121,0.535 0.117,0.645 0.18,0.644 0.184,0.699 0.117,0.75 0.117,0.754 0.117,0.645 0.067,0.484 v 0.375 l 0.054,0.375 -0.238,-0.32 -0.18,-0.324 -0.238,-0.535 -0.121,-0.539 -0.176,-0.59"
           style="fill:none;stroke:#f66151;stroke-width:0.84975;stroke-linecap:round;stroke-linejoin:round;stroke-miterlimit:10;stroke-dasharray:none;stroke-opacity:1"
           id="path166" /></g><g
         id="g168"><path
           d="m 187.758,107.734 -0.117,0.485 -0.18,0.375 -0.238,0.32 -0.243,0.379 -0.296,0.269 -0.364,0.321 -0.234,0.324 -0.356,0.375 -0.3,0.43 -0.242,0.324 -0.239,0.43 -0.179,0.265 -0.176,0.27 -0.117,0.32 -0.243,0.539 -0.058,0.43 0.058,0.43 0.481,0.05 h 0.473 l 0.417,0.059 h 4.594 l 0.363,-0.059 h 0.352 l -0.293,-0.05"
           style="fill:none;stroke:#f66151;stroke-width:0.84975;stroke-linecap:round;stroke-linejoin:round;stroke-miterlimit:10;stroke-dasharray:none;stroke-opacity:1"
           id="path170" /></g><g
         id="g172"><path
           d="M 199.098,112.516 198.977,113 v 0.43 l 0.054,0.535 0.067,0.484 0.054,0.485 0.063,0.375 0.121,0.429 0.18,0.27 0.296,-0.699 0.176,-0.325 0.176,-0.32 0.305,-0.43 0.234,-0.324 0.305,-0.43 0.176,-0.265 0.238,-0.215 0.301,-0.215 0.351,-0.109 0.305,0.429 0.18,0.645 0.117,0.645 0.058,0.324 0.063,0.429 0.473,0.051 0.539,-0.426 0.355,-0.324 0.238,-0.32 0.364,-0.274 0.355,-0.265 0.301,-0.11 0.652,0.055 0.238,0.485 0.126,0.484 0.117,0.59 0.3,0.215"
           style="fill:none;stroke:#f66151;stroke-width:0.84975;stroke-linecap:round;stroke-linejoin:round;stroke-miterlimit:10;stroke-dasharray:none;stroke-opacity:1"
           id="path174" /></g><g
         id="g176"><path
           d="m 209.301,113.375 -0.121,0.375 -0.176,0.484 -0.066,0.325 0.066,0.425 0.234,0.43 0.297,0.215 0.305,0.109 0.472,0.055 h 0.958 l 0.242,-0.215 0.234,-0.215 0.18,-0.324 0.355,-0.59 0.063,-0.32 v -0.324 l -0.117,-0.325 -0.539,-0.48 -0.477,-0.215 -0.301,-0.164 -0.238,0.484 0.238,0.86 0.18,0.539 0.355,0.375 0.301,0.375 0.414,0.324 0.36,0.215 0.484,0.215 0.769,0.16 0.418,0.051 0.661,0.109"
           style="fill:none;stroke:#f66151;stroke-width:0.84975;stroke-linecap:round;stroke-linejoin:round;stroke-miterlimit:10;stroke-dasharray:none;stroke-opacity:1"
           id="path178" /></g><g
         id="g180"><path
           d="m 217.297,107.844 v 1.07 l 0.058,0.754 0.122,0.699 0.121,0.645 0.117,0.644 0.121,0.645 0.18,0.59 0.238,0.589 0.176,0.54 0.175,0.429 0.125,0.324 -0.179,0.375 -0.535,0.051"
           style="fill:none;stroke:#f66151;stroke-width:0.84975;stroke-linecap:round;stroke-linejoin:round;stroke-miterlimit:10;stroke-dasharray:none;stroke-opacity:1"
           id="path182" /></g><g
         id="g184"><path
           d="m 214.906,112.57 0.535,-0.054 0.598,-0.055 0.723,-0.055 1.426,-0.211 0.718,-0.054 0.602,-0.055 h 0.652 l 0.414,0.055 0.364,0.054 0.296,0.051 0.418,0.109"
           style="fill:none;stroke:#f66151;stroke-width:0.84975;stroke-linecap:round;stroke-linejoin:round;stroke-miterlimit:10;stroke-dasharray:none;stroke-opacity:1"
           id="path186" /></g><g
         id="g188"><path
           d="m 224.453,113.805 h -0.414 l -0.301,0.105 -0.234,0.219 -0.301,0.266 -0.18,0.324 -0.175,0.429 -0.184,0.375 -0.113,0.43 -0.063,0.375 0.176,0.535 0.238,0.325 0.418,0.16 0.418,0.214 0.481,0.055 0.593,0.055 h 0.364 l 0.594,-0.055 0.539,-0.215 0.418,-0.32 0.656,-0.484 0.418,-0.59 0.418,-0.645 0.351,-0.699 0.242,-0.754 0.243,-0.859"
           style="fill:none;stroke:#f66151;stroke-width:0.84975;stroke-linecap:round;stroke-linejoin:round;stroke-miterlimit:10;stroke-dasharray:none;stroke-opacity:1"
           id="path190" /></g><g
         id="g192"><path
           d="m 229.23,106.285 v -0.324 l -0.121,0.539 -0.054,0.59 v 0.859 l 0.054,0.86 0.063,0.914 0.117,0.965 0.063,0.968 0.121,0.914 0.117,0.91 0.058,0.7 0.122,0.593 0.054,0.481 v 0.324 l 0.364,0.59 0.296,0.32 h 0.36 l 0.301,-0.16 0.171,-0.269 0.243,-0.43 0.296,-0.43 0.243,-0.48 0.3,-0.375 0.356,-0.434 0.297,-0.32 0.355,-0.324 0.297,-0.266 0.305,-0.164 0.355,-0.16 0.176,0.269 0.184,0.321 0.121,0.429 0.117,0.485 0.117,0.593 0.063,0.536 0.054,0.589 0.067,0.536 0.054,0.429 v 0.379 l 0.364,-0.16 0.234,-0.219 0.184,-0.375 0.297,-0.429 0.175,-0.375"
           style="fill:none;stroke:#f66151;stroke-width:0.84975;stroke-linecap:round;stroke-linejoin:round;stroke-miterlimit:10;stroke-dasharray:none;stroke-opacity:1"
           id="path194" /></g><g
         id="g196"><path
           d="m 238.062,113.965 0.18,0.43 0.297,0.484 0.238,0.59 0.184,0.59 0.113,0.484 0.067,0.484 0.054,0.321 0.184,0.324 v -0.645"
           style="fill:none;stroke:#f66151;stroke-width:0.84975;stroke-linecap:round;stroke-linejoin:round;stroke-miterlimit:10;stroke-dasharray:none;stroke-opacity:1"
           id="path198" /></g><g
         id="g200"><path
           d="m 238.723,109.723 0.117,-0.321"
           style="fill:none;stroke:#f66151;stroke-width:0.84975;stroke-linecap:round;stroke-linejoin:round;stroke-miterlimit:10;stroke-dasharray:none;stroke-opacity:1"
           id="path202" /></g><g
         id="g204"><path
           d="m 242.84,112.676 v 1.344 l 0.058,0.589 0.243,1.289 0.171,0.645 0.126,0.484 0.175,0.43 0.117,0.32 0.18,0.379 0.36,-0.539 0.175,-0.48 0.184,-0.539 0.18,-0.7 0.296,-0.644 0.239,-0.645 0.422,-0.589 0.351,-0.43 0.363,-0.324 0.356,-0.106 0.355,-0.055 0.364,0.27 0.234,0.43 0.301,0.644 0.121,0.699 0.18,0.645 0.054,0.641 0.063,0.429 0.054,0.485 v 0.484"
           style="fill:none;stroke:#f66151;stroke-width:0.84975;stroke-linecap:round;stroke-linejoin:round;stroke-miterlimit:10;stroke-dasharray:none;stroke-opacity:1"
           id="path206" /></g><g
         id="g208"><path
           d="m 251.73,114.504 -0.179,0.43 -0.063,0.32 -0.117,0.324 -0.059,0.375 v 0.805 l 0.059,0.539 0.18,0.32 0.179,0.27 0.239,0.269 0.422,0.106 0.351,-0.485 0.184,-0.429 0.054,-0.59 0.067,-0.539 0.058,-0.59 -0.058,-0.59 v -0.59 l -0.184,-0.484 -0.234,-0.43 -0.305,-0.32 -0.535,-0.379 -0.301,-0.051 -0.054,0.375 0.054,0.375 0.184,0.485 0.355,0.484 0.364,0.43 0.535,0.535 0.594,0.484 0.66,0.535 0.769,0.594 0.723,0.48 0.715,0.54 0.715,0.589 1.195,1.399 0.473,0.805 0.296,0.75 0.18,0.808 0.063,0.75 v 0.699 l -0.243,0.696 -0.472,0.648 -0.656,0.535 -0.899,0.485 -1.012,0.32 -1.254,0.16 -1.375,0.055 h -1.546 l -1.672,-0.106"
           style="fill:none;stroke:#f66151;stroke-width:0.84975;stroke-linecap:round;stroke-linejoin:round;stroke-miterlimit:10;stroke-dasharray:none;stroke-opacity:1"
           id="path210" /></g><g
         id="g212"><path
           d="m 182.863,16.594 v 0.324 l 0.242,0.375 0.239,0.59 0.176,0.429 0.242,0.696 0.054,0.379 0.243,0.699 0.175,0.266 0.243,0.269 0.351,-0.215 0.305,-0.269 0.414,-0.266 0.355,-0.375 0.418,-0.434 0.481,-0.429 0.355,-0.535 0.539,-0.485 0.297,-0.375 0.297,-0.379 0.359,-0.32 0.418,-0.324 0.067,0.43"
           style="fill:none;stroke:#008000;stroke-width:0.84975;stroke-linecap:round;stroke-linejoin:round;stroke-miterlimit:10;stroke-dasharray:none;stroke-opacity:0.689727"
           id="path214" /></g><g
         id="g216"><path
           d="m 149.742,16.645 0.535,0.109 0.36,-0.055 h 0.539 l 0.594,-0.054 0.597,-0.106 0.653,-0.055 0.718,-0.105 0.66,-0.055 0.715,-0.109 0.657,-0.051 0.656,-0.055 0.66,-0.054 h 0.594 l 0.539,-0.051 h 4.469 l 0.597,-0.055 h 0.602 l 0.652,-0.054 h 0.602 l 0.714,-0.055 h 0.657 l 0.652,-0.051 0.656,-0.055 h 1.141 l 0.531,-0.054 h 0.535 l 0.539,-0.055 0.539,-0.051 h 4.36 l 0.297,0.051 0.593,0.055 h 1.375 l 0.418,0.054 0.297,0.055 0.36,0.051 0.3,0.055 0.415,0.054 0.296,0.106 0.481,0.054 h 0.355 l -0.593,-0.269"
           style="fill:none;stroke:#008000;stroke-width:0.84975;stroke-linecap:round;stroke-linejoin:round;stroke-miterlimit:10;stroke-dasharray:none;stroke-opacity:0.689727"
           id="path218" /></g><g
         id="g220"><path
           d="m 190.023,16.324 -0.296,-0.054 0.418,0.054 0.359,0.055 0.297,0.051 h 0.355 l 0.364,0.054 0.472,0.055 h 0.535 l 0.602,0.055 0.715,0.051 0.66,0.109 0.769,0.055 0.836,0.109 0.836,0.051 h 0.836 l 0.895,0.054 h 6.508 l 0.656,0.051 0.472,0.059 0.598,0.051 h 0.836 l 0.481,0.054 0.418,0.055 h 0.417 l 0.418,-0.055 h 0.832 l 0.598,0.055 0.301,0.055 h 1.793"
           style="fill:none;stroke:#008000;stroke-width:0.84975;stroke-linecap:round;stroke-linejoin:round;stroke-miterlimit:10;stroke-dasharray:none;stroke-opacity:0.689727"
           id="path222" /></g><g
         id="g224"><path
           d="m 154.691,6.766 -0.238,-0.375 -0.055,-0.375 0.055,-0.325 0.121,-0.324 0.481,-0.429 0.3,-0.161 0.356,-0.16 0.418,-0.16 0.297,-0.109 0.422,-0.106 h 0.59 l 0.363,0.051 0.418,0.215 0.297,0.484 0.121,0.32 0.175,0.325 0.122,0.535 v 0.594 l -0.122,0.484 -0.417,0.426 -0.36,0.164 0.36,0.105 h 0.359 l 0.476,0.11 0.297,0.32 0.297,0.375 0.305,0.434 0.113,0.375 v 0.429 l -0.113,0.481 -0.305,0.379 -0.234,0.375 -0.36,0.16 -0.359,0.269 -0.234,0.215 -0.301,0.11 -0.535,0.265 -0.363,0.164 -0.293,0.16 -0.485,0.161 -0.297,0.105 -0.355,0.055 -0.297,0.054 -0.356,-0.054 -0.543,-0.055 -0.472,-0.16 -0.656,-0.16 -0.418,-0.16 -0.364,-0.161 -0.297,-0.214"
           style="fill:none;stroke:#008000;stroke-width:0.84975;stroke-linecap:round;stroke-linejoin:round;stroke-miterlimit:10;stroke-dasharray:none;stroke-opacity:0.689727"
           id="path226" /></g><g
         id="g228"><path
           d="m 164.605,8.27 -0.242,0.214 h 2.449 l 0.774,-0.054 h 1.609 l 0.899,0.054 0.89,0.051 0.836,0.059 0.715,0.101 0.481,0.055 0.539,0.055 0.3,0.054 h 0.356"
           style="fill:none;stroke:#008000;stroke-width:0.84975;stroke-linecap:round;stroke-linejoin:round;stroke-miterlimit:10;stroke-dasharray:none;stroke-opacity:0.689727"
           id="path230" /></g><g
         id="g232"><path
           d="m 175.398,8.16 -0.054,0.59 v 0.434 l -0.239,-0.379 -0.179,-0.645 -0.18,-0.484 0.301,-0.106 0.531,0.16 0.36,0.055 0.363,0.106 0.351,0.269 0.418,0.27 0.422,0.32 0.414,0.324 0.723,0.43 0.297,0.16 0.297,0.215 -0.297,0.109 -0.715,0.106 h -2.633 l -0.594,0.054 -0.836,0.161 -0.293,0.054 -0.484,0.16 -0.355,0.161"
           style="fill:none;stroke:#008000;stroke-width:0.84975;stroke-linecap:round;stroke-linejoin:round;stroke-miterlimit:10;stroke-dasharray:none;stroke-opacity:0.689727"
           id="path234" /></g><g
         id="g236"><path
           d="m 191.637,3.863 -0.063,0.594 -0.054,0.535 -0.067,0.645 v 0.644 l -0.055,0.699 -0.058,0.696 v 2.687 l -0.121,-0.644"
           style="fill:none;stroke:#008000;stroke-width:0.84975;stroke-linecap:round;stroke-linejoin:round;stroke-miterlimit:10;stroke-dasharray:none;stroke-opacity:0.689727"
           id="path238" /></g><g
         id="g240"><path
           d="m 191.34,3.164 -0.426,0.164 -0.531,0.324 -0.238,0.211 -0.364,0.27 -0.351,0.324 -0.297,0.43 -0.305,0.375 -0.418,0.48 -0.297,0.324 -0.301,0.375 -0.414,0.325 -0.242,0.375 -0.414,0.375 -0.355,0.269 -0.239,0.32 -0.363,0.325 -0.355,0.265 0.355,0.164 h 2.094 l 0.531,0.051 0.778,0.11 0.714,0.105 0.66,0.109 0.657,0.164 0.472,0.051 0.539,0.055 0.364,0.055 h 0.535 l 0.297,0.054 0.355,0.051 -0.593,-0.105"
           style="fill:none;stroke:#008000;stroke-width:0.84975;stroke-linecap:round;stroke-linejoin:round;stroke-miterlimit:10;stroke-dasharray:none;stroke-opacity:0.689727"
           id="path242" /></g><g
         id="g244"><path
           d="M 202.797,8.375 202.438,8.215 202.195,8 l 0.117,0.375 0.184,0.375 0.238,0.375 0.243,0.434 0.175,0.375 0.176,0.429 0.188,0.375 0.172,0.375 0.242,-0.215 0.3,-0.48 0.118,-0.324 0.238,-0.375 0.301,-0.375 0.297,-0.219 0.472,-0.215 0.297,-0.105 0.426,-0.16 0.297,-0.11 0.297,-0.105 0.355,-0.055 0.36,-0.055 0.296,0.164 -0.058,0.375 -0.18,0.375 -0.113,0.325 v 0.429 l 0.055,0.43 0.476,0.215 0.359,0.16 0.539,0.16 h 0.711 l 0.418,-0.055 0.364,-0.16 0.418,-0.105 0.539,-0.43 0.351,-0.539 0.063,-0.375 -0.063,-0.32 -0.351,-0.485 -0.242,-0.269 -0.36,-0.375 -0.355,-0.324 -0.364,-0.215 -0.351,-0.16 -0.36,-0.055 -0.363,-0.051 -0.594,0.106 -0.359,0.699 -0.117,0.48"
           style="fill:none;stroke:#008000;stroke-width:0.84975;stroke-linecap:round;stroke-linejoin:round;stroke-miterlimit:10;stroke-dasharray:none;stroke-opacity:0.689727"
           id="path246" /></g><g
         id="g248"><path
           d="m 216.223,2.254 -0.118,0.32 -0.066,0.375 -0.059,0.489 v 6.441 l -0.054,0.324 -0.121,0.375 -0.364,-0.109"
           style="fill:none;stroke:#008000;stroke-width:0.84975;stroke-linecap:round;stroke-linejoin:round;stroke-miterlimit:10;stroke-dasharray:none;stroke-opacity:0.689727"
           id="path250" /></g><g
         id="g252"><path
           d="m 213.004,6.551 0.293,0.269 0.719,0.16 0.535,0.055 h 2.144 l 0.903,-0.055 h 0.953 l 0.418,0.106 0.355,0.109 -0.238,0.43 -0.238,0.59 -0.118,0.32 -0.058,0.324 -0.121,0.485 v 0.644 l 0.054,0.321 0.301,0.375 0.364,0.164 0.351,0.05 0.539,0.055 0.535,-0.055 0.36,-0.105 0.597,-0.484 0.36,-0.59 0.234,-0.594 0.121,-0.375 0.184,-0.43 L 222.367,8 222.133,7.785 221.77,7.57 221.477,7.355 220.996,7.141 220.695,6.98 l -0.297,-0.16 -0.121,0.321 -0.054,0.644 0.175,0.535 0.297,0.375 0.243,0.274 0.472,0.265 0.539,0.215 0.36,0.11 0.593,0.16 0.364,0.16 0.418,0.109 0.472,0.106 0.297,0.109 0.305,0.16 0.297,0.16"
           style="fill:none;stroke:#008000;stroke-width:0.84975;stroke-linecap:round;stroke-linejoin:round;stroke-miterlimit:10;stroke-dasharray:none;stroke-opacity:0.689727"
           id="path254" /></g><g
         id="g256"><path
           d="m 228.098,0.211 -0.063,0.375 V 1.5 l -0.055,0.539 -0.058,0.59 v 7.199 l -0.305,-0.164 -0.179,-0.266"
           style="fill:none;stroke:#008000;stroke-width:0.84975;stroke-linecap:round;stroke-linejoin:round;stroke-miterlimit:10;stroke-dasharray:none;stroke-opacity:0.689727"
           id="path258" /></g><g
         id="g260"><path
           d="m 225.531,6.441 0.414,-0.05 h 0.957 l 0.481,0.05 0.418,0.055 h 0.476 l 0.481,0.055 h 0.472 l 0.661,0.105 0.656,0.164 0.355,0.16 0.176,0.375 0.067,0.485 v 1.988 l 0.117,0.375"
           style="fill:none;stroke:#008000;stroke-width:0.84975;stroke-linecap:round;stroke-linejoin:round;stroke-miterlimit:10;stroke-dasharray:none;stroke-opacity:0.689727"
           id="path262" /></g><g
         id="g264"><path
           d="M 231.855,4.242 V 3.918 l 0.18,-0.375 0.301,-0.105"
           style="fill:none;stroke:#008000;stroke-width:0.84975;stroke-linecap:round;stroke-linejoin:round;stroke-miterlimit:10;stroke-dasharray:none;stroke-opacity:0.689727"
           id="path266" /></g><g
         id="g268"><path
           d="m 237.285,7.84 -0.473,-0.055 h -0.898 l -0.535,0.32 -0.359,0.325 -0.176,0.375 -0.239,0.644 -0.066,0.379 v 0.641 l 0.121,0.324 0.418,0.43 0.36,0.105 0.296,0.16 0.364,0.059 0.472,0.051 0.418,-0.051 0.539,-0.059 0.481,-0.16 0.414,-0.156 0.476,-0.219 0.364,-0.16 0.472,-0.375 0.243,-0.859 -0.067,-0.485 -0.176,-0.48 -0.238,-0.324 -0.355,-0.215 -0.418,-0.27 -0.364,-0.215 -0.472,-0.109 -0.782,-0.106 -0.351,0.106 -0.305,0.109 -0.414,0.27 -0.238,0.265 -0.238,0.379 -0.243,0.375"
           style="fill:none;stroke:#008000;stroke-width:0.84975;stroke-linecap:round;stroke-linejoin:round;stroke-miterlimit:10;stroke-dasharray:none;stroke-opacity:0.689727"
           id="path270" /></g><g
         id="g272"><path
           d="m 241.938,6.656 -0.051,0.539 0.051,0.481 0.183,0.484 0.117,0.59 0.063,0.539 0.121,0.43 0.058,0.32 0.176,0.27 0.242,-0.536 0.243,-0.648 0.238,-0.43 0.234,-0.32 0.176,-0.375 0.242,-0.215 0.36,-0.324 0.297,-0.051 0.359,0.051 0.117,0.594 0.121,0.48 0.059,0.434 v 0.32 l 0.058,0.375 0.184,0.43 0.297,0.054 0.297,-0.16 0.355,-0.054 0.242,0.375"
           style="fill:none;stroke:#008000;stroke-width:0.84975;stroke-linecap:round;stroke-linejoin:round;stroke-miterlimit:10;stroke-dasharray:none;stroke-opacity:0.689727"
           id="path274" /></g><g
         id="g276"><path
           d="m 18.516,21.801 -0.243,-0.535 -0.179,-0.43 -0.117,-0.484 -0.176,-0.641 -0.188,-0.754 -0.117,-0.754 -0.18,-0.855 -0.238,-0.969 -0.18,-0.969 -0.175,-1.019 -0.121,-1.075 -0.055,-1.074 -0.067,-1.07 -0.054,-1.024 V 7.141 l 0.121,-0.969 0.113,-0.86 0.18,-0.75 0.238,-0.699 0.238,-0.644 0.364,-0.485 0.297,-0.375 0.296,-0.214 0.297,-0.106 0.364,-0.055 0.296,0.161 0.293,0.269 0.301,0.215 0.18,0.43 0.234,0.484 0.188,0.43 0.176,0.589 0.175,0.805 0.063,0.324 v 0.7 l -0.063,0.32"
           style="fill:none;stroke:#808080;stroke-width:0.85;stroke-linecap:round;stroke-linejoin:round;stroke-miterlimit:10;stroke-dasharray:none;stroke-opacity:1"
           id="path278" /></g><g
         id="g280"><path
           d="m 17.734,14.98 0.418,0.055 0.782,0.055 h 2.382"
           style="fill:none;stroke:#808080;stroke-width:0.85;stroke-linecap:round;stroke-linejoin:round;stroke-miterlimit:10;stroke-dasharray:none;stroke-opacity:1"
           id="path282" /></g><g
         id="g284"><path
           d="m 26.984,3.918 -0.175,-0.266 -0.297,0.051 -0.184,0.27 -0.238,0.429 -0.238,0.645 -0.243,0.75 -0.171,0.808 -0.18,0.856 -0.184,0.914 -0.121,0.914 -0.055,0.965 -0.058,1.074 v 3.012 l 0.058,0.805 0.122,0.695 0.054,0.484 0.121,0.43 0.063,0.43 0.18,0.324"
           style="fill:none;stroke:#808080;stroke-width:0.85;stroke-linecap:round;stroke-linejoin:round;stroke-miterlimit:10;stroke-dasharray:none;stroke-opacity:1"
           id="path286" /></g><g
         id="g288"><path
           d="m 26.031,32.977 -0.301,-0.434 0.122,-0.43 0.121,-0.644 0.297,-0.856 0.296,-0.968 0.418,-1.075 0.418,-1.289 0.364,-1.394 0.472,-1.508 0.36,-1.5 0.418,-1.508 0.296,-1.344 0.243,-1.285 0.234,-1.074 0.18,-1.023 0.121,-0.856 0.058,-0.699 0.063,-0.645 v -0.429 l -0.063,-0.375 -0.179,-0.485 -0.18,0.645 -0.059,0.59 -0.054,0.589 -0.067,0.645 v 0.59 l 0.067,0.539 0.113,0.379 0.481,0.59 0.593,0.105 0.36,0.055 0.297,-0.055 0.418,-0.16 0.363,-0.375 0.472,-0.484 0.36,-0.645 0.355,-0.754 0.364,-0.805 0.351,-1.718 0.067,-0.75 v -0.649 l 0.054,-0.48 -0.054,-0.324 -0.122,-0.321 -0.359,-0.109 -0.18,0.699 -0.054,0.594 -0.067,0.644 v 3.598 l 0.067,0.481 0.054,0.484 0.063,0.32 0.117,0.379 0.301,0.215"
           style="fill:none;stroke:#808080;stroke-width:0.85;stroke-linecap:round;stroke-linejoin:round;stroke-miterlimit:10;stroke-dasharray:none;stroke-opacity:1"
           id="path290" /></g><g
         id="g292"><path
           d="m 35.879,15.789 0.18,0.535 0.175,0.43 0.063,0.484 0.117,0.43 0.117,0.59 0.121,0.375 0.184,0.429 0.18,0.325 0.172,0.324"
           style="fill:none;stroke:#808080;stroke-width:0.85;stroke-linecap:round;stroke-linejoin:round;stroke-miterlimit:10;stroke-dasharray:none;stroke-opacity:1"
           id="path294" /></g><g
         id="g296"><path
           d="m 35.879,16.27 0.355,-0.106 0.36,-0.055 0.355,-0.054 0.305,-0.051 0.297,-0.055 0.597,-0.054 0.473,-0.106 0.359,-0.109"
           style="fill:none;stroke:#808080;stroke-width:0.85;stroke-linecap:round;stroke-linejoin:round;stroke-miterlimit:10;stroke-dasharray:none;stroke-opacity:1"
           id="path298" /></g><g
         id="g300"><path
           d="m 36.18,18.473 0.351,0.054 h 0.657 l 0.3,-0.109 0.66,-0.266 0.356,-0.164 0.598,-0.16"
           style="fill:none;stroke:#808080;stroke-width:0.85;stroke-linecap:round;stroke-linejoin:round;stroke-miterlimit:10;stroke-dasharray:none;stroke-opacity:1"
           id="path302" /></g><g
         id="g304"><path
           d="m 41.367,20.352 -0.179,0.429 -0.239,0.43 -0.234,0.324 -0.184,0.32"
           style="fill:none;stroke:#808080;stroke-width:0.85;stroke-linecap:round;stroke-linejoin:round;stroke-miterlimit:10;stroke-dasharray:none;stroke-opacity:1"
           id="path306" /></g><g
         id="g308"><path
           d="m 44.352,17.828 -0.176,0.484 -0.067,0.43 0.188,0.375 0.297,0.321 0.234,0.214 0.36,0.059 0.417,0.051 0.481,-0.11 0.476,-0.214 0.293,-0.43 0.067,-0.375 0.113,-0.375 -0.113,-0.485 -0.426,-0.48 -0.41,-0.16 -0.602,-0.274 h -0.418 l -0.593,0.164 -0.297,0.161"
           style="fill:none;stroke:#808080;stroke-width:0.85;stroke-linecap:round;stroke-linejoin:round;stroke-miterlimit:10;stroke-dasharray:none;stroke-opacity:1"
           id="path310" /></g><g
         id="g312"><path
           d="m 44.531,4.348 -0.355,-0.106 -0.184,-0.269 0.36,-0.27 0.418,-0.051 0.359,0.16 0.18,0.536 V 4.887 L 45.188,5.422 44.945,6.066 44.711,6.605 44.41,7.086 44.23,7.461 44.059,7.84 43.812,8.375 44.297,8.215 44.711,8.105 45.129,8.055 45.664,8 46.02,7.945 46.496,7.891 h 0.359"
           style="fill:none;stroke:#808080;stroke-width:0.85;stroke-linecap:round;stroke-linejoin:round;stroke-miterlimit:10;stroke-dasharray:none;stroke-opacity:1"
           id="path314" /></g><g
         id="g316"><path
           d="m 49.426,2.949 0.121,0.489 0.351,0.425 0.301,0.27 0.239,0.324 0.296,0.375 0.364,0.43 0.238,0.48 0.297,0.539 0.234,0.59 0.188,0.645 0.175,0.699 0.122,0.754 0.117,0.75 0.179,0.859 0.122,0.86 0.054,0.914 0.063,0.91 -0.117,1.828 -0.067,0.859 -0.234,0.75 -0.297,0.699 -0.238,0.43 -0.243,0.27 -0.355,0.269"
           style="fill:none;stroke:#808080;stroke-width:0.85;stroke-linecap:round;stroke-linejoin:round;stroke-miterlimit:10;stroke-dasharray:none;stroke-opacity:1"
           id="path318" /></g><g
         id="g320"><path
           d="m 326.688,23.094 -0.18,-0.324 -0.121,-0.375 -0.184,-0.485 -0.055,-0.484 -0.121,-0.535 -0.058,-0.59 -0.117,-0.649 -0.247,-1.5 -0.117,-0.804 -0.054,-0.809 -0.122,-0.859 v -3.008 l 0.122,-0.75 0.054,-0.75 0.184,-0.754 0.117,-0.754 0.18,-0.754 0.234,-0.59 0.184,-0.644 0.472,-1.071 0.18,-0.433 0.305,-0.32 0.594,-0.27 0.417,0.109 0.481,0.215 0.648,0.375 0.422,0.539 0.535,0.59 0.364,0.59 0.234,0.594 0.238,0.531 0.121,0.539 0.063,0.59 v 1.019 l -0.121,0.539"
           style="fill:none;stroke:#808080;stroke-width:0.85;stroke-linecap:round;stroke-linejoin:round;stroke-miterlimit:10;stroke-dasharray:none;stroke-opacity:1"
           id="path322" /></g><g
         id="g324"><path
           d="m 325.555,17.508 h 1.066 l 0.723,-0.055 0.648,-0.055 0.66,-0.05 0.594,-0.11 h 1.676"
           style="fill:none;stroke:#808080;stroke-width:0.85;stroke-linecap:round;stroke-linejoin:round;stroke-miterlimit:10;stroke-dasharray:none;stroke-opacity:1"
           id="path326" /></g><g
         id="g328"><path
           d="m 338.086,8.594 -0.305,-0.11 -0.418,0.641 -0.355,0.539 -0.238,0.645 -0.297,0.699 -0.184,0.804 -0.18,0.86 -0.171,1.019 -0.126,1.129 -0.117,1.184 -0.058,1.289 v 1.18 l 0.121,1.129 0.18,1.019 0.292,0.805 0.54,1.129 0.359,0.324 0.418,0.32"
           style="fill:none;stroke:#808080;stroke-width:0.85;stroke-linecap:round;stroke-linejoin:round;stroke-miterlimit:10;stroke-dasharray:none;stroke-opacity:1"
           id="path330" /></g><g
         id="g332"><path
           d="m 339.035,34.641 0.184,-0.7 0.179,-0.644 0.711,-1.828 0.418,-0.965 0.481,-1.129 0.418,-1.234 0.539,-1.289 0.355,-1.29 0.414,-1.343 0.364,-1.125 0.238,-1.02 0.18,-0.863 v -0.645 l 0.054,-0.855 v -0.863 l -0.175,0.324 -0.122,0.324 -0.121,0.531 v 2.047 l 0.067,0.375 0.176,0.43 0.296,0.16 0.481,0.106 h 0.418 l 0.598,-0.161 0.292,-0.214 0.364,-0.375 0.355,-0.54 0.239,-0.484 0.359,-0.59 0.18,-0.644 0.238,-0.641 0.18,-0.703 0.054,-0.641 0.063,-0.644 0.058,-0.434 -0.058,-0.429 v -0.321 l -0.117,-0.484 -0.364,-0.051 -0.054,0.75 -0.063,0.645 v 1.398 l 0.063,0.641 v 0.703 l 0.054,0.64 0.063,0.7 0.121,0.484 0.18,0.43 0.535,0.644 0.121,0.321 0.179,0.324"
           style="fill:none;stroke:#808080;stroke-width:0.85;stroke-linecap:round;stroke-linejoin:round;stroke-miterlimit:10;stroke-dasharray:none;stroke-opacity:1"
           id="path334" /></g><g
         id="g336"><path
           d="m 350.02,22.18 0.058,0.535 0.117,0.43 0.121,0.429 v 0.375 l 0.055,0.379 v 0.375 l 0.121,0.43 0.121,0.324 v -1.129"
           style="fill:none;stroke:#808080;stroke-width:0.85;stroke-linecap:round;stroke-linejoin:round;stroke-miterlimit:10;stroke-dasharray:none;stroke-opacity:1"
           id="path338" /></g><g
         id="g340"><path
           d="m 350.02,22.449 -0.18,-0.269 0.355,-0.055 0.602,-0.051 h 1.848 l 0.359,0.106 v 0.484"
           style="fill:none;stroke:#808080;stroke-width:0.85;stroke-linecap:round;stroke-linejoin:round;stroke-miterlimit:10;stroke-dasharray:none;stroke-opacity:1"
           id="path342" /></g><g
         id="g344"><path
           d="m 349.961,24.379 h 0.769 l 0.54,-0.051 h 0.359"
           style="fill:none;stroke:#808080;stroke-width:0.85;stroke-linecap:round;stroke-linejoin:round;stroke-miterlimit:10;stroke-dasharray:none;stroke-opacity:1"
           id="path346" /></g><g
         id="g348"><path
           d="m 351.746,10.203 -0.297,-0.055 0.297,0.27 0.184,0.266 0.054,0.488 -0.054,0.426 -0.118,0.429 -0.246,0.485 -0.296,0.375 -0.297,0.269 -0.36,0.321 -0.175,0.269 0.359,0.16 h 0.418 l 0.414,0.055 h 0.476 l 0.661,0.055 0.535,0.05 0.539,0.055"
           style="fill:none;stroke:#808080;stroke-width:0.85;stroke-linecap:round;stroke-linejoin:round;stroke-miterlimit:10;stroke-dasharray:none;stroke-opacity:1"
           id="path350" /></g><g
         id="g352"><path
           d="m 355.391,6.281 0.472,0.539 0.418,0.375 0.481,0.321 0.472,0.375 0.539,0.429 0.539,0.539 0.418,0.59 0.54,0.805 0.351,0.808 0.359,0.965 0.301,1.129 0.184,1.235 0.234,1.343 0.117,1.399 0.122,1.5 0.175,1.613 0.067,1.609 0.054,1.504 v 1.289 l -0.121,0.969 -0.234,0.59 -0.301,0.484 -0.351,0.321 -0.364,0.109"
           style="fill:none;stroke:#808080;stroke-width:0.85;stroke-linecap:round;stroke-linejoin:round;stroke-miterlimit:10;stroke-dasharray:none;stroke-opacity:1"
           id="path354" /></g></g></g></svg>
