<?xml version="1.0" encoding="UTF-8" standalone="no"?>
<!-- Created with Inkscape (http://www.inkscape.org/) -->

<svg
   version="1.1"
   id="svg2"
   xml:space="preserve"
   width="715.49506"
   height="150.43866"
   viewBox="0 0 715.49506 150.43866"
   sodipodi:docname="vfns-back-details.pdf"
   xmlns:inkscape="http://www.inkscape.org/namespaces/inkscape"
   xmlns:sodipodi="http://sodipodi.sourceforge.net/DTD/sodipodi-0.dtd"
   xmlns="http://www.w3.org/2000/svg"
   xmlns:svg="http://www.w3.org/2000/svg"><defs
     id="defs6"><clipPath
       clipPathUnits="userSpaceOnUse"
       id="clipPath18"><path
         d="M 0,0 H 537 V 113 H 0 Z"
         id="path16" /></clipPath><clipPath
       clipPathUnits="userSpaceOnUse"
       id="clipPath172"><path
         d="M 0,0 H 537 V 113 H 0 Z"
         id="path170" /></clipPath><clipPath
       clipPathUnits="userSpaceOnUse"
       id="clipPath198"><path
         d="M 0,0 H 537 V 113 H 0 Z"
         id="path196" /></clipPath><clipPath
       clipPathUnits="userSpaceOnUse"
       id="clipPath216"><path
         d="M 0,0 H 537 V 113 H 0 Z"
         id="path214" /></clipPath></defs><sodipodi:namedview
     id="namedview4"
     pagecolor="#ffffff"
     bordercolor="#666666"
     borderopacity="1.0"
     inkscape:pageshadow="2"
     inkscape:pageopacity="0.0"
     inkscape:pagecheckerboard="0" /><g
     id="g8"
     inkscape:groupmode="layer"
     inkscape:label="vfns-back-details"
     transform="matrix(1.3333333,0,0,1.3333333,0,3.7609665e-6)"><g
       id="g10"><g
         id="g12"><g
           id="g14" /><g
           id="g28"><g
             clip-path="url(#clipPath18)"
             id="g26"><g
               id="g24"><g
                 id="g22"><path
                   d="m 144.141,38.129 -0.403,0.266 -0.269,-0.211 0.203,-0.321 0.402,-0.054 h 1.477 l 0.539,0.054 0.535,0.051 0.406,0.055 0.336,0.105 0.606,0.16 0.402,0.055 0.402,0.262 h 0.871 l 0.473,0.16 0.27,0.215 0.336,0.316 0.335,0.106 v 3.34 l -0.066,0.421 -0.066,0.481 -0.071,0.316 -0.199,0.532 -0.137,0.476 -0.066,0.316 -0.066,0.692 -0.067,0.371 -0.07,0.637 -0.066,0.425 -0.067,0.583 v 0.531 l -0.066,0.316 v 1.164 l -0.071,0.43 -0.066,0.473 v 1.859 l -0.066,0.684 -0.133,0.32 -0.133,0.476 -0.07,0.743 -0.067,0.371 v 0.898 l -0.07,0.32 v 0.586 l -0.063,0.422 -0.136,0.531 -0.2,0.637 -0.07,0.367 -0.133,0.481 -0.066,0.316 -0.07,0.477 v 0.32 l -0.067,0.477 v 1.906 l -0.066,0.426 v 0.902 l -0.133,0.371 -0.07,0.317 -0.332,0.105 h -1.817 l -0.402,0.106 h -0.402 l -0.606,0.109 -0.473,0.105 h -4.433 l -0.668,0.161 -0.875,0.316 -0.406,0.16 -0.469,0.051 -0.938,0.266 -0.472,0.105 -0.403,0.16 -0.605,0.16 -0.942,0.211 -0.601,0.16 -0.473,0.106 -0.601,0.156 -0.813,0.215 -0.668,0.105 -0.539,0.055 h -0.805 l -0.468,0.051 -0.809,0.055 h -1.883 L 126,67.922 h -1.211 l -0.469,-0.051 h -0.402 l -0.402,-0.055 -0.469,-0.054 -0.406,-0.051 -0.606,-0.109 -0.402,-0.106 -0.606,-0.105 -0.535,-0.157 -0.469,-0.105 -0.605,-0.109 -0.473,-0.157 -0.336,-0.105 -0.535,-0.11 -0.469,-0.105 -0.539,-0.055 -0.539,-0.105 -0.539,-0.047 -0.539,-0.059 -0.601,-0.05 -0.672,-0.106 -1.074,-0.055 h -0.606 l -0.605,-0.054 h -1.075 l -0.468,-0.051 -0.403,-0.055 h -4.703 l -1.078,0.106 -0.605,0.109 -0.672,0.051 -0.871,0.105 -0.809,0.106 -0.738,0.105 -0.739,0.16 -0.804,0.161 -0.809,0.16 -0.805,0.105 -0.804,0.16 -0.742,0.157 -0.805,0.105 -1.477,0.32 -0.808,0.106 -0.672,0.105 -0.606,0.106 -0.601,0.055 -0.543,0.05 -0.602,0.11 -0.472,0.05 h -0.535 l -0.54,0.055 H 87.57 l -0.605,0.051 -0.539,0.055 -0.539,0.05 -0.399,0.055 H 67.949 l -0.535,0.051 h -0.672 l -0.539,0.055 h -0.601 l -0.54,0.05 h -0.605 l -0.535,0.059 -0.606,0.051 h -0.539 l -0.605,0.054 h -1.274 l -0.605,0.051 h -0.605 l -0.606,0.055 h -0.469 l -0.539,0.051 -0.336,0.054 -0.468,0.051 -0.34,0.055 h -0.469 l -0.941,0.051 -0.403,0.054 h -0.469 l -0.472,0.055 h -0.938 l -0.336,0.051 -0.406,0.054 -0.402,0.055 -0.739,0.106 -0.605,0.05 -0.402,0.051 -0.672,0.055 -0.606,0.051 h -0.738 l -0.402,0.054 h -0.403 l -0.804,0.106 -0.809,0.109 -0.605,0.106 h -0.536 l -1.011,0.05 h -0.668 l -0.473,0.055 -0.672,0.051 h -6.113 l -1.211,0.105 h -1.68 l -0.468,0.059 -0.403,0.051 -1.75,0.211 -0.804,0.054 -0.602,0.051 -0.606,0.106 -0.539,0.054 -0.406,0.055 h -0.535 l -0.539,0.105 -0.738,0.106 -0.403,-0.055 -0.468,-0.105 -0.34,-0.106 -0.399,-0.109 -0.269,-0.207 -0.27,-0.27 -0.136,-0.476 v -1.641 l 0.07,-0.367 0.199,-0.801 0.137,-0.527 0.133,-0.481 0.203,-0.527 0.066,-0.426 0.133,-0.476 0.07,-0.477 0.133,-0.586 0.137,-0.527 0.133,-0.586 0.132,-0.473 0.067,-0.426 0.137,-0.375 0.199,-0.582 0.07,-0.367 0.199,-0.637 0.2,-0.585 0.07,-0.477 0.269,-0.742 0.067,-0.422 0.066,-0.32 0.067,-0.371 v -0.317 l 0.136,-0.476 0.067,-0.321 0.132,-0.582 v -7.687 l 0.067,-0.532 0.07,-0.476 v -4.082 l -0.07,-0.477 -0.067,-0.316 -0.132,-0.852 -0.067,-0.371 -0.136,-0.316 -0.067,-0.32 -0.133,-0.473 -0.132,-0.32 -0.54,-0.532 -0.335,-0.211 0.335,0.266 0.469,0.156 0.539,0.27 0.606,0.207 0.332,0.164 0.336,0.156 0.336,0.106 0.539,0.16 0.738,0.215 0.539,0.211 0.336,0.156 0.469,0.105 0.672,0.215 0.406,0.051 0.332,0.105 0.406,0.106 0.336,0.109 0.539,0.106 0.469,0.054 0.668,0.262 0.742,0.16 0.875,0.211 0.535,0.211 0.336,0.109 0.535,0.161 0.336,0.105 0.407,0.106 0.468,0.109 0.406,0.047 0.602,0.055 0.606,0.054 0.468,0.051 0.742,0.105 0.403,0.106 0.336,0.055 0.605,0.105 0.469,0.106 0.672,0.16 0.605,0.105 0.469,0.106 0.738,0.214 0.407,0.106 1.074,0.211 0.601,0.051 0.407,0.105 0.605,0.055 0.668,0.055 0.676,0.054 h 14.308 l 0.809,-0.054 h 0.805 l 0.808,-0.055 h 0.739 l 0.804,-0.055 h 0.739 l 0.804,-0.051 h 0.809 l 0.738,-0.054 0.809,-0.051 0.804,-0.055 h 0.875 l 0.872,-0.051 h 4.906 l 0.808,-0.054 h 10.68 l 0.672,0.054 h 0.805 l 0.808,0.051 0.805,0.055 0.805,0.051 0.875,0.054 0.804,0.051 0.946,0.055 0.937,0.055 0.941,0.054 0.875,0.051 0.938,0.055 0.875,0.05 0.875,0.055 0.871,0.051 h 0.809 l 0.804,0.055 h 0.809 l 0.871,0.05 h 1.547 l 0.738,0.055 0.672,0.055 0.672,0.105 h 0.672 l 0.668,0.055 h 0.676 l 0.671,0.051 h 0.602 l 0.676,0.05 h 4.433 l 0.871,0.055 0.407,0.051 h 3.156 l 0.473,-0.051 0.468,-0.055 0.403,-0.261 0.672,-0.531 0.402,-0.372 0.336,-0.265 0.473,-0.531 0.269,-0.372 0.332,-0.421 0.274,-0.481 0.199,-0.262 0.269,-0.371 0.27,-0.265 0.199,-0.262 0.199,-0.375 0.071,-0.316 -0.403,-0.211 -0.336,-0.055 -0.336,-0.109 0.133,-0.368 0.27,-0.214 0.336,-0.102 -0.336,-0.109 -0.809,-0.106 -0.805,-0.051 -0.539,-0.054 h -0.937 l -0.539,-0.055 -0.942,-0.055 h -0.605 l -0.805,-0.051 h -4.301 l -0.605,-0.054 h -2.484 l -0.739,0.105 -0.539,0.055 h -0.468 l -0.743,0.055 -0.535,0.054 -0.808,0.157 -0.403,0.05 -0.469,0.059 -0.941,0.102 -0.469,0.054 -0.406,0.106 -0.605,0.054 -0.805,0.051 h -0.805 l -0.402,0.055 h -0.406 l -0.469,0.051 H 98.387 L 97.645,39.508 H 96.707 L 96.305,39.453 H 95.902 L 95.496,39.402 94.961,39.348 94.559,39.297 H 92.742 L 92.07,39.242 H 91.535 L 90.996,39.188 H 89.652 L 89.25,39.133 88.578,39.086 h -5.445 l -0.871,0.047 -0.805,0.055 h -0.941 l -0.942,0.054 -0.539,0.055 h -0.937 l -0.809,0.051 -0.941,0.054 H 66.137 L 65.266,39.348 H 64.66 L 63.852,39.297 H 62.441 L 61.973,39.242 H 60.965 L 60.156,39.188 H 59.219 L 58.68,39.133 h -0.469 l -0.406,-0.047 h -7.188 l -0.472,0.047 -0.469,0.055 h -0.403 l -0.402,0.054 -0.336,0.055 h -0.676 l -0.332,0.105 -0.406,0.051 -0.469,0.055 h -1.277 l -0.539,0.051 -0.469,0.054 h -9.945 l -0.063,0.477 v 2.437 l 0.063,0.797 0.07,0.848 0.133,0.848 0.133,0.742 0.137,0.636 0.335,0.793 0.27,0.371 0.539,0.532 0.133,0.32 0.605,-0.055"
                   style="fill:none;stroke:#8bc0ff;stroke-width:32.0396;stroke-linecap:round;stroke-linejoin:round;stroke-miterlimit:10;stroke-dasharray:none;stroke-opacity:0.331112"
                   id="path20" /></g></g></g></g></g><g
         id="g30"><path
           d="m 21.547,34.441 -0.301,0.11 v -0.324 l 0.121,-0.696 0.238,-0.32 0.243,-0.273 0.359,-0.376 0.414,-0.269 0.359,-0.27 0.536,-0.265 0.539,-0.164 0.539,-0.16 0.594,-0.106 0.417,-0.055 h 1.016 l 0.477,0.11 0.535,0.211 0.359,0.379 0.297,0.429 0.242,0.481 0.18,0.433 0.117,0.375 0.059,0.375 0.062,0.321 -0.062,0.379 -0.239,0.429 -0.238,0.321 -0.297,0.379 -0.359,0.214 -0.238,0.215 -0.297,0.106 0.476,0.054 h 0.657 l 0.476,0.051 0.477,0.11 0.476,0.054 0.477,0.106 0.359,0.054 0.418,0.106 0.418,0.215 0.359,0.269 0.36,0.321 0.238,0.378 0.18,0.266 0.117,0.434 0.121,0.32 0.059,0.375 0.117,0.379 -0.117,0.59 -0.239,0.215 -0.359,0.265 -0.539,0.324 -0.652,0.325 -0.657,0.32 -0.718,0.375 -0.715,0.375 -0.656,0.324 -0.657,0.215 -0.597,0.215 -0.598,0.105 -0.414,0.11 -0.359,0.054 H 25.309 L 24.77,43.68 24.352,43.57 23.992,43.305 23.637,42.926 23.398,42.605 v -0.32"
           style="fill:none;stroke:#3584e4;stroke-width:0.85;stroke-linecap:round;stroke-linejoin:round;stroke-miterlimit:10;stroke-dasharray:none;stroke-opacity:1"
           id="path32" /></g><g
         id="g34"><path
           d="m 39.57,32.293 -0.179,0.43 -0.059,0.644 -0.117,0.86 -0.063,0.914 -0.058,0.914 v 0.91 l -0.063,0.969 -0.058,0.914 -0.059,0.863 -0.059,0.801 -0.062,0.644 -0.059,0.75 v 0.699 -1.613 l 0.059,-0.644"
           style="fill:none;stroke:#3584e4;stroke-width:0.85;stroke-linecap:round;stroke-linejoin:round;stroke-miterlimit:10;stroke-dasharray:none;stroke-opacity:1"
           id="path36" /></g><g
         id="g38"><path
           d="m 39.215,36.055 h -0.36 l 0.36,0.429 0.414,0.161 0.598,0.214 0.597,0.161 0.535,0.109 0.539,0.051 0.536,0.054 h 2.867 l 0.058,-0.375"
           style="fill:none;stroke:#3584e4;stroke-width:0.85;stroke-linecap:round;stroke-linejoin:round;stroke-miterlimit:10;stroke-dasharray:none;stroke-opacity:1"
           id="path40" /></g><g
         id="g42"><path
           d="m 39.031,32.078 -0.297,-0.16 0.36,-0.27 0.414,-0.054 0.601,-0.051 0.477,-0.055 0.656,-0.105 0.598,-0.055 0.594,-0.109 0.597,-0.051 1.196,-0.109 h 0.535 l 0.597,-0.055 h 1.493 l -0.418,0.215 -0.477,0.215"
           style="fill:none;stroke:#3584e4;stroke-width:0.85;stroke-linecap:round;stroke-linejoin:round;stroke-miterlimit:10;stroke-dasharray:none;stroke-opacity:1"
           id="path44" /></g><g
         id="g46"><path
           d="m 47.027,33.043 0.239,-0.215 0.242,-0.266 0.117,-0.374 -0.059,0.535 v 0.593 l -0.058,0.696 -0.059,0.754 -0.183,0.75 -0.118,0.863 -0.175,0.801 -0.121,0.859 -0.18,0.863 -0.121,0.809 -0.117,0.691 -0.122,0.485 -0.117,0.429 -0.121,0.43 0.297,0.215 0.719,0.055 0.476,0.054 0.539,0.051 0.598,0.055 0.535,0.054 h 2.028 l 0.418,0.055 0.3,0.051 0.297,0.055 0.301,0.054 -0.48,0.055 -0.418,-0.109"
           style="fill:none;stroke:#3584e4;stroke-width:0.85;stroke-linecap:round;stroke-linejoin:round;stroke-miterlimit:10;stroke-dasharray:none;stroke-opacity:1"
           id="path48" /></g><g
         id="g50"><path
           d="m 14.773,96.711 0.567,0.266 0.488,0.05 0.484,0.059 0.571,0.047 0.566,0.055 0.731,0.054 h 0.648 l 0.809,0.051 h 2.191 l 0.731,0.055 0.808,0.105 0.891,0.106 0.812,0.105 0.895,0.16 0.812,0.11 0.891,0.105 0.891,0.051 0.972,0.105 0.977,0.051 1.051,0.109 1.136,0.051 1.215,0.055 1.219,0.055 1.215,-0.055 h 1.379 l 1.379,-0.055 h 3.246 l 1.781,-0.051 h 6.164 l 2.109,-0.054 h 2.028 l 2.109,-0.055 2.027,-0.051 2.188,-0.054 2.269,-0.051 2.274,-0.106 2.351,-0.05 2.434,-0.055 2.43,-0.109 2.433,-0.051 2.516,-0.055 2.434,-0.051 2.433,-0.054 2.512,-0.051 2.433,-0.055 2.598,-0.105 2.594,-0.055 2.594,-0.051 2.511,-0.054 2.516,-0.055 2.68,-0.047 2.675,-0.109 2.918,-0.157 3,-0.164 2.922,-0.156 2.918,-0.16 2.836,-0.156 2.84,-0.164 2.758,-0.157 2.84,-0.105 2.918,-0.106 2.918,-0.109 3,-0.051 2.843,-0.105 2.918,-0.106 2.918,-0.16 2.758,-0.105 2.836,-0.161 2.84,-0.16 2.758,-0.105 2.836,-0.106 2.675,-0.16 2.762,-0.051 2.758,-0.054 2.836,-0.051 3,-0.055 h 3 l 3.004,-0.051 h 3 l 2.836,-0.054 3,-0.047 3.086,-0.059 3.242,-0.054 3.406,-0.106 3.488,-0.054 3.407,-0.051 H 209 l 3.406,-0.051 3.489,-0.055 3.648,-0.054 3.488,-0.051 3.567,-0.055 3.57,-0.051 3.648,-0.054 3.813,-0.055 3.894,-0.051 3.973,-0.055 3.809,-0.105 3.652,-0.051 3.648,-0.054 3.731,-0.051 3.726,-0.055 3.817,-0.055 h 7.215 l 3.492,-0.05 h 13.621 l 3.324,0.05 3.324,0.055 3.489,0.055 3.652,0.051 3.566,0.054 3.567,0.106 3.41,0.05 3.402,0.055 3.407,0.051 h 17.273 l 6.813,0.109 3.566,0.051 3.492,0.055 3.485,0.051 3.566,0.109 3.648,0.102 3.977,0.105 4.055,0.055 3.972,0.054 3.977,0.059 h 3.89 l 4.055,0.047 h 4.059 l 4.215,0.054 h 4.132 l 4.141,0.051 h 4.055 l 4.051,0.055 h 20.437 l 4.297,-0.055 h 8.195 l 3.891,-0.051 h 27.652 l 2.922,0.051 2.676,0.055 2.433,0.105 2.352,0.051 h 2.105 l 2.032,0.055 1.945,0.055 1.867,0.05 1.699,0.055 1.704,0.106 1.543,0.105 1.457,0.105 1.3,0.106 1.055,0.055 0.973,0.054 h 1.297 l 0.488,0.051 0.484,0.055"
           style="fill:none;stroke:#000000;stroke-width:1.41;stroke-linecap:round;stroke-linejoin:round;stroke-miterlimit:10;stroke-dasharray:none;stroke-opacity:1"
           id="path52" /></g><g
         id="g54"><path
           d="m 156.219,21.73 h -1.922 l -0.348,0.047 -0.406,0.043 -0.527,0.047 h -2.442 l -0.644,0.047 h -0.754 l -0.992,0.047 h -1.106 l -1.453,0.094 -1.809,0.043 -1.976,0.093 -2.102,0.043 -2.211,-0.093 h -19.273 l -2.215,-0.043 H 96.531 L 94.438,22.055 H 79.414 L 78.133,22.004 H 76.852 L 75.629,21.961 H 64.621 l -0.988,0.043 h -0.992 l -0.93,-0.043 h -2.797 l -0.988,0.043 H 36.148 l -1.57,-0.043 H 13.961 l -0.93,-0.047 H 9.301 L 8.836,21.867"
           style="fill:none;stroke:#62a0ea;stroke-width:0.907789;stroke-linecap:round;stroke-linejoin:round;stroke-miterlimit:10;stroke-dasharray:none;stroke-opacity:1"
           id="path56" /></g><g
         id="g58"><path
           d="M 76.844,46.379 76.605,46.16 76.363,45.77 76.266,45.336 76.219,44.77 v -0.387 l 0.144,-0.305 0.387,-0.648 0.625,-0.434 0.336,-0.176 0.387,-0.043 0.531,-0.043 h 0.433 l 0.579,0.176 0.48,0.258 0.434,0.348 0.336,0.476 0.386,0.434 0.243,0.562 0.144,0.61 0.191,0.648 0.047,0.692 0.098,0.695 v 0.695 l -0.098,0.649 -0.191,0.652 -0.242,0.605 -0.336,0.52 -0.387,0.519 -0.48,0.438 -0.387,0.301 -0.481,0.218 -0.336,0.129 -0.339,0.086 -0.289,0.086 -0.481,0.047 -0.34,-0.047 -0.191,-0.301 -0.047,-0.433 0.047,-0.391 0.098,-0.304 0.242,-0.215 0.191,-0.219 0.195,-0.258 0.286,-0.219 0.242,-0.175 0.336,-0.172 0.386,-0.086 0.383,-0.086 h 1.59 l 0.387,0.043 0.289,0.172 0.098,0.347"
           style="fill:none;stroke:#13498b;stroke-width:0.99975;stroke-linecap:round;stroke-linejoin:round;stroke-miterlimit:10;stroke-dasharray:none;stroke-opacity:1"
           id="path60" /></g><g
         id="g62"><path
           d="m 74.34,56.086 0.531,-0.043 h 0.914 l 0.481,0.043 0.578,0.086 0.629,0.09 0.675,0.086 0.77,0.086 0.82,0.043 0.864,0.043 h 1.687 l 0.77,-0.043 h 0.625 l 0.582,-0.043 0.429,-0.043 h 0.676 l -0.289,-0.043 h -0.867"
           style="fill:none;stroke:#13498b;stroke-width:0.99975;stroke-linecap:round;stroke-linejoin:round;stroke-miterlimit:10;stroke-dasharray:none;stroke-opacity:1"
           id="path64" /></g><g
         id="g66"><path
           d="m 76.461,62.461 h -0.293 l -0.191,-0.695 -0.094,-0.52 v -0.348 l 0.14,-0.304 0.293,-0.305 0.336,-0.301 0.434,-0.176 0.434,-0.171 0.48,-0.129 0.48,-0.043 h 0.532 l 0.531,0.129 0.48,0.129 0.481,0.261 0.867,0.696 0.289,0.476 0.485,0.867 0.144,0.52 0.141,0.519 0.097,0.606 v 1.258 l -0.047,0.656 -0.05,0.644 -0.141,0.649 -0.144,0.566 -0.336,0.434 -0.387,0.348 -0.387,0.214 -0.48,0.172 -0.434,0.133 h -0.34 l -0.336,0.043 -0.433,-0.043 -0.336,-0.133 -0.242,-0.343 -0.192,-0.348 -0.097,-0.348 -0.094,-0.476 v -0.692 l 0.094,-0.347 0.097,-0.305 0.145,-0.305 0.383,-0.215 0.484,-0.129 0.48,-0.085 h 0.387 l 0.434,0.085 0.383,0.129 0.242,0.215"
           style="fill:none;stroke:#13498b;stroke-width:0.99975;stroke-linecap:round;stroke-linejoin:round;stroke-miterlimit:10;stroke-dasharray:none;stroke-opacity:1"
           id="path68" /></g><g
         id="g70"><path
           d="m 80.988,75.812 0.192,-0.433 0.144,-0.391 0.242,-0.433 0.286,-0.563 0.242,-0.652 0.242,-0.738 0.289,-0.778 0.289,-0.91 0.289,-0.996 0.289,-0.871 0.242,-0.863 0.192,-0.739 0.144,-0.652 0.098,-0.563 0.144,-0.476 0.094,-0.563 v 2.082 l 0.242,0.258 0.434,0.172 0.434,-0.043 0.289,-0.215 0.242,-0.304 0.285,-0.348 0.148,-0.434 0.141,-0.39 0.098,-0.383 0.097,-0.309 0.047,-0.347 0.051,-0.434 v 0.91 l 0.094,0.524 0.144,0.476 0.192,0.473 0.195,0.437 0.191,0.434 0.243,0.301 0.191,0.219 0.289,0.128"
           style="fill:none;stroke:#13498b;stroke-width:0.99975;stroke-linecap:round;stroke-linejoin:round;stroke-miterlimit:10;stroke-dasharray:none;stroke-opacity:1"
           id="path72" /></g><g
         id="g74"><path
           d="m 89.227,61.336 -0.243,0.172 0.145,-0.305 0.289,-0.086 0.336,-0.047 0.098,0.438 -0.051,0.344 -0.141,0.433 -0.242,0.348 -0.242,0.39 -0.336,0.606 -0.149,0.391 v 0.347 l 0.727,0.262 h 1.25"
           style="fill:none;stroke:#13498b;stroke-width:0.99975;stroke-linecap:round;stroke-linejoin:round;stroke-miterlimit:10;stroke-dasharray:none;stroke-opacity:1"
           id="path76" /></g><g
         id="g78"><path
           d="m 98.184,56.477 0.336,0.128 0.578,-0.043 0.433,-0.042 h 0.485 l 0.625,-0.043 h 0.675 l 0.77,-0.086 0.82,-0.09 0.867,-0.082 0.864,-0.047 0.773,-0.086 0.723,-0.043 0.578,-0.043 0.43,-0.039 h 1.109"
           style="fill:none;stroke:#13498b;stroke-width:0.99975;stroke-linecap:round;stroke-linejoin:round;stroke-miterlimit:10;stroke-dasharray:none;stroke-opacity:1"
           id="path80" /></g><g
         id="g82"><path
           d="m 108.301,54.828 -0.051,0.563 v 0.781 l 0.051,0.476 0.094,0.305 0.05,-0.305 -0.05,-0.648 -0.047,-0.434 -0.098,-0.304 h 0.387 l 0.336,0.129 0.336,0.132 0.293,0.086 0.285,0.043 0.34,0.086 0.386,0.047 0.336,0.176 0.434,0.125 0.289,0.133 0.336,0.129 0.34,0.043 0.382,0.347 0.145,0.258 -0.336,0.133 -0.578,0.172 -0.289,0.043 -0.336,0.086 -0.34,0.043 -0.336,0.086 h -0.289 l -0.289,0.046 h -0.723"
           style="fill:none;stroke:#13498b;stroke-width:0.99975;stroke-linecap:round;stroke-linejoin:round;stroke-miterlimit:10;stroke-dasharray:none;stroke-opacity:1"
           id="path84" /></g><g
         id="g86"><path
           d="m 122.172,56.996 0.531,-0.043 h 0.481 l 0.433,-0.043 0.578,-0.043 h 0.387 l 0.387,-0.043 h 0.285 l 0.434,-0.043 0.289,-0.043 v 0.348"
           style="fill:none;stroke:#13498b;stroke-width:0.99975;stroke-linecap:round;stroke-linejoin:round;stroke-miterlimit:10;stroke-dasharray:none;stroke-opacity:1"
           id="path88" /></g><g
         id="g90"><path
           d="m 136.145,50.191 h -0.34 l -0.145,-0.261 -0.144,-0.344 -0.047,-0.391 -0.098,-0.437 v -1.254 l 0.145,-0.391 0.144,-0.433 0.242,-0.344 0.286,-0.309 0.339,-0.3 0.387,-0.176 0.383,-0.172 0.48,-0.043 0.438,-0.043 h 0.48 l 0.336,0.086 0.434,0.172 0.433,0.176 0.34,0.3 0.383,0.434 0.289,0.437 0.192,0.606 0.195,0.691 0.047,0.782 0.051,0.867 v 0.91 l -0.098,0.957 -0.195,0.949 -0.336,0.957 -0.383,0.91 -0.438,0.825 -0.336,0.562 -0.433,0.52 -0.434,0.304 -0.433,0.215 -0.383,0.176 -0.387,0.043 -0.434,-0.086 -0.242,-0.219 -0.144,-0.566 -0.047,-0.606 0.144,-0.39 0.336,-0.52 0.34,-0.258 0.242,-0.175 0.43,-0.215 0.289,-0.133 0.34,-0.039 0.383,-0.047 0.578,-0.039 0.289,0.086 0.195,0.476"
           style="fill:none;stroke:#13498b;stroke-width:0.99975;stroke-linecap:round;stroke-linejoin:round;stroke-miterlimit:10;stroke-dasharray:none;stroke-opacity:1"
           id="path92" /></g><g
         id="g94"><path
           d="m 133.734,59.945 0.434,-0.043 0.387,-0.043 0.574,-0.047 h 1.734 l 0.629,-0.039 h 0.723 l 0.769,-0.046 0.821,-0.043 0.816,-0.043 0.774,-0.043 h 3.179 l 0.383,0.043 -0.34,0.043"
           style="fill:none;stroke:#13498b;stroke-width:0.99975;stroke-linecap:round;stroke-linejoin:round;stroke-miterlimit:10;stroke-dasharray:none;stroke-opacity:1"
           id="path96" /></g><g
         id="g98"><path
           d="m 136.383,66.445 -0.195,-0.3 -0.047,-0.477 v -0.434 l 0.144,-0.433 0.195,-0.262 0.43,-0.391 0.242,-0.3 0.336,-0.176 0.289,-0.211 0.289,-0.133 0.289,-0.043 h 0.293 l 0.336,0.129 0.578,0.348 0.192,0.347 0.242,0.258 0.289,0.348 0.141,0.344 0.195,0.347 0.145,0.477 0.144,0.48 0.098,0.563 0.094,0.605 0.05,0.653 v 1.429 l -0.05,0.692 v 0.609 l -0.094,0.477 -0.145,0.3 -0.289,0.219 -0.289,0.176 -0.437,0.129 -0.719,0.129 -0.481,-0.043 -0.386,-0.129 -0.434,-0.133 -0.289,-0.172 -0.242,-0.305 -0.192,-0.433 -0.046,-0.301 0.093,-0.609 0.387,-0.52 0.336,-0.304 0.676,-0.348 0.383,-0.086 0.293,-0.082 0.335,-0.09 0.286,-0.043 h 0.871"
           style="fill:none;stroke:#13498b;stroke-width:0.99975;stroke-linecap:round;stroke-linejoin:round;stroke-miterlimit:10;stroke-dasharray:none;stroke-opacity:1"
           id="path100" /></g><g
         id="g102"><path
           d="m 138.551,79.844 v -0.305 l 0.144,-0.348 0.192,-0.476 0.289,-0.563 0.433,-0.652 0.387,-0.777 0.481,-0.911 0.48,-0.996 0.481,-1.128 0.535,-1.086 0.48,-1.125 0.383,-1.082 0.387,-0.957 0.289,-0.825 0.242,-0.691 0.144,-0.52 0.047,-0.347 0.047,-0.477 -0.144,0.52 -0.094,0.433 -0.098,0.477 -0.051,0.476 -0.046,0.477 v 0.824 l 0.097,0.52 0.192,0.304 0.336,0.086 0.339,-0.086 0.532,-0.39 0.336,-0.348 0.242,-0.433 0.285,-0.477 0.195,-0.52 0.192,-0.519 0.144,-0.52 0.098,-0.433 0.047,-0.348 0.051,-0.305 v -0.3 l 0.046,0.519 0.094,0.477 0.098,0.605 0.097,0.567 0.047,0.519 0.098,0.477 0.047,0.433 0.191,0.477 0.145,0.433 0.195,0.438 0.289,0.344 0.145,0.3"
           style="fill:none;stroke:#13498b;stroke-width:0.99975;stroke-linecap:round;stroke-linejoin:round;stroke-miterlimit:10;stroke-dasharray:none;stroke-opacity:1"
           id="path104" /></g><g
         id="g106"><path
           d="m 148.906,62.805 -0.191,-0.258 0.14,-0.434 0.293,-0.043 0.625,-0.09 0.387,0.133 0.285,0.434 0.051,0.476 v 0.391 l -0.094,0.606 -0.293,0.39 -0.242,0.262 -0.336,0.348 -0.238,0.214 0.238,0.262 0.293,0.09 0.578,0.125 0.286,0.043 0.578,0.086 0.531,0.262"
           style="fill:none;stroke:#13498b;stroke-width:0.99975;stroke-linecap:round;stroke-linejoin:round;stroke-miterlimit:10;stroke-dasharray:none;stroke-opacity:1"
           id="path108" /></g><g
         id="g110"><path
           d="m 7.559,19.754 -0.18,0.508 -0.055,0.324 -0.058,0.5 -0.059,0.324 v 1.008 l 0.059,0.551 0.058,0.414 0.055,0.367 v 0.371"
           style="fill:none;stroke:#62a0ea;stroke-width:0.907789;stroke-linecap:round;stroke-linejoin:round;stroke-miterlimit:10;stroke-dasharray:none;stroke-opacity:1"
           id="path112" /></g><g
         id="g114"><path
           d="M 6.801,19.48 6.508,19.664 6.273,19.891 5.984,20.121 5.691,20.305 5.227,20.586 4.645,20.902 4.352,21.18 3.715,21.453 3.246,21.82 2.723,22.281 2.316,22.602 1.965,22.879 1.617,23.062 1.266,23.199 0.801,23.34 0.453,23.383 0.977,23.43 h 1.105 l 1.047,0.047 0.527,0.089 0.524,0.094 0.523,0.137 0.524,0.094 0.41,0.089 0.812,0.188 0.41,0.18 0.407,0.093 v 0.368"
           style="fill:none;stroke:#62a0ea;stroke-width:0.907789;stroke-linecap:round;stroke-linejoin:round;stroke-miterlimit:10;stroke-dasharray:none;stroke-opacity:1"
           id="path116" /></g><g
         id="g118"><path
           d="m 275.676,11.988 h 65.961 v 60.879 h -65.961 z"
           style="fill:none;stroke:#008000;stroke-width:1.41;stroke-linecap:round;stroke-linejoin:round;stroke-miterlimit:10;stroke-dasharray:none;stroke-opacity:1"
           id="path120" /></g><g
         id="g122"><path
           d="m 291.363,12.418 -0.051,0.543 v 1.086 l -0.05,0.664 -0.051,0.601 v 0.426 l -0.051,0.598 v 1.387 l -0.051,0.968 v 3.438 l -0.05,0.902 v 16.524 l 0.05,1.203 v 1.207 l 0.051,1.203 v 4.402 l 0.051,1.09 v 1.145 l 0.051,1.144 v 7.84 l 0.05,0.902 v 0.786 l 0.051,0.843 v 1.508 l -0.051,0.66 v 0.668 l -0.05,0.66 -0.051,0.727 -0.051,0.781 v 0.727 l -0.051,0.597 -0.101,0.969 -0.051,0.481 -0.105,0.847 -0.098,0.481 -0.055,0.48 v 0.43"
           style="fill:none;stroke:#008000;stroke-width:1.61526;stroke-linecap:round;stroke-linejoin:round;stroke-miterlimit:10;stroke-dasharray:none;stroke-opacity:1"
           id="path124" /></g><g
         id="g126"><path
           d="m 310.762,13.105 0.308,0.047 v 0.868 l -0.05,0.621 v 1.773 l -0.051,1.055 v 1.101 l -0.051,1.106 -0.051,1.203 -0.051,1.191 -0.054,1.25 -0.051,1.34 v 1.344 l -0.047,1.535 V 45.52 l 0.047,1.441 v 1.34 l 0.051,1.246 v 14.48 l -0.051,0.528 -0.047,0.621 -0.105,0.383 -0.051,0.578 v 0.332 l -0.051,0.769 -0.051,0.621 v 0.77 l -0.101,1.148 -0.051,0.481 v 1.969 -0.817"
           style="fill:none;stroke:#008000;stroke-width:1.44036;stroke-linecap:round;stroke-linejoin:round;stroke-miterlimit:10;stroke-dasharray:none;stroke-opacity:1"
           id="path128" /></g><g
         id="g130"><path
           d="m 328.48,19.773 -0.511,-0.207 -0.254,-0.3 -0.051,-0.407 -0.102,-0.511 V 17.84"
           style="fill:none;stroke:#008000;stroke-width:1.48377;stroke-linecap:round;stroke-linejoin:round;stroke-miterlimit:10;stroke-dasharray:none;stroke-opacity:1"
           id="path132" /></g><g
         id="g134"><path
           d="m 327.816,14.098 0.102,0.461 -0.051,0.711 v 3.46 l -0.051,0.711 v 0.77 l -0.05,0.809 -0.051,0.765 -0.051,0.863 v 1.981 l -0.051,1.223 V 37.25 l 0.051,1.422 v 1.531 l 0.051,1.473 v 24.523 l -0.051,0.715 v 0.965 l -0.102,0.613 -0.05,0.508 -0.106,0.508 v 0.508"
           style="fill:none;stroke:#008000;stroke-width:1.48377;stroke-linecap:round;stroke-linejoin:round;stroke-miterlimit:10;stroke-dasharray:none;stroke-opacity:1"
           id="path136" /></g><g
         id="g138"><path
           d="m 340.918,23.848 -0.582,-0.051 h -1.16 l -0.711,-0.051 -0.649,-0.055 h -0.453 l -0.644,-0.046 h -1.485 l -1.035,-0.051 h -3.683 l -0.969,-0.055 h -17.711 l -1.293,0.055 h -1.293 l -1.289,0.051 h -4.719 l -1.164,0.046 h -1.226 l -1.231,0.055 h -8.398 l -0.969,0.051 h -0.844 l -0.902,0.051 h -1.617 l -0.707,-0.051 h -0.715 l -0.711,-0.051 -0.778,-0.055 -0.835,-0.046 h -0.778 l -0.644,-0.051 -0.52,-0.055 -0.515,-0.051 -0.516,-0.047 -0.906,-0.105 -0.52,-0.102 -0.516,-0.05 h -0.453"
           style="fill:none;stroke:#008000;stroke-width:1.67224;stroke-linecap:round;stroke-linejoin:round;stroke-miterlimit:10;stroke-dasharray:none;stroke-opacity:1"
           id="path140" /></g><g
         id="g142"><path
           d="m 340.867,40.379 -0.051,0.305 h -0.925 l -0.668,-0.051 h -1.903 l -1.129,-0.047 h -1.179 l -1.184,-0.055 -2.57,-0.101 -1.336,-0.051 -1.438,-0.055 h -1.437 l -1.649,-0.047 h -19.269 l -1.539,0.047 h -1.442 l -1.336,0.055 h -15.519 l -0.563,-0.055 -0.668,-0.047 -0.414,-0.105 -0.617,-0.051 h -0.359 l -0.82,-0.051 -0.668,-0.05 h -0.825 l -0.617,-0.051 -0.613,-0.051 -0.516,-0.051 h -2.109 0.875"
           style="fill:none;stroke:#008000;stroke-width:1.49117;stroke-linecap:round;stroke-linejoin:round;stroke-miterlimit:10;stroke-dasharray:none;stroke-opacity:1"
           id="path144" /></g><g
         id="g146"><path
           d="m 329.5,56.867 0.219,-0.512 0.324,-0.253 0.437,-0.051 0.547,-0.102 h 0.547"
           style="fill:none;stroke:#008000;stroke-width:1.5361;stroke-linecap:round;stroke-linejoin:round;stroke-miterlimit:10;stroke-dasharray:none;stroke-opacity:1"
           id="path148" /></g><g
         id="g150"><path
           d="m 336.883,56.164 -0.496,0.102 -0.762,-0.051 h -3.707 l -0.766,-0.051 h -0.816 l -0.871,-0.051 -0.82,-0.051 -0.926,-0.054 h -2.125 l -1.313,-0.047 h -12.215 l -1.523,0.047 h -1.637 l -1.582,0.054 h -26.285 l -0.766,-0.054 h -1.035 l -0.652,-0.098 -0.547,-0.055 -0.543,-0.101 h -0.547"
           style="fill:none;stroke:#008000;stroke-width:1.5361;stroke-linecap:round;stroke-linejoin:round;stroke-miterlimit:10;stroke-dasharray:none;stroke-opacity:1"
           id="path152" /></g><g
         id="g154"><path
           d="m 344,6.613 0.355,-0.047 0.411,-0.046 h 0.457 l 0.511,-0.043 0.614,-0.047 0.664,-0.047 h 0.613 l 0.461,-0.047 0.508,-0.043 0.867,-0.094 h 0.41"
           style="fill:none;stroke:#000000;stroke-width:1.41;stroke-linecap:round;stroke-linejoin:round;stroke-miterlimit:10;stroke-dasharray:none;stroke-opacity:1"
           id="path156" /></g><g
         id="g158"><path
           d="m 353.137,2.34 0.105,0.457 0.098,0.367 0.055,0.465 0.05,0.5 0.047,0.555 V 6.66 l 0.055,0.735 v 0.777 l 0.051,0.789 v 2.66"
           style="fill:none;stroke:#000000;stroke-width:1.41;stroke-linecap:round;stroke-linejoin:round;stroke-miterlimit:10;stroke-dasharray:none;stroke-opacity:1"
           id="path160" /></g><g
         id="g162"><path
           d="m 193.344,44.336 63,-0.086"
           style="fill:none;stroke:#ff0000;stroke-width:0.85;stroke-linecap:round;stroke-linejoin:round;stroke-miterlimit:10;stroke-dasharray:none;stroke-opacity:1"
           id="path164" /></g><g
         id="g166"><g
           id="g168" /><g
           id="g182"><g
             clip-path="url(#clipPath172)"
             id="g180"><g
               id="g178"><g
                 id="g176"><path
                   d="m 206.82,26.094 -0.152,0.277 -0.203,0.231 -0.356,0.32 -0.308,-0.094 -0.254,-0.183 -0.512,-0.457 -0.203,-0.227 -0.355,-0.465 -0.258,-0.273 -0.203,-0.231 -0.258,-0.23 -0.254,-0.184 -0.203,-0.23 -0.254,-0.227 -0.309,-0.234 -0.304,-0.274 -0.258,-0.273 0.101,-0.324 h 0.309 v -0.368 l 0.102,-0.32 0.05,-0.461 0.203,-0.23 0.563,-0.047 0.406,0.047 0.461,0.047 0.512,0.046 0.461,0.09 0.304,0.094 0.411,0.09 0.304,0.094 0.36,0.136 0.304,0.094 0.411,0.184 0.457,0.043 0.511,0.047 0.461,0.136 0.457,0.098 0.461,0.043 h 0.305 l 0.305,0.043 0.308,-0.043 h 0.664 l 0.41,-0.043 h 1.989 l 0.511,0.086 0.356,0.047 0.41,0.136 0.406,0.188 0.563,0.09 0.41,0.047 h 1.176 l 0.507,-0.09 0.512,-0.141 0.305,-0.043 0.562,-0.14 0.563,-0.137 0.355,-0.094 0.309,-0.09 0.559,-0.093 0.41,-0.09 0.308,-0.047 0.407,-0.137 0.355,-0.137 0.41,-0.14 0.41,-0.184 0.305,-0.23 0.457,-0.184 0.309,-0.09 0.355,-0.093 0.359,-0.09 0.715,-0.188 0.563,-0.043 0.609,-0.094 0.461,-0.089 0.309,-0.094 0.406,-0.086 0.359,-0.145 0.457,-0.089 0.461,-0.047 0.512,-0.09 0.609,-0.094 h 0.563 l 0.613,-0.094 0.664,-0.089 1.328,-0.094 h 0.664 l 0.407,-0.043 h 0.664 l 0.461,-0.047 h 0.304 l 0.563,-0.043 h 0.406 l 0.563,-0.094 0.308,-0.047 0.406,-0.136 0.411,-0.047 0.355,-0.047 0.563,-0.047 0.714,-0.043 h 4.493 l 0.304,0.043 0.309,0.094 0.355,0.09 0.411,0.367 h 0.308 l 0.152,0.644 v 0.321 l 0.051,1.011 0.051,0.598 v 1.793 l 0.051,0.418 v 0.406 l 0.051,0.461 v 0.414 l 0.05,0.324 0.051,0.411 0.051,0.507 0.051,0.457 v 3.907 l 0.05,0.644 0.102,1.195 0.055,0.594 0.051,0.598 v 0.555 l 0.046,0.55 v 4.825 l -0.046,0.41 v 2.851 l -0.051,0.461 v 5.649 l 0.051,0.367 0.046,0.414 0.055,0.371 0.051,0.688 0.051,0.414 v 0.367 l 0.05,0.781 v 2.848 l 0.051,0.457 0.051,0.367 0.102,0.644 0.05,0.508 0.051,0.321 v 2.386 l 0.055,0.324 0.047,0.551 v 0.414 l -0.047,0.368 -0.106,0.367 -0.507,0.23 -0.461,0.231 -0.461,0.136 -0.356,0.094 -0.308,0.09 -0.356,0.047 -0.562,0.047 h -0.614 l -0.457,0.043 -0.41,0.047 h -2.094 l -0.511,0.046 -0.762,0.047 h -1.688 l -0.355,-0.047 h -0.563 l -0.613,-0.046 h -4.902 l -0.356,0.046 h -0.359 l -0.508,0.047 h -3.113 l -0.871,0.043 -0.613,0.094 -0.457,0.137 -0.715,0.093 -0.407,0.047 h -0.769 l -0.664,0.043 -0.766,0.047 -0.558,-0.047 h -0.766 l -0.309,-0.043 h -0.355 L 220.25,64.23 h -1.941 l -0.305,-0.046 h -0.613 l -0.512,-0.047 h -2.805 l -0.664,-0.043 h -5.719 l -0.41,0.09 -0.406,0.093 -0.461,0.137 -0.305,0.09 -0.308,0.047 -0.817,0.277 -0.507,0.184 -0.411,0.23 -0.562,0.184 -0.305,0.09 -0.308,0.093 h -0.356 l -0.305,-0.14 -0.257,-0.321 -0.203,-0.414 -0.258,-0.597 -0.051,-0.457 -0.102,-0.368 v -0.371 l -0.05,-0.457 V 48.516 l 0.05,-0.598 0.055,-0.551 0.047,-0.551 v -0.55 l 0.051,-0.508 v -0.504 l 0.054,-0.461 0.098,-0.457 0.055,-0.457 0.051,-0.461 0.05,-0.457 v -3.449 l -0.05,-0.414 -0.051,-0.461 -0.055,-0.504 -0.047,-0.504 -0.051,-0.508 v -1.426 l 0.051,-0.41 v -0.414 l 0.047,-0.324 V 32.16 l -0.047,-0.414 -0.051,-0.781 -0.207,-0.461 -0.101,-0.32 0.051,-0.325 0.461,0.508 0.253,0.461 0.305,0.688 0.36,0.734 0.253,0.781 0.411,0.918 0.406,0.965 0.41,1.012 0.461,1.012 0.457,1.054 0.461,1.059 0.457,1.058 0.512,0.961 0.461,0.922 0.507,0.918 0.461,0.918 0.461,0.828 0.406,0.828 0.309,0.688 0.356,0.461 0.308,0.367 0.356,0.184 0.41,0.093 0.41,0.043 h 0.508 l 0.562,-0.043 0.563,-0.183 0.664,-0.324 0.711,-0.415 0.719,-0.503 0.816,-0.598 0.816,-0.734 0.868,-0.782 0.867,-0.875 0.765,-0.965 0.766,-1.101 0.664,-1.149 0.562,-1.195 0.563,-1.191 0.406,-1.2 0.36,-1.148 0.254,-1.055 0.152,-0.964 0.152,-0.782 0.051,-0.734 0.055,-0.645 0.047,-0.64 V 28.07 l -0.047,0.321 -0.106,0.828 -0.101,1.148 -0.254,1.285 -0.203,1.426 -0.309,1.426 -0.305,1.558 -0.203,1.61 -0.207,1.707 -0.051,1.691 -0.05,1.703 0.05,1.469 0.204,1.289 0.257,1.008 0.356,0.738 0.355,0.594 0.36,0.371 0.308,0.227 0.356,0.14 h 0.308 l 0.305,-0.14 0.305,-0.227 0.41,-0.371 0.406,-0.641 0.41,-0.781 0.563,-0.918 0.508,-1.011 0.613,-1.102 0.562,-1.289 0.563,-1.332 0.562,-1.469 0.457,-1.473 0.512,-1.468 0.305,-1.473 0.258,-1.422 0.203,-1.379 0.05,-1.195 0.153,-1.332 -0.305,0.918 -0.203,1.195 -0.258,1.516 -0.203,1.793 -0.101,1.836 v 3.906 l 0.152,1.93 0.203,1.746 0.258,1.469 0.254,1.148 0.203,0.828 0.308,0.508 0.305,0.367 0.36,-0.137 0.203,-0.273 0.304,-0.508 0.254,-0.734 0.207,-0.922 0.203,-1.055 0.254,-1.152 0.207,-1.192 0.153,-1.195 0.152,-1.238 0.051,-1.242 v -1.149 l 0.051,-1.148 -0.051,-1.106 V 34.73 l -0.051,-0.781 -0.051,-0.457 -0.051,-0.32 -0.05,0.504 v 1.883 l 0.05,1.379 0.102,1.425 0.156,1.422 0.153,1.336 0.152,1.238 0.203,1.196 0.102,1.011 0.101,0.825 0.051,0.597 0.055,0.367 0.304,-0.226 0.153,-0.371 0.101,-0.32 0.106,-0.321 V 44.75 l 0.097,-0.324 0.157,-0.274 0.152,-0.324 0.152,-0.273"
                   style="fill:none;stroke:#f66151;stroke-width:19.84;stroke-linecap:round;stroke-linejoin:round;stroke-miterlimit:10;stroke-dasharray:none;stroke-opacity:0.470588"
                   id="path174" /></g></g></g></g></g><g
         id="g184"><path
           d="M 224.234,13.23 V 74.387"
           style="fill:none;stroke:#ff0000;stroke-width:0.85;stroke-linecap:round;stroke-linejoin:round;stroke-miterlimit:10;stroke-dasharray:none;stroke-opacity:1"
           id="path186" /></g><g
         id="g188"><path
           d="m 192.223,11.574 h 65.195 v 64.055 h -65.195 z"
           style="fill:none;stroke:#ff0000;stroke-width:0.85;stroke-linecap:round;stroke-linejoin:round;stroke-miterlimit:10;stroke-dasharray:none;stroke-opacity:1"
           id="path190" /></g><g
         id="g192"><g
           id="g194" /><g
           id="g208"><g
             clip-path="url(#clipPath198)"
             id="g206"><g
               id="g204"><g
                 id="g202"><path
                   d="m 284.316,21.223 -0.152,0.277 0.305,0.184 0.613,0.136 0.309,0.09 0.355,0.051 0.41,0.043 0.305,0.09 0.461,0.047 0.41,0.047 0.508,0.046 0.41,0.047 h 0.457 l 0.461,0.047 h 0.508 l 0.512,0.043 0.562,0.047 0.512,0.047 0.355,0.047 0.41,0.043 0.407,0.047 h 1.586 l 0.457,0.046 h 0.461 l 0.664,0.047 0.613,-0.047 h 1.121 l 0.562,-0.046 h 1.02 l 0.512,-0.047 h 1.886 l 0.461,-0.043 h 0.77 l 0.406,-0.047 0.457,-0.047 0.461,-0.047 0.563,-0.043 0.511,-0.047 h 0.559 l 0.664,-0.047 h 0.664 l 1.992,-0.14 0.61,-0.043 0.566,-0.047 0.609,-0.043 0.563,-0.051 0.613,-0.09 0.559,-0.047 0.613,-0.089 0.563,-0.047 0.613,-0.09 h 0.562 l 0.559,-0.047 0.566,-0.047 0.457,-0.09 0.512,-0.047 0.457,-0.046 0.512,-0.047 0.461,-0.043 0.508,-0.051 0.82,-0.09 0.457,-0.047 0.41,-0.047 0.816,-0.043 h 0.559 l 0.309,-0.047 h 0.304 l 0.512,-0.046 h 0.41 l 0.305,-0.047 0.355,-0.043 h 0.871 l 0.407,0.043 0.41,0.047 0.355,0.093 0.614,0.184 0.304,0.094 0.41,0.09 0.309,0.093 0.305,0.043 0.359,0.047 h 0.508 l 0.512,0.047 0.304,0.047 h 0.309 l 0.305,0.043 0.406,0.047 0.258,0.183 0.308,0.231 0.153,0.277 0.101,0.32 0.051,0.368 0.051,0.504 v 0.597 l 0.051,0.367 0.05,0.414 0.102,0.461 0.101,0.321 0.051,0.597 0.051,0.461 v 0.782 l -0.051,0.32 V 30 l -0.051,0.461 v 2.293 l -0.05,0.601 v 4.454 l 0.05,0.507 0.051,0.594 0.051,0.738 0.102,0.688 0.054,0.691 0.051,0.457 0.051,0.551 v 2.895 l 0.051,0.597 0.101,0.461 0.051,0.461 0.101,0.457 0.051,0.508 0.102,0.734 v 0.457 l 0.051,0.606 0.105,0.406 0.047,0.367 0.055,0.414 v 1.84 l -0.055,0.641 v 0.555 l -0.047,0.597 -0.051,0.555 v 1.832 l -0.054,0.418 v 2.109 l -0.153,0.461 -0.101,0.41 -0.051,0.418 -0.305,0.321 h -0.511 l -0.309,-0.047 -0.457,-0.047 -0.359,-0.09 -0.305,-0.183 -0.36,-0.137 -0.507,-0.141 -0.512,-0.094 -0.41,-0.089 -0.508,-0.094 -0.461,-0.043 -0.457,-0.094 -0.512,-0.047 -0.359,-0.043 -0.457,-0.094 h -7.199 l -0.614,0.047 -0.406,0.047 h -1.789 l -0.41,0.043 -0.66,0.094 -0.36,0.047 -0.664,0.137 -0.613,0.089 -0.406,0.047 -0.36,0.047 -0.765,0.09 h -0.918 l -0.918,0.094 -0.406,0.047 -0.719,0.047 h -0.559 l -0.613,0.046 -0.41,0.043 h -0.664 l -0.664,0.094 -0.457,0.043 -0.41,0.047 -0.461,0.047 -0.457,0.047 -0.563,0.09 -0.457,0.046 -0.562,0.137 -0.411,0.094 -0.355,0.043 -0.41,0.094 -0.356,0.14 -0.461,0.137 -0.664,0.273 -0.308,0.094 -0.305,0.043 -0.457,0.141 -0.715,0.183 -0.359,0.141 -0.664,0.227 -0.614,0.089 -0.457,0.094 -0.714,0.184 -0.36,0.09 -0.355,0.093 -0.512,0.098 h -0.715 l -0.41,0.043 -0.356,0.043 h -2.093 l -0.407,-0.043 -0.41,-0.043 -0.304,-0.191 -0.411,-0.227 -0.253,-0.184 -0.411,-0.23 -0.304,-0.137 -0.258,-0.23 -0.356,-0.278 -0.304,-0.32 -0.203,-0.324 -0.258,-0.504 -0.153,-0.32 -0.203,-0.645 -0.105,-0.32 -0.203,-0.414 -0.203,-0.551 -0.309,-0.324 -0.102,-0.457 -0.101,-0.508 -0.152,-0.551 -0.102,-0.41 v -0.414 l -0.051,-0.602 v -0.359 l -0.051,-0.606 v -2.937 l 0.102,-0.598 0.051,-0.367 0.051,-0.598 v -4.136 l -0.051,-0.688 v -6.847 l 0.051,-0.504 0.05,-0.461 0.051,-0.41 v -0.508 l 0.051,-0.457 v -2.715 l 0.051,-0.41 V 32.02 h 0.355 l 0.36,0.597 0.257,0.367 0.305,0.555 0.309,0.688 0.355,0.824 0.356,0.922 0.359,1.054 0.457,1.102 0.41,1.105 0.512,1.102 0.508,1.059 0.461,0.964 0.511,0.829 0.457,0.691 0.512,0.547 0.461,0.461 0.461,0.367 0.508,0.367 0.355,0.231 0.461,0.234 0.41,0.18 0.715,0.136 0.305,0.09 h 0.816 l 0.406,-0.137 0.512,-0.183 0.512,-0.277 0.562,-0.411 0.563,-0.461 0.609,-0.55 0.614,-0.551 0.613,-0.645 0.613,-0.734 0.563,-0.781 0.562,-0.875 0.512,-0.871 0.406,-0.828 0.41,-0.735 0.356,-0.598 0.203,-0.503 0.203,-0.372 0.102,-0.363 0.207,-0.324 0.152,-0.367 0.203,-0.504 0.207,-0.461 0.406,-1.102 0.153,-0.55 0.207,-0.508 0.152,-0.41 0.152,-0.371 0.153,-0.368 0.207,-0.55 0.203,-0.231 -0.309,0.184 -0.304,0.281 -0.512,0.41 -0.559,0.551 -0.511,0.641 -0.563,0.781 -0.41,0.922 -0.406,1.054 -0.41,1.102 -0.305,1.105 -0.305,1.149 -0.258,1.148 -0.152,1.059 -0.102,1.101 -0.05,1.012 0.152,1.008 0.152,0.965 0.309,0.785 0.355,0.547 0.356,0.324 0.41,0.277 0.512,0.184 0.562,0.137 0.61,0.043 0.718,-0.18 0.762,-0.324 0.817,-0.551 0.921,-0.828 0.918,-1.102 1.02,-1.332 0.973,-1.472 1.07,-1.606 0.972,-1.699 0.918,-1.703 0.817,-1.742 0.613,-1.657 0.457,-1.609 0.41,-1.422 0.305,-1.148 0.309,-1.153 v -0.32 l -0.051,0.691 v 0.871 l -0.051,1.149 -0.055,1.379 v 8.594 l 0.055,1.789 0.051,1.562 0.051,1.289 0.101,0.969 0.153,0.73 0.101,0.461 0.152,0.411 0.157,0.277 0.203,0.32 0.203,0.367 0.051,0.461 -0.051,0.457 -0.051,0.368 v 0.738 l 0.102,0.367 0.05,0.32 0.208,0.414 0.203,0.602 0.101,0.5 0.051,0.414 0.102,0.418 0.101,0.363 0.152,0.461 0.208,0.231 0.359,0.179 0.305,0.188 0.304,0.23 0.512,0.227 0.359,0.371 0.254,0.32 0.305,0.231 0.258,0.324 0.457,0.223 0.41,0.277 0.254,0.324 0.406,0.227 0.258,0.23 0.254,0.184 0.308,0.328 0.153,0.269 0.254,0.231 0.308,0.32 0.102,0.324 0.101,0.321 0.203,0.504 0.208,0.418 0.203,0.363 0.203,0.277 0.308,0.367 0.204,0.231 0.355,0.23 0.207,0.274 v 0.371 l -0.359,0.183 -0.36,0.043 -0.406,0.094 -0.355,-0.183 -0.36,-0.18 -0.305,-0.191 -0.46,-0.227 -0.36,-0.184 -0.305,-0.093 -0.457,-0.18 -0.41,-0.188 -0.308,-0.043 -0.305,-0.05 -0.305,-0.043 -0.715,-0.094 -0.308,-0.047 h -2.195 l -0.563,0.047 -0.457,0.047 h -3.316 l -0.821,-0.094 -0.355,-0.043 -0.613,-0.047 h -0.356 l -0.308,-0.047 -0.356,-0.047 -0.309,-0.042 -0.304,-0.047 h -0.309 l -0.355,-0.047 -0.41,-0.09 h -2.86 l -0.305,-0.047 h -1.121 l -0.359,-0.047 h -4.391 l -0.562,0.094 h -1.02 l -0.562,0.043 -0.356,0.047 h -0.816 l -0.461,0.047 -0.41,0.047 -0.457,0.042 -0.461,0.047 h -0.305 l -0.359,0.137 -0.305,0.094 -0.308,0.09 -0.407,0.093 -0.461,0.047 -0.304,0.047 -0.512,0.094 -0.563,0.137 -0.304,0.09 -0.918,0.23 -0.41,0.137 -0.309,0.136 -0.406,0.231 -0.41,0.183 -0.508,0.278 -0.461,0.367 -0.309,0.184 -0.457,0.32 -0.304,0.094 -0.461,0.226 -0.254,0.184 -0.36,0.051 -0.304,0.043 -0.309,0.046 h -0.305 l -0.359,0.047 0.309,-0.23 0.355,-0.184 0.41,-0.093 0.406,-0.137 0.36,-0.184 0.715,-0.32 0.355,-0.188 0.309,-0.089 0.558,-0.184 0.36,-0.094 0.664,-0.137 h 0.305 l 0.308,-0.043 0.457,-0.093 h 0.461 l 0.512,-0.047 0.457,-0.043 h 0.461 l 0.461,-0.043 h 0.457 l 0.308,-0.051 h 0.356 l 0.41,-0.047 0.66,-0.047 h 2.149 l 0.507,0.047 0.309,0.047 0.559,0.094 0.46,0.043 0.461,0.047 0.868,0.093 h 3.214 l 0.512,0.043 h 0.563 l 0.562,0.047 h 0.559 l 0.562,0.09 0.563,0.047 0.508,0.137 0.871,0.14 0.406,0.09 0.41,0.047 L 310,64 h 1.324 l 0.36,0.047 0.406,0.047 0.715,0.136 0.355,0.09 0.309,0.094 0.355,0.09 0.309,0.094 0.461,0.09 0.613,0.093 0.406,0.043 0.715,0.094 0.563,0.047 0.613,0.043 h 1.43 l 0.507,-0.043 0.461,-0.047 0.356,-0.047 0.512,-0.047 0.304,-0.043 0.309,-0.093 1.226,-0.368 0.407,-0.136 0.355,-0.047 0.359,-0.137 0.305,-0.094 0.512,-0.183 0.461,-0.137 0.355,-0.137 0.563,-0.137 0.308,-0.046 0.508,-0.094 0.461,-0.043 0.406,-0.043 0.411,-0.051 0.406,-0.047 0.562,-0.093 h 3.676 l 0.563,0.191 h 0.613 l 0.355,0.086 0.157,0.277"
                   style="fill:none;stroke:#008000;stroke-width:19.84;stroke-linecap:round;stroke-linejoin:round;stroke-miterlimit:10;stroke-dasharray:none;stroke-opacity:0.470588"
                   id="path200" /></g></g></g></g></g><g
         id="g210"><g
           id="g212" /><g
           id="g226"><g
             clip-path="url(#clipPath216)"
             id="g224"><g
               id="g222"><g
                 id="g220"><path
                   d="m 513.684,31.77 -0.407,0.269 -0.265,-0.215 0.199,-0.316 0.402,-0.055 h 1.477 l 0.539,0.055 0.539,0.051 0.402,0.054 0.336,0.106 0.606,0.16 0.402,0.051 0.406,0.265 h 0.871 l 0.473,0.16 0.266,0.211 0.34,0.317 0.332,0.105 v 3.34 l -0.067,0.426 -0.066,0.48 -0.067,0.317 -0.203,0.527 -0.137,0.481 -0.062,0.32 -0.07,0.687 -0.067,0.372 -0.066,0.636 -0.07,0.422 -0.063,0.582 v 0.531 l -0.07,0.321 v 1.164 l -0.067,0.426 -0.07,0.476 v 1.856 l -0.062,0.687 -0.137,0.32 -0.133,0.477 -0.066,0.742 -0.071,0.367 v 0.903 l -0.066,0.32 v 0.582 l -0.067,0.422 -0.136,0.531 -0.199,0.637 -0.067,0.371 -0.133,0.48 -0.07,0.317 -0.066,0.476 v 0.321 l -0.071,0.476 v 1.907 l -0.062,0.425 v 0.899 l -0.137,0.375 -0.066,0.316 -0.336,0.106 h -1.817 l -0.398,0.105 h -0.406 l -0.606,0.106 -0.469,0.109 h -4.433 l -0.672,0.156 -0.875,0.32 -0.402,0.157 -0.473,0.054 -0.938,0.27 -0.472,0.102 -0.403,0.156 -0.605,0.16 -0.941,0.215 -0.602,0.16 -0.473,0.101 -0.601,0.161 -0.406,0.105 -0.403,0.106 -0.672,0.109 -0.535,0.051 h -0.808 l -0.469,0.054 -0.805,0.051 h -1.887 l -0.398,-0.051 h -1.211 l -0.469,-0.054 h -0.406 l -0.402,-0.051 -0.469,-0.055 -0.406,-0.054 -0.602,-0.106 -0.402,-0.105 -0.606,-0.106 -0.539,-0.156 -0.469,-0.109 -0.605,-0.106 -0.469,-0.16 -0.336,-0.106 -0.539,-0.105 -0.468,-0.105 -0.54,-0.055 -0.539,-0.106 -0.539,-0.05 -0.535,-0.055 -0.601,-0.055 -0.676,-0.105 -1.074,-0.051 h -0.606 l -0.605,-0.055 h -1.075 l -0.468,-0.051 -0.403,-0.054 h -4.703 l -1.074,0.105 -0.605,0.106 -0.672,0.054 -0.871,0.106 -0.813,0.105 -0.738,0.106 -0.735,0.16 -0.808,0.16 -0.805,0.16 -0.808,0.106 -0.805,0.16 -0.742,0.156 -0.805,0.106 -1.477,0.32 -0.804,0.105 -0.676,0.106 -0.605,0.105 -0.602,0.059 -0.539,0.047 -0.602,0.105 -0.472,0.055 h -0.539 l -0.536,0.051 h -0.539 l -0.605,0.054 -0.539,0.055 -0.535,0.051 -0.403,0.055 h -17.535 l -0.539,0.05 h -0.672 l -0.539,0.055 h -0.601 l -0.536,0.051 H 434 l -0.539,0.055 -0.606,0.05 h -0.535 l -0.605,0.059 h -1.277 l -0.606,0.047 h -0.605 l -0.606,0.054 h -0.469 l -0.539,0.055 -0.336,0.055 -0.468,0.051 -0.336,0.054 h -0.469 l -0.942,0.051 -0.402,0.055 h -0.469 l -0.472,0.051 h -0.942 l -0.336,0.054 -0.402,0.055 -0.402,0.051 -0.739,0.105 -0.605,0.055 -0.406,0.051 -0.668,0.054 -0.606,0.051 h -0.738 l -0.406,0.055 h -0.403 l -1.609,0.211 -0.605,0.109 h -0.54 l -1.007,0.051 h -0.672 l -0.469,0.055 -0.676,0.05 h -6.113 l -1.207,0.106 h -1.68 l -0.468,0.055 -0.407,0.05 -0.875,0.106 -0.871,0.109 -0.808,0.055 -0.602,0.051 -0.605,0.105 -0.54,0.051 -0.402,0.055 h -0.539 l -0.535,0.109 -0.738,0.105 -0.407,-0.054 -0.468,-0.11 -0.336,-0.105 -0.403,-0.106 -0.269,-0.211 -0.27,-0.265 -0.133,-0.477 v -1.644 l 0.067,-0.367 0.199,-0.801 0.137,-0.528 0.133,-0.476 0.203,-0.527 0.066,-0.426 0.137,-0.481 0.066,-0.476 0.133,-0.582 0.137,-0.532 0.133,-0.582 0.136,-0.476 0.063,-0.422 0.137,-0.375 0.203,-0.582 0.066,-0.371 0.199,-0.637 0.203,-0.582 0.067,-0.476 0.269,-0.743 0.067,-0.425 0.07,-0.317 0.063,-0.371 v -0.316 l 0.136,-0.477 0.067,-0.32 0.136,-0.586 v -7.684 l 0.067,-0.527 0.066,-0.481 v -4.082 l -0.066,-0.476 -0.067,-0.32 -0.07,-0.422 -0.066,-0.426 -0.067,-0.371 -0.136,-0.317 -0.063,-0.32 -0.137,-0.476 -0.132,-0.317 -0.539,-0.531 -0.336,-0.211 0.336,0.266 0.472,0.156 0.535,0.265 0.606,0.211 0.332,0.161 0.34,0.16 0.336,0.105 0.535,0.16 0.738,0.211 0.539,0.215 0.336,0.156 0.469,0.106 0.676,0.215 0.402,0.05 0.336,0.106 0.402,0.105 0.336,0.106 0.539,0.105 0.469,0.055 0.672,0.266 0.738,0.156 0.875,0.215 0.539,0.211 0.332,0.105 0.539,0.16 0.336,0.11 0.403,0.105 0.472,0.106 0.403,0.05 0.601,0.051 0.606,0.055 0.472,0.055 0.739,0.105 0.402,0.105 0.336,0.055 0.605,0.106 0.469,0.105 0.676,0.16 0.601,0.106 0.473,0.105 0.738,0.211 0.403,0.106 1.078,0.214 0.601,0.051 0.403,0.106 0.605,0.054 0.672,0.051 0.672,0.055 h 14.308 l 0.809,-0.055 h 0.809 l 0.804,-0.051 h 0.739 l 0.804,-0.054 h 0.739 l 0.808,-0.051 h 0.805 l 0.742,-0.055 0.805,-0.051 0.808,-0.054 h 0.871 l 0.872,-0.051 h 4.91 l 0.804,-0.055 h 10.684 l 0.668,0.055 h 0.809 l 0.804,0.051 0.805,0.054 0.809,0.051 0.875,0.055 0.804,0.051 0.942,0.054 0.937,0.051 0.945,0.055 0.872,0.055 0.941,0.05 0.871,0.055 0.875,0.055 0.875,0.05 h 0.805 l 0.808,0.055 h 0.805 L 477,38.504 h 1.543 l 0.738,0.055 0.672,0.05 0.672,0.106 h 0.672 l 0.672,0.055 h 0.672 l 0.675,0.054 h 0.602 l 0.672,0.055 h 4.433 l 0.872,0.051 0.406,0.05 h 3.156 l 0.473,-0.05 0.468,-0.051 0.407,-0.27 0.668,-0.531 0.406,-0.367 0.332,-0.266 0.473,-0.531 0.269,-0.371 0.332,-0.422 0.274,-0.48 0.199,-0.262 0.269,-0.371 0.27,-0.27 0.199,-0.261 0.203,-0.375 0.067,-0.313 -0.403,-0.215 -0.336,-0.054 -0.336,-0.106 0.137,-0.371 0.27,-0.207 0.332,-0.109 -0.332,-0.106 -0.813,-0.105 -0.805,-0.055 -0.539,-0.055 h -0.937 l -0.535,-0.051 -0.946,-0.054 h -0.605 l -0.805,-0.051 h -4.297 l -0.605,-0.055 h -2.488 l -0.739,0.106 -0.535,0.054 h -0.472 l -0.739,0.051 -0.539,0.055 -0.804,0.16 -0.403,0.051 -0.469,0.055 -0.941,0.109 -0.473,0.047 -0.402,0.105 -0.605,0.055 -0.805,0.055 h -0.809 l -0.402,0.054 h -0.402 l -0.469,0.051 h -6.785 l -0.742,-0.051 h -0.942 l -0.402,-0.054 h -0.403 l -0.402,-0.055 -0.539,-0.055 -0.402,-0.05 h -1.817 l -0.668,-0.055 h -0.539 l -0.535,-0.047 h -1.344 l -0.406,-0.059 -0.672,-0.05 h -5.441 l -0.871,0.05 -0.809,0.059 h -0.941 l -0.938,0.047 -0.543,0.055 h -0.937 l -0.805,0.05 -0.941,0.055 H 435.68 l -0.875,-0.055 h -0.606 l -0.804,-0.05 h -1.415 l -0.468,-0.055 h -1.008 l -0.809,-0.047 h -0.937 l -0.539,-0.059 h -0.469 l -0.402,-0.05 h -7.192 l -0.468,0.05 -0.469,0.059 h -0.407 l -0.402,0.047 -0.336,0.055 h -0.672 l -0.336,0.105 -0.402,0.055 -0.469,0.054 h -1.281 l -0.535,0.051 -0.469,0.055 h -9.945 l -0.067,0.476 v 2.438 l 0.067,0.793 0.066,0.851 0.137,0.848 0.133,0.742 0.137,0.637 0.335,0.793 0.27,0.375 0.266,0.262 0.269,0.265 0.133,0.317 0.605,-0.051"
                   style="fill:none;stroke:#8bc0ff;stroke-width:32.0396;stroke-linecap:round;stroke-linejoin:round;stroke-miterlimit:10;stroke-dasharray:none;stroke-opacity:0.329412"
                   id="path218" /></g></g></g></g></g><g
         id="g228"><path
           d="m 409.109,25.938 -0.175,0.429 -0.063,0.645 -0.117,0.859 -0.059,0.914 -0.062,0.91 v 0.914 l -0.059,0.969 -0.058,0.91 -0.063,0.86 -0.058,0.808 -0.059,0.645 -0.059,0.75 v 0.699 -1.613 l 0.059,-0.645"
           style="fill:none;stroke:#3584e4;stroke-width:0.85;stroke-linecap:round;stroke-linejoin:round;stroke-miterlimit:10;stroke-dasharray:none;stroke-opacity:1"
           id="path230" /></g><g
         id="g232"><path
           d="m 408.754,29.695 h -0.359 l 0.359,0.434 0.418,0.156 0.594,0.215 0.597,0.164 0.539,0.109 0.536,0.051 0.535,0.055 h 2.867 l 0.058,-0.379"
           style="fill:none;stroke:#3584e4;stroke-width:0.85;stroke-linecap:round;stroke-linejoin:round;stroke-miterlimit:10;stroke-dasharray:none;stroke-opacity:1"
           id="path234" /></g><g
         id="g236"><path
           d="m 408.574,25.723 -0.297,-0.164 0.356,-0.266 0.418,-0.055 0.597,-0.054 0.477,-0.055 0.656,-0.106 0.598,-0.054 0.594,-0.106 0.601,-0.054 0.594,-0.055 0.598,-0.051 h 0.539 l 0.593,-0.055 h 1.493 l -0.418,0.215 -0.477,0.215"
           style="fill:none;stroke:#3584e4;stroke-width:0.85;stroke-linecap:round;stroke-linejoin:round;stroke-miterlimit:10;stroke-dasharray:none;stroke-opacity:1"
           id="path238" /></g><g
         id="g240"><path
           d="m 416.57,26.688 0.239,-0.215 0.238,-0.262 0.121,-0.375 -0.063,0.531 v 0.594 l -0.058,0.695 -0.059,0.754 -0.179,0.75 -0.118,0.86 -0.179,0.804 -0.121,0.86 -0.18,0.859 -0.117,0.805 -0.121,0.699 -0.121,0.484 -0.118,0.43 -0.121,0.43 0.301,0.214 0.715,0.051 0.476,0.055 0.54,0.055 0.597,0.054 0.535,0.051 h 2.032 l 0.414,0.055 0.601,0.109 0.297,0.051 -0.476,0.059 -0.422,-0.11"
           style="fill:none;stroke:#3584e4;stroke-width:0.85;stroke-linecap:round;stroke-linejoin:round;stroke-miterlimit:10;stroke-dasharray:none;stroke-opacity:1"
           id="path242" /></g><g
         id="g244"><path
           d="m 525.762,15.379 h -1.922 l -0.352,0.043 -0.406,0.043 -0.523,0.047 h -2.446 l -0.64,0.047 h -0.758 l -0.988,0.046 h -1.11 l -1.453,0.09 -1.809,0.047 -1.976,0.094 -2.098,0.043 -2.211,-0.094 h -19.277 l -2.211,-0.043 h -19.508 l -2.097,-0.047 h -15.024 l -1.281,-0.047 h -1.281 l -1.223,-0.043 h -11.004 l -0.992,0.043 h -0.988 l -0.934,-0.043 h -2.793 l -0.992,0.043 h -21.777 l -1.571,-0.043 h -20.613 l -0.934,-0.046 h -3.726 l -0.465,-0.047"
           style="fill:none;stroke:#62a0ea;stroke-width:0.907789;stroke-linecap:round;stroke-linejoin:round;stroke-miterlimit:10;stroke-dasharray:none;stroke-opacity:1"
           id="path246" /></g><g
         id="g248"><path
           d="m 446.387,40.02 -0.242,-0.215 -0.239,-0.395 -0.097,-0.43 -0.047,-0.566 v -0.391 l 0.144,-0.3 0.383,-0.649 0.629,-0.437 0.336,-0.172 0.383,-0.043 0.531,-0.043 h 0.434 l 0.578,0.172 0.484,0.261 0.43,0.348 0.34,0.477 0.382,0.433 0.243,0.563 0.144,0.609 0.192,0.649 0.05,0.695 0.094,0.691 v 0.696 l -0.094,0.648 -0.191,0.649 -0.242,0.609 -0.34,0.519 -0.387,0.52 -0.48,0.434 -0.383,0.304 -0.484,0.215 -0.336,0.129 -0.336,0.09 -0.289,0.086 -0.481,0.043 -0.34,-0.043 -0.191,-0.305 -0.047,-0.433 0.047,-0.387 0.097,-0.305 0.239,-0.219 0.195,-0.215 0.192,-0.261 0.289,-0.215 0.238,-0.176 0.34,-0.172 0.383,-0.09 0.386,-0.082 h 1.59 l 0.383,0.043 0.293,0.172 0.094,0.348"
           style="fill:none;stroke:#15539d;stroke-width:0.99975;stroke-linecap:round;stroke-linejoin:round;stroke-miterlimit:10;stroke-dasharray:none;stroke-opacity:1"
           id="path250" /></g><g
         id="g252"><path
           d="m 443.883,49.73 0.527,-0.042 h 0.918 l 0.481,0.042 0.578,0.086 0.625,0.086 0.676,0.086 0.769,0.09 0.82,0.043 0.868,0.043 h 1.687 l 0.77,-0.043 h 0.625 l 0.578,-0.043 0.433,-0.043 h 0.676 l -0.293,-0.047 h -0.863"
           style="fill:none;stroke:#15539d;stroke-width:0.99975;stroke-linecap:round;stroke-linejoin:round;stroke-miterlimit:10;stroke-dasharray:none;stroke-opacity:1"
           id="path254" /></g><g
         id="g256"><path
           d="m 446,56.102 h -0.289 l -0.195,-0.692 -0.094,-0.519 v -0.348 l 0.144,-0.305 0.289,-0.304 0.336,-0.301 0.434,-0.172 0.434,-0.176 0.484,-0.129 0.48,-0.047 h 0.532 l 0.527,0.133 0.484,0.129 0.481,0.262 0.433,0.347 0.434,0.344 0.289,0.477 0.238,0.433 0.243,0.438 0.144,0.516 0.145,0.523 0.097,0.605 v 1.258 l -0.05,0.649 -0.047,0.656 -0.145,0.644 -0.144,0.563 -0.336,0.434 -0.387,0.347 -0.387,0.219 -0.48,0.172 -0.434,0.133 h -0.336 l -0.336,0.039 -0.433,-0.039 -0.34,-0.133 -0.238,-0.344 -0.196,-0.348 -0.097,-0.347 -0.094,-0.477 v -0.695 l 0.094,-0.348 0.097,-0.301 0.145,-0.304 0.386,-0.215 0.481,-0.129 0.48,-0.09 h 0.387 l 0.434,0.09 0.386,0.129 0.243,0.215"
           style="fill:none;stroke:#15539d;stroke-width:0.99975;stroke-linecap:round;stroke-linejoin:round;stroke-miterlimit:10;stroke-dasharray:none;stroke-opacity:1"
           id="path258" /></g><g
         id="g260"><path
           d="m 450.527,69.461 0.196,-0.438 0.14,-0.39 0.242,-0.434 0.29,-0.562 0.242,-0.653 0.238,-0.738 0.289,-0.777 0.289,-0.91 0.289,-1 0.289,-0.868 0.242,-0.867 0.192,-0.738 0.144,-0.648 0.098,-0.559 0.145,-0.481 0.093,-0.562 v 2.078 l 0.243,0.262 0.433,0.172 0.434,-0.043 0.289,-0.219 0.242,-0.301 0.289,-0.347 0.145,-0.434 0.144,-0.391 0.098,-0.39 0.093,-0.301 0.051,-0.348 0.047,-0.433 v 0.91 l 0.094,0.519 0.144,0.477 0.196,0.476 0.383,0.868 0.242,0.304 0.191,0.219 0.293,0.129"
           style="fill:none;stroke:#15539d;stroke-width:0.99975;stroke-linecap:round;stroke-linejoin:round;stroke-miterlimit:10;stroke-dasharray:none;stroke-opacity:1"
           id="path262" /></g><g
         id="g264"><path
           d="m 458.766,54.977 -0.243,0.171 0.145,-0.3 0.289,-0.09 0.336,-0.043 0.098,0.433 -0.047,0.348 -0.145,0.434 -0.242,0.347 -0.242,0.391 -0.336,0.605 -0.145,0.391 v 0.344 l 0.723,0.262 h 1.254"
           style="fill:none;stroke:#15539d;stroke-width:0.99975;stroke-linecap:round;stroke-linejoin:round;stroke-miterlimit:10;stroke-dasharray:none;stroke-opacity:1"
           id="path266" /></g><g
         id="g268"><path
           d="m 467.723,50.121 0.339,0.129 0.579,-0.039 0.433,-0.047 h 0.481 l 0.629,-0.043 h 0.671 l 0.77,-0.09 0.82,-0.086 0.867,-0.086 0.868,-0.043 0.769,-0.086 0.723,-0.042 0.578,-0.043 0.434,-0.043 h 1.109"
           style="fill:none;stroke:#15539d;stroke-width:0.99975;stroke-linecap:round;stroke-linejoin:round;stroke-miterlimit:10;stroke-dasharray:none;stroke-opacity:1"
           id="path270" /></g><g
         id="g272"><path
           d="m 477.84,48.473 -0.047,0.562 v 0.781 l 0.047,0.477 0.098,0.305 0.046,-0.305 -0.046,-0.648 -0.051,-0.434 -0.094,-0.305 h 0.387 l 0.336,0.129 0.336,0.133 0.289,0.086 0.289,0.043 0.34,0.086 0.382,0.043 0.336,0.176 0.434,0.128 0.289,0.129 0.34,0.129 0.336,0.043 0.386,0.348 0.141,0.262 -0.336,0.129 -0.289,0.089 -0.289,0.082 -0.289,0.047 -0.336,0.086 -0.336,0.043 -0.34,0.086 h -0.289 l -0.289,0.043 h -0.723"
           style="fill:none;stroke:#15539d;stroke-width:0.99975;stroke-linecap:round;stroke-linejoin:round;stroke-miterlimit:10;stroke-dasharray:none;stroke-opacity:1"
           id="path274" /></g><g
         id="g276"><path
           d="m 491.715,50.641 0.527,-0.043 h 0.485 l 0.429,-0.043 0.582,-0.043 h 0.383 l 0.387,-0.047 h 0.289 l 0.433,-0.039 0.29,-0.047 v 0.348"
           style="fill:none;stroke:#15539d;stroke-width:0.99975;stroke-linecap:round;stroke-linejoin:round;stroke-miterlimit:10;stroke-dasharray:none;stroke-opacity:1"
           id="path278" /></g><g
         id="g280"><path
           d="m 505.684,43.836 h -0.34 l -0.145,-0.262 -0.14,-0.347 -0.051,-0.391 -0.094,-0.434 v -1.257 l 0.145,-0.387 0.14,-0.438 0.242,-0.343 0.289,-0.305 0.34,-0.301 0.383,-0.176 0.387,-0.172 0.48,-0.046 0.434,-0.043 h 0.484 l 0.336,0.089 0.434,0.172 0.43,0.176 0.339,0.301 0.387,0.433 0.285,0.434 0.196,0.606 0.191,0.695 0.047,0.781 0.051,0.867 v 0.91 l -0.098,0.954 -0.191,0.953 -0.336,0.953 -0.387,0.91 -0.434,0.824 -0.336,0.563 -0.433,0.523 -0.438,0.301 -0.429,0.219 -0.387,0.172 -0.383,0.042 -0.434,-0.085 -0.242,-0.215 -0.144,-0.567 -0.051,-0.605 0.144,-0.391 0.336,-0.519 0.34,-0.262 0.242,-0.172 0.434,-0.215 0.289,-0.133 0.336,-0.043 0.387,-0.043 0.578,-0.042 0.289,0.085 0.191,0.481"
           style="fill:none;stroke:#15539d;stroke-width:0.99975;stroke-linecap:round;stroke-linejoin:round;stroke-miterlimit:10;stroke-dasharray:none;stroke-opacity:1"
           id="path282" /></g><g
         id="g284"><path
           d="m 503.273,53.59 0.434,-0.047 0.387,-0.039 0.578,-0.043 h 1.734 l 0.625,-0.047 h 0.723 l 0.769,-0.043 1.641,-0.086 0.77,-0.043 h 3.179 l 0.387,0.043 -0.34,0.043"
           style="fill:none;stroke:#15539d;stroke-width:0.99975;stroke-linecap:round;stroke-linejoin:round;stroke-miterlimit:10;stroke-dasharray:none;stroke-opacity:1"
           id="path286" /></g><g
         id="g288"><path
           d="m 505.922,60.09 -0.192,-0.301 -0.05,-0.477 v -0.433 l 0.148,-0.438 0.192,-0.257 0.433,-0.391 0.238,-0.301 0.34,-0.176 0.289,-0.218 0.289,-0.129 0.289,-0.043 h 0.29 l 0.335,0.129 0.579,0.347 0.195,0.348 0.238,0.258 0.289,0.347 0.145,0.348 0.191,0.348 0.149,0.476 0.14,0.477 0.098,0.566 0.098,0.606 0.046,0.648 v 1.43 l -0.046,0.695 v 0.61 l -0.098,0.476 -0.145,0.301 -0.289,0.219 -0.289,0.172 -0.433,0.128 -0.723,0.133 -0.48,-0.043 -0.387,-0.129 -0.434,-0.132 -0.289,-0.176 -0.242,-0.297 -0.191,-0.438 -0.047,-0.304 0.093,-0.606 0.387,-0.519 0.336,-0.305 0.676,-0.348 0.387,-0.086 0.289,-0.085 0.336,-0.09 0.289,-0.039 h 0.867"
           style="fill:none;stroke:#15539d;stroke-width:0.99975;stroke-linecap:round;stroke-linejoin:round;stroke-miterlimit:10;stroke-dasharray:none;stroke-opacity:1"
           id="path290" /></g><g
         id="g292"><path
           d="m 508.09,73.488 v -0.304 l 0.144,-0.348 0.192,-0.477 0.293,-0.562 0.433,-0.652 0.383,-0.778 0.481,-0.906 0.484,-1 0.48,-1.125 0.532,-1.09 0.48,-1.125 0.387,-1.086 0.383,-0.949 0.289,-0.828 0.242,-0.692 0.145,-0.519 0.05,-0.348 0.043,-0.476 -0.14,0.519 -0.098,0.434 -0.098,0.476 -0.047,0.477 -0.05,0.476 v 0.825 l 0.097,0.519 0.196,0.305 0.336,0.086 0.335,-0.086 0.532,-0.391 0.336,-0.347 0.242,-0.43 0.289,-0.481 0.191,-0.519 0.196,-0.52 0.144,-0.519 0.094,-0.438 0.051,-0.343 0.047,-0.305 V 59.66 l 0.046,0.516 0.098,0.48 0.098,0.606 0.094,0.562 0.05,0.52 0.094,0.48 0.047,0.43 0.195,0.48 0.145,0.43 0.191,0.434 0.289,0.347 0.145,0.305"
           style="fill:none;stroke:#15539d;stroke-width:0.99975;stroke-linecap:round;stroke-linejoin:round;stroke-miterlimit:10;stroke-dasharray:none;stroke-opacity:1"
           id="path294" /></g><g
         id="g296"><path
           d="m 518.445,56.449 -0.191,-0.261 0.144,-0.43 0.29,-0.047 0.628,-0.082 0.383,0.129 0.289,0.43 0.047,0.48 v 0.387 l -0.094,0.609 -0.289,0.391 -0.242,0.257 -0.336,0.348 -0.242,0.219 0.242,0.258 0.289,0.086 0.578,0.132 0.868,0.129 0.531,0.262"
           style="fill:none;stroke:#15539d;stroke-width:0.99975;stroke-linecap:round;stroke-linejoin:round;stroke-miterlimit:10;stroke-dasharray:none;stroke-opacity:1"
           id="path298" /></g><g
         id="g300"><path
           d="m 377.098,13.398 -0.176,0.504 -0.059,0.321 -0.058,0.507 -0.059,0.321 v 1.011 l 0.059,0.551 0.058,0.414 0.059,0.368 v 0.367"
           style="fill:none;stroke:#62a0ea;stroke-width:0.907789;stroke-linecap:round;stroke-linejoin:round;stroke-miterlimit:10;stroke-dasharray:none;stroke-opacity:1"
           id="path302" /></g><g
         id="g304"><path
           d="m 399.27,23.66 -0.305,0.184 -0.254,0.23 v 1.789 l 0.051,0.692 v 0.781 l 0.05,0.918 v 1.058 l 0.102,2.204 0.102,1.105 0.05,0.965 0.153,0.875 0.156,0.734 0.152,0.594 0.203,0.414 0.102,0.367 -0.203,-0.644"
           style="fill:none;stroke:#3584e4;stroke-width:0.85;stroke-linecap:round;stroke-linejoin:round;stroke-miterlimit:10;stroke-dasharray:none;stroke-opacity:1"
           id="path306" /></g><g
         id="g308"><path
           d="m 376.34,13.121 -0.293,0.188 -0.231,0.226 -0.293,0.231 -0.293,0.183 -0.464,0.274 -0.578,0.324 -0.293,0.273 -0.641,0.278 -0.465,0.367 -0.527,0.461 -0.407,0.32 -0.347,0.277 -0.352,0.188 -0.347,0.133 -0.469,0.136 -0.348,0.047 0.524,0.047 h 1.109 l 1.047,0.043 0.523,0.094 0.524,0.09 0.527,0.14 0.52,0.094 0.41,0.094 0.812,0.18 0.41,0.183 0.407,0.094 v 0.367"
           style="fill:none;stroke:#62a0ea;stroke-width:0.907789;stroke-linecap:round;stroke-linejoin:round;stroke-miterlimit:10;stroke-dasharray:none;stroke-opacity:1"
           id="path310" /></g><g
         id="g312"><path
           d="m 398.508,24.855 -0.258,0.184 -0.355,0.32 -0.258,0.325 -0.254,0.32 -0.36,0.504 -0.304,0.414 -0.36,0.461 -0.406,0.457 -0.355,0.461 -0.719,1.101 -0.305,0.551 -0.359,0.598 -0.305,0.554 -0.305,0.411 -0.207,0.367 -0.152,0.277 -0.152,0.32 -0.309,0.278 0.41,0.047 h 0.36 l 0.558,0.043 h 2.149 l 0.816,-0.09 0.867,-0.094 0.817,-0.09 0.715,-0.047 0.664,-0.089 0.511,-0.047 h 1.223"
           style="fill:none;stroke:#3584e4;stroke-width:0.85;stroke-linecap:round;stroke-linejoin:round;stroke-miterlimit:10;stroke-dasharray:none;stroke-opacity:1"
           id="path314" /></g><g
         id="g316"><path
           d="m 260.664,4.973 0.359,-0.043 0.407,-0.047 h 0.461 l 0.511,-0.047 0.614,-0.047 0.664,-0.043 h 0.609 l 0.461,-0.047 0.512,-0.047 0.867,-0.09 h 0.406"
           style="fill:none;stroke:#000000;stroke-width:1.41;stroke-linecap:round;stroke-linejoin:round;stroke-miterlimit:10;stroke-dasharray:none;stroke-opacity:1"
           id="path318" /></g><g
         id="g320"><path
           d="m 269.805,0.703 0.101,0.457 0.102,0.367 0.051,0.461 0.05,0.504 0.051,0.551 V 5.02 l 0.051,0.734 v 0.781 l 0.051,0.785 v 2.66"
           style="fill:none;stroke:#000000;stroke-width:1.41;stroke-linecap:round;stroke-linejoin:round;stroke-miterlimit:10;stroke-dasharray:none;stroke-opacity:1"
           id="path322" /></g><g
         id="g324"><path
           d="m 514.766,90.984 -0.114,0.371 -0.121,0.473 -0.113,0.688 -0.121,0.738 -0.117,0.793 -0.059,0.738 -0.117,0.738 v 2.481 l 0.058,-0.316 v -0.372 l 0.059,-0.527 v -2.16"
           style="fill:none;stroke:#000000;stroke-width:1.41;stroke-linecap:round;stroke-linejoin:round;stroke-miterlimit:10;stroke-dasharray:none;stroke-opacity:1"
           id="path326" /></g><g
         id="g328"><path
           d="m 513.301,89.402 -0.293,-0.105 0.41,0.211 0.469,0.211 0.644,0.316 0.649,0.262 0.758,0.371 0.882,0.371 0.938,0.316 1,0.473 1.113,0.367 1.172,0.426 1.055,0.477 1.054,0.418 0.938,0.425 0.883,0.371 0.761,0.317 0.704,0.312 0.644,0.211 0.469,0.211 0.41,0.211 0.41,0.11 0.414,0.261 0.469,0.266 0.469,0.211 -0.293,0.156 -0.41,0.106 -0.649,0.261 -0.644,0.215 -0.762,0.211 -0.938,0.266 -1,0.211 -1.172,0.156 -1.289,0.211 -1.347,0.105 -1.469,0.106 -1.465,0.051 -1.289,0.054 -1.23,0.055 -1,0.102 -0.879,0.16 -0.762,0.105 -0.469,0.106 -0.293,0.109 -0.175,0.312 v 0.481"
           style="fill:none;stroke:#000000;stroke-width:1.41;stroke-linecap:round;stroke-linejoin:round;stroke-miterlimit:10;stroke-dasharray:none;stroke-opacity:1"
           id="path330" /></g><g
         id="g332"><path
           d="m 204.539,19.891 -0.172,0.793 -0.355,1.004 -0.41,1.265 -0.528,1.371 -0.527,1.426 -0.41,1.477 -0.528,1.425 -0.41,1.375 -0.355,1.161 -0.348,1 -0.297,0.792 -0.176,0.481 -0.171,0.363 -0.122,0.422 0.122,-0.738 0.171,-0.629 0.297,-0.793"
           style="fill:none;stroke:#e50000;stroke-width:0.99975;stroke-linecap:round;stroke-linejoin:round;stroke-miterlimit:10;stroke-dasharray:none;stroke-opacity:1"
           id="path334" /></g><g
         id="g336"><path
           d="m 205.184,19.629 -0.059,0.316 0.059,0.528 0.121,0.683 0.113,0.692 0.121,0.84 0.113,0.953 0.18,1.109 0.234,1.211 0.176,1.266 0.352,1.269 0.41,1.266 0.293,1.16 0.41,1.004 0.352,0.844 0.234,0.582 0.293,0.367 0.176,0.265 0.234,0.211 -0.41,-0.371 -0.293,-0.262 -0.469,-0.472 -0.469,-0.481"
           style="fill:none;stroke:#e50000;stroke-width:0.99975;stroke-linecap:round;stroke-linejoin:round;stroke-miterlimit:10;stroke-dasharray:none;stroke-opacity:1"
           id="path338" /></g><g
         id="g340"><path
           d="m 202.371,28.969 -0.293,0.105 0.469,0.055 0.469,0.105 0.703,0.051 0.586,0.055 0.879,0.051 0.824,0.054 0.879,0.051 0.82,0.109 0.879,0.051 0.703,0.106 0.59,0.16 0.523,0.105 0.469,0.106 h -0.644 l -0.528,0.156 -0.703,0.316"
           style="fill:none;stroke:#e50000;stroke-width:0.99975;stroke-linecap:round;stroke-linejoin:round;stroke-miterlimit:10;stroke-dasharray:none;stroke-opacity:1"
           id="path342" /></g><g
         id="g344"><path
           d="m 211.402,33.297 h -0.351 l -0.18,0.371 -0.113,0.633 v 0.687 l 0.176,0.367 0.171,0.262 0.356,0.266 0.527,0.32 0.645,0.051 0.586,-0.16 0.351,-0.156 0.121,-0.372 0.172,-0.472 0.063,-0.317 v -1.004 l -0.18,-0.371 -0.234,-0.211 -0.41,-0.312 -0.411,-0.16 h 0.352 l 0.352,0.16 0.296,0.473 0.114,0.367 0.058,0.422 0.176,0.531 0.059,0.578 0.117,0.586 0.058,0.684 0.063,0.683 0.059,0.688 0.054,0.632 0.059,0.473 v 0.477 l 0.121,0.422 0.055,-0.528"
           style="fill:none;stroke:#e50000;stroke-width:0.99975;stroke-linecap:round;stroke-linejoin:round;stroke-miterlimit:10;stroke-dasharray:none;stroke-opacity:1"
           id="path346" /></g><g
         id="g348"><path
           d="m 215.918,32.719 -0.176,0.261 -0.176,0.688 -0.058,0.316 v 0.793 l 0.117,0.633 0.352,0.367 0.468,0.211 0.528,-0.05 0.293,-0.102 0.175,-0.32 0.235,-0.371 0.117,-0.368 0.117,-0.371 0.059,-0.422 0.058,-0.371 -0.058,-0.422 -0.059,-0.687 -0.117,-0.316 -0.234,-0.418 -0.293,-0.161 v 0.528 l 0.058,0.527 0.117,0.738 0.118,0.793 0.175,0.793 0.118,0.848 0.175,0.793 0.176,0.68 0.176,0.742 0.121,0.629 0.176,0.582 0.113,0.422 0.18,0.421 0.176,0.422 0.175,0.266"
           style="fill:none;stroke:#e50000;stroke-width:0.99975;stroke-linecap:round;stroke-linejoin:round;stroke-miterlimit:10;stroke-dasharray:none;stroke-opacity:1"
           id="path350" /></g><g
         id="g352"><path
           d="m 237.793,53.512 -0.234,0.371 -0.414,0.738 -0.469,1.055 -0.645,1.215 -0.644,1.371 -0.703,1.582 -0.821,1.636 -0.82,1.582 -0.824,1.481 -0.703,1.266 -0.645,1.058 -0.41,0.844 -0.234,0.578 -0.176,0.371 -0.293,0.262 0.293,-0.418 0.351,-0.531 0.469,-0.895"
           style="fill:none;stroke:#e50000;stroke-width:0.99975;stroke-linecap:round;stroke-linejoin:round;stroke-miterlimit:10;stroke-dasharray:none;stroke-opacity:1"
           id="path354" /></g><g
         id="g356"><path
           d="m 237.379,52.301 -0.176,0.578 -0.058,0.316 -0.055,0.422 -0.059,0.528 v 1.109 l 0.172,0.687 0.176,0.735 0.414,0.953 0.41,1.055 0.41,1.109 0.528,1.215 0.351,1.16 0.41,1.105 0.352,1.063 0.293,1 0.41,0.844 0.234,0.632 0.293,0.528 0.235,0.316 0.179,0.262 -0.234,-0.316 -0.234,-0.313 -0.356,-0.422 -0.351,-0.371"
           style="fill:none;stroke:#e50000;stroke-width:0.99975;stroke-linecap:round;stroke-linejoin:round;stroke-miterlimit:10;stroke-dasharray:none;stroke-opacity:1"
           id="path358" /></g><g
         id="g360"><path
           d="m 233.746,62.852 h 0.469 l 0.527,0.054 h 3.637 l 0.762,0.055 h 0.644 l 0.469,0.051 0.469,-0.051 h 0.707"
           style="fill:none;stroke:#e50000;stroke-width:0.99975;stroke-linecap:round;stroke-linejoin:round;stroke-miterlimit:10;stroke-dasharray:none;stroke-opacity:1"
           id="path362" /></g><g
         id="g364"><path
           d="m 244.594,63.434 -0.059,0.32 -0.058,0.367 v 1.055 l 0.058,0.582 0.117,0.629 0.059,0.636 0.117,0.688 0.059,0.633 v 0.422 l 0.058,0.367 v 0.633 -0.528 l 0.063,-0.578 0.054,-0.316 0.235,-0.321 0.234,-0.421 0.469,-0.629 0.18,-0.262 0.347,-0.215 0.356,-0.215 0.351,-0.101 0.352,0.422 0.117,0.371 0.117,0.367 0.118,0.422 0.058,0.527 v 0.477 l 0.059,0.632 v 0.633 l 0.058,0.477 v 0.527 l 0.059,0.527 v 0.633 l -0.293,-0.105"
           style="fill:none;stroke:#e50000;stroke-width:0.99975;stroke-linecap:round;stroke-linejoin:round;stroke-miterlimit:10;stroke-dasharray:none;stroke-opacity:1"
           id="path366" /></g><g
         id="g368"><path
           d="m 249.402,62.168 0.176,0.371 0.059,0.313 0.117,0.476 0.058,0.426 0.118,0.523 0.062,0.688 0.055,0.633 v 2.269 l -0.055,0.742 v 1.211 l -0.062,0.422 -0.059,0.371 -0.176,-0.422 0.059,-0.425 0.117,-0.473 0.176,-0.527 0.117,-0.528 0.297,-0.527 0.234,-0.527 0.235,-0.372 0.347,-0.316 0.356,-0.266 0.469,0.051 0.351,0.637 0.235,0.527 0.117,0.578 0.117,0.586 0.117,0.629 0.059,0.641 0.058,0.469 v 1.32 l -0.293,-0.106 -0.175,-0.265"
           style="fill:none;stroke:#e50000;stroke-width:0.99975;stroke-linecap:round;stroke-linejoin:round;stroke-miterlimit:10;stroke-dasharray:none;stroke-opacity:1"
           id="path370" /></g><g
         id="g372"><path
           d="m 204.188,54.566 0.234,-0.261 v -0.371 l -0.234,0.265 -0.235,0.528 -0.41,0.687 -0.352,0.738 -0.996,1.793 -0.468,1.11 -0.649,1.16 -0.523,1.211 -0.532,1.164 -0.585,1.055 -0.411,0.843 -0.351,0.688 -0.293,0.582 -0.235,0.316 -0.175,0.313 -0.118,0.324 0.411,-0.375 0.41,-0.316 0.586,-0.422 0.527,-0.368 0.586,-0.425 0.527,-0.578 0.473,-0.633 0.469,-0.688"
           style="fill:none;stroke:#e50000;stroke-width:0.99975;stroke-linecap:round;stroke-linejoin:round;stroke-miterlimit:10;stroke-dasharray:none;stroke-opacity:1"
           id="path374" /></g><g
         id="g376"><path
           d="m 204.246,53.562 -0.058,0.477 v 1.375 l 0.117,0.895 0.062,0.902 0.172,1 0.117,1.055 0.18,1.054 0.172,0.95 0.176,0.847 0.179,0.735 0.176,0.636 0.113,0.422 0.121,0.473 0.114,0.316 0.121,0.317 0.113,0.32 0.18,0.262 -0.059,-0.368 -0.121,-0.32"
           style="fill:none;stroke:#e50000;stroke-width:0.99975;stroke-linecap:round;stroke-linejoin:round;stroke-miterlimit:10;stroke-dasharray:none;stroke-opacity:1"
           id="path378" /></g><g
         id="g380"><path
           d="m 200.902,61.059 h 1.114 l 0.648,0.054 h 4.164"
           style="fill:none;stroke:#e50000;stroke-width:0.99975;stroke-linecap:round;stroke-linejoin:round;stroke-miterlimit:10;stroke-dasharray:none;stroke-opacity:1"
           id="path382" /></g><g
         id="g384"><path
           d="m 215.625,67.449 0.055,0.418 -0.118,0.426 -0.117,0.578 v 0.317 l 0.059,0.582 0.234,0.371 0.469,0.156 0.41,0.055 h 0.531 l 0.293,-0.106 0.235,-0.211 0.234,-0.32 0.176,-0.367 0.176,-0.422 0.117,-0.422 0.059,-0.316 0.058,-0.372 -0.058,-0.421 v -0.368 l -0.293,-0.265 -0.352,-0.16 -0.41,-0.051 0.293,0.371 0.234,0.316 0.176,0.418 0.117,0.422 0.117,0.637 0.059,0.683 0.059,0.688 v 3.75 l -0.176,-0.477"
           style="fill:none;stroke:#e50000;stroke-width:0.99975;stroke-linecap:round;stroke-linejoin:round;stroke-miterlimit:10;stroke-dasharray:none;stroke-opacity:1"
           id="path386" /></g><g
         id="g388"><path
           d="m 210.988,60.586 0.121,0.633 0.055,0.582 0.121,0.633 0.059,0.789 0.054,0.742 0.059,0.844 v 0.738 l 0.063,0.844 v 0.847 l 0.058,0.789 v 1.321 l 0.234,-0.317 0.114,-0.367 0.176,-0.426 0.234,-0.371 0.18,-0.367 0.289,-0.316 0.297,-0.368 0.41,-0.32 0.351,0.106 0.235,0.636 v 0.524 l 0.058,0.426 v 0.843 l -0.058,0.317 -0.059,0.738 -0.234,0.422"
           style="fill:none;stroke:#e50000;stroke-width:0.99975;stroke-linecap:round;stroke-linejoin:round;stroke-miterlimit:10;stroke-dasharray:none;stroke-opacity:1"
           id="path390" /></g><g
         id="g392"><path
           d="m 246.062,33.164 -0.058,-0.316 -0.297,-0.106 h -0.348 l -0.293,0.422 -0.121,0.371 -0.054,0.789 v 0.317 l 0.054,0.32 0.059,0.367 0.644,0.477 0.356,0.05 0.582,0.055 0.648,-0.055 0.352,-0.156 0.234,-0.265 0.293,-0.317 0.176,-0.371 0.117,-0.422 0.117,-0.633 -0.117,-0.527 -0.117,-0.316 -0.351,-0.371 -0.352,-0.157 v 0.422 l 0.059,0.473 0.117,0.687 0.058,0.739 0.059,0.847 0.059,0.789 v 0.852 l 0.058,0.785 0.117,0.797 0.117,0.734 0.059,0.633 0.059,0.477 0.058,0.316 0.059,0.313 v -0.629"
           style="fill:none;stroke:#e50000;stroke-width:0.99975;stroke-linecap:round;stroke-linejoin:round;stroke-miterlimit:10;stroke-dasharray:none;stroke-opacity:1"
           id="path394" /></g><g
         id="g396"><path
           d="m 250.812,29.523 -0.121,0.473 0.063,0.637 v 0.894 l 0.058,0.852 0.059,1 v 0.945 l 0.059,0.899 v 2.375 l 0.117,-0.469 v -0.481 l 0.058,-0.425 0.059,-0.524 0.176,-0.422 0.351,-0.742 0.293,-0.316 0.352,-0.633 0.234,-0.266 0.41,-0.05 0.235,0.265 0.234,0.367 0.176,0.582 0.121,0.578 0.055,0.688 0.058,0.738 0.121,0.742 v 0.579 l 0.055,0.527 v 0.844"
           style="fill:none;stroke:#e50000;stroke-width:0.99975;stroke-linecap:round;stroke-linejoin:round;stroke-miterlimit:10;stroke-dasharray:none;stroke-opacity:1"
           id="path398" /></g><g
         id="g400"><path
           d="m 240.43,22.742 -0.059,-0.316 -0.351,0.316 -0.235,0.528 -0.293,0.632 -0.41,0.793 -0.293,0.899 -0.469,1.054 -0.468,1.266 -0.473,1.32 -0.524,1.426 -0.468,1.317 -0.473,1.164 -0.41,0.949 -0.352,0.738 -0.234,0.477 -0.234,0.367 -0.293,0.266 0.234,-0.583 0.234,-0.527 0.293,-0.582 0.41,-0.684"
           style="fill:none;stroke:#e50000;stroke-width:0.99975;stroke-linecap:round;stroke-linejoin:round;stroke-miterlimit:10;stroke-dasharray:none;stroke-opacity:1"
           id="path402" /></g><g
         id="g404"><path
           d="m 239.492,22.371 0.059,-0.312 0.117,-0.371 0.176,-0.266 0.058,0.32 0.059,0.418 0.117,0.528 0.059,0.691 0.175,0.789 0.118,0.949 0.117,1.11 0.117,1.211 0.176,1.273 0.176,1.316 0.234,1.161 0.234,1.054 0.18,0.899 0.176,0.683 0.113,0.582 0.18,0.422 0.176,0.422 0.175,0.316 0.352,0.477 0.234,0.211 -0.293,-0.266 -0.234,-0.265 -0.293,-0.368"
           style="fill:none;stroke:#e50000;stroke-width:0.99975;stroke-linecap:round;stroke-linejoin:round;stroke-miterlimit:10;stroke-dasharray:none;stroke-opacity:1"
           id="path406" /></g><g
         id="g408"><path
           d="m 237.906,31.879 -0.347,0.047 h 4.457 l 0.468,-0.047 0.172,0.258"
           style="fill:none;stroke:#e50000;stroke-width:0.99975;stroke-linecap:round;stroke-linejoin:round;stroke-miterlimit:10;stroke-dasharray:none;stroke-opacity:1"
           id="path410" /></g><g
         id="g412"><path
           d="m 210.281,106.004 0.055,0.367 v 0.422 l 0.062,0.586 v 0.523 l 0.059,0.633 0.059,0.582 0.054,0.633 0.063,0.633 v 1.109 l -0.063,-0.422 v -0.422"
           style="fill:none;stroke:#ff0000;stroke-width:1.07475;stroke-linecap:round;stroke-linejoin:round;stroke-miterlimit:10;stroke-dasharray:none;stroke-opacity:1"
           id="path414" /></g><g
         id="g416"><path
           d="m 211.043,100.672 0.352,-0.106"
           style="fill:none;stroke:#ff0000;stroke-width:1.07475;stroke-linecap:round;stroke-linejoin:round;stroke-miterlimit:10;stroke-dasharray:none;stroke-opacity:1"
           id="path418" /></g><g
         id="g420"><path
           d="m 212.391,106.793 0.293,0.637 0.238,0.632 0.289,0.684 0.18,0.688 0.171,0.683 0.235,0.637 0.117,0.582 0.059,0.418 0.121,0.375 0.289,-0.531 0.121,-0.317 0.113,-0.578 0.297,-0.586 0.234,-0.578 0.407,-0.738 0.355,-0.528 0.352,-0.527 0.293,-0.367 0.293,-0.32 0.351,-0.161 0.645,0.106 0.351,0.32 0.18,0.422 0.289,0.633 0.121,0.687 0.172,0.633 0.121,0.684 0.113,0.582 0.063,0.371 0.058,0.367 0.059,-0.422 0.055,-0.472"
           style="fill:none;stroke:#ff0000;stroke-width:1.07475;stroke-linecap:round;stroke-linejoin:round;stroke-miterlimit:10;stroke-dasharray:none;stroke-opacity:1"
           id="path422" /></g><g
         id="g424"><path
           d="m 223.707,97.031 0.063,0.473 0.117,0.476 0.175,0.633 0.235,0.742 0.234,0.79 0.293,0.898 0.235,1 0.175,1.059 0.176,1.054 0.176,0.949 0.176,0.954 0.176,0.839 0.175,0.743 0.176,0.738 0.059,0.738 -0.352,-0.371 -0.234,-0.473 -0.41,-0.582"
           style="fill:none;stroke:#ff0000;stroke-width:1.07475;stroke-linecap:round;stroke-linejoin:round;stroke-miterlimit:10;stroke-dasharray:none;stroke-opacity:1"
           id="path426" /></g><g
         id="g428"><path
           d="m 221.949,104.422 0.41,-0.106 0.469,-0.105 0.703,-0.106 0.766,-0.16 0.82,-0.211 0.996,-0.211 0.938,-0.16 0.883,-0.211 0.82,-0.05 0.703,-0.055 0.469,-0.051 h 0.762 l -0.118,0.473"
           style="fill:none;stroke:#ff0000;stroke-width:1.07475;stroke-linecap:round;stroke-linejoin:round;stroke-miterlimit:10;stroke-dasharray:none;stroke-opacity:1"
           id="path430" /></g><g
         id="g432"><path
           d="m 231.746,105.156 v 0.371 l 0.172,0.688 0.234,0.527 0.356,0.528 0.41,0.792 0.293,0.739 0.351,0.687 0.293,0.473 0.118,0.422 0.175,0.265 0.059,-0.687 -0.059,-0.633 v -0.844 l -0.058,-0.632 v -0.473 l 0.117,-0.531 0.234,-0.422 0.235,-0.367 0.351,-0.473 0.176,-0.27 0.352,-0.16 0.351,-0.211 0.352,-0.05 0.351,-0.106 h 1.172"
           style="fill:none;stroke:#ff0000;stroke-width:1.07475;stroke-linecap:round;stroke-linejoin:round;stroke-miterlimit:10;stroke-dasharray:none;stroke-opacity:1"
           id="path434" /></g><g
         id="g436"><path
           d="m 241.469,104.512 0.172,0.261 0.062,0.422 0.055,0.688 0.121,0.738 0.172,0.844 0.121,0.844 0.176,0.738 0.117,0.582 0.234,0.844 0.059,-0.739 -0.059,-0.738"
           style="fill:none;stroke:#ff0000;stroke-width:1.07475;stroke-linecap:round;stroke-linejoin:round;stroke-miterlimit:10;stroke-dasharray:none;stroke-opacity:1"
           id="path438" /></g><g
         id="g440"><path
           d="m 241.828,98.879 v 0"
           style="fill:none;stroke:#ff0000;stroke-width:1.07475;stroke-linecap:round;stroke-linejoin:round;stroke-miterlimit:10;stroke-dasharray:none;stroke-opacity:1"
           id="path442" /></g><g
         id="g444"><path
           d="m 246.504,104.098 -0.117,0.523 0.058,0.32 0.117,0.422 0.176,0.578 0.176,0.528 0.234,0.636 0.176,0.633 0.176,0.582 0.176,0.578 v 0.422 l 0.058,0.371 0.235,-0.476 0.176,-0.422 0.468,-1.266 0.356,-0.578 0.347,-0.691 0.414,-0.473 0.411,-0.367 0.41,-0.207 0.761,0.152 0.411,0.422 0.234,0.578 0.293,0.848 0.234,0.789 0.235,0.793 0.176,0.738 0.179,0.637 0.055,0.684"
           style="fill:none;stroke:#ff0000;stroke-width:1.07475;stroke-linecap:round;stroke-linejoin:round;stroke-miterlimit:10;stroke-dasharray:none;stroke-opacity:1"
           id="path446" /></g><g
         id="g448"><path
           d="m 255.648,103.887 h -0.41 l -0.234,0.261 -0.293,0.372 -0.117,0.472 -0.059,0.317 -0.058,0.371 v 0.316 l 0.175,0.527 0.469,0.422 0.469,0.215 0.41,0.207 0.586,0.266 0.59,0.367 0.644,0.371 0.762,0.422 1.289,0.844 0.469,0.367 0.234,0.215 0.238,0.211 -0.062,0.316 -0.293,0.156 -0.469,0.215 -0.761,0.207 h -0.766 l -0.879,0.055 h -0.937 l -0.817,-0.055 h -0.824 l -1.055,-0.105 -0.351,-0.102 -0.469,-0.265 0.293,-0.262"
           style="fill:none;stroke:#ff0000;stroke-width:1.07475;stroke-linecap:round;stroke-linejoin:round;stroke-miterlimit:10;stroke-dasharray:none;stroke-opacity:1"
           id="path450" /></g><g
         id="g452"><path
           d="m 264.469,103.996 0.347,0.32 0.297,0.368 0.352,0.527 0.351,1.375 0.235,1.476 0.293,1.055 0.058,0.317 -0.058,-0.368 -0.059,-0.425 -0.117,-0.579"
           style="fill:none;stroke:#ff0000;stroke-width:1.07475;stroke-linecap:round;stroke-linejoin:round;stroke-miterlimit:10;stroke-dasharray:none;stroke-opacity:1"
           id="path454" /></g><g
         id="g456"><path
           d="M 265.465,99.934 V 99.566"
           style="fill:none;stroke:#ff0000;stroke-width:1.07475;stroke-linecap:round;stroke-linejoin:round;stroke-miterlimit:10;stroke-dasharray:none;stroke-opacity:1"
           id="path458" /></g><g
         id="g460"><path
           d="m 275.199,104.316 0.117,-0.425 0.059,-0.422 -0.117,-0.422 -0.41,-0.211 -0.469,-0.106 -0.473,0.106 -0.703,0.266 -0.644,0.367 -0.586,0.527 -0.411,0.637 -0.292,0.683 -0.176,0.793 -0.059,0.895 v 0.898 l 0.176,0.844 0.234,0.793 0.469,0.527 0.586,0.372 0.645,0.21 0.824,0.106 0.879,0.055 0.879,-0.215 0.937,-0.258 0.879,-0.43 0.766,-0.523 0.761,-0.371 0.528,-0.211"
           style="fill:none;stroke:#ff0000;stroke-width:1.07475;stroke-linecap:round;stroke-linejoin:round;stroke-miterlimit:10;stroke-dasharray:none;stroke-opacity:1"
           id="path462" /></g><g
         id="g464"><path
           d="m 225.754,80.492 0.058,0.367 v 3.457 l 0.352,0.133 0.469,-0.051 0.383,-0.027 0.5,-0.027 0.32,-0.028 0.617,-0.023 0.379,-0.027 0.41,-0.028 0.442,-0.027 h 3.636 l 0.5,0.055 0.496,0.027 0.469,0.023 0.527,0.028 h 1.086 l 0.645,-0.028 h 0.645 l 0.707,-0.023 0.703,-0.027 0.73,-0.055 0.734,-0.051 0.704,-0.027 0.734,-0.028 0.703,-0.027 0.676,-0.023 h 6.539 l 0.586,0.023 0.555,0.055 0.531,0.051 0.496,0.027 0.469,0.055 0.414,0.05 0.41,0.055 0.379,0.051 0.351,0.055 0.352,0.05 0.531,0.059 0.645,0.047 0.351,0.055"
           style="fill:none;stroke:#ff0000;stroke-width:0.85;stroke-linecap:round;stroke-linejoin:round;stroke-miterlimit:10;stroke-dasharray:none;stroke-opacity:1"
           id="path466" /></g><g
         id="g468"><path
           d="m 257.512,80.965 -0.176,0.371 v 1.344 l 0.031,0.371 0.028,0.344 0.089,0.554 0.055,0.317"
           style="fill:none;stroke:#ff0000;stroke-width:0.85;stroke-linecap:round;stroke-linejoin:round;stroke-miterlimit:10;stroke-dasharray:none;stroke-opacity:1"
           id="path470" /></g><g
         id="g472"><path
           d="m 223.184,82.586 -0.375,-0.172 -0.45,-0.191 -0.449,-0.172 -0.328,-0.125 -0.309,-0.106 -0.351,-0.109 -0.379,-0.106 -0.426,-0.144 -0.445,-0.125 -0.496,-0.176 -0.543,-0.148 -0.637,-0.149 -0.73,-0.148 -0.825,-0.149 -0.898,-0.128 -0.965,-0.149 -1.016,-0.125 -1.015,-0.105 -1.059,-0.086 -1.109,-0.086 -1.156,-0.043 -1.25,-0.063 -1.297,-0.043 -1.321,-0.019 H 202.5 l -1.484,0.039 -1.508,0.109 -1.535,0.149 -1.555,0.195 -1.559,0.25 -1.507,0.234 -1.489,0.274 -1.414,0.32 -1.39,0.34 -1.368,0.359 -1.32,0.383 -1.297,0.402 -1.297,0.426 -1.273,0.422 -1.227,0.469 -1.156,0.465 -1.062,0.511 -1.016,0.551 -0.965,0.594 -0.945,0.66 -0.848,0.723 -0.801,0.742 -0.707,0.742 -0.636,0.742 -0.59,0.742 -0.52,0.723 -0.472,0.699 -0.375,0.68 -0.309,0.66 -0.211,0.614 -0.141,0.617 -0.097,0.636 -0.047,0.637 -0.024,0.68 0.047,0.703 0.094,0.719 0.168,0.718 0.258,0.68 0.281,0.594 0.356,0.512 0.379,0.464 0.445,0.45 0.472,0.402 0.543,0.402 0.59,0.403 0.684,0.425 0.754,0.446 0.828,0.465 0.848,0.488 0.918,0.512 0.921,0.488 0.942,0.465 0.992,0.445 0.988,0.449 1.063,0.422 2.219,0.852 1.132,0.359 1.106,0.317 1.133,0.277 1.132,0.211 1.11,0.152 1.058,0.149 1.016,0.062 0.992,0.063 0.988,0.043"
           style="fill:none;stroke:#ff0000;stroke-width:0.85;stroke-linecap:round;stroke-linejoin:round;stroke-miterlimit:10;stroke-dasharray:none;stroke-opacity:1"
           id="path474" /></g><g
         id="g476"><path
           d="m 195.07,107.711 -0.14,0.426 -0.047,0.297 -0.047,0.593 v 1.125 l 0.023,0.426 0.024,0.402 0.047,0.34 0.047,0.407 0.046,-0.45 -0.023,-0.398 -0.047,-0.449 -0.023,-0.446 -0.094,-0.89 -0.024,-0.383 -0.023,-0.34 -0.047,-0.402 0.375,-0.106 0.543,0.211 0.309,0.168 0.328,0.129 0.355,0.191 0.426,0.168 0.492,0.129 0.567,0.211 0.636,0.235 0.637,0.191 0.66,0.254 0.618,0.211 0.515,0.191 0.473,0.172 0.402,0.149 0.281,0.125 0.356,0.113 -0.309,0.375 -0.328,0.172 -0.379,0.148 -0.472,0.168 -0.539,0.153 -0.618,0.109 -0.683,0.125 -0.731,0.082 -0.777,0.086 -0.754,0.086 -0.66,0.062 -0.637,0.125"
           style="fill:none;stroke:#ff0000;stroke-width:0.85;stroke-linecap:round;stroke-linejoin:round;stroke-miterlimit:10;stroke-dasharray:none;stroke-opacity:1"
           id="path478" /></g></g></g></svg>
