<?xml version="1.0" encoding="UTF-8" standalone="no"?>
<!-- Created with Inkscape (http://www.inkscape.org/) -->

<svg
   xmlns:osb="http://www.openswatchbook.org/uri/2009/osb"
   xmlns:dc="http://purl.org/dc/elements/1.1/"
   xmlns:cc="http://creativecommons.org/ns#"
   xmlns:rdf="http://www.w3.org/1999/02/22-rdf-syntax-ns#"
   xmlns:svg="http://www.w3.org/2000/svg"
   xmlns="http://www.w3.org/2000/svg"
   xmlns:sodipodi="http://sodipodi.sourceforge.net/DTD/sodipodi-0.dtd"
   xmlns:inkscape="http://www.inkscape.org/namespaces/inkscape"
   width="477.27097mm"
   height="156.74715mm"
   viewBox="0 0 477.27096 156.74715"
   version="1.1"
   id="svg8"
   inkscape:version="0.92.4 (5da689c313, 2019-01-14)"
   sodipodi:docname="progress1v2.svg">
  <defs
     id="defs2">
    <linearGradient
       id="linearGradient964"
       osb:paint="gradient">
      <stop
         style="stop-color:#000000;stop-opacity:1;"
         offset="0"
         id="stop960" />
      <stop
         style="stop-color:#000000;stop-opacity:0;"
         offset="1"
         id="stop962" />
    </linearGradient>
  </defs>
  <sodipodi:namedview
     id="base"
     pagecolor="#ffffff"
     bordercolor="#666666"
     borderopacity="1.0"
     inkscape:pageopacity="0.0"
     inkscape:pageshadow="2"
     inkscape:zoom="0.49497475"
     inkscape:cx="876.47897"
     inkscape:cy="359.21829"
     inkscape:document-units="mm"
     inkscape:current-layer="layer1"
     showgrid="false"
     inkscape:snap-object-midpoints="true"
     inkscape:object-nodes="true"
     inkscape:snap-smooth-nodes="false"
     inkscape:window-width="1366"
     inkscape:window-height="739"
     inkscape:window-x="0"
     inkscape:window-y="0"
     inkscape:window-maximized="1" />
  <metadata
     id="metadata5">
    <rdf:RDF>
      <cc:Work
         rdf:about="">
        <dc:format>image/svg+xml</dc:format>
        <dc:type
           rdf:resource="http://purl.org/dc/dcmitype/StillImage" />
        <dc:title></dc:title>
      </cc:Work>
    </rdf:RDF>
  </metadata>
  <g
     inkscape:label="Layer 1"
     inkscape:groupmode="layer"
     id="layer1"
     transform="translate(42.52887,18.633398)">
    <path
       style="opacity:1;vector-effect:none;fill:#f81d1d;fill-opacity:1;fill-rule:evenodd;stroke:none;stroke-width:0.26499999;stroke-linecap:round;stroke-linejoin:round;stroke-miterlimit:4;stroke-dasharray:none;stroke-dashoffset:0;stroke-opacity:1;paint-order:normal"
       id="path884"
       sodipodi:type="arc"
       sodipodi:cx="25.791513"
       sodipodi:cy="53.918362"
       sodipodi:rx="18.520834"
       sodipodi:ry="18.520834"
       sodipodi:start="4.7141343"
       sodipodi:end="4.7100502"
       sodipodi:open="true"
       d="M 25.823838,35.397556 A 18.520834,18.520834 0 0 1 44.312343,53.931776 18.520834,18.520834 0 0 1 25.797009,72.439195 18.520834,18.520834 0 0 1 7.2706956,53.942768 18.520834,18.520834 0 0 1 25.748197,35.397578" />
    <path
       style="opacity:1;vector-effect:none;fill:#000000;fill-opacity:1;fill-rule:evenodd;stroke:#000000;stroke-width:0.26499999;stroke-linecap:round;stroke-linejoin:round;stroke-miterlimit:4;stroke-dasharray:none;stroke-dashoffset:0;stroke-opacity:1;paint-order:normal"
       id="path815"
       sodipodi:type="arc"
       sodipodi:cx="25.791513"
       sodipodi:cy="53.918377"
       sodipodi:rx="11.358955"
       sodipodi:ry="11.358955"
       sodipodi:start="4.7141343"
       sodipodi:end="4.7100502"
       sodipodi:open="true"
       d="M 25.811338,42.559439 A 11.358955,11.358955 0 0 1 37.150466,53.926604 11.358955,11.358955 0 0 1 25.794884,65.277332 11.358955,11.358955 0 0 1 14.432568,53.933345 11.358955,11.358955 0 0 1 25.764947,42.559453" />
    <path
       style="opacity:1;vector-effect:none;fill:#000000;fill-opacity:1;fill-rule:evenodd;stroke:#000000;stroke-width:0.26499999;stroke-linecap:round;stroke-linejoin:round;stroke-miterlimit:4;stroke-dasharray:none;stroke-dashoffset:0;stroke-opacity:1;paint-order:normal"
       id="path815-9"
       sodipodi:type="arc"
       sodipodi:cx="110.7498"
       sodipodi:cy="53.918377"
       sodipodi:rx="11.358955"
       sodipodi:ry="11.358955"
       sodipodi:start="4.7141343"
       sodipodi:end="4.7100502"
       sodipodi:open="true"
       d="M 110.76963,42.559439 A 11.358955,11.358955 0 0 1 122.10875,53.926604 11.358955,11.358955 0 0 1 110.75317,65.277332 11.358955,11.358955 0 0 1 99.390856,53.933345 11.358955,11.358955 0 0 1 110.72324,42.559453" />
    <path
       style="opacity:1;vector-effect:none;fill:#000000;fill-opacity:1;fill-rule:evenodd;stroke:#000000;stroke-width:0.26499999;stroke-linecap:round;stroke-linejoin:round;stroke-miterlimit:4;stroke-dasharray:none;stroke-dashoffset:0;stroke-opacity:1;paint-order:normal"
       id="path815-6"
       sodipodi:type="arc"
       sodipodi:cx="195.7081"
       sodipodi:cy="53.918377"
       sodipodi:rx="11.358955"
       sodipodi:ry="11.358955"
       sodipodi:start="4.7141343"
       sodipodi:end="4.7100502"
       sodipodi:open="true"
       d="M 195.72792,42.559439 A 11.358955,11.358955 0 0 1 207.06705,53.926604 11.358955,11.358955 0 0 1 195.71147,65.277332 11.358955,11.358955 0 0 1 184.34915,53.933345 11.358955,11.358955 0 0 1 195.68153,42.559453" />
    <path
       style="opacity:1;vector-effect:none;fill:#000000;fill-opacity:1;fill-rule:evenodd;stroke:#000000;stroke-width:0.26499999;stroke-linecap:round;stroke-linejoin:round;stroke-miterlimit:4;stroke-dasharray:none;stroke-dashoffset:0;stroke-opacity:1;paint-order:normal"
       id="path815-1"
       sodipodi:type="arc"
       sodipodi:cx="280.66638"
       sodipodi:cy="53.918377"
       sodipodi:rx="11.358955"
       sodipodi:ry="11.358955"
       sodipodi:start="4.7141343"
       sodipodi:end="4.7100502"
       sodipodi:open="true"
       d="M 280.68621,42.559439 A 11.358955,11.358955 0 0 1 292.02533,53.926604 11.358955,11.358955 0 0 1 280.66975,65.277332 11.358955,11.358955 0 0 1 269.30744,53.933345 11.358955,11.358955 0 0 1 280.63982,42.559453" />
    <path
       style="opacity:1;vector-effect:none;fill:#000000;fill-opacity:1;fill-rule:evenodd;stroke:#000000;stroke-width:0.26499999;stroke-linecap:round;stroke-linejoin:round;stroke-miterlimit:4;stroke-dasharray:none;stroke-dashoffset:0;stroke-opacity:1;paint-order:normal"
       id="path815-0"
       sodipodi:type="arc"
       sodipodi:cx="365.62469"
       sodipodi:cy="53.918377"
       sodipodi:rx="11.358955"
       sodipodi:ry="11.358955"
       sodipodi:start="4.7141343"
       sodipodi:end="4.7100502"
       sodipodi:open="true"
       d="M 365.64452,42.559439 A 11.358955,11.358955 0 0 1 376.98365,53.926604 11.358955,11.358955 0 0 1 365.62807,65.277332 11.358955,11.358955 0 0 1 354.26575,53.933345 11.358955,11.358955 0 0 1 365.59813,42.559453" />
    <rect
       style="opacity:1;vector-effect:none;fill:#000000;fill-opacity:1;fill-rule:evenodd;stroke:#000000;stroke-width:0.18680745;stroke-linecap:round;stroke-linejoin:round;stroke-miterlimit:4;stroke-dasharray:none;stroke-dashoffset:0;stroke-opacity:1;paint-order:normal"
       id="rect874"
       width="343.25632"
       height="2.7291455"
       x="28.088972"
       y="52.553802"
       ry="1.3645728" />
  </g>
</svg>
