<?xml version="1.0" encoding="UTF-8" standalone="no"?>
<!-- Created with Inkscape (http://www.inkscape.org/) -->

<svg
   xmlns:dc="http://purl.org/dc/elements/1.1/"
   xmlns:cc="http://creativecommons.org/ns#"
   xmlns:rdf="http://www.w3.org/1999/02/22-rdf-syntax-ns#"
   xmlns:svg="http://www.w3.org/2000/svg"
   xmlns="http://www.w3.org/2000/svg"
   xmlns:sodipodi="http://sodipodi.sourceforge.net/DTD/sodipodi-0.dtd"
   xmlns:inkscape="http://www.inkscape.org/namespaces/inkscape"
   version="1.1"
   id="svg2"
   xml:space="preserve"
   width="768"
   height="672"
   viewBox="0 0 768 672"
   sodipodi:docname="profile_hist_b0_1.svg"
   inkscape:version="0.92.4 (5da689c313, 2019-01-14)"><metadata
     id="metadata8"><rdf:RDF><cc:Work
         rdf:about=""><dc:format>image/svg+xml</dc:format><dc:type
           rdf:resource="http://purl.org/dc/dcmitype/StillImage" /><dc:title></dc:title></cc:Work></rdf:RDF></metadata><defs
     id="defs6"><clipPath
       clipPathUnits="userSpaceOnUse"
       id="clipPath22"><path
         d="M 88.14,69.78 H 550.08 V 444.144 H 88.14 Z"
         id="path20"
         inkscape:connector-curvature="0" /></clipPath><clipPath
       clipPathUnits="userSpaceOnUse"
       id="clipPath38"><path
         d="M 88.14,69.78 H 550.08 V 444.144 H 88.14 Z"
         id="path36"
         inkscape:connector-curvature="0" /></clipPath><clipPath
       clipPathUnits="userSpaceOnUse"
       id="clipPath54"><path
         d="M 88.14,69.78 H 550.08 V 444.144 H 88.14 Z"
         id="path52"
         inkscape:connector-curvature="0" /></clipPath><clipPath
       clipPathUnits="userSpaceOnUse"
       id="clipPath70"><path
         d="M 88.14,69.78 H 550.08 V 444.144 H 88.14 Z"
         id="path68"
         inkscape:connector-curvature="0" /></clipPath><clipPath
       clipPathUnits="userSpaceOnUse"
       id="clipPath86"><path
         d="M 88.14,69.78 H 550.08 V 444.144 H 88.14 Z"
         id="path84"
         inkscape:connector-curvature="0" /></clipPath><clipPath
       clipPathUnits="userSpaceOnUse"
       id="clipPath102"><path
         d="M 88.14,69.78 H 550.08 V 444.144 H 88.14 Z"
         id="path100"
         inkscape:connector-curvature="0" /></clipPath><clipPath
       clipPathUnits="userSpaceOnUse"
       id="clipPath118"><path
         d="M 88.14,69.78 H 550.08 V 444.144 H 88.14 Z"
         id="path116"
         inkscape:connector-curvature="0" /></clipPath><clipPath
       clipPathUnits="userSpaceOnUse"
       id="clipPath134"><path
         d="M 88.14,69.78 H 550.08 V 444.144 H 88.14 Z"
         id="path132"
         inkscape:connector-curvature="0" /></clipPath><clipPath
       clipPathUnits="userSpaceOnUse"
       id="clipPath150"><path
         d="M 88.14,69.78 H 550.08 V 444.144 H 88.14 Z"
         id="path148"
         inkscape:connector-curvature="0" /></clipPath><clipPath
       clipPathUnits="userSpaceOnUse"
       id="clipPath170"><path
         d="M 88.14,69.78 H 550.08 V 444.144 H 88.14 Z"
         id="path168"
         inkscape:connector-curvature="0" /></clipPath><clipPath
       clipPathUnits="userSpaceOnUse"
       id="clipPath190"><path
         d="M -1021,-463 H 1794 V 1233 H -1021 Z"
         id="path188"
         inkscape:connector-curvature="0" /></clipPath><clipPath
       clipPathUnits="userSpaceOnUse"
       id="clipPath200"><path
         d="M 88.14,69.78 H 550.08 V 444.144 H 88.14 Z"
         id="path198"
         inkscape:connector-curvature="0" /></clipPath><clipPath
       clipPathUnits="userSpaceOnUse"
       id="clipPath220"><path
         d="M -1021,-463 H 1794 V 1233 H -1021 Z"
         id="path218"
         inkscape:connector-curvature="0" /></clipPath><clipPath
       clipPathUnits="userSpaceOnUse"
       id="clipPath230"><path
         d="M 88.14,69.78 H 550.08 V 444.144 H 88.14 Z"
         id="path228"
         inkscape:connector-curvature="0" /></clipPath><clipPath
       clipPathUnits="userSpaceOnUse"
       id="clipPath250"><path
         d="M -1021,-463 H 1794 V 1233 H -1021 Z"
         id="path248"
         inkscape:connector-curvature="0" /></clipPath><clipPath
       clipPathUnits="userSpaceOnUse"
       id="clipPath260"><path
         d="M 88.14,69.78 H 550.08 V 444.144 H 88.14 Z"
         id="path258"
         inkscape:connector-curvature="0" /></clipPath><clipPath
       clipPathUnits="userSpaceOnUse"
       id="clipPath276"><path
         d="M 88.14,69.78 H 550.08 V 444.144 H 88.14 Z"
         id="path274"
         inkscape:connector-curvature="0" /></clipPath><clipPath
       clipPathUnits="userSpaceOnUse"
       id="clipPath292"><path
         d="M 88.14,69.78 H 550.08 V 444.144 H 88.14 Z"
         id="path290"
         inkscape:connector-curvature="0" /></clipPath><clipPath
       clipPathUnits="userSpaceOnUse"
       id="clipPath308"><path
         d="M 88.14,69.78 H 550.08 V 444.144 H 88.14 Z"
         id="path306"
         inkscape:connector-curvature="0" /></clipPath><clipPath
       clipPathUnits="userSpaceOnUse"
       id="clipPath328"><path
         d="M 88.14,69.78 H 550.08 V 444.144 H 88.14 Z"
         id="path326"
         inkscape:connector-curvature="0" /></clipPath><clipPath
       clipPathUnits="userSpaceOnUse"
       id="clipPath338"><path
         d="M 88.14,69.78 H 550.08 V 444.144 H 88.14 Z"
         id="path336"
         inkscape:connector-curvature="0" /></clipPath></defs><sodipodi:namedview
     pagecolor="#ffffff"
     bordercolor="#666666"
     borderopacity="1"
     objecttolerance="10"
     gridtolerance="10"
     guidetolerance="10"
     inkscape:pageopacity="0"
     inkscape:pageshadow="2"
     inkscape:window-width="640"
     inkscape:window-height="480"
     id="namedview4"
     showgrid="false"
     inkscape:zoom="0.35119048"
     inkscape:cx="384"
     inkscape:cy="336"
     inkscape:window-x="0"
     inkscape:window-y="0"
     inkscape:window-maximized="0"
     inkscape:current-layer="g10" /><g
     id="g10"
     inkscape:groupmode="layer"
     inkscape:label="profile_hist_b0_1"
     transform="matrix(1.3333333,0,0,-1.3333333,0,672)"><path
       d="M 0,0 H 576 V 504 H 0 Z"
       style="fill:#ffffff;fill-opacity:1;fill-rule:nonzero;stroke:none"
       id="path12"
       inkscape:connector-curvature="0" /><path
       d="M 88.14,69.78 H 550.08 V 444.144 H 88.14 Z"
       style="fill:#ffffff;fill-opacity:1;fill-rule:nonzero;stroke:none"
       id="path14"
       inkscape:connector-curvature="0" /><g
       id="g16"><g
         id="g18"
         clip-path="url(#clipPath22)"><path
           d="M 109.13727,69.78 V 444.144"
           style="fill:none;stroke:#cccccc;stroke-width:1.5;stroke-linecap:round;stroke-linejoin:round;stroke-miterlimit:10;stroke-dasharray:none;stroke-opacity:0.7"
           id="path24"
           inkscape:connector-curvature="0" /></g></g><g
       id="g26"><text
         transform="matrix(1,0,0,-1,103.88727,44.74875)"
         style="font-variant:normal;font-weight:normal;font-size:16.5px;font-family:'DejaVu Sans';-inkscape-font-specification:DejaVuSans;writing-mode:lr-tb;fill:#262626;fill-opacity:1;fill-rule:nonzero;stroke:none"
         id="text30"><tspan
           x="0"
           y="0"
           id="tspan28">0</tspan></text>
</g><g
       id="g32"><g
         id="g34"
         clip-path="url(#clipPath38)"><path
           d="M 161.63045,69.78 V 444.144"
           style="fill:none;stroke:#cccccc;stroke-width:1.5;stroke-linecap:round;stroke-linejoin:round;stroke-miterlimit:10;stroke-dasharray:none;stroke-opacity:0.7"
           id="path40"
           inkscape:connector-curvature="0" /></g></g><g
       id="g42"><text
         transform="matrix(1,0,0,-1,151.13045,44.74875)"
         style="font-variant:normal;font-weight:normal;font-size:16.5px;font-family:'DejaVu Sans';-inkscape-font-specification:DejaVuSans;writing-mode:lr-tb;fill:#262626;fill-opacity:1;fill-rule:nonzero;stroke:none"
         id="text46"><tspan
           x="0 10.494"
           y="0"
           sodipodi:role="line"
           id="tspan44">10</tspan></text>
</g><g
       id="g48"><g
         id="g50"
         clip-path="url(#clipPath54)"><path
           d="M 214.12364,69.78 V 444.144"
           style="fill:none;stroke:#cccccc;stroke-width:1.5;stroke-linecap:round;stroke-linejoin:round;stroke-miterlimit:10;stroke-dasharray:none;stroke-opacity:0.7"
           id="path56"
           inkscape:connector-curvature="0" /></g></g><g
       id="g58"><text
         transform="matrix(1,0,0,-1,203.62364,44.74875)"
         style="font-variant:normal;font-weight:normal;font-size:16.5px;font-family:'DejaVu Sans';-inkscape-font-specification:DejaVuSans;writing-mode:lr-tb;fill:#262626;fill-opacity:1;fill-rule:nonzero;stroke:none"
         id="text62"><tspan
           x="0 10.494"
           y="0"
           sodipodi:role="line"
           id="tspan60">20</tspan></text>
</g><g
       id="g64"><g
         id="g66"
         clip-path="url(#clipPath70)"><path
           d="M 266.61682,69.78 V 444.144"
           style="fill:none;stroke:#cccccc;stroke-width:1.5;stroke-linecap:round;stroke-linejoin:round;stroke-miterlimit:10;stroke-dasharray:none;stroke-opacity:0.7"
           id="path72"
           inkscape:connector-curvature="0" /></g></g><g
       id="g74"><text
         transform="matrix(1,0,0,-1,256.11682,44.74875)"
         style="font-variant:normal;font-weight:normal;font-size:16.5px;font-family:'DejaVu Sans';-inkscape-font-specification:DejaVuSans;writing-mode:lr-tb;fill:#262626;fill-opacity:1;fill-rule:nonzero;stroke:none"
         id="text78"><tspan
           x="0 10.494"
           y="0"
           sodipodi:role="line"
           id="tspan76">30</tspan></text>
</g><g
       id="g80"><g
         id="g82"
         clip-path="url(#clipPath86)"><path
           d="M 319.11,69.78 V 444.144"
           style="fill:none;stroke:#cccccc;stroke-width:1.5;stroke-linecap:round;stroke-linejoin:round;stroke-miterlimit:10;stroke-dasharray:none;stroke-opacity:0.7"
           id="path88"
           inkscape:connector-curvature="0" /></g></g><g
       id="g90"><text
         transform="matrix(1,0,0,-1,308.61,44.74875)"
         style="font-variant:normal;font-weight:normal;font-size:16.5px;font-family:'DejaVu Sans';-inkscape-font-specification:DejaVuSans;writing-mode:lr-tb;fill:#262626;fill-opacity:1;fill-rule:nonzero;stroke:none"
         id="text94"><tspan
           x="0 10.494"
           y="0"
           sodipodi:role="line"
           id="tspan92">40</tspan></text>
</g><g
       id="g96"><g
         id="g98"
         clip-path="url(#clipPath102)"><path
           d="M 371.60318,69.78 V 444.144"
           style="fill:none;stroke:#cccccc;stroke-width:1.5;stroke-linecap:round;stroke-linejoin:round;stroke-miterlimit:10;stroke-dasharray:none;stroke-opacity:0.7"
           id="path104"
           inkscape:connector-curvature="0" /></g></g><g
       id="g106"><text
         transform="matrix(1,0,0,-1,361.10318,44.74875)"
         style="font-variant:normal;font-weight:normal;font-size:16.5px;font-family:'DejaVu Sans';-inkscape-font-specification:DejaVuSans;writing-mode:lr-tb;fill:#262626;fill-opacity:1;fill-rule:nonzero;stroke:none"
         id="text110"><tspan
           x="0 10.494"
           y="0"
           sodipodi:role="line"
           id="tspan108">50</tspan></text>
</g><g
       id="g112"><g
         id="g114"
         clip-path="url(#clipPath118)"><path
           d="M 424.09636,69.78 V 444.144"
           style="fill:none;stroke:#cccccc;stroke-width:1.5;stroke-linecap:round;stroke-linejoin:round;stroke-miterlimit:10;stroke-dasharray:none;stroke-opacity:0.7"
           id="path120"
           inkscape:connector-curvature="0" /></g></g><g
       id="g122"><text
         transform="matrix(1,0,0,-1,413.59636,44.74875)"
         style="font-variant:normal;font-weight:normal;font-size:16.5px;font-family:'DejaVu Sans';-inkscape-font-specification:DejaVuSans;writing-mode:lr-tb;fill:#262626;fill-opacity:1;fill-rule:nonzero;stroke:none"
         id="text126"><tspan
           x="0 10.494"
           y="0"
           sodipodi:role="line"
           id="tspan124">60</tspan></text>
</g><g
       id="g128"><g
         id="g130"
         clip-path="url(#clipPath134)"><path
           d="M 476.58954,69.78 V 444.144"
           style="fill:none;stroke:#cccccc;stroke-width:1.5;stroke-linecap:round;stroke-linejoin:round;stroke-miterlimit:10;stroke-dasharray:none;stroke-opacity:0.7"
           id="path136"
           inkscape:connector-curvature="0" /></g></g><g
       id="g138"><text
         transform="matrix(1,0,0,-1,466.08955,44.74875)"
         style="font-variant:normal;font-weight:normal;font-size:16.5px;font-family:'DejaVu Sans';-inkscape-font-specification:DejaVuSans;writing-mode:lr-tb;fill:#262626;fill-opacity:1;fill-rule:nonzero;stroke:none"
         id="text142"><tspan
           x="0 10.494"
           y="0"
           sodipodi:role="line"
           id="tspan140">70</tspan></text>
</g><g
       id="g144"><g
         id="g146"
         clip-path="url(#clipPath150)"><path
           d="M 529.08273,69.78 V 444.144"
           style="fill:none;stroke:#cccccc;stroke-width:1.5;stroke-linecap:round;stroke-linejoin:round;stroke-miterlimit:10;stroke-dasharray:none;stroke-opacity:0.7"
           id="path152"
           inkscape:connector-curvature="0" /></g></g><g
       id="g154"><text
         transform="matrix(1,0,0,-1,518.58273,44.74875)"
         style="font-variant:normal;font-weight:normal;font-size:16.5px;font-family:'DejaVu Sans';-inkscape-font-specification:DejaVuSans;writing-mode:lr-tb;fill:#262626;fill-opacity:1;fill-rule:nonzero;stroke:none"
         id="text158"><tspan
           x="0 10.494"
           y="0"
           sodipodi:role="line"
           id="tspan156">80</tspan></text>
<text
         transform="matrix(1,0,0,-1,275.74281,23.639375)"
         style="font-variant:normal;font-weight:normal;font-size:18px;font-family:'DejaVu Sans';-inkscape-font-specification:DejaVuSans;writing-mode:lr-tb;fill:#262626;fill-opacity:1;fill-rule:nonzero;stroke:none"
         id="text162"><tspan
           x="0 9.3780003 14.382 19.386 29.285999 40.355999 46.080002 53.136002 58.139999 75.671997"
           y="0"
           sodipodi:role="line"
           id="tspan160">slice time</tspan></text>
</g><g
       id="g164"><g
         id="g166"
         clip-path="url(#clipPath170)"><path
           d="M 88.14,104.57503 H 550.08"
           style="fill:none;stroke:#cccccc;stroke-width:1.5;stroke-linecap:round;stroke-linejoin:round;stroke-miterlimit:10;stroke-dasharray:none;stroke-opacity:0.7"
           id="path172"
           inkscape:connector-curvature="0" /></g></g><g
       id="g174"><g
         id="g176"
         transform="translate(40.811875,98.309401)"><text
           transform="matrix(1,0,0,-1,13.825195,0)"
           style="font-variant:normal;font-weight:normal;font-size:16.5px;font-family:'DejaVu Sans';-inkscape-font-specification:DejaVuSans;writing-mode:lr-tb;fill:#262626;fill-opacity:1;fill-rule:nonzero;stroke:none"
           id="text180"><tspan
             x="0 10.494"
             y="0"
             sodipodi:role="line"
             id="tspan178">60</tspan></text>
<g
           id="g182"
           transform="scale(0.0165)"><g
             id="g184"><g
               id="g186"
               clip-path="url(#clipPath190)"><path
                 d="M 106,355 H 732 V 272 H 106 v 83"
                 style="fill:#262626;fill-opacity:1;fill-rule:nonzero;stroke:none"
                 id="path192"
                 inkscape:connector-curvature="0" /></g></g></g></g></g><g
       id="g194"><g
         id="g196"
         clip-path="url(#clipPath200)"><path
           d="M 88.14,155.37068 H 550.08"
           style="fill:none;stroke:#cccccc;stroke-width:1.5;stroke-linecap:round;stroke-linejoin:round;stroke-miterlimit:10;stroke-dasharray:none;stroke-opacity:0.7"
           id="path202"
           inkscape:connector-curvature="0" /></g></g><g
       id="g204"><g
         id="g206"
         transform="translate(40.811875,149.10506)"><text
           transform="matrix(1,0,0,-1,13.825195,0)"
           style="font-variant:normal;font-weight:normal;font-size:16.5px;font-family:'DejaVu Sans';-inkscape-font-specification:DejaVuSans;writing-mode:lr-tb;fill:#262626;fill-opacity:1;fill-rule:nonzero;stroke:none"
           id="text210"><tspan
             x="0 10.494"
             y="0"
             sodipodi:role="line"
             id="tspan208">40</tspan></text>
<g
           id="g212"
           transform="scale(0.0165)"><g
             id="g214"><g
               id="g216"
               clip-path="url(#clipPath220)"><path
                 d="M 106,355 H 732 V 272 H 106 v 83"
                 style="fill:#262626;fill-opacity:1;fill-rule:nonzero;stroke:none"
                 id="path222"
                 inkscape:connector-curvature="0" /></g></g></g></g></g><g
       id="g224"><g
         id="g226"
         clip-path="url(#clipPath230)"><path
           d="M 88.14,206.16634 H 550.08"
           style="fill:none;stroke:#cccccc;stroke-width:1.5;stroke-linecap:round;stroke-linejoin:round;stroke-miterlimit:10;stroke-dasharray:none;stroke-opacity:0.7"
           id="path232"
           inkscape:connector-curvature="0" /></g></g><g
       id="g234"><g
         id="g236"
         transform="translate(40.811875,199.90072)"><text
           transform="matrix(1,0,0,-1,13.825195,0)"
           style="font-variant:normal;font-weight:normal;font-size:16.5px;font-family:'DejaVu Sans';-inkscape-font-specification:DejaVuSans;writing-mode:lr-tb;fill:#262626;fill-opacity:1;fill-rule:nonzero;stroke:none"
           id="text240"><tspan
             x="0 10.494"
             y="0"
             sodipodi:role="line"
             id="tspan238">20</tspan></text>
<g
           id="g242"
           transform="scale(0.0165)"><g
             id="g244"><g
               id="g246"
               clip-path="url(#clipPath250)"><path
                 d="M 106,355 H 732 V 272 H 106 v 83"
                 style="fill:#262626;fill-opacity:1;fill-rule:nonzero;stroke:none"
                 id="path252"
                 inkscape:connector-curvature="0" /></g></g></g></g></g><g
       id="g254"><g
         id="g256"
         clip-path="url(#clipPath260)"><path
           d="M 88.14,256.962 H 550.08"
           style="fill:none;stroke:#cccccc;stroke-width:1.5;stroke-linecap:round;stroke-linejoin:round;stroke-miterlimit:10;stroke-dasharray:none;stroke-opacity:0.7"
           id="path262"
           inkscape:connector-curvature="0" /></g></g><g
       id="g264"><text
         transform="matrix(1,0,0,-1,65.14,250.69637)"
         style="font-variant:normal;font-weight:normal;font-size:16.5px;font-family:'DejaVu Sans';-inkscape-font-specification:DejaVuSans;writing-mode:lr-tb;fill:#262626;fill-opacity:1;fill-rule:nonzero;stroke:none"
         id="text268"><tspan
           x="0"
           y="0"
           id="tspan266">0</tspan></text>
</g><g
       id="g270"><g
         id="g272"
         clip-path="url(#clipPath276)"><path
           d="M 88.14,307.75766 H 550.08"
           style="fill:none;stroke:#cccccc;stroke-width:1.5;stroke-linecap:round;stroke-linejoin:round;stroke-miterlimit:10;stroke-dasharray:none;stroke-opacity:0.7"
           id="path278"
           inkscape:connector-curvature="0" /></g></g><g
       id="g280"><text
         transform="matrix(1,0,0,-1,54.64,301.49203)"
         style="font-variant:normal;font-weight:normal;font-size:16.5px;font-family:'DejaVu Sans';-inkscape-font-specification:DejaVuSans;writing-mode:lr-tb;fill:#262626;fill-opacity:1;fill-rule:nonzero;stroke:none"
         id="text284"><tspan
           x="0 10.494"
           y="0"
           sodipodi:role="line"
           id="tspan282">20</tspan></text>
</g><g
       id="g286"><g
         id="g288"
         clip-path="url(#clipPath292)"><path
           d="M 88.14,358.55332 H 550.08"
           style="fill:none;stroke:#cccccc;stroke-width:1.5;stroke-linecap:round;stroke-linejoin:round;stroke-miterlimit:10;stroke-dasharray:none;stroke-opacity:0.7"
           id="path294"
           inkscape:connector-curvature="0" /></g></g><g
       id="g296"><text
         transform="matrix(1,0,0,-1,54.64,352.28769)"
         style="font-variant:normal;font-weight:normal;font-size:16.5px;font-family:'DejaVu Sans';-inkscape-font-specification:DejaVuSans;writing-mode:lr-tb;fill:#262626;fill-opacity:1;fill-rule:nonzero;stroke:none"
         id="text300"><tspan
           x="0 10.494"
           y="0"
           sodipodi:role="line"
           id="tspan298">40</tspan></text>
</g><g
       id="g302"><g
         id="g304"
         clip-path="url(#clipPath308)"><path
           d="M 88.14,409.34897 H 550.08"
           style="fill:none;stroke:#cccccc;stroke-width:1.5;stroke-linecap:round;stroke-linejoin:round;stroke-miterlimit:10;stroke-dasharray:none;stroke-opacity:0.7"
           id="path310"
           inkscape:connector-curvature="0" /></g></g><g
       id="g312"><text
         transform="matrix(1,0,0,-1,54.64,403.08335)"
         style="font-variant:normal;font-weight:normal;font-size:16.5px;font-family:'DejaVu Sans';-inkscape-font-specification:DejaVuSans;writing-mode:lr-tb;fill:#262626;fill-opacity:1;fill-rule:nonzero;stroke:none"
         id="text316"><tspan
           x="0 10.494"
           y="0"
           sodipodi:role="line"
           id="tspan314">60</tspan></text>
<text
         transform="matrix(0,1,1,0,33.061875,200.587)"
         style="font-variant:normal;font-weight:normal;font-size:18px;font-family:'DejaVu Sans';-inkscape-font-specification:DejaVuSans;writing-mode:lr-tb;fill:#262626;fill-opacity:1;fill-rule:nonzero;stroke:none"
         id="text320"><tspan
           x="0 9.3780003 14.382 19.386 29.285999 40.355999 46.080002 56.736 67.751999 72.755997 84.167999 101.7"
           y="0"
           sodipodi:role="line"
           id="tspan318">slice volume</tspan></text>
</g><g
       id="g322"><g
         id="g324"
         clip-path="url(#clipPath328)"><path
           d="m 109.13727,358.55332 5.24932,17.77848 5.24932,-12.69892 5.24932,33.01718 5.24931,30.47739 5.24932,-10.15913 5.24932,-5.07956 5.24932,-5.07957 5.24932,-50.79566 5.24932,17.77848 5.24931,-22.85804 5.24932,-10.15913 5.24932,-2.53979 5.24932,-27.93761 5.24932,2.53978 5.24931,15.2387 5.24932,25.39783 5.24932,2.53978 5.24932,2.53979 5.24932,5.07956 5.24932,15.2387 5.24931,22.85805 5.24932,25.39782 5.24932,-10.15913 5.24932,-15.23869 5.24932,-58.41501 5.24931,-7.61935 5.24932,-27.93761 5.24932,7.61935 5.24932,15.23869 5.24932,-2.53978 5.24932,-7.61935 5.24931,10.15913 5.24932,-12.69891 5.24932,-15.2387 5.24932,5.07957 5.24932,-15.2387 5.24932,5.07957 5.24931,-7.61935 5.24932,-17.77848 5.24932,-5.07957 5.24932,10.15913 5.24932,2.53979 h 5.24931 l 5.24932,25.39782 h 5.24932 l 5.24932,-22.85804 5.24932,22.85804 5.24932,-7.61934 h 5.24931 l 5.24932,2.53978 5.24932,12.69891 5.24932,-10.15913 5.24932,-10.15913 5.24931,10.15913 5.24932,20.31826 5.24932,22.85805 5.24932,-12.69891 5.24932,-2.53979 5.24932,5.07957 5.24931,20.31826 5.24932,-7.61935 5.24932,7.61935 5.24932,-15.23869 5.24932,12.69891 5.24932,2.53978 5.24931,-10.15913 5.24932,2.53978 5.24932,30.4774 5.24932,10.15913 5.24931,10.15913 5.24932,-43.17631 5.24932,-27.93761 5.24932,-20.31826 5.24932,-20.31827 5.24932,-2.53978 5.24931,7.61935 5.24932,-7.61935 5.24932,15.2387 5.24932,27.93761 5.24932,30.4774"
           style="fill:none;stroke:#348abd;stroke-width:2.25;stroke-linecap:round;stroke-linejoin:round;stroke-miterlimit:10;stroke-dasharray:none;stroke-opacity:1"
           id="path330"
           inkscape:connector-curvature="0" /></g></g><g
       id="g332"><g
         id="g334"
         clip-path="url(#clipPath338)"><path
           d="m 109.13727,155.37068 5.24932,-17.77848 5.24932,12.69892 5.24932,-33.01718 5.24931,-30.477395 5.24932,10.159132 5.24932,5.079563 5.24932,5.07957 5.24932,50.79566 5.24932,-17.77848 5.24931,22.85804 5.24932,10.15913 5.24932,2.53979 5.24932,27.93761 5.24932,-2.53978 5.24931,-15.2387 5.24932,-25.39783 5.24932,-2.53978 5.24932,-2.53979 5.24932,-5.07956 5.24932,-15.2387 5.24931,-22.85805 5.24932,-25.397825 5.24932,10.159132 5.24932,15.238693 5.24932,58.41501 5.24931,7.61935 5.24932,27.93761 5.24932,-7.61935 5.24932,-15.23869 5.24932,2.53978 5.24932,7.61935 5.24931,-10.15913 5.24932,12.69891 5.24932,15.2387 5.24932,-5.07957 5.24932,15.2387 5.24932,-5.07957 5.24931,7.61935 5.24932,17.77848 5.24932,5.07957 5.24932,-10.15913 5.24932,-2.53979 h 5.24931 l 5.24932,-25.39783 h 5.24932 l 5.24932,22.85805 5.24932,-22.85805 5.24932,7.61935 h 5.24931 l 5.24932,-2.53978 5.24932,-12.69891 5.24932,10.15913 5.24932,10.15913 5.24931,-10.15913 5.24932,-20.31827 5.24932,-22.85804 5.24932,12.69891 5.24932,2.53979 5.24932,-5.07957 5.24931,-20.31826 5.24932,7.61934 5.24932,-7.61934 5.24932,15.23869 5.24932,-12.69891 5.24932,-2.53978 5.24931,10.15913 5.24932,-2.53979 5.24932,-30.47739 5.24932,-10.15913 5.24931,-10.15913 5.24932,43.17631 5.24932,27.93761 5.24932,20.31826 5.24932,20.31826 5.24932,2.53979 5.24931,-7.61935 5.24932,7.61935 5.24932,-15.2387 5.24932,-27.93761 5.24932,-30.4774"
           style="fill:none;stroke:#1f77b4;stroke-width:2.25;stroke-linecap:round;stroke-linejoin:round;stroke-miterlimit:10;stroke-dasharray:none;stroke-opacity:1"
           id="path340"
           inkscape:connector-curvature="0" /></g></g><g
       id="g342"><path
         d="M 88.14,69.78 V 444.144"
         style="fill:none;stroke:#cccccc;stroke-width:1.875;stroke-linecap:square;stroke-linejoin:miter;stroke-miterlimit:10;stroke-dasharray:none;stroke-opacity:1"
         id="path344"
         inkscape:connector-curvature="0" /><path
         d="M 550.08,69.78 V 444.144"
         style="fill:none;stroke:#cccccc;stroke-width:1.875;stroke-linecap:square;stroke-linejoin:miter;stroke-miterlimit:10;stroke-dasharray:none;stroke-opacity:1"
         id="path346"
         inkscape:connector-curvature="0" /><path
         d="M 88.14,69.78 H 550.08"
         style="fill:none;stroke:#cccccc;stroke-width:1.875;stroke-linecap:square;stroke-linejoin:miter;stroke-miterlimit:10;stroke-dasharray:none;stroke-opacity:1"
         id="path348"
         inkscape:connector-curvature="0" /><path
         d="M 88.14,444.144 H 550.08"
         style="fill:none;stroke:#cccccc;stroke-width:1.875;stroke-linecap:square;stroke-linejoin:miter;stroke-miterlimit:10;stroke-dasharray:none;stroke-opacity:1"
         id="path350"
         inkscape:connector-curvature="0" /><text
         transform="matrix(1,0,0,-1,278.76625,470.87837)"
         style="font-variant:normal;font-weight:normal;font-size:18px;font-family:'DejaVu Sans';-inkscape-font-specification:DejaVuSans;writing-mode:lr-tb;fill:#262626;fill-opacity:1;fill-rule:nonzero;stroke:none"
         id="text354"><tspan
           x="0 10.854 23.364 37.529999 47.880001 53.189999 63.216 74.592003"
           y="0"
           sodipodi:role="line"
           id="tspan352">PROFILE:</tspan></text>
<g
         id="g356"
         transform="translate(177.11,450.32837)"><text
           transform="matrix(1,0,0,-1,0,0.640625)"
           style="font-variant:normal;font-weight:normal;font-size:18px;font-family:Cmmi10;-inkscape-font-specification:Cmmi10;writing-mode:lr-tb;fill:#262626;fill-opacity:1;fill-rule:nonzero;stroke:none"
           id="text360"><tspan
             x="0"
             y="0"
             id="tspan358">λ</tspan></text>
<text
           transform="matrix(1,0,0,-1,16.21582,0.640625)"
           style="font-variant:normal;font-weight:normal;font-size:18px;font-family:'DejaVu Sans';-inkscape-font-specification:DejaVuSans;writing-mode:lr-tb;fill:#262626;fill-opacity:1;fill-rule:nonzero;stroke:none"
           id="text364"><tspan
             x="0 15.082031 20.803711 32.255859 37.977539 49.429688 60.881836 72.333984 83.786133 95.238281"
             y="0"
             sodipodi:role="line"
             id="tspan362">= 0.69541 </tspan></text>
<text
           transform="matrix(1,0,0,-1,128.61914,0.640625)"
           style="font-variant:normal;font-weight:normal;font-size:18px;font-family:Cmmi10;-inkscape-font-specification:Cmmi10;writing-mode:lr-tb;fill:#262626;fill-opacity:1;fill-rule:nonzero;stroke:none"
           id="text368"><tspan
             x="0"
             y="0"
             id="tspan366">T</tspan></text>
<text
           transform="matrix(1,0,0,-1,139.13086,-2.4205)"
           style="font-variant:normal;font-weight:normal;font-size:12.60000038px;font-family:Cmmi10;-inkscape-font-specification:Cmmi10;writing-mode:lr-tb;fill:#262626;fill-opacity:1;fill-rule:nonzero;stroke:none"
           id="text372"><tspan
             x="0 11.061914"
             y="0"
             sodipodi:role="line"
             id="tspan370">mc</tspan></text>
<text
           transform="matrix(1,0,0,-1,162.5072,0.640625)"
           style="font-variant:normal;font-weight:normal;font-size:18px;font-family:'DejaVu Sans';-inkscape-font-specification:DejaVuSans;writing-mode:lr-tb;fill:#262626;fill-opacity:1;fill-rule:nonzero;stroke:none"
           id="text376"><tspan
             x="0 15.082031 20.803711 32.255859 37.977539 49.429688 60.881836 72.333984 83.408203 98.490234 109.94238"
             y="0"
             sodipodi:role="line"
             id="tspan374">= 6.564e+09</tspan></text>
</g></g></g></svg>