<?xml version="1.0" encoding="UTF-8" standalone="no"?>
<!-- Created with Inkscape (http://www.inkscape.org/) -->

<svg
   xmlns:dc="http://purl.org/dc/elements/1.1/"
   xmlns:cc="http://creativecommons.org/ns#"
   xmlns:rdf="http://www.w3.org/1999/02/22-rdf-syntax-ns#"
   xmlns:svg="http://www.w3.org/2000/svg"
   xmlns="http://www.w3.org/2000/svg"
   xmlns:sodipodi="http://sodipodi.sourceforge.net/DTD/sodipodi-0.dtd"
   xmlns:inkscape="http://www.inkscape.org/namespaces/inkscape"
   version="1.1"
   id="svg2"
   xml:space="preserve"
   width="929.35773"
   height="647.67682"
   viewBox="0 0 929.35773 647.67682"
   sodipodi:docname="tor100.svg"
   inkscape:version="0.92.4 (5da689c313, 2019-01-14)"><metadata
     id="metadata8"><rdf:RDF><cc:Work
         rdf:about=""><dc:format>image/svg+xml</dc:format><dc:type
           rdf:resource="http://purl.org/dc/dcmitype/StillImage" /><dc:title></dc:title></cc:Work></rdf:RDF></metadata><defs
     id="defs6"><clipPath
       clipPathUnits="userSpaceOnUse"
       id="clipPath24"><path
         d="M 44.285,45.379 H 658.082 V 436.231 H 44.285 Z"
         id="path22"
         inkscape:connector-curvature="0" /></clipPath><clipPath
       clipPathUnits="userSpaceOnUse"
       id="clipPath32"><path
         d="M 0,0 H 698 V 486 H 0 Z"
         id="path30"
         inkscape:connector-curvature="0" /></clipPath><clipPath
       clipPathUnits="userSpaceOnUse"
       id="clipPath56"><path
         d="M 44.285,45.379 H 658.082 V 436.231 H 44.285 Z"
         id="path54"
         inkscape:connector-curvature="0" /></clipPath><clipPath
       clipPathUnits="userSpaceOnUse"
       id="clipPath64"><path
         d="M 0,0 H 698 V 486 H 0 Z"
         id="path62"
         inkscape:connector-curvature="0" /></clipPath><clipPath
       clipPathUnits="userSpaceOnUse"
       id="clipPath88"><path
         d="M 44.285,45.379 H 658.082 V 436.231 H 44.285 Z"
         id="path86"
         inkscape:connector-curvature="0" /></clipPath><clipPath
       clipPathUnits="userSpaceOnUse"
       id="clipPath96"><path
         d="M 0,0 H 698 V 486 H 0 Z"
         id="path94"
         inkscape:connector-curvature="0" /></clipPath><clipPath
       clipPathUnits="userSpaceOnUse"
       id="clipPath120"><path
         d="M 44.285,45.379 H 658.082 V 436.231 H 44.285 Z"
         id="path118"
         inkscape:connector-curvature="0" /></clipPath><clipPath
       clipPathUnits="userSpaceOnUse"
       id="clipPath128"><path
         d="M 0,0 H 698 V 486 H 0 Z"
         id="path126"
         inkscape:connector-curvature="0" /></clipPath><clipPath
       clipPathUnits="userSpaceOnUse"
       id="clipPath152"><path
         d="M 44.285,45.379 H 658.082 V 436.231 H 44.285 Z"
         id="path150"
         inkscape:connector-curvature="0" /></clipPath><clipPath
       clipPathUnits="userSpaceOnUse"
       id="clipPath160"><path
         d="M 0,0 H 698 V 486 H 0 Z"
         id="path158"
         inkscape:connector-curvature="0" /></clipPath><clipPath
       clipPathUnits="userSpaceOnUse"
       id="clipPath184"><path
         d="M 44.285,45.379 H 658.082 V 436.231 H 44.285 Z"
         id="path182"
         inkscape:connector-curvature="0" /></clipPath><clipPath
       clipPathUnits="userSpaceOnUse"
       id="clipPath192"><path
         d="M 0,0 H 698 V 486 H 0 Z"
         id="path190"
         inkscape:connector-curvature="0" /></clipPath><clipPath
       clipPathUnits="userSpaceOnUse"
       id="clipPath216"><path
         d="M 44.285,45.379 H 658.082 V 436.231 H 44.285 Z"
         id="path214"
         inkscape:connector-curvature="0" /></clipPath><clipPath
       clipPathUnits="userSpaceOnUse"
       id="clipPath224"><path
         d="M 0,0 H 698 V 486 H 0 Z"
         id="path222"
         inkscape:connector-curvature="0" /></clipPath><clipPath
       clipPathUnits="userSpaceOnUse"
       id="clipPath248"><path
         d="M 44.285,45.379 H 658.082 V 436.231 H 44.285 Z"
         id="path246"
         inkscape:connector-curvature="0" /></clipPath><clipPath
       clipPathUnits="userSpaceOnUse"
       id="clipPath256"><path
         d="M 0,0 H 698 V 486 H 0 Z"
         id="path254"
         inkscape:connector-curvature="0" /></clipPath><clipPath
       clipPathUnits="userSpaceOnUse"
       id="clipPath280"><path
         d="M 44.285,45.379 H 658.082 V 436.231 H 44.285 Z"
         id="path278"
         inkscape:connector-curvature="0" /></clipPath><clipPath
       clipPathUnits="userSpaceOnUse"
       id="clipPath288"><path
         d="M 0,0 H 698 V 486 H 0 Z"
         id="path286"
         inkscape:connector-curvature="0" /></clipPath><clipPath
       clipPathUnits="userSpaceOnUse"
       id="clipPath316"><path
         d="M 44.285,45.379 H 658.082 V 436.231 H 44.285 Z"
         id="path314"
         inkscape:connector-curvature="0" /></clipPath><clipPath
       clipPathUnits="userSpaceOnUse"
       id="clipPath324"><path
         d="M 0,0 H 698 V 486 H 0 Z"
         id="path322"
         inkscape:connector-curvature="0" /></clipPath><clipPath
       clipPathUnits="userSpaceOnUse"
       id="clipPath348"><path
         d="M 44.285,45.379 H 658.082 V 436.231 H 44.285 Z"
         id="path346"
         inkscape:connector-curvature="0" /></clipPath><clipPath
       clipPathUnits="userSpaceOnUse"
       id="clipPath356"><path
         d="M 0,0 H 698 V 486 H 0 Z"
         id="path354"
         inkscape:connector-curvature="0" /></clipPath><clipPath
       clipPathUnits="userSpaceOnUse"
       id="clipPath380"><path
         d="M 44.285,45.379 H 658.082 V 436.231 H 44.285 Z"
         id="path378"
         inkscape:connector-curvature="0" /></clipPath><clipPath
       clipPathUnits="userSpaceOnUse"
       id="clipPath388"><path
         d="M 0,0 H 698 V 486 H 0 Z"
         id="path386"
         inkscape:connector-curvature="0" /></clipPath><clipPath
       clipPathUnits="userSpaceOnUse"
       id="clipPath412"><path
         d="M 44.285,45.379 H 658.082 V 436.231 H 44.285 Z"
         id="path410"
         inkscape:connector-curvature="0" /></clipPath><clipPath
       clipPathUnits="userSpaceOnUse"
       id="clipPath420"><path
         d="M 0,0 H 698 V 486 H 0 Z"
         id="path418"
         inkscape:connector-curvature="0" /></clipPath><clipPath
       clipPathUnits="userSpaceOnUse"
       id="clipPath444"><path
         d="M 44.285,45.379 H 658.082 V 436.231 H 44.285 Z"
         id="path442"
         inkscape:connector-curvature="0" /></clipPath><clipPath
       clipPathUnits="userSpaceOnUse"
       id="clipPath452"><path
         d="M 0,0 H 698 V 486 H 0 Z"
         id="path450"
         inkscape:connector-curvature="0" /></clipPath><clipPath
       clipPathUnits="userSpaceOnUse"
       id="clipPath476"><path
         d="M 44.285,45.379 H 658.082 V 436.231 H 44.285 Z"
         id="path474"
         inkscape:connector-curvature="0" /></clipPath><clipPath
       clipPathUnits="userSpaceOnUse"
       id="clipPath484"><path
         d="M 0,0 H 698 V 486 H 0 Z"
         id="path482"
         inkscape:connector-curvature="0" /></clipPath><clipPath
       clipPathUnits="userSpaceOnUse"
       id="clipPath508"><path
         d="M 44.285,45.379 H 658.082 V 436.231 H 44.285 Z"
         id="path506"
         inkscape:connector-curvature="0" /></clipPath><clipPath
       clipPathUnits="userSpaceOnUse"
       id="clipPath518"><path
         d="M 0,0 H 698 V 486 H 0 Z"
         id="path516"
         inkscape:connector-curvature="0" /></clipPath><clipPath
       clipPathUnits="userSpaceOnUse"
       id="clipPath534"><path
         d="M 0,0 H 698 V 486 H 0 Z"
         id="path532"
         inkscape:connector-curvature="0" /></clipPath><clipPath
       clipPathUnits="userSpaceOnUse"
       id="clipPath550"><path
         d="M 0,0 H 698 V 486 H 0 Z"
         id="path548"
         inkscape:connector-curvature="0" /></clipPath></defs><sodipodi:namedview
     pagecolor="#ffffff"
     bordercolor="#666666"
     borderopacity="1"
     objecttolerance="10"
     gridtolerance="10"
     guidetolerance="10"
     inkscape:pageopacity="0"
     inkscape:pageshadow="2"
     inkscape:window-width="640"
     inkscape:window-height="480"
     id="namedview4"
     showgrid="false"
     inkscape:zoom="0.34217179"
     inkscape:cx="464.67886"
     inkscape:cy="323.83841"
     inkscape:window-x="0"
     inkscape:window-y="0"
     inkscape:window-maximized="0"
     inkscape:current-layer="g10" /><g
     id="g10"
     inkscape:groupmode="layer"
     inkscape:label="tor100"
     transform="matrix(1.3333333,0,0,1.3333333,0,1.7525254e-5)"><g
       id="g12"><path
         d="M 0,0 H 698 V 486 H 0 Z"
         style="fill:#ffffff;fill-opacity:1;fill-rule:nonzero;stroke:none"
         id="path14"
         inkscape:connector-curvature="0" /><path
         d="M 44.285,45.379 H 658.082 V 436.231 H 44.285 Z"
         style="fill:#ffffff;fill-opacity:1;fill-rule:nonzero;stroke:none"
         id="path16"
         inkscape:connector-curvature="0" /></g><g
       id="g18"><g
         id="g20"
         clip-path="url(#clipPath24)"><g
           id="g26"><g
             id="g28" /><g
             id="g42"><g
               clip-path="url(#clipPath32)"
               id="g40"><g
                 id="g38"><g
                   transform="scale(1,-1)"
                   id="g36"><path
                     d="M 72.184,-436.23 V -45.379"
                     style="fill:none;stroke:#cccccc;stroke-width:1.5;stroke-linecap:round;stroke-linejoin:round;stroke-miterlimit:10;stroke-dasharray:none;stroke-opacity:0.7"
                     id="path34"
                     inkscape:connector-curvature="0" /></g></g></g></g></g></g></g><g
       id="g44"><text
         transform="translate(66.933906,461.2628)"
         style="font-variant:normal;font-weight:normal;font-size:16.5px;font-family:'DejaVu Sans';-inkscape-font-specification:DejaVuSans;writing-mode:lr-tb;fill:#262626;fill-opacity:1;fill-rule:nonzero;stroke:none"
         id="text48"><tspan
           x="0"
           y="0"
           id="tspan46">0</tspan></text>
</g><g
       id="g50"><g
         id="g52"
         clip-path="url(#clipPath56)"><g
           id="g58"><g
             id="g60" /><g
             id="g74"><g
               clip-path="url(#clipPath64)"
               id="g72"><g
                 id="g70"><g
                   transform="scale(1,-1)"
                   id="g68"><path
                     d="M 141.934,-436.23 V -45.379"
                     style="fill:none;stroke:#cccccc;stroke-width:1.5;stroke-linecap:round;stroke-linejoin:round;stroke-miterlimit:10;stroke-dasharray:none;stroke-opacity:0.7"
                     id="path66"
                     inkscape:connector-curvature="0" /></g></g></g></g></g></g></g><g
       id="g76"><text
         transform="translate(131.4339,461.2628)"
         style="font-variant:normal;font-weight:normal;font-size:16.5px;font-family:'DejaVu Sans';-inkscape-font-specification:DejaVuSans;writing-mode:lr-tb;fill:#262626;fill-opacity:1;fill-rule:nonzero;stroke:none"
         id="text80"><tspan
           x="0 10.494"
           y="0"
           sodipodi:role="line"
           id="tspan78">10</tspan></text>
</g><g
       id="g82"><g
         id="g84"
         clip-path="url(#clipPath88)"><g
           id="g90"><g
             id="g92" /><g
             id="g106"><g
               clip-path="url(#clipPath96)"
               id="g104"><g
                 id="g102"><g
                   transform="scale(1,-1)"
                   id="g100"><path
                     d="M 211.684,-436.23 V -45.379"
                     style="fill:none;stroke:#cccccc;stroke-width:1.5;stroke-linecap:round;stroke-linejoin:round;stroke-miterlimit:10;stroke-dasharray:none;stroke-opacity:0.7"
                     id="path98"
                     inkscape:connector-curvature="0" /></g></g></g></g></g></g></g><g
       id="g108"><text
         transform="translate(201.1839,461.2628)"
         style="font-variant:normal;font-weight:normal;font-size:16.5px;font-family:'DejaVu Sans';-inkscape-font-specification:DejaVuSans;writing-mode:lr-tb;fill:#262626;fill-opacity:1;fill-rule:nonzero;stroke:none"
         id="text112"><tspan
           x="0 10.494"
           y="0"
           sodipodi:role="line"
           id="tspan110">20</tspan></text>
</g><g
       id="g114"><g
         id="g116"
         clip-path="url(#clipPath120)"><g
           id="g122"><g
             id="g124" /><g
             id="g138"><g
               clip-path="url(#clipPath128)"
               id="g136"><g
                 id="g134"><g
                   transform="scale(1,-1)"
                   id="g132"><path
                     d="M 281.434,-436.23 V -45.379"
                     style="fill:none;stroke:#cccccc;stroke-width:1.5;stroke-linecap:round;stroke-linejoin:round;stroke-miterlimit:10;stroke-dasharray:none;stroke-opacity:0.7"
                     id="path130"
                     inkscape:connector-curvature="0" /></g></g></g></g></g></g></g><g
       id="g140"><text
         transform="translate(270.9339,461.2628)"
         style="font-variant:normal;font-weight:normal;font-size:16.5px;font-family:'DejaVu Sans';-inkscape-font-specification:DejaVuSans;writing-mode:lr-tb;fill:#262626;fill-opacity:1;fill-rule:nonzero;stroke:none"
         id="text144"><tspan
           x="0 10.494"
           y="0"
           sodipodi:role="line"
           id="tspan142">30</tspan></text>
</g><g
       id="g146"><g
         id="g148"
         clip-path="url(#clipPath152)"><g
           id="g154"><g
             id="g156" /><g
             id="g170"><g
               clip-path="url(#clipPath160)"
               id="g168"><g
                 id="g166"><g
                   transform="scale(1,-1)"
                   id="g164"><path
                     d="M 351.184,-436.23 V -45.379"
                     style="fill:none;stroke:#cccccc;stroke-width:1.5;stroke-linecap:round;stroke-linejoin:round;stroke-miterlimit:10;stroke-dasharray:none;stroke-opacity:0.7"
                     id="path162"
                     inkscape:connector-curvature="0" /></g></g></g></g></g></g></g><g
       id="g172"><text
         transform="translate(340.6839,461.2628)"
         style="font-variant:normal;font-weight:normal;font-size:16.5px;font-family:'DejaVu Sans';-inkscape-font-specification:DejaVuSans;writing-mode:lr-tb;fill:#262626;fill-opacity:1;fill-rule:nonzero;stroke:none"
         id="text176"><tspan
           x="0 10.494"
           y="0"
           sodipodi:role="line"
           id="tspan174">40</tspan></text>
</g><g
       id="g178"><g
         id="g180"
         clip-path="url(#clipPath184)"><g
           id="g186"><g
             id="g188" /><g
             id="g202"><g
               clip-path="url(#clipPath192)"
               id="g200"><g
                 id="g198"><g
                   transform="scale(1,-1)"
                   id="g196"><path
                     d="M 420.934,-436.23 V -45.379"
                     style="fill:none;stroke:#cccccc;stroke-width:1.5;stroke-linecap:round;stroke-linejoin:round;stroke-miterlimit:10;stroke-dasharray:none;stroke-opacity:0.7"
                     id="path194"
                     inkscape:connector-curvature="0" /></g></g></g></g></g></g></g><g
       id="g204"><text
         transform="translate(410.4339,461.2628)"
         style="font-variant:normal;font-weight:normal;font-size:16.5px;font-family:'DejaVu Sans';-inkscape-font-specification:DejaVuSans;writing-mode:lr-tb;fill:#262626;fill-opacity:1;fill-rule:nonzero;stroke:none"
         id="text208"><tspan
           x="0 10.494"
           y="0"
           sodipodi:role="line"
           id="tspan206">50</tspan></text>
</g><g
       id="g210"><g
         id="g212"
         clip-path="url(#clipPath216)"><g
           id="g218"><g
             id="g220" /><g
             id="g234"><g
               clip-path="url(#clipPath224)"
               id="g232"><g
                 id="g230"><g
                   transform="scale(1,-1)"
                   id="g228"><path
                     d="M 490.684,-436.23 V -45.379"
                     style="fill:none;stroke:#cccccc;stroke-width:1.5;stroke-linecap:round;stroke-linejoin:round;stroke-miterlimit:10;stroke-dasharray:none;stroke-opacity:0.7"
                     id="path226"
                     inkscape:connector-curvature="0" /></g></g></g></g></g></g></g><g
       id="g236"><text
         transform="translate(480.1839,461.2628)"
         style="font-variant:normal;font-weight:normal;font-size:16.5px;font-family:'DejaVu Sans';-inkscape-font-specification:DejaVuSans;writing-mode:lr-tb;fill:#262626;fill-opacity:1;fill-rule:nonzero;stroke:none"
         id="text240"><tspan
           x="0 10.494"
           y="0"
           sodipodi:role="line"
           id="tspan238">60</tspan></text>
</g><g
       id="g242"><g
         id="g244"
         clip-path="url(#clipPath248)"><g
           id="g250"><g
             id="g252" /><g
             id="g266"><g
               clip-path="url(#clipPath256)"
               id="g264"><g
                 id="g262"><g
                   transform="scale(1,-1)"
                   id="g260"><path
                     d="M 560.434,-436.23 V -45.379"
                     style="fill:none;stroke:#cccccc;stroke-width:1.5;stroke-linecap:round;stroke-linejoin:round;stroke-miterlimit:10;stroke-dasharray:none;stroke-opacity:0.7"
                     id="path258"
                     inkscape:connector-curvature="0" /></g></g></g></g></g></g></g><g
       id="g268"><text
         transform="translate(549.93389,461.2628)"
         style="font-variant:normal;font-weight:normal;font-size:16.5px;font-family:'DejaVu Sans';-inkscape-font-specification:DejaVuSans;writing-mode:lr-tb;fill:#262626;fill-opacity:1;fill-rule:nonzero;stroke:none"
         id="text272"><tspan
           x="0 10.494"
           y="0"
           sodipodi:role="line"
           id="tspan270">70</tspan></text>
</g><g
       id="g274"><g
         id="g276"
         clip-path="url(#clipPath280)"><g
           id="g282"><g
             id="g284" /><g
             id="g298"><g
               clip-path="url(#clipPath288)"
               id="g296"><g
                 id="g294"><g
                   transform="scale(1,-1)"
                   id="g292"><path
                     d="M 630.184,-436.23 V -45.379"
                     style="fill:none;stroke:#cccccc;stroke-width:1.5;stroke-linecap:round;stroke-linejoin:round;stroke-miterlimit:10;stroke-dasharray:none;stroke-opacity:0.7"
                     id="path290"
                     inkscape:connector-curvature="0" /></g></g></g></g></g></g></g><g
       id="g300"><text
         transform="translate(619.68389,461.2628)"
         style="font-variant:normal;font-weight:normal;font-size:16.5px;font-family:'DejaVu Sans';-inkscape-font-specification:DejaVuSans;writing-mode:lr-tb;fill:#262626;fill-opacity:1;fill-rule:nonzero;stroke:none"
         id="text304"><tspan
           x="0 10.494"
           y="0"
           sodipodi:role="line"
           id="tspan302">80</tspan></text>
<text
         transform="translate(307.81671,482.37217)"
         style="font-variant:normal;font-weight:normal;font-size:18px;font-family:'DejaVu Sans';-inkscape-font-specification:DejaVuSans;writing-mode:lr-tb;fill:#262626;fill-opacity:1;fill-rule:nonzero;stroke:none"
         id="text308"><tspan
           x="0 9.3599997 14.346 19.332001 29.214001 40.284 45.990002 53.046001 58.032001 75.564003"
           y="0"
           sodipodi:role="line"
           id="tspan306">slice time</tspan></text>
</g><g
       id="g310"><g
         id="g312"
         clip-path="url(#clipPath316)"><g
           id="g318"><g
             id="g320" /><g
             id="g334"><g
               clip-path="url(#clipPath324)"
               id="g332"><g
                 id="g330"><g
                   transform="scale(1,-1)"
                   id="g328"><path
                     d="M 44.285,-416.809 H 658.082"
                     style="fill:none;stroke:#cccccc;stroke-width:1.5;stroke-linecap:round;stroke-linejoin:round;stroke-miterlimit:10;stroke-dasharray:none;stroke-opacity:0.7"
                     id="path326"
                     inkscape:connector-curvature="0" /></g></g></g></g></g></g></g><g
       id="g336"><text
         transform="translate(5.533907,423.07419)"
         style="font-variant:normal;font-weight:normal;font-size:16.5px;font-family:'DejaVu Sans';-inkscape-font-specification:DejaVuSans;writing-mode:lr-tb;fill:#262626;fill-opacity:1;fill-rule:nonzero;stroke:none"
         id="text340"><tspan
           x="0 10.494 15.7245"
           y="0"
           sodipodi:role="line"
           id="tspan338">0.0</tspan></text>
</g><g
       id="g342"><g
         id="g344"
         clip-path="url(#clipPath348)"><g
           id="g350"><g
             id="g352" /><g
             id="g366"><g
               clip-path="url(#clipPath356)"
               id="g364"><g
                 id="g362"><g
                   transform="scale(1,-1)"
                   id="g360"><path
                     d="M 44.285,-346.074 H 658.082"
                     style="fill:none;stroke:#cccccc;stroke-width:1.5;stroke-linecap:round;stroke-linejoin:round;stroke-miterlimit:10;stroke-dasharray:none;stroke-opacity:0.7"
                     id="path358"
                     inkscape:connector-curvature="0" /></g></g></g></g></g></g></g><g
       id="g368"><text
         transform="translate(5.533907,352.34159)"
         style="font-variant:normal;font-weight:normal;font-size:16.5px;font-family:'DejaVu Sans';-inkscape-font-specification:DejaVuSans;writing-mode:lr-tb;fill:#262626;fill-opacity:1;fill-rule:nonzero;stroke:none"
         id="text372"><tspan
           x="0 10.494 15.7245"
           y="0"
           sodipodi:role="line"
           id="tspan370">0.2</tspan></text>
</g><g
       id="g374"><g
         id="g376"
         clip-path="url(#clipPath380)"><g
           id="g382"><g
             id="g384" /><g
             id="g398"><g
               clip-path="url(#clipPath388)"
               id="g396"><g
                 id="g394"><g
                   transform="scale(1,-1)"
                   id="g392"><path
                     d="M 44.285,-275.344 H 658.082"
                     style="fill:none;stroke:#cccccc;stroke-width:1.5;stroke-linecap:round;stroke-linejoin:round;stroke-miterlimit:10;stroke-dasharray:none;stroke-opacity:0.7"
                     id="path390"
                     inkscape:connector-curvature="0" /></g></g></g></g></g></g></g><g
       id="g400"><text
         transform="translate(5.533907,281.60898)"
         style="font-variant:normal;font-weight:normal;font-size:16.5px;font-family:'DejaVu Sans';-inkscape-font-specification:DejaVuSans;writing-mode:lr-tb;fill:#262626;fill-opacity:1;fill-rule:nonzero;stroke:none"
         id="text404"><tspan
           x="0 10.494 15.7245"
           y="0"
           sodipodi:role="line"
           id="tspan402">0.4</tspan></text>
</g><g
       id="g406"><g
         id="g408"
         clip-path="url(#clipPath412)"><g
           id="g414"><g
             id="g416" /><g
             id="g430"><g
               clip-path="url(#clipPath420)"
               id="g428"><g
                 id="g426"><g
                   transform="scale(1,-1)"
                   id="g424"><path
                     d="M 44.285,-204.609 H 658.082"
                     style="fill:none;stroke:#cccccc;stroke-width:1.5;stroke-linecap:round;stroke-linejoin:round;stroke-miterlimit:10;stroke-dasharray:none;stroke-opacity:0.7"
                     id="path422"
                     inkscape:connector-curvature="0" /></g></g></g></g></g></g></g><g
       id="g432"><text
         transform="translate(5.533907,210.87638)"
         style="font-variant:normal;font-weight:normal;font-size:16.5px;font-family:'DejaVu Sans';-inkscape-font-specification:DejaVuSans;writing-mode:lr-tb;fill:#262626;fill-opacity:1;fill-rule:nonzero;stroke:none"
         id="text436"><tspan
           x="0 10.494 15.7245"
           y="0"
           sodipodi:role="line"
           id="tspan434">0.6</tspan></text>
</g><g
       id="g438"><g
         id="g440"
         clip-path="url(#clipPath444)"><g
           id="g446"><g
             id="g448" /><g
             id="g462"><g
               clip-path="url(#clipPath452)"
               id="g460"><g
                 id="g458"><g
                   transform="scale(1,-1)"
                   id="g456"><path
                     d="M 44.285,-133.879 H 658.082"
                     style="fill:none;stroke:#cccccc;stroke-width:1.5;stroke-linecap:round;stroke-linejoin:round;stroke-miterlimit:10;stroke-dasharray:none;stroke-opacity:0.7"
                     id="path454"
                     inkscape:connector-curvature="0" /></g></g></g></g></g></g></g><g
       id="g464"><text
         transform="translate(5.533907,140.14378)"
         style="font-variant:normal;font-weight:normal;font-size:16.5px;font-family:'DejaVu Sans';-inkscape-font-specification:DejaVuSans;writing-mode:lr-tb;fill:#262626;fill-opacity:1;fill-rule:nonzero;stroke:none"
         id="text468"><tspan
           x="0 10.494 15.7245"
           y="0"
           sodipodi:role="line"
           id="tspan466">0.8</tspan></text>
</g><g
       id="g470"><g
         id="g472"
         clip-path="url(#clipPath476)"><g
           id="g478"><g
             id="g480" /><g
             id="g494"><g
               clip-path="url(#clipPath484)"
               id="g492"><g
                 id="g490"><g
                   transform="scale(1,-1)"
                   id="g488"><path
                     d="M 44.285,-63.145 H 658.082"
                     style="fill:none;stroke:#cccccc;stroke-width:1.5;stroke-linecap:round;stroke-linejoin:round;stroke-miterlimit:10;stroke-dasharray:none;stroke-opacity:0.7"
                     id="path486"
                     inkscape:connector-curvature="0" /></g></g></g></g></g></g></g><g
       id="g496"><text
         transform="translate(5.533907,69.411186)"
         style="font-variant:normal;font-weight:normal;font-size:16.5px;font-family:'DejaVu Sans';-inkscape-font-specification:DejaVuSans;writing-mode:lr-tb;fill:#262626;fill-opacity:1;fill-rule:nonzero;stroke:none"
         id="text500"><tspan
           x="0 10.494 15.7245"
           y="0"
           sodipodi:role="line"
           id="tspan498">1.0</tspan></text>
</g><g
       id="g502"><g
         id="g504"
         clip-path="url(#clipPath508)"><g
           id="g510"><g
             id="g512"><g
               id="g514"
               clip-path="url(#clipPath518)"><g
                 id="g520"><g
                   id="g522"
                   transform="scale(1,-1)"><path
                     d="m 72.184,-63.145 6.976,-99.187 6.973,-67.953 6.976,-47.207 6.973,-34.531 6.977,-25.125 6.976,-19.668 6.973,-15.614 6.976,-11.992 6.973,-8.758 6.977,-6.015 6.976,-5.352 6.973,-2.726 6.976,-2.395 6.973,-1.035 6.977,0.742 6.976,0.649 6.973,0.175 6.976,-0.918 6.973,-1.941 6.977,-0.688 6.976,0.129 6.973,-1.078 6.976,-0.648 6.973,-0.512 6.977,-0.019 6.976,-0.399 6.973,0.02 6.976,-0.114 6.973,0.223 6.977,0.238 6.976,0.34 6.973,-0.434 6.976,-0.464 6.973,0.254 6.977,-0.016 6.976,0.012 6.973,-0.278 6.976,0.082 6.973,-0.195 6.977,-0.125 6.976,0.125 6.973,0.195 6.976,-0.082 6.973,0.278 6.977,-0.012 6.976,0.016 6.973,-0.254 6.976,0.464 6.973,0.434 6.977,-0.34 6.976,-0.238 6.973,-0.223 6.976,0.114 6.973,-0.02 6.977,0.399 6.976,0.019 6.973,0.512 6.976,0.648 6.973,1.078 6.977,-0.129 6.976,0.688 6.973,1.941 6.976,0.918 6.973,-0.175 6.977,-0.649 6.976,-0.742 6.973,1.035 6.976,2.395 6.973,2.726 6.977,5.352 6.976,6.015 6.973,8.758 6.976,11.992 6.973,15.614 6.977,19.668 6.976,25.125 6.973,34.531 6.976,47.207 6.973,67.953 6.977,99.187"
                     style="fill:none;stroke:#1f77b4;stroke-width:2.25;stroke-linecap:round;stroke-linejoin:round;stroke-miterlimit:10;stroke-dasharray:none;stroke-opacity:1"
                     id="path524"
                     inkscape:connector-curvature="0" /></g></g></g></g></g><g
           id="g526"><g
             id="g528"><g
               id="g530"
               clip-path="url(#clipPath534)"><g
                 id="g536"><g
                   id="g538"
                   transform="scale(1,-1)"><path
                     d="m 72.184,-63.145 6.976,-100.304 6.973,-68.516 6.976,-47.605 6.973,-34.668 6.977,-25.602 6.976,-20.074 6.973,-15.887 6.976,-12.261 6.973,-8.633 6.977,-5.899 6.976,-5.297 6.973,-2.691 6.976,-1.945 6.973,-0.727 6.977,0.781 6.976,0.731 6.973,0.097 6.976,-1.121 6.973,-1.886 6.977,-0.711 6.976,-0.039 6.973,-1.004 6.976,-0.305 6.973,-0.297 6.977,0.078 6.976,-0.199 6.973,0.043 6.976,-0.117 6.973,0.187 6.977,0.129 6.976,0.43 6.973,-0.375 6.976,-0.684 6.973,-0.093 6.977,0.066 6.976,0.266 6.973,-0.317 6.976,-0.218 6.973,-0.34 6.977,-0.313 6.976,0.313 6.973,0.34 6.976,0.218 6.973,0.317 6.977,-0.266 6.976,-0.066 6.973,0.093 6.976,0.684 6.973,0.375 6.977,-0.43 6.976,-0.129 6.973,-0.187 6.976,0.117 6.973,-0.043 6.977,0.199 6.976,-0.078 6.973,0.297 6.976,0.305 6.973,1.004 6.977,0.039 6.976,0.711 6.973,1.886 6.976,1.121 6.973,-0.097 6.977,-0.731 6.976,-0.781 6.973,0.727 6.976,1.945 6.973,2.691 6.977,5.297 6.976,5.899 6.973,8.633 6.976,12.261 6.973,15.887 6.977,20.074 6.976,25.602 6.973,34.668 6.976,47.605 6.973,68.516 6.977,100.304"
                     style="fill:none;stroke:#d62728;stroke-width:2.25;stroke-linecap:round;stroke-linejoin:round;stroke-miterlimit:10;stroke-dasharray:none;stroke-opacity:1"
                     id="path540"
                     inkscape:connector-curvature="0" /></g></g></g></g></g><g
           id="g542"><g
             id="g544"><g
               id="g546"
               clip-path="url(#clipPath550)"><g
                 id="g552"><g
                   id="g554"
                   transform="scale(1,-1)"><path
                     d="m 72.184,-63.145 6.976,-98.07 6.973,-67.387 6.976,-46.808 6.973,-34.399 6.977,-24.648 6.976,-19.266 6.973,-15.336 6.976,-11.726 6.973,-8.875 6.977,-6.137 6.976,-5.406 6.973,-2.758 6.976,-2.848 6.973,-1.343 6.977,0.699 6.976,0.566 6.973,0.258 6.976,-0.719 6.973,-1.992 6.977,-0.66 6.976,0.289 6.973,-1.144 6.976,-1 6.973,-0.723 6.977,-0.117 6.976,-0.602 6.973,-0.004 6.976,-0.101 6.973,0.254 6.977,0.347 6.976,0.246 6.973,-0.484 6.976,-0.246 6.973,0.594 6.977,-0.09 6.976,-0.25 6.973,-0.235 6.976,0.387 6.973,-0.055 6.977,0.067 6.976,-0.067 6.973,0.055 6.976,-0.387 6.973,0.235 6.977,0.25 6.976,0.09 6.973,-0.594 6.976,0.246 6.973,0.484 6.977,-0.246 6.976,-0.347 6.973,-0.254 6.976,0.101 6.973,0.004 6.977,0.602 6.976,0.117 6.973,0.723 6.976,1 6.973,1.144 6.977,-0.289 6.976,0.66 6.973,1.992 6.976,0.719 6.973,-0.258 6.977,-0.566 6.976,-0.699 6.973,1.343 6.976,2.848 6.973,2.758 6.977,5.406 6.976,6.137 6.973,8.875 6.976,11.726 6.973,15.336 6.977,19.266 6.976,24.648 6.973,34.399 6.976,46.808 6.973,67.387 6.977,98.07"
                     style="fill:none;stroke:#d62728;stroke-width:2.25;stroke-linecap:round;stroke-linejoin:round;stroke-miterlimit:10;stroke-dasharray:none;stroke-opacity:1"
                     id="path556"
                     inkscape:connector-curvature="0" /></g></g></g></g></g></g></g><g
       id="g558"><g
         id="g560"
         transform="scale(1,-1)"><path
           d="M 44.285,-436.23 V -45.379"
           style="fill:none;stroke:#cccccc;stroke-width:1.875;stroke-linecap:square;stroke-linejoin:miter;stroke-miterlimit:10;stroke-dasharray:none;stroke-opacity:1"
           id="path562"
           inkscape:connector-curvature="0" /></g><g
         id="g564"
         transform="scale(1,-1)"><path
           d="M 658.082,-436.23 V -45.379"
           style="fill:none;stroke:#cccccc;stroke-width:1.875;stroke-linecap:square;stroke-linejoin:miter;stroke-miterlimit:10;stroke-dasharray:none;stroke-opacity:1"
           id="path566"
           inkscape:connector-curvature="0" /></g><g
         id="g568"
         transform="scale(1,-1)"><path
           d="M 44.285,-436.23 H 658.082"
           style="fill:none;stroke:#cccccc;stroke-width:1.875;stroke-linecap:square;stroke-linejoin:miter;stroke-miterlimit:10;stroke-dasharray:none;stroke-opacity:1"
           id="path570"
           inkscape:connector-curvature="0" /></g><g
         id="g572"
         transform="scale(1,-1)"><path
           d="M 44.285,-45.379 H 658.082"
           style="fill:none;stroke:#cccccc;stroke-width:1.875;stroke-linecap:square;stroke-linejoin:miter;stroke-miterlimit:10;stroke-dasharray:none;stroke-opacity:1"
           id="path574"
           inkscape:connector-curvature="0" /></g><text
         transform="translate(314.21515,19.223307)"
         style="font-variant:normal;font-weight:normal;font-size:18px;font-family:'DejaVu Sans';-inkscape-font-specification:DejaVuSans;writing-mode:lr-tb;fill:#262626;fill-opacity:1;fill-rule:nonzero;stroke:none"
         id="text580"><tspan
           x="0 10.98 21.978001 29.375999 40.445999 45.431999 56.43 67.823997"
           y="0"
           sodipodi:role="line"
           id="tspan576">Torelon:</tspan><tspan
           x="-109.92188 -99.895882 -88.879875 -71.347878 -59.935879 -48.523876 -37.507877 -22.441877 -15.961878 -4.5138779 1.192122 12.640122 24.088121 35.536121 46.984123 58.432121 69.880119 75.586121 87.93412 99.00412 106.06012 117.07612 132.14212 143.59012 155.03812 166.48611 172.19212"
           y="20.156256"
           sodipodi:role="line"
           id="tspan578">Lambda=-0.467625 Beta=100.0</tspan></text>
<path
         d="m 258.988,107.016 h 184.391 c 2.203,0 3.301,-1.098 3.301,-3.297 V 56.93 c 0,-2.2 -1.098,-3.301 -3.301,-3.301 H 258.988 c -2.203,0 -3.3,1.101 -3.3,3.301 v 46.789 c 0,2.199 1.097,3.297 3.3,3.297 z"
         style="fill:#ffffff;fill-opacity:0.8;fill-rule:nonzero;stroke:none"
         id="path582"
         inkscape:connector-curvature="0" /><g
         id="g584"
         transform="scale(1,-1)"><path
           d="m 258.988,-107.016 h 184.391 c 2.203,0 3.301,1.098 3.301,3.297 v 46.789 c 0,2.2 -1.098,3.301 -3.301,3.301 H 258.988 c -2.203,0 -3.3,-1.101 -3.3,-3.301 v -46.789 c 0,-2.199 1.097,-3.297 3.3,-3.297 z"
           style="fill:none;stroke:#cccccc;stroke-width:1.5;stroke-linecap:butt;stroke-linejoin:miter;stroke-miterlimit:10;stroke-dasharray:none;stroke-opacity:0.8"
           id="path586"
           inkscape:connector-curvature="0" /></g><g
         id="g588"
         transform="scale(1,-1)"><path
           d="m 262.285,-66.984 h 33"
           style="fill:none;stroke:#1f77b4;stroke-width:2.25;stroke-linecap:round;stroke-linejoin:round;stroke-miterlimit:10;stroke-dasharray:none;stroke-opacity:1"
           id="path590"
           inkscape:connector-curvature="0" /></g><text
         transform="translate(308.48702,72.760805)"
         style="font-variant:normal;font-weight:normal;font-size:16.5px;font-family:'DejaVu Sans';-inkscape-font-specification:DejaVuSans;writing-mode:lr-tb;fill:#262626;fill-opacity:1;fill-rule:nonzero;stroke:none"
         id="text594"><tspan
           x="0 10.461 20.5425 30.624001 37.091999 45.672001 52.139999 58.921501 69.019501 79.480499 84.710999 100.782 110.9295 121.0275"
           y="0"
           sodipodi:role="line"
           id="tspan592">bootstrap mean</tspan></text>
<g
         id="g596"
         transform="scale(1,-1)"><path
           d="m 262.285,-91.203 h 33"
           style="fill:none;stroke:#d62728;stroke-width:2.25;stroke-linecap:round;stroke-linejoin:round;stroke-miterlimit:10;stroke-dasharray:none;stroke-opacity:1"
           id="path598"
           inkscape:connector-curvature="0" /></g><text
         transform="translate(308.48702,96.979555)"
         style="font-variant:normal;font-weight:normal;font-size:16.5px;font-family:'DejaVu Sans';-inkscape-font-specification:DejaVuSans;writing-mode:lr-tb;fill:#262626;fill-opacity:1;fill-rule:nonzero;stroke:none"
         id="text602"><tspan
           x="0 10.461 20.5425 30.624001 37.091999 45.672001 52.139999 58.921501 69.019501 79.480499 84.710999 93.291 99.759003"
           y="0"
           sodipodi:role="line"
           id="tspan600">bootstrap std</tspan></text>
</g></g></svg>