<?xml version="1.0" encoding="UTF-8" standalone="no"?>
<!-- Created with Inkscape (http://www.inkscape.org/) -->

<svg
   xmlns:dc="http://purl.org/dc/elements/1.1/"
   xmlns:cc="http://creativecommons.org/ns#"
   xmlns:rdf="http://www.w3.org/1999/02/22-rdf-syntax-ns#"
   xmlns:svg="http://www.w3.org/2000/svg"
   xmlns="http://www.w3.org/2000/svg"
   xmlns:sodipodi="http://sodipodi.sourceforge.net/DTD/sodipodi-0.dtd"
   xmlns:inkscape="http://www.inkscape.org/namespaces/inkscape"
   version="1.1"
   id="svg2"
   xml:space="preserve"
   width="330.67822"
   height="235.74998"
   viewBox="0 0 330.67822 235.74998"
   sodipodi:docname="phase_diagram.svg"
   inkscape:version="0.92.4 (5da689c313, 2019-01-14)"><metadata
     id="metadata8"><rdf:RDF><cc:Work
         rdf:about=""><dc:format>image/svg+xml</dc:format><dc:type
           rdf:resource="http://purl.org/dc/dcmitype/StillImage" /><dc:title></dc:title></cc:Work></rdf:RDF></metadata><defs
     id="defs6"><clipPath
       clipPathUnits="userSpaceOnUse"
       id="clipPath22"><path
         d="M 0,0 H 249 V 177 H 0 Z"
         id="path20"
         inkscape:connector-curvature="0" /></clipPath></defs><sodipodi:namedview
     pagecolor="#ffffff"
     bordercolor="#666666"
     borderopacity="1"
     objecttolerance="10"
     gridtolerance="10"
     guidetolerance="10"
     inkscape:pageopacity="0"
     inkscape:pageshadow="2"
     inkscape:window-width="1366"
     inkscape:window-height="739"
     id="namedview4"
     showgrid="false"
     inkscape:zoom="1.9051754"
     inkscape:cx="164.13483"
     inkscape:cy="117.87499"
     inkscape:window-x="0"
     inkscape:window-y="0"
     inkscape:window-maximized="1"
     inkscape:current-layer="g10" /><g
     id="g10"
     inkscape:groupmode="layer"
     inkscape:label="CDTphase"
     transform="matrix(1.3333333,0,0,1.3333333,0,5.8937495e-6)"><g
       id="g12"><g
         id="g14"><g
           id="g16"><g
             id="g18"
             clip-path="url(#clipPath22)"><g
               id="g24"><text
                 transform="translate(15.678019,155.25204)"
                 style="font-variant:normal;font-weight:normal;font-size:8.0349884px;font-family:'DejaVu Sans';-inkscape-font-specification:DejaVuSans;writing-mode:lr-tb;fill:#231f20;fill-opacity:1;fill-rule:nonzero;stroke:none"
                 id="text28"><tspan
                   x="0"
                   y="0"
                   id="tspan26">−</tspan></text>
<text
                 transform="translate(21.937275,155.25204)"
                 style="font-variant:normal;font-weight:normal;font-size:8.0349884px;font-family:cmr10;-inkscape-font-specification:cmr10;writing-mode:lr-tb;fill:#231f20;fill-opacity:1;fill-rule:nonzero;stroke:none"
                 id="text44"><tspan
                   x="0 4.0174942 6.178906"
                   y="0"
                   sodipodi:role="line"
                   id="tspan30">0.2</tspan><tspan
                   x="6.2915564"
                   y="-29.962519"
                   id="tspan32">0</tspan><tspan
                   x="0.01629496 4.0337892 6.1952009"
                   y="-59.925037"
                   sodipodi:role="line"
                   id="tspan34">0.2</tspan><tspan
                   x="0.01629496 4.0337892 6.1952009"
                   y="-89.975861"
                   sodipodi:role="line"
                   id="tspan36">0.4</tspan><tspan
                   x="0.01629496 4.0337892 6.1952009"
                   y="-119.93838"
                   sodipodi:role="line"
                   id="tspan38">0.6</tspan><tspan
                   x="0.01629496 4.0337892 6.1952009"
                   y="-149.9006"
                   sodipodi:role="line"
                   id="tspan40">0.8</tspan><tspan
                   x="13.097078 51.456112 89.815147 128.17442 166.44507 204.80409"
                   y="8.1314077"
                   sodipodi:role="line"
                   id="tspan42">012345</tspan></text>
<text
                 transform="translate(224.97336,81.892592)"
                 style="font-variant:normal;font-weight:normal;font-size:10.56655025px;font-family:'DejaVu Sans';-inkscape-font-specification:DejaVuSans;writing-mode:lr-tb;fill:#000000;fill-opacity:1;fill-rule:nonzero;stroke:none"
                 id="text52"><tspan
                   x="0"
                   y="0"
                   id="tspan46">A</tspan><tspan
                   x="-95.632347"
                   y="60.013355"
                   id="tspan48">B</tspan><tspan
                   x="-109.067"
                   y="21.74259"
                   id="tspan50">C</tspan></text>
<text
                 transform="translate(123.41909,105.22622)"
                 style="font-variant:normal;font-weight:normal;font-size:7.337883px;font-family:cmmi10;-inkscape-font-specification:cmmi10;writing-mode:lr-tb;fill:#000000;fill-opacity:1;fill-rule:nonzero;stroke:none"
                 id="text56"><tspan
                   x="0"
                   y="0"
                   id="tspan54">b</tspan></text>
<text
                 transform="translate(143.8359,66.159995)"
                 style="font-variant:normal;font-weight:normal;font-size:10.56655025px;font-family:'DejaVu Sans';-inkscape-font-specification:DejaVuSans;writing-mode:lr-tb;fill:#000000;fill-opacity:1;fill-rule:nonzero;stroke:none"
                 id="text60"><tspan
                   x="0"
                   y="0"
                   id="tspan58">C</tspan></text>
<text
                 transform="translate(151.34861,67.75104)"
                 style="font-variant:normal;font-weight:normal;font-size:7.337883px;font-family:cmmi10;-inkscape-font-specification:cmmi10;writing-mode:lr-tb;fill:#000000;fill-opacity:1;fill-rule:nonzero;stroke:none"
                 id="text64"><tspan
                   x="0 3.8156991"
                   y="0"
                   sodipodi:role="line"
                   id="tspan62">dS</tspan></text>
<text
                 transform="translate(203.49585,134.128)"
                 style="font-variant:normal;font-weight:normal;font-size:4.40272713px;font-family:'DejaVu Sans';-inkscape-font-specification:DejaVuSans;writing-mode:lr-tb;fill:#231f20;fill-opacity:1;fill-rule:nonzero;stroke:none"
                 id="text68"><tspan
                   x="0 4.1517715 7.1500287 9.7960672 12.798727 14.912036 17.914696 20.912952 22.497934 26.561651 29.736017 32.382057 33.962635 36.789188"
                   y="0"
                   sodipodi:role="line"
                   id="tspan66">Quadruplepoint</tspan></text>
<g
                 id="g70"
                 transform="scale(1,-1)"><path
                   d="m 37.082,-153.277 h 2.32 m 208.516,0 h -2.32"
                   style="fill:none;stroke:#000000;stroke-width:0.184135;stroke-linecap:butt;stroke-linejoin:miter;stroke-miterlimit:3.79999995;stroke-dasharray:none;stroke-opacity:1"
                   id="path72"
                   inkscape:connector-curvature="0" /></g><g
                 id="g74"
                 transform="scale(1,-1)"><path
                   d="m 37.082,-123.301 h 2.32 m 208.516,0 h -2.32"
                   style="fill:none;stroke:#000000;stroke-width:0.184135;stroke-linecap:butt;stroke-linejoin:miter;stroke-miterlimit:3.79999995;stroke-dasharray:none;stroke-opacity:1"
                   id="path76"
                   inkscape:connector-curvature="0" /></g><g
                 id="g78"
                 transform="scale(1,-1)"><path
                   d="m 37.082,-93.324 h 2.32 m 208.516,0 h -2.32"
                   style="fill:none;stroke:#000000;stroke-width:0.184135;stroke-linecap:butt;stroke-linejoin:miter;stroke-miterlimit:3.79999995;stroke-dasharray:none;stroke-opacity:1"
                   id="path80"
                   inkscape:connector-curvature="0" /></g><g
                 id="g82"
                 transform="scale(1,-1)"><path
                   d="m 37.082,-63.309 h 2.32 m 208.516,0 h -2.32"
                   style="fill:none;stroke:#000000;stroke-width:0.184135;stroke-linecap:butt;stroke-linejoin:miter;stroke-miterlimit:3.79999995;stroke-dasharray:none;stroke-opacity:1"
                   id="path84"
                   inkscape:connector-curvature="0" /></g><g
                 id="g86"
                 transform="scale(1,-1)"><path
                   d="m 37.082,-33.332 h 2.32 m 208.516,0 h -2.32"
                   style="fill:none;stroke:#000000;stroke-width:0.184135;stroke-linecap:butt;stroke-linejoin:miter;stroke-miterlimit:3.79999995;stroke-dasharray:none;stroke-opacity:1"
                   id="path88"
                   inkscape:connector-curvature="0" /></g><g
                 id="g90"
                 transform="scale(1,-1)"><path
                   d="m 37.082,-3.355 h 2.32 m 208.516,0 h -2.32"
                   style="fill:none;stroke:#000000;stroke-width:0.184135;stroke-linecap:butt;stroke-linejoin:miter;stroke-miterlimit:3.79999995;stroke-dasharray:none;stroke-opacity:1"
                   id="path92"
                   inkscape:connector-curvature="0" /></g><g
                 id="g94"
                 transform="scale(1,-1)"><path
                   d="m 37.082,-153.277 v 2.32 m 0,147.602 v -2.321"
                   style="fill:none;stroke:#000000;stroke-width:0.184135;stroke-linecap:butt;stroke-linejoin:miter;stroke-miterlimit:3.79999995;stroke-dasharray:none;stroke-opacity:1"
                   id="path96"
                   inkscape:connector-curvature="0" /></g><g
                 id="g98"
                 transform="scale(1,-1)"><path
                   d="m 75.418,-153.277 v 2.32 m 0,147.602 v -2.321"
                   style="fill:none;stroke:#000000;stroke-width:0.184135;stroke-linecap:butt;stroke-linejoin:miter;stroke-miterlimit:3.79999995;stroke-dasharray:none;stroke-opacity:1"
                   id="path100"
                   inkscape:connector-curvature="0" /></g><g
                 id="g102"
                 transform="scale(1,-1)"><path
                   d="m 113.754,-153.277 v 2.32 m 0,147.602 v -2.321"
                   style="fill:none;stroke:#000000;stroke-width:0.184135;stroke-linecap:butt;stroke-linejoin:miter;stroke-miterlimit:3.79999995;stroke-dasharray:none;stroke-opacity:1"
                   id="path104"
                   inkscape:connector-curvature="0" /></g><g
                 id="g106"
                 transform="scale(1,-1)"><path
                   d="m 152.094,-153.277 v 2.32 m 0,147.602 v -2.321"
                   style="fill:none;stroke:#000000;stroke-width:0.184135;stroke-linecap:butt;stroke-linejoin:miter;stroke-miterlimit:3.79999995;stroke-dasharray:none;stroke-opacity:1"
                   id="path108"
                   inkscape:connector-curvature="0" /></g><g
                 id="g110"
                 transform="scale(1,-1)"><path
                   d="m 190.43,-153.277 v 2.32 m 0,147.602 v -2.321"
                   style="fill:none;stroke:#000000;stroke-width:0.184135;stroke-linecap:butt;stroke-linejoin:miter;stroke-miterlimit:3.79999995;stroke-dasharray:none;stroke-opacity:1"
                   id="path112"
                   inkscape:connector-curvature="0" /></g><g
                 id="g114"
                 transform="scale(1,-1)"><path
                   d="m 228.766,-153.277 v 2.32 m 0,147.602 v -2.321"
                   style="fill:none;stroke:#000000;stroke-width:0.184135;stroke-linecap:butt;stroke-linejoin:miter;stroke-miterlimit:3.79999995;stroke-dasharray:none;stroke-opacity:1"
                   id="path116"
                   inkscape:connector-curvature="0" /></g><g
                 id="g118"
                 transform="scale(1,-1)"><path
                   d="M 37.082,-3.355 H 247.918 V -153.277 H 37.082 Z"
                   style="fill:none;stroke:#000000;stroke-width:0.184135;stroke-linecap:butt;stroke-linejoin:miter;stroke-miterlimit:3.79999995;stroke-dasharray:none;stroke-opacity:1"
                   id="path120"
                   inkscape:connector-curvature="0" /></g><g
                 id="g122"
                 transform="scale(1,-1)"><path
                   d="M 37.082,-123.301 H 247.918"
                   style="fill:none;stroke:#a1a1a1;stroke-width:0.184135;stroke-linecap:butt;stroke-linejoin:miter;stroke-miterlimit:3.79999995;stroke-dasharray:none;stroke-opacity:1"
                   id="path124"
                   inkscape:connector-curvature="0" /></g><g
                 id="g126"
                 transform="scale(1,-1)"><path
                   d="m 83.078,-117.039 h 3.832 l 7.66,-0.332 19.184,-0.699 7.66,-0.332 11.492,-0.739"
                   style="fill:none;stroke:#d10000;stroke-width:0.73654002;stroke-linecap:butt;stroke-linejoin:miter;stroke-miterlimit:3.79999995;stroke-dasharray:none;stroke-opacity:1"
                   id="path128"
                   inkscape:connector-curvature="0" /></g><path
                 d="m 84.238,117.039 c 0,-0.641 -0.519,-1.16 -1.16,-1.16 -0.64,0 -1.16,0.519 -1.16,1.16 0,0.641 0.52,1.16 1.16,1.16 0.641,0 1.16,-0.519 1.16,-1.16"
                 style="fill:#d10000;fill-opacity:1;fill-rule:nonzero;stroke:none"
                 id="path130"
                 inkscape:connector-curvature="0" /><path
                 d="m 88.07,117.039 c 0,-0.641 -0.519,-1.16 -1.16,-1.16 -0.64,0 -1.16,0.519 -1.16,1.16 0,0.641 0.52,1.16 1.16,1.16 0.641,0 1.16,-0.519 1.16,-1.16"
                 style="fill:#d10000;fill-opacity:1;fill-rule:nonzero;stroke:none"
                 id="path132"
                 inkscape:connector-curvature="0" /><path
                 d="m 95.73,117.371 c 0,-0.641 -0.519,-1.16 -1.16,-1.16 -0.64,0 -1.16,0.519 -1.16,1.16 0,0.641 0.52,1.16 1.16,1.16 0.641,0 1.16,-0.519 1.16,-1.16"
                 style="fill:#d10000;fill-opacity:1;fill-rule:nonzero;stroke:none"
                 id="path134"
                 inkscape:connector-curvature="0" /><path
                 d="m 114.914,118.07 c 0,-0.64 -0.516,-1.16 -1.16,-1.16 -0.641,0 -1.156,0.52 -1.156,1.16 0,0.641 0.515,1.16 1.156,1.16 0.644,0 1.16,-0.519 1.16,-1.16"
                 style="fill:#d10000;fill-opacity:1;fill-rule:nonzero;stroke:none"
                 id="path136"
                 inkscape:connector-curvature="0" /><path
                 d="m 122.574,118.402 c 0,-0.64 -0.519,-1.16 -1.16,-1.16 -0.641,0 -1.16,0.52 -1.16,1.16 0,0.641 0.519,1.16 1.16,1.16 0.641,0 1.16,-0.519 1.16,-1.16"
                 style="fill:#d10000;fill-opacity:1;fill-rule:nonzero;stroke:none"
                 id="path138"
                 inkscape:connector-curvature="0" /><path
                 d="m 134.066,119.141 c 0,-0.641 -0.519,-1.161 -1.16,-1.161 -0.64,0 -1.16,0.52 -1.16,1.161 0,0.64 0.52,1.16 1.16,1.16 0.641,0 1.16,-0.52 1.16,-1.16"
                 style="fill:#d10000;fill-opacity:1;fill-rule:nonzero;stroke:none"
                 id="path140"
                 inkscape:connector-curvature="0" /><g
                 id="g142"
                 transform="scale(1,-1)"><path
                   d="m 216.207,-33.332 -0.992,-14.988 -0.996,-14.989 -1.657,-14.988 -1.695,-15.027 -2.578,-14.988 -3.644,-14.989"
                   style="fill:none;stroke:#0000d1;stroke-width:0.73654002;stroke-linecap:butt;stroke-linejoin:miter;stroke-miterlimit:3.79999995;stroke-dasharray:none;stroke-opacity:1"
                   id="path144"
                   inkscape:connector-curvature="0" /></g><path
                 d="m 217.367,33.332 c 0,-0.641 -0.519,-1.16 -1.16,-1.16 -0.641,0 -1.16,0.519 -1.16,1.16 0,0.641 0.519,1.16 1.16,1.16 0.641,0 1.16,-0.519 1.16,-1.16"
                 style="fill:#0000d1;fill-opacity:1;fill-rule:nonzero;stroke:none"
                 id="path146"
                 inkscape:connector-curvature="0" /><path
                 d="m 216.375,48.32 c 0,-0.64 -0.52,-1.16 -1.16,-1.16 -0.641,0 -1.16,0.52 -1.16,1.16 0,0.641 0.519,1.16 1.16,1.16 0.64,0 1.16,-0.519 1.16,-1.16"
                 style="fill:#0000d1;fill-opacity:1;fill-rule:nonzero;stroke:none"
                 id="path148"
                 inkscape:connector-curvature="0" /><path
                 d="m 215.379,63.309 c 0,-0.641 -0.52,-1.161 -1.16,-1.161 -0.641,0 -1.16,0.52 -1.16,1.161 0,0.64 0.519,1.16 1.16,1.16 0.64,0 1.16,-0.52 1.16,-1.16"
                 style="fill:#0000d1;fill-opacity:1;fill-rule:nonzero;stroke:none"
                 id="path150"
                 inkscape:connector-curvature="0" /><path
                 d="m 213.723,78.297 c 0,-0.641 -0.52,-1.16 -1.161,-1.16 -0.64,0 -1.16,0.519 -1.16,1.16 0,0.641 0.52,1.16 1.16,1.16 0.641,0 1.161,-0.519 1.161,-1.16"
                 style="fill:#0000d1;fill-opacity:1;fill-rule:nonzero;stroke:none"
                 id="path152"
                 inkscape:connector-curvature="0" /><path
                 d="m 212.027,93.324 c 0,-0.64 -0.519,-1.16 -1.16,-1.16 -0.64,0 -1.16,0.52 -1.16,1.16 0,0.641 0.52,1.16 1.16,1.16 0.641,0 1.16,-0.519 1.16,-1.16"
                 style="fill:#0000d1;fill-opacity:1;fill-rule:nonzero;stroke:none"
                 id="path154"
                 inkscape:connector-curvature="0" /><path
                 d="m 209.449,108.312 c 0,-0.64 -0.519,-1.16 -1.16,-1.16 -0.641,0 -1.16,0.52 -1.16,1.16 0,0.641 0.519,1.161 1.16,1.161 0.641,0 1.16,-0.52 1.16,-1.161"
                 style="fill:#0000d1;fill-opacity:1;fill-rule:nonzero;stroke:none"
                 id="path156"
                 inkscape:connector-curvature="0" /><path
                 d="m 205.805,123.301 c 0,-0.641 -0.52,-1.16 -1.16,-1.16 -0.641,0 -1.161,0.519 -1.161,1.16 0,0.64 0.52,1.16 1.161,1.16 0.64,0 1.16,-0.52 1.16,-1.16"
                 style="fill:#0000d1;fill-opacity:1;fill-rule:nonzero;stroke:none"
                 id="path158"
                 inkscape:connector-curvature="0" /><path
                 d="m 202.16,132.582 c 0,-0.641 -0.519,-1.16 -1.16,-1.16 -0.641,0 -1.16,0.519 -1.16,1.16 0,0.641 0.519,1.16 1.16,1.16 0.641,0 1.16,-0.519 1.16,-1.16"
                 style="fill:#0000d1;fill-opacity:1;fill-rule:nonzero;stroke:none"
                 id="path160"
                 inkscape:connector-curvature="0" /><g
                 id="g162"
                 transform="scale(1,-1)"><path
                   d="m 79.25,-117.039 h 7.66 l 7.66,-0.332 19.184,-0.699 7.66,-0.332 11.492,-0.739 68.094,-13.441"
                   style="fill:none;stroke:#d12121;stroke-width:0.184135;stroke-linecap:butt;stroke-linejoin:miter;stroke-miterlimit:3.79999995;stroke-dasharray:1.47308, 0.73654;stroke-dashoffset:0;stroke-opacity:1"
                   id="path164"
                   inkscape:connector-curvature="0" /></g><g
                 id="g166"
                 transform="scale(1,-1)"><path
                   d="m 80.41,-117.039 c 0,0.641 -0.519,1.16 -1.16,1.16 -0.641,0 -1.16,-0.519 -1.16,-1.16 0,-0.641 0.519,-1.16 1.16,-1.16 0.641,0 1.16,0.519 1.16,1.16"
                   style="fill:none;stroke:#d12121;stroke-width:0.184135;stroke-linecap:butt;stroke-linejoin:miter;stroke-miterlimit:3.79999995;stroke-dasharray:none;stroke-opacity:1"
                   id="path168"
                   inkscape:connector-curvature="0" /></g><g
                 id="g170"
                 transform="scale(1,-1)"><path
                   d="m 79.25,-117.039 v 0"
                   style="fill:none;stroke:#d12121;stroke-width:0.184135;stroke-linecap:round;stroke-linejoin:miter;stroke-miterlimit:3.79999995;stroke-dasharray:none;stroke-opacity:1"
                   id="path172"
                   inkscape:connector-curvature="0" /></g><g
                 id="g174"
                 transform="scale(1,-1)"><path
                   d="m 84.238,-117.039 c 0,0.641 -0.519,1.16 -1.16,1.16 -0.64,0 -1.16,-0.519 -1.16,-1.16 0,-0.641 0.52,-1.16 1.16,-1.16 0.641,0 1.16,0.519 1.16,1.16"
                   style="fill:none;stroke:#d12121;stroke-width:0.184135;stroke-linecap:butt;stroke-linejoin:miter;stroke-miterlimit:3.79999995;stroke-dasharray:none;stroke-opacity:1"
                   id="path176"
                   inkscape:connector-curvature="0" /></g><g
                 id="g178"
                 transform="scale(1,-1)"><path
                   d="m 83.078,-117.039 v 0"
                   style="fill:none;stroke:#d12121;stroke-width:0.184135;stroke-linecap:round;stroke-linejoin:miter;stroke-miterlimit:3.79999995;stroke-dasharray:none;stroke-opacity:1"
                   id="path180"
                   inkscape:connector-curvature="0" /></g><g
                 id="g182"
                 transform="scale(1,-1)"><path
                   d="m 88.07,-117.039 c 0,0.641 -0.519,1.16 -1.16,1.16 -0.64,0 -1.16,-0.519 -1.16,-1.16 0,-0.641 0.52,-1.16 1.16,-1.16 0.641,0 1.16,0.519 1.16,1.16"
                   style="fill:none;stroke:#d12121;stroke-width:0.184135;stroke-linecap:butt;stroke-linejoin:miter;stroke-miterlimit:3.79999995;stroke-dasharray:none;stroke-opacity:1"
                   id="path184"
                   inkscape:connector-curvature="0" /></g><g
                 id="g186"
                 transform="scale(1,-1)"><path
                   d="m 86.91,-117.039 v 0"
                   style="fill:none;stroke:#d12121;stroke-width:0.184135;stroke-linecap:round;stroke-linejoin:miter;stroke-miterlimit:3.79999995;stroke-dasharray:none;stroke-opacity:1"
                   id="path188"
                   inkscape:connector-curvature="0" /></g><g
                 id="g190"
                 transform="scale(1,-1)"><path
                   d="m 95.73,-117.371 c 0,0.641 -0.519,1.16 -1.16,1.16 -0.64,0 -1.16,-0.519 -1.16,-1.16 0,-0.641 0.52,-1.16 1.16,-1.16 0.641,0 1.16,0.519 1.16,1.16"
                   style="fill:none;stroke:#d12121;stroke-width:0.184135;stroke-linecap:butt;stroke-linejoin:miter;stroke-miterlimit:3.79999995;stroke-dasharray:none;stroke-opacity:1"
                   id="path192"
                   inkscape:connector-curvature="0" /></g><g
                 id="g194"
                 transform="scale(1,-1)"><path
                   d="m 94.57,-117.371 v 0"
                   style="fill:none;stroke:#d12121;stroke-width:0.184135;stroke-linecap:round;stroke-linejoin:miter;stroke-miterlimit:3.79999995;stroke-dasharray:none;stroke-opacity:1"
                   id="path196"
                   inkscape:connector-curvature="0" /></g><g
                 id="g198"
                 transform="scale(1,-1)"><path
                   d="m 114.914,-118.07 c 0,0.64 -0.516,1.16 -1.16,1.16 -0.641,0 -1.156,-0.52 -1.156,-1.16 0,-0.641 0.515,-1.16 1.156,-1.16 0.644,0 1.16,0.519 1.16,1.16"
                   style="fill:none;stroke:#d12121;stroke-width:0.184135;stroke-linecap:butt;stroke-linejoin:miter;stroke-miterlimit:3.79999995;stroke-dasharray:none;stroke-opacity:1"
                   id="path200"
                   inkscape:connector-curvature="0" /></g><g
                 id="g202"
                 transform="scale(1,-1)"><path
                   d="m 113.754,-118.07 v 0"
                   style="fill:none;stroke:#d12121;stroke-width:0.184135;stroke-linecap:round;stroke-linejoin:miter;stroke-miterlimit:3.79999995;stroke-dasharray:none;stroke-opacity:1"
                   id="path204"
                   inkscape:connector-curvature="0" /></g><g
                 id="g206"
                 transform="scale(1,-1)"><path
                   d="m 122.574,-118.402 c 0,0.64 -0.519,1.16 -1.16,1.16 -0.641,0 -1.16,-0.52 -1.16,-1.16 0,-0.641 0.519,-1.16 1.16,-1.16 0.641,0 1.16,0.519 1.16,1.16"
                   style="fill:none;stroke:#d12121;stroke-width:0.184135;stroke-linecap:butt;stroke-linejoin:miter;stroke-miterlimit:3.79999995;stroke-dasharray:none;stroke-opacity:1"
                   id="path208"
                   inkscape:connector-curvature="0" /></g><g
                 id="g210"
                 transform="scale(1,-1)"><path
                   d="m 121.414,-118.402 v 0"
                   style="fill:none;stroke:#d12121;stroke-width:0.184135;stroke-linecap:round;stroke-linejoin:miter;stroke-miterlimit:3.79999995;stroke-dasharray:none;stroke-opacity:1"
                   id="path212"
                   inkscape:connector-curvature="0" /></g><g
                 id="g214"
                 transform="scale(1,-1)"><path
                   d="m 134.066,-119.141 c 0,0.641 -0.519,1.161 -1.16,1.161 -0.64,0 -1.16,-0.52 -1.16,-1.161 0,-0.64 0.52,-1.16 1.16,-1.16 0.641,0 1.16,0.52 1.16,1.16"
                   style="fill:none;stroke:#d12121;stroke-width:0.184135;stroke-linecap:butt;stroke-linejoin:miter;stroke-miterlimit:3.79999995;stroke-dasharray:none;stroke-opacity:1"
                   id="path216"
                   inkscape:connector-curvature="0" /></g><g
                 id="g218"
                 transform="scale(1,-1)"><path
                   d="m 132.906,-119.141 v 0"
                   style="fill:none;stroke:#d12121;stroke-width:0.184135;stroke-linecap:round;stroke-linejoin:miter;stroke-miterlimit:3.79999995;stroke-dasharray:none;stroke-opacity:1"
                   id="path220"
                   inkscape:connector-curvature="0" /></g><g
                 id="g222"
                 transform="scale(1,-1)"><path
                   d="m 202.16,-132.582 c 0,0.641 -0.519,1.16 -1.16,1.16 -0.641,0 -1.16,-0.519 -1.16,-1.16 0,-0.641 0.519,-1.16 1.16,-1.16 0.641,0 1.16,0.519 1.16,1.16"
                   style="fill:none;stroke:#d12121;stroke-width:0.184135;stroke-linecap:butt;stroke-linejoin:miter;stroke-miterlimit:3.79999995;stroke-dasharray:none;stroke-opacity:1"
                   id="path224"
                   inkscape:connector-curvature="0" /></g><g
                 id="g226"
                 transform="scale(1,-1)"><path
                   d="m 201,-132.582 v 0"
                   style="fill:none;stroke:#d12121;stroke-width:0.184135;stroke-linecap:round;stroke-linejoin:miter;stroke-miterlimit:3.79999995;stroke-dasharray:none;stroke-opacity:1"
                   id="path228"
                   inkscape:connector-curvature="0" /></g><g
                 id="g230"
                 transform="scale(1,-1)"><path
                   d="m 216.871,-18.344 -0.664,-14.988 -0.992,-14.988 -0.996,-14.989 -1.657,-14.988 -1.695,-15.027 -2.578,-14.988 -3.644,-14.989 -3.645,-9.281"
                   style="fill:none;stroke:#2121d1;stroke-width:0.184135;stroke-linecap:butt;stroke-linejoin:miter;stroke-miterlimit:3.79999995;stroke-dasharray:1.47308, 0.73654;stroke-dashoffset:0;stroke-opacity:1"
                   id="path232"
                   inkscape:connector-curvature="0" /></g><g
                 id="g234"
                 transform="scale(1,-1)"><path
                   d="m 218.031,-18.344 c 0,0.641 -0.519,1.16 -1.16,1.16 -0.641,0 -1.16,-0.519 -1.16,-1.16 0,-0.64 0.519,-1.16 1.16,-1.16 0.641,0 1.16,0.52 1.16,1.16"
                   style="fill:none;stroke:#2121d1;stroke-width:0.184135;stroke-linecap:butt;stroke-linejoin:miter;stroke-miterlimit:3.79999995;stroke-dasharray:none;stroke-opacity:1"
                   id="path236"
                   inkscape:connector-curvature="0" /></g><g
                 id="g238"
                 transform="scale(1,-1)"><path
                   d="m 216.871,-18.344 v 0"
                   style="fill:none;stroke:#2121d1;stroke-width:0.184135;stroke-linecap:round;stroke-linejoin:miter;stroke-miterlimit:3.79999995;stroke-dasharray:none;stroke-opacity:1"
                   id="path240"
                   inkscape:connector-curvature="0" /></g><g
                 id="g242"
                 transform="scale(1,-1)"><path
                   d="m 217.367,-33.332 c 0,0.641 -0.519,1.16 -1.16,1.16 -0.641,0 -1.16,-0.519 -1.16,-1.16 0,-0.641 0.519,-1.16 1.16,-1.16 0.641,0 1.16,0.519 1.16,1.16"
                   style="fill:none;stroke:#2121d1;stroke-width:0.184135;stroke-linecap:butt;stroke-linejoin:miter;stroke-miterlimit:3.79999995;stroke-dasharray:none;stroke-opacity:1"
                   id="path244"
                   inkscape:connector-curvature="0" /></g><g
                 id="g246"
                 transform="scale(1,-1)"><path
                   d="m 216.207,-33.332 v 0"
                   style="fill:none;stroke:#2121d1;stroke-width:0.184135;stroke-linecap:round;stroke-linejoin:miter;stroke-miterlimit:3.79999995;stroke-dasharray:none;stroke-opacity:1"
                   id="path248"
                   inkscape:connector-curvature="0" /></g><g
                 id="g250"
                 transform="scale(1,-1)"><path
                   d="m 216.375,-48.32 c 0,0.64 -0.52,1.16 -1.16,1.16 -0.641,0 -1.16,-0.52 -1.16,-1.16 0,-0.641 0.519,-1.16 1.16,-1.16 0.64,0 1.16,0.519 1.16,1.16"
                   style="fill:none;stroke:#2121d1;stroke-width:0.184135;stroke-linecap:butt;stroke-linejoin:miter;stroke-miterlimit:3.79999995;stroke-dasharray:none;stroke-opacity:1"
                   id="path252"
                   inkscape:connector-curvature="0" /></g><g
                 id="g254"
                 transform="scale(1,-1)"><path
                   d="m 215.215,-48.32 v 0"
                   style="fill:none;stroke:#2121d1;stroke-width:0.184135;stroke-linecap:round;stroke-linejoin:miter;stroke-miterlimit:3.79999995;stroke-dasharray:none;stroke-opacity:1"
                   id="path256"
                   inkscape:connector-curvature="0" /></g><g
                 id="g258"
                 transform="scale(1,-1)"><path
                   d="m 215.379,-63.309 c 0,0.641 -0.52,1.161 -1.16,1.161 -0.641,0 -1.16,-0.52 -1.16,-1.161 0,-0.64 0.519,-1.16 1.16,-1.16 0.64,0 1.16,0.52 1.16,1.16"
                   style="fill:none;stroke:#2121d1;stroke-width:0.184135;stroke-linecap:butt;stroke-linejoin:miter;stroke-miterlimit:3.79999995;stroke-dasharray:none;stroke-opacity:1"
                   id="path260"
                   inkscape:connector-curvature="0" /></g><g
                 id="g262"
                 transform="scale(1,-1)"><path
                   d="m 214.219,-63.309 v 0"
                   style="fill:none;stroke:#2121d1;stroke-width:0.184135;stroke-linecap:round;stroke-linejoin:miter;stroke-miterlimit:3.79999995;stroke-dasharray:none;stroke-opacity:1"
                   id="path264"
                   inkscape:connector-curvature="0" /></g><g
                 id="g266"
                 transform="scale(1,-1)"><path
                   d="m 213.723,-78.297 c 0,0.641 -0.52,1.16 -1.161,1.16 -0.64,0 -1.16,-0.519 -1.16,-1.16 0,-0.641 0.52,-1.16 1.16,-1.16 0.641,0 1.161,0.519 1.161,1.16"
                   style="fill:none;stroke:#2121d1;stroke-width:0.184135;stroke-linecap:butt;stroke-linejoin:miter;stroke-miterlimit:3.79999995;stroke-dasharray:none;stroke-opacity:1"
                   id="path268"
                   inkscape:connector-curvature="0" /></g><g
                 id="g270"
                 transform="scale(1,-1)"><path
                   d="m 212.562,-78.297 v 0"
                   style="fill:none;stroke:#2121d1;stroke-width:0.184135;stroke-linecap:round;stroke-linejoin:miter;stroke-miterlimit:3.79999995;stroke-dasharray:none;stroke-opacity:1"
                   id="path272"
                   inkscape:connector-curvature="0" /></g><g
                 id="g274"
                 transform="scale(1,-1)"><path
                   d="m 212.027,-93.324 c 0,0.64 -0.519,1.16 -1.16,1.16 -0.64,0 -1.16,-0.52 -1.16,-1.16 0,-0.641 0.52,-1.16 1.16,-1.16 0.641,0 1.16,0.519 1.16,1.16"
                   style="fill:none;stroke:#2121d1;stroke-width:0.184135;stroke-linecap:butt;stroke-linejoin:miter;stroke-miterlimit:3.79999995;stroke-dasharray:none;stroke-opacity:1"
                   id="path276"
                   inkscape:connector-curvature="0" /></g><g
                 id="g278"
                 transform="scale(1,-1)"><path
                   d="m 210.867,-93.324 v 0"
                   style="fill:none;stroke:#2121d1;stroke-width:0.184135;stroke-linecap:round;stroke-linejoin:miter;stroke-miterlimit:3.79999995;stroke-dasharray:none;stroke-opacity:1"
                   id="path280"
                   inkscape:connector-curvature="0" /></g><g
                 id="g282"
                 transform="scale(1,-1)"><path
                   d="m 209.449,-108.312 c 0,0.64 -0.519,1.16 -1.16,1.16 -0.641,0 -1.16,-0.52 -1.16,-1.16 0,-0.641 0.519,-1.161 1.16,-1.161 0.641,0 1.16,0.52 1.16,1.161"
                   style="fill:none;stroke:#2121d1;stroke-width:0.184135;stroke-linecap:butt;stroke-linejoin:miter;stroke-miterlimit:3.79999995;stroke-dasharray:none;stroke-opacity:1"
                   id="path284"
                   inkscape:connector-curvature="0" /></g><g
                 id="g286"
                 transform="scale(1,-1)"><path
                   d="m 208.289,-108.312 v 0"
                   style="fill:none;stroke:#2121d1;stroke-width:0.184135;stroke-linecap:round;stroke-linejoin:miter;stroke-miterlimit:3.79999995;stroke-dasharray:none;stroke-opacity:1"
                   id="path288"
                   inkscape:connector-curvature="0" /></g><g
                 id="g290"
                 transform="scale(1,-1)"><path
                   d="m 205.805,-123.301 c 0,0.641 -0.52,1.16 -1.16,1.16 -0.641,0 -1.161,-0.519 -1.161,-1.16 0,-0.64 0.52,-1.16 1.161,-1.16 0.64,0 1.16,0.52 1.16,1.16"
                   style="fill:none;stroke:#2121d1;stroke-width:0.184135;stroke-linecap:butt;stroke-linejoin:miter;stroke-miterlimit:3.79999995;stroke-dasharray:none;stroke-opacity:1"
                   id="path292"
                   inkscape:connector-curvature="0" /></g><g
                 id="g294"
                 transform="scale(1,-1)"><path
                   d="m 204.645,-123.301 v 0"
                   style="fill:none;stroke:#2121d1;stroke-width:0.184135;stroke-linecap:round;stroke-linejoin:miter;stroke-miterlimit:3.79999995;stroke-dasharray:none;stroke-opacity:1"
                   id="path296"
                   inkscape:connector-curvature="0" /></g><g
                 id="g298"
                 transform="scale(1,-1)"><path
                   d="m 202.16,-132.582 c 0,0.641 -0.519,1.16 -1.16,1.16 -0.641,0 -1.16,-0.519 -1.16,-1.16 0,-0.641 0.519,-1.16 1.16,-1.16 0.641,0 1.16,0.519 1.16,1.16"
                   style="fill:none;stroke:#2121d1;stroke-width:0.184135;stroke-linecap:butt;stroke-linejoin:miter;stroke-miterlimit:3.79999995;stroke-dasharray:none;stroke-opacity:1"
                   id="path300"
                   inkscape:connector-curvature="0" /></g><g
                 id="g302"
                 transform="scale(1,-1)"><path
                   d="m 201,-132.582 v 0"
                   style="fill:none;stroke:#2121d1;stroke-width:0.184135;stroke-linecap:round;stroke-linejoin:miter;stroke-miterlimit:3.79999995;stroke-dasharray:none;stroke-opacity:1"
                   id="path304"
                   inkscape:connector-curvature="0" /></g><g
                 id="g306"
                 transform="scale(1,-1)"><path
                   d="m 236.02,-152.062 -7.254,3.718 -27.766,15.762"
                   style="fill:none;stroke:#21d121;stroke-width:0.184135;stroke-linecap:butt;stroke-linejoin:miter;stroke-miterlimit:3.79999995;stroke-dasharray:1.47308, 0.73654;stroke-dashoffset:0;stroke-opacity:1"
                   id="path308"
                   inkscape:connector-curvature="0" /></g><g
                 id="g310"
                 transform="scale(1,-1)"><path
                   d="m 237.18,-152.062 c 0,0.64 -0.516,1.16 -1.16,1.16 -0.641,0 -1.157,-0.52 -1.157,-1.16 0,-0.641 0.516,-1.161 1.157,-1.161 0.644,0 1.16,0.52 1.16,1.161"
                   style="fill:none;stroke:#21d121;stroke-width:0.184135;stroke-linecap:butt;stroke-linejoin:miter;stroke-miterlimit:3.79999995;stroke-dasharray:none;stroke-opacity:1"
                   id="path312"
                   inkscape:connector-curvature="0" /></g><g
                 id="g314"
                 transform="scale(1,-1)"><path
                   d="m 236.02,-152.062 v 0"
                   style="fill:none;stroke:#21d121;stroke-width:0.184135;stroke-linecap:round;stroke-linejoin:miter;stroke-miterlimit:3.79999995;stroke-dasharray:none;stroke-opacity:1"
                   id="path316"
                   inkscape:connector-curvature="0" /></g><g
                 id="g318"
                 transform="scale(1,-1)"><path
                   d="m 229.926,-148.344 c 0,0.641 -0.52,1.16 -1.16,1.16 -0.641,0 -1.161,-0.519 -1.161,-1.16 0,-0.64 0.52,-1.16 1.161,-1.16 0.64,0 1.16,0.52 1.16,1.16"
                   style="fill:none;stroke:#21d121;stroke-width:0.184135;stroke-linecap:butt;stroke-linejoin:miter;stroke-miterlimit:3.79999995;stroke-dasharray:none;stroke-opacity:1"
                   id="path320"
                   inkscape:connector-curvature="0" /></g><g
                 id="g322"
                 transform="scale(1,-1)"><path
                   d="m 228.766,-148.344 v 0"
                   style="fill:none;stroke:#21d121;stroke-width:0.184135;stroke-linecap:round;stroke-linejoin:miter;stroke-miterlimit:3.79999995;stroke-dasharray:none;stroke-opacity:1"
                   id="path324"
                   inkscape:connector-curvature="0" /></g><g
                 id="g326"
                 transform="scale(1,-1)"><path
                   d="m 202.16,-132.582 c 0,0.641 -0.519,1.16 -1.16,1.16 -0.641,0 -1.16,-0.519 -1.16,-1.16 0,-0.641 0.519,-1.16 1.16,-1.16 0.641,0 1.16,0.519 1.16,1.16"
                   style="fill:none;stroke:#21d121;stroke-width:0.184135;stroke-linecap:butt;stroke-linejoin:miter;stroke-miterlimit:3.79999995;stroke-dasharray:none;stroke-opacity:1"
                   id="path328"
                   inkscape:connector-curvature="0" /></g><g
                 id="g330"
                 transform="scale(1,-1)"><path
                   d="m 201,-132.582 v 0"
                   style="fill:none;stroke:#21d121;stroke-width:0.184135;stroke-linecap:round;stroke-linejoin:miter;stroke-miterlimit:3.79999995;stroke-dasharray:none;stroke-opacity:1"
                   id="path332"
                   inkscape:connector-curvature="0" /></g><g
                 id="g334"
                 transform="scale(1,-1)"><path
                   d="M 128.301,-78.297 83.078,-48.32"
                   style="fill:none;stroke:#d12121;stroke-width:0.184135;stroke-linecap:butt;stroke-linejoin:miter;stroke-miterlimit:3.79999995;stroke-dasharray:1.47308, 0.73654;stroke-dashoffset:0;stroke-opacity:1"
                   id="path336"
                   inkscape:connector-curvature="0" /></g><g
                 id="g338"
                 transform="scale(1,-1)"><path
                   d="m 166.641,-108.312 -8.805,7.511 -7.66,7.477 -9.61,7.512 -12.265,7.515"
                   style="fill:none;stroke:#d12121;stroke-width:1.84134996;stroke-linecap:butt;stroke-linejoin:miter;stroke-miterlimit:3.79999995;stroke-dasharray:1.84135, 0.920675;stroke-dashoffset:0;stroke-opacity:1"
                   id="path340"
                   inkscape:connector-curvature="0" /></g><g
                 id="g342"
                 transform="scale(1,-1)"><path
                   d="M 166.641,-108.312 201,-132.582"
                   style="fill:none;stroke:#d12121;stroke-width:0.184135;stroke-linecap:butt;stroke-linejoin:miter;stroke-miterlimit:3.79999995;stroke-dasharray:1.47308, 0.73654;stroke-dashoffset:0;stroke-opacity:1"
                   id="path344"
                   inkscape:connector-curvature="0" /></g><g
                 id="g346"
                 transform="scale(1,-1)"><path
                   d="m 199.258,-130.84 h 3.48 v -3.48 h -3.48 z"
                   style="fill:#ffffff;fill-opacity:1;fill-rule:nonzero;stroke:#ff8000;stroke-width:0.184135;stroke-linecap:butt;stroke-linejoin:miter;stroke-miterlimit:3.79999995;stroke-dasharray:none;stroke-opacity:1"
                   id="path348"
                   inkscape:connector-curvature="0" /></g><g
                 id="g350"
                 transform="scale(1,-1)"><path
                   d="m 201,-132.582 v 0"
                   style="fill:none;stroke:#ff8000;stroke-width:0.184135;stroke-linecap:round;stroke-linejoin:miter;stroke-miterlimit:3.79999995;stroke-dasharray:none;stroke-opacity:1"
                   id="path352"
                   inkscape:connector-curvature="0" /></g><g
                 id="g354"
                 transform="scale(1,-1)"><path
                   d="M 37.082,-3.355 H 247.918 V -153.277 H 37.082 Z"
                   style="fill:none;stroke:#000000;stroke-width:0.184135;stroke-linecap:butt;stroke-linejoin:miter;stroke-miterlimit:3.79999995;stroke-dasharray:none;stroke-opacity:1"
                   id="path356"
                   inkscape:connector-curvature="0" /></g><text
                 transform="rotate(-90,43.747446,37.968376)"
                 style="font-variant:normal;font-weight:normal;font-size:8.0349884px;font-family:'DejaVu Sans';-inkscape-font-specification:DejaVuSans;writing-mode:lr-tb;fill:#231f20;fill-opacity:1;fill-rule:nonzero;stroke:none"
                 id="text360"><tspan
                   x="0"
                   y="0"
                   id="tspan358">∆</tspan></text>
<text
                 transform="translate(138.44465,175.49221)"
                 style="font-variant:normal;font-weight:normal;font-size:8.0349884px;font-family:'DejaVu Sans';-inkscape-font-specification:DejaVuSans;writing-mode:lr-tb;fill:#231f20;fill-opacity:1;fill-rule:nonzero;stroke:none"
                 id="text364"><tspan
                   x="0"
                   y="0"
                   id="tspan362">κ</tspan></text>
<text
                 transform="translate(143.04083,176.72937)"
                 style="font-variant:normal;font-weight:normal;font-size:5.87030506px;font-family:'DejaVu Sans';-inkscape-font-specification:DejaVuSans;writing-mode:lr-tb;fill:#231f20;fill-opacity:1;fill-rule:nonzero;stroke:none"
                 id="text368"><tspan
                   x="0"
                   y="0"
                   id="tspan366">0</tspan></text>
</g></g></g></g></g></g></svg>