<?xml version="1.0" encoding="UTF-8" standalone="no"?>
<!-- Created with Inkscape (http://www.inkscape.org/) -->

<svg
   version="1.1"
   id="svg2"
   xml:space="preserve"
   width="672"
   height="480"
   viewBox="0 0 672 480"
   sodipodi:docname="nf3_to_models.pdf"
   xmlns:inkscape="http://www.inkscape.org/namespaces/inkscape"
   xmlns:sodipodi="http://sodipodi.sourceforge.net/DTD/sodipodi-0.dtd"
   xmlns="http://www.w3.org/2000/svg"
   xmlns:svg="http://www.w3.org/2000/svg"><defs
     id="defs6"><clipPath
       clipPathUnits="userSpaceOnUse"
       id="clipPath20"><path
         d="M 77.16,15.77 H 493.199 V 306.852 H 77.16 Z"
         id="path18" /></clipPath><clipPath
       clipPathUnits="userSpaceOnUse"
       id="clipPath28"><path
         d="M 0,0 H 504 V 360 H 0 Z"
         id="path26" /></clipPath><clipPath
       clipPathUnits="userSpaceOnUse"
       id="clipPath160"><path
         d="m 77.16,190 h 416.039 v 1 H 77.16 Z"
         id="path158" /></clipPath><clipPath
       clipPathUnits="userSpaceOnUse"
       id="clipPath170"><path
         d="M 0,0 H 504 V 360 H 0 Z"
         id="path168" /></clipPath><clipPath
       clipPathUnits="userSpaceOnUse"
       id="clipPath182"><path
         d="M 77.16,15.77 H 493.199 V 306.852 H 77.16 Z"
         id="path180" /></clipPath><clipPath
       clipPathUnits="userSpaceOnUse"
       id="clipPath192"><path
         d="M 0,0 H 504 V 360 H 0 Z"
         id="path190" /></clipPath><clipPath
       clipPathUnits="userSpaceOnUse"
       id="clipPath204"><path
         d="m 77.16,96 h 416.039 v 96 H 77.16 Z"
         id="path202" /></clipPath><clipPath
       clipPathUnits="userSpaceOnUse"
       id="clipPath214"><path
         d="M 0,0 H 504 V 360 H 0 Z"
         id="path212" /></clipPath><clipPath
       clipPathUnits="userSpaceOnUse"
       id="clipPath226"><path
         d="m 77.16,99 h 416.039 v 93 H 77.16 Z"
         id="path224" /></clipPath><clipPath
       clipPathUnits="userSpaceOnUse"
       id="clipPath236"><path
         d="M 0,0 H 504 V 360 H 0 Z"
         id="path234" /></clipPath></defs><sodipodi:namedview
     id="namedview4"
     pagecolor="#ffffff"
     bordercolor="#666666"
     borderopacity="1.0"
     inkscape:pageshadow="2"
     inkscape:pageopacity="0.0"
     inkscape:pagecheckerboard="0" /><g
     id="g8"
     inkscape:groupmode="layer"
     inkscape:label="nf3_to_models"
     transform="matrix(1.3333333,0,0,1.3333333,0,1.2e-5)"><g
       id="g10"><path
         d="M 77.16,15.77 H 493.199 V 306.852 H 77.16 Z"
         style="fill:#ffffff;fill-opacity:1;fill-rule:nonzero;stroke:none"
         id="path12" /></g><g
       id="g14"><g
         id="g16"
         clip-path="url(#clipPath20)"><g
           id="g22"><g
             id="g24" /><g
             id="g40"><g
               clip-path="url(#clipPath28)"
               id="g38"><g
                 id="g36"><path
                   d="m 69.098,-450.16 v 232.476 l 0.113,62.965 0.148,65.18 0.192,65.203 0.238,63.164 0.309,59.668 0.39,55.219 0.5,50.035 0.633,44.086 0.813,37.144 1.031,28.926 1.312,19.578 1.676,10.317 2.133,2.972 2.723,-1.808 3.464,-5.297 4.415,-8.777 5.628,-13.036 7.172,-19.269 9.137,-28.195 13.176,-41.664 13.172,-32.766 13.175,-21.59 13.176,-14.183 13.176,-9.086 13.176,-5.813 13.172,-4.16 13.175,-2.91 13.176,-2.281 13.176,-2.715 13.176,-0.012 13.172,1.215 13.175,0.527 13.176,3.711 13.176,5.449 13.176,6.41 13.176,5.813 13.171,4.434 13.176,5.277 13.176,7.551 13.176,8.031 13.176,3.629 13.171,4.371 13.176,0.359 13.176,2.559 13.176,0.598 13.176,-0.887 13.171,-0.524 13.176,-1.316 -13.176,-11.5 -13.171,-4.5 -13.176,-6.465 -13.176,-4.359 -13.176,-2.918 -13.176,-7.145 -13.171,-8.527 -13.176,-9.871 -13.176,-3.496 -13.176,-6.317 -13.176,-10.312 -13.171,-11.223 -13.176,-10.113 -13.176,-9.606 -13.176,-8.824 -13.176,-6.347 -13.175,-5.165 -13.172,-1.851 -13.176,0.226 -13.176,1.942 -13.176,4.262 -13.175,5.839 -13.172,8.055 -13.176,11.348 -13.176,15.844 -13.176,21.921 -13.175,28.258 -13.172,30.36 -13.176,29.382 -9.137,21.262 -7.172,16.664 -5.628,11.012 -4.415,4.57 -3.464,-2.508 -2.723,-10.32 -2.133,-18.008 -1.676,-24.328 -1.312,-29.711 -1.031,-35.652 -0.813,-42.867 -0.633,-50.825 -0.5,-58.562 -0.39,-65.32 -0.309,-70.664 -0.238,-74.59 -0.192,-77.457 -0.148,-79.852 z"
                   style="fill:#1e75b3;fill-opacity:0.2;fill-rule:nonzero;stroke:none"
                   id="path30" /><path
                   d="M 69.098,-1080.262 V 412.414 l 0.113,24.254 0.148,15.426 0.192,6.695 0.238,-1.793 0.309,-9.652 0.39,-16.528 0.5,-22.043 0.633,-25.711 0.813,-26.574 1.031,-21.765 1.312,-1.176 1.676,32.086 2.133,39.387 2.723,30.761 3.464,18.574 4.415,5.633 5.628,-7.828 7.172,-22.371 9.137,-38.176 13.176,-60.273 13.172,-55.117 13.175,-43.688 13.176,-31.492 13.176,-21.273 13.176,-13.977 13.172,-9.477 13.175,-6.5 13.176,-4.785 13.176,-4.472 13.176,-1.735 13.172,-0.238 13.175,-0.449 13.176,2.855 13.176,4.781 13.176,5.887 13.176,5.434 13.171,4.183 13.176,5.098 13.176,7.402 13.176,7.938 13.176,3.594 13.171,4.347 13.176,0.344 13.176,2.555 13.176,0.59 13.176,-0.887 13.171,-0.52 13.176,-1.32 -13.176,-11.5 -13.171,-4.5 -13.176,-6.465 -13.176,-4.363 -13.176,-2.926 -13.176,-7.16 -13.171,-8.551 -13.176,-9.91 -13.176,-3.586 -13.176,-6.465 L 348.273,114.5 335.102,103.031 321.926,92.539 308.75,82.406 295.574,72.918 282.398,65.707 269.223,59.566 256.051,56.262 242.875,54.77 l -13.176,0.183 -13.176,1.762 -13.175,2.246 -13.172,2.738 -13.176,3.184 -13.176,3.656 -13.176,4.613 -13.175,6.164 -13.172,8.004 -13.176,10.774 -9.137,11.281 -7.172,13.563 -5.628,16.218 -4.415,18.981 -3.464,21.363 -2.723,22.25 -2.133,18.406 -1.676,-2.562 -1.312,-50.461 -1.031,-86.344 -0.813,-106.59 -0.633,-120.617 -0.5,-130.641 -0.39,-137.066 -0.309,-139.988 -0.238,-139.543 -0.192,-135.965 -0.148,-129.606 z"
                   style="fill:#9ccae1;fill-opacity:0.2;fill-rule:nonzero;stroke:none"
                   id="path32" /><path
                   d="M 69.098,-1080.262 V 412.414 l 0.113,24.254 0.148,15.426 0.192,6.695 0.238,-1.793 0.309,-9.652 0.39,-16.528 0.5,-22.043 0.633,-25.711 0.813,-26.574 1.031,-21.765 1.312,-1.176 1.676,32.086 2.133,39.387 2.723,30.761 3.464,18.574 4.415,5.633 5.628,-7.828 7.172,-22.371 9.137,-38.176 13.176,-60.273 13.172,-55.117 13.175,-43.688 13.176,-31.492 13.176,-21.273 13.176,-13.977 13.172,-9.477 13.175,-6.5 13.176,-4.785 13.176,-4.472 13.176,-1.735 13.172,-0.238 13.175,-0.449 13.176,2.855 13.176,4.781 13.176,5.887 13.176,5.434 13.171,4.183 13.176,5.098 13.176,7.402 13.176,7.938 13.176,3.594 13.171,4.347 13.176,0.344 13.176,2.555 13.176,0.59 13.176,-0.887 13.171,-0.52 13.176,-1.32 -13.176,-11.5 -13.171,-4.5 -13.176,-6.465 -13.176,-4.363 -13.176,-2.926 -13.176,-7.16 -13.171,-8.551 -13.176,-9.91 -13.176,-3.586 -13.176,-6.465 L 348.273,114.5 335.102,103.031 321.926,92.539 308.75,82.406 295.574,72.918 282.398,65.707 269.223,59.566 256.051,56.262 242.875,54.77 l -13.176,0.183 -13.176,1.762 -13.175,2.246 -13.172,2.738 -13.176,3.184 -13.176,3.656 -13.176,4.613 -13.175,6.164 -13.172,8.004 -13.176,10.774 -9.137,11.281 -7.172,13.563 -5.628,16.218 -4.415,18.981 -3.464,21.363 -2.723,22.25 -2.133,18.406 -1.676,-2.562 -1.312,-50.461 -1.031,-86.344 -0.813,-106.59 -0.633,-120.617 -0.5,-130.641 -0.39,-137.066 -0.309,-139.988 -0.238,-139.543 -0.192,-135.965 -0.148,-129.606 z"
                   style="fill:none;stroke:#9ccae1;stroke-width:1;stroke-linecap:butt;stroke-linejoin:round;stroke-miterlimit:10;stroke-dasharray:none;stroke-opacity:0.2"
                   id="path34" /></g></g></g></g></g></g><g
       id="g42"><path
         d="m 153.578,306.852 v 3.5"
         style="fill:none;stroke:#000000;stroke-width:0.8;stroke-linecap:butt;stroke-linejoin:round;stroke-miterlimit:10;stroke-dasharray:none;stroke-opacity:1"
         id="path44" /><path
         d="m 151.102,319.32 c 0,-1.156 -0.063,-2.281 -0.579,-3.343 -0.562,-1.157 -1.562,-1.469 -2.25,-1.469 -0.812,0 -1.796,0.406 -2.312,1.562 -0.391,0.875 -0.531,1.75 -0.531,3.25 0,1.36 0.093,2.375 0.593,3.36 0.547,1.062 1.5,1.406 2.235,1.406 1.219,0 1.906,-0.734 2.312,-1.531 0.5,-1.047 0.532,-2.422 0.532,-3.235 z m -2.844,4.485 c -0.453,0 -1.36,-0.25 -1.625,-1.782 -0.156,-0.828 -0.156,-1.89 -0.156,-2.859 0,-1.156 0,-2.187 0.234,-3 0.234,-0.937 0.937,-1.375 1.547,-1.375 0.531,0 1.344,0.328 1.609,1.516 0.172,0.797 0.172,1.906 0.172,2.859 0,0.922 0,1.984 -0.156,2.844 -0.266,1.531 -1.141,1.797 -1.625,1.797 z"
         style="fill:#000000;fill-opacity:1;fill-rule:nonzero;stroke:none"
         id="path46" /><path
         d="m 154.242,323.117 c 0,-0.406 -0.328,-0.687 -0.672,-0.687 -0.39,0 -0.672,0.343 -0.672,0.672 0,0.406 0.329,0.687 0.672,0.687 0.391,0 0.672,-0.328 0.672,-0.672 z"
         style="fill:#000000;fill-opacity:1;fill-rule:nonzero;stroke:none"
         id="path48" /><path
         d="m 161.613,321.445 h -0.312 c -0.031,0.235 -0.156,1 -0.281,1.235 -0.11,0.125 -0.907,0.125 -1.313,0.125 h -2.594 c 0.375,-0.328 1.235,-1.219 1.594,-1.563 2.125,-1.953 2.906,-2.672 2.906,-4.047 0,-1.609 -1.265,-2.687 -2.89,-2.687 -1.625,0 -2.563,1.39 -2.563,2.578 0,0.719 0.61,0.719 0.656,0.719 0.282,0 0.657,-0.203 0.657,-0.657 0,-0.39 -0.266,-0.656 -0.657,-0.656 -0.125,0 -0.156,0 -0.203,0.016 0.266,-0.953 1.016,-1.594 1.922,-1.594 1.188,0 1.922,0.984 1.922,2.281 0,1.188 -0.687,2.219 -1.484,3.11 l -2.813,3.156 v 0.328 h 5.094 z"
         style="fill:#000000;fill-opacity:1;fill-rule:nonzero;stroke:none"
         id="path50" /><path
         d="m 238.484,306.852 v 3.5"
         style="fill:none;stroke:#000000;stroke-width:0.8;stroke-linecap:butt;stroke-linejoin:round;stroke-miterlimit:10;stroke-dasharray:none;stroke-opacity:1"
         id="path52" /><path
         d="m 236.008,319.32 c 0,-1.156 -0.063,-2.281 -0.578,-3.343 -0.563,-1.157 -1.563,-1.469 -2.25,-1.469 -0.813,0 -1.797,0.406 -2.313,1.562 -0.39,0.875 -0.531,1.75 -0.531,3.25 0,1.36 0.094,2.375 0.594,3.36 0.547,1.062 1.5,1.406 2.234,1.406 1.219,0 1.906,-0.734 2.313,-1.531 0.5,-1.047 0.531,-2.422 0.531,-3.235 z m -2.844,4.485 c -0.453,0 -1.359,-0.25 -1.625,-1.782 -0.156,-0.828 -0.156,-1.89 -0.156,-2.859 0,-1.156 0,-2.187 0.234,-3 0.235,-0.937 0.938,-1.375 1.547,-1.375 0.531,0 1.344,0.328 1.609,1.516 0.172,0.797 0.172,1.906 0.172,2.859 0,0.922 0,1.984 -0.156,2.844 -0.266,1.531 -1.141,1.797 -1.625,1.797 z"
         style="fill:#000000;fill-opacity:1;fill-rule:nonzero;stroke:none"
         id="path54" /><path
         d="m 239.148,323.117 c 0,-0.406 -0.328,-0.687 -0.671,-0.687 -0.391,0 -0.672,0.343 -0.672,0.672 0,0.406 0.328,0.687 0.672,0.687 0.39,0 0.671,-0.328 0.671,-0.672 z"
         style="fill:#000000;fill-opacity:1;fill-rule:nonzero;stroke:none"
         id="path56" /><path
         d="m 245.41,314.711 c 0,-0.266 0,-0.344 -0.187,-0.344 -0.11,0 -0.157,0 -0.266,0.172 l -4.203,6.516 v 0.406 h 3.672 v 1.266 c 0,0.515 -0.031,0.656 -1.047,0.656 h -0.281 v 0.406 c 0.328,-0.031 1.422,-0.031 1.812,-0.031 0.391,0 1.516,0 1.828,0.031 v -0.406 h -0.281 c -1,0 -1.047,-0.141 -1.047,-0.656 v -1.266 h 1.422 v -0.406 h -1.422 z m -0.922,1.078 v 5.266 h -3.39 z"
         style="fill:#000000;fill-opacity:1;fill-rule:nonzero;stroke:none"
         id="path58" /><path
         d="m 323.387,306.852 v 3.5"
         style="fill:none;stroke:#000000;stroke-width:0.8;stroke-linecap:butt;stroke-linejoin:round;stroke-miterlimit:10;stroke-dasharray:none;stroke-opacity:1"
         id="path60" /><path
         d="m 320.914,319.32 c 0,-1.156 -0.062,-2.281 -0.578,-3.343 -0.563,-1.157 -1.563,-1.469 -2.25,-1.469 -0.813,0 -1.797,0.406 -2.313,1.562 -0.39,0.875 -0.531,1.75 -0.531,3.25 0,1.36 0.094,2.375 0.594,3.36 0.547,1.062 1.5,1.406 2.234,1.406 1.219,0 1.907,-0.734 2.313,-1.531 0.5,-1.047 0.531,-2.422 0.531,-3.235 z m -2.844,4.485 c -0.453,0 -1.359,-0.25 -1.625,-1.782 -0.156,-0.828 -0.156,-1.89 -0.156,-2.859 0,-1.156 0,-2.187 0.234,-3 0.235,-0.937 0.938,-1.375 1.547,-1.375 0.532,0 1.344,0.328 1.61,1.516 0.172,0.797 0.172,1.906 0.172,2.859 0,0.922 0,1.984 -0.157,2.844 -0.265,1.531 -1.14,1.797 -1.625,1.797 z"
         style="fill:#000000;fill-opacity:1;fill-rule:nonzero;stroke:none"
         id="path62" /><path
         d="m 324.055,323.117 c 0,-0.406 -0.328,-0.687 -0.672,-0.687 -0.391,0 -0.672,0.343 -0.672,0.672 0,0.406 0.328,0.687 0.672,0.687 0.39,0 0.672,-0.328 0.672,-0.672 z"
         style="fill:#000000;fill-opacity:1;fill-rule:nonzero;stroke:none"
         id="path64" /><path
         d="m 327.004,318.93 c 0,-3.532 1.719,-4.078 2.469,-4.078 0.5,0 1,0.14 1.265,0.562 -0.172,0 -0.687,0 -0.687,0.578 0,0.297 0.203,0.563 0.562,0.563 0.344,0 0.594,-0.203 0.594,-0.61 0,-0.718 -0.531,-1.437 -1.75,-1.437 -1.766,0 -3.594,1.797 -3.594,4.875 0,3.828 1.672,4.703 2.86,4.703 1.515,0 2.812,-1.328 2.812,-3.141 0,-1.859 -1.297,-3.093 -2.687,-3.093 -1.25,0 -1.703,1.062 -1.844,1.453 z m 1.719,4.781 c -0.891,0 -1.297,-0.781 -1.422,-1.078 -0.125,-0.36 -0.266,-1.047 -0.266,-2.031 0,-1.094 0.5,-2.485 1.75,-2.485 0.766,0 1.172,0.516 1.391,1 0.219,0.516 0.219,1.219 0.219,1.813 0,0.703 0,1.343 -0.266,1.875 -0.344,0.656 -0.859,0.906 -1.406,0.906 z"
         style="fill:#000000;fill-opacity:1;fill-rule:nonzero;stroke:none"
         id="path66" /><path
         d="m 408.293,306.852 v 3.5"
         style="fill:none;stroke:#000000;stroke-width:0.8;stroke-linecap:butt;stroke-linejoin:round;stroke-miterlimit:10;stroke-dasharray:none;stroke-opacity:1"
         id="path68" /><path
         d="m 405.82,319.32 c 0,-1.156 -0.062,-2.281 -0.578,-3.343 -0.562,-1.157 -1.562,-1.469 -2.25,-1.469 -0.812,0 -1.797,0.406 -2.312,1.562 -0.391,0.875 -0.532,1.75 -0.532,3.25 0,1.36 0.094,2.375 0.594,3.36 0.547,1.062 1.5,1.406 2.235,1.406 1.218,0 1.906,-0.734 2.312,-1.531 0.5,-1.047 0.531,-2.422 0.531,-3.235 z m -2.843,4.485 c -0.454,0 -1.36,-0.25 -1.625,-1.782 -0.157,-0.828 -0.157,-1.89 -0.157,-2.859 0,-1.156 0,-2.187 0.235,-3 0.234,-0.937 0.937,-1.375 1.547,-1.375 0.531,0 1.343,0.328 1.609,1.516 0.172,0.797 0.172,1.906 0.172,2.859 0,0.922 0,1.984 -0.156,2.844 -0.266,1.531 -1.141,1.797 -1.625,1.797 z"
         style="fill:#000000;fill-opacity:1;fill-rule:nonzero;stroke:none"
         id="path70" /><path
         d="m 408.961,323.117 c 0,-0.406 -0.328,-0.687 -0.672,-0.687 -0.391,0 -0.672,0.343 -0.672,0.672 0,0.406 0.328,0.687 0.672,0.687 0.391,0 0.672,-0.328 0.672,-0.672 z"
         style="fill:#000000;fill-opacity:1;fill-rule:nonzero;stroke:none"
         id="path72" /><path
         d="m 414.348,318.758 c 0.703,-0.375 1.718,-1.031 1.718,-2.203 0,-1.203 -1.171,-2.047 -2.453,-2.047 -1.39,0 -2.468,1.015 -2.468,2.297 0,0.468 0.14,0.937 0.531,1.422 0.14,0.171 0.156,0.187 1.14,0.875 -1.359,0.625 -2.046,1.562 -2.046,2.578 0,1.484 1.406,2.406 2.828,2.406 1.547,0 2.843,-1.141 2.843,-2.609 0,-1.422 -1,-2.063 -2.093,-2.719 z m -1.891,-1.266 c -0.187,-0.125 -0.75,-0.484 -0.75,-1.172 0,-0.906 0.953,-1.468 1.891,-1.468 1,0 1.89,0.718 1.89,1.718 0,0.86 -0.609,1.547 -1.422,1.985 z m 0.656,1.797 1.688,1.109 c 0.359,0.235 1,0.672 1,1.516 0,1.063 -1.078,1.797 -2.188,1.797 -1.187,0 -2.203,-0.875 -2.203,-2.031 0,-1.078 0.797,-1.969 1.703,-2.391 z"
         style="fill:#000000;fill-opacity:1;fill-rule:nonzero;stroke:none"
         id="path74" /><path
         d="m 289.074,336.832 c -0.625,0.109 -0.875,0.594 -0.875,0.969 0,0.484 0.375,0.64 0.656,0.64 0.61,0 1.016,-0.515 1.016,-1.046 0,-0.844 -0.953,-1.219 -1.781,-1.219 -1.219,0 -1.906,1.187 -2.078,1.562 -0.453,-1.484 -1.688,-1.562 -2.047,-1.562 -2.031,0 -3.11,2.609 -3.11,3.047 0,0.078 0.079,0.172 0.219,0.172 0.156,0 0.203,-0.11 0.235,-0.188 0.671,-2.219 2.015,-2.641 2.593,-2.641 0.891,0 1.078,0.844 1.078,1.313 0,0.437 -0.125,0.906 -0.359,1.859 l -0.687,2.735 c -0.297,1.187 -0.875,2.281 -1.922,2.281 -0.11,0 -0.61,0 -1.016,-0.25 0.719,-0.141 0.875,-0.734 0.875,-0.984 0,-0.391 -0.297,-0.641 -0.687,-0.641 -0.469,0 -0.985,0.422 -0.985,1.062 0,0.844 0.938,1.219 1.781,1.219 0.969,0 1.641,-0.765 2.063,-1.578 0.312,1.172 1.312,1.578 2.047,1.578 2.031,0 3.109,-2.609 3.109,-3.047 0,-0.109 -0.078,-0.187 -0.203,-0.187 -0.172,0 -0.203,0.109 -0.25,0.265 -0.547,1.75 -1.703,2.563 -2.594,2.563 -0.703,0 -1.078,-0.516 -1.078,-1.328 0,-0.438 0.078,-0.766 0.406,-2.078 l 0.688,-2.703 c 0.297,-1.204 0.984,-2.079 1.891,-2.079 0.046,0 0.609,0 1.015,0.266 z"
         style="fill:#000000;fill-opacity:1;fill-rule:nonzero;stroke:none"
         id="path76" /><path
         d="m 77.16,306.852 h -3.5"
         style="fill:none;stroke:#000000;stroke-width:0.8;stroke-linecap:butt;stroke-linejoin:round;stroke-miterlimit:10;stroke-dasharray:none;stroke-opacity:1"
         id="path78" /><path
         d="m 44.223,308.617 c 0.25,0 0.5,0 0.5,-0.281 0,-0.281 -0.25,-0.281 -0.5,-0.281 h -7.547 c -0.235,0 -0.485,0 -0.485,0.281 0,0.281 0.25,0.281 0.485,0.281 z"
         style="fill:#000000;fill-opacity:1;fill-rule:nonzero;stroke:none"
         id="path80" /><path
         d="m 52.133,307.352 c 0,-1.157 -0.063,-2.282 -0.578,-3.344 -0.563,-1.156 -1.563,-1.469 -2.25,-1.469 -0.813,0 -1.797,0.406 -2.313,1.563 -0.39,0.875 -0.531,1.75 -0.531,3.25 0,1.359 0.094,2.375 0.594,3.359 0.547,1.062 1.5,1.406 2.234,1.406 1.219,0 1.906,-0.734 2.313,-1.531 0.5,-1.047 0.531,-2.422 0.531,-3.234 z m -2.844,4.484 c -0.453,0 -1.359,-0.25 -1.625,-1.781 -0.156,-0.828 -0.156,-1.891 -0.156,-2.86 0,-1.156 0,-2.187 0.234,-3 0.235,-0.937 0.938,-1.375 1.547,-1.375 0.531,0 1.344,0.328 1.609,1.516 0.172,0.797 0.172,1.906 0.172,2.859 0,0.922 0,1.985 -0.156,2.844 -0.266,1.531 -1.141,1.797 -1.625,1.797 z"
         style="fill:#000000;fill-opacity:1;fill-rule:nonzero;stroke:none"
         id="path82" /><path
         d="m 55.273,311.148 c 0,-0.406 -0.328,-0.687 -0.671,-0.687 -0.391,0 -0.672,0.344 -0.672,0.672 0,0.406 0.328,0.687 0.672,0.687 0.39,0 0.671,-0.328 0.671,-0.672 z"
         style="fill:#000000;fill-opacity:1;fill-rule:nonzero;stroke:none"
         id="path84" /><path
         d="m 62.754,307.352 c 0,-1.157 -0.063,-2.282 -0.578,-3.344 -0.563,-1.156 -1.563,-1.469 -2.25,-1.469 -0.813,0 -1.797,0.406 -2.313,1.563 -0.39,0.875 -0.531,1.75 -0.531,3.25 0,1.359 0.094,2.375 0.594,3.359 0.547,1.062 1.5,1.406 2.234,1.406 1.219,0 1.906,-0.734 2.313,-1.531 0.5,-1.047 0.531,-2.422 0.531,-3.234 z m -2.844,4.484 c -0.453,0 -1.359,-0.25 -1.625,-1.781 -0.156,-0.828 -0.156,-1.891 -0.156,-2.86 0,-1.156 0,-2.187 0.234,-3 0.235,-0.937 0.938,-1.375 1.547,-1.375 0.531,0 1.344,0.328 1.61,1.516 0.171,0.797 0.171,1.906 0.171,2.859 0,0.922 0,1.985 -0.156,2.844 -0.265,1.531 -1.14,1.797 -1.625,1.797 z"
         style="fill:#000000;fill-opacity:1;fill-rule:nonzero;stroke:none"
         id="path86" /><path
         d="m 69.465,309.477 h -0.313 c -0.031,0.234 -0.156,1 -0.281,1.234 -0.109,0.125 -0.906,0.125 -1.312,0.125 h -2.594 c 0.375,-0.328 1.234,-1.219 1.594,-1.563 2.125,-1.953 2.906,-2.671 2.906,-4.046 0,-1.61 -1.266,-2.688 -2.891,-2.688 -1.625,0 -2.562,1.391 -2.562,2.578 0,0.719 0.609,0.719 0.656,0.719 0.281,0 0.656,-0.203 0.656,-0.656 0,-0.391 -0.265,-0.657 -0.656,-0.657 -0.125,0 -0.156,0 -0.203,0.016 0.265,-0.953 1.015,-1.594 1.922,-1.594 1.187,0 1.922,0.985 1.922,2.282 0,1.187 -0.688,2.218 -1.485,3.109 l -2.812,3.156 v 0.328 h 5.093 z"
         style="fill:#000000;fill-opacity:1;fill-rule:nonzero;stroke:none"
         id="path88" /><path
         d="m 77.16,248.633 h -3.5"
         style="fill:none;stroke:#000000;stroke-width:0.8;stroke-linecap:butt;stroke-linejoin:round;stroke-miterlimit:10;stroke-dasharray:none;stroke-opacity:1"
         id="path90" /><path
         d="m 44.223,250.398 c 0.25,0 0.5,0 0.5,-0.281 0,-0.281 -0.25,-0.281 -0.5,-0.281 h -7.547 c -0.235,0 -0.485,0 -0.485,0.281 0,0.281 0.25,0.281 0.485,0.281 z"
         style="fill:#000000;fill-opacity:1;fill-rule:nonzero;stroke:none"
         id="path92" /><path
         d="m 52.133,249.133 c 0,-1.156 -0.063,-2.281 -0.578,-3.344 -0.563,-1.156 -1.563,-1.469 -2.25,-1.469 -0.813,0 -1.797,0.407 -2.313,1.563 -0.39,0.875 -0.531,1.75 -0.531,3.25 0,1.359 0.094,2.375 0.594,3.359 0.547,1.063 1.5,1.406 2.234,1.406 1.219,0 1.906,-0.734 2.313,-1.531 0.5,-1.047 0.531,-2.422 0.531,-3.234 z m -2.844,4.484 c -0.453,0 -1.359,-0.25 -1.625,-1.781 -0.156,-0.828 -0.156,-1.891 -0.156,-2.859 0,-1.157 0,-2.188 0.234,-3 0.235,-0.938 0.938,-1.375 1.547,-1.375 0.531,0 1.344,0.328 1.609,1.515 0.172,0.797 0.172,1.906 0.172,2.86 0,0.921 0,1.984 -0.156,2.843 -0.266,1.532 -1.141,1.797 -1.625,1.797 z"
         style="fill:#000000;fill-opacity:1;fill-rule:nonzero;stroke:none"
         id="path94" /><path
         d="m 55.273,252.93 c 0,-0.407 -0.328,-0.688 -0.671,-0.688 -0.391,0 -0.672,0.344 -0.672,0.672 0,0.406 0.328,0.688 0.672,0.688 0.39,0 0.671,-0.329 0.671,-0.672 z"
         style="fill:#000000;fill-opacity:1;fill-rule:nonzero;stroke:none"
         id="path96" /><path
         d="m 62.754,249.133 c 0,-1.156 -0.063,-2.281 -0.578,-3.344 -0.563,-1.156 -1.563,-1.469 -2.25,-1.469 -0.813,0 -1.797,0.407 -2.313,1.563 -0.39,0.875 -0.531,1.75 -0.531,3.25 0,1.359 0.094,2.375 0.594,3.359 0.547,1.063 1.5,1.406 2.234,1.406 1.219,0 1.906,-0.734 2.313,-1.531 0.5,-1.047 0.531,-2.422 0.531,-3.234 z m -2.844,4.484 c -0.453,0 -1.359,-0.25 -1.625,-1.781 -0.156,-0.828 -0.156,-1.891 -0.156,-2.859 0,-1.157 0,-2.188 0.234,-3 0.235,-0.938 0.938,-1.375 1.547,-1.375 0.531,0 1.344,0.328 1.61,1.515 0.171,0.797 0.171,1.906 0.171,2.86 0,0.921 0,1.984 -0.156,2.843 -0.265,1.532 -1.14,1.797 -1.625,1.797 z"
         style="fill:#000000;fill-opacity:1;fill-rule:nonzero;stroke:none"
         id="path98" /><path
         d="m 67.34,244.664 c 0,-0.328 0,-0.344 -0.281,-0.344 -0.329,0.375 -1.032,0.891 -2.469,0.891 v 0.406 c 0.328,0 1.015,0 1.797,-0.359 v 7.265 c 0,0.5 -0.047,0.672 -1.282,0.672 h -0.421 v 0.407 c 0.375,-0.032 1.718,-0.032 2.187,-0.032 0.453,0 1.797,0 2.172,0.032 v -0.407 h -0.438 c -1.218,0 -1.265,-0.172 -1.265,-0.672 z"
         style="fill:#000000;fill-opacity:1;fill-rule:nonzero;stroke:none"
         id="path100" /><path
         d="m 77.16,190.418 h -3.5"
         style="fill:none;stroke:#000000;stroke-width:0.8;stroke-linecap:butt;stroke-linejoin:round;stroke-miterlimit:10;stroke-dasharray:none;stroke-opacity:1"
         id="path102" /><path
         d="m 52.133,190.918 c 0,-1.156 -0.063,-2.281 -0.578,-3.344 -0.563,-1.156 -1.563,-1.469 -2.25,-1.469 -0.813,0 -1.797,0.407 -2.313,1.563 -0.39,0.875 -0.531,1.75 -0.531,3.25 0,1.359 0.094,2.375 0.594,3.359 0.547,1.063 1.5,1.407 2.234,1.407 1.219,0 1.906,-0.735 2.313,-1.532 0.5,-1.047 0.531,-2.422 0.531,-3.234 z m -2.844,4.484 c -0.453,0 -1.359,-0.25 -1.625,-1.781 -0.156,-0.828 -0.156,-1.891 -0.156,-2.859 0,-1.157 0,-2.188 0.234,-3 0.235,-0.938 0.938,-1.375 1.547,-1.375 0.531,0 1.344,0.328 1.609,1.515 0.172,0.797 0.172,1.907 0.172,2.86 0,0.922 0,1.984 -0.156,2.843 -0.266,1.532 -1.141,1.797 -1.625,1.797 z"
         style="fill:#000000;fill-opacity:1;fill-rule:nonzero;stroke:none"
         id="path104" /><path
         d="m 55.273,194.715 c 0,-0.406 -0.328,-0.688 -0.671,-0.688 -0.391,0 -0.672,0.344 -0.672,0.672 0,0.406 0.328,0.688 0.672,0.688 0.39,0 0.671,-0.328 0.671,-0.672 z"
         style="fill:#000000;fill-opacity:1;fill-rule:nonzero;stroke:none"
         id="path106" /><path
         d="m 62.754,190.918 c 0,-1.156 -0.063,-2.281 -0.578,-3.344 -0.563,-1.156 -1.563,-1.469 -2.25,-1.469 -0.813,0 -1.797,0.407 -2.313,1.563 -0.39,0.875 -0.531,1.75 -0.531,3.25 0,1.359 0.094,2.375 0.594,3.359 0.547,1.063 1.5,1.407 2.234,1.407 1.219,0 1.906,-0.735 2.313,-1.532 0.5,-1.047 0.531,-2.422 0.531,-3.234 z m -2.844,4.484 c -0.453,0 -1.359,-0.25 -1.625,-1.781 -0.156,-0.828 -0.156,-1.891 -0.156,-2.859 0,-1.157 0,-2.188 0.234,-3 0.235,-0.938 0.938,-1.375 1.547,-1.375 0.531,0 1.344,0.328 1.61,1.515 0.171,0.797 0.171,1.907 0.171,2.86 0,0.922 0,1.984 -0.156,2.843 -0.265,1.532 -1.14,1.797 -1.625,1.797 z"
         style="fill:#000000;fill-opacity:1;fill-rule:nonzero;stroke:none"
         id="path108" /><path
         d="m 69.574,190.918 c 0,-1.156 -0.062,-2.281 -0.578,-3.344 -0.562,-1.156 -1.562,-1.469 -2.25,-1.469 -0.812,0 -1.797,0.407 -2.312,1.563 -0.391,0.875 -0.532,1.75 -0.532,3.25 0,1.359 0.094,2.375 0.594,3.359 0.547,1.063 1.5,1.407 2.234,1.407 1.219,0 1.907,-0.735 2.313,-1.532 0.5,-1.047 0.531,-2.422 0.531,-3.234 z m -2.844,4.484 c -0.453,0 -1.359,-0.25 -1.625,-1.781 -0.156,-0.828 -0.156,-1.891 -0.156,-2.859 0,-1.157 0,-2.188 0.235,-3 0.234,-0.938 0.937,-1.375 1.546,-1.375 0.532,0 1.344,0.328 1.61,1.515 0.172,0.797 0.172,1.907 0.172,2.86 0,0.922 0,1.984 -0.157,2.843 -0.265,1.532 -1.14,1.797 -1.625,1.797 z"
         style="fill:#000000;fill-opacity:1;fill-rule:nonzero;stroke:none"
         id="path110" /><path
         d="m 77.16,132.203 h -3.5"
         style="fill:none;stroke:#000000;stroke-width:0.8;stroke-linecap:butt;stroke-linejoin:round;stroke-miterlimit:10;stroke-dasharray:none;stroke-opacity:1"
         id="path112" /><path
         d="m 52.133,132.703 c 0,-1.156 -0.063,-2.281 -0.578,-3.344 -0.563,-1.156 -1.563,-1.468 -2.25,-1.468 -0.813,0 -1.797,0.406 -2.313,1.562 -0.39,0.875 -0.531,1.75 -0.531,3.25 0,1.359 0.094,2.375 0.594,3.359 0.547,1.063 1.5,1.407 2.234,1.407 1.219,0 1.906,-0.735 2.313,-1.531 0.5,-1.047 0.531,-2.422 0.531,-3.235 z m -2.844,4.485 c -0.453,0 -1.359,-0.25 -1.625,-1.782 -0.156,-0.828 -0.156,-1.89 -0.156,-2.859 0,-1.156 0,-2.188 0.234,-3 0.235,-0.938 0.938,-1.375 1.547,-1.375 0.531,0 1.344,0.328 1.609,1.516 0.172,0.796 0.172,1.906 0.172,2.859 0,0.922 0,1.984 -0.156,2.844 -0.266,1.531 -1.141,1.797 -1.625,1.797 z"
         style="fill:#000000;fill-opacity:1;fill-rule:nonzero;stroke:none"
         id="path114" /><path
         d="m 55.273,136.5 c 0,-0.406 -0.328,-0.688 -0.671,-0.688 -0.391,0 -0.672,0.344 -0.672,0.672 0,0.407 0.328,0.688 0.672,0.688 0.39,0 0.671,-0.328 0.671,-0.672 z"
         style="fill:#000000;fill-opacity:1;fill-rule:nonzero;stroke:none"
         id="path116" /><path
         d="m 62.754,132.703 c 0,-1.156 -0.063,-2.281 -0.578,-3.344 -0.563,-1.156 -1.563,-1.468 -2.25,-1.468 -0.813,0 -1.797,0.406 -2.313,1.562 -0.39,0.875 -0.531,1.75 -0.531,3.25 0,1.359 0.094,2.375 0.594,3.359 0.547,1.063 1.5,1.407 2.234,1.407 1.219,0 1.906,-0.735 2.313,-1.531 0.5,-1.047 0.531,-2.422 0.531,-3.235 z m -2.844,4.485 c -0.453,0 -1.359,-0.25 -1.625,-1.782 -0.156,-0.828 -0.156,-1.89 -0.156,-2.859 0,-1.156 0,-2.188 0.234,-3 0.235,-0.938 0.938,-1.375 1.547,-1.375 0.531,0 1.344,0.328 1.61,1.516 0.171,0.796 0.171,1.906 0.171,2.859 0,0.922 0,1.984 -0.156,2.844 -0.265,1.531 -1.14,1.797 -1.625,1.797 z"
         style="fill:#000000;fill-opacity:1;fill-rule:nonzero;stroke:none"
         id="path118" /><path
         d="m 67.34,128.234 c 0,-0.328 0,-0.343 -0.281,-0.343 -0.329,0.375 -1.032,0.89 -2.469,0.89 v 0.407 c 0.328,0 1.015,0 1.797,-0.36 v 7.266 c 0,0.5 -0.047,0.672 -1.282,0.672 h -0.421 v 0.406 c 0.375,-0.031 1.718,-0.031 2.187,-0.031 0.453,0 1.797,0 2.172,0.031 v -0.406 h -0.438 c -1.218,0 -1.265,-0.172 -1.265,-0.672 z"
         style="fill:#000000;fill-opacity:1;fill-rule:nonzero;stroke:none"
         id="path120" /><path
         d="m 77.16,73.984 h -3.5"
         style="fill:none;stroke:#000000;stroke-width:0.8;stroke-linecap:butt;stroke-linejoin:round;stroke-miterlimit:10;stroke-dasharray:none;stroke-opacity:1"
         id="path122" /><path
         d="m 52.133,74.484 c 0,-1.156 -0.063,-2.281 -0.578,-3.343 -0.563,-1.157 -1.563,-1.469 -2.25,-1.469 -0.813,0 -1.797,0.406 -2.313,1.562 -0.39,0.875 -0.531,1.75 -0.531,3.25 0,1.36 0.094,2.375 0.594,3.36 0.547,1.062 1.5,1.406 2.234,1.406 1.219,0 1.906,-0.734 2.313,-1.531 0.5,-1.047 0.531,-2.422 0.531,-3.235 z m -2.844,4.485 c -0.453,0 -1.359,-0.25 -1.625,-1.781 -0.156,-0.829 -0.156,-1.891 -0.156,-2.86 0,-1.156 0,-2.187 0.234,-3 0.235,-0.937 0.938,-1.375 1.547,-1.375 0.531,0 1.344,0.328 1.609,1.516 0.172,0.797 0.172,1.906 0.172,2.859 0,0.922 0,1.984 -0.156,2.844 -0.266,1.531 -1.141,1.797 -1.625,1.797 z"
         style="fill:#000000;fill-opacity:1;fill-rule:nonzero;stroke:none"
         id="path124" /><path
         d="m 55.273,78.281 c 0,-0.406 -0.328,-0.687 -0.671,-0.687 -0.391,0 -0.672,0.344 -0.672,0.672 0,0.406 0.328,0.687 0.672,0.687 0.39,0 0.671,-0.328 0.671,-0.672 z"
         style="fill:#000000;fill-opacity:1;fill-rule:nonzero;stroke:none"
         id="path126" /><path
         d="m 62.754,74.484 c 0,-1.156 -0.063,-2.281 -0.578,-3.343 -0.563,-1.157 -1.563,-1.469 -2.25,-1.469 -0.813,0 -1.797,0.406 -2.313,1.562 -0.39,0.875 -0.531,1.75 -0.531,3.25 0,1.36 0.094,2.375 0.594,3.36 0.547,1.062 1.5,1.406 2.234,1.406 1.219,0 1.906,-0.734 2.313,-1.531 0.5,-1.047 0.531,-2.422 0.531,-3.235 z m -2.844,4.485 c -0.453,0 -1.359,-0.25 -1.625,-1.781 -0.156,-0.829 -0.156,-1.891 -0.156,-2.86 0,-1.156 0,-2.187 0.234,-3 0.235,-0.937 0.938,-1.375 1.547,-1.375 0.531,0 1.344,0.328 1.61,1.516 0.171,0.797 0.171,1.906 0.171,2.859 0,0.922 0,1.984 -0.156,2.844 -0.265,1.531 -1.14,1.797 -1.625,1.797 z"
         style="fill:#000000;fill-opacity:1;fill-rule:nonzero;stroke:none"
         id="path128" /><path
         d="m 69.465,76.609 h -0.313 c -0.031,0.235 -0.156,1 -0.281,1.235 -0.109,0.125 -0.906,0.125 -1.312,0.125 h -2.594 c 0.375,-0.328 1.234,-1.219 1.594,-1.563 2.125,-1.953 2.906,-2.672 2.906,-4.047 0,-1.609 -1.266,-2.687 -2.891,-2.687 -1.625,0 -2.562,1.39 -2.562,2.578 0,0.719 0.609,0.719 0.656,0.719 0.281,0 0.656,-0.203 0.656,-0.657 0,-0.39 -0.265,-0.656 -0.656,-0.656 -0.125,0 -0.156,0 -0.203,0.016 0.265,-0.953 1.015,-1.594 1.922,-1.594 1.187,0 1.922,0.984 1.922,2.281 0,1.188 -0.688,2.219 -1.485,3.11 l -2.812,3.156 v 0.328 h 5.093 z"
         style="fill:#000000;fill-opacity:1;fill-rule:nonzero;stroke:none"
         id="path130" /><path
         d="m 77.16,15.77 h -3.5"
         style="fill:none;stroke:#000000;stroke-width:0.8;stroke-linecap:butt;stroke-linejoin:round;stroke-miterlimit:10;stroke-dasharray:none;stroke-opacity:1"
         id="path132" /><path
         d="m 52.133,16.27 c 0,-1.157 -0.063,-2.282 -0.578,-3.344 -0.563,-1.156 -1.563,-1.469 -2.25,-1.469 -0.813,0 -1.797,0.406 -2.313,1.563 -0.39,0.875 -0.531,1.75 -0.531,3.25 0,1.359 0.094,2.375 0.594,3.359 0.547,1.062 1.5,1.406 2.234,1.406 1.219,0 1.906,-0.734 2.313,-1.531 0.5,-1.047 0.531,-2.422 0.531,-3.234 z m -2.844,4.484 c -0.453,0 -1.359,-0.25 -1.625,-1.781 -0.156,-0.828 -0.156,-1.891 -0.156,-2.86 0,-1.156 0,-2.187 0.234,-3 0.235,-0.937 0.938,-1.375 1.547,-1.375 0.531,0 1.344,0.328 1.609,1.516 0.172,0.797 0.172,1.906 0.172,2.859 0,0.922 0,1.985 -0.156,2.844 -0.266,1.531 -1.141,1.797 -1.625,1.797 z"
         style="fill:#000000;fill-opacity:1;fill-rule:nonzero;stroke:none"
         id="path134" /><path
         d="m 55.273,20.066 c 0,-0.406 -0.328,-0.687 -0.671,-0.687 -0.391,0 -0.672,0.344 -0.672,0.672 0,0.406 0.328,0.687 0.672,0.687 0.39,0 0.671,-0.328 0.671,-0.672 z"
         style="fill:#000000;fill-opacity:1;fill-rule:nonzero;stroke:none"
         id="path136" /><path
         d="m 62.754,16.27 c 0,-1.157 -0.063,-2.282 -0.578,-3.344 -0.563,-1.156 -1.563,-1.469 -2.25,-1.469 -0.813,0 -1.797,0.406 -2.313,1.563 -0.39,0.875 -0.531,1.75 -0.531,3.25 0,1.359 0.094,2.375 0.594,3.359 0.547,1.062 1.5,1.406 2.234,1.406 1.219,0 1.906,-0.734 2.313,-1.531 0.5,-1.047 0.531,-2.422 0.531,-3.234 z m -2.844,4.484 c -0.453,0 -1.359,-0.25 -1.625,-1.781 -0.156,-0.828 -0.156,-1.891 -0.156,-2.86 0,-1.156 0,-2.187 0.234,-3 0.235,-0.937 0.938,-1.375 1.547,-1.375 0.531,0 1.344,0.328 1.61,1.516 0.171,0.797 0.171,1.906 0.171,2.859 0,0.922 0,1.985 -0.156,2.844 -0.265,1.531 -1.14,1.797 -1.625,1.797 z"
         style="fill:#000000;fill-opacity:1;fill-rule:nonzero;stroke:none"
         id="path138" /><path
         d="m 65.887,15.723 c -0.235,0.015 -0.282,0.031 -0.282,0.156 0,0.141 0.063,0.141 0.313,0.141 h 0.641 c 1.187,0 1.718,0.984 1.718,2.312 0,1.828 -0.953,2.328 -1.625,2.328 -0.672,0 -1.828,-0.328 -2.218,-1.25 0.437,0.078 0.843,-0.172 0.843,-0.687 0,-0.391 -0.297,-0.672 -0.687,-0.672 -0.328,0 -0.688,0.187 -0.688,0.719 0,1.25 1.235,2.265 2.782,2.265 1.656,0 2.89,-1.281 2.89,-2.687 0,-1.282 -1.031,-2.282 -2.375,-2.516 1.219,-0.359 2,-1.375 2,-2.469 0,-1.093 -1.14,-1.906 -2.5,-1.906 -1.39,0 -2.422,0.859 -2.422,1.875 0,0.563 0.422,0.672 0.641,0.672 0.297,0 0.625,-0.219 0.625,-0.641 0,-0.437 -0.328,-0.64 -0.641,-0.64 -0.078,0 -0.109,0 -0.156,0.015 0.531,-0.937 1.844,-0.937 1.906,-0.937 0.469,0 1.375,0.203 1.375,1.562 0,0.266 -0.047,1.047 -0.453,1.657 -0.406,0.609 -0.89,0.656 -1.265,0.671 z"
         style="fill:#000000;fill-opacity:1;fill-rule:nonzero;stroke:none"
         id="path140" /><path
         d="m 17.945,179.773 c 0.11,0.625 0.594,0.875 0.969,0.875 0.484,0 0.641,-0.375 0.641,-0.656 0,-0.609 -0.516,-1.015 -1.047,-1.015 -0.844,0 -1.219,0.953 -1.219,1.781 0,1.219 1.188,1.906 1.563,2.078 -1.485,0.453 -1.563,1.687 -1.563,2.047 0,2.031 2.609,3.109 3.047,3.109 0.078,0 0.172,-0.078 0.172,-0.219 0,-0.156 -0.11,-0.203 -0.188,-0.234 -2.218,-0.672 -2.64,-2.016 -2.64,-2.594 0,-0.89 0.843,-1.078 1.312,-1.078 0.438,0 0.906,0.125 1.86,0.36 l 2.734,0.687 c 1.187,0.297 2.281,0.875 2.281,1.922 0,0.109 0,0.609 -0.25,1.016 -0.14,-0.719 -0.734,-0.875 -0.984,-0.875 -0.391,0 -0.641,0.296 -0.641,0.687 0,0.469 0.422,0.984 1.063,0.984 0.843,0 1.218,-0.937 1.218,-1.781 0,-0.969 -0.765,-1.64 -1.578,-2.062 1.172,-0.313 1.578,-1.313 1.578,-2.047 0,-2.031 -2.609,-3.11 -3.046,-3.11 -0.11,0 -0.188,0.079 -0.188,0.204 0,0.171 0.109,0.203 0.266,0.25 1.75,0.546 2.562,1.703 2.562,2.593 0,0.703 -0.515,1.078 -1.328,1.078 -0.437,0 -0.766,-0.078 -2.078,-0.406 l -2.703,-0.687 c -1.203,-0.297 -2.078,-0.985 -2.078,-1.891 0,-0.047 0,-0.609 0.265,-1.016 z"
         style="fill:#000000;fill-opacity:1;fill-rule:nonzero;stroke:none"
         id="path142" /><path
         d="m 18.586,170.336 c 0,0.391 0,0.562 0.234,0.844 0.094,0.125 0.391,0.343 0.719,0.343 0.391,0 0.641,-0.296 0.641,-0.687 0,-0.469 -0.407,-1.016 -1.203,-1.016 -0.954,0 -1.688,0.922 -1.688,2.297 0,2.61 2.844,5.219 5.672,5.219 1.734,0 3.312,-1.078 3.312,-3.109 0,-2.704 -2.109,-4.422 -2.375,-4.422 -0.125,0 -0.218,0.125 -0.218,0.203 0,0.062 0.015,0.078 0.203,0.25 1.687,1.281 1.984,3.172 1.984,3.937 0,1.375 -1.187,1.813 -2.187,1.813 -0.703,0 -2.625,-0.344 -3.985,-1.063 -0.937,-0.515 -2.015,-1.593 -2.015,-2.843 0,-0.266 0.047,-1.36 0.906,-1.766 z"
         style="fill:#000000;fill-opacity:1;fill-rule:nonzero;stroke:none"
         id="path144" /><path
         d="m 15.621,164.164 v -3.859 c 0,-0.188 0,-0.438 -0.25,-0.438 -0.266,0 -0.266,0.235 -0.266,0.438 v 3.859 h -3.859 c -0.187,0 -0.437,0 -0.437,0.25 0,0.266 0.234,0.266 0.437,0.266 h 3.859 v 3.843 c 0,0.204 0,0.454 0.25,0.454 0.266,0 0.266,-0.235 0.266,-0.454 v -3.843 h 3.844 c 0.203,0 0.453,0 0.453,-0.25 0,-0.266 -0.234,-0.266 -0.453,-0.266 z"
         style="fill:#000000;fill-opacity:1;fill-rule:nonzero;stroke:none"
         id="path146" /><path
         d="m 30.93,152.516 c -0.016,0 -0.063,0 -0.125,0.062 -0.922,0.906 -3.485,3.36 -9.688,3.36 -6.219,0 -8.75,-2.407 -9.75,-3.391 -0.015,0 -0.062,-0.031 -0.125,-0.031 -0.047,0 -0.094,0.062 -0.094,0.14 0,0.219 1.469,1.906 3.672,2.891 2.203,0.984 4.36,1.265 6.266,1.265 1.437,0 3.875,-0.14 6.437,-1.328 2.079,-0.953 3.532,-2.593 3.532,-2.828 0,-0.109 -0.047,-0.14 -0.125,-0.14 z"
         style="fill:#000000;fill-opacity:1;fill-rule:nonzero;stroke:none"
         id="path148" /><path
         d="m 17.945,142.113 c 0.11,0.625 0.594,0.875 0.969,0.875 0.484,0 0.641,-0.375 0.641,-0.656 0,-0.609 -0.516,-1.016 -1.047,-1.016 -0.844,0 -1.219,0.954 -1.219,1.782 0,1.218 1.188,1.906 1.563,2.078 -1.485,0.453 -1.563,1.687 -1.563,2.047 0,2.031 2.609,3.109 3.047,3.109 0.078,0 0.172,-0.078 0.172,-0.219 0,-0.156 -0.11,-0.203 -0.188,-0.234 -2.218,-0.672 -2.64,-2.016 -2.64,-2.594 0,-0.89 0.843,-1.078 1.312,-1.078 0.438,0 0.906,0.125 1.86,0.359 l 2.734,0.688 c 1.187,0.297 2.281,0.875 2.281,1.922 0,0.109 0,0.609 -0.25,1.015 -0.14,-0.718 -0.734,-0.875 -0.984,-0.875 -0.391,0 -0.641,0.297 -0.641,0.688 0,0.469 0.422,0.984 1.063,0.984 0.843,0 1.218,-0.937 1.218,-1.781 0,-0.969 -0.765,-1.641 -1.578,-2.062 1.172,-0.313 1.578,-1.313 1.578,-2.047 0,-2.032 -2.609,-3.11 -3.046,-3.11 -0.11,0 -0.188,0.078 -0.188,0.203 0,0.172 0.109,0.204 0.266,0.25 1.75,0.547 2.562,1.704 2.562,2.594 0,0.703 -0.515,1.078 -1.328,1.078 -0.437,0 -0.766,-0.078 -2.078,-0.406 l -2.703,-0.687 c -1.203,-0.297 -2.078,-0.985 -2.078,-1.891 0,-0.047 0,-0.609 0.265,-1.016 z"
         style="fill:#000000;fill-opacity:1;fill-rule:nonzero;stroke:none"
         id="path150" /><path
         d="m 21.117,135.23 c -1.437,0 -3.875,0.141 -6.437,1.329 -2.078,0.953 -3.532,2.593 -3.532,2.828 0,0.062 0.016,0.14 0.125,0.14 0.032,0 0.063,-0.015 0.094,-0.031 1,-0.969 3.531,-3.391 9.719,-3.391 6.219,0 8.75,2.407 9.75,3.391 0.031,0.016 0.062,0.031 0.094,0.031 0.093,0 0.125,-0.078 0.125,-0.14 0,-0.219 -1.485,-1.907 -3.672,-2.891 -2.203,-0.984 -4.36,-1.266 -6.266,-1.266 z"
         style="fill:#000000;fill-opacity:1;fill-rule:nonzero;stroke:none"
         id="path152" /></g><g
       id="g154"><g
         id="g156"
         clip-path="url(#clipPath160)"><g
           id="g162"><g
             id="g164"><g
               id="g166"
               clip-path="url(#clipPath170)"><g
                 id="g172"><path
                   d="M 68.676,190.418 H 493.199"
                   style="fill:none;stroke:#000000;stroke-width:0.5;stroke-linecap:butt;stroke-linejoin:round;stroke-miterlimit:10;stroke-dasharray:0.5, 0.825;stroke-dashoffset:0;stroke-opacity:1"
                   id="path174" /></g></g></g></g></g></g><g
       id="g176"><g
         id="g178"
         clip-path="url(#clipPath182)"><g
           id="g184"><g
             id="g186"><g
               id="g188"
               clip-path="url(#clipPath192)"><g
                 id="g194"><path
                   d="m 70.016,-1 0.082,17.609 0.39,60.27 0.5,54.297 0.633,47.457 0.813,40.004 1.031,32.289 1.312,24.644 1.676,17.325 2.133,10.488 2.723,4.258 3.464,-1.395 4.415,-6.672 5.628,-12.023 7.172,-17.969 9.137,-24.727 13.176,-35.527 13.172,-31.558 13.175,-24.926 13.176,-18.055 13.176,-12.461 13.176,-8.582 13.172,-6.109 13.175,-4.371 13.176,-3.274 13.176,-2.328 13.176,-0.121 13.172,1.535 13.175,2.844 13.176,5.031 13.176,7.137 13.176,8.008 13.176,7.964 13.171,7.829 13.176,7.793 13.176,6.933 13.176,5.762 13.176,6.754 13.171,6.445 13.176,3.754 13.176,2.738 13.176,2.481 13.176,2.789 13.171,1.988 13.176,5.09"
                   style="fill:none;stroke:#1e75b3;stroke-width:1;stroke-linecap:square;stroke-linejoin:round;stroke-miterlimit:10;stroke-dasharray:none;stroke-opacity:1"
                   id="path196" /></g></g></g></g></g></g><g
       id="g198"><g
         id="g200"
         clip-path="url(#clipPath204)"><g
           id="g206"><g
             id="g208"><g
               id="g210"
               clip-path="url(#clipPath214)"><g
                 id="g216"><path
                   d="m 69.098,190.418 h 0.691 l 0.309,-0.004 h 0.39 l 0.5,-0.008 0.633,-0.008 0.813,-0.023 1.031,-0.043 1.312,-0.082 1.676,-0.16 2.133,-0.305 2.723,-0.574 3.464,-1.051 4.415,-1.887 5.628,-3.281 7.172,-5.469 9.137,-8.668 13.176,-14.55 13.172,-15.176 13.175,-14.082 13.176,-11.738 13.176,-8.606 13.176,-5.113 13.172,-1.629 13.175,1.594 13.176,4.355 13.176,6.551 13.176,8.113 13.172,9.067 13.175,9.441 13.176,9.316 13.176,8.782 13.176,7.945 13.176,6.906 13.171,5.766 13.176,4.613 13.176,3.528 13.176,2.554 13.176,1.735 13.171,1.093 13.176,0.621 13.176,0.309 13.176,0.125 13.176,0.035 13.171,0.008 h 13.176"
                   style="fill:none;stroke:#ff7d0c;stroke-width:2;stroke-linecap:butt;stroke-linejoin:round;stroke-miterlimit:10;stroke-dasharray:2, 3.3;stroke-dashoffset:0;stroke-opacity:1"
                   id="path218" /></g></g></g></g></g></g><g
       id="g220"><g
         id="g222"
         clip-path="url(#clipPath226)"><g
           id="g228"><g
             id="g230"><g
               id="g232"
               clip-path="url(#clipPath236)"><g
                 id="g238"><path
                   d="m 69.098,190.418 h 4.367 l 1.312,-0.004 1.676,-0.004 2.133,-0.008 2.723,-0.027 3.464,-0.059 4.415,-0.144 5.628,-0.336 7.172,-0.762 9.137,-1.683 13.176,-4.153 13.172,-6.398 13.175,-8.551 L 163.824,158 177,146.637 l 13.176,-11.625 13.172,-11.028 13.175,-9.601 13.176,-7.488 13.176,-4.852 13.176,-1.914 13.172,1.082 13.175,3.922 13.176,6.402 13.176,8.36 13.176,9.683 13.176,10.336 13.171,10.32 13.176,9.7 13.176,8.605 13.176,7.18 13.176,5.593 13.171,4.02 13.176,2.613 13.176,1.489 13.176,0.695 13.176,0.242 13.171,0.047 h 13.176"
                   style="fill:none;stroke:#2b9e2b;stroke-width:2;stroke-linecap:butt;stroke-linejoin:round;stroke-miterlimit:10;stroke-dasharray:12.8, 3.2, 2, 3.2;stroke-dashoffset:0;stroke-opacity:1"
                   id="path240" /></g></g></g></g></g></g><g
       id="g242"><path
         d="M 77.16,306.852 V 15.77"
         style="fill:none;stroke:#000000;stroke-width:0.8;stroke-linecap:square;stroke-linejoin:miter;stroke-miterlimit:10;stroke-dasharray:none;stroke-opacity:1"
         id="path244" /><path
         d="M 493.199,306.852 V 15.77"
         style="fill:none;stroke:#000000;stroke-width:0.8;stroke-linecap:square;stroke-linejoin:miter;stroke-miterlimit:10;stroke-dasharray:none;stroke-opacity:1"
         id="path246" /><path
         d="M 77.16,306.852 H 493.199"
         style="fill:none;stroke:#000000;stroke-width:0.8;stroke-linecap:square;stroke-linejoin:miter;stroke-miterlimit:10;stroke-dasharray:none;stroke-opacity:1"
         id="path248" /><path
         d="M 77.16,15.77 H 493.199"
         style="fill:none;stroke:#000000;stroke-width:0.8;stroke-linecap:square;stroke-linejoin:miter;stroke-miterlimit:10;stroke-dasharray:none;stroke-opacity:1"
         id="path250" /><path
         d="m 156.32,299.852 h 327.078 c 1.868,0 2.801,-0.934 2.801,-2.801 v -60.403 c 0,-1.867 -0.933,-2.8 -2.801,-2.8 H 156.32 c -1.867,0 -2.8,0.933 -2.8,2.8 v 60.403 c 0,1.867 0.933,2.801 2.8,2.801 z"
         style="fill:#ffffff;fill-opacity:0.8;fill-rule:nonzero;stroke:none"
         id="path252" /><path
         d="m 156.32,299.852 h 327.078 c 1.868,0 2.801,-0.934 2.801,-2.801 v -60.403 c 0,-1.867 -0.933,-2.8 -2.801,-2.8 H 156.32 c -1.867,0 -2.8,0.933 -2.8,2.8 v 60.403 c 0,1.867 0.933,2.801 2.8,2.801 z"
         style="fill:none;stroke:#cacaca;stroke-width:1;stroke-linecap:butt;stroke-linejoin:miter;stroke-miterlimit:10;stroke-dasharray:none;stroke-opacity:0.8"
         id="path254" /><path
         d="m 159.117,245.008 h 28"
         style="fill:none;stroke:#1e75b3;stroke-width:1;stroke-linecap:square;stroke-linejoin:round;stroke-miterlimit:10;stroke-dasharray:none;stroke-opacity:1"
         id="path256" /><path
         d="m 201.352,241.438 c 0,-0.516 0.031,-0.657 1.078,-0.657 h 0.312 v -0.406 c -0.328,0.031 -1.531,0.031 -1.953,0.031 -0.422,0 -1.625,0 -1.969,-0.031 v 0.406 h 0.313 c 1.047,0 1.078,0.141 1.078,0.657 v 7.406 c 0,0.515 -0.031,0.656 -1.078,0.656 h -0.313 v 0.406 c 0.344,-0.031 1.532,-0.031 1.953,-0.031 0.422,0 1.641,0 1.969,0.031 V 249.5 h -0.312 c -1.047,0 -1.078,-0.141 -1.078,-0.656 z"
         style="fill:#000000;fill-opacity:1;fill-rule:nonzero;stroke:none"
         id="path258" /><path
         d="m 209.445,246.516 c 0,-1.297 0,-1.688 -0.312,-2.141 -0.406,-0.531 -1.063,-0.625 -1.531,-0.625 -1.36,0 -1.891,1.156 -2,1.438 h -0.016 v -1.438 l -1.891,0.156 v 0.406 c 0.938,0 1.047,0.094 1.047,0.782 v 3.781 c 0,0.625 -0.14,0.625 -1.047,0.625 v 0.406 c 0.36,-0.031 1.11,-0.031 1.5,-0.031 0.407,0 1.157,0 1.516,0.031 V 249.5 c -0.891,0 -1.063,0 -1.063,-0.625 v -2.594 c 0,-1.469 0.969,-2.25 1.829,-2.25 0.875,0 1.062,0.719 1.062,1.563 v 3.281 c 0,0.625 -0.141,0.625 -1.062,0.625 v 0.406 c 0.375,-0.031 1.125,-0.031 1.515,-0.031 0.406,0 1.156,0 1.516,0.031 V 249.5 c -0.688,0 -1.047,0 -1.063,-0.422 z"
         style="fill:#000000;fill-opacity:1;fill-rule:nonzero;stroke:none"
         id="path260" /><path
         d="m 212.781,244.297 h 1.969 v -0.406 h -1.969 v -2.563 h -0.312 c -0.016,1.313 -0.516,2.641 -1.781,2.688 v 0.281 h 1.187 v 3.875 c 0,1.547 1.031,1.875 1.766,1.875 0.89,0 1.343,-0.859 1.343,-1.875 v -0.797 h -0.312 v 0.766 c 0,1.015 -0.391,1.593 -0.938,1.593 -0.953,0 -0.953,-1.296 -0.953,-1.531 z"
         style="fill:#000000;fill-opacity:1;fill-rule:nonzero;stroke:none"
         id="path262" /><path
         d="m 218.066,246.656 c 0,-1.359 0.563,-2.625 1.641,-2.625 0.109,0 0.141,0 0.188,0.016 -0.11,0.062 -0.329,0.141 -0.329,0.515 0,0.407 0.313,0.563 0.547,0.563 0.266,0 0.547,-0.187 0.547,-0.563 0,-0.421 -0.375,-0.812 -0.969,-0.812 -1.187,0 -1.593,1.281 -1.671,1.547 h -0.016 v -1.547 l -1.875,0.156 v 0.406 c 0.953,0 1.062,0.094 1.062,0.782 v 3.781 c 0,0.625 -0.156,0.625 -1.062,0.625 v 0.406 c 0.391,-0.031 1.156,-0.031 1.578,-0.031 0.375,0 1.359,0 1.688,0.031 V 249.5 h -0.282 c -1.015,0 -1.047,-0.156 -1.047,-0.656 z"
         style="fill:#000000;fill-opacity:1;fill-rule:nonzero;stroke:none"
         id="path264" /><path
         d="m 223.457,241.312 c 0,-0.359 -0.281,-0.687 -0.672,-0.687 -0.375,0 -0.672,0.297 -0.672,0.672 0,0.422 0.328,0.687 0.672,0.687 0.422,0 0.672,-0.359 0.672,-0.672 z m -1.922,2.594 v 0.406 c 0.891,0 1.016,0.079 1.016,0.766 v 3.797 c 0,0.625 -0.141,0.625 -1.063,0.625 v 0.406 c 0.391,-0.031 1.063,-0.031 1.469,-0.031 0.156,0 0.969,0 1.438,0.031 V 249.5 c -0.907,0 -0.954,-0.062 -0.954,-0.609 v -5.141 z"
         style="fill:#000000;fill-opacity:1;fill-rule:nonzero;stroke:none"
         id="path266" /><path
         d="m 231.02,246.516 c 0,-1.297 0,-1.688 -0.313,-2.141 -0.406,-0.531 -1.062,-0.625 -1.531,-0.625 -1.36,0 -1.891,1.156 -2,1.438 h -0.016 v -1.438 l -1.89,0.156 v 0.406 c 0.937,0 1.046,0.094 1.046,0.782 v 3.781 c 0,0.625 -0.14,0.625 -1.046,0.625 v 0.406 c 0.359,-0.031 1.109,-0.031 1.5,-0.031 0.406,0 1.156,0 1.515,0.031 V 249.5 c -0.89,0 -1.062,0 -1.062,-0.625 v -2.594 c 0,-1.469 0.968,-2.25 1.828,-2.25 0.875,0 1.062,0.719 1.062,1.563 v 3.281 c 0,0.625 -0.14,0.625 -1.062,0.625 v 0.406 c 0.375,-0.031 1.125,-0.031 1.515,-0.031 0.407,0 1.157,0 1.516,0.031 V 249.5 c -0.687,0 -1.047,0 -1.062,-0.422 z"
         style="fill:#000000;fill-opacity:1;fill-rule:nonzero;stroke:none"
         id="path268" /><path
         d="m 236.969,244 c 0,-0.25 0,-0.312 -0.141,-0.312 -0.109,0 -0.375,0.296 -0.469,0.421 -0.437,-0.343 -0.875,-0.421 -1.312,-0.421 -1.688,0 -2.203,0.921 -2.203,1.687 0,0.156 0,0.641 0.531,1.125 0.453,0.391 0.922,0.484 1.563,0.609 0.781,0.157 0.953,0.203 1.296,0.485 0.266,0.203 0.438,0.515 0.438,0.906 0,0.594 -0.344,1.266 -1.578,1.266 -0.922,0 -1.594,-0.532 -1.891,-1.922 -0.062,-0.25 -0.062,-0.266 -0.078,-0.282 -0.016,-0.062 -0.078,-0.062 -0.125,-0.062 -0.156,0 -0.156,0.078 -0.156,0.328 v 1.891 c 0,0.25 0,0.328 0.14,0.328 0.078,0 0.094,-0.016 0.328,-0.313 0.063,-0.093 0.063,-0.125 0.282,-0.343 0.531,0.656 1.281,0.656 1.515,0.656 1.469,0 2.188,-0.813 2.188,-1.906 0,-0.766 -0.453,-1.203 -0.578,-1.329 -0.5,-0.437 -0.875,-0.515 -1.797,-0.687 -0.422,-0.078 -1.438,-0.281 -1.438,-1.109 0,-0.438 0.282,-1.078 1.547,-1.078 1.516,0 1.594,1.296 1.625,1.734 0.016,0.109 0.11,0.109 0.156,0.109 0.157,0 0.157,-0.078 0.157,-0.328 z"
         style="fill:#000000;fill-opacity:1;fill-rule:nonzero;stroke:none"
         id="path270" /><path
         d="m 240.195,241.312 c 0,-0.359 -0.281,-0.687 -0.672,-0.687 -0.375,0 -0.671,0.297 -0.671,0.672 0,0.422 0.328,0.687 0.671,0.687 0.422,0 0.672,-0.359 0.672,-0.672 z m -1.922,2.594 v 0.406 c 0.891,0 1.016,0.079 1.016,0.766 v 3.797 c 0,0.625 -0.141,0.625 -1.062,0.625 v 0.406 c 0.39,-0.031 1.062,-0.031 1.468,-0.031 0.157,0 0.969,0 1.438,0.031 V 249.5 c -0.906,0 -0.953,-0.062 -0.953,-0.609 v -5.141 z"
         style="fill:#000000;fill-opacity:1;fill-rule:nonzero;stroke:none"
         id="path272" /><path
         d="m 246.602,244.75 c -0.157,0 -0.672,0 -0.672,0.562 0,0.344 0.234,0.579 0.562,0.579 0.328,0 0.594,-0.203 0.594,-0.61 0,-0.922 -0.984,-1.593 -2.109,-1.593 -1.641,0 -2.938,1.453 -2.938,3.203 0,1.781 1.344,3.156 2.922,3.156 1.844,0 2.266,-1.672 2.266,-1.797 0,-0.125 -0.11,-0.125 -0.141,-0.125 -0.125,0 -0.141,0.031 -0.188,0.203 -0.312,0.984 -1.062,1.406 -1.812,1.406 -0.859,0 -1.984,-0.734 -1.984,-2.859 0,-2.313 1.187,-2.891 1.89,-2.891 0.531,0 1.297,0.219 1.61,0.766 z"
         style="fill:#000000;fill-opacity:1;fill-rule:nonzero;stroke:none"
         id="path274" /><path
         d="m 261.266,240.406 c 0,-0.25 0,-0.328 -0.141,-0.328 -0.078,0 -0.094,0.031 -0.172,0.172 l -0.687,1.109 c -0.625,-0.781 -1.578,-1.281 -2.578,-1.281 -2.563,0 -4.766,2.203 -4.766,5.063 0,2.875 2.234,5.062 4.766,5.062 2.281,0 3.578,-2 3.578,-3.531 0,-0.156 0,-0.234 -0.157,-0.234 -0.14,0 -0.14,0.062 -0.14,0.156 -0.125,2.218 -1.75,3.203 -3.11,3.203 -0.968,0 -3.64,-0.594 -3.64,-4.656 0,-4.032 2.625,-4.657 3.625,-4.657 1.468,0 2.75,1.25 3.031,3.344 0.031,0.156 0.031,0.203 0.203,0.203 0.188,0 0.188,-0.047 0.188,-0.312 z"
         style="fill:#000000;fill-opacity:1;fill-rule:nonzero;stroke:none"
         id="path276" /><path
         d="m 268.238,246.516 c 0,-1.297 0,-1.688 -0.312,-2.141 -0.406,-0.531 -1.063,-0.625 -1.531,-0.625 -1.204,0 -1.766,0.906 -1.954,1.344 h -0.015 v -4.875 l -1.938,0.156 v 0.406 c 0.938,0 1.047,0.094 1.047,0.781 v 7.313 c 0,0.625 -0.14,0.625 -1.047,0.625 v 0.406 c 0.36,-0.031 1.11,-0.031 1.5,-0.031 0.407,0 1.157,0 1.516,0.031 V 249.5 c -0.891,0 -1.063,0 -1.063,-0.625 v -2.594 c 0,-1.469 0.969,-2.25 1.829,-2.25 0.875,0 1.062,0.719 1.062,1.563 v 3.281 c 0,0.625 -0.141,0.625 -1.062,0.625 v 0.406 c 0.375,-0.031 1.125,-0.031 1.515,-0.031 0.406,0 1.156,0 1.516,0.031 V 249.5 c -0.688,0 -1.047,0 -1.063,-0.422 z"
         style="fill:#000000;fill-opacity:1;fill-rule:nonzero;stroke:none"
         id="path278" /><path
         d="m 275,246.188 c 0,-0.766 0,-1.313 -0.625,-1.86 -0.484,-0.453 -1.109,-0.64 -1.719,-0.64 -1.156,0 -2.031,0.75 -2.031,1.656 0,0.406 0.266,0.594 0.594,0.594 0.328,0 0.562,-0.235 0.562,-0.563 0,-0.578 -0.5,-0.578 -0.703,-0.578 0.313,-0.578 0.984,-0.828 1.547,-0.828 0.641,0 1.469,0.531 1.469,1.781 v 0.562 c -2.813,0.032 -3.875,1.204 -3.875,2.282 0,1.109 1.281,1.453 2.14,1.453 0.922,0 1.547,-0.563 1.813,-1.235 0.062,0.657 0.484,1.157 1.094,1.157 0.281,0 1.093,-0.188 1.093,-1.297 v -0.781 h -0.297 v 0.781 c 0,0.781 -0.343,0.906 -0.531,0.906 -0.531,0 -0.531,-0.75 -0.531,-0.953 z m -0.906,1.75 c 0,1.374 -1.032,1.828 -1.625,1.828 -0.688,0 -1.25,-0.5 -1.25,-1.172 0,-1.844 2.375,-2.016 2.875,-2.032 z"
         style="fill:#000000;fill-opacity:1;fill-rule:nonzero;stroke:none"
         id="path280" /><path
         d="m 278.758,246.656 c 0,-1.359 0.562,-2.625 1.64,-2.625 0.11,0 0.141,0 0.188,0.016 -0.109,0.062 -0.328,0.141 -0.328,0.515 0,0.407 0.312,0.563 0.547,0.563 0.265,0 0.547,-0.187 0.547,-0.563 0,-0.421 -0.375,-0.812 -0.969,-0.812 -1.188,0 -1.594,1.281 -1.672,1.547 h -0.016 v -1.547 l -1.875,0.156 v 0.406 c 0.953,0 1.063,0.094 1.063,0.782 v 3.781 c 0,0.625 -0.156,0.625 -1.063,0.625 v 0.406 c 0.391,-0.031 1.157,-0.031 1.578,-0.031 0.375,0 1.36,0 1.688,0.031 V 249.5 h -0.281 c -1.016,0 -1.047,-0.156 -1.047,-0.656 z"
         style="fill:#000000;fill-opacity:1;fill-rule:nonzero;stroke:none"
         id="path282" /><path
         d="m 291.727,246.516 c 0,-1.297 0,-1.688 -0.313,-2.141 -0.406,-0.531 -1.062,-0.625 -1.531,-0.625 -1.172,0 -1.75,0.844 -1.969,1.391 -0.203,-1.079 -0.953,-1.391 -1.828,-1.391 -1.359,0 -1.891,1.156 -2,1.438 h -0.016 v -1.438 l -1.89,0.156 v 0.406 c 0.937,0 1.047,0.094 1.047,0.782 v 3.781 c 0,0.625 -0.141,0.625 -1.047,0.625 v 0.406 c 0.359,-0.031 1.109,-0.031 1.5,-0.031 0.406,0 1.156,0 1.515,0.031 V 249.5 c -0.89,0 -1.062,0 -1.062,-0.625 v -2.594 c 0,-1.469 0.969,-2.25 1.828,-2.25 0.875,0 1.062,0.719 1.062,1.563 v 3.281 c 0,0.625 -0.14,0.625 -1.062,0.625 v 0.406 c 0.375,-0.031 1.125,-0.031 1.516,-0.031 0.406,0 1.156,0 1.515,0.031 V 249.5 c -0.89,0 -1.062,0 -1.062,-0.625 v -2.594 c 0,-1.469 0.968,-2.25 1.828,-2.25 0.875,0 1.062,0.719 1.062,1.563 v 3.281 c 0,0.625 -0.156,0.625 -1.062,0.625 v 0.406 c 0.375,-0.031 1.125,-0.031 1.515,-0.031 0.407,0 1.157,0 1.516,0.031 V 249.5 c -0.687,0 -1.047,0 -1.062,-0.422 z"
         style="fill:#000000;fill-opacity:1;fill-rule:nonzero;stroke:none"
         id="path284" /><path
         d="m 295.816,249.969 c 0,-0.875 -0.296,-1.422 -0.828,-1.422 -0.406,0 -0.672,0.312 -0.672,0.672 0,0.375 0.266,0.687 0.672,0.687 0.219,0 0.375,-0.094 0.453,-0.172 0.047,-0.031 0.063,-0.031 0.063,-0.031 0.031,0 0.031,0.188 0.031,0.266 0,0.89 -0.359,1.719 -0.969,2.359 -0.062,0.047 -0.078,0.078 -0.078,0.125 0,0.078 0.078,0.141 0.141,0.141 0.125,0 1.187,-1.032 1.187,-2.625 z"
         style="fill:#000000;fill-opacity:1;fill-rule:nonzero;stroke:none"
         id="path286" /><path
         d="m 304.586,240.578 c -0.125,-0.187 -0.141,-0.203 -0.453,-0.203 h -2.125 v 0.406 c 0.594,0 0.937,0 1.312,0.094 v 7.563 c 0,0.406 0,1.062 -1.312,1.062 v 0.406 c 0.359,-0.031 1.094,-0.031 1.484,-0.031 0.391,0 1.125,0 1.5,0.031 V 249.5 c -1.328,0 -1.328,-0.656 -1.328,-1.062 v -7.329 c 0.109,0.11 0.109,0.125 0.234,0.297 l 5.438,8.297 c 0.141,0.188 0.156,0.203 0.25,0.203 0.125,0 0.156,-0.062 0.172,-0.078 v -7.984 c 0,-0.406 0,-1.063 1.328,-1.063 v -0.406 c -0.359,0.031 -1.109,0.031 -1.5,0.031 -0.391,0 -1.125,0 -1.484,-0.031 v 0.406 c 1.328,0 1.328,0.657 1.328,1.063 v 6.094 z"
         style="fill:#000000;fill-opacity:1;fill-rule:nonzero;stroke:none"
         id="path288" /><path
         d="m 314.82,240.578 c -0.125,-0.187 -0.14,-0.203 -0.453,-0.203 h -2.125 v 0.406 c 0.594,0 0.938,0 1.313,0.094 v 7.563 c 0,0.406 0,1.062 -1.313,1.062 v 0.406 c 0.36,-0.031 1.094,-0.031 1.485,-0.031 0.39,0 1.125,0 1.5,0.031 V 249.5 c -1.329,0 -1.329,-0.656 -1.329,-1.062 v -7.329 c 0.11,0.11 0.11,0.125 0.235,0.297 l 5.437,8.297 c 0.141,0.188 0.157,0.203 0.25,0.203 0.125,0 0.157,-0.062 0.172,-0.078 v -7.984 c 0,-0.406 0,-1.063 1.328,-1.063 v -0.406 c -0.359,0.031 -1.109,0.031 -1.5,0.031 -0.39,0 -1.125,0 -1.484,-0.031 v 0.406 c 1.328,0 1.328,0.657 1.328,1.063 v 6.094 z"
         style="fill:#000000;fill-opacity:1;fill-rule:nonzero;stroke:none"
         id="path290" /><path
         d="m 329.855,246.328 h -0.312 c -0.141,1.406 -0.313,3.172 -2.75,3.172 h -1.219 c -0.609,0 -0.64,-0.094 -0.64,-0.562 v -7.485 c 0,-0.5 0.031,-0.672 1.234,-0.672 h 0.422 v -0.406 c -0.406,0.031 -1.625,0.031 -2.125,0.031 -0.406,0 -1.656,0 -1.985,-0.031 v 0.406 h 0.266 c 1.016,0 1.047,0.141 1.047,0.657 v 7.406 c 0,0.515 -0.031,0.656 -1.047,0.656 h -0.266 v 0.406 h 7.016 z"
         style="fill:#000000;fill-opacity:1;fill-rule:nonzero;stroke:none"
         id="path292" /><path
         d="m 340.285,245.172 c 0,-2.891 -2.109,-5.094 -4.547,-5.094 -2.484,0 -4.562,2.234 -4.562,5.094 0,2.844 2.109,5.031 4.547,5.031 2.5,0 4.562,-2.219 4.562,-5.031 z m -4.547,4.703 c -1.422,0 -3.265,-1.344 -3.265,-4.906 0,-3.422 1.937,-4.578 3.25,-4.578 1.39,0 3.265,1.203 3.265,4.578 0,3.625 -1.89,4.906 -3.25,4.906 z"
         style="fill:#000000;fill-opacity:1;fill-rule:nonzero;stroke:none"
         id="path294" /><path
         d="m 355.59,246.516 c 0,-1.297 0,-1.688 -0.313,-2.141 -0.406,-0.531 -1.062,-0.625 -1.531,-0.625 -1.172,0 -1.75,0.844 -1.969,1.391 -0.203,-1.079 -0.953,-1.391 -1.828,-1.391 -1.359,0 -1.89,1.156 -2,1.438 h -0.015 v -1.438 l -1.891,0.156 v 0.406 c 0.937,0 1.047,0.094 1.047,0.782 v 3.781 c 0,0.625 -0.141,0.625 -1.047,0.625 v 0.406 c 0.359,-0.031 1.109,-0.031 1.5,-0.031 0.406,0 1.156,0 1.516,0.031 V 249.5 c -0.891,0 -1.063,0 -1.063,-0.625 v -2.594 c 0,-1.469 0.969,-2.25 1.828,-2.25 0.875,0 1.063,0.719 1.063,1.563 v 3.281 c 0,0.625 -0.141,0.625 -1.063,0.625 v 0.406 c 0.375,-0.031 1.125,-0.031 1.516,-0.031 0.406,0 1.156,0 1.515,0.031 V 249.5 c -0.89,0 -1.062,0 -1.062,-0.625 v -2.594 c 0,-1.469 0.969,-2.25 1.828,-2.25 0.875,0 1.063,0.719 1.063,1.563 v 3.281 c 0,0.625 -0.157,0.625 -1.063,0.625 v 0.406 c 0.375,-0.031 1.125,-0.031 1.516,-0.031 0.406,0 1.156,0 1.515,0.031 V 249.5 c -0.687,0 -1.047,0 -1.062,-0.422 z"
         style="fill:#000000;fill-opacity:1;fill-rule:nonzero;stroke:none"
         id="path296" /><path
         d="m 362.352,246.188 c 0,-0.766 0,-1.313 -0.625,-1.86 -0.485,-0.453 -1.11,-0.64 -1.719,-0.64 -1.156,0 -2.031,0.75 -2.031,1.656 0,0.406 0.265,0.594 0.593,0.594 0.328,0 0.563,-0.235 0.563,-0.563 0,-0.578 -0.5,-0.578 -0.703,-0.578 0.312,-0.578 0.984,-0.828 1.547,-0.828 0.64,0 1.468,0.531 1.468,1.781 v 0.562 c -2.812,0.032 -3.875,1.204 -3.875,2.282 0,1.109 1.282,1.453 2.141,1.453 0.922,0 1.547,-0.563 1.812,-1.235 0.063,0.657 0.485,1.157 1.094,1.157 0.281,0 1.094,-0.188 1.094,-1.297 v -0.781 h -0.297 v 0.781 c 0,0.781 -0.344,0.906 -0.531,0.906 -0.531,0 -0.531,-0.75 -0.531,-0.953 z m -0.907,1.75 c 0,1.374 -1.031,1.828 -1.625,1.828 -0.687,0 -1.25,-0.5 -1.25,-1.172 0,-1.844 2.375,-2.016 2.875,-2.032 z"
         style="fill:#000000;fill-opacity:1;fill-rule:nonzero;stroke:none"
         id="path298" /><path
         d="m 366.125,244.297 h 1.969 v -0.406 h -1.969 v -2.563 h -0.313 c -0.015,1.313 -0.515,2.641 -1.781,2.688 v 0.281 h 1.188 v 3.875 c 0,1.547 1.031,1.875 1.765,1.875 0.891,0 1.344,-0.859 1.344,-1.875 v -0.797 h -0.312 v 0.766 c 0,1.015 -0.391,1.593 -0.938,1.593 -0.953,0 -0.953,-1.296 -0.953,-1.531 z"
         style="fill:#000000;fill-opacity:1;fill-rule:nonzero;stroke:none"
         id="path300" /><path
         d="m 374.125,244.75 c -0.156,0 -0.672,0 -0.672,0.562 0,0.344 0.235,0.579 0.563,0.579 0.328,0 0.593,-0.203 0.593,-0.61 0,-0.922 -0.984,-1.593 -2.109,-1.593 -1.641,0 -2.938,1.453 -2.938,3.203 0,1.781 1.344,3.156 2.922,3.156 1.844,0 2.266,-1.672 2.266,-1.797 0,-0.125 -0.109,-0.125 -0.141,-0.125 -0.125,0 -0.14,0.031 -0.187,0.203 -0.313,0.984 -1.063,1.406 -1.813,1.406 -0.859,0 -1.984,-0.734 -1.984,-2.859 0,-2.313 1.187,-2.891 1.891,-2.891 0.531,0 1.296,0.219 1.609,0.766 z"
         style="fill:#000000;fill-opacity:1;fill-rule:nonzero;stroke:none"
         id="path302" /><path
         d="m 380.969,246.516 c 0,-1.297 0,-1.688 -0.313,-2.141 -0.406,-0.531 -1.062,-0.625 -1.531,-0.625 -1.203,0 -1.766,0.906 -1.953,1.344 h -0.016 v -4.875 l -1.937,0.156 v 0.406 c 0.937,0 1.047,0.094 1.047,0.781 v 7.313 c 0,0.625 -0.141,0.625 -1.047,0.625 v 0.406 c 0.359,-0.031 1.109,-0.031 1.5,-0.031 0.406,0 1.156,0 1.515,0.031 V 249.5 c -0.89,0 -1.062,0 -1.062,-0.625 v -2.594 c 0,-1.469 0.969,-2.25 1.828,-2.25 0.875,0 1.062,0.719 1.062,1.563 v 3.281 c 0,0.625 -0.14,0.625 -1.062,0.625 v 0.406 c 0.375,-0.031 1.125,-0.031 1.516,-0.031 0.406,0 1.156,0 1.515,0.031 V 249.5 c -0.687,0 -1.047,0 -1.062,-0.422 z"
         style="fill:#000000;fill-opacity:1;fill-rule:nonzero;stroke:none"
         id="path304" /><path
         d="m 391.426,253.297 c 0,-0.047 0,-0.063 -0.235,-0.313 -1.39,-1.406 -2.171,-3.703 -2.171,-6.546 0,-2.719 0.656,-5.047 2.265,-6.688 0.141,-0.125 0.141,-0.156 0.141,-0.203 0,-0.078 -0.063,-0.109 -0.125,-0.109 -0.172,0 -1.328,1.015 -2,2.374 -0.719,1.407 -1.031,2.907 -1.031,4.626 0,1.234 0.187,2.89 0.906,4.39 0.828,1.672 1.969,2.578 2.125,2.578 0.062,0 0.125,-0.031 0.125,-0.109 z"
         style="fill:#000000;fill-opacity:1;fill-rule:nonzero;stroke:none"
         id="path306" /><path
         d="m 395.242,245.469 h 2.36 c 1.625,0 3.125,-1.11 3.125,-2.516 0,-1.344 -1.36,-2.578 -3.25,-2.578 h -4.688 v 0.406 h 0.266 c 1.015,0 1.047,0.141 1.047,0.657 v 7.406 c 0,0.515 -0.032,0.656 -1.047,0.656 h -0.266 v 0.406 c 0.328,-0.031 1.469,-0.031 1.875,-0.031 0.422,0 1.563,0 1.906,0.031 V 249.5 h -0.281 c -1.016,0 -1.047,-0.141 -1.047,-0.656 z m -0.031,-0.328 v -3.797 c 0,-0.469 0.031,-0.563 0.641,-0.563 h 1.312 c 2.266,0 2.266,1.578 2.266,2.172 0,0.594 0,2.188 -2.282,2.188 z"
         style="fill:#000000;fill-opacity:1;fill-rule:nonzero;stroke:none"
         id="path308" /><path
         d="m 402.078,240.375 v 0.406 h 0.266 c 1.015,0 1.047,0.141 1.047,0.657 v 7.406 c 0,0.515 -0.032,0.656 -1.047,0.656 h -0.266 v 0.406 h 4.875 c 2.328,0 4.203,-2.094 4.203,-4.672 0,-2.703 -1.89,-4.859 -4.203,-4.859 z m 3.063,9.125 c -0.61,0 -0.641,-0.094 -0.641,-0.562 v -7.594 c 0,-0.469 0.031,-0.563 0.641,-0.563 h 1.468 c 1.157,0 2.079,0.563 2.641,1.485 0.641,0.984 0.641,2.39 0.641,2.953 0,0.781 -0.016,2.093 -0.813,3.125 -0.469,0.578 -1.297,1.156 -2.469,1.156 z"
         style="fill:#000000;fill-opacity:1;fill-rule:nonzero;stroke:none"
         id="path310" /><path
         d="m 419.871,240.406 h -7.391 v 0.406 h 0.266 c 1.016,0 1.047,0.141 1.047,0.657 v 7.375 c 0,0.515 -0.031,0.656 -1.047,0.656 h -0.266 v 0.406 c 0.329,-0.031 1.579,-0.031 1.985,-0.031 0.5,0 1.719,0 2.125,0.031 V 249.5 h -0.422 c -1.203,0 -1.234,-0.172 -1.234,-0.672 v -3.469 h 1.218 c 1.313,0 1.453,0.453 1.453,1.625 h 0.313 v -3.656 h -0.313 c 0,1.172 -0.14,1.625 -1.453,1.625 h -1.218 v -3.594 c 0,-0.453 0.031,-0.547 0.64,-0.547 h 1.735 c 2.015,0 2.421,0.735 2.609,2.704 h 0.312 z"
         style="fill:#000000;fill-opacity:1;fill-rule:nonzero;stroke:none"
         id="path312" /><path
         d="m 426.363,246.688 h 3.86 c 0.187,0 0.437,0 0.437,-0.25 0,-0.266 -0.234,-0.266 -0.437,-0.266 h -3.86 v -3.86 c 0,-0.187 0,-0.437 -0.25,-0.437 -0.265,0 -0.265,0.234 -0.265,0.437 v 3.86 h -3.844 c -0.203,0 -0.453,0 -0.453,0.25 0,0.266 0.234,0.266 0.453,0.266 h 3.844 v 3.843 c 0,0.203 0,0.453 0.25,0.453 0.265,0 0.265,-0.234 0.265,-0.453 z"
         style="fill:#000000;fill-opacity:1;fill-rule:nonzero;stroke:none"
         id="path314" /><path
         d="m 434.617,240.641 c -0.094,-0.266 -0.109,-0.266 -0.422,-0.266 h -2.172 v 0.406 h 0.282 c 1,0 1.047,0.141 1.047,0.657 v 7.031 c 0,0.375 0,1.031 -1.329,1.031 v 0.406 c 0.375,-0.031 1.11,-0.031 1.5,-0.031 0.391,0 1.125,0 1.485,0.031 V 249.5 c -1.313,0 -1.313,-0.656 -1.313,-1.031 v -7.625 l 3.375,8.797 c 0.047,0.156 0.094,0.265 0.235,0.265 0.125,0 0.156,-0.062 0.234,-0.281 l 3.391,-8.844 h 0.015 v 8.063 c 0,0.515 -0.047,0.656 -1.047,0.656 h -0.281 v 0.406 c 0.328,-0.031 1.438,-0.031 1.844,-0.031 0.406,0 1.516,0 1.844,0.031 V 249.5 h -0.282 c -1,0 -1.046,-0.141 -1.046,-0.656 v -7.406 c 0,-0.516 0.046,-0.657 1.046,-0.657 h 0.282 v -0.406 h -2.172 c -0.297,0 -0.313,0.016 -0.422,0.281 l -3.047,7.938 z"
         style="fill:#000000;fill-opacity:1;fill-rule:nonzero;stroke:none"
         id="path316" /><path
         d="m 452.254,241.438 c 0,-0.516 0.047,-0.657 1.047,-0.657 h 0.281 v -0.406 c -0.328,0.031 -1.484,0.031 -1.891,0.031 -0.406,0 -1.562,0 -1.89,-0.031 v 0.406 h 0.281 c 1,0 1.047,0.141 1.047,0.657 v 3.312 h -4.172 v -3.312 c 0,-0.516 0.031,-0.657 1.047,-0.657 h 0.281 v -0.406 c -0.344,0.031 -1.484,0.031 -1.89,0.031 -0.422,0 -1.563,0 -1.891,-0.031 v 0.406 h 0.266 c 1.015,0 1.046,0.141 1.046,0.657 v 7.406 c 0,0.515 -0.031,0.656 -1.046,0.656 h -0.266 v 0.406 c 0.328,-0.031 1.469,-0.031 1.875,-0.031 0.422,0 1.562,0 1.906,0.031 V 249.5 h -0.281 c -1.016,0 -1.047,-0.141 -1.047,-0.656 v -3.703 h 4.172 v 3.703 c 0,0.515 -0.047,0.656 -1.047,0.656 h -0.281 v 0.406 c 0.328,-0.031 1.484,-0.031 1.89,-0.031 0.407,0 1.563,0 1.891,0.031 V 249.5 h -0.281 c -1,0 -1.047,-0.141 -1.047,-0.656 z"
         style="fill:#000000;fill-opacity:1;fill-rule:nonzero;stroke:none"
         id="path318" /><path
         d="m 464.023,245.172 c 0,-2.891 -2.109,-5.094 -4.546,-5.094 -2.485,0 -4.563,2.234 -4.563,5.094 0,2.844 2.109,5.031 4.547,5.031 2.5,0 4.562,-2.219 4.562,-5.031 z m -4.546,4.703 c -1.422,0 -3.266,-1.344 -3.266,-4.906 0,-3.422 1.937,-4.578 3.25,-4.578 1.391,0 3.266,1.203 3.266,4.578 0,3.625 -1.891,4.906 -3.25,4.906 z"
         style="fill:#000000;fill-opacity:1;fill-rule:nonzero;stroke:none"
         id="path320" /><path
         d="m 472.73,246.703 c 0,1.953 -1.328,3.094 -2.64,3.094 -0.828,0 -2.281,-0.563 -2.281,-3 v -5.359 c 0,-0.516 0.031,-0.657 1.046,-0.657 h 0.282 v -0.406 c -0.344,0.031 -1.485,0.031 -1.891,0.031 -0.422,0 -1.562,0 -1.891,-0.031 v 0.406 h 0.266 c 1.016,0 1.047,0.141 1.047,0.657 v 5.281 c 0,2.015 1.625,3.484 3.391,3.484 1.953,0 3.046,-1.906 3.046,-3.297 v -5.281 c 0,-0.844 1.079,-0.844 1.329,-0.844 v -0.406 c -0.36,0.031 -1.11,0.031 -1.5,0.031 -0.407,0 -1.172,0 -1.532,-0.031 v 0.406 c 1.328,0 1.328,0.657 1.328,1.031 z"
         style="fill:#000000;fill-opacity:1;fill-rule:nonzero;stroke:none"
         id="path322" /><path
         d="m 478.953,246.438 c 0,-1.063 -0.141,-2.797 -0.922,-4.422 -0.828,-1.672 -1.969,-2.578 -2.125,-2.578 -0.047,0 -0.125,0.031 -0.125,0.109 0,0.047 0,0.078 0.235,0.312 1.406,1.407 2.187,3.719 2.187,6.563 0,2.703 -0.656,5.031 -2.281,6.672 -0.141,0.14 -0.141,0.156 -0.141,0.203 0,0.078 0.078,0.109 0.125,0.109 0.188,0 1.328,-1 2.016,-2.375 0.703,-1.422 1.031,-2.922 1.031,-4.593 z"
         style="fill:#000000;fill-opacity:1;fill-rule:nonzero;stroke:none"
         id="path324" /><path
         d="m 159.117,265.434 h 28"
         style="fill:none;stroke:#ff7d0c;stroke-width:2;stroke-linecap:butt;stroke-linejoin:round;stroke-miterlimit:10;stroke-dasharray:2, 3.3;stroke-dashoffset:0;stroke-opacity:1"
         id="path326" /><path
         d="m 198.914,260.801 v 0.406 h 0.281 c 1.016,0 1.047,0.141 1.047,0.656 v 7.407 c 0,0.515 -0.031,0.656 -1.047,0.656 h -0.281 v 0.406 h 5.25 c 1.797,0 3.063,-1.219 3.063,-2.547 0,-1.14 -1.016,-2.25 -2.688,-2.437 1.328,-0.25 2.297,-1.141 2.297,-2.188 0,-1.203 -1.219,-2.359 -3.047,-2.359 z m 2.391,4.437 v -3.468 c 0,-0.469 0.031,-0.563 0.64,-0.563 h 1.766 c 1.391,0 1.891,1.203 1.891,1.953 0,0.922 -0.719,2.078 -2.266,2.078 z m 0.64,4.688 c -0.609,0 -0.64,-0.094 -0.64,-0.563 v -3.843 h 2.609 c 1.344,0 2.031,1.171 2.031,2.25 0,1.125 -0.843,2.156 -2.218,2.156 z"
         style="fill:#000000;fill-opacity:1;fill-rule:nonzero;stroke:none"
         id="path328" /><path
         d="m 216.312,261.863 c 0,-0.515 0.047,-0.656 1.047,-0.656 h 0.282 v -0.406 c -0.329,0.031 -1.485,0.031 -1.891,0.031 -0.406,0 -1.562,0 -1.891,-0.031 v 0.406 h 0.282 c 1,0 1.047,0.141 1.047,0.656 v 3.313 h -4.172 v -3.313 c 0,-0.515 0.031,-0.656 1.046,-0.656 h 0.282 v -0.406 c -0.344,0.031 -1.485,0.031 -1.891,0.031 -0.422,0 -1.562,0 -1.891,-0.031 v 0.406 h 0.266 c 1.016,0 1.047,0.141 1.047,0.656 v 7.407 c 0,0.515 -0.031,0.656 -1.047,0.656 h -0.266 v 0.406 c 0.329,-0.031 1.469,-0.031 1.876,-0.031 0.421,0 1.562,0 1.906,0.031 v -0.406 h -0.282 c -1.015,0 -1.046,-0.141 -1.046,-0.656 v -3.704 h 4.172 v 3.704 c 0,0.515 -0.047,0.656 -1.047,0.656 h -0.282 v 0.406 c 0.329,-0.031 1.485,-0.031 1.891,-0.031 0.406,0 1.562,0 1.891,0.031 v -0.406 h -0.282 c -1,0 -1.047,-0.141 -1.047,-0.656 z"
         style="fill:#000000;fill-opacity:1;fill-rule:nonzero;stroke:none"
         id="path330" /><path
         d="m 221.27,265.895 h 2.359 c 1.625,0 3.125,-1.11 3.125,-2.516 0,-1.344 -1.359,-2.578 -3.25,-2.578 h -4.688 v 0.406 h 0.266 c 1.016,0 1.047,0.141 1.047,0.656 v 7.407 c 0,0.515 -0.031,0.656 -1.047,0.656 h -0.266 v 0.406 c 0.329,-0.031 1.469,-0.031 1.875,-0.031 0.422,0 1.563,0 1.907,0.031 v -0.406 h -0.282 c -1.015,0 -1.046,-0.141 -1.046,-0.656 z m -0.032,-0.329 v -3.796 c 0,-0.469 0.032,-0.563 0.641,-0.563 h 1.312 c 2.266,0 2.266,1.578 2.266,2.172 0,0.594 0,2.187 -2.281,2.187 z"
         style="fill:#000000;fill-opacity:1;fill-rule:nonzero;stroke:none"
         id="path332" /><path
         d="m 230.418,264.52 c -0.719,-0.188 -1.344,-0.891 -1.344,-1.782 0,-0.968 0.781,-1.859 1.875,-1.859 2.281,0 2.594,2.266 2.672,2.875 0.031,0.156 0.031,0.219 0.172,0.219 0.156,0 0.156,-0.078 0.156,-0.328 v -2.813 c 0,-0.25 0,-0.328 -0.14,-0.328 -0.047,0 -0.11,0 -0.204,0.187 l -0.453,0.844 c -0.672,-0.859 -1.593,-1.031 -2.203,-1.031 -1.547,0 -2.687,1.25 -2.687,2.672 0,0.672 0.234,1.281 0.75,1.844 0.5,0.546 0.984,0.671 1.968,0.921 0.5,0.11 1.266,0.297 1.454,0.391 0.656,0.313 1.093,1.063 1.093,1.844 0,1.047 -0.734,2.047 -1.906,2.047 -0.625,0 -1.484,-0.157 -2.172,-0.75 -0.812,-0.735 -0.859,-1.735 -0.875,-2.203 -0.015,-0.11 -0.125,-0.11 -0.156,-0.11 -0.156,0 -0.156,0.078 -0.156,0.328 v 2.813 c 0,0.25 0,0.328 0.14,0.328 0.094,0 0.094,-0.031 0.203,-0.203 0.047,-0.11 0.344,-0.625 0.454,-0.828 0.5,0.547 1.39,1.031 2.578,1.031 1.562,0 2.703,-1.328 2.703,-2.859 0,-0.86 -0.328,-1.485 -0.703,-1.938 -0.516,-0.641 -1.141,-0.781 -1.688,-0.922 z"
         style="fill:#000000;fill-opacity:1;fill-rule:nonzero;stroke:none"
         id="path334" /><path
         d="m 249.637,266.941 c 0,-1.296 0,-1.687 -0.313,-2.14 -0.406,-0.531 -1.062,-0.625 -1.531,-0.625 -1.172,0 -1.75,0.844 -1.969,1.39 -0.203,-1.078 -0.953,-1.39 -1.828,-1.39 -1.359,0 -1.891,1.156 -2,1.437 h -0.016 v -1.437 l -1.89,0.156 v 0.406 c 0.937,0 1.047,0.094 1.047,0.782 v 3.781 c 0,0.625 -0.141,0.625 -1.047,0.625 v 0.406 c 0.359,-0.031 1.109,-0.031 1.5,-0.031 0.406,0 1.156,0 1.515,0.031 v -0.406 c -0.89,0 -1.062,0 -1.062,-0.625 v -2.594 c 0,-1.469 0.969,-2.25 1.828,-2.25 0.875,0 1.063,0.719 1.063,1.563 v 3.281 c 0,0.625 -0.141,0.625 -1.063,0.625 v 0.406 c 0.375,-0.031 1.125,-0.031 1.516,-0.031 0.406,0 1.156,0 1.515,0.031 v -0.406 c -0.89,0 -1.062,0 -1.062,-0.625 v -2.594 c 0,-1.469 0.969,-2.25 1.828,-2.25 0.875,0 1.062,0.719 1.062,1.563 v 3.281 c 0,0.625 -0.156,0.625 -1.062,0.625 v 0.406 c 0.375,-0.031 1.125,-0.031 1.516,-0.031 0.406,0 1.156,0 1.515,0.031 v -0.406 c -0.687,0 -1.047,0 -1.062,-0.422 z"
         style="fill:#000000;fill-opacity:1;fill-rule:nonzero;stroke:none"
         id="path336" /><path
         d="m 257.41,267.348 c 0,-1.797 -1.375,-3.235 -2.984,-3.235 -1.672,0 -3,1.469 -3,3.235 0,1.781 1.39,3.125 2.984,3.125 1.641,0 3,-1.375 3,-3.125 z m -2.984,2.812 c -0.516,0 -1.141,-0.219 -1.547,-0.906 -0.375,-0.625 -0.391,-1.453 -0.391,-2.031 0,-0.532 0,-1.391 0.422,-2.016 0.391,-0.594 1.016,-0.812 1.5,-0.812 0.547,0 1.125,0.25 1.5,0.781 0.438,0.656 0.438,1.531 0.438,2.047 0,0.484 0,1.343 -0.36,2 -0.39,0.672 -1.031,0.937 -1.562,0.937 z"
         style="fill:#000000;fill-opacity:1;fill-rule:nonzero;stroke:none"
         id="path338" /><path
         d="m 262.391,260.801 v 0.406 c 0.953,0 1.062,0.094 1.062,0.781 v 3.078 c -0.297,-0.406 -0.891,-0.89 -1.75,-0.89 -1.609,0 -3.015,1.375 -3.015,3.156 0,1.766 1.328,3.141 2.859,3.141 1.062,0 1.672,-0.703 1.875,-0.969 v 0.969 l 1.969,-0.141 v -0.406 c -0.953,0 -1.063,-0.094 -1.063,-0.781 v -8.5 z m 1.031,7.906 c 0,0.25 0,0.281 -0.203,0.594 -0.328,0.484 -0.907,0.89 -1.594,0.89 -0.359,0 -1.875,-0.14 -1.875,-2.843 0,-1 0.172,-1.563 0.469,-2.032 0.281,-0.421 0.843,-0.859 1.547,-0.859 0.859,0 1.343,0.625 1.484,0.859 0.172,0.235 0.172,0.25 0.172,0.516 z"
         style="fill:#000000;fill-opacity:1;fill-rule:nonzero;stroke:none"
         id="path340" /><path
         d="m 271.121,267.098 c 0.313,0 0.328,0 0.328,-0.266 0,-1.406 -0.75,-2.719 -2.437,-2.719 -1.594,0 -2.813,1.438 -2.813,3.157 0,1.843 1.422,3.203 2.969,3.203 1.656,0 2.281,-1.516 2.281,-1.797 0,-0.094 -0.062,-0.141 -0.14,-0.141 -0.125,0 -0.141,0.063 -0.172,0.141 -0.36,1.172 -1.297,1.484 -1.891,1.484 -0.578,0 -1.984,-0.39 -1.984,-2.797 v -0.265 z m -3.844,-0.266 c 0.11,-2.187 1.328,-2.437 1.719,-2.437 1.5,0 1.578,1.953 1.594,2.437 z"
         style="fill:#000000;fill-opacity:1;fill-rule:nonzero;stroke:none"
         id="path342" /><path
         d="m 274.25,260.645 -1.953,0.156 v 0.406 c 0.953,0 1.062,0.094 1.062,0.781 v 7.313 c 0,0.625 -0.14,0.625 -1.062,0.625 v 0.406 c 0.391,-0.031 1.078,-0.031 1.5,-0.031 0.422,0 1.109,0 1.5,0.031 v -0.406 c -0.891,0 -1.047,0 -1.047,-0.625 z"
         style="fill:#000000;fill-opacity:1;fill-rule:nonzero;stroke:none"
         id="path344" /><path
         d="m 159.117,285.863 h 28"
         style="fill:none;stroke:#2b9e2b;stroke-width:2;stroke-linecap:butt;stroke-linejoin:round;stroke-miterlimit:10;stroke-dasharray:12.8, 3.2, 2, 3.2;stroke-dashoffset:0;stroke-opacity:1"
         id="path346" /><path
         d="m 201.523,281.5 c -0.093,-0.266 -0.109,-0.266 -0.421,-0.266 h -2.172 v 0.407 h 0.281 c 1,0 1.047,0.14 1.047,0.656 v 7.031 c 0,0.375 0,1.031 -1.328,1.031 v 0.407 c 0.375,-0.032 1.109,-0.032 1.5,-0.032 0.39,0 1.125,0 1.484,0.032 v -0.407 c -1.312,0 -1.312,-0.656 -1.312,-1.031 v -7.625 l 3.375,8.797 c 0.046,0.156 0.093,0.266 0.234,0.266 0.125,0 0.156,-0.063 0.234,-0.282 l 3.391,-8.843 h 0.016 v 8.062 c 0,0.516 -0.047,0.656 -1.047,0.656 h -0.282 v 0.407 c 0.329,-0.032 1.438,-0.032 1.844,-0.032 0.406,0 1.516,0 1.844,0.032 v -0.407 h -0.281 c -1,0 -1.047,-0.14 -1.047,-0.656 v -7.406 c 0,-0.516 0.047,-0.656 1.047,-0.656 h 0.281 v -0.407 h -2.172 c -0.297,0 -0.312,0.016 -0.422,0.282 l -3.047,7.937 z"
         style="fill:#000000;fill-opacity:1;fill-rule:nonzero;stroke:none"
         id="path348" /><path
         d="m 216.172,287.531 c 0.312,0 0.328,0 0.328,-0.265 0,-1.407 -0.75,-2.719 -2.438,-2.719 -1.593,0 -2.812,1.437 -2.812,3.156 0,1.844 1.422,3.203 2.969,3.203 1.656,0 2.281,-1.515 2.281,-1.797 0,-0.093 -0.062,-0.14 -0.141,-0.14 -0.125,0 -0.14,0.062 -0.171,0.14 -0.36,1.172 -1.297,1.485 -1.891,1.485 -0.578,0 -1.985,-0.391 -1.985,-2.797 v -0.266 z m -3.844,-0.265 c 0.11,-2.188 1.328,-2.438 1.719,-2.438 1.5,0 1.578,1.953 1.594,2.438 z"
         style="fill:#000000;fill-opacity:1;fill-rule:nonzero;stroke:none"
         id="path350" /><path
         d="m 221.477,284.859 c 0,-0.25 0,-0.312 -0.141,-0.312 -0.109,0 -0.375,0.297 -0.469,0.422 -0.437,-0.344 -0.875,-0.422 -1.312,-0.422 -1.688,0 -2.203,0.922 -2.203,1.687 0,0.157 0,0.641 0.531,1.125 0.453,0.391 0.922,0.485 1.562,0.61 0.782,0.156 0.953,0.203 1.297,0.484 0.266,0.203 0.438,0.516 0.438,0.906 0,0.594 -0.344,1.266 -1.578,1.266 -0.922,0 -1.594,-0.531 -1.891,-1.922 -0.063,-0.25 -0.063,-0.265 -0.078,-0.281 -0.016,-0.063 -0.078,-0.063 -0.125,-0.063 -0.156,0 -0.156,0.079 -0.156,0.329 v 1.89 c 0,0.25 0,0.328 0.14,0.328 0.078,0 0.094,-0.015 0.328,-0.312 0.063,-0.094 0.063,-0.125 0.282,-0.344 0.531,0.656 1.281,0.656 1.515,0.656 1.469,0 2.188,-0.812 2.188,-1.906 0,-0.766 -0.453,-1.203 -0.578,-1.328 -0.5,-0.438 -0.875,-0.516 -1.797,-0.688 -0.422,-0.078 -1.438,-0.281 -1.438,-1.109 0,-0.437 0.281,-1.078 1.547,-1.078 1.516,0 1.594,1.297 1.625,1.734 0.016,0.11 0.109,0.11 0.156,0.11 0.157,0 0.157,-0.079 0.157,-0.329 z"
         style="fill:#000000;fill-opacity:1;fill-rule:nonzero;stroke:none"
         id="path352" /><path
         d="m 228.688,287.781 c 0,-1.797 -1.376,-3.234 -2.985,-3.234 -1.672,0 -3,1.469 -3,3.234 0,1.781 1.391,3.125 2.985,3.125 1.64,0 3,-1.375 3,-3.125 z m -2.985,2.813 c -0.515,0 -1.141,-0.219 -1.547,-0.906 -0.375,-0.626 -0.39,-1.454 -0.39,-2.032 0,-0.531 0,-1.39 0.422,-2.015 0.39,-0.594 1.015,-0.813 1.5,-0.813 0.546,0 1.124,0.25 1.5,0.781 0.437,0.657 0.437,1.532 0.437,2.047 0,0.485 0,1.344 -0.359,2 -0.391,0.672 -1.032,0.938 -1.563,0.938 z"
         style="fill:#000000;fill-opacity:1;fill-rule:nonzero;stroke:none"
         id="path354" /><path
         d="m 235.305,287.375 c 0,-1.297 0,-1.687 -0.313,-2.141 -0.406,-0.531 -1.062,-0.625 -1.531,-0.625 -1.359,0 -1.891,1.157 -2,1.438 h -0.016 v -1.438 l -1.89,0.157 v 0.406 c 0.937,0 1.047,0.094 1.047,0.781 v 3.781 c 0,0.625 -0.141,0.625 -1.047,0.625 v 0.407 c 0.359,-0.032 1.109,-0.032 1.5,-0.032 0.406,0 1.156,0 1.515,0.032 v -0.407 c -0.89,0 -1.062,0 -1.062,-0.625 v -2.593 c 0,-1.469 0.969,-2.25 1.828,-2.25 0.875,0 1.062,0.718 1.062,1.562 v 3.281 c 0,0.625 -0.14,0.625 -1.062,0.625 v 0.407 c 0.375,-0.032 1.125,-0.032 1.516,-0.032 0.406,0 1.156,0 1.515,0.032 v -0.407 c -0.687,0 -1.047,0 -1.062,-0.421 z"
         style="fill:#000000;fill-opacity:1;fill-rule:nonzero;stroke:none"
         id="path356" /><path
         d="m 242.676,280.797 c 0.062,-0.172 0.062,-0.203 0.062,-0.235 0,-0.171 -0.125,-0.265 -0.25,-0.265 -0.172,0 -0.218,0.125 -0.281,0.312 l -4.703,13.141 c -0.078,0.188 -0.078,0.203 -0.078,0.234 0,0.157 0.109,0.266 0.265,0.266 0.188,0 0.219,-0.141 0.282,-0.297 z"
         style="fill:#000000;fill-opacity:1;fill-rule:nonzero;stroke:none"
         id="path358" /><path
         d="m 244.09,281.234 v 0.407 h 0.281 c 1.016,0 1.047,0.14 1.047,0.656 v 7.406 c 0,0.516 -0.031,0.656 -1.047,0.656 h -0.281 v 0.407 h 5.25 c 1.797,0 3.062,-1.219 3.062,-2.547 0,-1.141 -1.015,-2.25 -2.687,-2.438 1.328,-0.25 2.297,-1.14 2.297,-2.187 0,-1.203 -1.219,-2.36 -3.047,-2.36 z m 2.39,4.438 v -3.469 c 0,-0.469 0.032,-0.562 0.641,-0.562 h 1.766 c 1.39,0 1.89,1.203 1.89,1.953 0,0.922 -0.718,2.078 -2.265,2.078 z m 0.641,4.687 c -0.609,0 -0.641,-0.093 -0.641,-0.562 v -3.844 h 2.61 c 1.344,0 2.031,1.172 2.031,2.25 0,1.125 -0.844,2.156 -2.219,2.156 z"
         style="fill:#000000;fill-opacity:1;fill-rule:nonzero;stroke:none"
         id="path360" /><path
         d="m 258.551,287.047 c 0,-0.766 0,-1.313 -0.625,-1.859 -0.485,-0.454 -1.11,-0.641 -1.719,-0.641 -1.156,0 -2.031,0.75 -2.031,1.656 0,0.406 0.265,0.594 0.594,0.594 0.328,0 0.562,-0.235 0.562,-0.563 0,-0.578 -0.5,-0.578 -0.703,-0.578 0.312,-0.578 0.984,-0.828 1.547,-0.828 0.64,0 1.469,0.531 1.469,1.781 v 0.563 c -2.813,0.031 -3.875,1.203 -3.875,2.281 0,1.109 1.281,1.453 2.14,1.453 0.922,0 1.547,-0.562 1.813,-1.234 0.062,0.656 0.484,1.156 1.093,1.156 0.282,0 1.094,-0.187 1.094,-1.297 v -0.781 h -0.297 v 0.781 c 0,0.781 -0.343,0.907 -0.531,0.907 -0.531,0 -0.531,-0.75 -0.531,-0.954 z m -0.906,1.75 c 0,1.375 -1.032,1.828 -1.625,1.828 -0.688,0 -1.25,-0.5 -1.25,-1.172 0,-1.844 2.375,-2.015 2.875,-2.031 z"
         style="fill:#000000;fill-opacity:1;fill-rule:nonzero;stroke:none"
         id="path362" /><path
         d="m 262.309,287.516 c 0,-1.36 0.562,-2.625 1.64,-2.625 0.11,0 0.141,0 0.188,0.015 -0.11,0.063 -0.328,0.141 -0.328,0.516 0,0.406 0.312,0.562 0.546,0.562 0.266,0 0.547,-0.187 0.547,-0.562 0,-0.422 -0.375,-0.813 -0.968,-0.813 -1.188,0 -1.594,1.282 -1.672,1.547 h -0.016 v -1.547 l -1.875,0.157 v 0.406 c 0.953,0 1.063,0.094 1.063,0.781 v 3.781 c 0,0.625 -0.157,0.625 -1.063,0.625 v 0.407 c 0.391,-0.032 1.156,-0.032 1.578,-0.032 0.375,0 1.36,0 1.688,0.032 v -0.407 h -0.282 c -1.015,0 -1.046,-0.156 -1.046,-0.656 z"
         style="fill:#000000;fill-opacity:1;fill-rule:nonzero;stroke:none"
         id="path364" /><path
         d="m 270.938,286.109 c 0.374,-0.937 1.031,-0.953 1.296,-0.953 v -0.406 c -0.406,0.031 -0.609,0.031 -1.046,0.031 -0.329,0 -0.36,0 -1.141,-0.031 v 0.406 c 0.515,0.032 0.641,0.344 0.641,0.594 0,0.125 -0.016,0.203 -0.079,0.344 l -1.421,3.515 -1.547,-3.797 c -0.079,-0.203 -0.079,-0.281 -0.079,-0.296 0,-0.36 0.485,-0.36 0.766,-0.36 v -0.406 c -0.375,0.031 -1.047,0.031 -1.437,0.031 -0.532,0 -0.563,0 -1.36,-0.031 v 0.406 c 0.813,0 0.922,0.063 1.11,0.5 l 2.078,5.11 c -0.625,1.484 -0.625,1.5 -0.672,1.625 -0.235,0.406 -0.609,0.937 -1.25,0.937 -0.422,0 -0.688,-0.25 -0.688,-0.25 0,0 0.485,-0.047 0.485,-0.547 0,-0.328 -0.266,-0.515 -0.516,-0.515 -0.234,0 -0.531,0.14 -0.531,0.546 0,0.532 0.515,1.047 1.25,1.047 0.781,0 1.359,-0.687 1.719,-1.562 z"
         style="fill:#000000;fill-opacity:1;fill-rule:nonzero;stroke:none"
         id="path366" /><path
         d="m 278.504,287.781 c 0,-1.797 -1.375,-3.234 -2.984,-3.234 -1.672,0 -3,1.469 -3,3.234 0,1.781 1.39,3.125 2.984,3.125 1.641,0 3,-1.375 3,-3.125 z m -2.984,2.813 c -0.516,0 -1.141,-0.219 -1.547,-0.906 -0.375,-0.626 -0.391,-1.454 -0.391,-2.032 0,-0.531 0,-1.39 0.422,-2.015 0.391,-0.594 1.016,-0.813 1.5,-0.813 0.547,0 1.125,0.25 1.5,0.781 0.437,0.657 0.437,1.532 0.437,2.047 0,0.485 0,1.344 -0.359,2 -0.391,0.672 -1.031,0.938 -1.562,0.938 z"
         style="fill:#000000;fill-opacity:1;fill-rule:nonzero;stroke:none"
         id="path368" /><path
         d="m 285.121,287.375 c 0,-1.297 0,-1.687 -0.312,-2.141 -0.407,-0.531 -1.063,-0.625 -1.532,-0.625 -1.359,0 -1.89,1.157 -2,1.438 h -0.015 v -1.438 l -1.891,0.157 v 0.406 c 0.938,0 1.047,0.094 1.047,0.781 v 3.781 c 0,0.625 -0.141,0.625 -1.047,0.625 v 0.407 c 0.359,-0.032 1.109,-0.032 1.5,-0.032 0.406,0 1.156,0 1.516,0.032 v -0.407 c -0.891,0 -1.063,0 -1.063,-0.625 v -2.593 c 0,-1.469 0.969,-2.25 1.828,-2.25 0.875,0 1.063,0.718 1.063,1.562 v 3.281 c 0,0.625 -0.141,0.625 -1.063,0.625 v 0.407 c 0.375,-0.032 1.125,-0.032 1.516,-0.032 0.406,0 1.156,0 1.516,0.032 v -0.407 c -0.688,0 -1.047,0 -1.063,-0.421 z"
         style="fill:#000000;fill-opacity:1;fill-rule:nonzero;stroke:none"
         id="path370" /><path
         d="m 300.141,281.266 c 0,-0.25 0,-0.328 -0.141,-0.328 -0.078,0 -0.094,0.031 -0.172,0.171 l -0.687,1.11 c -0.625,-0.781 -1.579,-1.281 -2.579,-1.281 -2.562,0 -4.765,2.203 -4.765,5.062 0,2.875 2.234,5.062 4.765,5.062 2.282,0 3.579,-2 3.579,-3.531 0,-0.156 0,-0.234 -0.157,-0.234 -0.14,0 -0.14,0.062 -0.14,0.156 -0.125,2.219 -1.75,3.203 -3.11,3.203 -0.968,0 -3.64,-0.594 -3.64,-4.656 0,-4.031 2.625,-4.656 3.625,-4.656 1.469,0 2.75,1.25 3.031,3.344 0.031,0.156 0.031,0.203 0.203,0.203 0.188,0 0.188,-0.047 0.188,-0.313 z"
         style="fill:#000000;fill-opacity:1;fill-rule:nonzero;stroke:none"
         id="path372" /><path
         d="m 303.312,281.078 -1.953,0.156 v 0.407 c 0.953,0 1.063,0.093 1.063,0.781 v 7.312 c 0,0.625 -0.141,0.625 -1.063,0.625 v 0.407 c 0.391,-0.032 1.079,-0.032 1.5,-0.032 0.422,0 1.11,0 1.5,0.032 v -0.407 c -0.89,0 -1.047,0 -1.047,-0.625 z"
         style="fill:#000000;fill-opacity:1;fill-rule:nonzero;stroke:none"
         id="path374" /><path
         d="m 311.094,287.781 c 0,-1.797 -1.375,-3.234 -2.985,-3.234 -1.671,0 -3,1.469 -3,3.234 0,1.781 1.391,3.125 2.985,3.125 1.64,0 3,-1.375 3,-3.125 z m -2.985,2.813 c -0.515,0 -1.14,-0.219 -1.547,-0.906 -0.374,-0.626 -0.39,-1.454 -0.39,-2.032 0,-0.531 0,-1.39 0.422,-2.015 0.39,-0.594 1.015,-0.813 1.5,-0.813 0.547,0 1.125,0.25 1.5,0.781 0.437,0.657 0.437,1.532 0.437,2.047 0,0.485 0,1.344 -0.359,2 -0.391,0.672 -1.031,0.938 -1.563,0.938 z"
         style="fill:#000000;fill-opacity:1;fill-rule:nonzero;stroke:none"
         id="path376" /><path
         d="m 315.742,284.766 v 0.406 c 0.953,0 1.063,0.094 1.063,0.781 v 2.5 c 0,1.188 -0.625,2.172 -1.672,2.172 -1.141,0 -1.219,-0.656 -1.219,-1.391 v -4.625 l -1.953,0.157 v 0.406 c 1.047,0 1.047,0.047 1.047,1.281 v 2.094 c 0,0.859 0,1.375 0.422,1.828 0.343,0.359 0.906,0.531 1.625,0.531 0.234,0 0.687,0 1.156,-0.406 0.406,-0.328 0.625,-0.844 0.625,-0.844 v 1.25 l 1.937,-0.14 v -0.407 c -0.937,0 -1.062,-0.093 -1.062,-0.781 v -4.969 z"
         style="fill:#000000;fill-opacity:1;fill-rule:nonzero;stroke:none"
         id="path378" /><path
         d="m 323.27,281.234 v 0.407 c 0.953,0 1.062,0.093 1.062,0.781 v 3.078 c -0.297,-0.406 -0.891,-0.891 -1.75,-0.891 -1.609,0 -3.016,1.375 -3.016,3.157 0,1.765 1.329,3.14 2.86,3.14 1.062,0 1.672,-0.703 1.875,-0.968 v 0.968 l 1.969,-0.14 v -0.407 c -0.954,0 -1.063,-0.093 -1.063,-0.781 v -8.5 z m 1.031,7.907 c 0,0.25 0,0.281 -0.203,0.593 -0.328,0.485 -0.907,0.891 -1.594,0.891 -0.359,0 -1.875,-0.141 -1.875,-2.844 0,-1 0.172,-1.562 0.469,-2.031 0.281,-0.422 0.843,-0.859 1.547,-0.859 0.859,0 1.343,0.625 1.484,0.859 0.172,0.234 0.172,0.25 0.172,0.516 z"
         style="fill:#000000;fill-opacity:1;fill-rule:nonzero;stroke:none"
         id="path380" /><path
         d="m 341.207,287.375 c 0,-1.297 0,-1.687 -0.312,-2.141 -0.407,-0.531 -1.063,-0.625 -1.532,-0.625 -1.172,0 -1.75,0.844 -1.968,1.391 -0.204,-1.078 -0.954,-1.391 -1.829,-1.391 -1.359,0 -1.89,1.157 -2,1.438 h -0.015 v -1.438 l -1.891,0.157 v 0.406 c 0.938,0 1.047,0.094 1.047,0.781 v 3.781 c 0,0.625 -0.141,0.625 -1.047,0.625 v 0.407 c 0.36,-0.032 1.11,-0.032 1.5,-0.032 0.406,0 1.156,0 1.516,0.032 v -0.407 c -0.891,0 -1.063,0 -1.063,-0.625 v -2.593 c 0,-1.469 0.969,-2.25 1.828,-2.25 0.875,0 1.063,0.718 1.063,1.562 v 3.281 c 0,0.625 -0.141,0.625 -1.063,0.625 v 0.407 c 0.375,-0.032 1.125,-0.032 1.516,-0.032 0.406,0 1.156,0 1.516,0.032 v -0.407 c -0.891,0 -1.063,0 -1.063,-0.625 v -2.593 c 0,-1.469 0.969,-2.25 1.828,-2.25 0.875,0 1.063,0.718 1.063,1.562 v 3.281 c 0,0.625 -0.156,0.625 -1.063,0.625 v 0.407 c 0.375,-0.032 1.125,-0.032 1.516,-0.032 0.406,0 1.156,0 1.516,0.032 v -0.407 c -0.688,0 -1.047,0 -1.063,-0.421 z"
         style="fill:#000000;fill-opacity:1;fill-rule:nonzero;stroke:none"
         id="path382" /><path
         d="m 348.98,287.781 c 0,-1.797 -1.375,-3.234 -2.984,-3.234 -1.672,0 -3,1.469 -3,3.234 0,1.781 1.391,3.125 2.984,3.125 1.641,0 3,-1.375 3,-3.125 z m -2.984,2.813 c -0.516,0 -1.141,-0.219 -1.547,-0.906 -0.375,-0.626 -0.39,-1.454 -0.39,-2.032 0,-0.531 0,-1.39 0.421,-2.015 0.391,-0.594 1.016,-0.813 1.5,-0.813 0.547,0 1.125,0.25 1.5,0.781 0.438,0.657 0.438,1.532 0.438,2.047 0,0.485 0,1.344 -0.359,2 -0.391,0.672 -1.032,0.938 -1.563,0.938 z"
         style="fill:#000000;fill-opacity:1;fill-rule:nonzero;stroke:none"
         id="path384" /><path
         d="m 353.961,281.234 v 0.407 c 0.953,0 1.062,0.093 1.062,0.781 v 3.078 c -0.296,-0.406 -0.89,-0.891 -1.75,-0.891 -1.609,0 -3.015,1.375 -3.015,3.157 0,1.765 1.328,3.14 2.859,3.14 1.063,0 1.672,-0.703 1.875,-0.968 v 0.968 l 1.969,-0.14 v -0.407 c -0.953,0 -1.063,-0.093 -1.063,-0.781 v -8.5 z m 1.031,7.907 c 0,0.25 0,0.281 -0.203,0.593 -0.328,0.485 -0.906,0.891 -1.594,0.891 -0.359,0 -1.875,-0.141 -1.875,-2.844 0,-1 0.172,-1.562 0.469,-2.031 0.281,-0.422 0.844,-0.859 1.547,-0.859 0.859,0 1.344,0.625 1.484,0.859 0.172,0.234 0.172,0.25 0.172,0.516 z"
         style="fill:#000000;fill-opacity:1;fill-rule:nonzero;stroke:none"
         id="path386" /><path
         d="m 362.691,287.531 c 0.313,0 0.329,0 0.329,-0.265 0,-1.407 -0.75,-2.719 -2.438,-2.719 -1.594,0 -2.812,1.437 -2.812,3.156 0,1.844 1.421,3.203 2.968,3.203 1.657,0 2.282,-1.515 2.282,-1.797 0,-0.093 -0.063,-0.14 -0.141,-0.14 -0.125,0 -0.141,0.062 -0.172,0.14 -0.359,1.172 -1.297,1.485 -1.891,1.485 -0.578,0 -1.984,-0.391 -1.984,-2.797 v -0.266 z m -3.843,-0.265 c 0.109,-2.188 1.328,-2.438 1.718,-2.438 1.5,0 1.579,1.953 1.594,2.438 z"
         style="fill:#000000;fill-opacity:1;fill-rule:nonzero;stroke:none"
         id="path388" /><path
         d="m 365.82,281.078 -1.953,0.156 v 0.407 c 0.953,0 1.063,0.093 1.063,0.781 v 7.312 c 0,0.625 -0.141,0.625 -1.063,0.625 v 0.407 c 0.391,-0.032 1.078,-0.032 1.5,-0.032 0.422,0 1.11,0 1.5,0.032 v -0.407 c -0.89,0 -1.047,0 -1.047,-0.625 z"
         style="fill:#000000;fill-opacity:1;fill-rule:nonzero;stroke:none"
         id="path390" /></g></g></svg>
