<?xml version="1.0" encoding="UTF-8" standalone="no"?>
<!-- Created with Inkscape (http://www.inkscape.org/) -->

<svg
   version="1.1"
   id="svg2"
   xml:space="preserve"
   width="394.36246"
   height="266.76361"
   viewBox="0 0 394.36246 266.76361"
   sodipodi:docname="pdf.pdf"
   xmlns:inkscape="http://www.inkscape.org/namespaces/inkscape"
   xmlns:sodipodi="http://sodipodi.sourceforge.net/DTD/sodipodi-0.dtd"
   xmlns="http://www.w3.org/2000/svg"
   xmlns:svg="http://www.w3.org/2000/svg"><defs
     id="defs6"><clipPath
       clipPathUnits="userSpaceOnUse"
       id="clipPath62"><path
         d="M 0,0 H 296 V 201 H 0 Z"
         id="path60" /></clipPath></defs><sodipodi:namedview
     id="namedview4"
     pagecolor="#ffffff"
     bordercolor="#666666"
     borderopacity="1.0"
     inkscape:pageshadow="2"
     inkscape:pageopacity="0.0"
     inkscape:pagecheckerboard="0" /><g
     id="g8"
     inkscape:groupmode="layer"
     inkscape:label="pdf"
     transform="matrix(1.3333333,0,0,1.3333333,0,6.0024236e-6)"><g
       id="g10"><g
         id="g12"><path
           d="m 40.441,17.676 -0.187,0.336 -0.125,0.281 -0.184,0.445 -0.066,0.508 -0.063,0.391 V 23.5 l -0.058,1.738 v 4.481 l -0.063,2.687 v 16.969 l 0.063,4.539 v 5.039 l 0.058,5.828 -0.058,6.606 -0.125,7.113 -0.188,7.676 -0.25,8.23 -0.246,8.684 -0.25,8.961 -0.125,9.074 -0.062,8.738 -0.063,8.453 -0.062,8.012 -0.125,7.504 -0.188,7.172 -0.246,6.605 -0.187,6.164 -0.188,5.489 -0.125,4.761 -0.062,4.086 v 3.473 l 0.062,2.856 0.125,2.296 0.125,1.571 0.063,0.953 0.062,0.39 0.063,-0.39"
           style="fill:none;stroke:#000000;stroke-width:0.85;stroke-linecap:round;stroke-linejoin:round;stroke-miterlimit:10;stroke-dasharray:none;stroke-opacity:1"
           id="path14" /></g><g
         id="g16"><path
           d="m 36.27,17.34 0.687,0.168 0.809,0.168 1.183,0.336 1.367,0.222 1.493,0.282 1.433,0.222 1.367,0.172 1.121,0.164 0.997,0.114 0.683,0.167 0.496,0.114 0.375,0.113 0.313,0.055 -0.188,-0.504 -0.308,-0.336"
           style="fill:none;stroke:#000000;stroke-width:0.85;stroke-linecap:round;stroke-linejoin:round;stroke-miterlimit:10;stroke-dasharray:none;stroke-opacity:1"
           id="path18" /></g><g
         id="g20"><path
           d="m 34.344,15.324 0.308,-0.281 0.375,-0.449 0.621,-0.727 0.747,-1.008 0.75,-1.343 0.867,-1.457 0.875,-1.567 0.871,-1.515 0.871,-1.399 0.871,-1.344 0.684,-1.175 0.562,-1.008 0.496,-0.785 0.313,-0.563 0.183,-0.277 0.125,0.558 0.125,0.954 0.063,1.23 0.25,1.457 0.187,1.566 0.184,1.516 0.125,1.57 v 4.59 l 0.062,0.336 0.246,0.617 0.129,0.336"
           style="fill:none;stroke:#000000;stroke-width:0.85;stroke-linecap:round;stroke-linejoin:round;stroke-miterlimit:10;stroke-dasharray:none;stroke-opacity:1"
           id="path22" /></g><g
         id="g24"><path
           d="m 0.734,174.723 -0.308,-0.11 0.496,-0.054 h 1.805 l 1.371,0.054 1.867,0.11 2.176,0.172 2.613,0.164 2.867,0.168 3.172,0.113 3.609,0.058 h 8.586 l 4.981,-0.058 5.351,-0.055 5.727,-0.113 6.285,-0.113 h 21.656 l 7.84,0.113 8.152,0.226 8.465,0.223 8.84,0.168 9.149,0.168 h 9.332 l 9.336,-0.113 9.336,-0.223 9.394,-0.336 9.277,-0.449 9.211,-0.391 9.086,-0.336 8.711,-0.171 8.528,-0.11 h 8.46 l 8.215,0.168 8.028,0.223 7.593,0.34 7.036,0.336 6.406,0.164 5.914,0.168 h 18.73 l 3.176,0.171 2.613,0.278 1.993,0.336 1.492,0.39 0.871,0.282 0.437,0.168 -0.062,0.449 -0.621,0.277 -0.934,0.281 -1.433,0.227"
           style="fill:none;stroke:#000000;stroke-width:0.85;stroke-linecap:round;stroke-linejoin:round;stroke-miterlimit:10;stroke-dasharray:none;stroke-opacity:1"
           id="path26" /></g><g
         id="g28"><path
           d="m 275.809,173.156 v 0.953 l 0.062,0.727 0.063,0.785 0.121,0.781 0.129,0.844 0.246,0.781 0.25,0.618 0.187,0.558 0.125,0.395 v 0.336 -0.336 l -0.125,-0.618 -0.187,-1.007 -0.375,-1.289 -0.434,-1.457 -0.5,-1.454 -0.433,-1.402 -0.497,-1.176 -0.312,-0.953 -0.188,-0.613 0.059,-0.508 0.5,0.113 0.688,0.223 0.996,0.449 1.054,0.617 1.246,0.727 1.368,0.844 1.371,0.84 1.429,0.839 1.493,0.786 1.558,0.839 1.617,0.782 1.621,0.84 1.493,0.785 1.429,0.785 1.309,0.613 1.058,0.563 0.684,0.281 0.434,0.223 -0.063,0.445 -0.805,0.336 -1.246,0.449 -1.929,0.504 -2.243,0.562 -2.488,0.672 -2.613,0.672 -2.551,0.672 -2.363,0.617 -2.055,0.559 -1.621,0.558 -1.242,0.391"
           style="fill:none;stroke:#000000;stroke-width:0.85;stroke-linecap:round;stroke-linejoin:round;stroke-miterlimit:10;stroke-dasharray:none;stroke-opacity:1"
           id="path30" /></g><g
         id="g32"><path
           d="M 61.727,18.18 61.352,17.73 61.164,17.34 61.043,16.949 60.977,16.5 v -1.23 l 0.066,0.39 0.121,0.613 0.188,1.012 0.246,1.176 0.25,1.285 0.312,1.402 0.375,1.399 0.371,1.625 0.375,1.851 0.309,2.071 0.5,2.406 0.437,2.633 0.559,2.746 0.559,2.969 0.496,3.246 0.562,3.418 0.559,3.586 0.625,3.804 0.621,3.981 0.562,4.199 0.684,4.199 0.621,4.258 0.746,4.145 0.75,3.976 0.867,4.031 0.938,3.977 1.058,3.922 1.118,3.922 1.179,3.863 1.188,3.809 1.242,3.64 1.309,3.477 1.242,3.246 1.308,3.023 1.368,2.914 1.308,2.746 1.371,2.575 1.367,2.406 1.368,2.242 1.433,2.07 1.434,1.852 1.492,1.625 1.555,1.512 1.554,1.343 1.555,1.122 1.559,0.949 1.554,0.785 1.492,0.559 1.497,0.449 2.984,0.672 1.496,0.281 1.367,0.336 1.309,0.336 1.179,0.277 1.126,0.227 1.121,0.109 1.117,0.113 1.121,0.114 h 1.18 l 1.246,-0.055 1.308,-0.227 1.43,-0.336 1.371,-0.394 1.43,-0.5 1.492,-0.563 1.492,-0.668 1.496,-0.73 1.555,-0.785 1.496,-0.895 1.555,-0.953 1.554,-1.008 1.559,-1.066 1.676,-1.117 1.621,-1.176 1.742,-1.176 3.609,-2.469 1.868,-1.398 1.804,-1.457 1.93,-1.512 2.055,-1.625 2.238,-1.789 2.367,-1.851 2.363,-1.903 2.301,-1.961 2.305,-1.902 2.18,-1.961 2.238,-2.016 2.304,-2.187 2.305,-2.129 2.238,-2.07 2.239,-1.848 2.054,-1.68 2.055,-1.402 1.93,-1.289 1.867,-1.063 1.805,-0.953 1.679,-0.785 1.493,-0.613 1.492,-0.449 1.433,-0.278 1.305,-0.226 1.246,-0.059 1.184,-0.055 1.117,0.055 0.996,0.227 1.059,0.222 0.996,0.336 1.121,0.395 1.058,0.39 1.184,0.45 1.242,0.449 1.246,0.504 1.305,0.449 1.246,0.555 1.184,0.394 1.054,0.563 1.059,0.558 0.996,0.618 0.938,0.781 0.867,0.785 0.812,0.84 0.871,0.84 0.746,0.898 0.809,0.895 0.871,0.894 0.746,0.953 0.871,0.953 0.809,0.953 0.746,0.954 0.746,0.949 0.75,1.012 0.621,1.003 0.684,0.954 0.625,1.007 0.558,0.954 0.621,1.007 0.563,0.953 0.558,1.063 0.622,1.066 0.562,1.176 0.559,1.121 0.625,1.176 0.496,1.176 0.5,1.117 0.496,1.121 0.437,1.012 0.434,1.004 0.559,1.011 0.375,1.004 0.437,0.953 0.434,0.954 0.375,1.007 0.496,1.063 0.375,1.121 0.433,1.234 0.496,1.231 0.438,1.23 0.5,1.235 0.371,1.121 0.438,1.066 0.433,1.063 0.375,1.117 0.371,1.066 0.313,0.953 0.371,0.954 0.312,1.003 0.375,1.176 0.309,1.289 0.25,1.289 0.25,1.121 0.246,1.008 0.191,0.84 0.184,0.785 0.25,0.559 0.125,0.449 0.125,0.504 0.184,0.504 0.25,0.558 0.25,0.618 0.183,0.617 0.192,0.613 0.062,0.563 0.059,0.562 0.062,0.391 v 1.511 l 0.129,0.559 0.121,0.785 0.125,0.785 0.188,0.95 0.187,0.898 0.184,0.898 0.125,0.727 0.125,0.504 0.125,0.391 0.125,0.394 0.125,0.391 v 0.558 l 0.062,0.391 0.059,0.394"
           style="fill:none;stroke:#808080;stroke-width:0.85;stroke-linecap:round;stroke-linejoin:round;stroke-miterlimit:10;stroke-dasharray:none;stroke-opacity:1"
           id="path34" /></g><g
         id="g36"><path
           d="m 238.031,116.809 0.125,0.394 0.125,0.281 0.188,0.336 0.25,0.504 0.246,0.391 0.187,0.558 0.25,0.508 0.121,0.504 0.25,0.445 0.188,0.45 0.187,0.445 0.188,0.34 0.062,0.504 0.125,0.336 0.122,0.39 0.187,0.563 0.188,0.504 0.187,0.726 0.121,0.672 0.129,0.727 0.184,0.73 0.25,0.731 0.187,0.613 0.188,0.617 0.25,0.672 0.246,0.727 0.25,0.785 0.308,0.894 0.375,0.953 0.25,0.953 0.375,1.008 0.371,0.895 0.184,0.898 0.25,0.895 0.25,0.84 0.25,0.785 0.246,0.84 0.191,0.894 0.059,1.012 0.188,1.117 0.187,1.176 0.188,1.348 0.246,1.398 0.129,1.512 0.183,1.457 0.188,1.453 0.187,1.402 0.25,1.399 0.246,1.457 0.188,1.515 0.25,1.512 0.183,1.566 0.25,1.567 0.25,1.512 0.25,1.515 0.184,1.399 0.125,1.347 0.125,1.231 0.062,1.121 0.063,0.949 v 1.402 l -0.063,0.336 -0.25,-0.394 -0.246,-0.668"
           style="fill:none;stroke:#008000;stroke-width:0.85;stroke-linecap:round;stroke-linejoin:round;stroke-miterlimit:10;stroke-dasharray:none;stroke-opacity:1"
           id="path38" /></g><g
         id="g40"><path
           d="m 221.418,87.91 0.184,0.395 0.25,0.445 0.375,0.395 0.246,0.335 0.25,0.559 0.25,0.391 0.25,0.394 0.496,0.781 0.25,0.563 0.183,0.391"
           style="fill:none;stroke:#008000;stroke-width:0.85;stroke-linecap:round;stroke-linejoin:round;stroke-miterlimit:10;stroke-dasharray:none;stroke-opacity:1"
           id="path42" /></g><g
         id="g44"><path
           d="m 230.066,100.062 v 0.336 l 0.063,0.395 0.25,0.391 0.187,0.394 0.246,0.281 0.438,0.446 0.309,0.558 0.187,0.395 0.375,1.008"
           style="fill:none;stroke:#008000;stroke-width:0.85;stroke-linecap:round;stroke-linejoin:round;stroke-miterlimit:10;stroke-dasharray:none;stroke-opacity:1"
           id="path46" /></g><g
         id="g48"><path
           d="m 234.359,108.691 0.313,0.278 0.187,0.394 0.25,0.504 0.184,0.559 0.25,0.617 0.184,0.559 0.191,0.617"
           style="fill:none;stroke:#008000;stroke-width:0.85;stroke-linecap:round;stroke-linejoin:round;stroke-miterlimit:10;stroke-dasharray:none;stroke-opacity:1"
           id="path50" /></g><g
         id="g52"><path
           d="m 62.41,15.098 -0.125,0.336 -0.125,0.621 v 1.453 l 0.125,0.562 0.063,0.614 0.125,0.671 0.062,0.672 0.121,0.618 0.129,0.562 0.059,0.555 0.125,0.562 0.062,0.617 0.063,0.672 0.062,0.727 0.125,0.844 0.059,0.949 0.066,0.953 0.063,1.062 0.121,1.008 v 1.008 l 0.062,1.012 0.063,0.949 0.125,0.898 0.062,0.84 0.125,0.782 0.125,0.73 0.125,0.895 0.184,0.898 0.187,0.949 0.25,1.067 0.375,2.015 0.122,0.953 0.062,0.895 0.129,0.84 0.121,0.785 0.125,0.84 0.25,0.785 0.188,0.898 0.183,0.895 0.25,0.949 0.188,1.066 0.246,1.067 0.191,1.176 0.246,1.175 0.125,1.176 0.188,1.231 0.187,1.234 0.184,1.34 0.129,1.402 0.183,1.399 0.125,1.461 0.188,1.398 0.187,1.402 0.246,1.34 0.188,1.289 0.25,1.289 0.184,1.344 0.124,1.285 0.126,1.289 0.187,1.293 0.125,1.285 0.125,1.29 0.121,1.343 0.129,1.344 0.121,1.344 0.125,1.402 0.125,1.289 0.063,1.231 0.125,1.23 0.125,1.121 0.062,1.176 0.184,1.18 0.187,1.23 0.125,1.344 0.313,1.344 0.187,1.343 0.246,1.344 0.375,1.235 0.246,1.23 0.625,2.578 0.313,1.399 0.371,1.343 0.312,1.457 0.375,1.457 0.372,1.399 0.312,1.398 0.371,1.235 0.188,1.289 0.375,1.23 0.246,1.289 0.312,1.344 0.375,1.402 0.309,1.344 0.375,1.344 0.371,1.289 0.375,1.289 0.371,1.285 0.375,1.289 0.375,1.176 0.371,1.121 0.375,1.066 0.375,1.004 0.375,0.953 0.371,1.008 0.434,1.012 0.496,1.117 0.5,1.121 0.559,1.063 0.437,1.066 0.5,0.949 0.496,0.954 0.5,0.839 0.559,0.899 0.558,0.785 0.434,0.84 0.504,0.84 0.496,0.839"
           style="fill:none;stroke:#008000;stroke-width:0.85;stroke-linecap:round;stroke-linejoin:round;stroke-miterlimit:10;stroke-dasharray:none;stroke-opacity:1"
           id="path54" /></g><g
         id="g56"><g
           id="g58" /><g
           id="g72"><g
             clip-path="url(#clipPath62)"
             id="g70"><g
               id="g68"><g
                 id="g66"><path
                   d="m 51.734,27.555 -0.062,-0.344 -0.254,0.172 0.254,0.629 0.187,0.285 0.254,0.398 0.129,0.403 0.192,0.457 0.128,0.402 0.059,0.34 0.067,0.457 0.062,0.402 v 0.34 l 0.066,0.516 0.254,0.511 0.188,0.629 0.066,0.403 0.125,0.511 0.188,0.575 0.066,0.457 0.063,0.742 0.125,0.855 0.066,0.512 0.063,0.402 0.066,0.571 0.059,0.629 0.066,0.629 v 0.343 l 0.062,0.344 0.125,0.57 v 0.629 l 0.067,0.344 0.129,0.281 0.125,0.516 0.062,0.515 0.125,0.286 0.067,0.343 0.129,0.684 0.125,0.457 0.128,0.742 0.063,0.461 0.062,0.34 0.063,0.516 0.066,0.457 0.125,0.683 0.063,0.344 0.129,0.285 0.062,0.399 0.192,0.402 0.125,0.398 0.129,0.457 0.125,0.516 0.129,0.512 0.124,0.343 0.063,0.457 0.129,0.344 0.191,0.571 0.125,0.515 0.063,0.399 0.129,0.511 0.125,0.289 0.129,0.399 0.062,0.457 0.192,0.457 0.062,0.457 0.063,0.344 0.066,0.398 0.062,0.344 0.063,0.398 0.129,0.344 0.062,0.399 0.192,0.46 0.125,0.399 0.129,0.398 0.125,0.403 v 0.8 l 0.062,0.399 0.129,0.402 0.254,0.742 0.062,0.512 0.063,0.457 0.066,0.457 0.063,0.516 0.062,0.34 0.063,0.742 v 0.629 l 0.066,0.344 0.188,0.57 0.066,0.398 0.063,0.344 v 0.574 l 0.062,0.399 0.129,0.629 0.125,0.742 0.063,0.344 0.066,0.343 0.125,0.399 0.129,0.457 0.125,0.629 0.062,0.343 0.192,0.571 0.062,0.457 0.129,0.457 0.125,0.515 0.067,0.512 0.125,0.457 0.129,0.399 0.062,0.457 0.125,0.402 0.066,0.457 0.063,0.625 0.125,0.574 0.066,0.684 0.063,0.574 0.062,0.629 0.192,0.57 0.125,0.399 0.383,1.031 0.125,0.512 0.191,1.031 0.254,0.512 0.191,0.457 0.254,0.629 0.192,0.511 0.125,0.403 0.128,0.457 0.126,0.339 0.128,0.458 0.125,0.402 0.129,0.398 0.188,0.516 0.129,0.344 0.187,0.34 0.196,0.343 0.253,0.516 0.188,0.512 0.125,0.343 0.254,0.629 0.129,0.457 0.125,0.457 0.195,0.457 0.125,0.512 0.129,0.461 0.125,0.516 0.129,0.566 0.125,0.516 0.129,0.402 0.125,0.457 0.129,0.344 0.254,0.797 0.187,0.57 0.125,0.344 0.129,0.398 0.066,0.344 v 0.687 l 0.188,0.512 0.191,0.457 0.063,0.399 0.129,0.632 0.191,0.856 0.063,0.512 0.125,0.519 0.129,0.567 0.062,0.574 0.063,0.398 0.128,0.516 0.063,0.398 0.062,0.457 0.192,0.629 0.062,0.512 0.192,0.687 0.129,0.571 0.125,0.574 0.129,0.57 0.125,0.571 0.191,0.515 0.125,0.57 0.066,0.399 0.125,0.461 0.063,0.34 0.191,0.402 0.192,0.512 0.316,0.512 0.254,0.457 0.191,0.46 0.188,0.399 0.254,0.516 0.191,0.687 0.254,0.625 0.254,0.688 0.129,0.628 0.187,0.625 0.129,0.516 0.192,0.57 0.125,0.512 0.191,0.574 0.192,0.571 0.187,0.629 0.191,0.57 0.192,0.629 0.254,0.57 0.191,0.629 0.188,0.574 0.129,0.512 0.066,0.402 0.059,0.399 0.128,0.343 0.192,0.399 0.129,0.344 0.125,0.343 0.187,0.399 0.196,0.402 0.187,0.457 0.32,0.742 0.379,0.684 0.508,0.742 0.317,0.629 0.191,0.398 0.125,0.29 0.32,0.457 0.254,0.343 0.442,0.625 0.254,0.399 0.253,0.515 0.321,0.344 0.254,0.227 0.254,0.343 0.312,0.29 0.254,0.281 0.32,0.344 0.317,0.171 0.32,0.344 0.316,0.285 0.317,0.34 0.383,0.402 0.316,0.231 0.191,0.398 0.508,0.457 0.317,0.399 0.379,0.23 0.445,0.285 0.316,0.34 0.637,0.575 0.316,0.343 0.379,0.344 0.383,0.398 0.254,0.34 0.445,0.344 0.254,0.231 0.379,0.226 0.317,0.231 0.574,0.511 0.695,0.516 0.574,0.285 0.317,0.231 0.254,0.168 0.253,0.171 0.446,0.344 0.508,0.227 0.316,0.23 0.254,0.172 0.445,0.172 0.254,0.227 0.317,0.117 0.382,0.168 0.633,0.289 0.383,0.285 0.441,0.172 0.383,0.226 0.446,0.227 0.378,0.176 0.446,0.168 0.445,0.23 0.441,0.227 0.891,0.515 0.633,0.227 0.508,0.176 0.574,0.281 0.57,0.23 0.508,0.172 0.57,0.172 0.7,0.168 0.507,0.176 0.571,0.113 0.574,0.172 1.074,0.113 0.574,0.059 0.571,0.055 0.636,0.058 0.571,0.055 0.57,0.058 0.953,0.059 h 2.793 l 0.699,0.055 0.383,0.058 h 0.379 l 0.762,-0.058 0.633,-0.055 h 0.507 l 0.571,-0.059 0.383,-0.058 0.824,-0.113 0.508,-0.055 0.378,-0.113 0.704,-0.118 0.379,-0.058 0.316,-0.055 h 0.32 l 0.317,-0.058 0.699,-0.114 0.379,-0.058 0.636,-0.114 0.508,-0.113 0.317,-0.058 0.316,-0.114 0.699,-0.113 0.317,-0.059 0.57,-0.172 0.445,-0.058 0.317,-0.113 0.316,-0.055 0.574,-0.113 0.379,-0.059 0.571,-0.23 0.382,-0.114 0.321,-0.058 h 0.441 l 0.379,-0.059 0.508,-0.113 0.383,-0.11 0.32,-0.058 0.57,-0.172 0.317,-0.113 0.57,-0.117 0.383,-0.114 0.441,-0.172 0.321,-0.113 0.378,-0.172 0.383,-0.172 0.379,-0.172 0.383,-0.168 0.254,-0.175 0.508,-0.227 0.441,-0.23 0.383,-0.227 0.633,-0.34 0.32,-0.176 0.379,-0.168 0.316,-0.175 0.637,-0.227 0.254,-0.172 0.316,-0.113 0.317,-0.172 0.574,-0.398 0.254,-0.172 0.316,-0.285 0.254,-0.172 0.317,-0.344 0.191,-0.344 0.383,-0.285 0.254,-0.172 0.379,-0.285 0.254,-0.226 0.316,-0.231 0.379,-0.344 0.32,-0.226 0.696,-0.516 0.32,-0.113 0.316,-0.227 0.383,-0.285 0.316,-0.289 0.317,-0.285 0.254,-0.227 0.445,-0.23 0.316,-0.285 0.383,-0.285 0.379,-0.231 0.317,-0.34 0.32,-0.226 0.379,-0.344 0.699,-0.688 0.379,-0.398 0.191,-0.344 0.446,-0.402 0.191,-0.285 0.379,-0.344 0.316,-0.281 0.254,-0.344 0.321,-0.23 0.253,-0.227 0.188,-0.285 0.254,-0.231 0.254,-0.402 0.254,-0.223 0.449,-0.402 0.379,-0.285 0.316,-0.289 0.254,-0.34 0.317,-0.402 0.382,-0.399 0.379,-0.285 0.321,-0.285 0.316,-0.285 0.379,-0.344 0.383,-0.402 0.379,-0.34 0.379,-0.403 0.382,-0.339 0.446,-0.403 0.382,-0.34 0.379,-0.402 0.383,-0.227 0.188,-0.343 0.383,-0.231 0.632,-0.57 0.192,-0.285 0.383,-0.344 0.378,-0.34 0.317,-0.172 0.508,-0.687 0.254,-0.457 0.191,-0.512 0.254,-0.574 0.254,-0.281 0.508,-0.403 0.253,-0.172 0.126,-0.285 0.191,-0.457 0.508,-0.457 0.191,-0.289 0.379,-0.223 0.32,-0.343 0.188,-0.403 0.383,-0.343 0.699,-0.571 0.383,-0.34 0.254,-0.23 0.378,-0.344 0.383,-0.344 0.379,-0.285 0.383,-0.285 0.379,-0.285 0.316,-0.168 0.254,-0.176 0.446,-0.285 0.378,-0.34 0.637,-0.402 0.317,-0.172 0.382,-0.344 0.254,-0.226 0.379,-0.285 0.317,-0.172 0.382,-0.285 0.317,-0.172 0.637,-0.403 0.316,-0.168 0.316,-0.343 0.825,-0.512 0.507,-0.402 0.383,-0.344 0.571,-0.399 0.382,-0.343 0.254,-0.231 0.379,-0.285 0.254,-0.227 0.383,-0.343 0.254,-0.344 0.445,-0.57 0.508,-0.684 0.312,-0.516 0.383,-0.457 0.379,-0.629 0.383,-0.457 0.379,-0.457 0.383,-0.339 0.32,-0.403 0.441,-0.515 0.383,-0.344 0.379,-0.113 0.32,-0.286 0.379,-0.339 0.254,-0.172 0.317,-0.231 0.382,-0.285 0.508,-0.285 0.317,-0.231 0.507,-0.054 0.571,-0.059 h 0.445 l 0.508,-0.055 h 0.316 l 0.383,-0.058 0.633,-0.055 h 0.316 l 0.575,-0.058 h 3.617 l 0.57,0.058 0.508,0.168 0.633,0.172 0.382,0.172 0.508,0.113 0.321,0.059 0.57,0.113 0.379,0.113 0.574,0.403 0.441,0.339 0.254,0.231 0.254,0.285 0.321,0.457 0.316,0.399 0.379,0.461 0.32,0.398 0.188,0.344 0.254,0.34 0.191,0.285 0.254,0.343 0.254,0.29 0.191,0.281 0.442,0.461 0.507,0.398 0.383,0.285 0.192,0.285 v -0.343 l -0.067,-0.344 -0.125,-0.398 -0.129,-0.571 -0.316,-0.629 -0.316,-0.57 -0.383,-0.801 -0.379,-0.574 -0.254,-0.453 -0.254,-0.457 -0.316,-0.344 -0.254,-0.344 -0.254,-0.398 -0.317,-0.285 -0.32,-0.344 -0.57,-0.57 -0.254,-0.231 -0.379,-0.398 -0.32,-0.227 -0.317,-0.289 0.254,0.231 0.57,0.226 0.321,0.117 0.508,0.227 0.57,0.23 0.316,0.114 0.571,0.23 0.32,0.113 0.633,0.34 0.316,0.231 0.445,0.226 0.254,0.172 0.446,0.285 0.379,0.176 0.316,0.223 0.449,0.344 0.313,0.23 0.383,0.227 0.378,0.398 0.196,0.402 0.566,0.516 0.383,0.398 0.254,0.457 0.191,0.344 0.188,0.285 0.383,0.516 0.254,0.227 0.253,0.285 0.254,0.402 0.317,0.398 0.32,0.516 0.254,0.172 0.441,0.453 0.129,0.289 0.254,0.399 0.254,0.226 0.379,0.289 0.191,0.285 0.254,0.512 0.192,0.344 0.316,0.23 0.57,0.571 0.254,0.23 0.383,0.567 0.379,0.289 0.254,0.343 0.254,0.457 0.383,0.512 0.254,0.285 0.125,0.289 0.128,0.399 0.254,0.226 0.192,0.285 0.316,0.457 0.192,0.29 0.187,0.285 0.254,0.457 0.254,0.398 0.254,0.344 0.254,0.398 0.32,0.403 0.188,0.453 0.128,0.402 0.317,0.57 0.254,0.403 0.191,0.281 0.254,0.52 0.129,0.339 0.187,0.286 0.446,0.574 0.254,0.34 0.254,0.515 0.129,0.571 0.253,0.683 0.188,0.403 0.191,0.343 0.129,0.344 0.254,0.398 0.254,0.286 0.125,0.285 0.063,0.344 0.191,0.457 0.129,0.285 0.316,0.57 0.125,0.285 0.192,0.285 0.191,0.457 0.191,0.399 0.125,0.289 0.254,0.398 0.129,0.344 0.254,0.512 0.254,0.574 0.125,0.285 0.191,0.457 0.379,0.742 0.129,0.286 0.254,0.515 0.508,1.141 0.188,0.344 0.253,0.398 0.192,0.344 0.129,0.343 0.125,0.575 0.129,0.398 0.254,0.57 0.062,0.344 0.254,0.399 0.125,0.285 0.129,0.285 0.125,0.574 0.129,0.399 0.254,0.628 0.254,0.399 0.254,0.57 0.124,0.457 0.067,0.399 0.062,0.519 0.125,0.34 0.129,0.457 0.067,0.344 0.125,0.57 0.129,0.571 0.058,0.574 0.067,0.343 0.129,0.797 0.058,0.457 0.067,0.399 0.062,0.687 0.125,0.688 0.066,0.398 v 0.403 l 0.129,0.511 v 0.512 l 0.125,0.574 0.129,0.457 0.188,0.512 0.125,0.457 0.129,0.516 0.066,0.57 0.059,0.344 0.191,0.687 0.191,0.512 0.125,0.285 0.192,0.344 0.129,0.457 0.125,0.457 0.191,0.457 0.192,0.285 0.191,0.344 0.187,0.285 0.129,0.285 0.125,0.344 0.129,0.344 0.254,0.339 0.125,0.403 0.254,0.398 0.32,0.399 0.508,0.289 0.313,0.168 h 0.383 l -0.254,-0.512 -0.508,-0.629 -0.379,-0.344 -0.383,-0.457 -0.254,-0.285 -0.379,-0.34 -0.383,-0.343 -0.378,-0.399 -0.383,-0.344 -0.254,-0.343 -0.254,-0.289 -0.316,-0.512 -0.254,-0.57 -0.129,-0.344 -0.188,-0.34 -0.379,-0.688 -0.32,-0.574 -0.187,-0.281 -0.129,-0.344 -0.192,-0.457 -0.187,-0.457 -0.129,-0.629 -0.254,-0.914 -0.129,-0.402 -0.125,-0.399 -0.254,-0.742 -0.191,-0.457 -0.254,-0.402 -0.508,-1.024 -0.316,-0.519 -0.321,-0.57 -0.441,-0.571 -0.574,-0.57 -0.508,-0.629 -0.57,-0.629 -0.508,-0.629 -0.887,-0.914 -0.383,-0.453 -0.379,-0.344 -0.383,-0.402 -0.382,-0.344 -0.442,-0.285 -0.379,-0.398 -0.383,-0.344 -0.32,-0.344 -0.379,-0.281 -0.316,-0.289 -0.254,-0.399 -0.379,-0.23 -0.254,-0.399 -0.383,-0.402 -0.316,-0.398 -0.32,-0.399 -0.508,-0.687 -0.317,-0.34 -0.632,-0.629 -0.383,-0.402 -0.379,-0.344 -0.508,-0.453 -0.574,-0.457 -0.57,-0.574 -0.571,-0.571 -0.637,-0.515 -0.507,-0.512 -0.571,-0.457 -0.379,-0.457 -0.445,-0.457 -0.57,-0.399 -0.445,-0.519 -1.141,-1.024 -0.637,-0.629 -0.574,-0.687 -0.695,-0.742 -0.633,-0.742 -0.508,-0.684 -0.508,-0.574 -0.511,-0.571 -0.379,-0.343 -0.508,-0.512 -0.762,-0.801 -0.953,-0.914 -1.141,-0.914 -0.507,-0.457 -0.575,-0.398 -0.379,-0.344 -0.445,-0.289 -0.762,-0.34 -0.254,-0.172 -0.378,-0.172 -0.704,-0.285 -0.441,-0.172 -0.379,-0.113 -0.508,-0.113 -0.383,-0.118 -1.015,-0.226 -0.508,-0.117 -0.445,-0.055 -0.571,-0.113 -0.382,-0.059 -0.313,-0.055 h -0.957 l -0.441,0.114 -0.383,0.457 -0.125,0.34 -0.129,0.457 -0.125,0.515 -0.066,0.516 v 2.226 l 0.066,0.629 v 0.512 l 0.062,0.574 -0.062,0.801 v 0.629 l 0.062,0.57 0.125,0.512 0.254,0.688 0.254,0.683 0.254,0.688 0.383,0.625 0.254,0.574 0.32,0.457 0.254,0.344 0.313,0.343 0.636,0.227 0.571,0.113 0.761,0.172 0.828,0.172 0.95,0.113 1.015,0.172 1.082,0.172 1.078,0.172 1.079,0.168 0.953,0.176 0.953,0.168 0.949,0.117 0.824,0.113 0.762,0.059 0.762,0.109 0.761,0.289 0.637,0.231 0.633,0.281 0.957,0.629 0.379,0.457 0.508,0.402 0.699,0.629 0.633,0.625 0.824,0.687 0.699,0.688 0.762,0.684 0.699,0.683 0.699,0.688 0.696,0.687 0.699,0.629 0.508,0.625 0.57,0.457 0.445,0.516 0.446,0.57 0.507,0.516 0.442,0.629 0.449,0.57 0.379,0.57 0.695,0.914 0.574,0.742 0.254,0.344 0.188,0.399 0.195,0.289 0.059,0.343 0.066,0.34 v 0.403 l -0.066,0.457 v 0.453 l -0.125,0.457 -0.129,0.344 -0.059,0.511 v 1.086 h 1.203 l 0.321,0.059 0.316,0.172 0.379,0.226 0.254,0.289 0.191,0.399 -0.062,0.398 -0.129,0.289 -0.316,0.285 -0.508,0.286 -0.633,0.113 h -1.465 l -0.508,0.172 -0.508,0.113 h -0.441 l -0.445,0.117 -0.254,-0.176 -0.125,-0.398 v -0.57 l 0.25,-0.516 0.383,-0.457 0.507,-0.512 0.575,-0.574 0.566,-0.457 0.637,-0.344 0.574,-0.453 0.57,-0.285 0.633,-0.285 0.574,-0.231 0.633,-0.171 0.637,-0.114 0.633,-0.058 0.57,-0.055 h 1.332 l 0.383,-0.059 h 1.332 l 0.445,0.172 0.321,0.285 0.253,0.231 0.313,0.344 0.254,0.281 0.449,0.23 0.313,0.114 0.382,0.398 0.254,0.402 0.254,0.399 0.192,0.285 0.254,0.289 0.124,0.285 v 1.258 l 0.067,0.512 h -0.574 l -0.508,-0.114 -0.317,-0.058 -0.57,-0.172 -0.574,-0.168 -0.313,-0.117 -0.703,-0.172 -0.316,-0.055 -0.445,-0.117 -0.379,-0.059 -0.446,-0.054 -0.507,-0.059 -0.446,-0.054 -0.633,-0.059 -0.507,-0.055 -0.571,-0.117 -0.57,-0.055 -0.637,-0.058 -0.57,-0.055 -0.762,-0.113 h -1.715 l -0.699,-0.059 -0.508,-0.117 -0.507,-0.113 -0.637,-0.172 -0.824,-0.172 -0.317,-0.055 -0.316,-0.058 -0.383,-0.055 -0.379,-0.059 h -0.508 l -0.508,-0.058 -0.57,-0.113 -0.508,-0.114 -0.574,-0.172 -0.633,-0.226 -0.699,-0.231 -0.633,-0.343 -0.636,-0.399 -0.633,-0.344 -0.446,-0.343 -0.507,-0.227 -0.446,-0.172 -0.507,-0.285 -0.571,-0.344 -0.574,-0.398 -0.695,-0.516 -0.7,-0.457 -0.761,-0.515 -0.762,-0.512 -0.762,-0.457 -0.89,-0.461 -0.825,-0.453 -0.824,-0.457 -0.633,-0.574 -0.636,-0.399 -0.571,-0.516 -0.57,-0.511 -0.637,-0.574 -0.632,-0.684 -0.637,-0.742 -0.699,-0.914 -0.696,-0.969 -0.828,-0.977 -0.762,-1.023 -0.824,-0.973 -0.761,-0.859 -0.637,-0.684 -0.567,-0.515 -0.449,-0.399 -0.312,-0.398 -0.383,-0.231 -0.192,-0.285 -0.316,-0.34 -0.32,-0.289 -0.571,-0.57 -0.379,-0.285 -0.761,-0.856 -0.321,-0.175 -0.253,-0.168 -0.317,-0.286 -0.254,-0.289 -0.316,-0.226 -0.254,-0.344 -0.316,-0.285 -0.317,-0.172 -0.254,-0.227 -0.508,-0.343 -0.32,-0.227 -0.57,-0.461 -0.633,-0.34 -0.449,-0.285 -0.313,-0.23 -0.508,-0.344 h -0.382 l -0.446,-0.059 -0.382,-0.054 h -0.758 l -0.321,0.054 -0.316,0.118 -0.316,0.113 -0.571,0.516 -0.254,0.343 -0.32,0.34 -0.316,0.289 -0.254,0.281 -0.254,0.344 -0.317,0.285 -0.253,0.403 -0.317,0.398 -0.32,0.344 -0.317,0.457 -0.316,0.344 -0.445,0.457 -0.633,0.629 -0.445,0.339 -0.317,0.231 -0.32,0.398 -0.379,0.231 -0.254,0.226 -0.316,0.231 -0.321,0.285 -0.316,0.285 -0.317,0.34 -0.382,0.402 -0.504,0.344 -0.508,0.453 -0.574,0.344 -0.571,0.402 -0.574,0.516 -0.633,0.398 -0.695,0.516 -0.766,0.512 -0.699,0.343 -0.695,0.399 -0.699,0.289 -0.7,0.34 -0.632,0.344 -0.762,0.226 -0.699,0.402 -0.7,0.172 -0.632,0.285 -0.637,0.286 -0.637,0.171 -0.566,0.227 -0.574,0.172 -0.508,0.172 -0.696,0.344 -0.828,0.226 -0.886,0.344 -0.575,0.285 -0.312,0.172 -0.574,0.285 -0.508,0.231 -0.383,0.226 -0.633,0.231 -0.89,0.453 -0.571,0.23 -0.507,0.227 -0.571,0.343 -0.699,0.29 -0.695,0.226 -0.762,0.402 -0.762,0.282 -0.761,0.343 -0.829,0.399 -0.89,0.402 -0.887,0.399 -0.891,0.398 -0.824,0.402 -0.824,0.344 -0.887,0.344 -0.828,0.34 -0.887,0.344 -0.824,0.343 -0.828,0.399 -0.887,0.226 -0.824,0.344 -0.828,0.231 -0.887,0.343 -0.824,0.344 -0.891,0.227 -0.761,0.343 -0.762,0.172 -0.762,0.227 -0.695,0.172 -0.766,0.058 -0.761,0.114 -0.7,0.113 -0.695,0.113 -0.699,0.117 -0.699,0.114 h -0.696 l -0.699,0.054 h -1.332 l -0.574,0.059 -0.637,0.058 -0.633,0.114 -0.632,0.058 -0.637,0.055 h -0.442 l -0.511,0.059 h -0.887 l -0.637,-0.059 h -3.234 l -0.574,-0.055 h -7.614 l -0.574,-0.058 -0.699,-0.055 -1.078,-0.117 -0.633,-0.059 -0.574,-0.054 -0.696,-0.059 -0.636,-0.055 -0.571,-0.058 -0.57,-0.118 -0.508,-0.054 -0.636,-0.113 -0.7,-0.114 -1.523,-0.344 -0.695,-0.171 -0.7,-0.172 -0.632,-0.172 -0.637,-0.113 -0.633,-0.172 -0.637,-0.114 -0.632,-0.117 -0.637,-0.109 -0.699,-0.117 -0.7,-0.172 -0.632,-0.113 -0.7,-0.172 -0.632,-0.286 -0.637,-0.23 -0.633,-0.168 -0.574,-0.23 -0.633,-0.227 -0.637,-0.23 -0.633,-0.172 -0.636,-0.285 -0.571,-0.172 -0.574,-0.286 -1.265,-0.57 -0.637,-0.344 -0.699,-0.343 -0.696,-0.344 -0.632,-0.281 -0.637,-0.403 -0.574,-0.285 -0.508,-0.398 -0.571,-0.344 -0.445,-0.344 -0.508,-0.398 -0.57,-0.403 -0.445,-0.398 -0.508,-0.398 -0.57,-0.457 -0.446,-0.403 -0.504,-0.512 -0.507,-0.46 -0.508,-0.571 -0.383,-0.398 -0.379,-0.512 -0.383,-0.402 -0.379,-0.399 -0.32,-0.461 -0.383,-0.398 -0.441,-0.512 -0.379,-0.402 -0.449,-0.512 -0.379,-0.457 -0.317,-0.461 -0.379,-0.566 -0.382,-0.574 -0.383,-0.516 -0.379,-0.57 -0.254,-0.516 -0.383,-0.566 -0.316,-0.575 -0.317,-0.625 -0.445,-0.632 -0.379,-0.684 -0.445,-0.684 -0.445,-0.742 -0.379,-0.746 -0.446,-0.855 -0.382,-0.914 -0.379,-0.915 -0.446,-0.972 -0.379,-0.969 -0.382,-1.086 -0.317,-1.09 -0.445,-1.14 -0.317,-1.2 -0.382,-1.144 -0.317,-1.141 -0.254,-1.14 -0.254,-0.973 -0.191,-0.801 -0.187,-0.742 -0.192,-0.57 -0.129,-0.457 -0.125,-0.457 -0.129,-0.457 -0.254,-0.571 -0.25,-0.629 -0.32,-0.687 -0.254,-0.801 -0.187,-0.742 -0.254,-0.801 -0.129,-0.742 -0.125,-0.684 -0.129,-0.855 -0.066,-0.461 -0.059,-0.453 -0.066,-0.629 -0.063,-0.57 -0.066,-0.516 -0.059,-0.688 v -3.14 l -0.066,-0.688 v -0.683 l -0.063,-0.742 -0.066,-0.801 -0.125,-0.856 -0.188,-0.859 -0.195,-0.91 -0.762,-2.918 -0.187,-0.969 -0.125,-0.973 -0.196,-0.914 -0.316,-0.972 -0.254,-0.91 -0.254,-0.915 -0.254,-0.917 -0.125,-0.856 -0.191,-0.801 -0.192,-0.742 -0.191,-0.684 -0.125,-0.57 -0.191,-0.574 -0.125,-0.57 -0.129,-0.571 -0.125,-0.57 -0.067,-0.57 -0.062,-0.575 -0.063,-0.57 -0.062,-0.574 V 77.543 L 49.07,76.914 49.004,76.285 v -0.57 l -0.063,-0.57 -0.062,-0.461 V 74.172 L 48.816,73.66 48.75,72.914 v -3.941 l 0.066,-0.457 0.125,-0.286 0.063,-0.343 v -2.973 l 0.066,-0.34 0.063,-0.859 V 61.832 L 49.07,61.375 V 60.52 L 49.004,60.117 48.941,59.773 48.879,59.262 48.816,58.918 48.688,58.461 48.562,57.777 48.434,57.031 48.371,56.402 48.309,55.777 48.242,55.09 48.18,54.746 v -1.543 l 0.062,-0.566 0.067,-0.633 0.125,-0.625 0.128,-0.629 0.063,-0.633 0.063,-0.398 v -0.571 l 0.062,-0.453 0.066,-0.574 v -1.312 l 0.188,-1.032 0.066,-0.57 v -1.883 l 0.063,-0.344 0.125,-0.343 0.062,-0.344 v -0.742 l 0.067,-0.344 0.062,-0.34 v -0.402 l 0.125,-0.629 V 37.84 l -0.062,-0.344 v -0.344 l -0.063,-0.57 -0.062,-0.344 v -0.515 l -0.067,-0.399 -0.062,-0.344 0.316,0.743 0.383,1.484 0.316,0.859 0.254,0.973 0.254,1.027 0.254,1.082 0.254,1.086 0.254,1.09 0.254,1.028 0.258,1.14 0.761,3.258 0.254,1.145 0.125,1.082 0.129,1.085 0.059,0.973 0.066,0.914 0.063,0.914 0.066,0.856 0.125,0.914 0.129,0.972 0.059,1.028 0.129,1.14 0.066,1.2 0.125,1.257 0.062,1.258 0.067,1.2 V 68 l -0.067,0.918 v 1.48 l -0.062,0.688 v 1.258 l -0.066,0.629 v 0.742 l -0.059,0.742 -0.066,0.746 -0.063,0.797 -0.066,0.742 -0.059,0.742 -0.066,0.629 -0.063,1.032 -0.066,0.398 -0.059,0.398 -0.066,0.457 -0.063,0.344 -0.066,0.512 -0.125,0.742 v 1.43 l -0.063,0.515 v 0.512 l -0.066,0.461 v 0.512 l -0.059,0.742 -0.066,0.687 v 0.512 l -0.063,0.86 v 1.027 l -0.066,0.629 v 0.972 l -0.059,0.344 v 0.453 l -0.128,0.629 v 0.34 l -0.067,0.461 -0.059,0.516 -0.128,0.91 v 0.687 l -0.067,0.629 -0.058,0.399 -0.067,0.683 -0.129,0.688 -0.125,0.574 -0.191,0.457 -0.192,0.512 -0.125,0.285 -0.191,0.516 -0.254,0.796 -0.062,0.344 -0.192,0.57 -0.062,0.688 v 0.344 l -0.129,0.343 0.066,-0.632 0.063,-0.34 0.191,-0.457 0.125,-0.285 0.063,-0.344 0.129,-0.516 0.062,-0.511 v -1.489 l 0.063,-0.34 v -0.402 l 0.066,-0.684 v -2.8 l 0.062,-0.34 0.063,-0.688 V 91.711 L 51.48,91.023 v -0.457 l -0.062,-0.683 -0.129,-0.285 -0.062,-0.344 -0.063,0.57 -0.066,0.344 -0.063,0.512 -0.062,0.402 -0.129,0.742 -0.063,0.344 -0.125,0.398 -0.066,0.344 -0.125,0.399 -0.063,0.343 -0.066,0.399 -0.063,0.515 -0.062,0.399 v 0.574 l -0.063,0.512 v 8.344 l -0.066,0.914 v 0.457 l -0.062,0.968 -0.063,0.801 -0.062,0.57 -0.067,0.571 v 0.687 l -0.062,0.571 -0.063,0.515 -0.062,0.457 -0.129,0.742 -0.125,0.629 v 2.571 l 0.125,0.797 0.062,0.46 0.067,0.34 0.062,0.743 0.063,0.519 v 0.855 l 0.062,0.626 0.067,0.742 v 0.972 l 0.062,0.914 0.063,0.743 v 1.488 l 0.062,0.512 v 1.031 l -0.062,0.512 v 1.027 l -0.063,0.402 v 0.457 l -0.062,0.742 v 1.942 l 0.062,0.914 0.063,0.457 0.062,0.516 0.066,0.914 v 0.398 l 0.063,0.457 0.062,0.856 v 2.515 l 0.063,0.512 v 0.516 l 0.066,0.57 v 0.914 l -0.066,0.742 v 0.688 l -0.063,0.457 v 0.515 l -0.062,0.512 v 2.457 l -0.063,0.629 v 0.684 l -0.066,0.628 -0.125,0.633 -0.062,0.512 -0.129,0.398 -0.063,0.344 v 5.199 l 0.063,0.516 0.062,0.34 0.067,0.402 0.062,0.457 v 1.082 l -0.062,0.918 v 0.856 l -0.067,0.457 v 0.398 l -0.062,0.457 -0.125,0.344 -0.321,0.23 -0.316,0.168 -0.442,0.059 -0.32,0.117 -0.316,0.055 -0.379,0.058 -0.445,0.168 -0.508,0.344 -0.129,0.344 -0.254,0.398 -0.125,0.285 -0.191,0.29 v 0.398 l -0.379,0.059 -0.254,0.285 -0.321,0.113 -0.316,0.113 -0.32,0.055 h -0.379 l -0.317,0.176 0.571,-0.231 0.508,-0.168 0.507,-0.175 0.446,-0.055 0.445,-0.172 0.445,-0.117 0.571,-0.113 0.316,-0.055 0.57,-0.113 0.7,-0.118 0.632,-0.172 0.321,-0.113 0.57,-0.226 0.633,-0.172 h 0.32 l 0.316,-0.059 0.575,-0.058 0.695,-0.055 0.379,-0.059 h 0.703 l 0.566,-0.054 0.383,-0.059 h 0.891 l 0.57,-0.055 h 2.094 l 0.508,-0.058 h 0.445 l 0.57,-0.059 0.317,-0.058 0.383,-0.055 0.316,-0.113 0.316,-0.286 0.321,-0.343 0.254,-0.172 0.379,-0.172 0.445,-0.344 0.445,-0.172 0.254,-0.226 0.188,-0.285 0.066,-0.743 0.062,-0.343 0.063,-0.801 -0.063,-0.742 -0.128,-0.344 -0.254,-0.457 -0.188,-0.57 -0.129,-0.286 -0.125,-0.285 -0.191,-0.289 -0.192,-0.285 -0.445,-0.055 h -1.078 l -0.379,0.055 -0.574,0.117 -0.508,0.227 -0.254,0.285 -0.379,0.574 -0.129,0.399 -0.125,0.398 -0.191,0.516 -0.125,0.511 -0.129,0.403 -0.191,0.457 -0.125,0.515 -0.129,0.399 -0.125,0.515 -0.192,0.34 -0.125,0.344 -0.191,0.402 -0.383,0.457 -0.254,0.286 -0.379,0.511 -0.633,0.516 -0.195,0.285 -0.254,0.172 -0.058,0.398 v 0.86 l 0.125,0.285 0.445,0.059 0.254,0.167 0.379,0.059 0.316,0.055 h 2.793 l 0.383,0.058 0.508,0.059 h 2.664 l 0.574,-0.059 0.379,-0.058 0.383,-0.055 0.57,-0.113 0.317,-0.059 0.507,-0.113 0.446,-0.059 0.382,-0.113 0.567,-0.059 0.32,-0.054 0.317,-0.059 0.32,-0.058 0.566,-0.172 0.762,-0.11 0.449,-0.058 0.379,-0.059 0.445,-0.058 0.317,-0.055 0.57,-0.059 h 0.32 l 0.504,-0.054 h 1.653 l 0.379,0.054 h 0.382 l 0.825,0.059 h 1.586 l 0.449,0.055 h 0.379 l 0.383,0.058 h 0.312 l 0.383,0.059 h 0.316 l 0.383,0.058 h 3.363 l 0.383,0.055 h 0.317 l 0.378,0.055 h 2.415 l 0.378,0.058 h 0.321 l 0.379,0.055 h 0.316 l 0.383,0.059 h 0.316 l 0.7,0.058 h 1.398 l 0.695,0.059 0.379,0.054 0.383,0.059 0.762,0.055 h 2.347 l 0.7,0.058 0.761,0.059 h 11.746 l 0.825,-0.059 h 1.015 l 0.446,-0.058 h 1.14 l 0.762,-0.055 h 4.887 l 0.824,0.055 0.508,0.058 h 8.445 l 0.695,-0.058 h 1.336 l 0.696,-0.055 h 2.48 l 0.633,-0.059 h 0.953 l 0.508,-0.054 h 1.015 l 0.442,-0.059 h 9.777 l 0.824,0.113 0.575,0.059 h 0.441 l 0.637,0.055 0.953,0.058 0.824,0.059 h 1.902 l 0.637,0.059 h 0.379 l 0.508,0.054 0.57,0.059 0.637,0.113 0.699,0.055 1.141,0.117 h 1.207 l 0.761,0.059 h 0.571 l 0.633,0.054 0.703,0.059 0.695,0.055 0.637,0.058 h 0.699 l 0.633,0.059 h 1.715 l 0.57,0.054 h 0.508 l 0.507,0.059 0.571,0.055 h 0.508 l 0.953,0.058 0.508,0.055 h 0.574 l 0.695,0.059 h 0.574 l 0.633,0.058 h 0.57 l 0.637,0.059 h 19.168 l 0.317,0.054 0.32,0.059 h 1.015 l 0.383,0.055 0.442,0.058 h 0.953 l 0.316,0.055 h 0.379 l 0.383,0.059 0.762,-0.059 0.824,-0.055 0.574,-0.058 0.949,-0.055 h 0.446 l 0.382,-0.059 h 0.571 l 0.316,-0.054 h 0.383 l 0.695,-0.059 h 0.383 l 0.316,-0.058 h 0.383 l 0.633,-0.114 0.57,-0.058 0.317,-0.055 h 0.574 l 0.441,-0.059 0.383,-0.054 0.825,-0.117 h 0.445 l 0.508,-0.055 0.828,-0.113 0.566,-0.059 0.508,-0.059 0.637,-0.058 0.636,-0.055 0.508,-0.059 0.633,-0.054 0.953,-0.059 0.57,-0.054 h 0.508 l 0.7,-0.059 h 0.632 l 0.575,-0.059 0.632,-0.058 1.016,-0.114 0.508,-0.054 0.445,-0.059 0.633,-0.117 0.828,-0.113 0.695,-0.055 h 0.446 l 0.574,-0.055 h 0.312 l 0.575,-0.058 0.382,-0.059 0.567,-0.113 h 0.32 l 0.317,-0.059 0.32,-0.054 0.379,-0.059 0.699,-0.117 0.379,-0.113 0.383,-0.055 0.633,-0.113 0.382,-0.059 0.317,-0.059 0.445,-0.058 -0.191,-0.512 -0.383,-0.285 -0.57,-0.402 -0.571,-0.399 -0.508,-0.285 -0.57,-0.402 -0.508,-0.227 -0.57,-0.344 -0.703,-0.34 -0.633,-0.23 -0.695,-0.34 -0.957,-0.289 -1.012,-0.398 -1.207,-0.516 -1.399,-0.57 -1.394,-0.688 -1.399,-0.683 -1.332,-0.684 -1.332,-0.516 -1.144,-0.515 -1.141,-0.399 -1.14,-0.402 -1.145,-0.398 -1.207,-0.399 -1.269,-0.457 -1.27,-0.398 -1.27,-0.457 -2.664,-0.688 -1.398,-0.285 -1.395,-0.23 -1.398,-0.114 -1.398,-0.172 -1.395,-0.113 -1.523,-0.117 -1.653,-0.227 -1.648,-0.226 -1.649,-0.289 -1.718,-0.34 -1.649,-0.231 -1.586,-0.23 -1.523,-0.168 -1.461,-0.055 -1.461,-0.058 h -2.664 l -1.27,0.058 -1.269,0.114 -1.27,0.109 -1.269,0.117 -1.27,0.113 -1.269,0.059 -1.207,0.113 -1.078,0.059 -1.016,0.058 h -0.953 l -0.824,0.055 -0.825,0.059 -0.703,0.113 -0.695,0.055 -0.633,0.117 -0.699,0.113 -0.699,0.059 -0.637,0.113 -0.508,0.059 -0.441,0.054 -0.379,0.059 -0.703,0.168 -0.696,0.23 -0.574,0.114 -0.441,0.058 -0.508,0.114 -0.254,0.171 -0.32,0.172 -0.508,-0.058 h -1.141 l -0.508,-0.055 -0.632,-0.059 -0.446,-0.113 -0.57,-0.058 -0.32,-0.059 h -0.633 l -0.383,-0.055 -0.383,-0.113 h -5.265 l -0.7,0.055 -0.632,0.058 -0.891,0.172 -0.699,0.227 -0.442,0.117 -0.507,0.168 -0.383,0.113 -0.379,0.059 -0.508,0.058 -0.508,0.114 -0.191,0.289 0.633,0.054 0.699,-0.054 0.57,-0.118 0.508,-0.113 0.699,-0.23 0.637,-0.227 0.695,-0.285 0.828,-0.289 0.825,-0.227 0.761,-0.23 0.696,-0.227 0.574,-0.172 0.57,-0.226 0.508,-0.172 0.445,-0.113 0.383,-0.114 0.633,-0.23 0.57,-0.172 0.446,-0.172 0.316,-0.113 0.445,-0.113 0.508,-0.172 0.891,-0.231 0.695,-0.172 0.383,-0.113 0.508,-0.055 0.379,-0.175 0.316,-0.055 0.637,-0.113 0.316,-0.059 0.637,-0.172 0.761,-0.168 0.508,-0.175 0.383,-0.114 0.313,-0.113 0.574,-0.231 0.508,-0.113 0.507,-0.172 0.379,-0.168 0.762,-0.23 0.32,-0.113 0.317,-0.231 0.445,-0.172 0.254,-0.168 0.508,-0.289 0.566,-0.226 0.508,-0.344 0.766,-0.34 0.632,-0.344 0.575,-0.285 0.57,-0.23 0.824,-0.344 0.762,-0.34 0.762,-0.344 0.445,-0.172 0.316,-0.171 0.379,-0.172 0.637,-0.344 0.379,-0.285 0.508,-0.34 0.703,-0.402 0.695,-0.457 0.762,-0.457 0.828,-0.571 0.887,-0.57 0.886,-0.688 1.016,-0.742 1.016,-0.914 1.144,-0.914 1.016,-0.969 1.078,-0.976 0.953,-0.797 0.824,-0.742 0.825,-0.629 0.699,-0.516 0.574,-0.457 0.566,-0.344 0.321,-0.226 0.508,-0.34 0.316,-0.117 0.379,-0.059 -0.442,0.231"
                   style="fill:none;stroke:#99c1f1;stroke-width:19.84;stroke-linecap:round;stroke-linejoin:round;stroke-miterlimit:10;stroke-dasharray:none;stroke-opacity:0.470588"
                   id="path64" /></g></g></g></g></g><g
         id="g74"><path
           d="m 99.625,158.145 0.559,0.617 0.625,0.617 0.433,0.613 0.563,0.563 0.558,0.449 0.375,0.391 0.496,0.335 0.375,0.278 0.371,0.336 0.434,0.394 0.438,0.336 0.437,0.391"
           style="fill:none;stroke:#008000;stroke-width:0.85;stroke-linecap:round;stroke-linejoin:round;stroke-miterlimit:10;stroke-dasharray:none;stroke-opacity:1"
           id="path76" /></g><g
         id="g78"><path
           d="m 107.902,165.258 0.434,0.281 0.625,0.281 0.5,0.164 0.371,0.114 0.496,0.168 0.313,0.113 0.312,0.168 0.371,0.113 0.375,0.168 0.309,0.113 0.312,0.055 0.438,0.055 0.433,0.109 h 0.747 l 0.312,0.059 h -0.621"
           style="fill:none;stroke:#008000;stroke-width:0.85;stroke-linecap:round;stroke-linejoin:round;stroke-miterlimit:10;stroke-dasharray:none;stroke-opacity:1"
           id="path80" /></g><g
         id="g82"><path
           d="m 90.973,147.504 0.625,0.84 0.621,0.953 0.621,1.008 0.683,0.953 0.625,0.894 0.622,0.727 0.5,0.672 0.558,0.562 0.496,0.559 0.5,0.449"
           style="fill:none;stroke:#008000;stroke-width:0.85;stroke-linecap:round;stroke-linejoin:round;stroke-miterlimit:10;stroke-dasharray:none;stroke-opacity:1"
           id="path84" /></g><g
         id="g86"><path
           d="m 228.66,98.602 -0.121,-0.286 0.438,0.395 0.316,0.426 0.434,0.531 0.195,0.285 0.277,0.281 0.274,0.36"
           style="fill:none;stroke:#008000;stroke-width:0.85;stroke-linecap:round;stroke-linejoin:round;stroke-miterlimit:10;stroke-dasharray:none;stroke-opacity:1"
           id="path88" /></g><g
         id="g90"><path
           d="m 249.027,171.633 -0.32,0.058 h -0.316 l -0.192,-0.289 -0.316,-0.281 h -1.524 l -0.379,0.113 -0.253,0.168 -0.383,0.461 -0.321,0.512 -0.125,0.402 -0.191,0.512 -0.062,0.574 v 0.625 l 0.062,0.688 0.508,0.687 0.254,0.282 0.383,0.285 0.253,0.23 0.383,0.113 0.313,0.172 0.383,0.059 0.378,0.113 0.383,0.059 0.379,0.054 h 1.528 l 0.507,-0.054 0.379,-0.172 0.446,-0.344 0.378,-0.515 0.254,-0.512 0.129,-0.516 0.063,-0.453 0.062,-0.633 v -0.511 l -0.062,-0.575 -0.063,-0.34 -0.129,-0.343 -0.187,-0.457 -0.191,-0.344 -0.254,-0.227 -0.192,-0.289 -0.316,-0.285 -0.317,-0.226 -0.32,-0.172 -0.379,-0.227 -0.316,-0.117 -0.383,-0.113 -0.508,-0.172 h -0.316 l -0.379,0.058 -0.449,0.114 -0.442,0.23 -0.32,0.227 -0.313,0.343 -0.254,0.34 -0.128,0.403 -0.125,0.285 -0.067,0.344 -0.062,0.511 v 0.86 l 0.062,0.457 0.254,0.457 0.191,0.285 0.317,0.398 0.32,0.117 0.567,0.227 0.636,0.172 0.446,0.113 0.824,0.114 0.32,0.058 0.57,-0.172 0.254,-0.226 0.317,-0.286 0.379,-0.285 0.191,-0.289 0.254,-0.226 0.254,-0.231 0.254,-0.457 0.191,-0.453 0.063,-0.801 -0.063,-0.457 -0.191,-0.574 -0.125,-0.344 -0.383,-0.453 -0.445,-0.402 -0.442,-0.285 -0.508,-0.227 -0.507,-0.117 -0.571,-0.113 -0.574,-0.055 h -0.762 l -0.441,0.168 -0.32,0.457 -0.129,0.285 -0.379,0.516 -0.188,0.515 -0.066,0.571 -0.063,0.57 v 0.344 l 0.129,0.457 0.254,0.344 0.379,0.343 0.571,0.168 0.32,0.114 0.566,0.23 0.508,0.172 0.449,0.058 0.442,0.059 0.445,-0.117 0.316,-0.285 0.254,-0.285 0.446,-0.575 0.125,-0.281 0.191,-0.289 0.191,-0.57 0.063,-0.516 -0.063,-0.457 -0.382,-0.453 -0.379,-0.231 -0.317,-0.171 -0.254,-0.172 -0.445,-0.114 -0.379,-0.058 h -0.32 l -0.317,0.402 -0.191,0.399 -0.316,0.742 -0.125,0.515 -0.196,0.629 -0.058,0.457 v 0.454 l 0.125,0.402 0.383,0.23 0.312,0.055 0.574,0.059 0.446,-0.059 0.441,-0.23 0.129,-0.399 0.062,-0.742 -0.125,-0.516 -0.445,-0.34 -0.445,-0.171 h -0.317 l -0.191,0.343 -0.129,0.571 v 0.343 l 0.129,0.286 0.574,0.625 0.379,0.058 0.316,-0.058 0.129,-0.282 -0.066,-0.343 -0.188,-0.286 -0.445,-0.402 -0.316,-0.113 -0.383,-0.114 h -0.316 l -0.379,0.286 -0.196,0.457 -0.058,0.457 -0.067,0.398 0.125,0.285"
           style="fill:none;stroke:#ff00ff;stroke-width:0.85;stroke-linecap:round;stroke-linejoin:round;stroke-miterlimit:10;stroke-dasharray:none;stroke-opacity:1"
           id="path92" /></g><g
         id="g94"><path
           d="m 193.18,128.25 0.097,-0.352 -0.047,-0.355 -0.101,-0.613 -0.246,-0.664 -0.145,-0.442 -0.199,-0.531 -0.148,-0.352 -0.293,-0.441 -0.2,-0.445 -0.195,-0.305 -0.492,-0.531 -0.344,0.043 -0.297,0.308 -0.144,0.356 -0.199,0.394 -0.149,0.442 -0.098,0.355 v 0.352 l -0.05,0.445 v 2.645 l 0.101,0.621 0.098,0.57 0.144,0.707 0.153,0.445 0.047,0.395 0.097,0.531 0.098,0.438 0.051,0.488 0.097,0.398 0.098,0.395 0.102,0.355 0.097,0.395 0.145,0.398 0.152,0.664 0.145,0.661 0.148,0.707 0.098,0.355 0.097,0.395 0.149,0.531 0.098,0.398 0.101,0.442 0.047,0.484 0.098,0.484 0.097,0.489 0.102,0.484 0.098,0.484 0.097,0.442 0.098,0.398 0.051,0.395 0.097,0.664 0.051,0.351 0.148,0.665 0.047,0.351 0.149,0.313 0.097,0.441 0.051,0.395 0.051,0.355 0.047,0.352 v 0.351 l 0.047,0.399 v 0.351 l 0.051,0.797 0.05,0.352 0.047,0.355 v 0.352 l 0.051,0.351 0.098,0.621 0.05,0.352 v 0.355 l 0.047,0.485 -0.047,0.707 -0.05,0.574 -0.149,0.57 -0.097,0.531 -0.098,0.399 -0.199,0.308 -0.293,0.309 -0.196,0.309 -0.101,0.398 -0.344,0.176 -0.246,0.223 -0.395,0.128 -0.343,-0.043 -0.344,-0.132 -0.297,-0.219 -0.293,-0.309 -0.148,-0.312 -0.2,-0.442 -0.242,-0.703 -0.148,-0.484 -0.246,-0.844 v -0.484 l -0.051,-0.485 v -0.394 l -0.047,-0.356"
           style="fill:none;stroke:#1a5fb4;stroke-width:0.798839;stroke-linecap:round;stroke-linejoin:round;stroke-miterlimit:10;stroke-dasharray:none;stroke-opacity:1"
           id="path96" /></g></g></g></svg>
