<?xml version="1.0" encoding="UTF-8" standalone="no"?>
<!-- Created with Inkscape (http://www.inkscape.org/) -->

<svg
   version="1.1"
   id="svg2"
   xml:space="preserve"
   width="251.54263"
   height="279.45844"
   viewBox="0 0 251.54263 279.45844"
   sodipodi:docname="underdetermined.pdf"
   xmlns:inkscape="http://www.inkscape.org/namespaces/inkscape"
   xmlns:sodipodi="http://sodipodi.sourceforge.net/DTD/sodipodi-0.dtd"
   xmlns="http://www.w3.org/2000/svg"
   xmlns:svg="http://www.w3.org/2000/svg"><defs
     id="defs6"><clipPath
       clipPathUnits="userSpaceOnUse"
       id="clipPath18"><path
         d="M 0,0 H 189 V 210 H 0 Z"
         id="path16" /></clipPath><clipPath
       clipPathUnits="userSpaceOnUse"
       id="clipPath84"><path
         d="M 0,0 H 189 V 210 H 0 Z"
         id="path82" /></clipPath></defs><sodipodi:namedview
     id="namedview4"
     pagecolor="#ffffff"
     bordercolor="#666666"
     borderopacity="1.0"
     inkscape:pageshadow="2"
     inkscape:pageopacity="0.0"
     inkscape:pagecheckerboard="0" /><g
     id="g8"
     inkscape:groupmode="layer"
     inkscape:label="underdetermined"
     transform="matrix(1.3333333,0,0,1.3333333,0,2.3197942e-6)"><g
       id="g10"><g
         id="g12"><g
           id="g14" /><g
           id="g28"><g
             clip-path="url(#clipPath18)"
             id="g26"><g
               id="g24"><g
                 id="g22"><path
                   d="m 142.039,106.754 -0.301,-0.051 -0.476,-0.055 -0.594,-0.054 h -1.672 l -0.297,0.054 -0.359,0.055 -0.238,-0.215 -0.36,-0.754 -0.121,-0.539 -0.117,-0.59 -0.121,-0.535 -0.117,-0.539 -0.121,-0.426 -0.18,-0.378 -0.297,-0.375 -0.477,-0.164 -0.656,-0.211 h -0.894 l -0.36,-0.051 -0.539,-0.059 h -0.476 l -0.477,0.059 -0.297,0.101 -0.242,0.274 -0.355,0.316 -0.36,0.274 -0.355,0.214 -0.301,0.211 -0.418,0.27 -0.414,0.215 -0.481,0.324 -0.535,0.219 -0.539,0.207 -0.597,0.215 -0.657,0.054 -0.535,0.055 -0.598,0.055 -0.597,-0.055 -0.594,-0.055 -0.66,-0.215 -0.656,-0.32 -0.653,-0.484 -0.66,-0.645 -0.594,-0.59 -0.597,-0.589 -0.598,-0.645 -0.476,-0.644 -0.54,-0.7 -0.535,-0.59 -0.48,-0.539 -0.477,-0.484 -0.476,-0.426 -0.356,-0.429 -0.539,-0.379 -0.359,-0.375 -0.418,-0.375 -0.414,-0.215 -0.238,-0.324 -0.422,-0.215 -0.297,-0.375 -0.418,-0.43 -0.535,-0.43 -0.422,-0.539 -0.477,-0.429 -0.355,-0.426 -0.36,-0.379 -0.355,-0.324 -0.359,-0.317 -0.418,-0.273 -0.301,-0.32 -0.414,-0.27 -0.481,-0.375 -0.476,-0.484 -0.536,-0.43 -0.539,-0.535 -0.476,-0.485 -0.539,-0.484 -0.418,-0.48 -0.414,-0.379 -0.539,-0.375 -0.239,-0.215 -0.418,-0.266 -0.359,-0.324 -0.355,-0.215 -0.36,-0.269 -0.418,-0.321 -0.476,-0.269 -0.418,-0.375 -0.535,-0.375 -0.481,-0.375 -0.418,-0.489 -0.418,-0.32 -0.355,-0.375 -0.301,-0.269 -0.297,-0.27 -0.477,-0.43 -0.359,-0.32 -0.297,-0.219 -0.238,-0.265 -0.301,-0.325 -0.359,-0.32 -0.535,-0.644 -0.477,-0.536 -0.539,-0.429 -0.297,-0.324 -0.301,-0.539 -0.238,-0.321 -0.476,-0.644 -0.239,-0.43 -0.062,-0.32 -0.176,-0.434 -0.18,-0.375 -0.121,-0.32 -0.238,-0.43 -0.18,-0.375 -0.238,-0.379 -0.176,-0.375 -0.238,-0.375 -0.242,-0.379 -0.239,-0.429 -0.296,-0.375 -0.239,-0.43 -0.238,-0.481 -0.359,-0.753 -0.18,-0.325 -0.18,-0.375 -0.414,-0.644 -0.301,-0.43 -0.179,-0.32 -0.118,-0.321 -0.3,-0.488 -0.18,-0.426 -0.238,-0.484 -0.176,-0.27 -0.242,-0.48 -0.18,-0.43 -0.238,-0.433 -0.18,-0.481 -0.176,-0.379 -0.121,-0.32 -0.058,0.484 v 4.133 l 0.058,0.914 0.059,0.321 0.062,0.324 0.059,0.32 0.117,0.379 0.121,0.32 0.239,0.7 0.121,0.324 0.117,0.48 0.179,0.86 0.122,0.379 0.058,0.48 0.18,0.594 0.058,0.535 0.122,0.535 0.058,0.434 v 0.32 L 89.82,77 l 0.121,0.645 0.121,0.539 0.239,0.535 0.121,0.324 0.355,0.645 0.36,0.644 0.175,0.641 v 0.808 l 0.18,0.43 0.121,0.375 0.18,0.75 0.117,0.594 0.121,0.324 0.176,0.426 0.121,0.484 0.301,0.484 0.176,0.266 0.3,0.215 0.356,0.594 0.238,0.429 0.242,0.375 0.176,0.375 0.184,0.325 0.355,0.535 0.239,0.59 0.058,0.375 0.301,0.648 0.18,0.43 0.175,0.429 0.239,0.481 0.121,0.433 0.359,0.75 0.297,0.43 0.238,0.375 0.18,0.485 0.18,0.48 0.238,0.594 0.238,0.644 0.239,0.699 0.359,0.641 0.176,0.649 0.238,0.535 0.359,0.59 0.18,0.539 0.238,0.589 0.184,0.645 0.055,0.699 0.062,0.645 0.121,0.754 0.117,0.695 0.059,0.644 0.121,0.59 0.117,0.485 0.063,0.379 0.117,0.32 0.121,0.32 0.117,0.43 0.121,0.324 0.059,0.535 0.18,0.485 0.117,0.59 0.179,0.753 0.239,0.645 0.179,0.75 0.18,0.699 0.238,0.699 0.18,0.59 0.238,0.535 0.18,0.594 0.059,0.59 0.121,0.914 0.058,0.535 0.121,0.434 0.059,0.59 0.18,0.535 0.121,0.535 0.117,0.484 0.176,0.645 0.121,0.644 0.117,0.7 0.063,0.695 0.121,0.648 0.058,0.59 0.117,1.289 0.121,0.75 0.059,0.754 v 0.809 l 0.063,0.75 v 1.5 l 0.058,0.644 0.059,0.59 0.058,0.539 0.063,0.485 0.058,0.535 0.059,0.429 0.121,0.485 0.059,0.594 0.058,0.535 0.121,0.59 0.059,0.589 0.059,0.645 0.062,0.699 0.059,0.699 0.121,0.696 0.058,0.593 0.059,0.59 0.063,0.539 0.117,0.535 0.121,0.536 0.176,0.644 0.179,0.594 0.18,0.59 0.117,0.484 0.18,0.535 0.121,0.535 0.18,0.594 0.175,0.699 0.121,0.696 0.118,0.699 0.183,0.644 0.117,0.645 0.122,0.539 0.117,0.535 0.121,0.485 0.179,0.859 0.118,0.375 0.121,0.375 0.176,0.539 0.183,0.43 0.176,0.484 0.18,0.43 0.179,0.32 0.477,0.75 0.18,0.27 0.179,0.375 0.239,0.484 0.179,0.43 0.176,0.269 0.184,0.375 0.175,0.375 0.18,0.27 0.176,0.324 0.183,0.375 0.176,0.324 0.242,0.481 0.297,0.215 0.239,0.374 0.3,0.325 0.356,0.32 0.418,0.648 0.238,0.43 0.297,0.375 0.418,0.75 0.184,0.27 0.054,0.32 0.301,0.594 0.418,0.484 0.238,0.375 0.239,0.43 0.242,0.375 0.238,0.32 0.355,0.375 0.239,0.379 0.359,0.645 0.117,0.375 0.121,0.375 0.18,0.429 0.117,0.324 0.121,0.375 0.18,0.645 0.238,0.859 0.18,0.27 0.297,0.754 0.058,0.32 0.063,0.43 0.117,0.375 0.18,0.699 0.117,0.32 0.18,0.809 0.121,0.48 0.117,0.379 0.238,0.481 0.121,0.324 0.18,0.32 0.121,0.325 0.356,0.589 0.476,0.86 0.18,0.269 0.18,0.43 0.238,0.375 0.238,0.758 0.242,0.476 0.176,0.325 0.301,0.535 0.297,0.539 0.179,0.59 0.118,0.324 0.179,0.43 0.121,0.375 0.059,0.375 0.18,0.375 0.058,0.429 0.239,0.645 0.179,0.269 0.121,0.321 0.176,0.324 0.36,0.32 0.359,0.324 0.297,0.266 0.359,0.324 0.477,0.434 0.238,0.265 0.297,0.215 0.301,0.215 0.418,0.375 0.296,0.324 0.239,0.266 0.238,0.375 0.242,0.273 0.176,0.266 0.301,0.324 0.476,0.375 0.301,0.27 0.356,0.32 0.359,0.215 0.297,0.055 0.297,0.105 0.3,0.055 0.598,-0.055 0.477,-0.055 0.418,-0.16 0.476,-0.16 0.36,-0.16 0.297,-0.16 0.296,-0.215 0.301,-0.324 0.36,-0.375 0.179,-0.27 0.238,-0.484 0.176,-0.27 0.36,-0.426 0.238,-0.324 0.359,-0.535 0.176,-0.434 0.238,-0.75 0.243,-0.374 0.117,-0.43 0.121,-0.43 0.297,-0.43 0.121,-0.32 0.18,-0.433 0.238,-0.481 0.297,-0.539 0.3,-0.531 0.18,-0.328 0.297,-0.539 0.238,-0.215 0.239,-0.266 0.296,-0.32 0.36,-0.324 0.301,-0.375 0.175,-0.27 0.477,-0.531 0.242,-0.328 0.176,-0.266 0.238,-0.434 0.184,-0.375 0.238,-0.324 0.176,-0.426 0.242,-0.324 0.356,-0.429 0.476,-0.645 0.238,-0.375 0.18,-0.324 0.242,-0.43 0.238,-0.43 0.356,-0.699 0.418,-0.75 0.48,-0.75 0.293,-0.484 0.063,-0.375 0.238,-0.485 0.238,-0.378 0.477,-0.696 0.301,-0.699 0.176,-0.375 0.242,-0.32 0.359,-0.649 0.238,-0.375 0.118,-0.375 0.179,-0.375 0.117,-0.375 0.18,-0.379 0.18,-0.324 0.359,-0.59 0.297,-0.59 0.18,-0.375 0.121,-0.644 0.117,-0.379 0.238,-0.641 0.18,-0.429 0.238,-0.805 0.18,-0.539 0.238,-0.535 0.239,-0.649 0.121,-0.535 0.179,-0.59 0.18,-0.535 0.176,-0.594 0.18,-0.589 0.179,-0.539 0.117,-0.481 0.121,-0.539 0.118,-0.539 0.242,-0.856 0.297,-0.644 0.117,-0.324 0.121,-0.43 0.359,-0.859 0.477,-1.18 0.238,-0.754 0.36,-0.805 0.238,-0.754 0.297,-0.804 0.359,-0.75 0.297,-0.699 0.301,-0.7 0.238,-0.644 0.356,-0.59 0.183,-0.59 0.297,-0.484 0.238,-0.535 0.117,-0.539 0.18,-0.485 0.238,-0.535 0.18,-0.59 0.359,-0.644 0.239,-0.7 0.297,-0.753 0.242,-0.75 0.176,-0.7 0.359,-0.699 0.238,-0.695 0.477,-1.399 0.18,-0.699 0.238,-0.59 0.238,-0.644 0.18,-0.535 0.238,-0.594 0.121,-0.59 0.117,-0.59 0.36,-1.289 0.476,-1.398 0.18,-0.641 0.238,-0.594 0.121,-0.59 0.18,-0.484 0.176,-0.531 0.121,-0.543 0.18,-0.535 0.175,-0.914 0.184,-0.43 0.117,-0.484 0.121,-0.59 0.059,-0.539 0.058,-0.481 0.063,-0.539 0.059,-0.59 0.117,-0.59 0.062,-0.64 0.059,-0.594 0.058,-0.539 0.059,-0.59 0.063,-0.594 0.058,-0.429 0.059,-0.426 0.058,-0.484 0.063,-0.375 0.058,-0.485 0.059,-0.43 0.121,-0.804 0.059,-0.485 0.179,-0.859 0.059,-0.379 0.121,-0.426 0.176,-0.539 0.121,-0.429 0.062,-0.43 0.118,-0.43 0.121,-0.695 0.117,-0.754 0.121,-0.75 0.18,-0.754 0.058,-0.375 v -0.379 l 0.059,-0.64 0.058,-0.485 0.122,-0.644 0.062,-0.485 0.055,-0.324 0.062,-0.59 v -0.644 l 0.059,-0.321 0.062,-0.429 v -0.379 l 0.176,-0.266 0.418,0.051 0.477,0.215 0.476,0.273 0.36,0.426 0.238,0.324 0.242,0.27 0.356,0.375 0.238,0.215 0.301,0.105 h 0.359 l 0.355,-0.055 0.297,-0.105 0.36,-0.32 0.597,-0.325 0.297,-0.16 0.117,-0.429 0.121,-0.321 v -0.648 l -0.238,-0.43 -0.836,-0.75 -0.539,-0.43 -0.531,-0.375 -0.301,-0.324 -0.597,-0.43 -0.356,-0.32 -0.359,-0.215 -0.418,-0.324 -0.418,-0.375 -0.418,-0.269 -0.481,-0.375 -0.531,-0.321 -0.422,-0.215 -0.656,-0.375 -0.535,-0.218 -0.598,-0.27 -0.598,-0.375 -0.593,-0.265 -0.598,-0.325 -0.418,-0.269 -0.477,-0.215 -0.421,-0.266 -0.477,-0.269 -0.535,-0.324 -0.539,-0.27 -0.535,-0.32 -0.539,-0.321 -0.594,-0.324 -0.598,-0.375 -0.539,-0.375 -0.594,-0.484 -0.539,-0.43 -0.476,-0.43 -0.598,-0.375 -0.535,-0.429 -0.539,-0.375 -0.418,-0.43 -0.477,-0.434 -0.359,-0.32 -0.418,-0.324 -0.418,-0.266 -0.418,-0.215 -0.414,-0.269 -0.359,-0.27 -0.719,-0.429 -0.356,-0.266 -0.418,-0.219 -0.418,-0.375 -0.417,-0.32 -0.418,-0.379 -0.954,-0.641 -0.359,-0.378 -0.476,-0.325 -0.36,-0.265 -0.476,-0.27 -0.36,-0.32 -0.418,-0.215 -0.476,-0.324 -0.418,-0.32 -0.418,-0.375 -0.477,-0.325 -0.418,-0.379 -0.418,-0.425 -0.476,-0.379 -0.297,-0.426 -0.422,-0.379 -0.594,-0.48 -0.238,-0.215 -0.301,-0.164 -0.476,-0.375 -0.301,-0.215 -0.239,-0.215 -0.355,-0.375 -0.359,-0.539 h -0.356 l -0.539,-0.051 -0.359,-0.055 -0.535,-0.109 -0.536,-0.16 -0.421,-0.215 -0.356,-0.105 -0.418,-0.059 -0.418,-0.051 -0.539,-0.051 -0.656,-0.164 -0.656,-0.265 -0.598,-0.324 -0.594,-0.485 -0.598,-0.375 -0.539,-0.43 -0.535,-0.535 -0.597,-0.379 -0.539,-0.539 -0.594,-0.476 -0.656,-0.489 -0.657,-0.589 -0.718,-0.594 -0.715,-0.641 -0.657,-0.644 -0.656,-0.59 -0.597,-0.539 -0.536,-0.539 -0.539,-0.481 -0.535,-0.484 -0.597,-0.484 -0.54,-0.536 -0.656,-0.593 -0.652,-0.645 -0.598,-0.75 -0.777,-0.75 -0.715,-0.859 -0.719,-0.86 -0.773,-0.859 -0.777,-0.863 -0.715,-0.75 -0.719,-0.7 -1.43,-1.179 -0.719,-0.485 -0.593,-0.535 -1.196,-0.968 -0.535,-0.54 -0.597,-0.48 -0.598,-0.539 -0.598,-0.43 -0.418,-0.32 -0.476,-0.32 -0.414,-0.325 -0.422,-0.265 -0.477,-0.274 -0.297,-0.214 -0.476,-0.262 -0.719,-0.434 -0.418,-0.375 -0.355,-0.269 -0.477,-0.27 -0.359,-0.269 -0.36,-0.161 -0.418,-0.265 -0.238,-0.215 -0.355,-0.273 -0.539,-0.321 -0.301,-0.269 -0.297,-0.266 -0.297,-0.215 -0.359,-0.269 -0.301,-0.27 -0.238,-0.269 -0.415,-0.321 -0.179,-0.269 -0.36,-0.215 -0.3,-0.215 -0.293,-0.269 -0.242,-0.215 -0.297,-0.266 -0.36,-0.379 -0.238,-0.215 -0.418,-0.265 -0.477,-0.375 -0.476,-0.379 -0.539,-0.43 -0.301,-0.215 -0.238,-0.215 -0.293,-0.214 -0.481,-0.321 -0.418,-0.324 -0.535,-0.266 -0.301,-0.164 -0.359,-0.269 -0.477,-0.371 -0.238,-0.219 -0.355,-0.215 -0.477,-0.316 -0.539,-0.383 -0.476,-0.375 -0.301,-0.215 -0.297,-0.32 -0.301,-0.219 -0.355,-0.266 -0.36,-0.324 -0.418,-0.375 -0.355,-0.316 -0.36,-0.328 -0.238,-0.215 v 0.43 l 0.121,0.488 0.055,0.316 v 0.324 l 0.062,0.485 0.059,0.429 0.063,0.805 0.054,0.535 v 1.614 l -0.054,0.644 v 1.824 l -0.063,0.539 v 1.45 l -0.059,0.539 v 1.285 l -0.062,0.703 -0.055,0.75 -0.062,0.75 -0.059,0.859 -0.062,0.75 -0.055,0.703 -0.121,0.696 -0.121,0.59 -0.059,0.539 v 1.664 l 0.059,0.535 0.121,0.488 0.058,0.375 0.118,0.375 0.121,0.32 0.117,0.379 0.301,0.75 0.058,0.645 0.063,0.375 0.058,0.324 0.118,0.43 0.359,0.379 0.297,0.371 v 0.324 -0.379 l -0.117,-0.316 -0.121,-0.434 -0.118,-0.316 -0.238,-0.434 -0.18,-0.375 -0.179,-0.379 -0.239,-0.375 -0.179,-0.269 -0.239,-0.27 -0.476,-0.375 -0.238,-0.316 -0.184,-0.328 -0.293,-0.375 -0.184,-0.27 -0.117,-0.375 -0.179,0.481 -0.059,0.492 -0.059,0.375 -0.062,0.586 -0.059,0.539 -0.121,0.586 -0.176,0.593 -0.179,0.43 -0.121,0.485 -0.118,0.64 v 1.723 l 0.18,0.59 0.176,0.695 0.062,0.43 0.118,0.703 0.058,0.32 0.18,0.645 0.359,0.535 0.301,0.375 0.535,0.219 0.36,0.105 0.359,0.109 0.477,0.161 0.414,0.105 0.48,0.164 0.356,0.106 0.539,0.32 0.359,0.109 0.477,0.43 0.355,0.269 0.359,0.106 0.418,0.109 0.778,0.106 0.593,0.105 0.418,0.215 0.539,0.488 0.297,0.43 0.715,0.856 0.477,0.589 0.422,0.649 0.656,0.965 0.598,1.019 0.656,1.238 0.652,1.286 0.777,1.293 0.778,1.394 0.953,1.399 0.957,1.394 0.953,1.559 1.016,1.554 0.894,1.614 0.953,1.613 0.899,1.66 0.773,1.613 0.715,1.61 0.66,1.508 0.477,1.394 0.476,1.129 0.715,1.289 v -0.594 l 0.063,-0.855 v -5.32 l -0.063,-2.309 -0.117,-2.418 -0.121,-2.469 -0.121,-2.687 -0.293,-2.844 -0.422,-3.063 -0.539,-3.007 -0.652,-2.899 -0.719,-2.578 -0.774,-2.258 -0.718,-1.933 -0.536,-1.555 -0.359,-0.969 -0.297,-0.754 0.176,0.27 0.539,0.699 0.777,1.184 1.133,1.828 1.254,2.144 1.254,2.524 1.371,2.847 1.375,3.008 1.43,3.113 1.371,2.958 1.254,2.738 1.254,2.578 1.133,2.418 0.957,2.144 0.894,1.719 0.656,1.293 0.477,0.75 0.418,0.434 0.301,0.156 0.355,-0.215 -0.058,-0.644 -0.059,-1.02 -0.238,-1.445 -0.418,-1.617 -0.66,-1.829 -0.774,-1.929 -0.953,-2.098 -1.195,-2.308 -1.434,-2.633 -1.73,-2.793 -1.848,-2.899 -1.793,-2.632 -1.668,-2.149 -1.254,-1.664 -1.312,-1.504 0.355,0.805 0.777,1.238 1.137,1.824 1.488,2.149 1.793,2.418 1.969,2.629 2.149,2.793 2.148,2.847 2.207,2.852 2.148,2.898 2.028,2.793 1.972,2.684 1.79,2.363 1.671,2.148 1.61,2.04 1.555,1.992 1.546,1.98 1.493,2.043 1.433,1.828 1.313,1.664 1.312,1.289 1.195,1.02 1.133,0.695 0.957,0.539 0.832,0.325 1.075,0.269 0.418,-0.109 0.421,-0.106 0.414,-0.105 0.36,-0.434 0.18,-0.644 0.058,-0.645 -0.18,-0.75 -0.296,-1.129 -0.598,-1.344 -0.777,-1.503 -0.774,-1.61 -0.836,-1.668 -0.777,-1.605 -0.652,-1.617 -0.54,-1.5 -0.359,-1.293 -0.238,-0.856 -0.117,-0.484 0.476,0.32 0.477,0.539 0.593,0.645 0.54,0.644 0.476,0.641 0.418,0.488 0.301,0.375 0.176,0.266 -0.715,-0.481 -0.836,-0.648 -1.074,-0.856 -1.071,-0.914 -1.078,-0.859 -1.133,-0.859 -1.254,-0.801 -1.312,-0.809 -1.434,-0.808 -1.429,-0.801 -1.313,-0.809 -1.137,-0.699 -0.894,-0.645 -0.598,-0.429 -0.414,-0.43 -0.179,-0.269 -0.18,-0.321 -0.121,-0.32 0.48,-0.488 0.653,-0.106 1.078,-0.16 1.191,0.105 1.434,0.325 1.55,0.539 1.672,0.855 1.672,1.02 1.848,1.293 1.789,1.449 1.91,1.609 1.969,1.719 1.793,1.664 1.789,1.508 1.551,1.34 1.554,1.238 1.371,1.18 1.313,1.019 1.195,1.02 1.012,0.918 0.898,0.855 0.715,0.699 0.477,0.645 0.355,0.48 0.301,0.754 -0.117,0.59 -0.301,0.379 -0.476,0.215 -0.657,0.32 -0.597,0.215 -0.657,0.32 -0.476,0.379 -0.418,0.274 -0.418,0.426 -0.356,0.375 -0.359,0.429 -0.359,0.535 -0.481,0.59 -0.476,0.649 -0.594,0.695 -0.539,0.754 -0.594,0.805 -0.598,0.964 -0.597,1.129 -0.598,1.184 -0.535,1.34 -0.539,1.398 -0.594,1.504 -0.66,1.664 -0.715,1.77 -0.836,1.828 -0.836,1.879 -0.832,1.937 -0.777,1.985 -0.715,1.988 -0.539,1.988 -0.539,1.985 -0.477,1.933 -0.418,1.879 -0.476,1.723 -0.418,1.609 -0.418,1.449 -0.356,1.289 -0.359,1.075 -0.359,0.968 -0.239,0.965 -0.238,0.914 -0.18,1.02 -0.179,1.129 -0.117,1.074 -0.18,1.18 -0.121,1.074 -0.176,1.019 -0.238,0.918 -0.184,0.856 -0.953,3.437 -0.18,0.75 -0.176,0.754 -0.121,0.59 -0.117,0.699 -0.062,0.699 -0.059,0.59 -0.058,0.539 -0.063,0.75 -0.238,-0.214 -0.36,-0.485 -0.238,-0.426 -0.238,-0.429 -0.356,-0.649 -0.3,-0.695 -0.297,-0.969 -0.36,-1.289 -0.297,-1.664 -0.476,-2.148 -0.422,-2.364 -0.535,-2.418 -0.535,-2.363 -0.598,-2.203 -0.719,-2.199 -0.715,-2.25 -0.832,-2.367 -0.898,-2.473 -0.895,-2.469 -0.894,-2.527 -0.836,-2.414 -0.836,-2.364 -0.836,-2.312 -0.715,-2.203 -0.715,-2.039 -0.597,-1.934 -0.535,-1.773 -0.602,-1.664 -0.477,-1.504 -0.476,-1.395 -0.418,-1.289 -0.477,-1.289 -0.953,-2.469 -0.422,-1.234 -0.355,-1.344 -0.418,-1.293 -0.297,-1.34 -0.359,-1.453 -0.18,-1.34 -0.18,-1.289 -0.117,-1.183 -0.121,-1.02 -0.059,-0.804 V 98.484 L 114.586,98 l 0.539,0.215 0.656,0.59 0.778,0.914 0.836,1.023 0.832,1.125 0.839,1.238 0.891,1.34 1.016,1.559 0.957,1.664 0.953,1.883 0.894,2.043 0.836,2.199 0.778,2.199 0.832,2.149 0.898,1.988 0.895,1.879 0.894,1.824 0.953,1.668 0.778,1.449 0.777,1.184 0.656,0.855 0.598,0.645 0.535,0.375 0.773,0.433 0.301,0.11 0.418,0.051 0.18,-0.321 0.238,-0.539 0.238,-0.754 0.239,-0.91 0.179,-0.914 0.18,-0.969 0.121,-0.91 0.176,-1.023 0.062,-1.125 0.118,-2.258 v -2.629 l 0.359,0.641 0.238,0.863 0.356,1.285 0.183,1.293 0.176,1.344 0.117,1.285 v 1.344 l -0.054,1.449 v 1.449 l -0.121,1.453 -0.18,1.449 -0.297,1.29 -0.301,1.179 -0.355,1.024 -0.239,0.91 -0.359,0.754 -0.297,0.754 -0.422,0.64 -0.355,0.594 -0.477,0.535 -0.539,0.485 -0.597,0.484 -0.774,0.59 -0.719,0.644 -0.832,0.645 -0.894,0.699 -0.899,0.645 -0.894,0.589 -0.895,0.375 -0.777,0.27 -0.773,0.051 -0.719,-0.106 -0.652,-0.324 -0.602,-0.48 -0.414,-0.645 -0.36,-0.809 -0.238,-0.859 -0.179,-0.805 -0.118,-0.75 -0.062,-0.64 -0.059,-0.543 v -2.309 l 0.059,-0.535 0.062,-0.539 v -2.844 l -0.062,-0.918 -0.059,-1.07 -0.121,-1.129 -0.238,-1.184 -0.238,-1.394 -0.418,-1.449 -0.418,-1.504 -0.477,-1.614 -0.539,-1.718 -0.477,-1.93 -0.593,-2.148 -0.598,-2.313 -0.656,-2.359 -0.715,-2.367 -0.777,-2.364 -0.778,-2.418 -0.777,-2.519 -0.652,-2.528 -0.539,-2.578 -0.54,-2.363 -0.476,-2.199 -0.539,-1.938 -0.594,-1.66 -0.656,-1.453 -0.715,-1.398 -0.66,-1.235 -0.715,-1.285 -0.715,-1.184 -0.777,-1.179 -0.715,-1.184 -0.715,-1.18 -0.719,-1.183 -0.593,-1.129 -0.539,-1.129 -0.418,-1.019 -0.477,-1.02 -0.418,-0.969 -0.355,-0.91 -0.481,-0.914 -0.476,-0.914 -0.418,-0.859 -0.536,-0.965 -0.539,-0.914 -0.539,-0.961 -0.597,-0.918 -0.477,-0.86 -0.594,-0.753 -0.476,-0.641 -0.539,-0.594 -0.418,-0.539 -0.418,-0.48 -0.36,-0.539 -0.238,-0.59 -0.359,-0.586 -0.293,-0.703 -0.242,-0.7 -0.36,-0.695 -0.238,-0.59 L 93.223,56.645 92.926,56.16 92.746,55.844 92.387,55.41 92.09,54.98 91.852,54.66 91.492,54.176 91.254,53.906 91.016,53.582 90.777,53.156 90.539,52.777 90.238,52.242 90,51.758 89.645,51.273 89.406,50.898 89.105,50.469 88.746,50.094 88.449,49.719 88.031,49.344 87.676,49.02 l -0.36,-0.325 -0.418,-0.32 -0.3,-0.27 -0.414,-0.269 -0.243,-0.266 -0.359,-0.164 -0.355,-0.215 -0.36,-0.16 -0.355,-0.265 -0.301,-0.215 -0.356,-0.215 -0.359,-0.324 -0.656,-0.375 -0.297,-0.211 -0.418,-0.219 -0.359,-0.215 -0.477,-0.215 -0.418,-0.16 -0.359,-0.109 -0.836,-0.32 -0.297,-0.165 -0.301,-0.16 -0.297,-0.269 -0.297,-0.321 -0.238,-0.484 -0.121,-0.324 -0.18,-0.266 -0.175,-0.375 -0.239,-0.429 -0.183,-0.43 -0.118,-0.324 -0.179,-0.27 -0.117,-0.375 -0.122,-0.644 -0.179,-0.485 -0.18,-0.429 -0.297,-0.485 -0.238,-0.32 -0.238,-0.27 -0.301,-0.215 -0.238,-0.265 -0.536,-0.379 -0.238,-0.215 -0.359,-0.266 -0.301,-0.109 -0.953,-0.43 -0.301,-0.16 -0.355,-0.215 -0.477,-0.429 -0.359,-0.27 -0.356,-0.316 -0.359,-0.274 -0.297,-0.215 -0.422,-0.269 -0.355,-0.32 -0.297,-0.215 -0.301,-0.434 -0.301,-0.265 -0.293,-0.325 -0.359,-0.265 -0.238,-0.211 -0.243,-0.274 -0.414,-0.375 -0.3,-0.324 0.238,-0.266 h 0.597 l 0.719,0.157 0.293,0.109 0.36,0.215 0.777,0.484 0.777,0.649 0.418,0.476 0.356,0.43 0.539,0.809 0.414,0.644 0.48,0.645 0.297,0.32 0.36,0.594 0.3,0.269 0.239,0.266 0.297,0.375 0.597,0.484 0.297,0.321 0.356,0.539 0.242,0.429 0.297,0.375 0.179,0.274 0.121,0.32 0.059,0.43 0.059,0.375 0.121,0.429 0.058,0.485 0.117,0.43 0.121,0.75 0.122,0.484 0.117,0.375 0.058,0.43 0.063,0.324 v 1.18 l 0.058,0.488 0.18,0.691 0.121,0.434 0.055,0.48 0.062,0.43 0.059,0.484 0.063,0.321 0.117,0.484 0.058,0.43 0.121,0.699 0.118,0.32 h 0.359 l 0.238,-0.64 0.18,-0.594 0.117,-0.43 0.063,-0.32 0.058,-0.485 v -2.203 l -0.058,-0.75 v -0.859 l -0.063,-0.594 -0.058,-0.32 -0.059,-0.324 -0.121,-0.321 -0.117,-0.32 -0.059,-0.324 -0.359,-0.75 -0.239,-0.324 -0.597,-0.645 -0.657,-0.59 -0.417,-0.48 -0.477,-0.383 -0.598,-0.481 -0.535,-0.484 -0.84,-0.59 -0.715,-0.535 -0.777,-0.484 -0.414,-0.27 -0.418,-0.215 -0.539,-0.269 -0.477,-0.27 -0.476,-0.375 -0.539,-0.265 -0.477,-0.27 -0.418,-0.269 -0.414,-0.161 -0.301,-0.16 -0.296,-0.16 -0.481,-0.324 -0.297,-0.16 -0.359,-0.27 -0.297,-0.215 -0.301,-0.265 -0.238,-0.324 -0.176,-0.539 -0.062,-0.321 0.062,-0.429 0.117,-0.376 0.836,-0.648 0.36,-0.48 0.179,-0.27 0.059,-0.375 -0.059,-0.324 -0.121,-0.43 -0.238,-0.375 -0.238,-0.215 -0.242,-0.215 -0.293,-0.269 -0.301,-0.32 -0.36,-0.375 -0.238,-0.325 -0.238,-0.265 -0.301,-0.27 -0.355,-0.433 0.418,-0.047 0.175,0.265 0.301,0.215 0.301,0.16 0.535,0.27 0.418,0.266 0.477,0.214 0.359,0.215 0.297,0.27 0.359,0.215 0.356,0.054 0.539,0.266 0.476,0.215 0.539,0.16 0.297,0.109 h 0.418 l 0.301,0.106 0.414,0.109 0.539,0.164 0.356,0.051 0.476,0.164 0.481,0.106 0.296,0.054 0.477,0.106 0.422,0.054 0.355,0.055 0.301,0.106 0.356,0.054 0.718,0.321 0.356,0.109 0.597,0.215 0.657,0.215 0.355,0.214 0.719,0.321 0.297,0.269 0.301,0.106 0.597,0.273 0.594,0.266 0.48,0.269 0.415,0.161 0.3,0.054 0.36,0.059 0.418,0.101 0.414,0.16 0.422,0.165 0.414,0.16 0.539,0.164 0.297,0.265 0.476,0.215 0.36,0.16 0.355,0.27 0.422,0.215 0.418,0.375 0.535,0.375 0.477,0.379 0.597,0.48 0.539,0.375 0.477,0.539 0.598,0.485 0.593,0.484 0.598,0.59 0.656,0.535 0.598,0.594 0.656,0.59 0.715,0.589 0.777,0.645 0.778,0.695 0.832,0.703 0.836,0.696 0.894,0.754 0.957,0.64 0.895,0.703 0.836,0.641 0.894,0.594 0.899,0.59 0.832,0.589 0.777,0.539 0.773,0.59 0.836,0.59 0.836,0.535 0.778,0.489 0.832,0.48 0.718,0.484 0.774,0.43 0.719,0.481 0.773,0.433 0.719,0.375 0.656,0.375 0.656,0.324 0.657,0.321 0.539,0.32 0.476,0.324 0.535,0.27 0.535,0.215 0.481,0.214 0.477,0.215 0.535,0.274 0.48,0.261 0.535,0.325 0.539,0.265 0.539,0.325 0.594,0.324 0.539,0.32 0.715,0.375 0.715,0.324 0.777,0.43 0.836,0.43 0.895,0.429 0.953,0.481 0.957,0.433 1.015,0.43 1.012,0.43 2.149,0.75 1.074,0.535 1.137,0.375 1.07,0.488 1.137,0.535 1.132,0.43 1.075,0.484 1.011,0.536 1.016,0.484 0.898,0.539 0.895,0.426 0.832,0.484 0.836,0.485 0.777,0.429 0.778,0.539 0.773,0.426 0.715,0.484 0.777,0.489 0.836,0.426 0.778,0.539 0.832,0.48 0.718,0.484 0.774,0.59 0.777,0.535 0.656,0.54 0.715,0.589 0.66,0.539 0.715,0.645 0.656,0.644 0.715,0.75 0.657,0.7 0.66,0.699 0.593,0.695 0.598,0.649 0.477,0.64 0.48,0.645 0.477,0.644 0.418,0.594 0.535,0.645 0.476,0.644 0.418,0.695 0.539,0.594 0.356,0.645 0.301,0.59 0.418,0.535 0.238,0.539 0.297,0.484 0.359,0.809 0.297,0.48 0.242,0.426 0.238,0.539 0.239,0.481 0.176,0.378 0.121,0.43 0.238,0.485 0.476,0.859 0.243,0.426 0.175,0.379 0.122,0.375 0.238,0.324 0.238,0.265 0.238,0.379 0.239,0.266 0.121,0.375 0.238,0.273 0.238,0.266 0.356,0.594 0.301,0.59 0.296,0.429 0.243,0.266 0.297,0.375 0.179,0.273 0.176,0.266 0.359,0.484 0.481,0.485 0.297,0.32 0.238,0.32 0.359,0.489 0.176,0.32 0.238,0.484 0.301,0.536 0.176,0.488 0.121,0.531 0.121,0.434 0.117,0.32 0.243,0.484 0.296,0.535 0.18,0.43 0.297,0.434 0.301,0.316 0.176,0.324 0.242,0.7 0.176,0.269 0.3,0.481 0.176,0.324 0.18,0.48 0.121,0.59 0.058,0.324 v 0.325 l -0.179,0.269 -0.239,0.375 -0.238,0.32 -0.238,0.325 -0.297,0.265 -0.301,0.27 -0.238,0.215 -0.414,0.379 -0.359,0.265 -0.36,0.375 -0.242,0.379 -0.176,0.375 -0.301,0.481 -0.175,0.593 -0.18,0.535 -0.121,0.594 -0.18,0.481 -0.238,0.589 -0.176,0.649 -0.18,0.644 -0.179,0.536 -0.121,0.32 -0.176,0.43 -0.121,0.324 -0.117,0.484 -0.063,0.43 -0.059,0.59 -0.117,0.32 -0.062,0.324 v 0.43 l -0.059,0.324 -0.179,0.59 -0.122,0.375 -0.296,0.32 -0.18,0.379 -0.117,0.321 -0.239,0.218 -0.359,0.375 -0.18,0.321 -0.359,0.539 -0.238,0.375 -0.18,0.32 -0.176,0.43 -0.238,0.593 -0.301,0.481 -0.117,0.324 -0.301,0.59 -0.297,0.484 -0.179,0.266 -0.297,0.758 -0.301,0.91 -0.117,0.32 -0.121,0.375 -0.118,0.324 -0.121,0.375 -0.062,0.325 -0.055,0.375 -0.183,0.535 -0.059,0.379 -0.18,0.535 -0.058,0.32 -0.18,0.649 -0.059,0.375 -0.058,0.429 -0.063,0.375 -0.058,0.43 -0.18,0.645 -0.058,0.324 -0.239,0.375 -0.179,0.32 -0.18,0.594 -0.238,0.64 -0.297,0.594 -0.18,0.321 -0.121,0.324 -0.176,0.32 -0.238,0.324 -0.36,0.321 -0.296,0.324 -0.301,0.64 -0.297,0.379 -0.301,0.43 -0.418,0.805 -0.297,0.59 -0.3,0.484 -0.356,0.914 -0.359,0.969 -0.117,0.426 -0.18,0.324 -0.238,0.539 -0.18,0.32 -0.18,0.375 -0.301,0.59 -0.175,0.43 -0.239,0.214 -0.238,0.219 0.176,-0.324 0.183,-0.375 0.293,-0.594 0.422,-0.804 0.477,-1.075 0.594,-1.234 0.718,-1.504 0.836,-1.609 0.953,-1.723 0.957,-1.824 0.954,-1.774 0.957,-1.718 0.835,-1.61 0.715,-1.558 0.657,-1.399 0.535,-1.34 0.539,-1.339 0.418,-1.239 0.418,-1.289 0.414,-1.183 0.301,-1.071 0.359,-1.078 0.238,-0.965 0.239,-0.968 0.238,-0.911 0.301,-0.804 0.238,-0.805 0.238,-0.754 0.297,-0.805 0.121,-0.804 0.176,-0.809 0.18,-0.804 0.121,-0.805 0.179,-0.754 0.176,-0.699 0.36,-1.071 0.179,-0.484 0.121,-0.375 0.176,-0.434 0.301,-0.48 0.238,-0.379 0.238,-0.426 0.239,-0.429 0.3,-0.54 0.176,-0.324 0.301,-0.429 0.18,-0.481 0.238,-0.43 0.176,-0.269 0.179,-0.27 0.418,-0.589 0.18,-0.27 0.238,-0.375 0.239,-0.531 0.301,-0.758 0.238,-0.645 0.179,-0.324 0.36,-0.64 0.176,-0.539 0.117,-0.321 0.238,-0.484 0.184,-0.379 0.175,-0.481 0.18,-0.269 0.121,-0.32 0.239,-0.59 0.117,-0.324 0.062,-0.485 0.059,-0.324 0.117,-0.535 0.062,-0.485 0.059,-0.535 0.063,-0.535 0.054,-0.488 v -0.641 l -0.054,-0.43 -0.243,-0.429 -0.238,-0.324 -0.238,-0.375 -0.238,-0.321 -0.239,-0.324 -0.297,-0.375 -0.421,-0.379 -0.239,-0.265 -0.476,-0.426 -0.356,-0.328 -0.359,-0.266 -0.36,-0.273 -0.359,-0.266 -0.297,-0.43 -0.179,-0.324 -0.176,-0.375 -0.418,0.055 -0.184,0.269 -0.293,0.43 -0.301,0.375 -0.359,0.484 -0.355,0.43 -0.301,0.535 -0.36,0.434 -0.238,0.429 -0.238,0.321 -0.238,0.429 -0.18,-0.593 v -0.481 l 0.062,-0.594 0.118,-0.48 0.121,-0.539 0.117,-0.535 0.18,-0.594 0.179,-0.59 0.18,-0.535 0.176,-0.43 0.183,-0.429 0.118,-0.325 0.121,-0.375 0.058,-0.32 0.059,-0.324 0.121,-0.59 0.058,-0.32 0.18,-0.594 0.059,-0.43 v -0.804 l -0.059,-0.375 -0.058,-0.325 -0.301,-0.804 -0.18,-0.325 -0.176,-0.261 -0.3,-0.383 -0.239,-0.215 -0.297,-0.265 -0.418,-0.215 -0.3,-0.11 -0.297,-0.051 -0.297,-0.054 h -0.36 l -0.417,-0.11 -0.418,-0.105 -0.297,-0.109 -0.422,-0.215 -0.297,-0.11 h -2.387 l -0.297,-0.05 -0.418,-0.055 -0.656,-0.109 -0.418,-0.211 -0.301,-0.164 -0.476,-0.426 -0.418,-0.539 -0.477,-0.535 -0.535,-0.864 -0.539,-0.855 -0.418,-0.969 -0.476,-1.129 -0.36,-1.074 -0.355,-1.07 -0.36,-0.965 -0.238,-0.864 -0.359,-0.75 -0.297,-0.703 -0.36,-0.64 -0.355,-0.594 -0.359,-0.481 -0.297,-0.374 -0.36,-0.434 -0.418,-0.266 -0.476,0.16 -0.301,0.266 -0.535,0.594 -0.36,0.43 -0.238,0.269 -0.359,0.43 -0.297,0.48 -0.238,0.539 -0.297,0.645 -0.301,0.59 -0.121,0.429 -0.117,0.375 -0.059,-0.48 v -4.192 l 0.059,-0.535 0.058,-0.593 0.059,-0.43 0.062,-0.481 v -1.023 l -0.359,-0.051 -0.359,0.266 -0.414,0.375 -0.36,0.648 -0.418,0.645 -0.301,0.59 -0.296,0.429 -0.356,0.485 -0.242,0.32 -0.297,0.324 -0.238,0.215 -0.36,0.219 -0.296,-0.168 -0.239,-0.426 -0.238,-0.539 -0.238,-0.754 -0.184,-0.695 -0.055,-0.59 -0.062,-0.594 -0.059,-0.59 -0.121,-0.539 -0.179,-0.535 -0.18,-0.43 -0.238,-0.375 -0.598,-0.324 -0.297,-0.051 -0.477,-0.058 -0.476,-0.051 -0.418,0.109 -0.598,0.157 -0.418,0.328 -0.535,0.426 -0.359,0.324 -0.356,0.375 -0.601,0.32 -0.414,0.215 -0.36,0.059 -0.535,-0.489 -0.238,-0.48 -0.238,-0.645 -0.301,-0.754 -0.238,-0.75 -0.239,-0.859 -0.238,-0.863 -0.238,-0.856 -0.121,-0.804 -0.301,-0.754 -0.535,-0.965 -0.297,-0.27 -0.36,-0.105 -0.359,-0.11 h -0.418 l -0.535,0.161 -0.477,0.324 -0.476,0.484 -0.422,0.535 -0.418,0.535 -0.238,0.489 -0.356,0.371 -0.48,0.484 -0.239,0.215 -0.355,-0.051 -0.359,-0.703 -0.18,-0.535 -0.176,-0.59 -0.18,-0.644 -0.121,-0.645 -0.117,-0.695 -0.121,-0.703 -0.117,-0.59 -0.121,-0.43 -0.18,-0.375 -0.359,-0.109 -0.297,-0.051 -0.656,0.16 -0.477,0.16 -0.359,0.43 -0.536,0.43 -0.359,0.375 -0.359,0.429 -0.477,0.325 -0.656,0.48 -0.238,0.219 -0.481,0.16 h -0.414 l -0.539,-0.324 -0.297,-0.321 -0.238,-0.484 -0.238,-0.531 -0.18,-0.594 -0.18,-0.539 -0.179,-0.645 -0.297,-0.644 -0.239,-0.699 -0.3,-0.805 -0.356,-0.805 -0.238,-0.804 -0.359,-0.754 -0.18,-0.539 -0.301,-0.375 -0.355,-0.27 -0.36,0.11 -0.238,0.32 -0.297,0.379 -0.359,0.539 -0.18,0.32 -0.18,0.43 -0.355,0.59 -0.598,0.484 -0.355,0.16 -0.481,0.16 -0.359,0.055 -0.414,-0.484 -0.238,-0.485 -0.243,-0.59 -0.238,-0.64 -0.18,-0.809 -0.179,-0.914 -0.118,-0.91 -0.238,-0.914 -0.301,-0.805 -0.836,-1.078 -0.355,-0.32 -0.477,-0.16 -0.476,-0.164 -0.422,0.109 -0.535,0.215 -0.477,0.32 -0.476,0.375 -0.477,0.434 -0.719,0.644 -0.535,0.375 -0.359,0.27 -0.418,0.324 -0.418,0.215 -0.477,-0.11 -0.238,-0.214 -0.238,-0.379 -0.36,-0.43 -0.3,-0.535 -0.594,-0.86 -0.238,-0.375 -0.36,-0.378 -0.597,-0.641 -0.239,-0.215 -0.773,-0.215 h -0.422 l -0.477,0.16 -0.593,0.161 -0.895,0.324 -0.48,0.211 -0.895,0.429 -0.476,0.215 -0.301,0.11 -0.418,0.054 H 96.984 L 96.328,40.426 95.91,40.102 95.492,39.676 95.074,39.191 94.594,38.652 94.18,38.168 93.699,37.688 93.164,37.258 92.746,36.828 92.207,36.504 91.852,36.238 91.434,35.914 91.016,35.699 90.539,35.324 90.18,35 89.762,34.785 88.984,34.57 l -0.296,-0.05 -0.297,0.05 -0.477,0.16 -0.301,0.114 -0.058,-0.703 0.058,-0.75 0.121,-0.914 0.297,-0.86 0.239,-0.75 0.238,-0.754 0.238,-0.644 0.121,-0.59 0.117,-0.43 0.063,-0.375 0.058,-0.324 v 1.504 l 0.063,0.484 v 0.481 l 0.059,0.808 v 4.457 l 0.058,0.485 0.18,0.375 0.297,0.109 0.359,-0.055 0.477,-0.109 0.656,-0.16 0.598,-0.215 0.597,-0.266 0.715,-0.214 0.777,-0.434 0.774,-0.48 0.777,-0.54 0.715,-0.695 0.719,-0.703 0.476,-0.805 0.477,-0.695 0.355,-0.699 0.184,-0.539 0.176,-0.59 -0.176,0.59 -0.121,0.433 -0.117,0.43 -0.301,0.535 -0.18,0.535 -0.297,0.649 -0.238,0.695 -0.359,1.609 -0.18,0.809 -0.18,0.699 -0.175,0.645 -0.122,0.535 -0.179,0.594 -0.121,0.531 -0.176,0.594 -0.238,0.59 -0.243,0.589 -0.238,0.489 -0.359,0.425 -0.239,0.27 -0.238,0.215 -0.418,0.269 -0.414,0.055 -0.301,-0.109 -0.418,-0.215 -0.476,-0.32 -0.418,-0.43 -0.477,-0.434 -0.418,-0.48 -0.476,-0.485 -0.539,-0.535 -0.535,-0.488 -0.598,-0.481 -0.539,-0.484 -0.594,-0.43 -0.476,-0.429 -0.54,-0.535 -0.476,-0.59 -0.422,-0.699 -0.535,-0.754 -0.356,-0.75 -0.242,-0.809 -0.238,-0.805 -0.176,-0.804 -0.121,-0.805 -0.18,-0.699 -0.179,-0.535 -0.239,-0.485 -0.175,-0.32 -0.239,-0.43 -0.3,-0.379 -0.18,-0.32 -0.297,0.051 -0.359,0.109 -0.356,0.051 h -1.433 l -0.301,-0.102 -0.238,-0.218 -0.297,-0.321 -0.301,-0.269 -0.594,-0.43 -0.422,-0.16 -0.293,-0.109 -0.48,-0.266 -0.418,-0.324 -0.418,-0.211 -0.656,-0.27 -0.297,-0.105 -0.36,-0.114 -0.355,-0.484 -0.359,-0.426 -0.243,-0.429 -0.355,-0.27 -0.297,-0.16 -0.481,-0.055 -0.535,-0.054 -0.418,-0.106 -0.359,-0.058 -0.418,-0.106 -0.355,-0.105 -0.36,-0.055 -0.476,-0.16 -0.418,-0.106 -0.477,-0.164 -0.422,-0.16 -0.414,-0.215 -0.359,-0.054 -0.297,0.105 -0.598,0.055 h -0.894 l -0.36,-0.055 h -0.535 l -0.476,-0.105 -0.301,-0.051 -0.418,-0.11 -0.656,-0.16 -0.356,-0.164 -0.359,-0.051 -0.301,0.106 -0.418,-0.055 -0.355,-0.265 -0.301,-0.54 -0.297,-0.48 -0.238,-0.273 -0.18,0.589 -0.059,0.325 v 0.328 l -0.121,0.316 -0.355,-0.265 -0.418,-0.485 -0.238,-0.43 -0.301,-0.32 -0.18,-0.273 -0.297,-0.16 -0.301,-0.161 -0.238,-0.214 -0.238,-0.27 -0.176,-0.375 -0.18,-0.484 -0.062,-0.422 -0.059,-0.598 0.059,-0.375 -0.414,-0.16 -0.481,-0.055 -0.957,-0.215 -0.652,-0.16 -0.481,-0.109 -0.535,-0.27 -0.359,-0.16 -0.414,-0.105 -0.422,-0.11 -0.297,-0.05 v 0.32 l -0.476,-0.055 -0.297,0.055 0.715,-0.16 0.593,-0.11 0.539,-0.105 0.657,-0.109 0.777,-0.051 h 1.73 l 1.133,0.265 1.192,0.325 1.316,0.48 1.371,0.594 1.375,0.59 1.43,0.589 1.492,0.645 1.434,0.645 1.429,0.75 1.371,0.753 1.254,0.754 1.133,0.75 1.016,0.7 0.957,0.699 0.836,0.644 0.715,0.641 0.597,0.594 0.535,0.644 0.422,0.59 0.414,0.535 0.36,0.594 0.359,0.535 0.356,0.594 0.359,0.695 0.359,0.754 0.418,0.86 0.414,0.804 0.242,0.75 0.415,0.699 0.359,0.594 0.359,0.481 0.477,0.539 0.297,0.48 0.359,0.43 0.36,0.433 0.359,0.426 0.297,0.379 0.355,0.43 0.36,0.48 0.418,0.43 0.476,0.594 0.418,0.429 0.477,0.536 0.422,0.324 0.355,0.32 0.359,0.215 0.418,0.32 0.536,0.274 0.359,0.265 0.598,0.325 0.355,0.375 0.477,0.429 0.718,0.75 0.36,0.324 0.355,0.211 0.36,0.379 0.535,0.43 0.242,0.269 0.414,0.215 0.539,0.321 0.477,0.328 0.597,0.316 0.535,0.375 0.539,0.324 0.418,0.43 0.477,0.32 0.359,0.379 0.356,0.321 0.422,0.269 0.773,0.59 0.418,0.539 0.356,0.27 0.421,0.265 0.895,0.59 0.594,0.43 0.539,0.375 0.715,0.429 0.953,0.594 0.359,0.27 0.719,0.429 0.297,0.11 0.359,0.211 0.36,0.164 0.296,0.32 0.418,0.32 0.477,0.379 0.355,0.481 0.477,0.484 0.359,0.535 0.36,0.379 0.359,0.43 0.297,0.324 0.301,0.16 0.418,0.375 0.355,0.27 0.477,0.265 0.301,0.11 0.359,0.16 0.652,0.27 0.481,0.429 0.359,0.215 0.297,0.219 0.297,0.207 0.301,0.215 0.355,0.328 0.359,0.265 0.356,0.11 0.301,0.105 0.656,0.27 0.359,0.16 0.297,0.105 0.356,0.11 0.359,-0.215 0.301,-0.16 0.355,-0.27 0.418,-0.429 0.18,-0.379 0.121,-0.481 -0.062,-0.539 v -0.535 l -0.118,-0.59 -0.121,-0.539 -0.117,-0.535 -0.18,-0.594 -0.238,-0.59 -0.18,-0.644 -0.238,-0.641 -0.238,-0.648 -0.297,-0.586 -0.238,-0.594 -0.422,-0.75 -0.18,-0.379 -0.297,-0.324 -0.179,-0.266 -0.297,-0.215 -0.301,-0.16 -0.477,-0.164 -0.593,-0.16 -0.539,-0.105 -0.836,-0.164 -0.774,-0.266 -0.898,-0.215 -0.953,-0.324 -1.012,-0.324 -1.137,-0.321 -1.133,-0.535 -1.254,-0.539 -1.253,-0.695 -1.372,-0.75 -1.375,-0.758 -1.371,-0.855 L 98.656,43.273 97.34,42.305 96.148,41.344 94.953,40.371 93.879,39.461 92.926,38.652 91.91,37.793 90.121,36.074 89.406,35.16 88.809,34.25 88.391,33.336 88.031,32.531 87.676,31.727 87.496,30.973 87.258,30.168 87.074,29.414 87.02,28.609 86.957,27.805 86.898,27 v -0.859 l -0.062,-0.914 -0.055,-0.86 v -2.578 l -0.062,-0.43 V 20.93 L 86.66,20.5 v -2.848 l -0.359,0.11 -0.239,0.215 -0.296,0.269 -0.36,0.16 -0.656,0.27 -0.539,0.105 -0.594,0.106 -0.715,0.054 -0.597,0.055 -1.016,-0.055 -0.359,-0.214 -0.297,-0.215 -0.301,-0.43 -0.176,-0.531 -0.179,-0.649 -0.059,-0.754 -0.063,-0.75 v -0.75 l -0.058,-0.539 v -0.32 l -0.238,0.695 -0.121,0.7 -0.122,0.804 -0.117,0.645 -0.058,0.429 -0.063,0.325 L 78.781,17.223 78.543,17.012 78.246,16.688 78.008,16.309 77.824,15.828 77.648,15.289 77.531,14.754 77.41,14.109 77.293,13.41 77.23,12.711 77.172,12.07 v -0.859 l -0.481,0.156 -0.535,0.324 -0.359,0.379 -0.359,0.211 -0.356,0.164 -0.297,0.051 -0.539,-0.375 -0.301,-0.32 -0.355,-0.485 -0.418,-0.754 -0.18,-0.261 -0.476,-0.383 -0.356,0.164 -0.301,0.375 -0.238,0.219 -0.238,0.262 -0.36,0.324 -0.535,0.164 h -1.195 l -0.535,0.051 -0.836,0.054 -0.418,0.055 -0.301,0.055 0.301,0.105 0.656,0.27 0.477,0.32 0.297,0.055 0.359,0.054 0.359,0.16"
                   style="fill:none;stroke:#f66151;stroke-width:19.84;stroke-linecap:round;stroke-linejoin:round;stroke-miterlimit:10;stroke-dasharray:none;stroke-opacity:0.470588"
                   id="path20" /></g></g></g></g></g><g
         id="g30"><path
           d="m 72.398,103.801 -0.421,0.269 -0.477,0.321 -0.594,0.589 -0.777,0.809 -1.133,1.18 -1.492,1.773 -1.793,2.309 -2.266,2.742 -2.507,3.113 -3.043,3.438 -3.344,3.758 -3.52,4.082 -3.699,4.402 -3.762,4.566 -3.879,4.836 -4.117,5.371 -4.234,5.586 -4.18,5.637 -3.996,5.426 -3.582,4.836 -3.102,4.242 -2.566,3.543 -2.148,2.898 -1.731,2.317 -1.312,1.711 -0.836,1.078 -0.481,0.535 0.18,-0.27 0.301,-0.375 0.297,-0.375 0.238,-0.269 0.238,-0.375 0.301,-0.43 0.059,-0.429"
           style="fill:none;stroke:#000000;stroke-width:0.85;stroke-linecap:round;stroke-linejoin:round;stroke-miterlimit:10;stroke-dasharray:none;stroke-opacity:1"
           id="path32" /></g><g
         id="g34"><path
           d="m 5.02,183.395 -0.36,-0.266 -0.293,-0.109 0.653,0.16 0.656,0.269 0.719,0.321 0.953,0.488 0.953,0.375 1.015,0.48 0.957,0.43 0.895,0.324 0.836,0.321 0.535,0.218 0.539,0.106 0.301,0.109 0.355,0.16 -0.777,-0.054 -0.656,-0.051 -0.953,-0.27 -0.957,-0.379"
           style="fill:none;stroke:#000000;stroke-width:0.85;stroke-linecap:round;stroke-linejoin:round;stroke-miterlimit:10;stroke-dasharray:none;stroke-opacity:1"
           id="path36" /></g><g
         id="g38"><path
           d="m 5.262,182.805 -0.418,0.054 -0.301,0.215 -0.238,0.321 -0.239,0.484 -0.238,0.644 -0.359,0.754 -0.356,0.856 -0.359,0.969 -0.418,1.019 -0.418,0.973 -0.418,0.855 -0.418,0.805 -0.355,0.644 -0.184,0.481 -0.117,0.379 0.597,-0.27 0.657,-0.32 0.894,-0.379 0.953,-0.535 1.016,-0.535 1.133,-0.594 1.078,-0.641 0.953,-0.488 0.715,-0.266 0.476,-0.214 0.301,-0.161 -0.715,0.106"
           style="fill:none;stroke:#000000;stroke-width:0.85;stroke-linecap:round;stroke-linejoin:round;stroke-miterlimit:10;stroke-dasharray:none;stroke-opacity:1"
           id="path40" /></g><g
         id="g42"><path
           d="m 26.625,115.457 0.176,0.32 0.601,0.215 0.891,0.379 1.078,0.375 1.309,0.32 1.554,0.375 1.911,0.379 2.265,0.375 2.629,0.375 2.984,0.594 3.34,0.641 3.817,0.808 4.121,0.965 4.594,1.074 4.894,1.289 5.133,1.403 5.25,1.5 5.492,1.554 5.488,1.504 5.551,1.504 5.609,1.504 5.668,1.504 5.551,1.504 5.61,1.508 5.371,1.445 5.191,1.508 5.012,1.394 4.656,1.403 4.297,1.281 3.937,1.184 3.641,1.019 3.285,0.965 2.922,0.754 2.449,0.644 1.965,0.59 1.438,0.43 0.953,0.324 0.594,0.215 0.3,0.16 -0.476,-0.109 -0.238,-0.215 -0.301,-0.215 -0.657,-0.215 -0.535,-0.16 -0.418,-0.055"
           style="fill:none;stroke:#000000;stroke-width:0.85;stroke-linecap:round;stroke-linejoin:round;stroke-miterlimit:10;stroke-dasharray:none;stroke-opacity:1"
           id="path44" /></g><g
         id="g46"><path
           d="m 160.539,149.988 -0.117,0.43 -0.301,0.539 -0.297,0.699 -0.418,0.75 -0.359,0.59 -0.238,0.539 -0.239,0.375 -0.117,0.379 -0.121,-0.324 -0.062,-0.485 v -0.75 l 0.238,-0.968 0.242,-1.02 0.297,-0.969 0.359,-0.914 0.239,-0.75 0.3,-0.589 0.356,-0.59 0.297,-0.055 0.539,0.484 0.418,0.536 0.476,0.589 0.539,0.649 0.715,0.59 0.656,0.535 0.715,0.59 0.715,0.539 0.481,0.429 0.535,0.43 0.418,0.32 0.238,0.215 0.301,0.215 0.238,0.27 -0.238,0.32 -0.418,0.164 -0.539,0.16 -0.778,0.106 -0.773,0.109 h -0.774 l -0.898,0.055 h -1.492 l -0.656,-0.055 h -0.418 l -0.36,-0.051"
           style="fill:none;stroke:#000000;stroke-width:0.85;stroke-linecap:round;stroke-linejoin:round;stroke-miterlimit:10;stroke-dasharray:none;stroke-opacity:1"
           id="path48" /></g><g
         id="g50"><path
           d="m 53.18,31.992 -0.297,-0.051 -0.301,0.11 -0.117,0.75 -0.121,0.644 -0.059,0.696 -0.117,0.859 -0.242,1.074 -0.176,1.399 -0.184,1.718 -0.175,1.989 -0.063,2.203 -0.117,2.469 -0.059,2.742 -0.062,2.898 -0.059,3.168 -0.058,3.274 v 3.382 l 0.117,3.813 0.121,3.976 0.18,4.297 0.121,4.457 0.297,4.457 0.238,4.457 0.359,4.512 0.297,4.406 0.18,4.407 0.238,4.246 0.121,4.129 0.117,3.922 0.071,2.097"
           style="fill:none;stroke:#000000;stroke-width:0.85;stroke-linecap:round;stroke-linejoin:round;stroke-miterlimit:10;stroke-dasharray:none;stroke-opacity:1"
           id="path52" /></g><g
         id="g54"><path
           d="m 53.52,118.215 0.019,1 0.059,2.844 v 4.515 l 0.121,1.719 0.179,1.184 0.239,0.699 0.175,0.426 0.122,0.375 -0.297,0.109 -0.18,-0.324 -0.18,-0.43 -0.058,-0.324 -0.121,-0.75 -0.059,-0.699 0.059,-0.59"
           style="fill:none;stroke:#000000;stroke-width:0.85;stroke-linecap:round;stroke-linejoin:round;stroke-miterlimit:10;stroke-dasharray:none;stroke-opacity:1"
           id="path56" /></g><g
         id="g58"><path
           d="m 49.18,34.355 0.539,-0.261 0.597,0.047 0.657,0.109 0.894,0.16 1.672,0.434 0.773,0.156 0.719,0.16 h 0.477 l 0.297,0.055"
           style="fill:none;stroke:#000000;stroke-width:0.85;stroke-linecap:round;stroke-linejoin:round;stroke-miterlimit:10;stroke-dasharray:none;stroke-opacity:1"
           id="path60" /></g><g
         id="g62"><path
           d="m 47.57,34.094 -0.058,-0.543 -0.063,-0.535 0.121,-0.649 0.18,-0.965 0.359,-1.074 0.536,-1.18 0.476,-1.183 0.598,-1.18 0.539,-0.969 0.414,-0.75 0.359,-0.484 0.242,-0.27 0.415,0.489 0.179,0.535 0.477,1.609 0.238,0.86 0.301,0.859 0.359,0.805 0.176,0.75 0.18,0.754 0.179,0.539 0.059,0.48 0.121,0.434"
           style="fill:none;stroke:#000000;stroke-width:0.85;stroke-linecap:round;stroke-linejoin:round;stroke-miterlimit:10;stroke-dasharray:none;stroke-opacity:1"
           id="path64" /></g><g
         id="g66"><path
           d="m 7.406,60.246 v 0"
           style="fill:none;stroke:#ff0000;stroke-width:0.42;stroke-linecap:round;stroke-linejoin:round;stroke-miterlimit:10;stroke-dasharray:none;stroke-opacity:1"
           id="path68" /></g><g
         id="g70"><path
           d="m 85.809,90.27 v 0.511 l -0.051,0.52 -0.059,0.511 -0.054,0.809 v 0.512 l 0.054,0.515 0.223,0.446 0.223,0.656 0.386,0.883 0.442,0.961 0.386,1.097 0.446,1.473 0.5,1.543 0.441,1.91 0.555,1.985 0.387,2.132 0.445,2.129 0.441,2.133 0.442,2.059 0.558,2.054 0.496,2.067 0.61,2.125 0.609,2.058 0.609,2.133 0.664,2.278 0.668,2.425 0.61,2.5 0.664,2.496 0.664,2.575 0.609,2.578 0.664,2.566 0.719,2.797 0.664,2.863 0.723,2.938 0.828,2.941 0.777,2.867 0.887,2.719 0.887,2.574 0.941,2.719 0.996,2.723 1.055,2.793 1.164,2.789 1.273,2.722 1.274,2.571 1.328,2.574 1.332,2.5 1.219,2.277 1.273,2.282 1.274,2.203 1.273,1.984 1.332,1.984 1.383,1.696 1.332,1.539 1.383,1.32 1.441,1.176 1.442,1.031 1.496,0.879 1.496,0.59 1.492,0.371 1.555,0.145 1.605,-0.223 1.606,-0.363 1.605,-0.739 1.664,-0.953 1.715,-1.25 1.719,-1.472 1.773,-1.836 1.719,-2.059 1.828,-2.277 1.77,-2.426 1.886,-2.574 1.938,-2.864 1.883,-3.015 1.937,-3.305 1.774,-3.527 1.777,-3.676 1.715,-3.898 1.715,-3.969 1.777,-4.117 1.769,-4.336 1.774,-4.41 1.773,-4.481 1.715,-4.414 1.664,-4.188 1.606,-4.191 1.551,-4.113 1.441,-4.192 1.383,-3.972 1.332,-3.895 1.164,-3.597 1.054,-3.309 0.829,-2.793 0.664,-2.352 0.386,-1.765 0.391,-1.91 0.055,-0.516 0.109,-0.441 -0.219,-0.297 -0.058,-0.582 0.113,-0.879 0.332,-0.887 0.332,-0.59"
           style="fill:none;stroke:#ff0000;stroke-width:0.958072;stroke-linecap:round;stroke-linejoin:round;stroke-miterlimit:10;stroke-dasharray:none;stroke-opacity:1"
           id="path72" /></g><g
         id="g74"><path
           d="m 4.441,13.73 0.442,1.473 0.5,1.543 0.441,1.91 0.555,1.985 0.387,2.132 0.445,2.129 0.441,2.133 0.446,2.059 0.554,2.054 0.5,2.063 0.606,2.133 0.609,2.054 0.61,2.133 0.664,2.278 0.668,2.425 0.609,2.5 0.664,2.496 0.664,2.575 0.609,2.574 0.665,2.57 0.722,2.797 0.664,2.863 0.719,2.942 0.832,2.937 0.777,2.867 0.883,2.723 0.887,2.57 0.941,2.719 0.996,2.719 1.055,2.793 1.164,2.797 1.274,2.719 1.273,2.57 1.328,2.574 1.332,2.5 1.219,2.277 1.273,2.282 1.278,2.203 1.273,1.984 1.328,1.985 1.383,1.691 1.332,1.543 1.383,1.32 1.441,1.18 1.442,1.027 1.496,0.879 1.496,0.59 1.492,0.371"
           style="fill:none;stroke:#ff0000;stroke-width:0.958072;stroke-linecap:round;stroke-linejoin:round;stroke-miterlimit:10;stroke-dasharray:none;stroke-opacity:1"
           id="path76" /></g><g
         id="g78"><g
           id="g80" /><g
           id="g92"><g
             clip-path="url(#clipPath84)"
             id="g90"><g
               id="g88"><path
                 d="m 17.246,7.684 c -0.93,0.004 -1.855,0.144 -2.75,0.406 l -0.351,0.105 c -2.493,0.739 -4.598,2.422 -5.86,4.696 l -0.18,0.324 C 7.031,15.148 6.633,17.387 6.98,19.57 l 0.059,0.375 c 0.047,0.293 0.109,0.582 0.188,0.867 0,0.004 0,0.004 0,0.008 0.019,0.09 0.039,0.184 0.062,0.274 L 7.25,20.957 7.266,21.082 c 0.007,0.055 0.019,0.113 0.031,0.172 l 0.031,0.203 0.035,0.266 c 0.028,0.195 0.059,0.394 0.098,0.589 l 0.039,0.18 0.023,0.153 c 0.004,0.597 0.059,1.195 0.172,1.785 l 0.063,0.32 c 0.078,0.402 0.18,0.801 0.308,1.191 l 0.176,0.539 c 0.047,0.141 0.094,0.282 0.149,0.422 l 0.203,0.547 C 8.77,27.93 8.98,28.398 9.23,28.848 l 0.18,0.328 c 0.008,0.14 0.016,0.281 0.028,0.422 l 0.058,0.484 c 0.024,0.188 0.055,0.379 0.09,0.566 l 0.055,0.321 c 0.117,0.652 0.3,1.293 0.55,1.91 l 0.028,0.074 0.047,0.402 c 0.027,0.211 0.058,0.422 0.093,0.629 l 0.059,0.325 c 0.164,0.898 0.453,1.769 0.855,2.586 l -0.121,-0.333 0.051,0.165 0.059,0.187 0.074,0.254 c 0.039,0.133 0.078,0.266 0.121,0.398 l -0.019,-0.054 0.019,0.093 c 0.012,0.059 0.027,0.118 0.043,0.176 l 0.02,0.094 0.019,0.133 c 0.141,1.039 0.445,2.047 0.906,2.992 0.098,0.297 0.215,0.586 0.34,0.871 l 0.047,0.086 0.117,0.297 c 0.016,0.035 0.035,0.07 0.055,0.105 v 0.75 c 0,0.422 0.023,0.84 0.078,1.258 l 0.063,0.485 c 0.062,0.484 0.16,0.964 0.289,1.437 l 0.043,0.141 0.058,0.254 c 0.02,0.097 0.043,0.199 0.07,0.296 l 0.079,0.329 0.086,0.375 c 0.039,0.187 0.082,0.375 0.132,0.562 l 0.243,0.856 0.035,0.199 c 0.043,0.226 0.09,0.453 0.148,0.676 l 0.121,0.464 0.071,0.36 c 0.144,0.695 0.363,1.375 0.648,2.027 l 0.051,0.106 0.027,0.093 c 0.016,0.039 0.027,0.075 0.039,0.11 l -0.086,-0.582 c 0.176,1.129 0.543,2.218 1.09,3.226 l -0.144,-0.804 c 0.054,0.308 0.128,0.617 0.214,0.918 l 0.043,0.156 v 0.004 l 0.075,0.269 c 0.035,0.121 0.07,0.242 0.109,0.36 l 0.055,0.175 v -0.062 l -0.012,-0.051 -0.016,-0.117 c 0.008,0.059 0.02,0.113 0.028,0.168 v -0.582 c 0,1.031 0.164,2.058 0.48,3.039 l 0.117,0.379 c 0.012,0.023 0.02,0.051 0.032,0.074 l 0.05,0.398 c 0.032,0.262 0.078,0.52 0.129,0.778 l 0.18,0.859 c 0.043,0.207 0.094,0.41 0.148,0.613 l 0.239,0.86 c 0.035,0.117 0.07,0.234 0.105,0.351 l 0.238,0.746 0.118,0.372 C 18.371,65.117 18.293,65.555 18.246,66 L 18.223,65.898 18.23,66 c 0.059,0.73 0.2,1.453 0.422,2.152 l 0.114,0.371 c 0.304,0.887 0.73,1.723 1.269,2.489 l 0.074,0.207 c 0.043,0.062 0.086,0.125 0.129,0.187 0.012,0.028 0.028,0.055 0.039,0.078 l -0.121,-0.16 c 0.164,0.442 0.36,0.867 0.586,1.281 l 0.281,0.508 0.063,0.223 -0.027,-0.16 c 0,0.004 0.003,0.008 0.003,0.008 l 0.004,0.004 c 0.012,0.082 0.032,0.16 0.047,0.242 0,0.004 0.004,0.011 0.004,0.015 0.012,0.055 0.024,0.11 0.035,0.168 l 0.176,0.75 c 0.063,0.203 0.129,0.403 0.199,0.602 l -0.05,-0.293 0.062,0.32 v 0.004 c 0.082,0.305 0.18,0.606 0.293,0.902 l -0.164,-0.39 c 0.051,0.238 0.113,0.476 0.184,0.711 l 0.175,0.539 c 0.141,0.379 0.305,0.75 0.493,1.109 0.093,0.238 0.195,0.473 0.308,0.703 l -0.187,-0.336 c 0.031,0.11 0.07,0.215 0.105,0.321 l 0.172,0.453 0.055,0.18 c 0.14,0.39 0.308,0.773 0.5,1.144 0.043,0.367 0.109,0.73 0.199,1.09 l 0.117,0.32 c 0.086,0.219 0.176,0.43 0.277,0.641 l -0.031,-0.086 c 0.008,0.023 0.02,0.047 0.031,0.074 v 0.012 c 0,0.004 0.004,0.008 0.004,0.012 0.02,0.046 0.039,0.089 0.059,0.132 l -0.039,-0.082 -0.02,-0.05 0.082,0.375 c 0.071,0.312 0.153,0.621 0.25,0.925 l 0.121,0.375 c 0.137,0.43 0.305,0.844 0.497,1.25 l 0.183,0.375 c 0.113,0.188 0.235,0.375 0.363,0.555 0.02,0.062 0.039,0.121 0.059,0.184 l 0.121,0.32 c 0.004,0.008 0.004,0.012 0.008,0.019 l 0.07,0.247 c 0.063,0.207 0.129,0.41 0.203,0.613 l 0.243,0.644 c 0.105,0.293 0.226,0.578 0.363,0.86 l 0.07,0.148 0.086,0.199 c 0.008,0.024 0.02,0.047 0.031,0.071 0,0.004 0,0.007 0.004,0.011 0.051,0.122 0.102,0.239 0.16,0.356 l -0.136,-0.285 c 0.039,0.129 0.082,0.254 0.125,0.375 l 0.05,0.148 0.188,0.574 c 0.195,0.606 0.453,1.192 0.762,1.75 l 0.476,0.868 c 0.168,0.261 0.348,0.515 0.539,0.761 0.008,0.25 0.028,0.504 0.055,0.754 l 0.117,0.809 c 0.078,0.332 0.172,0.664 0.285,0.988 l -0.023,-0.215 c 0.117,1.004 0.383,1.985 0.797,2.906 l 0.172,0.391 0.113,0.281 c 0.426,1.035 1.019,1.993 1.758,2.828 l 0.242,0.27 c 0.488,0.551 1.035,1.047 1.633,1.477 0.008,0.003 0.011,0.007 0.015,0.011 0.008,0.004 0.012,0.008 0.02,0.012 0.14,0.316 0.297,0.625 0.469,0.922 l 0.175,0.269 c 0.133,0.188 0.27,0.375 0.411,0.555 l 0.222,0.281 -0.129,-0.168 -0.48,-0.796 -0.192,-0.598 -0.371,-0.336 -0.066,-0.094 c 0.012,0.008 0.019,0.016 0.031,0.024 l -0.09,-0.11 -0.031,-0.043 c 0.004,0.004 0.008,0.012 0.012,0.02 l -0.195,-0.235 c 0.042,0.043 0.085,0.09 0.128,0.137 l -0.062,-0.094 -0.02,-0.023 -0.004,-0.008 -0.066,-0.094 c 0.02,0.024 0.039,0.047 0.059,0.075 l -0.059,-0.106 -0.23,-0.406 -0.157,-0.438 c 0.164,0.383 0.356,0.758 0.571,1.121 0,0 0,0.004 0,0.004 0,0 0,0 0.004,0 0.105,0.118 0.214,0.235 0.328,0.348 l -0.188,-0.148 c 0.07,0.054 0.141,0.113 0.211,0.168 0.059,0.062 0.117,0.125 0.176,0.183 l -0.016,-0.055 c 0.016,0.028 0.032,0.059 0.047,0.086 0.074,0.082 0.152,0.164 0.235,0.246 l -0.207,-0.183 c 0.332,0.992 0.816,1.926 1.441,2.766 l 0.234,0.316 c 0.383,0.504 0.809,0.969 1.278,1.394 l -0.032,-0.027 c 0.145,0.156 0.297,0.309 0.453,0.453 0,0.004 0.004,0.008 0.008,0.012 0.016,0.016 0.032,0.031 0.051,0.051 l -0.027,-0.028 0.32,0.364 c 0.25,0.285 0.52,0.554 0.805,0.812 l 0.297,0.27 c 0.394,0.351 0.82,0.672 1.265,0.961 l 0.41,0.261 c 0.274,0.176 0.555,0.34 0.844,0.489 l 0.418,0.215 c 0.051,0.023 0.102,0.046 0.152,0.07 0.004,0.004 0.008,0.008 0.012,0.012 0.047,0.828 0.195,1.648 0.449,2.441 l 0.176,0.269 c 0.305,0.426 0.637,0.825 1.004,1.192 0.031,-0.016 0.066,-0.031 0.102,-0.039 0.39,0 0.703,0.312 0.707,0.703 -0.004,0.055 -0.016,0.113 -0.035,0.168 0.55,0.496 1.156,0.93 1.8,1.293 l -0.371,-0.203 c 0.121,0.179 0.25,0.351 0.383,0.519 l -0.242,-0.218 -0.207,-0.336 -0.656,-0.36 -0.165,-0.172 c 0.079,0.09 0.153,0.18 0.235,0.266 l 0.422,0.375 c 0.172,0.148 0.351,0.293 0.535,0.434 0,0 0,0 0.004,0 0.039,0.031 0.078,0.062 0.117,0.097 0.004,0 0.004,0 0.004,0 l -0.043,-0.062 c 0.016,0.023 0.031,0.043 0.051,0.066 v 0.004 c 0.008,0.012 0.015,0.02 0.023,0.031 l 0.031,0.028 c 0.004,0.004 0.008,0.007 0.012,0.011 0.094,0.133 0.192,0.262 0.289,0.391 l -0.148,-0.168 c 0.011,0.02 0.023,0.035 0.039,0.055 l 0.234,0.316 c 0.031,0.035 0.063,0.067 0.09,0.102 0.016,-0.008 0.027,-0.016 0.039,-0.02 l -0.129,-0.34 c 0.004,0 0.004,0.004 0.008,0.004 l 0.133,0.324 c 0,0 0,0.004 0.004,0.008 0.015,-0.008 0.031,-0.015 0.05,-0.023 l -0.082,-0.223 c 0.004,0.004 0.012,0.008 0.016,0.016 l -0.016,-0.02 -0.089,-0.246 -0.047,-0.258 c 0.07,0.196 0.144,0.387 0.226,0.578 0.039,0.032 0.078,0.067 0.118,0.098 0.167,-0.094 0.343,-0.172 0.523,-0.234 0.141,-0.012 0.277,-0.012 0.418,-0.004 1.144,0.058 2.141,0.805 2.523,1.887 0.149,0.078 0.289,0.171 0.422,0.277 l 0.117,0.109 0.164,0.117 c 0.399,0.293 0.711,0.684 0.911,1.133 0.156,0.227 0.324,0.446 0.504,0.66 l -0.34,-0.246 c 0.226,0.828 0.066,1.715 -0.438,2.414 -0.051,0.063 -0.101,0.129 -0.16,0.188 0.18,-0.043 0.367,-0.039 0.543,0.004 0.004,-0.184 0.051,-0.364 0.137,-0.528 l 0.172,-0.316 c 0.144,-0.262 0.382,-0.461 0.671,-0.543 0.286,-0.086 0.598,-0.055 0.86,0.086 0.195,0.109 0.359,0.273 0.461,0.469 0.207,0.086 0.383,0.226 0.512,0.41 l 0.238,0.383 c 0.031,0.051 0.058,0.101 0.082,0.156 l 0.183,0.43 c 0.008,0.019 0.016,0.035 0.024,0.05 0,0.004 0,0.004 0,0.004 0.035,0.051 0.074,0.106 0.113,0.157 l 0.074,0.046 0.34,0.176 c 0.012,0.004 0.024,0.012 0.035,0.02 l 0.446,0.289 c 0.004,0.004 0.011,0.008 0.019,0.012 l 0.32,0.242 c 0.024,0.019 0.047,0.039 0.071,0.062 l 0.199,0.235 c 0.016,0.015 0.031,0.035 0.043,0.058 l 0.172,0.281 0.191,0.29 0.184,0.214 c 0.051,0.059 0.082,0.129 0.098,0.207 l 0.003,0.032 0.063,0.066 0.273,0.219 c 0.008,0.004 0.012,0.012 0.02,0.015 l 0.234,0.211 0.266,0.243 0.293,0.187 c 0.027,0.02 0.055,0.039 0.078,0.063 l 0.203,0.21 0.262,0.192 c 0.015,0.008 0.027,0.016 0.039,0.027 l 0.262,0.239 c 0.007,0.003 0.011,0.007 0.015,0.015 l 0.239,0.235 c 0,0 0.003,0.003 0.003,0.003 l 0.235,0.239 c 0.008,0.011 0.015,0.023 0.023,0.035 l 0.211,0.265 c 0.008,0.012 0.02,0.028 0.028,0.043 l 0.207,0.34 c 0.003,0.012 0.011,0.024 0.015,0.039 l 0.149,0.317 c 0.004,0 0.004,0.004 0.007,0.004 l 0.133,0.3 0.192,0.317 c 0.004,0.004 0.004,0.008 0.007,0.012 l 0.047,0.082 0.239,0.175 0.281,0.2 0.281,0.179 c 0.02,0.012 0.039,0.028 0.059,0.043 l 0.23,0.211 0.262,0.227 0.312,0.265 c 0.016,0.008 0.032,0.024 0.043,0.036 l 0.282,0.304 0.211,0.188 0.25,0.203 0.269,0.219 c 0.008,0.004 0.016,0.011 0.024,0.023 l 0.324,0.305 c 0,0.004 0.004,0.008 0.008,0.011 l 0.222,0.227 0.227,0.203 c 0.039,0.035 0.07,0.078 0.097,0.125 l 0.129,0.27 0.149,0.218 0.187,0.211 c 0.028,0.032 0.051,0.067 0.067,0.106 l 0.136,0.293 0.161,0.269 c 0.011,0.016 0.023,0.039 0.031,0.059 l 0.09,0.226 0.16,0.184 c 0.004,0.012 0.012,0.024 0.015,0.035 0.082,-0.199 0.301,-0.308 0.512,-0.25 l 0.293,0.133 c 0.039,0.02 0.078,0.043 0.11,0.074 l 0.234,0.211 c 0.008,0.008 0.019,0.02 0.031,0.031 l 0.203,0.235 c 0.004,0.004 0.008,0.008 0.012,0.015 l 0.223,0.27 0.246,0.254 c 0.008,0.004 0.011,0.008 0.015,0.016 l 0.356,0.394 c 0.008,0.008 0.015,0.02 0.023,0.031 l 0.324,0.446 c 0.004,0.007 0.008,0.015 0.016,0.019 l 0.164,0.258 0.211,0.172 c 0.024,0.019 0.047,0.043 0.07,0.07 l 0.262,0.344 c 0.012,0.016 0.024,0.031 0.035,0.051 l 0.129,0.23 0.188,0.242 c 0.008,0.008 0.011,0.02 0.019,0.028 l 0.172,0.265 c 0.008,0.012 0.016,0.024 0.024,0.039 l 0.136,0.266 0.172,0.238 0.192,0.223 c 0.003,0.008 0.011,0.016 0.015,0.023 l 0.203,0.258 c 0.004,0.012 0.012,0.02 0.016,0.028 l 0.176,0.265 c 0.011,0.012 0.019,0.024 0.023,0.035 l 0.203,0.387 0.211,0.356 0.184,0.214 c 0.008,0.012 0.015,0.024 0.023,0.036 l 0.176,0.257 c 0.004,0.008 0.008,0.016 0.012,0.024 l 0.172,0.285 0.273,0.246 c 0.031,0.023 0.055,0.055 0.078,0.086 l 0.192,0.301 0.218,0.273 c 0.004,0.008 0.008,0.012 0.012,0.02 l 0.262,0.363 0.207,0.281 0.172,0.227 0.234,0.207 c 0.016,0.015 0.031,0.031 0.043,0.047 l 0.199,0.234 0.035,0.035 c 0.063,0.004 0.125,0.02 0.184,0.047 l 0.012,0.024 0.144,0.238 0.184,0.211 c 0.008,0.011 0.019,0.027 0.027,0.043 l 0.106,0.152 0.058,0.055 0.27,0.238 c 0.019,0.02 0.039,0.039 0.054,0.059 l 0.215,0.293 0.215,0.218 c 0.008,0.004 0.016,0.012 0.02,0.016 l 0.211,0.246 0.273,0.246 c 0.016,0.012 0.023,0.024 0.035,0.035 l 0.235,0.258 c 0.007,0.012 0.015,0.02 0.023,0.031 l 0.195,0.262 0.289,0.195 c 0.02,0.016 0.043,0.032 0.063,0.051 l 0.293,0.289 c 0.008,0.008 0.015,0.016 0.023,0.028 l 0.176,0.207 0.234,0.179 c 0.024,0.024 0.051,0.047 0.071,0.078 l 0.203,0.262 c 0.004,0 0.004,0.004 0.008,0.008 l 0.199,0.269 0.219,0.176 c 0.015,0.012 0.031,0.028 0.047,0.043 l 0.25,0.278 0.222,0.195 c 0.004,0.004 0.008,0.008 0.012,0.012 l 0.41,0.394 c 0.004,0.008 0.012,0.016 0.02,0.024 l 0.199,0.218 0.238,0.157 c 0.02,0.011 0.035,0.023 0.055,0.039 l 0.293,0.261 c 0.004,0.008 0.011,0.016 0.015,0.02 l 0.235,0.238 0.234,0.231 c 0.012,0.011 0.02,0.019 0.027,0.031 l 0.278,0.336 0.254,0.144 c 0.015,0.012 0.035,0.024 0.05,0.039 l 0.293,0.239 c 0.028,0.019 0.051,0.043 0.071,0.07 l 0.164,0.211 0.199,0.141 0.012,0.007 c 0.094,0.079 0.144,0.192 0.148,0.313 l 0.11,0.059 c 0.015,0.011 0.031,0.019 0.046,0.031 l 0.34,0.254 0.313,0.203 c 0.015,0.012 0.035,0.027 0.051,0.043 l 0.261,0.238 0.223,0.199 0.316,0.258 c 0.032,0.024 0.055,0.051 0.079,0.078 l 0.179,0.25 0.223,0.141 c 0.031,0.015 0.055,0.035 0.078,0.058 l 0.258,0.258 0.281,0.254 c 0.008,0.008 0.012,0.012 0.02,0.016 l 0.261,0.261 c 0.016,0.016 0.028,0.032 0.039,0.047 l 0.176,0.235 0.203,0.179 c 0.024,0.02 0.047,0.047 0.067,0.075 l 0.195,0.277 0.309,0.375 0.195,0.219 0.223,0.23 c 0.027,0.024 0.046,0.051 0.066,0.082 l 0.195,0.34 0.219,0.199 c 0.035,0.028 0.063,0.067 0.086,0.106 l 0.141,0.254 0.21,0.191 c 0.059,0.055 0.102,0.121 0.126,0.195 l 0.07,0.25 0.14,0.211 c 0.067,0.114 0.082,0.25 0.036,0.371 l 0.132,0.282 0.172,0.332 0.024,0.011 c 0.078,0.043 0.152,0.094 0.222,0.153 l 0.293,0.269 c 0.047,0.043 0.086,0.086 0.125,0.137 l 0.301,0.375 c 0.024,0.027 0.043,0.055 0.067,0.086 l 0.168,0.266 0.097,0.14 0.133,0.117 c 0.074,0.067 0.141,0.145 0.199,0.231 l 0.168,0.265 0.352,0.524 c 0.054,0.078 0.097,0.16 0.129,0.25 l 0.054,0.148 0.094,0.118 0.313,0.238 c 0.101,0.078 0.191,0.172 0.261,0.281 l 0.129,0.199 0.18,0.207 c 0.031,0.035 0.058,0.071 0.086,0.106 l 0.183,0.269 c 0.024,0.032 0.047,0.067 0.067,0.106 l 0.133,0.246 0.195,0.258 c 0.031,0.047 0.059,0.09 0.086,0.14 l 0.082,0.149 0.336,0.301 c 0.027,0.027 0.055,0.054 0.082,0.085 l 0.234,0.262 0.293,0.313 c 0.039,0.043 0.078,0.093 0.11,0.144 l 0.078,0.11 0.269,0.207 c 0.059,0.047 0.114,0.097 0.164,0.156 l 0.239,0.273 c 0.031,0.035 0.058,0.071 0.082,0.11 l 0.183,0.265 c 0,0.004 0.004,0.004 0.004,0.008 l 0.18,0.27 c 0.004,0.007 0.008,0.011 0.012,0.019 l 0.238,0.375 c 0.012,0.02 0.023,0.039 0.035,0.059 l 0.238,0.426 c 0,0.003 0,0.003 0,0.007 l 0.176,0.317 0.09,0.156 0.211,0.188 c 0.113,0.101 0.203,0.226 0.269,0.363 l 0.114,0.234 0.136,0.156 c 0.032,0.036 0.059,0.071 0.086,0.11 l 0.164,0.246 0.227,0.305 c 0.027,0.039 0.055,0.078 0.074,0.121 l 0.059,0.105 0.093,0.067 c 0.036,0.023 0.067,0.046 0.094,0.074 l 0.239,0.211 c 0.07,0.066 0.132,0.14 0.187,0.218 l 0.125,0.192 0.234,0.246 c 0.047,0.051 0.09,0.105 0.125,0.16 l 0.137,0.203 0.047,0.02 c 0.031,0.011 0.062,0.023 0.094,0.039 l 0.711,0.379 0.414,0.215 c 0.113,0.054 0.207,0.14 0.273,0.246 l 0.207,0.324 0.199,0.219 c 0.004,0.004 0.008,0.007 0.008,0.011 l 0.711,0.805 0.27,0.293 0.269,0.242 c 0.02,0.016 0.035,0.031 0.051,0.047 l 0.219,0.238 0.187,0.098 c 0.055,0.027 0.102,0.063 0.145,0.105 l 0.293,0.266 0.301,0.262 c 0,0 0.003,0.004 0.007,0.008 l 0.297,0.269 c 0.043,0.039 0.078,0.082 0.113,0.129 l 0.34,0.516 0.243,0.304 0.312,0.282 c 0.059,0.05 0.105,0.113 0.145,0.179 l 0.175,0.313 0.172,0.281 c 0.035,0.043 0.067,0.09 0.098,0.137 l 0.605,0.535 c 0.004,0.004 0.004,0.008 0.008,0.012 l 0.168,0.152 0.484,0.234 0.208,0.082 0.156,0.043 0.23,0.055 0.336,0.039 c 0.238,0.028 0.469,0.082 0.696,0.168 l 0.41,0.16 c 0.152,0.059 0.297,0.129 0.433,0.211 l 0.719,0.43 c 0.164,0.098 0.312,0.211 0.453,0.336 l 0.223,0.203 0.398,0.312 c 0.196,0.157 0.367,0.332 0.516,0.532 l 0.058,0.078 0.27,0.18 c 0.105,0.074 0.207,0.152 0.305,0.238 l 0.359,0.32 c 0.004,0.004 0.008,0.008 0.016,0.012 l 0.359,0.324 c 0.055,0.051 0.105,0.102 0.156,0.156 l 0.278,0.289 0.332,0.297 c 0.004,0.008 0.011,0.016 0.019,0.024 l 0.238,0.215 c 0.133,0.121 0.25,0.25 0.356,0.394 l 0.195,0.258 0.035,0.031 c 0.18,0.164 0.336,0.348 0.469,0.551 l 0.176,0.269 c 0.035,0.047 0.062,0.098 0.094,0.149 l 0.121,0.215 0.523,0.754 c 0.008,0.015 0.016,0.027 0.024,0.043 l 0.254,0.375 0.343,0.386 c 0.09,0.098 0.168,0.203 0.242,0.313 l 0.258,0.39 0.293,0.332 0.469,0.528 c 0.016,0.023 0.031,0.043 0.051,0.062 l 0.359,0.426 c 0.012,0.02 0.028,0.039 0.039,0.059 l 0.149,0.101 c 0.09,0.063 0.172,0.133 0.254,0.207 l 0.289,0.258 0.351,0.316 c 0.004,0.004 0.008,0.008 0.012,0.012 l 0.363,0.324 0.231,0.211 0.203,0.18 0.262,0.199 c 0.195,0.145 0.367,0.313 0.519,0.504 l 0.203,0.262 0.008,0.004 0.105,0.066 c 0.133,0.086 0.258,0.184 0.375,0.289 l 0.36,0.325 c 0.344,0.308 0.609,0.699 0.765,1.132 l 0.118,0.325 c 0.121,0.355 0.168,0.73 0.14,1.101 0.121,0.043 0.239,0.09 0.356,0.149 l 0.41,0.21 c 0.051,0.028 0.101,0.055 0.148,0.083 l 0.215,0.128 0.445,0.2 c 0.024,0.011 0.047,0.023 0.067,0.035 0.508,-2.926 -0.32,-5.93 -2.266,-8.18 l -0.297,-0.324 c -0.304,-0.281 -0.625,-0.543 -0.961,-0.785 l 1.059,1.957 c -0.121,-0.223 -0.25,-0.438 -0.391,-0.653 l -0.238,-0.375 c -0.316,-0.437 -0.668,-0.851 -1.051,-1.234 -0.273,-0.172 -0.55,-0.328 -0.839,-0.473 l 0.113,-0.144 -0.297,-0.156 c -0.027,-0.012 -0.055,-0.024 -0.078,-0.036 l 0.191,0.293 c -0.004,0 -0.008,-0.003 -0.008,-0.003 -0.078,-0.106 -0.16,-0.211 -0.242,-0.313 -0.222,-0.109 -0.453,-0.211 -0.683,-0.305 -0.012,-0.023 -0.02,-0.043 -0.032,-0.066 l 0.59,0.207 c -0.121,-0.172 -0.246,-0.34 -0.379,-0.504 -0.004,0 -0.004,-0.004 -0.004,-0.004 h -0.004 c -0.011,-0.019 -0.023,-0.035 -0.039,-0.055 l 0.067,0.063 0.117,0.031 0.434,0.477 c -0.098,-0.094 -0.2,-0.184 -0.305,-0.27 l 0.187,0.285 0.34,0.118 0.625,0.566 c -0.097,-0.125 -0.203,-0.246 -0.308,-0.363 -0.024,-0.024 -0.051,-0.043 -0.078,-0.067 l 0.05,0.032 c -0.019,-0.02 -0.035,-0.04 -0.054,-0.063 l -0.235,-0.215 c -0.035,-0.027 -0.07,-0.058 -0.105,-0.09 l -0.293,-0.261 c -0.07,-0.043 -0.137,-0.086 -0.203,-0.129 l 0.519,0.152 c -0.222,-0.301 -0.457,-0.59 -0.711,-0.863 -0.164,-0.199 -0.34,-0.395 -0.523,-0.582 l 0.039,0.054 c -0.016,-0.019 -0.031,-0.039 -0.047,-0.058 -0.109,-0.129 -0.223,-0.254 -0.34,-0.379 l -0.051,-0.035 0.204,0.363 0.113,0.582 0.101,0.051 0.594,0.644 c -0.07,-0.046 -0.14,-0.093 -0.211,-0.14 l -0.215,-0.235 c -0.082,-0.07 -0.164,-0.14 -0.246,-0.207 l 0.016,0.075 0.328,0.293 c -0.027,-0.02 -0.055,-0.036 -0.082,-0.055 -0.082,-0.074 -0.16,-0.145 -0.242,-0.219 v 0.024 c -0.004,-0.012 -0.012,-0.024 -0.016,-0.036 -0.004,-0.003 -0.008,-0.007 -0.012,-0.011 v 0.066 c -0.003,-0.004 -0.003,-0.004 -0.007,-0.004 l 0.007,0.008 v 0.102 c -0.019,-0.051 -0.039,-0.098 -0.058,-0.145 -0.035,-0.023 -0.07,-0.047 -0.106,-0.07 l 0.164,0.25 v 0.144 l 0.082,0.024 c -0.015,-0.035 -0.031,-0.071 -0.042,-0.106 l 0.046,0.078 0.012,0.032 0.016,0.007 0.035,0.055 0.144,0.352 0.082,0.027 0.036,0.07 c -0.032,-0.015 -0.063,-0.027 -0.094,-0.039 l 0.047,0.11 c -0.121,-0.075 -0.242,-0.141 -0.364,-0.207 v 0.043 c -0.003,-0.02 -0.007,-0.036 -0.011,-0.051 -0.082,-0.047 -0.16,-0.09 -0.242,-0.137 -0.036,-0.121 -0.071,-0.242 -0.11,-0.363 l 0.238,0.07 c -0.031,-0.133 -0.066,-0.266 -0.105,-0.398 -0.094,-0.067 -0.195,-0.133 -0.293,-0.196 -0.016,-0.058 -0.035,-0.113 -0.051,-0.172 l 0.207,0.098 0.039,0.059 c 0,0.004 0,0.004 0.004,0.004 l 0.055,0.039 c -0.008,-0.02 -0.012,-0.039 -0.02,-0.059 0,-0.004 0,-0.004 0,-0.004 -0.046,-0.215 -0.101,-0.426 -0.164,-0.637 -0.047,-0.128 -0.097,-0.253 -0.152,-0.378 0,0 0,0 0,-0.004 -0.078,-0.211 -0.16,-0.422 -0.25,-0.629 -0.094,-0.121 -0.187,-0.239 -0.285,-0.356 -0.121,-0.597 -0.297,-1.179 -0.528,-1.742 -0.14,-0.269 -0.292,-0.531 -0.457,-0.789 l -0.011,-0.016 -0.004,-0.004 c -0.152,-0.23 -0.317,-0.457 -0.492,-0.671 l 0.07,0.121 c -0.035,-0.055 -0.066,-0.11 -0.098,-0.168 -0.277,-0.446 -0.586,-0.871 -0.929,-1.27 l 0.429,0.457 -0.023,-0.039 c -0.121,-0.187 -0.25,-0.371 -0.383,-0.554 l -0.238,-0.321 c -0.114,-0.129 -0.227,-0.258 -0.348,-0.383 h -0.004 c -0.129,-0.152 -0.262,-0.3 -0.398,-0.445 l 0.199,0.363 c -0.098,-0.164 -0.203,-0.328 -0.309,-0.484 -0.113,-0.129 -0.23,-0.258 -0.347,-0.383 l 0.129,0.352 c -0.036,-0.102 -0.078,-0.203 -0.118,-0.305 l -0.027,-0.062 c -0.031,-0.036 -0.062,-0.071 -0.094,-0.106 l 0.082,0.074 -0.07,-0.172 c -0.258,-0.316 -0.535,-0.617 -0.828,-0.902 l 0.691,0.617 c -0.019,-0.039 -0.043,-0.078 -0.062,-0.117 -0.238,-0.348 -0.5,-0.68 -0.781,-0.996 v 1.883 c -0.18,-1.317 -0.621,-2.582 -1.297,-3.723 -0.473,-2.488 -1.879,-4.703 -3.93,-6.187 l 1.637,1.097 c -0.106,-0.332 -0.227,-0.656 -0.363,-0.972 -0.102,-0.235 -0.211,-0.461 -0.329,-0.688 l 0.168,0.246 c -0.047,-0.133 -0.097,-0.265 -0.152,-0.398 -0.176,-0.406 -0.379,-0.805 -0.609,-1.184 l -0.036,-0.047 -0.222,-0.371 c -0.039,-0.066 -0.082,-0.133 -0.121,-0.199 l -0.078,-0.117 -0.086,-0.16 c -0.09,-0.16 -0.18,-0.317 -0.278,-0.473 l -0.238,-0.379 c -0.121,-0.148 -0.246,-0.297 -0.375,-0.441 l 0.137,0.25 c -0.117,-0.18 -0.239,-0.352 -0.367,-0.524 l 0.433,1.157 0.16,0.484 0.059,0.32 c -0.25,-0.562 -0.555,-1.101 -0.902,-1.609 l 0.003,0.012 c -0.003,-0.004 -0.003,-0.012 -0.007,-0.02 -0.098,-0.187 -0.2,-0.375 -0.309,-0.555 v 0.188 c -0.039,-0.137 -0.078,-0.27 -0.121,-0.403 -0.395,-1.175 -1.004,-2.269 -1.801,-3.222 l 0.766,0.687 0.547,0.883 c -0.133,-1.172 -0.473,-2.308 -1,-3.363 l 0.238,0.367 0.012,0.031 0.023,0.055 0.035,0.07 0.211,0.453 c -0.058,-0.308 -0.129,-0.613 -0.215,-0.914 l -0.117,-0.324 c -0.015,-0.031 -0.027,-0.066 -0.039,-0.101 l -0.043,-0.118 0.156,0.879 c -0.074,-0.418 -0.175,-0.832 -0.304,-1.238 -0.028,-0.059 -0.059,-0.121 -0.086,-0.18 l -0.02,-0.16 -0.023,-0.074 c -0.008,-0.024 -0.016,-0.043 -0.024,-0.066 l 0.055,0.25 0.008,0.039 c -0.149,-0.375 -0.32,-0.739 -0.512,-1.094 l 0.434,0.762 c -0.031,-0.094 -0.063,-0.184 -0.098,-0.278 l 0.102,0.27 0.004,0.023 0.035,0.063 c -0.02,-0.149 -0.047,-0.297 -0.074,-0.446 l -0.063,-0.32 c -0.09,-0.434 -0.207,-0.863 -0.352,-1.285 v 0.269 l 0.02,0.106 c -0.008,-0.02 -0.016,-0.043 -0.02,-0.067 v 0.176 c -0.027,-0.152 -0.054,-0.304 -0.082,-0.453 -0.093,-0.39 -0.207,-0.777 -0.343,-1.156 -0.043,-0.106 -0.086,-0.215 -0.133,-0.32 l 0.101,0.214 c -0.039,-0.148 -0.082,-0.296 -0.128,-0.441 l 0.343,0.82 c -0.051,-0.73 -0.183,-1.457 -0.394,-2.16 l 0.515,1.363 v -1.574 c 0,-1.164 -0.207,-2.316 -0.605,-3.406 l -0.117,-0.32 c -0.102,-0.254 -0.215,-0.5 -0.336,-0.743 l 0.199,1.528 c -0.199,-1.199 -0.617,-2.348 -1.231,-3.395 l -0.089,-0.136 c -0.243,-0.352 -0.504,-0.692 -0.789,-1.012 l 0.683,0.769 c -0.09,-0.211 -0.183,-0.418 -0.285,-0.625 l 0.211,0.43 0.074,0.195 0.102,0.114 c -0.047,-0.125 -0.09,-0.254 -0.141,-0.379 l -0.238,-0.375 c -0.02,-0.028 -0.035,-0.055 -0.055,-0.082 -0.09,-0.215 -0.187,-0.426 -0.289,-0.633 l -0.18,-0.324 c -0.043,-0.075 -0.089,-0.145 -0.136,-0.219 v -0.73 c 0,-0.45 -0.032,-0.903 -0.094,-1.348 l -0.059,-0.43 c -0.136,-1.015 -0.433,-2.004 -0.875,-2.926 l -0.179,-0.375 c 0,-0.004 -0.004,-0.007 -0.004,-0.011 -0.004,-0.008 -0.004,-0.016 -0.008,-0.024 l -0.098,-0.492 -0.035,-0.195 -0.055,-0.297 c -0.164,-0.91 -0.453,-1.793 -0.859,-2.625 L 95.98,134.34 c 0,0 -0.003,-0.004 -0.003,-0.008 l -0.239,-0.484 c -0.176,-0.356 -0.375,-0.703 -0.59,-1.039 l 0.02,0.031 -0.066,-0.117 c -0.012,-0.02 -0.024,-0.039 -0.036,-0.059 l -0.187,-0.332 0.269,0.563 0.09,0.281 c -0.125,-0.34 -0.269,-0.672 -0.429,-0.996 -0.008,-0.289 -0.028,-0.582 -0.063,-0.868 l -0.062,-0.425 -0.11,-0.762 -0.019,-0.121 -0.039,-0.484 c -0.016,-0.18 -0.036,-0.36 -0.059,-0.536 l -0.059,-0.433 c -0.05,-0.375 -0.125,-0.746 -0.218,-1.11 L 94,126.742 c -0.043,-0.172 -0.094,-0.347 -0.145,-0.519 l -0.043,-0.125 -0.093,-0.368 -0.004,-0.007 -0.008,-0.028 -0.016,-0.062 c 0,-0.059 -0.003,-0.113 -0.007,-0.172 -0.008,-0.059 -0.016,-0.113 -0.024,-0.172 l 0.02,0.129 c -0.008,-0.242 -0.024,-0.484 -0.047,-0.73 l -0.063,-0.481 c -0.008,-0.043 -0.011,-0.09 -0.019,-0.137 l -0.078,-0.519 v 0.39 c -0.008,-0.273 -0.028,-0.543 -0.063,-0.812 0,-0.004 0,-0.004 0,-0.004 0,0 0,0 0,-0.004 -0.008,-0.238 -0.027,-0.473 -0.055,-0.711 L 93.293,122 c -0.004,-0.348 -0.023,-0.691 -0.059,-1.035 l -0.066,-0.539 c -0.023,-0.199 -0.051,-0.399 -0.086,-0.598 L 93.051,119.66 93.035,119.551 93,119.234 c -0.008,-0.058 -0.016,-0.113 -0.023,-0.168 l -0.059,-0.484 c -0.113,-0.855 -0.336,-1.691 -0.664,-2.488 l -0.176,-0.43 c -0.016,-0.039 -0.031,-0.082 -0.051,-0.121 l -0.179,-0.43 c -0.133,-0.308 -0.282,-0.613 -0.442,-0.906 l -0.359,-0.648 c -0.067,-0.125 -0.141,-0.247 -0.215,-0.368 l -0.359,-0.589 c -0.032,-0.04 -0.063,-0.079 -0.098,-0.118 l 0.059,0.325 0.086,0.238 c -0.024,-0.055 -0.047,-0.113 -0.075,-0.168 l 0.129,0.711 c -0.097,-0.442 -0.222,-0.875 -0.383,-1.301 0,0 0,-0.004 0,-0.004 -0.003,-0.012 -0.007,-0.023 -0.011,-0.035 -0.004,-0.004 -0.008,-0.008 -0.012,-0.012 -0.141,-0.394 -0.309,-0.781 -0.496,-1.156 l 0.344,0.602 C 90,111.633 89.984,111.586 89.969,111.535 l -0.18,-0.43 c -0.101,-0.234 -0.211,-0.46 -0.328,-0.687 l 0.258,0.684 0.015,0.05 c -0.086,-0.261 -0.183,-0.515 -0.293,-0.769 -0.039,-0.09 -0.086,-0.18 -0.129,-0.27 l 0.09,0.164 c -0.101,-0.32 -0.222,-0.64 -0.359,-0.949 l -0.238,-0.48 c -0.004,-0.012 -0.008,-0.02 -0.012,-0.032 l -0.231,-0.449 -0.218,-0.453 c -0.032,-0.059 -0.067,-0.117 -0.098,-0.176 l 0.027,0.114 0.039,0.109 c -0.007,-0.027 -0.019,-0.051 -0.031,-0.078 l 0.086,0.355 c -0.039,-0.152 -0.082,-0.304 -0.129,-0.457 -0.031,-0.074 -0.062,-0.148 -0.097,-0.226 -0.032,-0.055 -0.063,-0.114 -0.094,-0.172 0,-0.02 -0.004,-0.035 -0.008,-0.055 l 0.016,0.02 c -0.004,-0.012 -0.008,-0.02 -0.016,-0.032 0,-0.007 0,-0.015 0,-0.019 l 0.051,0.109 0.035,0.055 0.035,0.094 0.031,0.062 c -0.007,-0.019 -0.011,-0.043 -0.019,-0.062 l -0.18,-0.571 -0.019,-0.113 c -0.039,-0.25 -0.09,-0.5 -0.153,-0.746 l -0.117,-0.484 c -0.008,-0.036 -0.019,-0.075 -0.027,-0.11 l -0.008,-0.093 c -0.012,-0.223 -0.035,-0.442 -0.063,-0.657 l -0.062,-0.484 c -0.051,-0.387 -0.121,-0.77 -0.219,-1.149 l -0.066,-0.269 -0.031,-0.332 c -0.024,-0.266 -0.059,-0.535 -0.102,-0.797 l -0.012,-0.059 -0.031,-0.277 c 0,-0.012 0,-0.019 -0.004,-0.031 l -0.058,-0.481 c -0.094,-0.797 -0.286,-1.578 -0.571,-2.328 l -0.121,-0.32 C 86.234,98 86.129,97.75 86.012,97.504 l -0.18,-0.379 c -0.031,-0.027 -0.059,-0.055 -0.09,-0.086 0,-0.023 -0.004,-0.047 -0.008,-0.07 l -0.117,-0.645 c -0.004,-0.012 -0.004,-0.023 -0.008,-0.035 l -0.121,-0.648 c 0,-0.008 0,-0.012 -0.004,-0.02 L 85.363,94.98 C 85.312,94.707 85.246,94.434 85.172,94.164 L 85,93.543 84.879,93.094 84.684,92.25 C 84.594,91.875 84.48,91.5 84.348,91.137 L 84.332,91.062 C 84.301,90.91 84.266,90.758 84.23,90.609 l -0.062,-0.246 -0.07,-0.351 -0.176,-0.907 c -0.035,-0.167 -0.07,-0.332 -0.113,-0.5 l -0.235,-0.933 -0.109,-0.449 c -0.004,-0.02 -0.012,-0.043 -0.02,-0.067 l 0.047,0.356 c -0.039,-0.235 -0.086,-0.469 -0.144,-0.7 -0.024,-0.097 -0.051,-0.195 -0.078,-0.289 l 0.058,0.188 C 83.293,86.5 83.25,86.285 83.199,86.074 L 83.152,85.91 83.035,85.371 C 82.93,84.91 82.797,84.457 82.629,84.016 l 0.066,0.172 C 82.668,84.07 82.641,83.957 82.609,83.84 l -0.047,-0.164 -0.035,-0.203 c -0.07,-0.407 -0.164,-0.809 -0.285,-1.203 l -0.019,-0.067 -0.02,-0.105 c -0.051,-0.262 -0.109,-0.524 -0.18,-0.782 L 81.848,80.672 C 81.844,80.656 81.836,80.637 81.832,80.621 L 81.293,78.688 C 81.191,78.332 81.074,77.98 80.938,77.641 l -0.184,-0.457 -0.383,-1.032 -0.195,-0.574 c -0.008,-0.031 -0.02,-0.062 -0.031,-0.094 l 0.031,0.172 c -0.02,-0.078 -0.035,-0.152 -0.055,-0.23 0,0 0,-0.004 0,-0.008 -0.039,-0.191 -0.082,-0.379 -0.133,-0.566 L 79.832,74.273 79.66,73.629 c -0.082,-0.313 -0.18,-0.621 -0.289,-0.926 l -0.476,-1.289 c -0.036,-0.09 -0.071,-0.184 -0.106,-0.273 l -0.117,-0.289 -0.074,-0.223 c -0.051,-0.145 -0.106,-0.285 -0.164,-0.426 l 0.015,0.063 C 78.438,70.23 78.43,70.195 78.418,70.16 78.359,69.992 78.297,69.828 78.227,69.664 l 0.136,0.313 C 78.281,69.629 78.184,69.285 78.062,68.949 L 77.824,68.305 C 77.766,68.141 77.699,67.977 77.629,67.816 L 77.594,67.727 V 67.723 C 77.57,67.648 77.551,67.574 77.527,67.5 l -0.179,-0.59 c -0.137,-0.445 -0.305,-0.879 -0.5,-1.301 l 0.086,0.192 -0.055,-0.172 c -0.106,-0.336 -0.231,-0.664 -0.375,-0.984 l -0.027,-0.071 -0.02,-0.051 c -0.09,-0.25 -0.187,-0.5 -0.297,-0.746 l 0.008,0.032 C 76.145,63.742 76.121,63.68 76.094,63.613 76.059,63.52 76.02,63.422 75.98,63.328 l 0.016,0.035 c -0.078,-0.222 -0.164,-0.445 -0.258,-0.66 L 75.539,62.266 75.48,62.098 c -0.14,-0.426 -0.312,-0.836 -0.507,-1.235 l -0.239,-0.488 c -0.043,-0.078 -0.089,-0.156 -0.136,-0.234 l 0.168,0.421 c -0.067,-0.167 -0.141,-0.335 -0.215,-0.503 -0.156,-0.297 -0.324,-0.582 -0.504,-0.864 l 0.355,0.524 c -0.129,-0.36 -0.281,-0.707 -0.453,-1.051 L 74.148,59.023 73.98,58.57 C 73.914,58.398 73.844,58.23 73.77,58.062 L 73.531,57.523 C 73.332,57.07 73.098,56.633 72.832,56.215 L 72.656,55.934 72.355,55.441 C 71.371,54.27 70.129,53.344 68.723,52.734 68.699,52.578 68.672,52.418 68.645,52.262 l -0.137,-0.696 -0.09,-0.586 c -0.043,-0.277 -0.094,-0.55 -0.16,-0.824 l -0.18,-0.75 C 68.07,49.367 68.062,49.332 68.051,49.297 L 67.875,48.598 C 67.809,48.324 67.73,48.055 67.641,47.789 l -0.114,-0.328 -0.086,-0.324 c -0.062,-0.25 -0.136,-0.496 -0.222,-0.742 L 67.02,45.809 66.902,45.426 66.789,45 c -0.09,-0.348 -0.195,-0.688 -0.32,-1.023 L 66.23,43.336 65.992,42.703 C 65.824,42.25 65.621,41.812 65.387,41.391 L 64.91,40.523 C 64.848,40.41 64.781,40.297 64.711,40.184 L 64.359,39.59 C 64,39 63.578,38.445 63.105,37.938 l -0.304,-0.321 c -2.289,-2.23 -5.512,-3.219 -8.66,-2.66 L 54.082,34.652 C 54.023,34.344 53.949,34.039 53.859,33.738 L 53.621,32.93 c -0.004,-0.012 -0.008,-0.024 -0.016,-0.035 l -0.023,-0.083 0.043,0.211 C 53.605,32.93 53.586,32.836 53.566,32.742 L 53.449,32.203 C 53.348,31.738 53.215,31.285 53.051,30.844 L 53.027,30.781 V 30.777 L 53.023,30.77 52.945,30.48 C 52.863,30.203 52.773,29.926 52.668,29.652 L 52.656,29.625 52.633,29.543 C 52.547,29.262 52.445,28.984 52.336,28.711 L 52.172,28.324 52.129,28.203 C 51.898,27.551 51.598,26.93 51.234,26.344 l -0.3,-0.481 C 50.723,25.52 50.488,25.188 50.238,24.875 L 49.934,24.5 C 48,22.129 45.078,20.785 42.02,20.859 L 42,20.777 c -0.031,-0.152 -0.066,-0.3 -0.105,-0.453 l -0.176,-0.683 -0.176,-0.688 c -0.086,-0.336 -0.188,-0.664 -0.309,-0.988 l -0.168,-0.453 -0.109,-0.34 C 40.758,16.559 40.5,15.965 40.184,15.402 l -0.235,-0.429 c -0.379,-0.657 -0.832,-1.27 -1.347,-1.825 -1.418,-1.89 -3.465,-3.214 -5.77,-3.73 L 32.355,9.312 C 29.707,8.879 26.996,9.535 24.84,11.137 l -0.16,-0.18 C 23.426,9.57 21.805,8.562 20.004,8.055 19.105,7.801 18.18,7.676 17.246,7.684 Z m 99.66,179.457 0.071,0.113 c -0.004,-0.02 -0.008,-0.039 -0.012,-0.059 -0.02,-0.019 -0.039,-0.035 -0.059,-0.054 z m -70.031,-67.192 -0.059,-0.043 0.082,0.071 -0.019,-0.024 z M 18.211,8.965 h 1.086 l 1.027,0.308 C 19.527,9.258 18.727,9.344 17.945,9.52 Z m 7.746,3.726 0.422,0.641 0.105,0.219 C 26.355,13.348 26.223,13.145 26.082,12.949 26.039,12.863 26,12.777 25.957,12.691 Z m -3.937,0.305 c -0.086,0.035 -0.176,0.074 -0.262,0.109 l 0.176,-0.085 z m -1.329,0.656 c -0.046,0.024 -0.093,0.047 -0.14,0.071 -0.207,0.086 -0.406,0.175 -0.606,0.277 l 0.239,-0.152 z m -2.554,1.008 c -0.106,0.031 -0.203,0.067 -0.305,0.102 l 0.051,-0.024 z m 10.715,9.024 0.609,1.101 0.105,0.57 c -0.187,-0.578 -0.425,-1.136 -0.714,-1.671 z m 0.656,1.828 0.129,0.234 0.031,0.152 c -0.051,-0.128 -0.106,-0.257 -0.16,-0.386 z m 0.332,0.597 0.043,0.082 0.195,0.676 c -0.019,-0.07 -0.043,-0.144 -0.066,-0.215 L 29.895,26.273 C 29.879,26.219 29.859,26.164 29.84,26.109 Z m 2.066,4.125 -0.152,0.082 -0.039,0.012 0.066,-0.031 c 0.035,-0.02 0.071,-0.039 0.106,-0.059 0.008,0 0.011,-0.004 0.019,-0.004 z m -21.617,0.407 c 0.012,0.015 0.023,0.035 0.035,0.05 0.024,0.047 0.043,0.09 0.067,0.133 l 0.011,0.024 -0.007,-0.02 c 0.003,0.008 0.007,0.016 0.011,0.02 l -0.011,-0.055 c 0.093,0.141 0.191,0.277 0.293,0.414 0.027,0.09 0.062,0.176 0.093,0.266 L 10.57,31.23 10.484,31.051 10.57,31.258 c 0.149,0.371 0.317,0.726 0.508,1.074 l -0.211,-0.379 c 0.047,0.145 0.098,0.289 0.149,0.434 l 0.011,0.031 0.028,0.086 -0.039,-0.074 -0.157,-0.492 -0.382,-0.696 -0.059,-0.332 z m 0.113,0.207 0.004,0.015 v -0.008 z m 21.024,0.32 0.047,0.133 0.015,0.086 C 31.473,31.34 31.461,31.297 31.445,31.25 31.438,31.223 31.434,31.195 31.426,31.168 Z m -20.047,2.195 c 0.055,0.196 0.113,0.387 0.18,0.578 l 0.097,0.289 -0.078,-0.136 z m 19.582,0.524 0.023,0.051 0.024,0.074 c -0.012,-0.032 -0.028,-0.063 -0.043,-0.09 0,-0.016 0,-0.027 -0.004,-0.035 z m 0.019,0.082 0.032,0.058 0.015,0.039 v 0.008 l 0.008,0.024 -0.012,-0.02 C 31.02,34.07 31.012,34.062 31.008,34.055 31.004,34.047 31,34.039 30.996,34.031 l 0.031,0.035 C 31.012,34.039 30.996,34.012 30.984,33.984 30.98,33.98 30.98,33.973 30.98,33.969 Z m 0.04,0.07 0.011,0.016 v 0.011 C 31.027,34.059 31.023,34.047 31.02,34.039 Z m 0.023,0.055 0.016,0.019 0.015,0.043 -0.008,-0.019 c -0.007,-0.012 -0.015,-0.028 -0.023,-0.039 z m -19.297,0.242 c 0.012,0.039 0.024,0.078 0.031,0.117 L 11.766,34.43 Z m 0.336,1.277 c 0.008,0.02 0.012,0.039 0.02,0.059 L 12.09,35.641 Z m 0.504,1.805 0.016,0.043 c 0.003,0.008 0.003,0.016 0.007,0.023 L 12.59,37.438 Z m 42.691,1.543 0.102,0.324 0.012,0.129 C 55.355,39.262 55.32,39.109 55.277,38.961 Z m -41.695,5.168 c 0.031,0.125 0.059,0.25 0.094,0.375 l -0.078,-0.25 z m 0.246,0.992 c 0.039,0.129 0.078,0.254 0.121,0.379 0.047,0.219 0.102,0.434 0.16,0.648 l -0.183,-0.492 z m 43.277,1.039 0.059,0.07 0.16,0.293 c -0.015,-0.019 -0.027,-0.039 -0.043,-0.058 -0.054,-0.102 -0.113,-0.199 -0.176,-0.301 0,0 0,0 0,-0.004 z m 7.465,0.742 0.118,0.328 0.07,0.36 C 64.703,47.359 64.641,47.133 64.57,46.902 Z m -6.136,1.286 0.07,0.066 0.058,0.09 c -0.023,-0.024 -0.046,-0.051 -0.07,-0.078 -0.019,-0.028 -0.039,-0.051 -0.058,-0.078 z m 5.304,1.503 -0.304,0.539 -0.387,0.516 c 0.254,-0.336 0.484,-0.687 0.691,-1.055 z m 1.852,1.121 0.004,0.012 0.031,0.071 0.059,0.156 c -0.008,0 -0.02,0.004 -0.028,0.004 -0.019,-0.082 -0.043,-0.164 -0.066,-0.243 z m -49.266,5.063 c 0.004,0.016 0.008,0.027 0.012,0.043 l 0.023,0.035 z m 0.321,0.93 c 0.007,0.043 0.015,0.086 0.019,0.125 l 0.047,0.14 z m 2.48,11.793 c 0.02,0.054 0.039,0.109 0.059,0.168 L 19.18,68.754 Z m 2.859,5.441 c 0.032,0.051 0.063,0.102 0.094,0.152 l -0.062,-0.093 z m 0.278,0.344 c 0.015,0.039 0.035,0.078 0.054,0.121 l 0.219,0.437 0.09,0.196 0.176,0.39 c 0.004,0.008 0.008,0.016 0.008,0.024 l -0.024,-0.024 z m 0.883,1.105 c 0.027,0.035 0.054,0.071 0.082,0.102 0.043,0.152 0.089,0.301 0.14,0.449 l -0.16,-0.137 z m 0.21,0.946 c 0.036,0.074 0.075,0.144 0.11,0.218 -0.004,0.012 -0.012,0.024 -0.016,0.036 z m -0.046,0.105 c 0.039,0.066 0.078,0.137 0.117,0.203 -0.024,0.043 -0.043,0.09 -0.063,0.133 z m 0.261,0.313 c 0.028,0.058 0.055,0.113 0.086,0.168 0.028,0.097 0.059,0.191 0.09,0.289 L 23.715,77.25 c 0.012,0.023 0.023,0.047 0.039,0.07 0.035,0.125 0.078,0.25 0.121,0.375 l -0.078,-0.117 -0.121,-0.39 -0.098,-0.157 -0.023,-0.058 c 0.039,0.07 0.078,0.136 0.117,0.199 z m -0.039,3.656 c 0.031,0.062 0.067,0.125 0.098,0.187 0.035,0.086 0.074,0.172 0.113,0.258 l -0.129,-0.226 z m 0.36,0.89 c 0.031,0.247 0.074,0.493 0.129,0.739 L 23.969,82 Z m 0.281,0.356 c 0.117,0.262 0.246,0.516 0.39,0.766 l -0.261,-0.415 z m 0.203,1.359 c 0.012,0.032 0.023,0.059 0.035,0.086 l -0.023,-0.047 z m 2.25,2.43 0.168,0.25 c 0.121,0.156 0.242,0.309 0.371,0.457 0.098,0.16 0.199,0.312 0.305,0.465 l -0.668,-0.699 z m -1.277,0.027 c 0.035,0.114 0.07,0.223 0.105,0.332 l -0.035,-0.074 z m 0.437,1.02 c 0.258,0.461 0.547,0.902 0.871,1.316 l -0.183,-0.211 -0.539,-0.812 z m 1.617,0.07 c 0.028,0.051 0.051,0.098 0.075,0.149 l -0.032,-0.051 z m 0.16,0.094 c 0.028,0.031 0.055,0.066 0.083,0.101 0.003,0.016 0.007,0.036 0.011,0.055 L 27.59,86.844 27.562,86.77 Z m 0,0.113 c 0.004,0.016 0.008,0.028 0.012,0.043 0.004,0.024 0.008,0.047 0.012,0.074 l -0.024,-0.035 z m 0.071,0.098 c 0.015,0.023 0.031,0.043 0.047,0.066 0.004,0.035 0.011,0.074 0.015,0.11 z m -0.063,0.031 c 0.008,0.016 0.016,0.031 0.028,0.051 0.015,0.152 0.039,0.305 0.066,0.457 z m 0.051,0.098 c 0.004,0.008 0.008,0.019 0.012,0.027 0.051,0.215 0.109,0.426 0.176,0.637 l -0.102,-0.281 z m 0.195,1.312 c 0.016,0.114 0.032,0.227 0.051,0.34 l 0.059,0.375 c 0.004,0.024 0.008,0.047 0.012,0.07 l -0.036,-0.105 z m 25.786,5.891 0.531,0.297 0.164,0.144 0.101,0.153 C 54.223,94.754 54.039,94.625 53.855,94.5 53.773,94.434 53.688,94.363 53.602,94.297 Z m 1.464,0.019 0.329,0.243 0.304,0.265 c -0.203,-0.179 -0.414,-0.347 -0.633,-0.508 z m -25.851,0.196 c 0.066,0.097 0.133,0.195 0.199,0.293 l -0.066,-0.071 z m 57.414,5.207 0.055,0.207 0.023,0.176 -0.004,0.003 C 86.68,99.977 86.656,99.848 86.629,99.719 Z M 49,100.5 c -0.016,0.055 -0.031,0.105 -0.047,0.156 0,0.004 -0.004,0.008 -0.004,0.008 l 0.039,-0.141 z m -0.051,0.164 c -0.004,0.012 -0.008,0.027 -0.011,0.039 l 0.011,-0.035 z m 37.883,0.039 0.031,0.109 0.012,0.094 c -0.012,-0.066 -0.027,-0.133 -0.043,-0.203 z m -23.914,0.77 0.004,0.004 0.055,0.058 c -0.004,-0.004 -0.008,-0.004 -0.012,-0.008 -0.016,-0.019 -0.031,-0.035 -0.047,-0.054 z m 0.293,0.269 0.016,0.012 0.164,0.144 c -0.004,0 -0.004,-0.003 -0.008,-0.003 z m 24.496,4.289 0.031,0.203 c -0.008,-0.019 -0.015,-0.039 -0.023,-0.058 z m 0.492,1.629 0.012,0.031 c 0,-0.007 -0.004,-0.015 -0.004,-0.019 -0.004,-0.004 -0.004,-0.008 -0.008,-0.012 z m -0.066,0.645 0.031,0.246 v 0.019 c -0.008,-0.09 -0.019,-0.175 -0.031,-0.265 z m -47,1.254 c 0.164,0.125 0.332,0.242 0.504,0.359 l -0.102,-0.16 c 0.074,0.062 0.153,0.125 0.231,0.187 0.035,0.047 0.074,0.094 0.109,0.141 0.043,0.031 0.082,0.062 0.125,0.094 0.004,0.031 0.012,0.062 0.016,0.093 0.004,0 0.004,0.004 0.007,0.008 l -0.007,-0.008 c 0.007,0.028 0.011,0.051 0.015,0.079 l -0.426,-0.235 z m 47.496,0.82 0.437,0.398 0.961,1.289 c -0.402,-0.609 -0.871,-1.175 -1.398,-1.687 z m -46.125,0.16 c 0.004,0 0.008,0.004 0.012,0.004 0,0.004 0,0.004 0,0.008 0.004,0.008 0.007,0.015 0.011,0.023 0.004,0 0.004,0 0.004,0 l 0.004,0.004 c 0,0 0,0 0.004,0 0.016,0.027 0.035,0.055 0.055,0.078 l -0.059,-0.078 c 0.012,0.024 0.027,0.047 0.039,0.07 l -0.058,-0.086 c 0.004,0.004 0.007,0.008 0.011,0.012 z m 45.867,0.121 0.035,0.25 v 0.141 c -0.011,-0.129 -0.023,-0.262 -0.035,-0.391 z m -47.277,1.672 c 0.422,0.391 0.875,0.746 1.355,1.059 l -0.554,-0.336 -0.774,-0.696 z m 3.183,0.586 c 0.012,0.012 0.024,0.027 0.035,0.039 0.004,0.004 0.004,0.008 0.008,0.012 l -0.039,-0.043 z m 46.262,0.176 0.098,0.281 -0.075,-0.207 z m -45.586,1.082 c 0.051,0.121 0.106,0.238 0.164,0.359 l -0.16,-0.336 z m -0.359,0.562 c 0.328,0.133 0.66,0.25 1,0.352 0.054,0.082 0.109,0.164 0.168,0.246 L 45.68,115.32 Z m 1.922,0.731 c 0.007,0.004 0.015,0.004 0.023,0.008 h -0.008 z m -0.133,1.191 c 0.027,0.043 0.055,0.086 0.082,0.129 l 0.18,0.266 c 0.308,0.371 0.636,0.722 0.992,1.047 0.011,0.015 0.023,0.035 0.035,0.05 l -0.75,-0.66 z m 6.398,1.902 c 0.008,0.008 0.02,0.02 0.028,0.028 l -0.024,-0.02 z m -4.289,0.489 c 0.051,0.058 0.106,0.117 0.156,0.176 l -0.066,-0.055 z m 0.18,0.246 c 0.164,0.183 0.34,0.367 0.516,0.539 l -0.356,-0.328 z m -1.43,0.738 c 0.031,0.074 0.059,0.149 0.09,0.223 l 0.035,0.09 -0.008,-0.008 z m 0.332,0.5 c 0.016,0.039 0.031,0.078 0.043,0.113 0.02,-0.007 0.039,-0.015 0.059,-0.023 l -0.016,-0.016 z m 2.473,0.238 c 0.141,0.153 0.285,0.297 0.433,0.438 l -0.386,-0.352 z m 0.23,0.098 c 0.032,0.047 0.059,0.09 0.09,0.137 l 0.145,0.234 -0.012,-0.012 c 0.008,0.004 0.012,0.012 0.02,0.016 l 0.082,0.137 c 0.171,0.199 0.347,0.39 0.531,0.578 L 50.719,121.582 50.5,121.23 c 0,0 0,-0.003 -0.004,-0.003 z m 1.219,2.207 0.008,0.055 c 0.019,0.133 0.031,0.265 0.035,0.402 v -0.383 z m 8.024,1.984 c 0.042,0.059 0.085,0.122 0.128,0.184 l -0.074,-0.082 -0.008,-0.012 z m 34.175,0.61 0.02,0.109 v 0.199 c -0.004,-0.101 -0.008,-0.207 -0.02,-0.308 z m -42.136,1.883 c -0.032,0.007 -0.059,0.011 -0.09,0.019 0.015,0.02 0.027,0.039 0.043,0.055 z m 41.503,0.379 0.149,0.402 0.023,0.129 c -0.05,-0.18 -0.109,-0.356 -0.172,-0.531 z m -35.57,2.058 0.024,0.039 0.058,0.051 -0.07,-0.078 z m 37.414,4.985 0.34,0.691 0.027,0.141 -0.117,-0.282 c -0.078,-0.187 -0.16,-0.371 -0.25,-0.55 z m -32.554,3.894 c 0.023,0.031 0.043,0.059 0.062,0.086 l 0.027,0.051 0.137,0.094 -0.117,-0.129 z m 5.421,1.289 0.012,0.02 0.254,0.324 -0.074,-0.125 -0.184,-0.207 z m 29.129,0.219 0.133,0.277 0.035,0.196 -0.125,-0.309 c -0.015,-0.055 -0.027,-0.109 -0.043,-0.164 z m 0.129,0.48 0.071,0.168 0.046,0.289 c -0.035,-0.152 -0.074,-0.304 -0.117,-0.457 z m 0.297,0.703 0.031,0.071 0.024,0.086 c -0.02,-0.051 -0.035,-0.106 -0.055,-0.157 z m -0.906,0.715 0.152,0.227 0.094,0.359 c -0.043,-0.09 -0.09,-0.179 -0.137,-0.269 -0.035,-0.106 -0.07,-0.211 -0.109,-0.317 z m 1.613,1.246 0.125,0.176 0.031,0.098 c -0.039,-0.063 -0.078,-0.121 -0.117,-0.184 -0.015,-0.031 -0.027,-0.058 -0.039,-0.09 z m 0.449,0.829 0.071,0.14 0.035,0.129 c -0.031,-0.09 -0.07,-0.18 -0.106,-0.269 z m 0.223,0.515 0.258,0.348 0.051,0.105 c -0.098,-0.152 -0.2,-0.304 -0.309,-0.453 z m 0.539,3.914 0.016,0.145 v 0.136 c -0.004,-0.093 -0.008,-0.187 -0.016,-0.281 z m 0.133,3.961 0.039,0.094 0.004,0.066 c -0.008,-0.031 -0.02,-0.066 -0.027,-0.097 z m 3.816,8.61 0.071,0.367 -0.02,-0.153 c -0.016,-0.074 -0.031,-0.144 -0.051,-0.214 z m -16.765,0.031 0.117,0.25 0.019,0.035 c 0,0.008 0,0.016 0,0.027 l 0.211,0.223 0.375,0.363 0.305,0.297 c 0.008,-0.004 0.016,-0.008 0.023,-0.012 l -0.031,-0.07 -0.222,-0.273 c 0,-0.004 -0.004,-0.008 -0.008,-0.012 l -0.239,-0.316 c 0.004,-0.012 0.004,-0.024 0.008,-0.036 l -0.004,-0.004 -0.203,-0.207 -0.226,-0.156 c -0.016,-0.012 -0.032,-0.023 -0.043,-0.035 z m 15.718,5.133 0.067,0.117 0.043,0.172 c -0.012,-0.024 -0.028,-0.051 -0.043,-0.078 -0.02,-0.071 -0.043,-0.141 -0.067,-0.211 z m 0.262,0.558 0.086,0.117 0.055,0.102 c -0.031,-0.047 -0.063,-0.094 -0.094,-0.141 -0.016,-0.027 -0.031,-0.05 -0.047,-0.078 z m 0.328,0.574 0.016,0.024 0.008,0.008 c -0.008,-0.008 -0.016,-0.016 -0.024,-0.024 0,-0.004 0,-0.004 0,-0.008 z m 2.25,3.141 0.528,0.551 0.226,0.41 c -0.23,-0.336 -0.484,-0.656 -0.754,-0.961 z m 1.785,2.543 0.137,0.207 0.141,0.289 c -0.09,-0.168 -0.18,-0.336 -0.278,-0.496 z m 0.618,1.254 0.074,0.066 0.125,0.227 0.055,0.141 0.082,0.085 0.117,0.161 c -0.055,-0.059 -0.11,-0.118 -0.164,-0.176 -0.008,-0.016 -0.02,-0.031 -0.028,-0.047 l 0.008,0.019 c -0.019,-0.019 -0.035,-0.039 -0.055,-0.058 -0.066,-0.141 -0.136,-0.281 -0.214,-0.418 z m 0.113,0.102 0.723,0.648 0.187,0.578 c -0.133,-0.125 -0.273,-0.246 -0.418,-0.367 -0.062,-0.137 -0.129,-0.277 -0.195,-0.41 l -0.176,-0.274 c -0.02,-0.027 -0.035,-0.051 -0.055,-0.078 z m 0.59,1.011 0.422,0.524 0.058,0.183 c -0.148,-0.242 -0.308,-0.48 -0.48,-0.707 z m 2.449,0.078 0.078,0.137 -0.031,-0.066 c -0.016,-0.024 -0.031,-0.047 -0.047,-0.071 z m -0.359,0.086 c 0,0 0,0.004 0,0.004 z m 0,0.004 0.011,0.055 0.008,0.008 -0.012,-0.051 c 0,-0.004 -0.003,-0.008 -0.007,-0.012 z m 0.019,0.117 0.027,0.137 -0.019,-0.129 c -0.004,-0.004 -0.004,-0.004 -0.008,-0.008 z m 0.938,0.719 v 0.07 l 0.07,0.063 c -0.023,-0.043 -0.043,-0.082 -0.066,-0.121 z m 0.894,1.609 0.012,0.024 0.035,0.035 c -0.012,-0.019 -0.027,-0.039 -0.047,-0.059 z m 0.113,0.29 0.059,0.152 0.215,0.199 c -0.031,-0.055 -0.067,-0.109 -0.106,-0.164 -0.054,-0.062 -0.113,-0.129 -0.168,-0.187 z m 0.368,0.402 0.031,0.062 0.117,0.102 -0.012,-0.012 c -0.043,-0.051 -0.09,-0.101 -0.136,-0.152 z m 1.859,3.902 0.316,0.34 0.036,0.047 -0.168,-0.188 c -0.063,-0.066 -0.121,-0.132 -0.184,-0.199 z m 1.387,1.782 0.062,0.078 0.028,0.039 c -0.012,-0.016 -0.024,-0.028 -0.036,-0.043 -0.019,-0.024 -0.035,-0.047 -0.054,-0.074 z m 0.156,0.207 0.039,0.039 0.082,0.117 c -0.039,-0.055 -0.078,-0.106 -0.121,-0.156 z m 0.707,0.894 0.023,0.059 0.215,0.386 0.082,0.09 0.137,0.098 c -0.02,-0.035 -0.043,-0.067 -0.066,-0.102 l -0.18,-0.265 c -0.07,-0.09 -0.141,-0.18 -0.211,-0.266 z m -0.566,0.457 0.468,0.418 0.051,0.059 c -0.004,-0.008 -0.004,-0.012 -0.008,-0.02 l 0.114,0.106 0.109,0.164 0.074,0.082 c -0.015,-0.008 -0.027,-0.02 -0.043,-0.032 -0.004,-0.003 -0.008,-0.007 -0.012,-0.011 -0.066,-0.055 -0.132,-0.11 -0.199,-0.16 -0.004,-0.02 -0.011,-0.04 -0.015,-0.055 -0.172,-0.192 -0.352,-0.375 -0.539,-0.551 z m 0.812,0 0.02,0.039 0.039,0.027 c -0.02,-0.023 -0.039,-0.042 -0.059,-0.066 z m 0.106,0.109 0.25,0.27 c -0.016,-0.02 -0.028,-0.039 -0.043,-0.063 l -0.043,-0.058 c -0.012,-0.02 -0.024,-0.035 -0.036,-0.055 z m -17.223,0.227 0.125,0.129 c 0.043,0.043 0.082,0.09 0.125,0.141 l 0.152,0.183 0.156,0.121 c 0.024,0.016 0.043,0.035 0.067,0.051 l -0.141,-0.176 -0.211,-0.234 z m 17.141,0.512 0.011,0.008 0.039,0.046 c -0.015,-0.019 -0.035,-0.035 -0.05,-0.054 z m 0.757,1.246 0.055,0.113 c -0.004,0 -0.008,-0.004 -0.012,-0.004 -0.015,-0.039 -0.031,-0.074 -0.043,-0.109 z m 2.032,1.23 0.015,0.016 c -0.004,-0.004 -0.008,-0.008 -0.011,-0.012 0,-0.004 -0.004,-0.004 -0.004,-0.004 z m -1.86,0.461 v 0.508 c -0.027,-0.125 -0.062,-0.254 -0.097,-0.379 z"
                 style="fill:#ff0000;fill-opacity:0.470588;fill-rule:nonzero;stroke:none"
                 id="path86" /></g></g></g></g><g
         id="g94"><path
           d="m 42.738,114.383 0.176,0.265 0.301,0.325 0.238,0.32 0.18,0.43 0.297,0.328 0.238,0.211 0.242,0.324 0.356,0.215 0.476,0.535 0.238,0.269 0.301,0.266 0.297,0.27 0.36,0.32 0.296,0.164 0.301,0.324 0.36,0.266 0.476,0.324 1.07,0.75 0.661,0.535 0.535,0.379 0.535,0.375 0.539,0.27 0.355,0.269 0.481,0.321 0.297,0.16 0.301,0.328 0.296,0.156 0.301,0.32 0.356,0.325 0.359,0.324 0.355,0.375 0.36,0.211 0.418,0.433 0.301,0.274 0.414,0.371 0.359,0.379 0.418,0.426 0.477,0.378 0.418,0.426 0.476,0.43 0.418,0.484 0.477,0.535 0.3,0.379 0.36,0.375 0.355,0.43 0.36,0.27 0.418,0.484 0.359,0.48 0.477,0.485 0.418,0.535 0.414,0.375 0.48,0.434 0.297,0.324 0.418,0.371 0.359,0.379 0.356,0.32 0.359,0.32 0.238,0.27 0.418,0.269 0.239,0.325 0.422,0.48 0.476,0.43 0.418,0.59 0.414,0.593 0.481,0.485 0.355,0.535 0.418,0.43 0.418,0.324 0.359,0.426 0.418,0.324 0.36,0.484 0.297,0.321 0.359,0.429 0.238,0.379 0.414,0.375 0.481,0.481 0.414,0.429 0.597,0.649 0.54,0.59 0.476,0.644 0.539,0.645 0.535,0.644 0.477,0.59 0.48,0.484 0.356,0.375 0.359,0.43 0.535,0.43 0.36,0.429 0.539,0.536 0.535,0.379 0.418,0.48 0.598,0.484 0.597,0.594 0.594,0.641 0.715,0.699 0.66,0.699 0.594,0.699 0.597,0.75 0.539,0.7 0.477,0.589 0.535,0.536 0.477,0.593 0.539,0.536 0.476,0.539 0.477,0.535 0.48,0.593 0.598,0.696 0.535,0.644 0.535,0.7 0.539,0.699 0.539,0.59 0.536,0.644 0.476,0.59 0.481,0.59 0.297,0.433 0.418,0.43 0.359,0.43 0.418,0.32 0.414,0.535 0.359,0.485 0.535,0.484 0.36,0.535 0.539,0.539 0.355,0.535 0.422,0.485 0.535,0.539 0.418,0.535 0.477,0.59 0.359,0.59 0.414,0.593 0.422,0.59 0.297,0.485 0.297,0.429 0.18,0.375 0.297,0.27 0.238,0.379 0.422,0.476 0.355,0.489 0.301,0.535 0.355,0.535 0.36,0.539 0.476,0.539 0.36,0.535 0.418,0.434 0.355,0.375 0.238,0.265 0.36,0.321 0.301,0.269 0.355,0.321 0.477,0.433 0.3,0.375 0.54,0.535 0.476,0.485 0.414,0.484 0.539,0.539 0.356,0.375 0.422,0.43 0.953,0.859 0.597,0.59 0.535,0.48 0.54,0.594 0.593,0.59 0.539,0.59 0.539,0.539 0.954,0.859 0.417,0.375 0.477,0.325 0.359,0.375 0.715,0.429 0.36,0.215 0.297,0.215 0.835,0.535 0.239,0.215 0.301,0.215 0.355,0.324 0.238,0.266 0.36,0.328 0.359,0.316 0.359,0.324 0.414,0.215 0.301,0.27 0.418,0.375 0.477,0.375"
           style="fill:none;stroke:#ff0000;stroke-width:0.85;stroke-linecap:round;stroke-linejoin:round;stroke-miterlimit:10;stroke-dasharray:none;stroke-opacity:1"
           id="path96" /></g></g></g></svg>
