<?xml version="1.0" encoding="UTF-8" standalone="no"?>
<svg
   width="403.14917pt"
   height="183.03799pt"
   viewBox="0 0 403.14917 183.03799"
   version="1.1"
   id="svg112"
   sodipodi:docname="tn-distributed.svg"
   inkscape:version="1.3 (0e150ed, 2023-07-21)"
   xmlns:inkscape="http://www.inkscape.org/namespaces/inkscape"
   xmlns:sodipodi="http://sodipodi.sourceforge.net/DTD/sodipodi-0.dtd"
   xmlns:xlink="http://www.w3.org/1999/xlink"
   xmlns="http://www.w3.org/2000/svg"
   xmlns:svg="http://www.w3.org/2000/svg"
   xmlns:rdf="http://www.w3.org/1999/02/22-rdf-syntax-ns#"
   xmlns:cc="http://creativecommons.org/ns#"
   xmlns:dc="http://purl.org/dc/elements/1.1/">
  <sodipodi:namedview
     id="namedview112"
     pagecolor="#ffffff"
     bordercolor="#000000"
     borderopacity="0.25"
     inkscape:showpageshadow="2"
     inkscape:pageopacity="0.0"
     inkscape:pagecheckerboard="0"
     inkscape:deskcolor="#d1d1d1"
     inkscape:document-units="pt"
     inkscape:zoom="3.239047"
     inkscape:cx="269.36936"
     inkscape:cy="175.66896"
     inkscape:window-width="2560"
     inkscape:window-height="1359"
     inkscape:window-x="1470"
     inkscape:window-y="25"
     inkscape:window-maximized="1"
     inkscape:current-layer="svg112" />
  <metadata
     id="metadata1">
    <rdf:RDF>
      <cc:Work>
        <dc:type
           rdf:resource="http://purl.org/dc/dcmitype/StillImage" />
        <dc:date>2024-02-08T18:14:05.324182</dc:date>
        <dc:format>image/svg+xml</dc:format>
        <dc:creator>
          <cc:Agent>
            <dc:title>Matplotlib v3.8.2, https://matplotlib.org/</dc:title>
          </cc:Agent>
        </dc:creator>
      </cc:Work>
    </rdf:RDF>
  </metadata>
  <defs
     id="defs1">
    <style
       type="text/css"
       id="style1">*{stroke-linejoin: round; stroke-linecap: butt}</style>
  </defs>
  <path
     style="fill:#f8d8f8;fill-opacity:1;stroke:none;stroke-width:3.29953"
     d="m 39.82653,102.34492 c -12.416782,4.11069 -26.553142,10.19324 -32.6484927,21.76566 -8.16569221,15.5031 -10.7842035,39.32316 0.6946488,52.56176 8.4958239,9.79826 25.4692779,5.88935 38.4372319,6.02029 19.472437,0.19662 41.377916,2.45453 57.887402,-7.87269 16.75111,-10.47837 34.521,-29.62988 32.88003,-49.32006 -1.02034,-12.24327 -13.84124,-22.27367 -25.23889,-26.859752 -22.298329,-8.972206 -49.19412,-3.849242 -72.01193,3.704792 z"
     id="path115"
     sodipodi:nodetypes="aaaaaaaa" />
  <path
     style="fill:#dcf8d8;fill-opacity:1;stroke:none;stroke-width:3.29953"
     d="M 70.622622,7.1780373 C 61.669655,17.224269 62.306061,35.310566 68.075577,47.467666 c 9.605656,20.240332 41.046333,21.327479 54.645703,39.131878 12.3927,16.224596 2.34658,49.842246 21.30256,57.424296 10.60858,4.24324 24.84593,-5.29661 30.7961,-15.05072 13.58871,-22.27596 8.14356,-54.06608 -1.62085,-78.26376 C 166.39302,33.842904 151.51101,20.391648 136.15116,10.651281 127.05997,4.8861554 116.09815,1.6135413 105.35506,0.92619833 93.615524,0.17510247 78.449109,-1.6041581 70.622622,7.1780373 Z"
     id="path114"
     sodipodi:nodetypes="aaaaaaaaa" />
  <path
     style="fill:#d8e7f8;fill-opacity:1;stroke:none;stroke-width:3.29953"
     d="M 204.92139,9.8022615 C 192.87152,21.310815 196.9221,42.216203 191.25996,57.887397 184.38978,76.90212 165.91342,93.150931 166.7157,113.3528 c 0.24725,6.22595 2.74022,15.47535 8.89595,16.44002 25.19236,3.94792 40.50156,-32.111553 55.24329,-52.918352 C 243.37572,59.20236 263.16328,38.663207 257.70042,17.705377 255.51781,9.3319807 245.27668,4.0452042 236.79946,2.3090249 226.10579,0.11890521 212.81517,2.2630825 204.92139,9.8022615 Z"
     id="path113"
     sodipodi:nodetypes="aaaaaaaa" />
  <path
     style="fill:#f8f2d8;fill-opacity:1;stroke:none;stroke-width:3.29953"
     d="m 220.663,102.55804 c -13.68449,6.62199 -31.02701,16.82452 -32.54496,31.95105 -1.47971,14.74548 12.63115,28.52226 24.90383,36.82888 23.87077,16.15664 124.79165,8.58813 130.36242,8.15681 20.38501,-1.57831 14.31152,-36.55315 6.48338,-52.26717 -9.99697,-20.06768 -36.2899,-29.166284 -58.26768,-33.59672 -23.36221,-4.70952 -49.48453,-1.453806 -70.93699,8.92715 z"
     id="path112"
     sodipodi:nodetypes="aaasaaa" />
  <g
     id="line2d_1"
     transform="translate(-57.252378,-126.641)">
    <path
       d="m 368.4556,296.18963 -1.31445,-2.47219 2.78758,-0.2625"
       clip-path="url(#pf2770eddc2)"
       style="fill:none;stroke:#737880;stroke-linecap:round;stroke-opacity:0.5"
       id="path2" />
  </g>
  <g
     id="line2d_2"
     transform="translate(-57.252378,-126.641)">
    <path
       d="m 379.96,300.62273 -17.0918,-9.20706"
       clip-path="url(#pf2770eddc2)"
       style="fill:none;stroke:#737880;stroke-linecap:round;stroke-opacity:0.5"
       id="path3" />
  </g>
  <g
     id="line2d_3"
     transform="translate(-57.252378,-126.641)">
    <path
       d="M 362.78835,249.69612 360.1091,248.79 361.976,246.66536"
       clip-path="url(#pf2770eddc2)"
       style="fill:none;stroke:#737880;stroke-linecap:round;stroke-opacity:0.5"
       id="path4" />
  </g>
  <g
     id="line2d_4"
     transform="translate(-57.252378,-126.641)">
    <path
       d="m 374.31581,244.98211 -18.94228,5.07719"
       clip-path="url(#pf2770eddc2)"
       style="fill:none;stroke:#737880;stroke-linecap:round;stroke-opacity:0.5"
       id="path5" />
  </g>
  <g
     id="line2d_5"
     transform="translate(-57.252378,-126.641)">
    <path
       d="m 246.53253,229.75474 2.37782,-1.5487 0.51502,2.79056"
       clip-path="url(#pf2770eddc2)"
       style="fill:none;stroke:#737880;stroke-linecap:round;stroke-opacity:0.5"
       id="path6" />
  </g>
  <g
     id="line2d_6"
     transform="translate(-57.252378,-126.641)">
    <path
       d="m 243.08911,241.76621 7.76166,-18.08022"
       clip-path="url(#pf2770eddc2)"
       style="fill:none;stroke:#737880;stroke-linecap:round;stroke-opacity:0.5"
       id="path7" />
  </g>
  <g
     id="line2d_7"
     transform="translate(-57.252378,-126.641)">
    <path
       d="m 285.05565,145.57771 -2.19087,1.46326 -0.50806,-2.58513"
       clip-path="url(#pf2770eddc2)"
       style="fill:none;stroke:#737880;stroke-linecap:round;stroke-opacity:0.5"
       id="path8" />
  </g>
  <g
     id="line2d_8"
     transform="translate(-57.252378,-126.641)">
    <path
       d="m 288.12352,134.38974 -7.01165,16.86831"
       clip-path="url(#pf2770eddc2)"
       style="fill:none;stroke:#737880;stroke-linecap:round;stroke-opacity:0.5"
       id="path9" />
  </g>
  <g
     id="line2d_9"
     transform="translate(-57.252378,-126.641)">
    <path
       d="m 191.76937,169.4458 -1.5025,2.15613 -1.41239,-2.21621"
       clip-path="url(#pf2770eddc2)"
       style="fill:none;stroke:#737880;stroke-linecap:round;stroke-opacity:0.5"
       id="path10" />
  </g>
  <g
     id="line2d_10"
     transform="translate(-57.252378,-126.641)">
    <path
       d="m 190.54849,157.9384 -0.3755,18.21804"
       clip-path="url(#pf2770eddc2)"
       style="fill:none;stroke:#737880;stroke-linecap:round;stroke-opacity:0.5"
       id="path11" />
  </g>
  <g
     id="line2d_11"
     transform="translate(-57.252378,-126.641)">
    <path
       d="m 152.05141,141.78611 -0.0466,2.83239 -2.59661,-1.13236"
       clip-path="url(#pf2770eddc2)"
       style="fill:none;stroke:#737880;stroke-linecap:round;stroke-opacity:0.5"
       id="path12" />
  </g>
  <g
     id="line2d_12"
     transform="translate(-57.252378,-126.641)">
    <path
       d="m 144.03595,132.22862 10.62519,16.51984"
       clip-path="url(#pf2770eddc2)"
       style="fill:none;stroke:#737880;stroke-linecap:round;stroke-opacity:0.5"
       id="path13" />
  </g>
  <g
     id="line2d_13"
     transform="translate(-57.252378,-126.641)">
    <path
       d="m 74.441415,272.74599 2.453709,1.19188 -2.043931,1.80654"
       clip-path="url(#pf2770eddc2)"
       style="fill:none;stroke:#737880;stroke-linecap:round;stroke-opacity:0.5"
       id="path14" />
  </g>
  <g
     id="line2d_14"
     transform="translate(-57.252378,-126.641)">
    <path
       d="m 62.839998,275.8587 18.740168,-2.56111"
       clip-path="url(#pf2770eddc2)"
       style="fill:none;stroke:#737880;stroke-linecap:round;stroke-opacity:0.5"
       id="path15" />
  </g>
  <g
     id="line2d_15"
     transform="translate(-57.252378,-126.641)">
    <path
       d="m 125.14718,293.22041 2.21098,-1.35054 0.39627,2.56034"
       clip-path="url(#pf2770eddc2)"
       style="fill:none;stroke:#737880;stroke-linecap:round;stroke-opacity:0.5"
       id="path16" />
  </g>
  <g
     id="line2d_16"
     transform="translate(-57.252378,-126.641)">
    <path
       d="m 121.68721,304.09138 7.56127,-16.29535"
       clip-path="url(#pf2770eddc2)"
       style="fill:none;stroke:#737880;stroke-linecap:round;stroke-opacity:0.5"
       id="path17" />
  </g>
  <g
     id="line2d_17"
     transform="translate(-57.252378,-126.641)">
    <path
       d="m 362.8682,291.41567 -23.20568,-11.9331"
       clip-path="url(#pf2770eddc2)"
       style="fill:none;stroke:#737880;stroke-linecap:round;stroke-opacity:0.5"
       id="path18" />
  </g>
  <g
     id="line2d_18"
     transform="translate(-57.252378,-126.641)">
    <path
       d="m 355.37353,250.0593 -25.15495,7.61862"
       clip-path="url(#pf2770eddc2)"
       style="fill:none;stroke:#737880;stroke-linecap:round;stroke-opacity:0.5"
       id="path19" />
  </g>
  <g
     id="line2d_19"
     transform="translate(-57.252378,-126.641)">
    <path
       d="m 339.66252,279.48257 -9.44394,-21.80465"
       clip-path="url(#pf2770eddc2)"
       style="fill:none;stroke:#737880;stroke-linecap:round;stroke-opacity:0.5"
       id="path20" />
  </g>
  <g
     id="line2d_20"
     transform="translate(-57.252378,-126.641)">
    <path
       d="m 250.85077,223.68599 8.73476,-23.55258"
       clip-path="url(#pf2770eddc2)"
       style="fill:none;stroke:#737880;stroke-linecap:round;stroke-opacity:0.5"
       id="path21" />
  </g>
  <g
     id="line2d_21"
     transform="translate(-57.252378,-126.641)">
    <path
       d="m 281.11187,151.25805 -8.19128,23.39896"
       clip-path="url(#pf2770eddc2)"
       style="fill:none;stroke:#737880;stroke-linecap:round;stroke-opacity:0.5"
       id="path22" />
  </g>
  <g
     id="line2d_22"
     transform="translate(-57.252378,-126.641)">
    <path
       d="M 259.58553,200.13341 247.35969,209.178"
       clip-path="url(#pf2770eddc2)"
       style="fill:none;stroke:#737880;stroke-linecap:round;stroke-opacity:0.5"
       id="path23" />
  </g>
  <g
     id="line2d_23"
     transform="translate(-57.252378,-126.641)">
    <path
       d="m 259.58553,200.13341 13.33506,-25.4764"
       clip-path="url(#pf2770eddc2)"
       style="fill:none;stroke:#737880;stroke-linecap:round;stroke-opacity:0.5"
       id="path24" />
  </g>
  <g
     id="line2d_24"
     transform="translate(-57.252378,-126.641)">
    <path
       d="m 272.92059,174.65701 13.12103,-8.03747"
       clip-path="url(#pf2770eddc2)"
       style="fill:none;stroke:#737880;stroke-linecap:round;stroke-opacity:0.5"
       id="path25" />
  </g>
  <g
     id="line2d_25"
     transform="translate(-57.252378,-126.641)">
    <path
       d="m 190.17299,176.15644 0.37352,22.12039"
       clip-path="url(#pf2770eddc2)"
       style="fill:none;stroke:#737880;stroke-linecap:round;stroke-opacity:0.5"
       id="path26" />
  </g>
  <g
     id="line2d_26"
     transform="translate(-57.252378,-126.641)">
    <path
       d="m 154.66114,148.74846 13.49718,23.31628"
       clip-path="url(#pf2770eddc2)"
       style="fill:none;stroke:#737880;stroke-linecap:round;stroke-opacity:0.5"
       id="path27" />
  </g>
  <g
     id="line2d_27"
     transform="translate(-57.252378,-126.641)">
    <path
       d="M 190.54651,198.27683 168.15832,172.06474"
       clip-path="url(#pf2770eddc2)"
       style="fill:none;stroke:#737880;stroke-linecap:round;stroke-opacity:0.5"
       id="path28" />
  </g>
  <g
     id="line2d_28"
     transform="translate(-57.252378,-126.641)">
    <path
       d="m 168.15832,172.06474 -15.95371,-6.87845"
       clip-path="url(#pf2770eddc2)"
       style="fill:none;stroke:#737880;stroke-linecap:round;stroke-opacity:0.5"
       id="path29" />
  </g>
  <g
     id="line2d_29"
     transform="translate(-57.252378,-126.641)">
    <path
       d="m 81.580166,273.29759 25.453284,-0.90722"
       clip-path="url(#pf2770eddc2)"
       style="fill:none;stroke:#737880;stroke-linecap:round;stroke-opacity:0.5"
       id="path30" />
  </g>
  <g
     id="line2d_30"
     transform="translate(-57.252378,-126.641)">
    <path
       d="m 129.24848,287.79603 9.67541,-20.27588"
       clip-path="url(#pf2770eddc2)"
       style="fill:none;stroke:#737880;stroke-linecap:round;stroke-opacity:0.5"
       id="path31" />
  </g>
  <g
     id="line2d_31"
     transform="translate(-57.252378,-126.641)">
    <path
       d="M 107.03345,272.39037 93.512946,282.48656"
       clip-path="url(#pf2770eddc2)"
       style="fill:none;stroke:#737880;stroke-linecap:round;stroke-opacity:0.5"
       id="path32" />
  </g>
  <g
     id="line2d_32"
     transform="translate(-57.252378,-126.641)">
    <path
       d="m 107.03345,272.39037 31.89044,-4.87022"
       clip-path="url(#pf2770eddc2)"
       style="fill:none;stroke:#737880;stroke-linecap:round;stroke-opacity:0.5"
       id="path33" />
  </g>
  <g
     id="line2d_33"
     transform="translate(-57.252378,-126.641)">
    <path
       d="m 190.54651,198.27683 20.54648,35.87367"
       clip-path="url(#pf2770eddc2)"
       style="fill:none;stroke:#737880;stroke-linecap:round;stroke-opacity:0.5"
       id="path34" />
  </g>
  <g
     id="line2d_34"
     transform="translate(-57.252378,-126.641)">
    <path
       d="m 138.92389,267.52015 35.11485,-16.16254"
       clip-path="url(#pf2770eddc2)"
       style="fill:none;stroke:#737880;stroke-linecap:round;stroke-opacity:0.5"
       id="path35" />
  </g>
  <g
     id="line2d_35"
     transform="translate(-57.252378,-126.641)">
    <path
       d="m 211.09299,234.1505 -37.05425,17.20711"
       clip-path="url(#pf2770eddc2)"
       style="fill:none;stroke:#737880;stroke-linecap:round;stroke-opacity:0.5"
       id="path36" />
  </g>
  <g
     id="line2d_36"
     transform="translate(-57.252378,-126.641)">
    <path
       d="m 174.03874,251.35761 -11.42353,5.77824"
       clip-path="url(#pf2770eddc2)"
       style="fill:none;stroke:#737880;stroke-linecap:round;stroke-opacity:0.5"
       id="path37" />
  </g>
  <g
     id="line2d_37"
     transform="translate(-57.252378,-126.641)">
    <path
       d="m 211.09299,234.1505 48.03374,16.00105"
       clip-path="url(#pf2770eddc2)"
       style="fill:none;stroke:#737880;stroke-linecap:round;stroke-opacity:0.5"
       id="path38" />
  </g>
  <g
     id="line2d_38"
     transform="translate(-57.252378,-126.641)">
    <path
       d="m 330.21858,257.67792 -33.1935,-6.97551"
       clip-path="url(#pf2770eddc2)"
       style="fill:none;stroke:#737880;stroke-linecap:round;stroke-opacity:0.5"
       id="path39" />
  </g>
  <g
     id="line2d_39"
     transform="translate(-57.252378,-126.641)">
    <path
       d="m 259.12673,250.15155 37.89835,0.55086"
       clip-path="url(#pf2770eddc2)"
       style="fill:none;stroke:#737880;stroke-linecap:round;stroke-opacity:0.5"
       id="path40" />
  </g>
  <g
     id="line2d_40"
     transform="translate(-57.252378,-126.641)">
    <path
       d="m 297.02508,250.70241 13.05067,-9.1792"
       clip-path="url(#pf2770eddc2)"
       style="fill:none;stroke:#737880;stroke-linecap:round;stroke-opacity:0.5"
       id="path41" />
  </g>
  <g
     id="line2d_41"
     transform="translate(-57.252378,-126.641)">
    <path
       d="m 259.12673,250.15155 26.36732,22.14621"
       clip-path="url(#pf2770eddc2)"
       style="fill:none;stroke:#737880;stroke-linecap:round;stroke-opacity:0.5"
       id="path42" />
  </g>
  <g
     id="line2d_42"
     transform="translate(-57.252378,-126.641)">
    <path
       d="m 339.66252,279.48257 -25.20972,4.35834"
       clip-path="url(#pf2770eddc2)"
       style="fill:none;stroke:#737880;stroke-linecap:round;stroke-opacity:0.5"
       id="path43" />
  </g>
  <g
     id="line2d_43"
     transform="translate(-57.252378,-126.641)">
    <path
       d="m 285.49405,272.29776 -1.19749,17.50228"
       clip-path="url(#pf2770eddc2)"
       style="fill:none;stroke:#737880;stroke-linecap:round;stroke-opacity:0.5"
       id="path44" />
  </g>
  <g
     id="line2d_44"
     transform="translate(-57.252378,-126.641)">
    <path
       d="m 285.49405,272.29776 28.95875,11.54315"
       clip-path="url(#pf2770eddc2)"
       style="fill:none;stroke:#737880;stroke-linecap:round;stroke-opacity:0.5"
       id="path45" />
  </g>
  <g
     id="line2d_45"
     transform="translate(-57.252378,-126.641)">
    <path
       d="m 314.4528,283.84091 7.33269,17.45778"
       clip-path="url(#pf2770eddc2)"
       style="fill:none;stroke:#737880;stroke-linecap:round;stroke-opacity:0.5"
       id="path46" />
  </g>
  <g
     id="patch_2"
     transform="translate(-57.252378,-126.641)">
    <path
       d="M 247.35969,209.178 Z"
       clip-path="url(#pf2770eddc2)"
       style="fill:#ffffff"
       id="path47" />
  </g>
  <g
     id="patch_3"
     transform="translate(-57.252378,-126.641)">
    <path
       d="M 286.04162,166.61954 Z"
       clip-path="url(#pf2770eddc2)"
       style="fill:#ffffff"
       id="path48" />
  </g>
  <g
     id="patch_4"
     transform="translate(-57.252378,-126.641)">
    <path
       d="M 152.20461,165.18629 Z"
       clip-path="url(#pf2770eddc2)"
       style="fill:#ffffff"
       id="path49" />
  </g>
  <g
     id="patch_5"
     transform="translate(-57.252378,-126.641)">
    <path
       d="M 93.512946,282.48656 Z"
       clip-path="url(#pf2770eddc2)"
       style="fill:#ffffff"
       id="path50" />
  </g>
  <g
     id="patch_6"
     transform="translate(-57.252378,-126.641)">
    <path
       d="M 162.61521,257.13585 Z"
       clip-path="url(#pf2770eddc2)"
       style="fill:#ffffff"
       id="path51" />
  </g>
  <g
     id="patch_7"
     transform="translate(-57.252378,-126.641)">
    <path
       d="M 310.07575,241.52321 Z"
       clip-path="url(#pf2770eddc2)"
       style="fill:#ffffff"
       id="path52" />
  </g>
  <g
     id="patch_8"
     transform="translate(-57.252378,-126.641)">
    <path
       d="M 284.29656,289.80004 Z"
       clip-path="url(#pf2770eddc2)"
       style="fill:#ffffff"
       id="path53" />
  </g>
  <g
     id="patch_9"
     transform="translate(-57.252378,-126.641)">
    <path
       d="M 321.78549,301.29869 Z"
       clip-path="url(#pf2770eddc2)"
       style="fill:#ffffff"
       id="path54" />
  </g>
  <g
     id="patch_10"
     transform="translate(-57.252378,-126.641)">
    <path
       d="m 379.96,305.67513 c 1.33991,0 2.62513,-0.53235 3.57259,-1.47981 0.94746,-0.94746 1.47982,-2.23268 1.47982,-3.57259 0,-1.33991 -0.53236,-2.62513 -1.47982,-3.57259 -0.94746,-0.94746 -2.23268,-1.47981 -3.57259,-1.47981 -1.33991,0 -2.62513,0.53235 -3.57259,1.47981 -0.94746,0.94746 -1.47981,2.23268 -1.47981,3.57259 0,1.33991 0.53235,2.62513 1.47981,3.57259 0.94746,0.94746 2.23268,1.47981 3.57259,1.47981 z"
       clip-path="url(#pf2770eddc2)"
       style="fill:#56b4e9;stroke:#4da2d2;stroke-width:1.07043;stroke-linejoin:miter"
       id="path55" />
  </g>
  <g
     id="patch_11"
     transform="translate(-57.252378,-126.641)">
    <path
       d="m 374.31581,250.03451 c 1.33992,0 2.62513,-0.53235 3.57259,-1.47981 0.94746,-0.94747 1.47982,-2.23268 1.47982,-3.57259 0,-1.33992 -0.53236,-2.62513 -1.47982,-3.57259 -0.94746,-0.94747 -2.23267,-1.47982 -3.57259,-1.47982 -1.33991,0 -2.62513,0.53235 -3.57259,1.47982 -0.94746,0.94746 -1.47981,2.23267 -1.47981,3.57259 0,1.33991 0.53235,2.62512 1.47981,3.57259 0.94746,0.94746 2.23268,1.47981 3.57259,1.47981 z"
       clip-path="url(#pf2770eddc2)"
       style="fill:#56b4e9;stroke:#4da2d2;stroke-width:1.07043;stroke-linejoin:miter"
       id="path56" />
  </g>
  <g
     id="patch_12"
     transform="translate(-57.252378,-126.641)">
    <path
       d="m 243.08911,246.81862 c 1.33991,0 2.62512,-0.53236 3.57259,-1.47982 0.94746,-0.94746 1.47981,-2.23268 1.47981,-3.57259 0,-1.33991 -0.53235,-2.62513 -1.47981,-3.57259 -0.94747,-0.94746 -2.23268,-1.47981 -3.57259,-1.47981 -1.33992,0 -2.62513,0.53235 -3.57259,1.47981 -0.94747,0.94746 -1.47982,2.23268 -1.47982,3.57259 0,1.33991 0.53235,2.62513 1.47982,3.57259 0.94746,0.94746 2.23267,1.47982 3.57259,1.47982 z"
       clip-path="url(#pf2770eddc2)"
       style="fill:#56b4e9;stroke:#4da2d2;stroke-width:1.07043;stroke-linejoin:miter"
       id="path57" />
  </g>
  <g
     id="patch_13"
     transform="translate(-57.252378,-126.641)">
    <path
       d="m 288.12352,139.44215 c 1.33991,0 2.62513,-0.53236 3.57259,-1.47982 0.94746,-0.94746 1.47981,-2.23267 1.47981,-3.57259 0,-1.33991 -0.53235,-2.62513 -1.47981,-3.57259 -0.94746,-0.94746 -2.23268,-1.47981 -3.57259,-1.47981 -1.33991,0 -2.62513,0.53235 -3.57259,1.47981 -0.94746,0.94746 -1.47981,2.23268 -1.47981,3.57259 0,1.33992 0.53235,2.62513 1.47981,3.57259 0.94746,0.94746 2.23268,1.47982 3.57259,1.47982 z"
       clip-path="url(#pf2770eddc2)"
       style="fill:#56b4e9;stroke:#4da2d2;stroke-width:1.07043;stroke-linejoin:miter"
       id="path58" />
  </g>
  <g
     id="patch_14"
     transform="translate(-57.252378,-126.641)">
    <path
       d="m 190.54849,162.9908 c 1.33991,0 2.62513,-0.53235 3.57259,-1.47981 0.94746,-0.94747 1.47982,-2.23268 1.47982,-3.57259 0,-1.33992 -0.53236,-2.62513 -1.47982,-3.57259 -0.94746,-0.94747 -2.23268,-1.47982 -3.57259,-1.47982 -1.33991,0 -2.62513,0.53235 -3.57259,1.47982 -0.94746,0.94746 -1.47981,2.23267 -1.47981,3.57259 0,1.33991 0.53235,2.62512 1.47981,3.57259 0.94746,0.94746 2.23268,1.47981 3.57259,1.47981 z"
       clip-path="url(#pf2770eddc2)"
       style="fill:#56b4e9;stroke:#4da2d2;stroke-width:1.07043;stroke-linejoin:miter"
       id="path59" />
  </g>
  <g
     id="patch_15"
     transform="translate(-57.252378,-126.641)">
    <path
       d="m 144.03595,137.28103 c 1.33991,0 2.62513,-0.53236 3.57259,-1.47982 0.94746,-0.94746 1.47981,-2.23267 1.47981,-3.57259 0,-1.33991 -0.53235,-2.62513 -1.47981,-3.57259 -0.94746,-0.94746 -2.23268,-1.47981 -3.57259,-1.47981 -1.33991,0 -2.62513,0.53235 -3.57259,1.47981 -0.94746,0.94746 -1.47982,2.23268 -1.47982,3.57259 0,1.33992 0.53236,2.62513 1.47982,3.57259 0.94746,0.94746 2.23268,1.47982 3.57259,1.47982 z"
       clip-path="url(#pf2770eddc2)"
       style="fill:#56b4e9;stroke:#4da2d2;stroke-width:1.07043;stroke-linejoin:miter"
       id="path60" />
  </g>
  <g
     id="patch_16"
     transform="translate(-57.252378,-126.641)">
    <path
       d="m 62.839998,280.91111 c 1.339914,0 2.625128,-0.53236 3.57259,-1.47982 0.947462,-0.94746 1.479815,-2.23267 1.479815,-3.57259 0,-1.33991 -0.532353,-2.62513 -1.479815,-3.57259 -0.947462,-0.94746 -2.232676,-1.47981 -3.57259,-1.47981 -1.339913,0 -2.625128,0.53235 -3.572589,1.47981 -0.947462,0.94746 -1.479816,2.23268 -1.479816,3.57259 0,1.33992 0.532354,2.62513 1.479816,3.57259 0.947461,0.94746 2.232676,1.47982 3.572589,1.47982 z"
       clip-path="url(#pf2770eddc2)"
       style="fill:#56b4e9;stroke:#4da2d2;stroke-width:1.07043;stroke-linejoin:miter"
       id="path61" />
  </g>
  <g
     id="patch_17"
     transform="translate(-57.252378,-126.641)">
    <path
       d="m 121.68721,309.14378 c 1.33991,0 2.62512,-0.53235 3.57259,-1.47981 0.94746,-0.94746 1.47981,-2.23268 1.47981,-3.57259 0,-1.33992 -0.53235,-2.62513 -1.47981,-3.57259 -0.94747,-0.94746 -2.23268,-1.47982 -3.57259,-1.47982 -1.33992,0 -2.62513,0.53236 -3.57259,1.47982 -0.94747,0.94746 -1.47982,2.23267 -1.47982,3.57259 0,1.33991 0.53235,2.62513 1.47982,3.57259 0.94746,0.94746 2.23267,1.47981 3.57259,1.47981 z"
       clip-path="url(#pf2770eddc2)"
       style="fill:#56b4e9;stroke:#4da2d2;stroke-width:1.07043;stroke-linejoin:miter"
       id="path62" />
  </g>
  <g
     id="patch_18"
     transform="translate(-57.252378,-126.641)">
    <path
       d="m 362.8682,296.46808 c 1.33991,0 2.62513,-0.53236 3.57259,-1.47982 0.94746,-0.94746 1.47982,-2.23268 1.47982,-3.57259 0,-1.33991 -0.53236,-2.62513 -1.47982,-3.57259 -0.94746,-0.94746 -2.23268,-1.47981 -3.57259,-1.47981 -1.33991,0 -2.62513,0.53235 -3.57259,1.47981 -0.94746,0.94746 -1.47981,2.23268 -1.47981,3.57259 0,1.33991 0.53235,2.62513 1.47981,3.57259 0.94746,0.94746 2.23268,1.47982 3.57259,1.47982 z"
       clip-path="url(#pf2770eddc2)"
       style="fill:#e69f00;stroke:#cf8f00;stroke-width:1.07043;stroke-linejoin:miter"
       id="path63" />
  </g>
  <g
     id="patch_19"
     transform="translate(-57.252378,-126.641)">
    <path
       d="m 355.37353,255.11171 c 1.33991,0 2.62513,-0.53236 3.57259,-1.47982 0.94746,-0.94746 1.47981,-2.23268 1.47981,-3.57259 0,-1.33991 -0.53235,-2.62513 -1.47981,-3.57259 -0.94746,-0.94746 -2.23268,-1.47981 -3.57259,-1.47981 -1.33991,0 -2.62513,0.53235 -3.57259,1.47981 -0.94746,0.94746 -1.47982,2.23268 -1.47982,3.57259 0,1.33991 0.53236,2.62513 1.47982,3.57259 0.94746,0.94746 2.23268,1.47982 3.57259,1.47982 z"
       clip-path="url(#pf2770eddc2)"
       style="fill:#e69f00;stroke:#cf8f00;stroke-width:1.07043;stroke-linejoin:miter"
       id="path64" />
  </g>
  <g
     id="patch_20"
     transform="translate(-57.252378,-126.641)">
    <path
       d="m 250.85077,228.73839 c 1.33991,0 2.62512,-0.53235 3.57259,-1.47981 0.94746,-0.94746 1.47981,-2.23268 1.47981,-3.57259 0,-1.33991 -0.53235,-2.62513 -1.47981,-3.57259 -0.94747,-0.94746 -2.23268,-1.47982 -3.57259,-1.47982 -1.33992,0 -2.62513,0.53236 -3.57259,1.47982 -0.94746,0.94746 -1.47982,2.23268 -1.47982,3.57259 0,1.33991 0.53236,2.62513 1.47982,3.57259 0.94746,0.94746 2.23267,1.47981 3.57259,1.47981 z"
       clip-path="url(#pf2770eddc2)"
       style="fill:#e69f00;stroke:#cf8f00;stroke-width:1.07043;stroke-linejoin:miter"
       id="path65" />
  </g>
  <g
     id="patch_21"
     transform="translate(-57.252378,-126.641)">
    <path
       d="m 281.11187,156.31045 c 1.33991,0 2.62513,-0.53235 3.57259,-1.47981 0.94746,-0.94747 1.47982,-2.23268 1.47982,-3.57259 0,-1.33992 -0.53236,-2.62513 -1.47982,-3.57259 -0.94746,-0.94747 -2.23268,-1.47982 -3.57259,-1.47982 -1.33991,0 -2.62513,0.53235 -3.57259,1.47982 -0.94746,0.94746 -1.47981,2.23267 -1.47981,3.57259 0,1.33991 0.53235,2.62512 1.47981,3.57259 0.94746,0.94746 2.23268,1.47981 3.57259,1.47981 z"
       clip-path="url(#pf2770eddc2)"
       style="fill:#e69f00;stroke:#cf8f00;stroke-width:1.07043;stroke-linejoin:miter"
       id="path66" />
  </g>
  <g
     id="patch_22"
     transform="translate(-57.252378,-126.641)">
    <path
       d="m 190.17299,181.20884 c 1.33991,0 2.62513,-0.53235 3.57259,-1.47981 0.94746,-0.94746 1.47982,-2.23268 1.47982,-3.57259 0,-1.33991 -0.53236,-2.62513 -1.47982,-3.57259 -0.94746,-0.94746 -2.23268,-1.47982 -3.57259,-1.47982 -1.33991,0 -2.62513,0.53236 -3.57259,1.47982 -0.94746,0.94746 -1.47981,2.23268 -1.47981,3.57259 0,1.33991 0.53235,2.62513 1.47981,3.57259 0.94746,0.94746 2.23268,1.47981 3.57259,1.47981 z"
       clip-path="url(#pf2770eddc2)"
       style="fill:#e69f00;stroke:#cf8f00;stroke-width:1.07043;stroke-linejoin:miter"
       id="path67" />
  </g>
  <g
     id="patch_23"
     transform="translate(-57.252378,-126.641)">
    <path
       d="m 154.66114,153.80087 c 1.33991,0 2.62513,-0.53236 3.57259,-1.47982 0.94746,-0.94746 1.47981,-2.23267 1.47981,-3.57259 0,-1.33991 -0.53235,-2.62513 -1.47981,-3.57259 -0.94746,-0.94746 -2.23268,-1.47981 -3.57259,-1.47981 -1.33992,0 -2.62513,0.53235 -3.57259,1.47981 -0.94746,0.94746 -1.47982,2.23268 -1.47982,3.57259 0,1.33992 0.53236,2.62513 1.47982,3.57259 0.94746,0.94746 2.23267,1.47982 3.57259,1.47982 z"
       clip-path="url(#pf2770eddc2)"
       style="fill:#e69f00;stroke:#cf8f00;stroke-width:1.07043;stroke-linejoin:miter"
       id="path68" />
  </g>
  <g
     id="patch_24"
     transform="translate(-57.252378,-126.641)">
    <path
       d="m 81.580166,278.34999 c 1.339913,0 2.625128,-0.53235 3.572589,-1.47981 0.947462,-0.94746 1.479815,-2.23268 1.479815,-3.57259 0,-1.33992 -0.532353,-2.62513 -1.479815,-3.57259 -0.947461,-0.94746 -2.232676,-1.47982 -3.572589,-1.47982 -1.339914,0 -2.625128,0.53236 -3.57259,1.47982 -0.947462,0.94746 -1.479815,2.23267 -1.479815,3.57259 0,1.33991 0.532353,2.62513 1.479815,3.57259 0.947462,0.94746 2.232676,1.47981 3.57259,1.47981 z"
       clip-path="url(#pf2770eddc2)"
       style="fill:#e69f00;stroke:#cf8f00;stroke-width:1.07043;stroke-linejoin:miter"
       id="path69" />
  </g>
  <g
     id="patch_25"
     transform="translate(-57.252378,-126.641)">
    <path
       d="m 129.24848,292.84843 c 1.33991,0 2.62512,-0.53235 3.57259,-1.47981 0.94746,-0.94746 1.47981,-2.23268 1.47981,-3.57259 0,-1.33992 -0.53235,-2.62513 -1.47981,-3.57259 -0.94747,-0.94746 -2.23268,-1.47982 -3.57259,-1.47982 -1.33992,0 -2.62513,0.53236 -3.57259,1.47982 -0.94746,0.94746 -1.47982,2.23267 -1.47982,3.57259 0,1.33991 0.53236,2.62513 1.47982,3.57259 0.94746,0.94746 2.23267,1.47981 3.57259,1.47981 z"
       clip-path="url(#pf2770eddc2)"
       style="fill:#e69f00;stroke:#cf8f00;stroke-width:1.07043;stroke-linejoin:miter"
       id="path70" />
  </g>
  <g
     id="patch_26"
     transform="translate(-57.252378,-126.641)">
    <path
       d="m 339.66252,284.53497 c 1.33992,0 2.62513,-0.53235 3.57259,-1.47981 0.94746,-0.94747 1.47982,-2.23268 1.47982,-3.57259 0,-1.33992 -0.53236,-2.62513 -1.47982,-3.57259 -0.94746,-0.94747 -2.23267,-1.47982 -3.57259,-1.47982 -1.33991,0 -2.62513,0.53235 -3.57259,1.47982 -0.94746,0.94746 -1.47981,2.23267 -1.47981,3.57259 0,1.33991 0.53235,2.62512 1.47981,3.57259 0.94746,0.94746 2.23268,1.47981 3.57259,1.47981 z"
       clip-path="url(#pf2770eddc2)"
       style="fill:#009e73;stroke:#008e68;stroke-width:1.07043;stroke-linejoin:miter"
       id="path71" />
  </g>
  <g
     id="patch_27"
     transform="translate(-57.252378,-126.641)">
    <path
       d="m 330.21858,262.73032 c 1.33991,0 2.62513,-0.53235 3.57259,-1.47981 0.94746,-0.94747 1.47982,-2.23268 1.47982,-3.57259 0,-1.33992 -0.53236,-2.62513 -1.47982,-3.57259 -0.94746,-0.94746 -2.23268,-1.47982 -3.57259,-1.47982 -1.33991,0 -2.62513,0.53236 -3.57259,1.47982 -0.94746,0.94746 -1.47981,2.23267 -1.47981,3.57259 0,1.33991 0.53235,2.62512 1.47981,3.57259 0.94746,0.94746 2.23268,1.47981 3.57259,1.47981 z"
       clip-path="url(#pf2770eddc2)"
       style="fill:#009e73;stroke:#008e68;stroke-width:1.07043;stroke-linejoin:miter"
       id="path72" />
  </g>
  <g
     id="patch_28"
     transform="translate(-57.252378,-126.641)">
    <path
       d="m 259.58553,205.18581 c 1.33992,0 2.62513,-0.53235 3.57259,-1.47982 0.94746,-0.94746 1.47982,-2.23267 1.47982,-3.57258 0,-1.33992 -0.53236,-2.62513 -1.47982,-3.57259 -0.94746,-0.94747 -2.23267,-1.47982 -3.57259,-1.47982 -1.33991,0 -2.62513,0.53235 -3.57259,1.47982 -0.94746,0.94746 -1.47981,2.23267 -1.47981,3.57259 0,1.33991 0.53235,2.62512 1.47981,3.57258 0.94746,0.94747 2.23268,1.47982 3.57259,1.47982 z"
       clip-path="url(#pf2770eddc2)"
       style="fill:#009e73;stroke:#008e68;stroke-width:1.07043;stroke-linejoin:miter"
       id="path73" />
  </g>
  <g
     id="patch_29"
     transform="translate(-57.252378,-126.641)">
    <path
       d="m 272.92059,179.70941 c 1.33992,0 2.62513,-0.53235 3.57259,-1.47981 0.94747,-0.94746 1.47982,-2.23268 1.47982,-3.57259 0,-1.33992 -0.53235,-2.62513 -1.47982,-3.57259 -0.94746,-0.94746 -2.23267,-1.47982 -3.57259,-1.47982 -1.33991,0 -2.62512,0.53236 -3.57259,1.47982 -0.94746,0.94746 -1.47981,2.23267 -1.47981,3.57259 0,1.33991 0.53235,2.62513 1.47981,3.57259 0.94747,0.94746 2.23268,1.47981 3.57259,1.47981 z"
       clip-path="url(#pf2770eddc2)"
       style="fill:#009e73;stroke:#008e68;stroke-width:1.07043;stroke-linejoin:miter"
       id="path74" />
  </g>
  <g
     id="patch_30"
     transform="translate(-57.252378,-126.641)">
    <path
       d="m 190.54651,203.32923 c 1.33991,0 2.62513,-0.53235 3.57259,-1.47981 0.94746,-0.94746 1.47981,-2.23268 1.47981,-3.57259 0,-1.33991 -0.53235,-2.62513 -1.47981,-3.57259 -0.94746,-0.94746 -2.23268,-1.47981 -3.57259,-1.47981 -1.33991,0 -2.62513,0.53235 -3.57259,1.47981 -0.94746,0.94746 -1.47982,2.23268 -1.47982,3.57259 0,1.33991 0.53236,2.62513 1.47982,3.57259 0.94746,0.94746 2.23268,1.47981 3.57259,1.47981 z"
       clip-path="url(#pf2770eddc2)"
       style="fill:#009e73;stroke:#008e68;stroke-width:1.07043;stroke-linejoin:miter"
       id="path75" />
  </g>
  <g
     id="patch_31"
     transform="translate(-57.252378,-126.641)">
    <path
       d="m 168.15832,177.11715 c 1.33991,0 2.62512,-0.53235 3.57259,-1.47982 0.94746,-0.94746 1.47981,-2.23267 1.47981,-3.57259 0,-1.33991 -0.53235,-2.62512 -1.47981,-3.57259 -0.94747,-0.94746 -2.23268,-1.47981 -3.57259,-1.47981 -1.33992,0 -2.62513,0.53235 -3.57259,1.47981 -0.94747,0.94747 -1.47982,2.23268 -1.47982,3.57259 0,1.33992 0.53235,2.62513 1.47982,3.57259 0.94746,0.94747 2.23267,1.47982 3.57259,1.47982 z"
       clip-path="url(#pf2770eddc2)"
       style="fill:#009e73;stroke:#008e68;stroke-width:1.07043;stroke-linejoin:miter"
       id="path76" />
  </g>
  <g
     id="patch_32"
     transform="translate(-57.252378,-126.641)">
    <path
       d="m 107.03345,277.44277 c 1.33992,0 2.62513,-0.53235 3.57259,-1.47981 0.94747,-0.94747 1.47982,-2.23268 1.47982,-3.57259 0,-1.33992 -0.53235,-2.62513 -1.47982,-3.57259 -0.94746,-0.94747 -2.23267,-1.47982 -3.57259,-1.47982 -1.33991,0 -2.62512,0.53235 -3.57259,1.47982 -0.94746,0.94746 -1.47981,2.23267 -1.47981,3.57259 0,1.33991 0.53235,2.62512 1.47981,3.57259 0.94747,0.94746 2.23268,1.47981 3.57259,1.47981 z"
       clip-path="url(#pf2770eddc2)"
       style="fill:#009e73;stroke:#008e68;stroke-width:1.07043;stroke-linejoin:miter"
       id="path77" />
  </g>
  <g
     id="patch_33"
     transform="translate(-57.252378,-126.641)">
    <path
       d="m 138.92389,272.57256 c 1.33991,0 2.62512,-0.53236 3.57258,-1.47982 0.94747,-0.94746 1.47982,-2.23267 1.47982,-3.57259 0,-1.33991 -0.53235,-2.62513 -1.47982,-3.57259 -0.94746,-0.94746 -2.23267,-1.47981 -3.57258,-1.47981 -1.33992,0 -2.62513,0.53235 -3.5726,1.47981 -0.94746,0.94746 -1.47981,2.23268 -1.47981,3.57259 0,1.33992 0.53235,2.62513 1.47981,3.57259 0.94747,0.94746 2.23268,1.47982 3.5726,1.47982 z"
       clip-path="url(#pf2770eddc2)"
       style="fill:#009e73;stroke:#008e68;stroke-width:1.07043;stroke-linejoin:miter"
       id="path78" />
  </g>
  <g
     id="patch_34"
     transform="translate(-57.252378,-126.641)">
    <path
       d="m 211.09299,239.2029 c 1.33991,0 2.62513,-0.53235 3.57259,-1.47981 0.94746,-0.94746 1.47981,-2.23268 1.47981,-3.57259 0,-1.33992 -0.53235,-2.62513 -1.47981,-3.57259 -0.94746,-0.94746 -2.23268,-1.47982 -3.57259,-1.47982 -1.33992,0 -2.62513,0.53236 -3.57259,1.47982 -0.94746,0.94746 -1.47982,2.23267 -1.47982,3.57259 0,1.33991 0.53236,2.62513 1.47982,3.57259 0.94746,0.94746 2.23267,1.47981 3.57259,1.47981 z"
       clip-path="url(#pf2770eddc2)"
       style="fill:#009e73;stroke:#008e68;stroke-width:1.07043;stroke-linejoin:miter"
       id="path79" />
  </g>
  <g
     id="patch_35"
     transform="translate(-57.252378,-126.641)">
    <path
       d="m 174.03874,256.41001 c 1.33991,0 2.62513,-0.53235 3.57259,-1.47981 0.94746,-0.94747 1.47982,-2.23268 1.47982,-3.57259 0,-1.33992 -0.53236,-2.62513 -1.47982,-3.57259 -0.94746,-0.94747 -2.23268,-1.47982 -3.57259,-1.47982 -1.33991,0 -2.62513,0.53235 -3.57259,1.47982 -0.94746,0.94746 -1.47981,2.23267 -1.47981,3.57259 0,1.33991 0.53235,2.62512 1.47981,3.57259 0.94746,0.94746 2.23268,1.47981 3.57259,1.47981 z"
       clip-path="url(#pf2770eddc2)"
       style="fill:#009e73;stroke:#008e68;stroke-width:1.07043;stroke-linejoin:miter"
       id="path80" />
  </g>
  <g
     id="patch_36"
     transform="translate(-57.252378,-126.641)">
    <path
       d="m 259.12673,255.20396 c 1.33992,0 2.62513,-0.53236 3.57259,-1.47982 0.94746,-0.94746 1.47982,-2.23267 1.47982,-3.57259 0,-1.33991 -0.53236,-2.62512 -1.47982,-3.57259 -0.94746,-0.94746 -2.23267,-1.47981 -3.57259,-1.47981 -1.33991,0 -2.62513,0.53235 -3.57259,1.47981 -0.94746,0.94747 -1.47981,2.23268 -1.47981,3.57259 0,1.33992 0.53235,2.62513 1.47981,3.57259 0.94746,0.94746 2.23268,1.47982 3.57259,1.47982 z"
       clip-path="url(#pf2770eddc2)"
       style="fill:#009e73;stroke:#008e68;stroke-width:1.07043;stroke-linejoin:miter"
       id="path81" />
  </g>
  <g
     id="patch_37"
     transform="translate(-57.252378,-126.641)">
    <path
       d="m 297.02508,255.75481 c 1.33992,0 2.62513,-0.53235 3.57259,-1.47981 0.94747,-0.94746 1.47982,-2.23268 1.47982,-3.57259 0,-1.33991 -0.53235,-2.62513 -1.47982,-3.57259 -0.94746,-0.94746 -2.23267,-1.47982 -3.57259,-1.47982 -1.33991,0 -2.62512,0.53236 -3.57259,1.47982 -0.94746,0.94746 -1.47981,2.23268 -1.47981,3.57259 0,1.33991 0.53235,2.62513 1.47981,3.57259 0.94747,0.94746 2.23268,1.47981 3.57259,1.47981 z"
       clip-path="url(#pf2770eddc2)"
       style="fill:#009e73;stroke:#008e68;stroke-width:1.07043;stroke-linejoin:miter"
       id="path82" />
  </g>
  <g
     id="patch_38"
     transform="translate(-57.252378,-126.641)">
    <path
       d="m 285.49405,277.35017 c 1.33991,0 2.62513,-0.53236 3.57259,-1.47982 0.94746,-0.94746 1.47981,-2.23267 1.47981,-3.57259 0,-1.33991 -0.53235,-2.62512 -1.47981,-3.57259 -0.94746,-0.94746 -2.23268,-1.47981 -3.57259,-1.47981 -1.33991,0 -2.62513,0.53235 -3.57259,1.47981 -0.94746,0.94747 -1.47982,2.23268 -1.47982,3.57259 0,1.33992 0.53236,2.62513 1.47982,3.57259 0.94746,0.94746 2.23268,1.47982 3.57259,1.47982 z"
       clip-path="url(#pf2770eddc2)"
       style="fill:#009e73;stroke:#008e68;stroke-width:1.07043;stroke-linejoin:miter"
       id="path83" />
  </g>
  <g
     id="patch_39"
     transform="translate(-57.252378,-126.641)">
    <path
       d="m 314.4528,288.89332 c 1.33992,0 2.62513,-0.53235 3.57259,-1.47982 0.94746,-0.94746 1.47982,-2.23267 1.47982,-3.57259 0,-1.33991 -0.53236,-2.62512 -1.47982,-3.57259 -0.94746,-0.94746 -2.23267,-1.47981 -3.57259,-1.47981 -1.33991,0 -2.62513,0.53235 -3.57259,1.47981 -0.94746,0.94747 -1.47981,2.23268 -1.47981,3.57259 0,1.33992 0.53235,2.62513 1.47981,3.57259 0.94746,0.94747 2.23268,1.47982 3.57259,1.47982 z"
       clip-path="url(#pf2770eddc2)"
       style="fill:#009e73;stroke:#008e68;stroke-width:1.07043;stroke-linejoin:miter"
       id="path84" />
  </g>
  <g
     id="text_1"
     transform="translate(-57.252378,-126.641)">
    <!-- k2 -->
    <g
       style="fill:#545759"
       transform="matrix(0.07,0,0,-0.07,243.14547,211.12816)"
       id="g85">
      <defs
         id="defs84">
        <path
           id="DejaVuSansMono-6b"
           d="m 738,4863 h 593 V 2047 l 1510,1453 h 700 L 2163,2181 3756,0 H 3053 L 1759,1806 1331,1403 V 0 H 738 Z"
           transform="scale(0.015625)" />
        <path
           id="DejaVuSansMono-32"
           d="M 1166,531 H 3309 V 0 H 475 v 531 q 584,616 1021,1088 438,472 604,665 313,382 422,618 109,236 109,482 0,391 -230,613 -229,222 -629,222 -284,0 -597,-103 -312,-103 -662,-313 v 638 q 321,153 632,231 311,78 614,78 685,0 1102,-364 417,-364 417,-955 0,-300 -139,-600 Q 3000,2531 2688,2169 2513,1966 2180,1606 1847,1247 1166,531 Z"
           transform="scale(0.015625)" />
      </defs>
      <use
         xlink:href="#DejaVuSansMono-6b"
         id="use84" />
      <use
         xlink:href="#DejaVuSansMono-32"
         x="60.205078"
         id="use85" />
    </g>
  </g>
  <g
     id="text_2"
     transform="translate(-57.252378,-126.641)">
    <!-- k3 -->
    <g
       style="fill:#545759"
       transform="matrix(0.07,0,0,-0.07,281.8274,168.56969)"
       id="g87">
      <defs
         id="defs85">
        <path
           id="DejaVuSansMono-33"
           d="m 2425,2497 q 459,-122 703,-433 244,-311 244,-776 0,-644 -433,-1012 -433,-367 -1198,-367 -322,0 -657,60 -334,59 -656,172 v 628 q 319,-166 628,-247 310,-81 616,-81 519,0 797,234 278,234 278,675 0,406 -278,645 -278,239 -753,239 h -482 v 519 h 482 q 434,0 678,190 244,191 244,532 0,359 -227,551 -227,193 -645,193 -278,0 -575,-63 -297,-62 -622,-187 v 581 q 378,100 673,150 296,50 524,50 681,0 1089,-342 408,-342 408,-908 0,-384 -215,-641 -214,-256 -623,-362 z"
           transform="scale(0.015625)" />
      </defs>
      <use
         xlink:href="#DejaVuSansMono-6b"
         id="use86" />
      <use
         xlink:href="#DejaVuSansMono-33"
         x="60.205078"
         id="use87" />
    </g>
  </g>
  <g
     id="text_3"
     transform="translate(-57.252378,-126.641)">
    <!-- k5 -->
    <g
       style="fill:#545759"
       transform="matrix(0.07,0,0,-0.07,147.99039,167.13645)"
       id="g89">
      <defs
         id="defs87">
        <path
           id="DejaVuSansMono-35"
           d="M 647,4666 H 3009 V 4134 H 1222 V 2988 q 134,50 270,73 136,23 274,23 725,0 1150,-428 425,-428 425,-1159 Q 3341,759 2895,334 2450,-91 1678,-91 1306,-91 998,-41 691,9 447,109 v 641 q 287,-156 578,-233 291,-76 594,-76 522,0 804,275 283,275 283,781 0,500 -292,778 -292,278 -814,278 -253,0 -494,-58 -240,-57 -459,-173 z"
           transform="scale(0.015625)" />
      </defs>
      <use
         xlink:href="#DejaVuSansMono-6b"
         id="use88" />
      <use
         xlink:href="#DejaVuSansMono-35"
         x="60.205078"
         id="use89" />
    </g>
  </g>
  <g
     id="text_4"
     transform="translate(-57.252378,-126.641)">
    <!-- k6 -->
    <g
       style="fill:#545759"
       transform="matrix(0.07,0,0,-0.07,89.298727,284.43671)"
       id="g91">
      <defs
         id="defs89">
        <path
           id="DejaVuSansMono-36"
           d="m 3097,4563 v -582 q -197,116 -419,177 -222,61 -462,61 -600,0 -910,-452 -309,-451 -309,-1329 150,312 415,479 266,167 610,167 675,0 1045,-414 371,-414 371,-1173 0,-756 -382,-1172 -381,-416 -1072,-416 -812,0 -1190,583 -378,583 -378,1836 0,1181 454,1801 455,621 1318,621 231,0 462,-49 231,-48 447,-138 z M 1972,2591 q -403,0 -635,-291 -231,-291 -231,-803 0,-513 231,-804 232,-290 635,-290 419,0 631,276 213,277 213,818 0,544 -213,819 -212,275 -631,275 z"
           transform="scale(0.015625)" />
      </defs>
      <use
         xlink:href="#DejaVuSansMono-6b"
         id="use90" />
      <use
         xlink:href="#DejaVuSansMono-36"
         x="60.205078"
         id="use91" />
    </g>
  </g>
  <g
     id="text_5"
     transform="translate(-57.252378,-126.641)">
    <!-- k7 -->
    <g
       style="fill:#545759"
       transform="matrix(0.07,0,0,-0.07,158.401,259.08601)"
       id="g93">
      <defs
         id="defs91">
        <path
           id="DejaVuSansMono-37"
           d="M 434,4666 H 3372 V 4397 L 1703,0 H 1044 L 2669,4134 H 434 Z"
           transform="scale(0.015625)" />
      </defs>
      <use
         xlink:href="#DejaVuSansMono-6b"
         id="use92" />
      <use
         xlink:href="#DejaVuSansMono-37"
         x="60.205078"
         id="use93" />
    </g>
  </g>
  <g
     id="text_6"
     transform="translate(-57.252378,-126.641)">
    <!-- k1 -->
    <g
       style="fill:#545759"
       transform="matrix(0.07,0,0,-0.07,305.86153,243.47337)"
       id="g95">
      <defs
         id="defs93">
        <path
           id="DejaVuSansMono-31"
           d="m 844,531 h 981 V 4097 L 769,3859 v 575 l 1050,232 h 631 V 531 h 969 V 0 H 844 Z"
           transform="scale(0.015625)" />
      </defs>
      <use
         xlink:href="#DejaVuSansMono-6b"
         id="use94" />
      <use
         xlink:href="#DejaVuSansMono-31"
         x="60.205078"
         id="use95" />
    </g>
  </g>
  <g
     id="text_7"
     transform="translate(-57.252378,-126.641)">
    <!-- k4 -->
    <g
       style="fill:#545759"
       transform="matrix(0.07,0,0,-0.07,280.08234,291.7502)"
       id="g97">
      <defs
         id="defs95">
        <path
           id="DejaVuSansMono-34"
           d="M 2297,4091 825,1625 h 1472 z m -103,575 h 731 V 1625 h 622 V 1113 H 2925 V 0 H 2297 V 1113 H 319 v 596 z"
           transform="scale(0.015625)" />
      </defs>
      <use
         xlink:href="#DejaVuSansMono-6b"
         id="use96" />
      <use
         xlink:href="#DejaVuSansMono-34"
         x="60.205078"
         id="use97" />
    </g>
  </g>
  <g
     id="text_8"
     transform="translate(-57.252378,-126.641)">
    <!-- k0 -->
    <g
       style="fill:#545759"
       transform="matrix(0.07,0,0,-0.07,317.57127,303.24884)"
       id="g99">
      <defs
         id="defs97">
        <path
           id="DejaVuSansMono-30"
           d="m 1509,2344 q 0,172 120,297 121,125 290,125 175,0 300,-125 125,-125 125,-297 0,-175 -124,-297 -123,-122 -301,-122 -175,0 -293,119 -117,119 -117,300 z m 416,1906 q -441,0 -658,-475 -217,-475 -217,-1447 0,-969 217,-1444 217,-475 658,-475 444,0 661,475 217,475 217,1444 0,972 -217,1447 -217,475 -661,475 z m 0,500 q 747,0 1130,-613 383,-612 383,-1809 0,-1194 -383,-1807 -383,-612 -1130,-612 -747,0 -1128,612 -381,613 -381,1807 0,1197 381,1809 381,613 1128,613 z"
           transform="scale(0.015625)" />
      </defs>
      <use
         xlink:href="#DejaVuSansMono-6b"
         id="use98" />
      <use
         xlink:href="#DejaVuSansMono-30"
         x="60.205078"
         id="use99" />
    </g>
  </g>
  <g
     id="legend_1"
     transform="translate(-63.504229,-166.36804)">
    <g
       id="patch_40">
      <path
         d="M 395.8,241.75687 H 433 q 26.90156,0 26.90156,-2 0,-45.19374 -2,-45.19374 m -24.90156,0 h -37.2 q -2,0 -2,2 v 43.19374 q 0,2 2,2 v 0"
         style="fill:none;stroke:#999999;stroke-linejoin:miter;stroke-opacity:0.2"
         id="path99" />
    </g>
    <g
       id="line2d_46">
      <defs
         id="defs99">
        <path
           id="m85a6c3e847"
           d="M 0,5 C 1.326016,5 2.597899,4.473168 3.535534,3.535534 4.473168,2.597899 5,1.326016 5,0 5,-1.326016 4.473168,-2.597899 3.535534,-3.535534 2.597899,-4.473168 1.326016,-5 0,-5 -1.326016,-5 -2.597899,-4.473168 -3.535534,-3.535534 -4.473168,-2.597899 -5,-1.326016 -5,0 -5,1.326016 -4.473168,2.597899 -3.535534,3.535534 -2.597899,4.473168 -1.326016,5 0,5 Z"
           style="stroke:#4da2d2" />
      </defs>
      <g
         id="g100">
        <use
           xlink:href="#m85a6c3e847"
           x="407.79999"
           y="202.71469"
           style="fill:#56b4e9;stroke:#4da2d2"
           id="use100" />
      </g>
    </g>
    <g
       id="text_9">
      <!--  PSI0 -->
      <g
         style="fill:#545759"
         transform="matrix(0.1,0,0,-0.1,425.8,206.21469)"
         id="g105">
        <defs
           id="defs100">
          <path
             id="DejaVuSansMono-20"
             transform="scale(0.015625)"
             d="" />
          <path
             id="DejaVuSansMono-50"
             d="M 1247,4147 V 2394 h 731 q 438,0 683,231 245,231 245,647 0,416 -244,645 -243,230 -684,230 z m -631,519 h 1362 q 781,0 1184,-355 404,-355 404,-1039 0,-691 -402,-1044 -401,-353 -1186,-353 H 1247 V 0 H 616 Z"
             transform="scale(0.015625)" />
          <path
             id="DejaVuSansMono-53"
             d="m 3163,4506 v -640 q -288,184 -577,278 -289,94 -583,94 -447,0 -706,-208 -259,-208 -259,-561 0,-310 170,-473 170,-162 636,-271 l 331,-75 q 656,-153 956,-481 300,-328 300,-894 0,-666 -413,-1016 -412,-350 -1199,-350 -328,0 -660,71 -331,70 -665,211 v 672 q 359,-229 679,-335 321,-106 646,-106 478,0 743,214 266,214 266,598 0,350 -183,534 -182,185 -636,285 l -337,78 q -650,147 -944,444 -294,297 -294,797 0,625 420,1001 421,377 1118,377 269,0 565,-61 297,-61 626,-183 z"
             transform="scale(0.015625)" />
          <path
             id="DejaVuSansMono-49"
             d="M 628,4666 H 3219 V 4134 H 2241 V 531 h 978 V 0 H 628 v 531 h 978 V 4134 H 628 Z"
             transform="scale(0.015625)" />
        </defs>
        <use
           xlink:href="#DejaVuSansMono-20"
           id="use101" />
        <use
           xlink:href="#DejaVuSansMono-50"
           x="60.205078"
           id="use102" />
        <use
           xlink:href="#DejaVuSansMono-53"
           x="120.41016"
           id="use103" />
        <use
           xlink:href="#DejaVuSansMono-49"
           x="180.61523"
           id="use104" />
        <use
           xlink:href="#DejaVuSansMono-30"
           x="240.82031"
           id="use105" />
      </g>
    </g>
    <g
       id="line2d_47">
      <defs
         id="defs105">
        <path
           id="m7fe5050925"
           d="M 0,5 C 1.326016,5 2.597899,4.473168 3.535534,3.535534 4.473168,2.597899 5,1.326016 5,0 5,-1.326016 4.473168,-2.597899 3.535534,-3.535534 2.597899,-4.473168 1.326016,-5 0,-5 -1.326016,-5 -2.597899,-4.473168 -3.535534,-3.535534 -4.473168,-2.597899 -5,-1.326016 -5,0 -5,1.326016 -4.473168,2.597899 -3.535534,3.535534 -2.597899,4.473168 -1.326016,5 0,5 Z"
           style="stroke:#cf8f00" />
      </defs>
      <g
         id="g106">
        <use
           xlink:href="#m7fe5050925"
           x="407.79999"
           y="217.44594"
           style="fill:#e69f00;stroke:#cf8f00"
           id="use106" />
      </g>
    </g>
    <g
       id="text_10">
      <!--  H -->
      <g
         style="fill:#545759"
         transform="matrix(0.1,0,0,-0.1,425.8,220.94594)"
         id="g108">
        <defs
           id="defs106">
          <path
             id="DejaVuSansMono-48"
             d="m 428,4666 h 635 V 2753 h 1728 v 1913 h 634 V 0 H 2791 V 2222 H 1063 V 0 H 428 Z"
             transform="scale(0.015625)" />
        </defs>
        <use
           xlink:href="#DejaVuSansMono-20"
           id="use107" />
        <use
           xlink:href="#DejaVuSansMono-48"
           x="60.205078"
           id="use108" />
      </g>
    </g>
    <g
       id="line2d_48">
      <defs
         id="defs108">
        <path
           id="maf541e834d"
           d="M 0,5 C 1.326016,5 2.597899,4.473168 3.535534,3.535534 4.473168,2.597899 5,1.326016 5,0 5,-1.326016 4.473168,-2.597899 3.535534,-3.535534 2.597899,-4.473168 1.326016,-5 0,-5 -1.326016,-5 -2.597899,-4.473168 -3.535534,-3.535534 -4.473168,-2.597899 -5,-1.326016 -5,0 -5,1.326016 -4.473168,2.597899 -3.535534,3.535534 -2.597899,4.473168 -1.326016,5 0,5 Z"
           style="stroke:#008e68" />
      </defs>
      <g
         id="g109">
        <use
           xlink:href="#maf541e834d"
           x="407.79999"
           y="232.17719"
           style="fill:#009e73;stroke:#008e68"
           id="use109" />
      </g>
    </g>
    <g
       id="text_11">
      <!--  CX -->
      <g
         style="fill:#545759"
         transform="matrix(0.1,0,0,-0.1,425.8,235.67719)"
         id="g112">
        <defs
           id="defs109">
          <path
             id="DejaVuSansMono-43"
             d="M 3353,166 Q 3113,38 2859,-26 2606,-91 2322,-91 1425,-91 929,543 434,1178 434,2328 q 0,1144 498,1783 499,639 1390,639 284,0 537,-64 254,-64 494,-192 v -647 q -231,191 -497,291 -265,100 -534,100 -616,0 -922,-475 -306,-475 -306,-1435 0,-956 306,-1431 306,-475 922,-475 275,0 539,100 264,100 492,291 z"
             transform="scale(0.015625)" />
          <path
             id="DejaVuSansMono-58"
             d="M 269,4666 H 947 L 1972,2906 3016,4666 h 678 L 2297,2472 3794,0 H 3116 L 1972,2009 738,0 H 56 l 1563,2472 z"
             transform="scale(0.015625)" />
        </defs>
        <use
           xlink:href="#DejaVuSansMono-20"
           id="use110" />
        <use
           xlink:href="#DejaVuSansMono-43"
           x="60.205078"
           id="use111" />
        <use
           xlink:href="#DejaVuSansMono-58"
           x="120.41016"
           id="use112" />
      </g>
    </g>
  </g>
  <defs
     id="defs112">
    <clipPath
       id="pf2770eddc2">
      <rect
         x="54"
         y="124.84119"
         width="334.79999"
         height="186.6376"
         id="rect112" />
    </clipPath>
  </defs>
</svg>
