<?xml version="1.0" encoding="UTF-8" standalone="no"?>
<!-- Created with Inkscape (http://www.inkscape.org/) -->

<svg
   xmlns:dc="http://purl.org/dc/elements/1.1/"
   xmlns:cc="http://creativecommons.org/ns#"
   xmlns:rdf="http://www.w3.org/1999/02/22-rdf-syntax-ns#"
   xmlns:svg="http://www.w3.org/2000/svg"
   xmlns="http://www.w3.org/2000/svg"
   xmlns:sodipodi="http://sodipodi.sourceforge.net/DTD/sodipodi-0.dtd"
   xmlns:inkscape="http://www.inkscape.org/namespaces/inkscape"
   width="124.28033mm"
   height="61.739265mm"
   viewBox="0 0 124.28032 61.739265"
   version="1.1"
   id="svg8"
   inkscape:version="0.92.4 (5da689c313, 2019-01-14)"
   sodipodi:docname="plaquettes.svg">
  <defs
     id="defs2">
    <marker
       inkscape:stockid="Arrow2Lend"
       orient="auto"
       refY="0"
       refX="0"
       id="marker3985"
       style="overflow:visible"
       inkscape:isstock="true">
      <path
         id="path3983"
         style="fill:#000000;fill-opacity:1;fill-rule:evenodd;stroke:#000000;stroke-width:0.625;stroke-linejoin:round;stroke-opacity:1"
         d="M 8.7185878,4.0337352 -2.2072895,0.01601326 8.7185884,-4.0017078 c -1.7454984,2.3720609 -1.7354408,5.6174519 -6e-7,8.035443 z"
         transform="matrix(-1.1,0,0,-1.1,-1.1,0)"
         inkscape:connector-curvature="0" />
    </marker>
    <marker
       inkscape:stockid="Arrow2Lend"
       orient="auto"
       refY="0"
       refX="0"
       id="marker3855"
       style="overflow:visible"
       inkscape:isstock="true">
      <path
         id="path3853"
         style="fill:#000000;fill-opacity:1;fill-rule:evenodd;stroke:#000000;stroke-width:0.625;stroke-linejoin:round;stroke-opacity:1"
         d="M 8.7185878,4.0337352 -2.2072895,0.01601326 8.7185884,-4.0017078 c -1.7454984,2.3720609 -1.7354408,5.6174519 -6e-7,8.035443 z"
         transform="matrix(-1.1,0,0,-1.1,-1.1,0)"
         inkscape:connector-curvature="0" />
    </marker>
    <marker
       inkscape:stockid="Arrow2Lend"
       orient="auto"
       refY="0"
       refX="0"
       id="marker3737"
       style="overflow:visible"
       inkscape:isstock="true">
      <path
         id="path3735"
         style="fill:#000000;fill-opacity:1;fill-rule:evenodd;stroke:#000000;stroke-width:0.625;stroke-linejoin:round;stroke-opacity:1"
         d="M 8.7185878,4.0337352 -2.2072895,0.01601326 8.7185884,-4.0017078 c -1.7454984,2.3720609 -1.7354408,5.6174519 -6e-7,8.035443 z"
         transform="matrix(-1.1,0,0,-1.1,-1.1,0)"
         inkscape:connector-curvature="0" />
    </marker>
    <marker
       inkscape:stockid="Arrow2Lend"
       orient="auto"
       refY="0"
       refX="0"
       id="marker3625"
       style="overflow:visible"
       inkscape:isstock="true">
      <path
         id="path3623"
         style="fill:#000000;fill-opacity:1;fill-rule:evenodd;stroke:#000000;stroke-width:0.625;stroke-linejoin:round;stroke-opacity:1"
         d="M 8.7185878,4.0337352 -2.2072895,0.01601326 8.7185884,-4.0017078 c -1.7454984,2.3720609 -1.7354408,5.6174519 -6e-7,8.035443 z"
         transform="matrix(-1.1,0,0,-1.1,-1.1,0)"
         inkscape:connector-curvature="0" />
    </marker>
    <marker
       inkscape:stockid="Arrow2Lend"
       orient="auto"
       refY="0"
       refX="0"
       id="marker3477"
       style="overflow:visible"
       inkscape:isstock="true">
      <path
         id="path3475"
         style="fill:#000000;fill-opacity:1;fill-rule:evenodd;stroke:#000000;stroke-width:0.625;stroke-linejoin:round;stroke-opacity:1"
         d="M 8.7185878,4.0337352 -2.2072895,0.01601326 8.7185884,-4.0017078 c -1.7454984,2.3720609 -1.7354408,5.6174519 -6e-7,8.035443 z"
         transform="matrix(-1.1,0,0,-1.1,-1.1,0)"
         inkscape:connector-curvature="0" />
    </marker>
    <marker
       inkscape:isstock="true"
       style="overflow:visible"
       id="marker3361"
       refX="0"
       refY="0"
       orient="auto"
       inkscape:stockid="Arrow2Lend"
       inkscape:collect="always">
      <path
         transform="matrix(-1.1,0,0,-1.1,-1.1,0)"
         d="M 8.7185878,4.0337352 -2.2072895,0.01601326 8.7185884,-4.0017078 c -1.7454984,2.3720609 -1.7354408,5.6174519 -6e-7,8.035443 z"
         style="fill:#000000;fill-opacity:1;fill-rule:evenodd;stroke:#000000;stroke-width:0.625;stroke-linejoin:round;stroke-opacity:1"
         id="path3359"
         inkscape:connector-curvature="0" />
    </marker>
    <marker
       inkscape:stockid="Arrow2Lend"
       orient="auto"
       refY="0"
       refX="0"
       id="marker2699"
       style="overflow:visible"
       inkscape:isstock="true"
       inkscape:collect="always">
      <path
         id="path2697"
         style="fill:#000000;fill-opacity:1;fill-rule:evenodd;stroke:#000000;stroke-width:0.625;stroke-linejoin:round;stroke-opacity:1"
         d="M 8.7185878,4.0337352 -2.2072895,0.01601326 8.7185884,-4.0017078 c -1.7454984,2.3720609 -1.7354408,5.6174519 -6e-7,8.035443 z"
         transform="matrix(-1.1,0,0,-1.1,-1.1,0)"
         inkscape:connector-curvature="0" />
    </marker>
    <marker
       inkscape:stockid="Arrow2Lend"
       orient="auto"
       refY="0"
       refX="0"
       id="marker2617"
       style="overflow:visible"
       inkscape:isstock="true">
      <path
         id="path2615"
         style="fill:#000000;fill-opacity:1;fill-rule:evenodd;stroke:#000000;stroke-width:0.625;stroke-linejoin:round;stroke-opacity:1"
         d="M 8.7185878,4.0337352 -2.2072895,0.01601326 8.7185884,-4.0017078 c -1.7454984,2.3720609 -1.7354408,5.6174519 -6e-7,8.035443 z"
         transform="matrix(-1.1,0,0,-1.1,-1.1,0)"
         inkscape:connector-curvature="0" />
    </marker>
    <marker
       inkscape:isstock="true"
       style="overflow:visible"
       id="marker2085"
       refX="0"
       refY="0"
       orient="auto"
       inkscape:stockid="Arrow2Lend"
       inkscape:collect="always">
      <path
         transform="matrix(-1.1,0,0,-1.1,-1.1,0)"
         d="M 8.7185878,4.0337352 -2.2072895,0.01601326 8.7185884,-4.0017078 c -1.7454984,2.3720609 -1.7354408,5.6174519 -6e-7,8.035443 z"
         style="fill:#000000;fill-opacity:1;fill-rule:evenodd;stroke:#000000;stroke-width:0.625;stroke-linejoin:round;stroke-opacity:1"
         id="path2083"
         inkscape:connector-curvature="0" />
    </marker>
    <marker
       inkscape:stockid="Arrow2Lstart"
       orient="auto"
       refY="0"
       refX="0"
       id="marker1905"
       style="overflow:visible"
       inkscape:isstock="true">
      <path
         id="path1903"
         style="fill:#000000;fill-opacity:1;fill-rule:evenodd;stroke:#000000;stroke-width:0.625;stroke-linejoin:round;stroke-opacity:1"
         d="M 8.7185878,4.0337352 -2.2072895,0.01601326 8.7185884,-4.0017078 c -1.7454984,2.3720609 -1.7354408,5.6174519 -6e-7,8.035443 z"
         transform="matrix(1.1,0,0,1.1,1.1,0)"
         inkscape:connector-curvature="0" />
    </marker>
    <marker
       inkscape:stockid="Arrow1Lstart"
       orient="auto"
       refY="0"
       refX="0"
       id="marker1517"
       style="overflow:visible"
       inkscape:isstock="true">
      <path
         id="path1515"
         d="M 0,0 5,-5 -12.5,0 5,5 Z"
         style="fill:#000000;fill-opacity:1;fill-rule:evenodd;stroke:#000000;stroke-width:1.00000003pt;stroke-opacity:1"
         transform="matrix(0.8,0,0,0.8,10,0)"
         inkscape:connector-curvature="0" />
    </marker>
    <marker
       inkscape:stockid="Tail"
       orient="auto"
       refY="0"
       refX="0"
       id="Tail"
       style="overflow:visible"
       inkscape:isstock="true">
      <g
         id="g867"
         transform="scale(-1.2)"
         style="fill:#000000;fill-opacity:1;stroke:#000000;stroke-opacity:1">
        <path
           id="path855"
           d="M -3.8048674,-3.9585227 0.54352094,0"
           style="fill:#000000;fill-opacity:1;fill-rule:evenodd;stroke:#000000;stroke-width:0.80000001;stroke-linecap:round;stroke-opacity:1"
           inkscape:connector-curvature="0" />
        <path
           id="path857"
           d="M -1.2866832,-3.9585227 3.0617053,0"
           style="fill:#000000;fill-opacity:1;fill-rule:evenodd;stroke:#000000;stroke-width:0.80000001;stroke-linecap:round;stroke-opacity:1"
           inkscape:connector-curvature="0" />
        <path
           id="path859"
           d="M 1.3053582,-3.9585227 5.6537466,0"
           style="fill:#000000;fill-opacity:1;fill-rule:evenodd;stroke:#000000;stroke-width:0.80000001;stroke-linecap:round;stroke-opacity:1"
           inkscape:connector-curvature="0" />
        <path
           id="path861"
           d="M -3.8048674,4.1775838 0.54352094,0.21974226"
           style="fill:#000000;fill-opacity:1;fill-rule:evenodd;stroke:#000000;stroke-width:0.80000001;stroke-linecap:round;stroke-opacity:1"
           inkscape:connector-curvature="0" />
        <path
           id="path863"
           d="M -1.2866832,4.1775838 3.0617053,0.21974226"
           style="fill:#000000;fill-opacity:1;fill-rule:evenodd;stroke:#000000;stroke-width:0.80000001;stroke-linecap:round;stroke-opacity:1"
           inkscape:connector-curvature="0" />
        <path
           id="path865"
           d="M 1.3053582,4.1775838 5.6537466,0.21974226"
           style="fill:#000000;fill-opacity:1;fill-rule:evenodd;stroke:#000000;stroke-width:0.80000001;stroke-linecap:round;stroke-opacity:1"
           inkscape:connector-curvature="0" />
      </g>
    </marker>
    <marker
       inkscape:stockid="Arrow2Lstart"
       orient="auto"
       refY="0"
       refX="0"
       id="Arrow2Lstart"
       style="overflow:visible"
       inkscape:isstock="true">
      <path
         id="path837"
         style="fill:#000000;fill-opacity:1;fill-rule:evenodd;stroke:#000000;stroke-width:0.625;stroke-linejoin:round;stroke-opacity:1"
         d="M 8.7185878,4.0337352 -2.2072895,0.01601326 8.7185884,-4.0017078 c -1.7454984,2.3720609 -1.7354408,5.6174519 -6e-7,8.035443 z"
         transform="matrix(1.1,0,0,1.1,1.1,0)"
         inkscape:connector-curvature="0" />
    </marker>
    <marker
       inkscape:stockid="Arrow1Lstart"
       orient="auto"
       refY="0"
       refX="0"
       id="Arrow1Lstart"
       style="overflow:visible"
       inkscape:isstock="true">
      <path
         id="path819"
         d="M 0,0 5,-5 -12.5,0 5,5 Z"
         style="fill:#000000;fill-opacity:1;fill-rule:evenodd;stroke:#000000;stroke-width:1.00000003pt;stroke-opacity:1"
         transform="matrix(0.8,0,0,0.8,10,0)"
         inkscape:connector-curvature="0" />
    </marker>
    <marker
       inkscape:stockid="Arrow1Lend"
       orient="auto"
       refY="0"
       refX="0"
       id="Arrow1Lend"
       style="overflow:visible"
       inkscape:isstock="true">
      <path
         id="path822"
         d="M 0,0 5,-5 -12.5,0 5,5 Z"
         style="fill:#000000;fill-opacity:1;fill-rule:evenodd;stroke:#000000;stroke-width:1.00000003pt;stroke-opacity:1"
         transform="matrix(-0.8,0,0,-0.8,-10,0)"
         inkscape:connector-curvature="0" />
    </marker>
    <marker
       inkscape:stockid="Arrow2Lend"
       orient="auto"
       refY="0"
       refX="0"
       id="Arrow2Lend"
       style="overflow:visible"
       inkscape:isstock="true">
      <path
         id="path840"
         style="fill:#000000;fill-opacity:1;fill-rule:evenodd;stroke:#000000;stroke-width:0.625;stroke-linejoin:round;stroke-opacity:1"
         d="M 8.7185878,4.0337352 -2.2072895,0.01601326 8.7185884,-4.0017078 c -1.7454984,2.3720609 -1.7354408,5.6174519 -6e-7,8.035443 z"
         transform="matrix(-1.1,0,0,-1.1,-1.1,0)"
         inkscape:connector-curvature="0" />
    </marker>
  </defs>
  <sodipodi:namedview
     id="base"
     pagecolor="#ffffff"
     bordercolor="#666666"
     borderopacity="1.0"
     inkscape:pageopacity="0.0"
     inkscape:pageshadow="2"
     inkscape:zoom="0.98994949"
     inkscape:cx="249.3399"
     inkscape:cy="39.04443"
     inkscape:document-units="mm"
     inkscape:current-layer="g2486"
     showgrid="false"
     inkscape:snap-midpoints="true"
     inkscape:snap-smooth-nodes="false"
     inkscape:snap-object-midpoints="true"
     inkscape:window-width="1366"
     inkscape:window-height="739"
     inkscape:window-x="0"
     inkscape:window-y="0"
     inkscape:window-maximized="1"
     inkscape:object-paths="false"
     inkscape:snap-intersection-paths="true"
     inkscape:snap-global="true" />
  <metadata
     id="metadata5">
    <rdf:RDF>
      <cc:Work
         rdf:about="">
        <dc:format>image/svg+xml</dc:format>
        <dc:type
           rdf:resource="http://purl.org/dc/dcmitype/StillImage" />
        <dc:title />
      </cc:Work>
    </rdf:RDF>
  </metadata>
  <g
     inkscape:label="Layer 1"
     inkscape:groupmode="layer"
     id="layer1"
     transform="translate(-18.132519,-5.0433636)">
    <g
       id="g2486"
       style="stroke-width:0.40000001;stroke-miterlimit:4;stroke-dasharray:none">
      <rect
         style="opacity:1;vector-effect:none;fill:#ffffff;fill-opacity:1;fill-rule:evenodd;stroke:none;stroke-width:0.27501631;stroke-linecap:round;stroke-linejoin:round;stroke-miterlimit:4;stroke-dasharray:none;stroke-dashoffset:0;stroke-opacity:1;paint-order:normal"
         id="rect1108"
         width="140.22678"
         height="61.739265"
         x="9.8471632"
         y="5.0433636" />
      <g
         id="g2601"
         transform="translate(-0.8018086,8.0180859)">
        <path
           style="fill:none;stroke:#000000;stroke-width:0.40000001;stroke-linecap:butt;stroke-linejoin:miter;stroke-miterlimit:4;stroke-dasharray:none;stroke-opacity:1;marker-mid:url(#marker2699)"
           d="m 23.324957,44.828024 19.923301,0.01057 19.9233,0.01057"
           inkscape:connector-curvature="0"
           id="path1121"
           sodipodi:nodetypes="ccc" />
        <path
           style="fill:none;stroke:#000000;stroke-width:0.40000001;stroke-linecap:butt;stroke-linejoin:miter;stroke-miterlimit:4;stroke-dasharray:none;stroke-opacity:1;marker-mid:url(#marker2085)"
           d="M 63.171558,44.319997 53.219063,27.060629 43.266567,9.8012603"
           id="path2081"
           inkscape:connector-curvature="0" />
        <path
           style="opacity:1;vector-effect:none;fill:#ffffff;fill-opacity:1;fill-rule:evenodd;stroke:#000000;stroke-width:0.41100001;stroke-linecap:round;stroke-linejoin:round;stroke-miterlimit:4;stroke-dasharray:none;stroke-dashoffset:0;stroke-opacity:1;paint-order:normal"
           id="path2827-80-3"
           sodipodi:type="arc"
           sodipodi:cx="43.254646"
           sodipodi:cy="33.337986"
           sodipodi:rx="0.97787011"
           sodipodi:ry="0.97787011"
           sodipodi:start="4.8508459"
           sodipodi:end="4.8487341"
           sodipodi:open="true"
           d="m 43.389607,32.369474 a 0.97787011,0.97787011 0 0 1 0.833622,1.102961 0.97787011,0.97787011 0 0 1 -1.102521,0.834205 0.97787011,0.97787011 0 0 1 -0.834786,-1.102081 0.97787011,0.97787011 0 0 1 1.101639,-0.835368" />
        <path
           style="opacity:1;vector-effect:none;fill:#000000;fill-opacity:1;fill-rule:evenodd;stroke:#000000;stroke-width:0.41100001;stroke-linecap:round;stroke-linejoin:round;stroke-miterlimit:4;stroke-dasharray:none;stroke-dashoffset:0;stroke-opacity:1;paint-order:normal"
           id="path2827-9"
           sodipodi:type="arc"
           sodipodi:cx="23.324959"
           sodipodi:cy="44.828026"
           sodipodi:rx="0.97787011"
           sodipodi:ry="0.97787011"
           sodipodi:start="4.8508459"
           sodipodi:end="4.8487341"
           sodipodi:open="true"
           d="m 23.45992,43.859514 a 0.97787011,0.97787011 0 0 1 0.833622,1.102961 0.97787011,0.97787011 0 0 1 -1.102521,0.834205 0.97787011,0.97787011 0 0 1 -0.834787,-1.102081 0.97787011,0.97787011 0 0 1 1.10164,-0.835368" />
        <path
           style="opacity:1;vector-effect:none;fill:#000000;fill-opacity:1;fill-rule:evenodd;stroke:#000000;stroke-width:0.41100001;stroke-linecap:round;stroke-linejoin:round;stroke-miterlimit:4;stroke-dasharray:none;stroke-dashoffset:0;stroke-opacity:1;paint-order:normal"
           id="path2827-35"
           sodipodi:type="arc"
           sodipodi:cx="43.266567"
           sodipodi:cy="10.330427"
           sodipodi:rx="0.97787011"
           sodipodi:ry="0.97787011"
           sodipodi:start="4.8508459"
           sodipodi:end="4.8487341"
           sodipodi:open="true"
           d="m 43.401528,9.3619151 a 0.97787011,0.97787011 0 0 1 0.833622,1.1029619 0.97787011,0.97787011 0 0 1 -1.102521,0.834204 0.97787011,0.97787011 0 0 1 -0.834786,-1.10208 0.97787011,0.97787011 0 0 1 1.101639,-0.8353687" />
        <path
           style="opacity:1;vector-effect:none;fill:#000000;fill-opacity:1;fill-rule:evenodd;stroke:#000000;stroke-width:0.41100001;stroke-linecap:round;stroke-linejoin:round;stroke-miterlimit:4;stroke-dasharray:none;stroke-dashoffset:0;stroke-opacity:1;paint-order:normal"
           id="path2827-1"
           sodipodi:type="arc"
           sodipodi:cx="63.171562"
           sodipodi:cy="44.32"
           sodipodi:rx="0.97787011"
           sodipodi:ry="0.97787011"
           sodipodi:start="4.8508459"
           sodipodi:end="4.8487341"
           sodipodi:open="true"
           d="m 63.306523,43.351488 a 0.97787011,0.97787011 0 0 1 0.833622,1.102961 0.97787011,0.97787011 0 0 1 -1.102521,0.834205 0.97787011,0.97787011 0 0 1 -0.834786,-1.102081 0.97787011,0.97787011 0 0 1 1.101639,-0.835368" />
        <path
           style="fill:none;stroke:#000000;stroke-width:0.40000001;stroke-linecap:butt;stroke-linejoin:miter;stroke-miterlimit:4;stroke-dasharray:none;stroke-opacity:1;marker-mid:url(#marker2617)"
           d="M 43.266567,10.330427 33.295762,27.579226 23.324957,44.828025"
           id="path1729"
           inkscape:connector-curvature="0" />
      </g>
      <g
         id="g2874"
         transform="matrix(0.59125252,0,0,0.59125252,36.423583,7.2945736)">
        <g
           id="g4221">
          <path
             inkscape:connector-curvature="0"
             id="path3621"
             d="m 115.67488,24.985936 -6.77528,11.759607 -6.77528,11.759598"
             style="fill:none;stroke:#000000;stroke-width:0.63424677;stroke-linecap:butt;stroke-linejoin:miter;stroke-miterlimit:4;stroke-dasharray:none;stroke-opacity:1;marker-mid:url(#marker3737)" />
          <path
             inkscape:connector-curvature="0"
             id="path3619"
             d="m 102.12432,48.505141 6.79648,11.74737 6.79648,11.747371"
             style="fill:none;stroke:#000000;stroke-width:0.63424677;stroke-linecap:butt;stroke-linejoin:miter;stroke-miterlimit:4;stroke-dasharray:none;stroke-opacity:1;marker-mid:url(#marker3855)" />
          <path
             inkscape:connector-curvature="0"
             id="path3617"
             d="m 115.71728,71.999882 13.57176,-0.01224 13.57176,-0.01223"
             style="fill:none;stroke:#000000;stroke-width:0.63424677;stroke-linecap:butt;stroke-linejoin:miter;stroke-miterlimit:4;stroke-dasharray:none;stroke-opacity:1;marker-mid:url(#marker3985)" />
          <path
             inkscape:connector-curvature="0"
             id="path3615"
             d="m 142.8608,71.975412 6.77529,-11.759619 6.77528,-11.75962"
             style="fill:none;stroke:#000000;stroke-width:0.63424677;stroke-linecap:butt;stroke-linejoin:miter;stroke-miterlimit:4;stroke-dasharray:none;stroke-opacity:1;marker-mid:url(#marker3361)" />
          <path
             inkscape:connector-curvature="0"
             id="path3461"
             d="M 156.41137,48.456173 149.61489,36.708804 142.81841,24.961436"
             style="fill:none;stroke:#000000;stroke-width:0.63424677;stroke-linecap:butt;stroke-linejoin:miter;stroke-miterlimit:4;stroke-dasharray:none;stroke-opacity:1;marker-mid:url(#marker3625)" />
          <path
             inkscape:connector-curvature="0"
             id="path2820"
             d="m 142.81841,24.961436 -13.57177,0.01225 -13.57176,0.01225"
             style="fill:none;stroke:#000000;stroke-width:0.63424677;stroke-linecap:butt;stroke-linejoin:miter;stroke-miterlimit:4;stroke-dasharray:none;stroke-opacity:1;marker-mid:url(#marker3477)" />
        </g>
        <g
           id="g2964"
           style="fill:none;stroke-width:0.16913247;stroke-miterlimit:4;stroke-dasharray:none">
          <path
             inkscape:connector-curvature="0"
             id="path2812"
             d="M 88.531355,25.010395 170.00435,71.950912"
             style="fill:none;stroke:#363636;stroke-width:0.33826494;stroke-linecap:butt;stroke-linejoin:miter;stroke-miterlimit:4;stroke-dasharray:none;stroke-opacity:1" />
          <path
             inkscape:connector-curvature="0"
             id="path2814"
             d="M 169.96194,24.936939 88.573765,72.024366"
             style="fill:none;stroke:#363636;stroke-width:0.33826494;stroke-linecap:butt;stroke-linejoin:miter;stroke-miterlimit:4;stroke-dasharray:none;stroke-opacity:1" />
          <path
             sodipodi:type="star"
             style="opacity:1;vector-effect:none;fill:none;fill-opacity:0.97959182;fill-rule:evenodd;stroke:#363636;stroke-width:0.33826494;stroke-linecap:butt;stroke-linejoin:bevel;stroke-miterlimit:4;stroke-dasharray:none;stroke-dashoffset:0;stroke-opacity:1;paint-order:normal"
             id="path2810"
             sodipodi:sides="6"
             sodipodi:cx="107.9122"
             sodipodi:cy="18.620535"
             sodipodi:r1="47.013992"
             sodipodi:r2="40.715309"
             sodipodi:arg1="0.49421363"
             sodipodi:arg2="1.0178124"
             inkscape:flatsided="true"
             inkscape:rounded="0"
             inkscape:randomized="0"
             d="M 149.30059,40.92113 109.29352,65.614231 67.905124,43.313636 66.523809,-3.6800598 106.53089,-28.373161 147.91928,-6.0725662 Z"
             inkscape:transform-center-x="1.3569625e-06"
             transform="rotate(1.6319605,-929.68481,783.26614)" />
          <path
             inkscape:connector-curvature="0"
             id="path2822"
             d="m 129.31026,95.494625 c -0.0636,-70.520944 -0.0848,-94.0279442 -0.0848,-94.0279442"
             style="fill:none;stroke:#363636;stroke-width:0.33826494;stroke-linecap:butt;stroke-linejoin:miter;stroke-miterlimit:4;stroke-dasharray:none;stroke-opacity:1" />
        </g>
        <g
           id="g2959">
          <path
             style="opacity:1;vector-effect:none;fill:#ffffff;fill-opacity:1;fill-rule:evenodd;stroke:#000000;stroke-width:0.69513446;stroke-linecap:round;stroke-linejoin:round;stroke-miterlimit:4;stroke-dasharray:none;stroke-dashoffset:0;stroke-opacity:1;paint-order:normal"
             id="path2827-0"
             sodipodi:type="arc"
             sodipodi:cx="142.81841"
             sodipodi:cy="24.961435"
             sodipodi:rx="1.6538959"
             sodipodi:ry="1.6538959"
             sodipodi:start="4.8508459"
             sodipodi:end="4.8487341"
             sodipodi:open="true"
             d="m 143.04667,23.323367 a 1.6538959,1.6538959 0 0 1 1.40992,1.865466 1.6538959,1.6538959 0 0 1 -1.86472,1.410911 1.6538959,1.6538959 0 0 1 -1.41189,-1.863976 1.6538959,1.6538959 0 0 1 1.86323,-1.412879" />
          <path
             style="opacity:1;vector-effect:none;fill:#ffffff;fill-opacity:1;fill-rule:evenodd;stroke:#000000;stroke-width:0.69513446;stroke-linecap:round;stroke-linejoin:round;stroke-miterlimit:4;stroke-dasharray:none;stroke-dashoffset:0;stroke-opacity:1;paint-order:normal"
             id="path2827-2"
             sodipodi:type="arc"
             sodipodi:cx="156.41138"
             sodipodi:cy="48.456173"
             sodipodi:rx="1.6538959"
             sodipodi:ry="1.6538959"
             sodipodi:start="4.8508459"
             sodipodi:end="4.8487341"
             sodipodi:open="true"
             d="m 156.63964,46.818105 a 1.6538959,1.6538959 0 0 1 1.40993,1.865465 1.6538959,1.6538959 0 0 1 -1.86473,1.410911 1.6538959,1.6538959 0 0 1 -1.41189,-1.863976 1.6538959,1.6538959 0 0 1 1.86323,-1.412879" />
          <path
             style="opacity:1;vector-effect:none;fill:#ffffff;fill-opacity:1;fill-rule:evenodd;stroke:#000000;stroke-width:0.69513446;stroke-linecap:round;stroke-linejoin:round;stroke-miterlimit:4;stroke-dasharray:none;stroke-dashoffset:0;stroke-opacity:1;paint-order:normal"
             id="path2827-8"
             sodipodi:type="arc"
             sodipodi:cx="142.86079"
             sodipodi:cy="71.97541"
             sodipodi:rx="1.6538959"
             sodipodi:ry="1.6538959"
             sodipodi:start="4.8508459"
             sodipodi:end="4.8487341"
             sodipodi:open="true"
             d="m 143.08906,70.337342 a 1.6538959,1.6538959 0 0 1 1.40992,1.865466 1.6538959,1.6538959 0 0 1 -1.86472,1.410911 1.6538959,1.6538959 0 0 1 -1.41189,-1.863976 1.6538959,1.6538959 0 0 1 1.86323,-1.412879" />
          <path
             style="opacity:1;vector-effect:none;fill:#ffffff;fill-opacity:1;fill-rule:evenodd;stroke:#000000;stroke-width:0.69513446;stroke-linecap:round;stroke-linejoin:round;stroke-miterlimit:4;stroke-dasharray:none;stroke-dashoffset:0;stroke-opacity:1;paint-order:normal"
             id="path2827-3"
             sodipodi:type="arc"
             sodipodi:cx="115.71728"
             sodipodi:cy="71.999886"
             sodipodi:rx="1.6538959"
             sodipodi:ry="1.6538959"
             sodipodi:start="4.8508459"
             sodipodi:end="4.8487341"
             sodipodi:open="true"
             d="m 115.94554,70.361817 a 1.6538959,1.6538959 0 0 1 1.40993,1.865466 1.6538959,1.6538959 0 0 1 -1.86473,1.410911 1.6538959,1.6538959 0 0 1 -1.41189,-1.863976 1.6538959,1.6538959 0 0 1 1.86323,-1.412879" />
          <path
             style="opacity:1;vector-effect:none;fill:#ffffff;fill-opacity:1;fill-rule:evenodd;stroke:#000000;stroke-width:0.69513446;stroke-linecap:round;stroke-linejoin:round;stroke-miterlimit:4;stroke-dasharray:none;stroke-dashoffset:0;stroke-opacity:1;paint-order:normal"
             id="path2827"
             sodipodi:type="arc"
             sodipodi:cx="115.67488"
             sodipodi:cy="24.985926"
             sodipodi:rx="1.6538959"
             sodipodi:ry="1.6538959"
             sodipodi:start="4.8508459"
             sodipodi:end="4.8487341"
             sodipodi:open="true"
             d="m 115.90314,23.347857 a 1.6538959,1.6538959 0 0 1 1.40993,1.865466 1.6538959,1.6538959 0 0 1 -1.86472,1.410911 1.6538959,1.6538959 0 0 1 -1.4119,-1.863976 1.6538959,1.6538959 0 0 1 1.86323,-1.412879" />
          <path
             style="opacity:1;vector-effect:none;fill:#ffffff;fill-opacity:1;fill-rule:evenodd;stroke:#000000;stroke-width:0.69513446;stroke-linecap:round;stroke-linejoin:round;stroke-miterlimit:4;stroke-dasharray:none;stroke-dashoffset:0;stroke-opacity:1;paint-order:normal"
             id="path2827-80"
             sodipodi:type="arc"
             sodipodi:cx="102.12432"
             sodipodi:cy="48.505142"
             sodipodi:rx="1.6538959"
             sodipodi:ry="1.6538959"
             sodipodi:start="4.8508459"
             sodipodi:end="4.8487341"
             sodipodi:open="true"
             d="m 102.35258,46.867074 a 1.6538959,1.6538959 0 0 1 1.40993,1.865466 1.6538959,1.6538959 0 0 1 -1.86472,1.410911 1.6538959,1.6538959 0 0 1 -1.4119,-1.863976 1.6538959,1.6538959 0 0 1 1.86323,-1.412879" />
        </g>
        <path
           style="opacity:1;vector-effect:none;fill:#000000;fill-opacity:1;fill-rule:evenodd;stroke:#000000;stroke-width:0.69513446;stroke-linecap:round;stroke-linejoin:round;stroke-miterlimit:4;stroke-dasharray:none;stroke-dashoffset:0;stroke-opacity:1;paint-order:normal"
           id="path2827-1-8"
           sodipodi:type="arc"
           sodipodi:cx="129.26785"
           sodipodi:cy="48.480659"
           sodipodi:rx="1.6538959"
           sodipodi:ry="1.6538959"
           sodipodi:start="4.8508459"
           sodipodi:end="4.8487341"
           sodipodi:open="true"
           d="m 129.49612,46.842591 a 1.6538959,1.6538959 0 0 1 1.40992,1.865466 1.6538959,1.6538959 0 0 1 -1.86472,1.410911 1.6538959,1.6538959 0 0 1 -1.4119,-1.863976 1.6538959,1.6538959 0 0 1 1.86324,-1.412879" />
      </g>
    </g>
  </g>
</svg>
