<?xml version="1.0" encoding="UTF-8" standalone="no"?>
<!-- Created with Inkscape (http://www.inkscape.org/) -->

<svg
   version="1.1"
   id="svg2"
   width="604.375"
   height="427.181"
   viewBox="0 0 604.375 427.181"
   sodipodi:docname="n3lo.svg"
   inkscape:version="1.2.2 (b0a8486541, 2022-12-01)"
   xmlns:inkscape="http://www.inkscape.org/namespaces/inkscape"
   xmlns:sodipodi="http://sodipodi.sourceforge.net/DTD/sodipodi-0.dtd"
   xmlns="http://www.w3.org/2000/svg"
   xmlns:svg="http://www.w3.org/2000/svg">
  <defs
     id="defs6">
    <clipPath
       clipPathUnits="userSpaceOnUse"
       id="clipPath22">
      <path
         d="m 55.48125,41.48125 h 390.6 v 238.392 h -390.6 z"
         id="path20" />
    </clipPath>
    <clipPath
       clipPathUnits="userSpaceOnUse"
       id="clipPath32">
      <path
         d="m 55.48125,41.48125 h 390.6 v 238.392 h -390.6 z"
         id="path30" />
    </clipPath>
    <pattern
       patternTransform="translate(0,320.38575)"
       patternUnits="userSpaceOnUse"
       x="0"
       y="0"
       width="72"
       height="72"
       id="pattern36">
      <path
         d="m -36,36 72,72 M -24,24 48,96 M -12,12 60,84 M 0,0 72,72 M 12,-12 84,60 M 24,-24 96,48 m -60,-84 72,72"
         style="fill:#000000;fill-opacity:1;fill-rule:nonzero;stroke:#66c2a5;stroke-opacity:1;stroke-width:1;stroke-linecap:butt;stroke-linejoin:miter;stroke-miterlimit:10;stroke-dasharray:none"
         id="path34" />
    </pattern>
    <clipPath
       clipPathUnits="userSpaceOnUse"
       id="clipPath46">
      <path
         d="m 55.48125,41.48125 h 390.6 v 238.392 h -390.6 z"
         id="path44" />
    </clipPath>
    <clipPath
       clipPathUnits="userSpaceOnUse"
       id="clipPath56">
      <path
         d="m 55.48125,41.48125 h 390.6 v 238.392 h -390.6 z"
         id="path54" />
    </clipPath>
    <pattern
       patternTransform="translate(0,320.38575)"
       patternUnits="userSpaceOnUse"
       x="0"
       y="0"
       width="72"
       height="72"
       id="pattern60">
      <path
         d="M -36,36 36,-36 M -24,48 48,-24 M -12,60 60,-12 M 0,72 72,0 M 12,84 84,12 M 24,96 96,24 m -60,84 72,-72"
         style="fill:#000000;fill-opacity:1;fill-rule:nonzero;stroke:#fc8d62;stroke-opacity:1;stroke-width:1;stroke-linecap:butt;stroke-linejoin:miter;stroke-miterlimit:10;stroke-dasharray:none"
         id="path58" />
    </pattern>
    <clipPath
       clipPathUnits="userSpaceOnUse"
       id="clipPath206">
      <path
         d="m 55.48125,41.48125 h 390.6 v 238.392 h -390.6 z"
         id="path204" />
    </clipPath>
    <clipPath
       clipPathUnits="userSpaceOnUse"
       id="clipPath216">
      <path
         d="m 55.48125,41.48125 h 390.6 v 238.392 h -390.6 z"
         id="path214" />
    </clipPath>
    <clipPath
       clipPathUnits="userSpaceOnUse"
       id="clipPath226">
      <path
         d="m 55.48125,41.48125 h 390.6 v 238.392 h -390.6 z"
         id="path224" />
    </clipPath>
    <clipPath
       clipPathUnits="userSpaceOnUse"
       id="clipPath236">
      <path
         d="m 55.48125,41.48125 h 390.6 v 238.392 h -390.6 z"
         id="path234" />
    </clipPath>
    <clipPath
       clipPathUnits="userSpaceOnUse"
       id="clipPath246">
      <path
         d="m 55.48125,41.48125 h 390.6 v 238.392 h -390.6 z"
         id="path244" />
    </clipPath>
    <clipPath
       clipPathUnits="userSpaceOnUse"
       id="clipPath256">
      <path
         d="m 55.48125,41.48125 h 390.6 v 238.392 h -390.6 z"
         id="path254" />
    </clipPath>
    <clipPath
       clipPathUnits="userSpaceOnUse"
       id="clipPath288">
      <path
         d="M -1021,-463 H 1794 V 1233 H -1021 Z"
         id="path286" />
    </clipPath>
    <pattern
       patternTransform="translate(-203.28125,18.2)"
       patternUnits="userSpaceOnUse"
       x="0"
       y="0"
       width="72"
       height="72"
       id="pattern304">
      <path
         d="M 0,0 72,0 72,72 0,72 0,0 Z"
         style="fill:#66c2a5;fill-opacity:1;fill-rule:nonzero;stroke:none"
         id="path300" />
      <path
         d="m -36,36 72,72 M -24,24 48,96 M -12,12 60,84 M 0,0 72,72 M 12,-12 84,60 M 24,-24 96,48 m -60,-84 72,72"
         style="fill:#66c2a5;fill-opacity:1;fill-rule:nonzero;stroke:#000000;stroke-opacity:1;stroke-width:1;stroke-linecap:butt;stroke-linejoin:miter;stroke-miterlimit:10;stroke-dasharray:none"
         id="path302" />
    </pattern>
    <clipPath
       clipPathUnits="userSpaceOnUse"
       id="clipPath322">
      <path
         d="M -1021,-463 H 1794 V 1233 H -1021 Z"
         id="path320" />
    </clipPath>
    <pattern
       patternTransform="translate(-203.28125,18.2)"
       patternUnits="userSpaceOnUse"
       x="0"
       y="0"
       width="72"
       height="72"
       id="pattern332">
      <path
         d="M 0,0 72,0 72,72 0,72 0,0 Z"
         style="fill:#fc8d62;fill-opacity:1;fill-rule:nonzero;stroke:none"
         id="path328" />
      <path
         d="M -36,36 36,-36 M -24,48 48,-24 M -12,60 60,-12 M 0,72 72,0 M 12,84 84,12 M 24,96 96,24 m -60,84 72,-72"
         style="fill:#fc8d62;fill-opacity:1;fill-rule:nonzero;stroke:#000000;stroke-opacity:1;stroke-width:1;stroke-linecap:butt;stroke-linejoin:miter;stroke-miterlimit:10;stroke-dasharray:none"
         id="path330" />
    </pattern>
    <clipPath
       clipPathUnits="userSpaceOnUse"
       id="clipPath350">
      <path
         d="M -1021,-463 H 1794 V 1233 H -1021 Z"
         id="path348" />
    </clipPath>
  </defs>
  <sodipodi:namedview
     id="namedview4"
     pagecolor="#ffffff"
     bordercolor="#666666"
     borderopacity="1.0"
     inkscape:showpageshadow="2"
     inkscape:pageopacity="0.0"
     inkscape:pagecheckerboard="0"
     inkscape:deskcolor="#d1d1d1"
     showgrid="false"
     inkscape:zoom="1.8469923"
     inkscape:cx="302.1128"
     inkscape:cy="213.31979"
     inkscape:window-width="1920"
     inkscape:window-height="1020"
     inkscape:window-x="0"
     inkscape:window-y="0"
     inkscape:window-maximized="1"
     inkscape:current-layer="g10">
    <inkscape:page
       x="0"
       y="0"
       id="page8"
       width="604.375"
       height="427.181" />
  </sodipodi:namedview>
  <g
     id="g10"
     inkscape:groupmode="layer"
     inkscape:label="Page 1"
     transform="matrix(1.3333333,0,0,-1.3333333,0,427.181)">
    <path
       d="M 0,0 H 453.28125 V 320.38575 H 0 Z"
       style="fill:#ffffff;fill-opacity:1;fill-rule:nonzero;stroke:none"
       id="path12" />
    <path
       d="m 55.48125,41.48125 h 390.6 v 238.392 h -390.6 z"
       style="fill:#ffffff;fill-opacity:1;fill-rule:nonzero;stroke:none"
       id="path14" />
    <g
       id="g16">
      <g
         id="g18"
         clip-path="url(#clipPath22)">
        <path
           d="m 55.48125,223.85247 v -67.17892 l 7.971429,4.97271 7.971428,5.6253 7.971429,3.49684 7.971428,3.42413 7.971429,3.39716 7.971427,3.09154 7.97143,2.07967 7.97143,2.22884 7.97143,1.3797 7.97143,1.85148 7.97142,1.96285 7.97143,0.96718 7.97143,1.24158 7.97143,0.54574 7.97143,0.37554 7.97143,0.41777 7.97143,0.50388 7.97142,0.44286 7.97143,-0.70118 7.97143,-0.34154 7.97143,-0.54357 7.97143,-0.71564 7.97143,-0.69384 7.97143,-0.69676 7.97142,-0.74016 7.97143,-1.0329 7.97143,-1.16648 7.97143,-1.33985 7.97143,-1.5595 7.97143,-1.31527 7.97143,-2.13943 7.97142,-1.13427 7.97143,-2.10927 7.97143,-2.9301 7.97143,-3.10789 7.97143,-3.8465 7.97143,-3.34426 7.97143,-3.97116 7.97142,-4.90951 7.97143,-5.56031 7.97143,-5.37458 7.97143,-5.68703 7.97143,-7.37784 7.97143,-8.57498 7.97143,-10.00296 7.97142,-13.03339 7.97143,-9.344433 7.97143,-15.260642 7.97143,-18.398824 v 123.569809 0 l -7.97143,-4.56901 -7.97143,1.11191 -7.97143,0.84908 -7.97142,0.74915 -7.97143,0.60864 -7.97143,-0.55955 -7.97143,2.37802 -7.97143,1.41299 -7.97143,1.48783 -7.97143,1.52971 -7.97142,1.49468 -7.97143,1.14886 -7.97143,1.34927 -7.97143,1.18677 -7.97143,1.34036 -7.97143,1.33125 -7.97143,1.00266 -7.97142,0.52775 -7.97143,0.76748 -7.97143,0.98195 -7.97143,0.93123 -7.97143,0.80773 -7.97143,1.1504 -7.97143,0.8616 -7.97142,0.74264 -7.97143,1.09371 -7.97143,0.39494 -7.97143,1.86555 -7.97143,0.31503 -7.97143,0.6799 -7.97143,0.74792 -7.97142,0.40287 -7.97143,0.92475 -7.97143,1.12831 -7.97143,1.03448 -7.97143,0.62493 -7.97143,0.40383 -7.97143,0.24901 -7.97142,0.16775 -7.97143,0.80075 -7.97143,0.15771 -7.97143,0.92285 -7.97143,1.43232 -7.971427,1.36816 -7.971429,1.6367 -7.971428,1.14838 -7.971429,2.06095 -7.971428,1.31411 z"
           style="fill:#66c2a5;fill-opacity:0.5;fill-rule:nonzero;stroke:#66c2a5;stroke-width:1;stroke-linecap:butt;stroke-linejoin:round;stroke-miterlimit:10;stroke-dasharray:none;stroke-opacity:0.5"
           id="path24" />
      </g>
    </g>
    <g
       id="g26">
      <g
         id="g28"
         clip-path="url(#clipPath32)">
        <path
           d="m 55.48125,223.85247 v -67.17892 l 7.971429,4.97271 7.971428,5.6253 7.971429,3.49684 7.971428,3.42413 7.971429,3.39716 7.971427,3.09154 7.97143,2.07967 7.97143,2.22884 7.97143,1.3797 7.97143,1.85148 7.97142,1.96285 7.97143,0.96718 7.97143,1.24158 7.97143,0.54574 7.97143,0.37554 7.97143,0.41777 7.97143,0.50388 7.97142,0.44286 7.97143,-0.70118 7.97143,-0.34154 7.97143,-0.54357 7.97143,-0.71564 7.97143,-0.69384 7.97143,-0.69676 7.97142,-0.74016 7.97143,-1.0329 7.97143,-1.16648 7.97143,-1.33985 7.97143,-1.5595 7.97143,-1.31527 7.97143,-2.13943 7.97142,-1.13427 7.97143,-2.10927 7.97143,-2.9301 7.97143,-3.10789 7.97143,-3.8465 7.97143,-3.34426 7.97143,-3.97116 7.97142,-4.90951 7.97143,-5.56031 7.97143,-5.37458 7.97143,-5.68703 7.97143,-7.37784 7.97143,-8.57498 7.97143,-10.00296 7.97142,-13.03339 7.97143,-9.344433 7.97143,-15.260642 7.97143,-18.398824 v 123.569809 0 l -7.97143,-4.56901 -7.97143,1.11191 -7.97143,0.84908 -7.97142,0.74915 -7.97143,0.60864 -7.97143,-0.55955 -7.97143,2.37802 -7.97143,1.41299 -7.97143,1.48783 -7.97143,1.52971 -7.97142,1.49468 -7.97143,1.14886 -7.97143,1.34927 -7.97143,1.18677 -7.97143,1.34036 -7.97143,1.33125 -7.97143,1.00266 -7.97142,0.52775 -7.97143,0.76748 -7.97143,0.98195 -7.97143,0.93123 -7.97143,0.80773 -7.97143,1.1504 -7.97143,0.8616 -7.97142,0.74264 -7.97143,1.09371 -7.97143,0.39494 -7.97143,1.86555 -7.97143,0.31503 -7.97143,0.6799 -7.97143,0.74792 -7.97142,0.40287 -7.97143,0.92475 -7.97143,1.12831 -7.97143,1.03448 -7.97143,0.62493 -7.97143,0.40383 -7.97143,0.24901 -7.97142,0.16775 -7.97143,0.80075 -7.97143,0.15771 -7.97143,0.92285 -7.97143,1.43232 -7.971427,1.36816 -7.971429,1.6367 -7.971428,1.14838 -7.971429,2.06095 -7.971428,1.31411 z"
           style="fill:url(#pattern36);fill-opacity:1;fill-rule:nonzero;stroke:#66c2a5;stroke-width:1;stroke-linecap:butt;stroke-linejoin:round;stroke-miterlimit:10;stroke-dasharray:none;stroke-opacity:0.5"
           id="path38" />
      </g>
    </g>
    <g
       id="g40">
      <g
         id="g42"
         clip-path="url(#clipPath46)">
        <path
           d="m 55.48125,233.67868 v -60.23272 l 7.971429,2.71891 7.971428,2.92953 7.971429,2.52645 7.971428,2.31512 7.971429,1.84009 7.971427,1.27653 7.97143,1.42127 7.97143,0.96526 7.97143,0.68921 7.97143,0.89012 7.97142,0.941 7.97143,-0.27726 7.97143,0.52257 7.97143,0.71375 7.97143,1.20601 7.97143,0.0457 7.97143,0.59012 7.97142,0.90791 7.97143,0.31603 7.97143,0.5139 7.97143,0.3603 7.97143,-0.13105 7.97143,0.36716 7.97143,0.36501 7.97142,0.0462 7.97143,0.17749 7.97143,0.1098 7.97143,-0.0676 7.97143,-0.53332 7.97143,-0.40389 7.97143,-1.05823 7.97142,-0.51727 7.97143,-0.56035 7.97143,-0.8774 7.97143,-0.78172 7.97143,-1.07137 7.97143,-0.96892 7.97143,-0.52085 7.97142,-2.54445 7.97143,-1.82148 7.97143,-1.94199 7.97143,-1.78495 7.97143,-2.89679 7.97143,-3.23913 7.97143,-3.56247 7.97142,-5.87426 7.97143,-8.05566 7.97143,-12.25361 7.97143,-14.26755 v 136.84744 0 l -7.97143,-13.73701 -7.97143,-10.18639 -7.97143,-6.01955 -7.97142,-5.57439 -7.97143,-5.48589 -7.97143,-3.48633 -7.97143,-2.78295 -7.97143,-1.81104 -7.97143,-1.99688 -7.97143,-1.85328 -7.97142,-2.23838 -7.97143,-1.9744 -7.97143,-1.50327 -7.97143,-1.24074 -7.97143,-1.10659 -7.97143,-0.33991 -7.97143,-0.39455 -7.97142,-0.63409 -7.97143,-0.11769 -7.97143,-0.53128 -7.97143,-0.26453 -7.97143,-0.26881 -7.97143,-0.1286 -7.97143,0.13267 -7.97142,0.58776 -7.97143,-0.0794 -7.97143,0.37289 -7.97143,0.47548 -7.97143,0.1277 -7.97143,0.57254 -7.97143,0.56985 -7.97142,0.0119 -7.97143,0.0645 -7.97143,0.47989 -7.97143,0.39423 -7.97143,0.81912 -7.97143,0.86465 -7.97143,1.0917 -7.97142,1.81159 -7.97143,1.17711 -7.97143,0.41209 -7.97143,1.67582 -7.97143,2.31656 -7.971427,1.35909 -7.971429,1.35686 -7.971428,1.37439 -7.971429,1.70154 -7.971428,3.58915 z"
           style="fill:#fc8d62;fill-opacity:0.5;fill-rule:nonzero;stroke:#fc8d62;stroke-width:1;stroke-linecap:butt;stroke-linejoin:round;stroke-miterlimit:10;stroke-dasharray:none;stroke-opacity:0.5"
           id="path48" />
      </g>
    </g>
    <g
       id="g50">
      <g
         id="g52"
         clip-path="url(#clipPath56)">
        <path
           d="m 55.48125,233.67868 v -60.23272 l 7.971429,2.71891 7.971428,2.92953 7.971429,2.52645 7.971428,2.31512 7.971429,1.84009 7.971427,1.27653 7.97143,1.42127 7.97143,0.96526 7.97143,0.68921 7.97143,0.89012 7.97142,0.941 7.97143,-0.27726 7.97143,0.52257 7.97143,0.71375 7.97143,1.20601 7.97143,0.0457 7.97143,0.59012 7.97142,0.90791 7.97143,0.31603 7.97143,0.5139 7.97143,0.3603 7.97143,-0.13105 7.97143,0.36716 7.97143,0.36501 7.97142,0.0462 7.97143,0.17749 7.97143,0.1098 7.97143,-0.0676 7.97143,-0.53332 7.97143,-0.40389 7.97143,-1.05823 7.97142,-0.51727 7.97143,-0.56035 7.97143,-0.8774 7.97143,-0.78172 7.97143,-1.07137 7.97143,-0.96892 7.97143,-0.52085 7.97142,-2.54445 7.97143,-1.82148 7.97143,-1.94199 7.97143,-1.78495 7.97143,-2.89679 7.97143,-3.23913 7.97143,-3.56247 7.97142,-5.87426 7.97143,-8.05566 7.97143,-12.25361 7.97143,-14.26755 v 136.84744 0 l -7.97143,-13.73701 -7.97143,-10.18639 -7.97143,-6.01955 -7.97142,-5.57439 -7.97143,-5.48589 -7.97143,-3.48633 -7.97143,-2.78295 -7.97143,-1.81104 -7.97143,-1.99688 -7.97143,-1.85328 -7.97142,-2.23838 -7.97143,-1.9744 -7.97143,-1.50327 -7.97143,-1.24074 -7.97143,-1.10659 -7.97143,-0.33991 -7.97143,-0.39455 -7.97142,-0.63409 -7.97143,-0.11769 -7.97143,-0.53128 -7.97143,-0.26453 -7.97143,-0.26881 -7.97143,-0.1286 -7.97143,0.13267 -7.97142,0.58776 -7.97143,-0.0794 -7.97143,0.37289 -7.97143,0.47548 -7.97143,0.1277 -7.97143,0.57254 -7.97143,0.56985 -7.97142,0.0119 -7.97143,0.0645 -7.97143,0.47989 -7.97143,0.39423 -7.97143,0.81912 -7.97143,0.86465 -7.97143,1.0917 -7.97142,1.81159 -7.97143,1.17711 -7.97143,0.41209 -7.97143,1.67582 -7.97143,2.31656 -7.971427,1.35909 -7.971429,1.35686 -7.971428,1.37439 -7.971429,1.70154 -7.971428,3.58915 z"
           style="fill:url(#pattern60);fill-opacity:1;fill-rule:nonzero;stroke:#fc8d62;stroke-width:1;stroke-linecap:butt;stroke-linejoin:round;stroke-miterlimit:10;stroke-dasharray:none;stroke-opacity:0.5"
           id="path62" />
      </g>
    </g>
    <g
       id="g64">
      <path
         d="m 55.48125,41.48125 v -3.5"
         style="fill:#000000;fill-opacity:1;fill-rule:nonzero;stroke:#000000;stroke-width:0.8;stroke-linecap:butt;stroke-linejoin:round;stroke-miterlimit:10;stroke-dasharray:none;stroke-opacity:1"
         id="path66" />
      <g
         id="g68"
         transform="translate(44.98125,24.903125)">
        <text
           xml:space="preserve"
           transform="matrix(1,0,0,-1,0,0.5875)"
           style="font-variant:normal;font-weight:normal;font-size:11.662px;font-family:'DejaVu Sans';-inkscape-font-specification:DejaVuSans;writing-mode:lr-tb;fill:#000000;fill-opacity:1;fill-rule:nonzero;stroke:none"
           id="text72"><tspan
             x="0 7.4160614"
             y="0"
             sodipodi:role="line"
             id="tspan70">10</tspan></text>
        <text
           xml:space="preserve"
           transform="matrix(1,0,0,-1,14.943685,5.05)"
           style="font-variant:normal;font-weight:normal;font-size:8.1634px;font-family:'DejaVu Sans';-inkscape-font-specification:DejaVuSans;writing-mode:lr-tb;fill:#000000;fill-opacity:1;fill-rule:nonzero;stroke:none"
           id="text76"><tspan
             x="0"
             y="0"
             id="tspan74">1</tspan></text>
      </g>
      <path
         d="m 203.61411,41.48125 v -3.5"
         style="fill:#000000;fill-opacity:1;fill-rule:nonzero;stroke:#000000;stroke-width:0.8;stroke-linecap:butt;stroke-linejoin:round;stroke-miterlimit:10;stroke-dasharray:none;stroke-opacity:1"
         id="path78" />
      <g
         id="g80"
         transform="translate(193.11411,24.903125)">
        <text
           xml:space="preserve"
           transform="matrix(1,0,0,-1,0,0.478125)"
           style="font-variant:normal;font-weight:normal;font-size:11.662px;font-family:'DejaVu Sans';-inkscape-font-specification:DejaVuSans;writing-mode:lr-tb;fill:#000000;fill-opacity:1;fill-rule:nonzero;stroke:none"
           id="text84"><tspan
             x="0 7.4160614"
             y="0"
             sodipodi:role="line"
             id="tspan82">10</tspan></text>
        <text
           xml:space="preserve"
           transform="matrix(1,0,0,-1,14.943685,4.940625)"
           style="font-variant:normal;font-weight:normal;font-size:8.1634px;font-family:'DejaVu Sans';-inkscape-font-specification:DejaVuSans;writing-mode:lr-tb;fill:#000000;fill-opacity:1;fill-rule:nonzero;stroke:none"
           id="text88"><tspan
             x="0"
             y="0"
             id="tspan86">2</tspan></text>
      </g>
      <path
         d="m 351.74697,41.48125 v -3.5"
         style="fill:#000000;fill-opacity:1;fill-rule:nonzero;stroke:#000000;stroke-width:0.8;stroke-linecap:butt;stroke-linejoin:round;stroke-miterlimit:10;stroke-dasharray:none;stroke-opacity:1"
         id="path90" />
      <g
         id="g92"
         transform="translate(341.24697,24.903125)">
        <text
           xml:space="preserve"
           transform="matrix(1,0,0,-1,0,0.478125)"
           style="font-variant:normal;font-weight:normal;font-size:11.662px;font-family:'DejaVu Sans';-inkscape-font-specification:DejaVuSans;writing-mode:lr-tb;fill:#000000;fill-opacity:1;fill-rule:nonzero;stroke:none"
           id="text96"><tspan
             x="0 7.4160614"
             y="0"
             sodipodi:role="line"
             id="tspan94">10</tspan></text>
        <text
           xml:space="preserve"
           transform="matrix(1,0,0,-1,14.943685,4.940625)"
           style="font-variant:normal;font-weight:normal;font-size:8.1634px;font-family:'DejaVu Sans';-inkscape-font-specification:DejaVuSans;writing-mode:lr-tb;fill:#000000;fill-opacity:1;fill-rule:nonzero;stroke:none"
           id="text100"><tspan
             x="0"
             y="0"
             id="tspan98">3</tspan></text>
      </g>
      <path
         d="m 100.07368,41.48125 v -2"
         style="fill:#000000;fill-opacity:1;fill-rule:nonzero;stroke:#000000;stroke-width:0.6;stroke-linecap:butt;stroke-linejoin:round;stroke-miterlimit:10;stroke-dasharray:none;stroke-opacity:1"
         id="path102" />
      <path
         d="m 126.15859,41.48125 v -2"
         style="fill:#000000;fill-opacity:1;fill-rule:nonzero;stroke:#000000;stroke-width:0.6;stroke-linecap:butt;stroke-linejoin:round;stroke-miterlimit:10;stroke-dasharray:none;stroke-opacity:1"
         id="path104" />
      <path
         d="m 144.66612,41.48125 v -2"
         style="fill:#000000;fill-opacity:1;fill-rule:nonzero;stroke:#000000;stroke-width:0.6;stroke-linecap:butt;stroke-linejoin:round;stroke-miterlimit:10;stroke-dasharray:none;stroke-opacity:1"
         id="path106" />
      <path
         d="m 159.02168,41.48125 v -2"
         style="fill:#000000;fill-opacity:1;fill-rule:nonzero;stroke:#000000;stroke-width:0.6;stroke-linecap:butt;stroke-linejoin:round;stroke-miterlimit:10;stroke-dasharray:none;stroke-opacity:1"
         id="path108" />
      <path
         d="m 170.75102,41.48125 v -2"
         style="fill:#000000;fill-opacity:1;fill-rule:nonzero;stroke:#000000;stroke-width:0.6;stroke-linecap:butt;stroke-linejoin:round;stroke-miterlimit:10;stroke-dasharray:none;stroke-opacity:1"
         id="path110" />
      <path
         d="m 180.66804,41.48125 v -2"
         style="fill:#000000;fill-opacity:1;fill-rule:nonzero;stroke:#000000;stroke-width:0.6;stroke-linecap:butt;stroke-linejoin:round;stroke-miterlimit:10;stroke-dasharray:none;stroke-opacity:1"
         id="path112" />
      <path
         d="m 189.25855,41.48125 v -2"
         style="fill:#000000;fill-opacity:1;fill-rule:nonzero;stroke:#000000;stroke-width:0.6;stroke-linecap:butt;stroke-linejoin:round;stroke-miterlimit:10;stroke-dasharray:none;stroke-opacity:1"
         id="path114" />
      <path
         d="m 196.83592,41.48125 v -2"
         style="fill:#000000;fill-opacity:1;fill-rule:nonzero;stroke:#000000;stroke-width:0.6;stroke-linecap:butt;stroke-linejoin:round;stroke-miterlimit:10;stroke-dasharray:none;stroke-opacity:1"
         id="path116" />
      <path
         d="m 248.20654,41.48125 v -2"
         style="fill:#000000;fill-opacity:1;fill-rule:nonzero;stroke:#000000;stroke-width:0.6;stroke-linecap:butt;stroke-linejoin:round;stroke-miterlimit:10;stroke-dasharray:none;stroke-opacity:1"
         id="path118" />
      <path
         d="m 274.29145,41.48125 v -2"
         style="fill:#000000;fill-opacity:1;fill-rule:nonzero;stroke:#000000;stroke-width:0.6;stroke-linecap:butt;stroke-linejoin:round;stroke-miterlimit:10;stroke-dasharray:none;stroke-opacity:1"
         id="path120" />
      <path
         d="m 292.79898,41.48125 v -2"
         style="fill:#000000;fill-opacity:1;fill-rule:nonzero;stroke:#000000;stroke-width:0.6;stroke-linecap:butt;stroke-linejoin:round;stroke-miterlimit:10;stroke-dasharray:none;stroke-opacity:1"
         id="path122" />
      <path
         d="m 307.15454,41.48125 v -2"
         style="fill:#000000;fill-opacity:1;fill-rule:nonzero;stroke:#000000;stroke-width:0.6;stroke-linecap:butt;stroke-linejoin:round;stroke-miterlimit:10;stroke-dasharray:none;stroke-opacity:1"
         id="path124" />
      <path
         d="m 318.88388,41.48125 v -2"
         style="fill:#000000;fill-opacity:1;fill-rule:nonzero;stroke:#000000;stroke-width:0.6;stroke-linecap:butt;stroke-linejoin:round;stroke-miterlimit:10;stroke-dasharray:none;stroke-opacity:1"
         id="path126" />
      <path
         d="m 328.8009,41.48125 v -2"
         style="fill:#000000;fill-opacity:1;fill-rule:nonzero;stroke:#000000;stroke-width:0.6;stroke-linecap:butt;stroke-linejoin:round;stroke-miterlimit:10;stroke-dasharray:none;stroke-opacity:1"
         id="path128" />
      <path
         d="m 337.39141,41.48125 v -2"
         style="fill:#000000;fill-opacity:1;fill-rule:nonzero;stroke:#000000;stroke-width:0.6;stroke-linecap:butt;stroke-linejoin:round;stroke-miterlimit:10;stroke-dasharray:none;stroke-opacity:1"
         id="path130" />
      <path
         d="m 344.96878,41.48125 v -2"
         style="fill:#000000;fill-opacity:1;fill-rule:nonzero;stroke:#000000;stroke-width:0.6;stroke-linecap:butt;stroke-linejoin:round;stroke-miterlimit:10;stroke-dasharray:none;stroke-opacity:1"
         id="path132" />
      <path
         d="m 396.3394,41.48125 v -2"
         style="fill:#000000;fill-opacity:1;fill-rule:nonzero;stroke:#000000;stroke-width:0.6;stroke-linecap:butt;stroke-linejoin:round;stroke-miterlimit:10;stroke-dasharray:none;stroke-opacity:1"
         id="path134" />
      <path
         d="m 422.42431,41.48125 v -2"
         style="fill:#000000;fill-opacity:1;fill-rule:nonzero;stroke:#000000;stroke-width:0.6;stroke-linecap:butt;stroke-linejoin:round;stroke-miterlimit:10;stroke-dasharray:none;stroke-opacity:1"
         id="path136" />
      <path
         d="m 440.93184,41.48125 v -2"
         style="fill:#000000;fill-opacity:1;fill-rule:nonzero;stroke:#000000;stroke-width:0.6;stroke-linecap:butt;stroke-linejoin:round;stroke-miterlimit:10;stroke-dasharray:none;stroke-opacity:1"
         id="path138" />
      <g
         id="g140"
         transform="translate(223.28125,9.621875)">
        <text
           xml:space="preserve"
           transform="matrix(1,0,0,-1,0,0.15625)"
           style="font-variant:normal;font-weight:normal;font-size:11.662px;font-family:'DejaVu Sans';-inkscape-font-specification:DejaVuSans;writing-mode:lr-tb;fill:#000000;fill-opacity:1;fill-rule:nonzero;stroke:none"
           id="text144"><tspan
             x="0"
             y="0"
             id="tspan142">m</tspan></text>
        <text
           xml:space="preserve"
           transform="matrix(1,0,0,-1,11.466161,-1.75625)"
           style="font-variant:normal;font-weight:normal;font-size:8.1634px;font-family:'DejaVu Sans';-inkscape-font-specification:DejaVuSans;writing-mode:lr-tb;fill:#000000;fill-opacity:1;fill-rule:nonzero;stroke:none"
           id="text148"><tspan
             x="0"
             y="0"
             id="tspan146">X</tspan></text>
        <text
           xml:space="preserve"
           transform="matrix(1,0,0,-1,21.079746,0.15625)"
           style="font-variant:normal;font-weight:normal;font-size:11.662px;font-family:'DejaVu Sans';-inkscape-font-specification:DejaVuSans;writing-mode:lr-tb;fill:#000000;fill-opacity:1;fill-rule:nonzero;stroke:none"
           id="text152"><tspan
             x="0 4.5475311 13.579987 20.751312 28.725143"
             y="0"
             sodipodi:role="line"
             id="tspan150">(GeV)</tspan></text>
      </g>
      <path
         d="m 55.48125,53.329424 h -3.5"
         style="fill:#000000;fill-opacity:1;fill-rule:nonzero;stroke:#000000;stroke-width:0.8;stroke-linecap:butt;stroke-linejoin:round;stroke-miterlimit:10;stroke-dasharray:none;stroke-opacity:1"
         id="path154" />
      <g
         id="g156"
         transform="translate(22.48125,48.899737)">
        <text
           xml:space="preserve"
           transform="matrix(1,0,0,-1,0,0.34375)"
           style="font-variant:normal;font-weight:normal;font-size:11.662px;font-family:'DejaVu Sans';-inkscape-font-specification:DejaVuSans;writing-mode:lr-tb;fill:#000000;fill-opacity:1;fill-rule:nonzero;stroke:none"
           id="text160"><tspan
             x="0 7.4160614 10.871246 18.287308"
             y="0"
             sodipodi:role="line"
             id="tspan158">0.85</tspan></text>
      </g>
      <path
         d="m 55.48125,102.66115 h -3.5"
         style="fill:#000000;fill-opacity:1;fill-rule:nonzero;stroke:#000000;stroke-width:0.8;stroke-linecap:butt;stroke-linejoin:round;stroke-miterlimit:10;stroke-dasharray:none;stroke-opacity:1"
         id="path162" />
      <g
         id="g164"
         transform="translate(22.48125,98.231461)">
        <text
           xml:space="preserve"
           transform="matrix(1,0,0,-1,0,0.34375)"
           style="font-variant:normal;font-weight:normal;font-size:11.662px;font-family:'DejaVu Sans';-inkscape-font-specification:DejaVuSans;writing-mode:lr-tb;fill:#000000;fill-opacity:1;fill-rule:nonzero;stroke:none"
           id="text168"><tspan
             x="0 7.4160614 11.121246 18.537308"
             y="0"
             sodipodi:role="line"
             id="tspan166">0.90</tspan></text>
      </g>
      <path
         d="m 55.48125,151.99287 h -3.5"
         style="fill:#000000;fill-opacity:1;fill-rule:nonzero;stroke:#000000;stroke-width:0.8;stroke-linecap:butt;stroke-linejoin:round;stroke-miterlimit:10;stroke-dasharray:none;stroke-opacity:1"
         id="path170" />
      <g
         id="g172"
         transform="translate(22.48125,147.56319)">
        <text
           xml:space="preserve"
           transform="matrix(1,0,0,-1,0,0.34375)"
           style="font-variant:normal;font-weight:normal;font-size:11.662px;font-family:'DejaVu Sans';-inkscape-font-specification:DejaVuSans;writing-mode:lr-tb;fill:#000000;fill-opacity:1;fill-rule:nonzero;stroke:none"
           id="text176"><tspan
             x="0 7.4160614 11.121246 18.537308"
             y="0"
             sodipodi:role="line"
             id="tspan174">0.95</tspan></text>
      </g>
      <path
         d="m 55.48125,201.3246 h -3.5"
         style="fill:#000000;fill-opacity:1;fill-rule:nonzero;stroke:#000000;stroke-width:0.8;stroke-linecap:butt;stroke-linejoin:round;stroke-miterlimit:10;stroke-dasharray:none;stroke-opacity:1"
         id="path178" />
      <g
         id="g180"
         transform="translate(22.48125,196.89491)">
        <text
           xml:space="preserve"
           transform="matrix(1,0,0,-1,0,0.34375)"
           style="font-variant:normal;font-weight:normal;font-size:11.662px;font-family:'DejaVu Sans';-inkscape-font-specification:DejaVuSans;writing-mode:lr-tb;fill:#000000;fill-opacity:1;fill-rule:nonzero;stroke:none"
           id="text184"><tspan
             x="0 7.4160614 11.121246 18.537308"
             y="0"
             sodipodi:role="line"
             id="tspan182">1.00</tspan></text>
      </g>
      <path
         d="m 55.48125,250.65632 h -3.5"
         style="fill:#000000;fill-opacity:1;fill-rule:nonzero;stroke:#000000;stroke-width:0.8;stroke-linecap:butt;stroke-linejoin:round;stroke-miterlimit:10;stroke-dasharray:none;stroke-opacity:1"
         id="path186" />
      <g
         id="g188"
         transform="translate(22.48125,246.22663)">
        <text
           xml:space="preserve"
           transform="matrix(1,0,0,-1,0,0.34375)"
           style="font-variant:normal;font-weight:normal;font-size:11.662px;font-family:'DejaVu Sans';-inkscape-font-specification:DejaVuSans;writing-mode:lr-tb;fill:#000000;fill-opacity:1;fill-rule:nonzero;stroke:none"
           id="text192"><tspan
             x="0 7.4160614 11.121246 18.537308"
             y="0"
             sodipodi:role="line"
             id="tspan190">1.05</tspan></text>
      </g>
      <g
         id="g194"
         transform="rotate(90,-51.867531,67.926906)">
        <text
           xml:space="preserve"
           transform="scale(1,-1)"
           style="font-variant:normal;font-weight:normal;font-size:11.662px;font-family:'DejaVu Sans';-inkscape-font-specification:DejaVuSans;writing-mode:lr-tb;fill:#000000;fill-opacity:1;fill-rule:nonzero;stroke:none"
           id="text198"><tspan
             x="0 7.8550901 15.003896 19.575399 22.817436 29.95458 33.663097 38.2346 45.371742 49.080261 57.803436 66.526611 72.616096"
             y="0"
             sodipodi:role="line"
             id="tspan196">Ratio to NNLO</tspan></text>
      </g>
    </g>
    <g
       id="g200">
      <g
         id="g202"
         clip-path="url(#clipPath206)">
        <path
           d="m 55.48125,190.72108 7.971429,2.10148 7.971428,1.90607 7.971429,1.67595 7.971428,1.45473 7.971429,1.23207 7.971427,1.02742 7.97143,0.82298 7.97143,0.6394 7.97143,0.4684 7.97143,0.31099 7.97142,0.16713 7.97143,0.0367 7.97143,-0.0806 7.97143,-0.19608 7.97143,-0.27214 7.97143,-0.36669 7.97143,-0.43991 7.97142,-0.50778 7.97143,-0.56541 7.97143,-0.61961 7.97143,-0.66664 7.97143,-0.71237 7.97143,-0.75699 7.97143,-0.80042 7.97142,-0.85045 7.97143,-0.88116 7.97143,-0.99356 7.97143,-1.04764 7.97143,-1.14168 7.97143,-1.25431 7.97143,-1.38908 7.97142,-1.54693 7.97143,-1.72734 7.97143,-1.94138 7.97143,-2.12971 7.97143,-2.39709 7.97143,-2.63378 7.97143,-2.8849 7.97142,-3.13834 7.97143,-3.39046 7.97143,-3.64298 7.97143,-3.90007 7.97143,-4.18026 7.97143,-4.53466 7.97143,-5.05208 7.97142,-5.82677 7.97143,-6.86204 7.97143,-7.89551 7.97143,-8.22483"
           style="fill:none;stroke:#66c2a5;stroke-width:1.5;stroke-linecap:square;stroke-linejoin:round;stroke-miterlimit:10;stroke-dasharray:none;stroke-opacity:1"
           id="path208" />
      </g>
    </g>
    <g
       id="g210">
      <g
         id="g212"
         clip-path="url(#clipPath216)">
        <path
           d="m 55.48125,156.69984 7.971429,5.67606 7.971428,5.04402 7.971429,4.44065 7.971428,3.89887 7.971429,3.39637 7.971427,2.94641 7.97143,2.52555 7.97143,2.14706 7.97143,1.80266 7.97143,1.48781 7.97142,1.20224 7.97143,0.943 7.97143,0.70981 7.97143,0.48951 7.97143,0.32226 7.97143,0.14487 7.97143,0.002 7.97142,-0.1275 7.97143,-0.23687 7.97143,-0.3359 7.97143,-0.42137 7.97143,-0.50472 7.97143,-0.58537 7.97143,-0.66915 7.97142,-0.77238 7.97143,-0.86521 7.97143,-1.05805 7.97143,-1.21155 7.97143,-1.41848 7.97143,-1.65865 7.97143,-1.92442 7.97142,-2.2161 7.97143,-2.52623 7.97143,-2.86435 7.97143,-3.17592 7.97143,-3.5659 7.97143,-3.92934 7.97143,-4.31744 7.97142,-4.72878 7.97143,-5.17055 7.97143,-5.66461 7.97143,-6.23778 7.97143,-6.93412 7.97143,-7.84652 7.97143,-9.13085 7.97142,-10.99232 7.97143,-13.593275 7.97143,-16.829059 7.97143,-20.048676"
           style="fill:none;stroke:#66c2a5;stroke-width:1.5;stroke-linecap:butt;stroke-linejoin:round;stroke-miterlimit:10;stroke-dasharray:5.55, 2.4;stroke-dashoffset:0;stroke-opacity:1"
           id="path218" />
      </g>
    </g>
    <g
       id="g220">
      <g
         id="g222"
         clip-path="url(#clipPath226)">
        <path
           d="m 55.48125,224.74232 7.971429,-1.47311 7.971428,-1.23188 7.971429,-1.08873 7.971428,-0.98943 7.971429,-0.93221 7.971427,-0.89157 7.97143,-0.8796 7.97143,-0.86827 7.97143,-0.86586 7.97143,-0.86581 7.97142,-0.868 7.97143,-0.86955 7.97143,-0.87105 7.97143,-0.88168 7.97143,-0.86654 7.97143,-0.87824 7.97143,-0.88153 7.97142,-0.88805 7.97143,-0.89396 7.97143,-0.90332 7.97143,-0.9119 7.97143,-0.92002 7.97143,-0.92862 7.97143,-0.93169 7.97142,-0.92851 7.97143,-0.89712 7.97143,-0.92906 7.97143,-0.88373 7.97143,-0.86488 7.97143,-0.84997 7.97143,-0.85375 7.97142,-0.87775 7.97143,-0.92845 7.97143,-1.01841 7.97143,-1.0835 7.97143,-1.22828 7.97143,-1.33822 7.97143,-1.45235 7.97142,-1.54792 7.97143,-1.61035 7.97143,-1.62136 7.97143,-1.56236 7.97143,-1.4264 7.97143,-1.22281 7.97143,-0.97329 7.97142,-0.66124 7.97143,-0.13079 7.97143,1.03803 7.97143,3.59903"
           style="fill:none;stroke:#66c2a5;stroke-width:1.5;stroke-linecap:butt;stroke-linejoin:round;stroke-miterlimit:10;stroke-dasharray:5.55, 2.4;stroke-dashoffset:0;stroke-opacity:1"
           id="path228" />
      </g>
    </g>
    <g
       id="g230">
      <g
         id="g232"
         clip-path="url(#clipPath236)">
        <path
           d="m 55.48125,201.3246 h 7.971429 7.971428 7.971429 7.971428 7.971429 7.971427 7.97143 7.97143 7.97143 7.97143 7.97142 7.97143 7.97143 7.97143 7.97143 7.97143 7.97143 7.97142 7.97143 7.97143 7.97143 7.97143 7.97143 7.97143 7.97142 7.97143 7.97143 7.97143 7.97143 7.97143 7.97143 7.97142 7.97143 7.97143 7.97143 7.97143 7.97143 7.97143 7.97142 7.97143 7.97143 7.97143 7.97143 7.97143 7.97143 7.97142 7.97143 7.97143 7.97143"
           style="fill:none;stroke:#fc8d62;stroke-width:1.5;stroke-linecap:square;stroke-linejoin:round;stroke-miterlimit:10;stroke-dasharray:none;stroke-opacity:1"
           id="path238" />
      </g>
    </g>
    <g
       id="g240">
      <g
         id="g242"
         clip-path="url(#clipPath246)">
        <path
           d="m 55.48125,167.3268 7.971429,3.41222 7.971428,3.05473 7.971429,2.74351 7.971428,2.4678 7.971429,2.21847 7.971427,1.99564 7.97143,1.78983 7.97143,1.60349 7.97143,1.42962 7.97143,1.27103 7.97142,1.12283 7.97143,0.98712 7.97143,0.8628 7.97143,0.75056 7.97143,0.65051 7.97143,0.56296 7.97143,0.48782 7.97142,0.42581 7.97143,0.37344 7.97143,0.32916 7.97143,0.29203 7.97143,0.25786 7.97143,0.22119 7.97143,0.17957 7.97142,0.1293 7.97143,0.0672 7.97143,-0.007 7.97143,-0.0938 7.97143,-0.18706 7.97143,-0.28417 7.97143,-0.38269 7.97142,-0.47875 7.97143,-0.57714 7.97143,-0.68136 7.97143,-0.79153 7.97143,-0.91701 7.97143,-1.06248 7.97143,-1.23373 7.97142,-1.44212 7.97143,-1.69735 7.97143,-2.0167 7.97143,-2.41859 7.97143,-2.9312 7.97143,-3.59828 7.97143,-4.48644 7.97142,-5.69024 7.97143,-7.33563 7.97143,-9.58354 7.97143,-12.62454"
           style="fill:none;stroke:#fc8d62;stroke-width:1.5;stroke-linecap:butt;stroke-linejoin:round;stroke-miterlimit:10;stroke-dasharray:5.55, 2.4;stroke-dashoffset:0;stroke-opacity:1"
           id="path248" />
      </g>
    </g>
    <g
       id="g250">
      <g
         id="g252"
         clip-path="url(#clipPath256)">
        <path
           d="m 55.48125,235.32239 7.971429,-3.41221 7.971428,-3.05473 7.971429,-2.74352 7.971428,-2.4678 7.971429,-2.21847 7.971427,-1.99564 7.97143,-1.78982 7.97143,-1.60349 7.97143,-1.42962 7.97143,-1.27104 7.97142,-1.12282 7.97143,-0.98712 7.97143,-0.86281 7.97143,-0.75056 7.97143,-0.6505 7.97143,-0.56297 7.97143,-0.48782 7.97142,-0.42581 7.97143,-0.37344 7.97143,-0.32915 7.97143,-0.29204 7.97143,-0.25785 7.97143,-0.2212 7.97143,-0.17956 7.97142,-0.1293 7.97143,-0.0672 7.97143,0.007 7.97143,0.0938 7.97143,0.18707 7.97143,0.28416 7.97143,0.3827 7.97142,0.47875 7.97143,0.57713 7.97143,0.68137 7.97143,0.79153 7.97143,0.91701 7.97143,1.06248 7.97143,1.23373 7.97142,1.44211 7.97143,1.69736 7.97143,2.0167 7.97143,2.41859 7.97143,2.93119 7.97143,3.59828 7.97143,4.48645 7.97142,5.69023 7.97143,7.33564 7.97143,9.58353 7.97143,12.62455"
           style="fill:none;stroke:#fc8d62;stroke-width:1.5;stroke-linecap:butt;stroke-linejoin:round;stroke-miterlimit:10;stroke-dasharray:5.55, 2.4;stroke-dashoffset:0;stroke-opacity:1"
           id="path258" />
      </g>
    </g>
    <g
       id="g260">
      <path
         d="m 55.48125,41.48125 v 238.392"
         style="fill:none;stroke:#000000;stroke-width:0.8;stroke-linecap:square;stroke-linejoin:miter;stroke-miterlimit:10;stroke-dasharray:none;stroke-opacity:1"
         id="path262" />
      <path
         d="m 55.48125,41.48125 h 390.6"
         style="fill:none;stroke:#000000;stroke-width:0.8;stroke-linecap:square;stroke-linejoin:miter;stroke-miterlimit:10;stroke-dasharray:none;stroke-opacity:1"
         id="path264" />
      <g
         id="g266"
         transform="translate(203.28125,302.18575)">
        <text
           xml:space="preserve"
           transform="matrix(1,0,0,-1,0,0.359375)"
           style="font-variant:normal;font-weight:normal;font-size:14px;font-family:'DejaVu Sans';-inkscape-font-specification:DejaVuSans;writing-mode:lr-tb;fill:#000000;fill-opacity:1;fill-rule:nonzero;stroke:none"
           id="text270"><tspan
             x="0 8.8867188 17.773438 22.223633 26.113281 34.986328 48.624023 52.513672 61.386719 69.952148 77.246094 81.135742 86.625"
             y="0"
             sodipodi:role="line"
             id="tspan268">gg luminosity</tspan></text>
      </g>
      <g
         id="g272"
         transform="translate(207.78125,285.87325)">
        <text
           xml:space="preserve"
           transform="matrix(1,0,0,-1,10.670898,1.28125)"
           style="font-variant:normal;font-weight:normal;font-size:14px;font-family:'DejaVu Sans';-inkscape-font-specification:DejaVuSans;writing-mode:lr-tb;fill:#000000;fill-opacity:1;fill-rule:nonzero;stroke:none"
           id="text278"><tspan
             x="0"
             y="0"
             id="tspan274">s</tspan><tspan
             x="11.771484 26.229492 35.136719 44.043945 48.494141 57.045898 65.65918"
             y="0.480625"
             sodipodi:role="line"
             id="tspan276">=13 TeV</tspan></text>
        <g
           id="g280"
           transform="matrix(0.014,0,0,0.014,0,0.800625)">
          <g
             id="g282">
            <g
               id="g284"
               clip-path="url(#clipPath288)">
              <path
                 d="m 545,811 h 92 V 764 H 581 L 291,-19 H 259 L 103,411 42,389 30,428 168,476 293,130 Z"
                 style="fill:#000000;fill-opacity:1;fill-rule:nonzero;stroke:none"
                 id="path290" />
            </g>
          </g>
        </g>
        <g
           id="g292">
          <path
             d="M 8.9208984,11.25 H 19.714844 v 0.875 H 8.9208984 Z"
             style="fill:#000000;fill-opacity:1;fill-rule:nonzero;stroke:none"
             id="path294" />
        </g>
      </g>
      <path
         d="m 61.15545,247.28245 h 183.9392 c 1.0808,0 1.6212,0.5404 1.6212,1.6212 v 25.2954 c 0,1.0808 -0.5404,1.6212 -1.6212,1.6212 H 61.15545 c -1.0808,0 -1.6212,-0.5404 -1.6212,-1.6212 v -25.2954 c 0,-1.0808 0.5404,-1.6212 1.6212,-1.6212 z"
         style="fill:#ffffff;fill-opacity:0.8;fill-rule:nonzero;stroke:#cccccc;stroke-width:1;stroke-linecap:butt;stroke-linejoin:miter;stroke-miterlimit:10;stroke-dasharray:none;stroke-opacity:0.8"
         id="path296" />
      <path
         d="m 62.77665,265.57785 h 16.212 v 5.6742 h -16.212 z"
         style="fill:none;stroke:#66c2a5;stroke-width:1;stroke-linecap:butt;stroke-linejoin:miter;stroke-miterlimit:10;stroke-dasharray:3.7, 1.6;stroke-dashoffset:0;stroke-opacity:1"
         id="path298" />
      <path
         d="m 64.39785,266.14527 h 12.9696 v 4.53936 h -12.9696 z"
         style="fill:url(#pattern304);fill-opacity:0.5;fill-rule:nonzero;stroke:none"
         id="path306" />
      <g
         id="g308"
         transform="translate(85.47345,265.57785)">
        <text
           xml:space="preserve"
           transform="matrix(1,0,0,-1,0,0.84375)"
           style="font-variant:normal;font-weight:normal;font-size:8.106px;font-family:'DejaVu Sans';-inkscape-font-specification:DejaVuSans;writing-mode:lr-tb;fill:#000000;fill-opacity:1;fill-rule:nonzero;stroke:none"
           id="text312"><tspan
             x="0 4.9597931 11.014297 16.038788 20.54805 26.918716 29.491486 32.649155 37.798645 42.936279 46.109756 48.358459 50.931229 57.914459 64.00058 70.371246 76.295334 83.077011 85.464035 91.550156 97.920822 103.84491 107.00258 109.57535 112.73302 117.88251 123.032 125.60477 130.05475 132.62752 134.87622 137.44899 144.23067 154.50989"
             y="0"
             sodipodi:role="line"
             id="tspan310">aN3LO (3pti MHOU+IHOU) (68 c.l.+1)</tspan></text>
        <g
           id="g314"
           transform="matrix(0.008106,0,0,0.008106,149.38016,0.84375)">
          <g
             id="g316">
            <g
               id="g318"
               clip-path="url(#clipPath322)">
              <path
                 d="m 306,476 c -50,0 -88,-18 -114,-54 -28,-38 -42,-87 -42,-149 0,-66 13,-117 41,-155 28,-38 66,-56 115,-56 48,0 86,18 114,56 28,38 42,89 42,155 0,59 -14,109 -42,149 -26,36 -64,54 -114,54 z m 0,71 H 604 V 457 H 504 C 539,406 557,345 557,273 557,183 534,113 490,63 445,12 384,-13 306,-13 227,-13 166,12 122,63 77,113 55,183 55,273 c 0,90 22,160 67,211 36,42 98,63 184,63 z"
                 style="fill:#000000;fill-opacity:1;fill-rule:nonzero;stroke:none"
                 id="path324" />
            </g>
          </g>
        </g>
      </g>
      <path
         d="m 62.77665,252.52485 h 16.212 v 5.6742 h -16.212 z"
         style="fill:none;stroke:#fc8d62;stroke-width:1;stroke-linecap:butt;stroke-linejoin:miter;stroke-miterlimit:10;stroke-dasharray:3.7, 1.6;stroke-dashoffset:0;stroke-opacity:1"
         id="path326" />
      <path
         d="m 64.39785,253.09227 h 12.9696 v 4.53936 h -12.9696 z"
         style="fill:url(#pattern332);fill-opacity:0.5;fill-rule:nonzero;stroke:none"
         id="path334" />
      <g
         id="g336"
         transform="translate(85.47345,252.52485)">
        <text
           xml:space="preserve"
           transform="matrix(1,0,0,-1,0,0.84375)"
           style="font-variant:normal;font-weight:normal;font-size:8.106px;font-family:'DejaVu Sans';-inkscape-font-specification:DejaVuSans;writing-mode:lr-tb;fill:#000000;fill-opacity:1;fill-rule:nonzero;stroke:none"
           id="text340"><tspan
             x="0 6.0545044 12.109009 16.618271 22.988937 25.561707 28.719376 33.868866 39.018356 41.591125 46.041107 48.613876 50.862579 53.435349 60.217026 70.496246"
             y="0"
             sodipodi:role="line"
             id="tspan338">NNLO (68 c.l.+1)</tspan></text>
        <g
           id="g342"
           transform="matrix(0.008106,0,0,0.008106,65.366516,0.84375)">
          <g
             id="g344">
            <g
               id="g346"
               clip-path="url(#clipPath350)">
              <path
                 d="m 306,476 c -50,0 -88,-18 -114,-54 -28,-38 -42,-87 -42,-149 0,-66 13,-117 41,-155 28,-38 66,-56 115,-56 48,0 86,18 114,56 28,38 42,89 42,155 0,59 -14,109 -42,149 -26,36 -64,54 -114,54 z m 0,71 H 604 V 457 H 504 C 539,406 557,345 557,273 557,183 534,113 490,63 445,12 384,-13 306,-13 227,-13 166,12 122,63 77,113 55,183 55,273 c 0,90 22,160 67,211 36,42 98,63 184,63 z"
                 style="fill:#000000;fill-opacity:1;fill-rule:nonzero;stroke:none"
                 id="path352" />
            </g>
          </g>
        </g>
      </g>
    </g>
  </g>
</svg>
