<?xml version="1.0" encoding="UTF-8" standalone="no"?>
<!-- Created with Inkscape (http://www.inkscape.org/) -->

<svg
   version="1.1"
   id="svg2"
   xml:space="preserve"
   width="672"
   height="480"
   viewBox="0 0 672 480"
   sodipodi:docname="3fns_nnlo_n3lo.pdf"
   xmlns:inkscape="http://www.inkscape.org/namespaces/inkscape"
   xmlns:sodipodi="http://sodipodi.sourceforge.net/DTD/sodipodi-0.dtd"
   xmlns="http://www.w3.org/2000/svg"
   xmlns:svg="http://www.w3.org/2000/svg"><defs
     id="defs6"><clipPath
       clipPathUnits="userSpaceOnUse"
       id="clipPath20"><path
         d="M 77.16,15.77 H 493.199 V 306.852 H 77.16 Z"
         id="path18" /></clipPath><clipPath
       clipPathUnits="userSpaceOnUse"
       id="clipPath28"><path
         d="M 0,0 H 504 V 360 H 0 Z"
         id="path26" /></clipPath><clipPath
       clipPathUnits="userSpaceOnUse"
       id="clipPath32"><path
         d="M 0,0 H 504 V 360 H 0 Z"
         id="path30" /></clipPath><clipPath
       clipPathUnits="userSpaceOnUse"
       id="clipPath58"><path
         d="M 0,0 H 504 V 360 H 0 Z"
         id="path56" /></clipPath><clipPath
       clipPathUnits="userSpaceOnUse"
       id="clipPath62"><path
         d="M 0,0 H 504 V 360 H 0 Z"
         id="path60" /></clipPath><clipPath
       clipPathUnits="userSpaceOnUse"
       id="clipPath220"><path
         d="m 77.16,190 h 416.039 v 1 H 77.16 Z"
         id="path218" /></clipPath><clipPath
       clipPathUnits="userSpaceOnUse"
       id="clipPath230"><path
         d="M 0,0 H 504 V 360 H 0 Z"
         id="path228" /></clipPath><clipPath
       clipPathUnits="userSpaceOnUse"
       id="clipPath242"><path
         d="M 0,0 H 504 V 360 H 0 Z"
         id="path240" /></clipPath><clipPath
       clipPathUnits="userSpaceOnUse"
       id="clipPath256"><path
         d="M 77.16,15.77 H 493.199 V 306.852 H 77.16 Z"
         id="path254" /></clipPath><clipPath
       clipPathUnits="userSpaceOnUse"
       id="clipPath266"><path
         d="M 0,0 H 504 V 360 H 0 Z"
         id="path264" /></clipPath><clipPath
       clipPathUnits="userSpaceOnUse"
       id="clipPath278"><path
         d="M 0,0 H 504 V 360 H 0 Z"
         id="path276" /></clipPath><clipPath
       clipPathUnits="userSpaceOnUse"
       id="clipPath294"><path
         d="M 0,0 H 504 V 360 H 0 Z"
         id="path292" /></clipPath><clipPath
       clipPathUnits="userSpaceOnUse"
       id="clipPath306"><path
         d="M 0,0 H 504 V 360 H 0 Z"
         id="path304" /></clipPath></defs><sodipodi:namedview
     id="namedview4"
     pagecolor="#ffffff"
     bordercolor="#666666"
     borderopacity="1.0"
     inkscape:pageshadow="2"
     inkscape:pageopacity="0.0"
     inkscape:pagecheckerboard="0" /><g
     id="g8"
     inkscape:groupmode="layer"
     inkscape:label="3fns_nnlo_n3lo"
     transform="matrix(1.3333333,0,0,1.3333333,0,1.2e-5)"><g
       id="g10"><path
         d="M 77.16,15.77 H 493.199 V 306.852 H 77.16 Z"
         style="fill:#ffffff;fill-opacity:1;fill-rule:nonzero;stroke:none"
         id="path12" /></g><g
       id="g14"><g
         id="g16"
         clip-path="url(#clipPath20)"><g
           id="g22"><g
             id="g24" /><g
             id="g50"><g
               clip-path="url(#clipPath28)"
               id="g48"><g
                 id="g46"><g
                   id="g44"><g
                     id="g34" /><g
                     id="g42"><g
                       clip-path="url(#clipPath32)"
                       id="g40"><g
                         id="g38"><path
                           d="m 69.098,-450.16 v 232.476 l 0.113,62.965 0.148,65.18 0.192,65.203 0.238,63.164 0.309,59.668 0.39,55.219 0.5,50.035 0.633,44.086 0.813,37.144 1.031,28.926 1.312,19.578 1.676,10.317 2.133,2.972 2.723,-1.808 3.464,-5.297 4.415,-8.777 5.628,-13.036 7.172,-19.269 9.137,-28.195 13.176,-41.664 13.172,-32.766 13.175,-21.59 13.176,-14.183 13.176,-9.086 13.176,-5.813 13.172,-4.16 13.175,-2.91 13.176,-2.281 13.176,-2.715 13.176,-0.012 13.172,1.215 13.175,0.527 13.176,3.711 13.176,5.449 13.176,6.41 13.176,5.813 13.171,4.434 13.176,5.277 13.176,7.551 13.176,8.031 13.176,3.629 13.171,4.371 13.176,0.359 13.176,2.559 13.176,0.598 13.176,-0.887 13.171,-0.524 13.176,-1.316 -13.176,-11.5 -13.171,-4.5 -13.176,-6.465 -13.176,-4.359 -13.176,-2.918 -13.176,-7.145 -13.171,-8.527 -13.176,-9.871 -13.176,-3.496 -13.176,-6.317 -13.176,-10.312 -13.171,-11.223 -13.176,-10.113 -13.176,-9.606 -13.176,-8.824 -13.176,-6.347 -13.175,-5.165 -13.172,-1.851 -13.176,0.226 -13.176,1.942 -13.176,4.262 -13.175,5.839 -13.172,8.055 -13.176,11.348 -13.176,15.844 -13.176,21.921 -13.175,28.258 -13.172,30.36 -13.176,29.382 -9.137,21.262 -7.172,16.664 -5.628,11.012 -4.415,4.57 -3.464,-2.508 -2.723,-10.32 -2.133,-18.008 -1.676,-24.328 -1.312,-29.711 -1.031,-35.652 -0.813,-42.867 -0.633,-50.825 -0.5,-58.562 -0.39,-65.32 -0.309,-70.664 -0.238,-74.59 -0.192,-77.457 -0.148,-79.852 z"
                           style="fill:#1e75b3;fill-opacity:0.2;fill-rule:nonzero;stroke:none"
                           id="path36" /></g></g></g></g></g></g></g></g><g
           id="g52"><g
             id="g54" /><g
             id="g80"><g
               clip-path="url(#clipPath58)"
               id="g78"><g
                 id="g76"><g
                   id="g74"><g
                     id="g64" /><g
                     id="g72"><g
                       clip-path="url(#clipPath62)"
                       id="g70"><g
                         id="g68"><path
                           d="m 69.098,-1196.543 v 250.781 l 0.113,107.496 0.148,118.977 0.192,127.57 0.238,132.801 0.309,134.652 0.39,133.168 0.5,128.328 0.633,120.122 0.813,108.628 1.031,94.036 1.312,77.039 1.676,59.277 2.133,42.969 2.723,29.058 3.464,16.387 4.415,3.891 5.628,-8.914 7.172,-23.391 9.137,-40.82 13.176,-65.617 13.172,-56.793 13.175,-41.914 13.176,-29.84 13.176,-20.473 13.176,-13.996 13.172,-10.231 13.175,-7.679 13.176,-5.961 13.176,-5.844 13.176,-3.312 13.172,-2.012 13.175,-2.192 13.176,1.356 13.176,3.223 13.176,4.375 13.176,4.078 13.171,2.953 13.176,4.094 13.176,6.605 13.176,7.344 13.176,2.984 13.171,3.805 13.176,0.062 13.176,2.383 13.176,0.414 13.176,-0.937 13.171,-0.559 13.176,-1.41 -13.176,-11.387 -13.171,-4.457 -13.176,-6.402 -13.176,-4.18 -13.176,-2.601 -13.176,-6.758 -13.171,-8.156 -13.176,-9.34 -13.176,-2.727 -13.176,-5.433 -13.176,-9.129 -13.171,-9.727 -13.176,-8.301 -13.176,-7.617 -13.176,-6.57 -13.176,-3.735 -13.175,-2.277 -13.172,1.191 -13.176,3.336 -13.176,5.106 -13.176,7.793 -13.175,10.226 -13.172,14.137 -13.176,19.801 -13.176,27.406 -13.176,37.34 -13.175,47.992 -13.172,53.727 -13.176,53.562 -9.137,34.711 -7.172,21.024 -5.628,6.199 -4.415,-8.848 L 81.309,392.09 78.586,351.285 76.453,293.367 74.777,219.5 73.465,131.281 72.434,29.621 71.621,-84.812 l -0.633,-125.942 -0.5,-135.383 -0.39,-142.136 -0.309,-145.817 -0.238,-146.363 -0.192,-144.043 -0.148,-139.32 z"
                           style="fill:#2b9e2b;fill-opacity:0.2;fill-rule:nonzero;stroke:none"
                           id="path66" /></g></g></g></g></g></g></g></g></g></g><g
       id="g82"><g
         id="g84"><path
           d="m 153.578,306.852 v 3.5"
           style="fill:none;stroke:#000000;stroke-width:0.8;stroke-linecap:butt;stroke-linejoin:round;stroke-miterlimit:10;stroke-dasharray:none;stroke-opacity:1"
           id="path86" /></g><path
         d="m 151.102,319.32 c 0,-1.156 -0.063,-2.281 -0.579,-3.343 -0.562,-1.157 -1.562,-1.469 -2.25,-1.469 -0.812,0 -1.796,0.406 -2.312,1.562 -0.391,0.875 -0.531,1.75 -0.531,3.25 0,1.36 0.093,2.375 0.593,3.36 0.547,1.062 1.5,1.406 2.235,1.406 1.219,0 1.906,-0.734 2.312,-1.531 0.5,-1.047 0.532,-2.422 0.532,-3.235 z m -2.844,4.485 c -0.453,0 -1.36,-0.25 -1.625,-1.782 -0.156,-0.828 -0.156,-1.89 -0.156,-2.859 0,-1.156 0,-2.187 0.234,-3 0.234,-0.937 0.937,-1.375 1.547,-1.375 0.531,0 1.344,0.328 1.609,1.516 0.172,0.797 0.172,1.906 0.172,2.859 0,0.922 0,1.984 -0.156,2.844 -0.266,1.531 -1.141,1.797 -1.625,1.797 z"
         style="fill:#000000;fill-opacity:1;fill-rule:nonzero;stroke:none"
         id="path88" /><path
         d="m 154.242,323.117 c 0,-0.406 -0.328,-0.687 -0.672,-0.687 -0.39,0 -0.672,0.343 -0.672,0.672 0,0.406 0.329,0.687 0.672,0.687 0.391,0 0.672,-0.328 0.672,-0.672 z"
         style="fill:#000000;fill-opacity:1;fill-rule:nonzero;stroke:none"
         id="path90" /><path
         d="m 161.613,321.445 h -0.312 c -0.031,0.235 -0.156,1 -0.281,1.235 -0.11,0.125 -0.907,0.125 -1.313,0.125 h -2.594 c 0.375,-0.328 1.235,-1.219 1.594,-1.563 2.125,-1.953 2.906,-2.672 2.906,-4.047 0,-1.609 -1.265,-2.687 -2.89,-2.687 -1.625,0 -2.563,1.39 -2.563,2.578 0,0.719 0.61,0.719 0.656,0.719 0.282,0 0.657,-0.203 0.657,-0.657 0,-0.39 -0.266,-0.656 -0.657,-0.656 -0.125,0 -0.156,0 -0.203,0.016 0.266,-0.953 1.016,-1.594 1.922,-1.594 1.188,0 1.922,0.984 1.922,2.281 0,1.188 -0.687,2.219 -1.484,3.11 l -2.813,3.156 v 0.328 h 5.094 z"
         style="fill:#000000;fill-opacity:1;fill-rule:nonzero;stroke:none"
         id="path92" /><g
         id="g94"><path
           d="m 238.484,306.852 v 3.5"
           style="fill:none;stroke:#000000;stroke-width:0.8;stroke-linecap:butt;stroke-linejoin:round;stroke-miterlimit:10;stroke-dasharray:none;stroke-opacity:1"
           id="path96" /></g><path
         d="m 236.008,319.32 c 0,-1.156 -0.063,-2.281 -0.578,-3.343 -0.563,-1.157 -1.563,-1.469 -2.25,-1.469 -0.813,0 -1.797,0.406 -2.313,1.562 -0.39,0.875 -0.531,1.75 -0.531,3.25 0,1.36 0.094,2.375 0.594,3.36 0.547,1.062 1.5,1.406 2.234,1.406 1.219,0 1.906,-0.734 2.313,-1.531 0.5,-1.047 0.531,-2.422 0.531,-3.235 z m -2.844,4.485 c -0.453,0 -1.359,-0.25 -1.625,-1.782 -0.156,-0.828 -0.156,-1.89 -0.156,-2.859 0,-1.156 0,-2.187 0.234,-3 0.235,-0.937 0.938,-1.375 1.547,-1.375 0.531,0 1.344,0.328 1.609,1.516 0.172,0.797 0.172,1.906 0.172,2.859 0,0.922 0,1.984 -0.156,2.844 -0.266,1.531 -1.141,1.797 -1.625,1.797 z"
         style="fill:#000000;fill-opacity:1;fill-rule:nonzero;stroke:none"
         id="path98" /><path
         d="m 239.148,323.117 c 0,-0.406 -0.328,-0.687 -0.671,-0.687 -0.391,0 -0.672,0.343 -0.672,0.672 0,0.406 0.328,0.687 0.672,0.687 0.39,0 0.671,-0.328 0.671,-0.672 z"
         style="fill:#000000;fill-opacity:1;fill-rule:nonzero;stroke:none"
         id="path100" /><path
         d="m 245.41,314.711 c 0,-0.266 0,-0.344 -0.187,-0.344 -0.11,0 -0.157,0 -0.266,0.172 l -4.203,6.516 v 0.406 h 3.672 v 1.266 c 0,0.515 -0.031,0.656 -1.047,0.656 h -0.281 v 0.406 c 0.328,-0.031 1.422,-0.031 1.812,-0.031 0.391,0 1.516,0 1.828,0.031 v -0.406 h -0.281 c -1,0 -1.047,-0.141 -1.047,-0.656 v -1.266 h 1.422 v -0.406 h -1.422 z m -0.922,1.078 v 5.266 h -3.39 z"
         style="fill:#000000;fill-opacity:1;fill-rule:nonzero;stroke:none"
         id="path102" /><g
         id="g104"><path
           d="m 323.387,306.852 v 3.5"
           style="fill:none;stroke:#000000;stroke-width:0.8;stroke-linecap:butt;stroke-linejoin:round;stroke-miterlimit:10;stroke-dasharray:none;stroke-opacity:1"
           id="path106" /></g><path
         d="m 320.914,319.32 c 0,-1.156 -0.062,-2.281 -0.578,-3.343 -0.563,-1.157 -1.563,-1.469 -2.25,-1.469 -0.813,0 -1.797,0.406 -2.313,1.562 -0.39,0.875 -0.531,1.75 -0.531,3.25 0,1.36 0.094,2.375 0.594,3.36 0.547,1.062 1.5,1.406 2.234,1.406 1.219,0 1.907,-0.734 2.313,-1.531 0.5,-1.047 0.531,-2.422 0.531,-3.235 z m -2.844,4.485 c -0.453,0 -1.359,-0.25 -1.625,-1.782 -0.156,-0.828 -0.156,-1.89 -0.156,-2.859 0,-1.156 0,-2.187 0.234,-3 0.235,-0.937 0.938,-1.375 1.547,-1.375 0.532,0 1.344,0.328 1.61,1.516 0.172,0.797 0.172,1.906 0.172,2.859 0,0.922 0,1.984 -0.157,2.844 -0.265,1.531 -1.14,1.797 -1.625,1.797 z"
         style="fill:#000000;fill-opacity:1;fill-rule:nonzero;stroke:none"
         id="path108" /><path
         d="m 324.055,323.117 c 0,-0.406 -0.328,-0.687 -0.672,-0.687 -0.391,0 -0.672,0.343 -0.672,0.672 0,0.406 0.328,0.687 0.672,0.687 0.39,0 0.672,-0.328 0.672,-0.672 z"
         style="fill:#000000;fill-opacity:1;fill-rule:nonzero;stroke:none"
         id="path110" /><path
         d="m 327.004,318.93 c 0,-3.532 1.719,-4.078 2.469,-4.078 0.5,0 1,0.14 1.265,0.562 -0.172,0 -0.687,0 -0.687,0.578 0,0.297 0.203,0.563 0.562,0.563 0.344,0 0.594,-0.203 0.594,-0.61 0,-0.718 -0.531,-1.437 -1.75,-1.437 -1.766,0 -3.594,1.797 -3.594,4.875 0,3.828 1.672,4.703 2.86,4.703 1.515,0 2.812,-1.328 2.812,-3.141 0,-1.859 -1.297,-3.093 -2.687,-3.093 -1.25,0 -1.703,1.062 -1.844,1.453 z m 1.719,4.781 c -0.891,0 -1.297,-0.781 -1.422,-1.078 -0.125,-0.36 -0.266,-1.047 -0.266,-2.031 0,-1.094 0.5,-2.485 1.75,-2.485 0.766,0 1.172,0.516 1.391,1 0.219,0.516 0.219,1.219 0.219,1.813 0,0.703 0,1.343 -0.266,1.875 -0.344,0.656 -0.859,0.906 -1.406,0.906 z"
         style="fill:#000000;fill-opacity:1;fill-rule:nonzero;stroke:none"
         id="path112" /><g
         id="g114"><path
           d="m 408.293,306.852 v 3.5"
           style="fill:none;stroke:#000000;stroke-width:0.8;stroke-linecap:butt;stroke-linejoin:round;stroke-miterlimit:10;stroke-dasharray:none;stroke-opacity:1"
           id="path116" /></g><path
         d="m 405.82,319.32 c 0,-1.156 -0.062,-2.281 -0.578,-3.343 -0.562,-1.157 -1.562,-1.469 -2.25,-1.469 -0.812,0 -1.797,0.406 -2.312,1.562 -0.391,0.875 -0.532,1.75 -0.532,3.25 0,1.36 0.094,2.375 0.594,3.36 0.547,1.062 1.5,1.406 2.235,1.406 1.218,0 1.906,-0.734 2.312,-1.531 0.5,-1.047 0.531,-2.422 0.531,-3.235 z m -2.843,4.485 c -0.454,0 -1.36,-0.25 -1.625,-1.782 -0.157,-0.828 -0.157,-1.89 -0.157,-2.859 0,-1.156 0,-2.187 0.235,-3 0.234,-0.937 0.937,-1.375 1.547,-1.375 0.531,0 1.343,0.328 1.609,1.516 0.172,0.797 0.172,1.906 0.172,2.859 0,0.922 0,1.984 -0.156,2.844 -0.266,1.531 -1.141,1.797 -1.625,1.797 z"
         style="fill:#000000;fill-opacity:1;fill-rule:nonzero;stroke:none"
         id="path118" /><path
         d="m 408.961,323.117 c 0,-0.406 -0.328,-0.687 -0.672,-0.687 -0.391,0 -0.672,0.343 -0.672,0.672 0,0.406 0.328,0.687 0.672,0.687 0.391,0 0.672,-0.328 0.672,-0.672 z"
         style="fill:#000000;fill-opacity:1;fill-rule:nonzero;stroke:none"
         id="path120" /><path
         d="m 414.348,318.758 c 0.703,-0.375 1.718,-1.031 1.718,-2.203 0,-1.203 -1.171,-2.047 -2.453,-2.047 -1.39,0 -2.468,1.015 -2.468,2.297 0,0.468 0.14,0.937 0.531,1.422 0.14,0.171 0.156,0.187 1.14,0.875 -1.359,0.625 -2.046,1.562 -2.046,2.578 0,1.484 1.406,2.406 2.828,2.406 1.547,0 2.843,-1.141 2.843,-2.609 0,-1.422 -1,-2.063 -2.093,-2.719 z m -1.891,-1.266 c -0.187,-0.125 -0.75,-0.484 -0.75,-1.172 0,-0.906 0.953,-1.468 1.891,-1.468 1,0 1.89,0.718 1.89,1.718 0,0.86 -0.609,1.547 -1.422,1.985 z m 0.656,1.797 1.688,1.109 c 0.359,0.235 1,0.672 1,1.516 0,1.063 -1.078,1.797 -2.188,1.797 -1.187,0 -2.203,-0.875 -2.203,-2.031 0,-1.078 0.797,-1.969 1.703,-2.391 z"
         style="fill:#000000;fill-opacity:1;fill-rule:nonzero;stroke:none"
         id="path122" /><path
         d="m 289.074,336.832 c -0.625,0.109 -0.875,0.594 -0.875,0.969 0,0.484 0.375,0.64 0.656,0.64 0.61,0 1.016,-0.515 1.016,-1.046 0,-0.844 -0.953,-1.219 -1.781,-1.219 -1.219,0 -1.906,1.187 -2.078,1.562 -0.453,-1.484 -1.688,-1.562 -2.047,-1.562 -2.031,0 -3.11,2.609 -3.11,3.047 0,0.078 0.079,0.172 0.219,0.172 0.156,0 0.203,-0.11 0.235,-0.188 0.671,-2.219 2.015,-2.641 2.593,-2.641 0.891,0 1.078,0.844 1.078,1.313 0,0.437 -0.125,0.906 -0.359,1.859 l -0.687,2.735 c -0.297,1.187 -0.875,2.281 -1.922,2.281 -0.11,0 -0.61,0 -1.016,-0.25 0.719,-0.141 0.875,-0.734 0.875,-0.984 0,-0.391 -0.297,-0.641 -0.687,-0.641 -0.469,0 -0.985,0.422 -0.985,1.062 0,0.844 0.938,1.219 1.781,1.219 0.969,0 1.641,-0.765 2.063,-1.578 0.312,1.172 1.312,1.578 2.047,1.578 2.031,0 3.109,-2.609 3.109,-3.047 0,-0.109 -0.078,-0.187 -0.203,-0.187 -0.172,0 -0.203,0.109 -0.25,0.265 -0.547,1.75 -1.703,2.563 -2.594,2.563 -0.703,0 -1.078,-0.516 -1.078,-1.328 0,-0.438 0.078,-0.766 0.406,-2.078 l 0.688,-2.703 c 0.297,-1.204 0.984,-2.079 1.891,-2.079 0.046,0 0.609,0 1.015,0.266 z"
         style="fill:#000000;fill-opacity:1;fill-rule:nonzero;stroke:none"
         id="path124" /><g
         id="g126"><path
           d="m 77.16,306.852 h -3.5"
           style="fill:none;stroke:#000000;stroke-width:0.8;stroke-linecap:butt;stroke-linejoin:round;stroke-miterlimit:10;stroke-dasharray:none;stroke-opacity:1"
           id="path128" /></g><path
         d="m 44.223,308.617 c 0.25,0 0.5,0 0.5,-0.281 0,-0.281 -0.25,-0.281 -0.5,-0.281 h -7.547 c -0.235,0 -0.485,0 -0.485,0.281 0,0.281 0.25,0.281 0.485,0.281 z"
         style="fill:#000000;fill-opacity:1;fill-rule:nonzero;stroke:none"
         id="path130" /><path
         d="m 52.133,307.352 c 0,-1.157 -0.063,-2.282 -0.578,-3.344 -0.563,-1.156 -1.563,-1.469 -2.25,-1.469 -0.813,0 -1.797,0.406 -2.313,1.563 -0.39,0.875 -0.531,1.75 -0.531,3.25 0,1.359 0.094,2.375 0.594,3.359 0.547,1.062 1.5,1.406 2.234,1.406 1.219,0 1.906,-0.734 2.313,-1.531 0.5,-1.047 0.531,-2.422 0.531,-3.234 z m -2.844,4.484 c -0.453,0 -1.359,-0.25 -1.625,-1.781 -0.156,-0.828 -0.156,-1.891 -0.156,-2.86 0,-1.156 0,-2.187 0.234,-3 0.235,-0.937 0.938,-1.375 1.547,-1.375 0.531,0 1.344,0.328 1.609,1.516 0.172,0.797 0.172,1.906 0.172,2.859 0,0.922 0,1.985 -0.156,2.844 -0.266,1.531 -1.141,1.797 -1.625,1.797 z"
         style="fill:#000000;fill-opacity:1;fill-rule:nonzero;stroke:none"
         id="path132" /><path
         d="m 55.273,311.148 c 0,-0.406 -0.328,-0.687 -0.671,-0.687 -0.391,0 -0.672,0.344 -0.672,0.672 0,0.406 0.328,0.687 0.672,0.687 0.39,0 0.671,-0.328 0.671,-0.672 z"
         style="fill:#000000;fill-opacity:1;fill-rule:nonzero;stroke:none"
         id="path134" /><path
         d="m 62.754,307.352 c 0,-1.157 -0.063,-2.282 -0.578,-3.344 -0.563,-1.156 -1.563,-1.469 -2.25,-1.469 -0.813,0 -1.797,0.406 -2.313,1.563 -0.39,0.875 -0.531,1.75 -0.531,3.25 0,1.359 0.094,2.375 0.594,3.359 0.547,1.062 1.5,1.406 2.234,1.406 1.219,0 1.906,-0.734 2.313,-1.531 0.5,-1.047 0.531,-2.422 0.531,-3.234 z m -2.844,4.484 c -0.453,0 -1.359,-0.25 -1.625,-1.781 -0.156,-0.828 -0.156,-1.891 -0.156,-2.86 0,-1.156 0,-2.187 0.234,-3 0.235,-0.937 0.938,-1.375 1.547,-1.375 0.531,0 1.344,0.328 1.61,1.516 0.171,0.797 0.171,1.906 0.171,2.859 0,0.922 0,1.985 -0.156,2.844 -0.265,1.531 -1.14,1.797 -1.625,1.797 z"
         style="fill:#000000;fill-opacity:1;fill-rule:nonzero;stroke:none"
         id="path136" /><path
         d="m 69.465,309.477 h -0.313 c -0.031,0.234 -0.156,1 -0.281,1.234 -0.109,0.125 -0.906,0.125 -1.312,0.125 h -2.594 c 0.375,-0.328 1.234,-1.219 1.594,-1.563 2.125,-1.953 2.906,-2.671 2.906,-4.046 0,-1.61 -1.266,-2.688 -2.891,-2.688 -1.625,0 -2.562,1.391 -2.562,2.578 0,0.719 0.609,0.719 0.656,0.719 0.281,0 0.656,-0.203 0.656,-0.656 0,-0.391 -0.265,-0.657 -0.656,-0.657 -0.125,0 -0.156,0 -0.203,0.016 0.265,-0.953 1.015,-1.594 1.922,-1.594 1.187,0 1.922,0.985 1.922,2.282 0,1.187 -0.688,2.218 -1.485,3.109 l -2.812,3.156 v 0.328 h 5.093 z"
         style="fill:#000000;fill-opacity:1;fill-rule:nonzero;stroke:none"
         id="path138" /><g
         id="g140"><path
           d="m 77.16,248.633 h -3.5"
           style="fill:none;stroke:#000000;stroke-width:0.8;stroke-linecap:butt;stroke-linejoin:round;stroke-miterlimit:10;stroke-dasharray:none;stroke-opacity:1"
           id="path142" /></g><path
         d="m 44.223,250.398 c 0.25,0 0.5,0 0.5,-0.281 0,-0.281 -0.25,-0.281 -0.5,-0.281 h -7.547 c -0.235,0 -0.485,0 -0.485,0.281 0,0.281 0.25,0.281 0.485,0.281 z"
         style="fill:#000000;fill-opacity:1;fill-rule:nonzero;stroke:none"
         id="path144" /><path
         d="m 52.133,249.133 c 0,-1.156 -0.063,-2.281 -0.578,-3.344 -0.563,-1.156 -1.563,-1.469 -2.25,-1.469 -0.813,0 -1.797,0.407 -2.313,1.563 -0.39,0.875 -0.531,1.75 -0.531,3.25 0,1.359 0.094,2.375 0.594,3.359 0.547,1.063 1.5,1.406 2.234,1.406 1.219,0 1.906,-0.734 2.313,-1.531 0.5,-1.047 0.531,-2.422 0.531,-3.234 z m -2.844,4.484 c -0.453,0 -1.359,-0.25 -1.625,-1.781 -0.156,-0.828 -0.156,-1.891 -0.156,-2.859 0,-1.157 0,-2.188 0.234,-3 0.235,-0.938 0.938,-1.375 1.547,-1.375 0.531,0 1.344,0.328 1.609,1.515 0.172,0.797 0.172,1.906 0.172,2.86 0,0.921 0,1.984 -0.156,2.843 -0.266,1.532 -1.141,1.797 -1.625,1.797 z"
         style="fill:#000000;fill-opacity:1;fill-rule:nonzero;stroke:none"
         id="path146" /><path
         d="m 55.273,252.93 c 0,-0.407 -0.328,-0.688 -0.671,-0.688 -0.391,0 -0.672,0.344 -0.672,0.672 0,0.406 0.328,0.688 0.672,0.688 0.39,0 0.671,-0.329 0.671,-0.672 z"
         style="fill:#000000;fill-opacity:1;fill-rule:nonzero;stroke:none"
         id="path148" /><path
         d="m 62.754,249.133 c 0,-1.156 -0.063,-2.281 -0.578,-3.344 -0.563,-1.156 -1.563,-1.469 -2.25,-1.469 -0.813,0 -1.797,0.407 -2.313,1.563 -0.39,0.875 -0.531,1.75 -0.531,3.25 0,1.359 0.094,2.375 0.594,3.359 0.547,1.063 1.5,1.406 2.234,1.406 1.219,0 1.906,-0.734 2.313,-1.531 0.5,-1.047 0.531,-2.422 0.531,-3.234 z m -2.844,4.484 c -0.453,0 -1.359,-0.25 -1.625,-1.781 -0.156,-0.828 -0.156,-1.891 -0.156,-2.859 0,-1.157 0,-2.188 0.234,-3 0.235,-0.938 0.938,-1.375 1.547,-1.375 0.531,0 1.344,0.328 1.61,1.515 0.171,0.797 0.171,1.906 0.171,2.86 0,0.921 0,1.984 -0.156,2.843 -0.265,1.532 -1.14,1.797 -1.625,1.797 z"
         style="fill:#000000;fill-opacity:1;fill-rule:nonzero;stroke:none"
         id="path150" /><path
         d="m 67.34,244.664 c 0,-0.328 0,-0.344 -0.281,-0.344 -0.329,0.375 -1.032,0.891 -2.469,0.891 v 0.406 c 0.328,0 1.015,0 1.797,-0.359 v 7.265 c 0,0.5 -0.047,0.672 -1.282,0.672 h -0.421 v 0.407 c 0.375,-0.032 1.718,-0.032 2.187,-0.032 0.453,0 1.797,0 2.172,0.032 v -0.407 h -0.438 c -1.218,0 -1.265,-0.172 -1.265,-0.672 z"
         style="fill:#000000;fill-opacity:1;fill-rule:nonzero;stroke:none"
         id="path152" /><g
         id="g154"><path
           d="m 77.16,190.418 h -3.5"
           style="fill:none;stroke:#000000;stroke-width:0.8;stroke-linecap:butt;stroke-linejoin:round;stroke-miterlimit:10;stroke-dasharray:none;stroke-opacity:1"
           id="path156" /></g><path
         d="m 52.133,190.918 c 0,-1.156 -0.063,-2.281 -0.578,-3.344 -0.563,-1.156 -1.563,-1.469 -2.25,-1.469 -0.813,0 -1.797,0.407 -2.313,1.563 -0.39,0.875 -0.531,1.75 -0.531,3.25 0,1.359 0.094,2.375 0.594,3.359 0.547,1.063 1.5,1.407 2.234,1.407 1.219,0 1.906,-0.735 2.313,-1.532 0.5,-1.047 0.531,-2.422 0.531,-3.234 z m -2.844,4.484 c -0.453,0 -1.359,-0.25 -1.625,-1.781 -0.156,-0.828 -0.156,-1.891 -0.156,-2.859 0,-1.157 0,-2.188 0.234,-3 0.235,-0.938 0.938,-1.375 1.547,-1.375 0.531,0 1.344,0.328 1.609,1.515 0.172,0.797 0.172,1.907 0.172,2.86 0,0.922 0,1.984 -0.156,2.843 -0.266,1.532 -1.141,1.797 -1.625,1.797 z"
         style="fill:#000000;fill-opacity:1;fill-rule:nonzero;stroke:none"
         id="path158" /><path
         d="m 55.273,194.715 c 0,-0.406 -0.328,-0.688 -0.671,-0.688 -0.391,0 -0.672,0.344 -0.672,0.672 0,0.406 0.328,0.688 0.672,0.688 0.39,0 0.671,-0.328 0.671,-0.672 z"
         style="fill:#000000;fill-opacity:1;fill-rule:nonzero;stroke:none"
         id="path160" /><path
         d="m 62.754,190.918 c 0,-1.156 -0.063,-2.281 -0.578,-3.344 -0.563,-1.156 -1.563,-1.469 -2.25,-1.469 -0.813,0 -1.797,0.407 -2.313,1.563 -0.39,0.875 -0.531,1.75 -0.531,3.25 0,1.359 0.094,2.375 0.594,3.359 0.547,1.063 1.5,1.407 2.234,1.407 1.219,0 1.906,-0.735 2.313,-1.532 0.5,-1.047 0.531,-2.422 0.531,-3.234 z m -2.844,4.484 c -0.453,0 -1.359,-0.25 -1.625,-1.781 -0.156,-0.828 -0.156,-1.891 -0.156,-2.859 0,-1.157 0,-2.188 0.234,-3 0.235,-0.938 0.938,-1.375 1.547,-1.375 0.531,0 1.344,0.328 1.61,1.515 0.171,0.797 0.171,1.907 0.171,2.86 0,0.922 0,1.984 -0.156,2.843 -0.265,1.532 -1.14,1.797 -1.625,1.797 z"
         style="fill:#000000;fill-opacity:1;fill-rule:nonzero;stroke:none"
         id="path162" /><path
         d="m 69.574,190.918 c 0,-1.156 -0.062,-2.281 -0.578,-3.344 -0.562,-1.156 -1.562,-1.469 -2.25,-1.469 -0.812,0 -1.797,0.407 -2.312,1.563 -0.391,0.875 -0.532,1.75 -0.532,3.25 0,1.359 0.094,2.375 0.594,3.359 0.547,1.063 1.5,1.407 2.234,1.407 1.219,0 1.907,-0.735 2.313,-1.532 0.5,-1.047 0.531,-2.422 0.531,-3.234 z m -2.844,4.484 c -0.453,0 -1.359,-0.25 -1.625,-1.781 -0.156,-0.828 -0.156,-1.891 -0.156,-2.859 0,-1.157 0,-2.188 0.235,-3 0.234,-0.938 0.937,-1.375 1.546,-1.375 0.532,0 1.344,0.328 1.61,1.515 0.172,0.797 0.172,1.907 0.172,2.86 0,0.922 0,1.984 -0.157,2.843 -0.265,1.532 -1.14,1.797 -1.625,1.797 z"
         style="fill:#000000;fill-opacity:1;fill-rule:nonzero;stroke:none"
         id="path164" /><g
         id="g166"><path
           d="m 77.16,132.203 h -3.5"
           style="fill:none;stroke:#000000;stroke-width:0.8;stroke-linecap:butt;stroke-linejoin:round;stroke-miterlimit:10;stroke-dasharray:none;stroke-opacity:1"
           id="path168" /></g><path
         d="m 52.133,132.703 c 0,-1.156 -0.063,-2.281 -0.578,-3.344 -0.563,-1.156 -1.563,-1.468 -2.25,-1.468 -0.813,0 -1.797,0.406 -2.313,1.562 -0.39,0.875 -0.531,1.75 -0.531,3.25 0,1.359 0.094,2.375 0.594,3.359 0.547,1.063 1.5,1.407 2.234,1.407 1.219,0 1.906,-0.735 2.313,-1.531 0.5,-1.047 0.531,-2.422 0.531,-3.235 z m -2.844,4.485 c -0.453,0 -1.359,-0.25 -1.625,-1.782 -0.156,-0.828 -0.156,-1.89 -0.156,-2.859 0,-1.156 0,-2.188 0.234,-3 0.235,-0.938 0.938,-1.375 1.547,-1.375 0.531,0 1.344,0.328 1.609,1.516 0.172,0.796 0.172,1.906 0.172,2.859 0,0.922 0,1.984 -0.156,2.844 -0.266,1.531 -1.141,1.797 -1.625,1.797 z"
         style="fill:#000000;fill-opacity:1;fill-rule:nonzero;stroke:none"
         id="path170" /><path
         d="m 55.273,136.5 c 0,-0.406 -0.328,-0.688 -0.671,-0.688 -0.391,0 -0.672,0.344 -0.672,0.672 0,0.407 0.328,0.688 0.672,0.688 0.39,0 0.671,-0.328 0.671,-0.672 z"
         style="fill:#000000;fill-opacity:1;fill-rule:nonzero;stroke:none"
         id="path172" /><path
         d="m 62.754,132.703 c 0,-1.156 -0.063,-2.281 -0.578,-3.344 -0.563,-1.156 -1.563,-1.468 -2.25,-1.468 -0.813,0 -1.797,0.406 -2.313,1.562 -0.39,0.875 -0.531,1.75 -0.531,3.25 0,1.359 0.094,2.375 0.594,3.359 0.547,1.063 1.5,1.407 2.234,1.407 1.219,0 1.906,-0.735 2.313,-1.531 0.5,-1.047 0.531,-2.422 0.531,-3.235 z m -2.844,4.485 c -0.453,0 -1.359,-0.25 -1.625,-1.782 -0.156,-0.828 -0.156,-1.89 -0.156,-2.859 0,-1.156 0,-2.188 0.234,-3 0.235,-0.938 0.938,-1.375 1.547,-1.375 0.531,0 1.344,0.328 1.61,1.516 0.171,0.796 0.171,1.906 0.171,2.859 0,0.922 0,1.984 -0.156,2.844 -0.265,1.531 -1.14,1.797 -1.625,1.797 z"
         style="fill:#000000;fill-opacity:1;fill-rule:nonzero;stroke:none"
         id="path174" /><path
         d="m 67.34,128.234 c 0,-0.328 0,-0.343 -0.281,-0.343 -0.329,0.375 -1.032,0.89 -2.469,0.89 v 0.407 c 0.328,0 1.015,0 1.797,-0.36 v 7.266 c 0,0.5 -0.047,0.672 -1.282,0.672 h -0.421 v 0.406 c 0.375,-0.031 1.718,-0.031 2.187,-0.031 0.453,0 1.797,0 2.172,0.031 v -0.406 h -0.438 c -1.218,0 -1.265,-0.172 -1.265,-0.672 z"
         style="fill:#000000;fill-opacity:1;fill-rule:nonzero;stroke:none"
         id="path176" /><g
         id="g178"><path
           d="m 77.16,73.984 h -3.5"
           style="fill:none;stroke:#000000;stroke-width:0.8;stroke-linecap:butt;stroke-linejoin:round;stroke-miterlimit:10;stroke-dasharray:none;stroke-opacity:1"
           id="path180" /></g><path
         d="m 52.133,74.484 c 0,-1.156 -0.063,-2.281 -0.578,-3.343 -0.563,-1.157 -1.563,-1.469 -2.25,-1.469 -0.813,0 -1.797,0.406 -2.313,1.562 -0.39,0.875 -0.531,1.75 -0.531,3.25 0,1.36 0.094,2.375 0.594,3.36 0.547,1.062 1.5,1.406 2.234,1.406 1.219,0 1.906,-0.734 2.313,-1.531 0.5,-1.047 0.531,-2.422 0.531,-3.235 z m -2.844,4.485 c -0.453,0 -1.359,-0.25 -1.625,-1.781 -0.156,-0.829 -0.156,-1.891 -0.156,-2.86 0,-1.156 0,-2.187 0.234,-3 0.235,-0.937 0.938,-1.375 1.547,-1.375 0.531,0 1.344,0.328 1.609,1.516 0.172,0.797 0.172,1.906 0.172,2.859 0,0.922 0,1.984 -0.156,2.844 -0.266,1.531 -1.141,1.797 -1.625,1.797 z"
         style="fill:#000000;fill-opacity:1;fill-rule:nonzero;stroke:none"
         id="path182" /><path
         d="m 55.273,78.281 c 0,-0.406 -0.328,-0.687 -0.671,-0.687 -0.391,0 -0.672,0.344 -0.672,0.672 0,0.406 0.328,0.687 0.672,0.687 0.39,0 0.671,-0.328 0.671,-0.672 z"
         style="fill:#000000;fill-opacity:1;fill-rule:nonzero;stroke:none"
         id="path184" /><path
         d="m 62.754,74.484 c 0,-1.156 -0.063,-2.281 -0.578,-3.343 -0.563,-1.157 -1.563,-1.469 -2.25,-1.469 -0.813,0 -1.797,0.406 -2.313,1.562 -0.39,0.875 -0.531,1.75 -0.531,3.25 0,1.36 0.094,2.375 0.594,3.36 0.547,1.062 1.5,1.406 2.234,1.406 1.219,0 1.906,-0.734 2.313,-1.531 0.5,-1.047 0.531,-2.422 0.531,-3.235 z m -2.844,4.485 c -0.453,0 -1.359,-0.25 -1.625,-1.781 -0.156,-0.829 -0.156,-1.891 -0.156,-2.86 0,-1.156 0,-2.187 0.234,-3 0.235,-0.937 0.938,-1.375 1.547,-1.375 0.531,0 1.344,0.328 1.61,1.516 0.171,0.797 0.171,1.906 0.171,2.859 0,0.922 0,1.984 -0.156,2.844 -0.265,1.531 -1.14,1.797 -1.625,1.797 z"
         style="fill:#000000;fill-opacity:1;fill-rule:nonzero;stroke:none"
         id="path186" /><path
         d="m 69.465,76.609 h -0.313 c -0.031,0.235 -0.156,1 -0.281,1.235 -0.109,0.125 -0.906,0.125 -1.312,0.125 h -2.594 c 0.375,-0.328 1.234,-1.219 1.594,-1.563 2.125,-1.953 2.906,-2.672 2.906,-4.047 0,-1.609 -1.266,-2.687 -2.891,-2.687 -1.625,0 -2.562,1.39 -2.562,2.578 0,0.719 0.609,0.719 0.656,0.719 0.281,0 0.656,-0.203 0.656,-0.657 0,-0.39 -0.265,-0.656 -0.656,-0.656 -0.125,0 -0.156,0 -0.203,0.016 0.265,-0.953 1.015,-1.594 1.922,-1.594 1.187,0 1.922,0.984 1.922,2.281 0,1.188 -0.688,2.219 -1.485,3.11 l -2.812,3.156 v 0.328 h 5.093 z"
         style="fill:#000000;fill-opacity:1;fill-rule:nonzero;stroke:none"
         id="path188" /><g
         id="g190"><path
           d="m 77.16,15.77 h -3.5"
           style="fill:none;stroke:#000000;stroke-width:0.8;stroke-linecap:butt;stroke-linejoin:round;stroke-miterlimit:10;stroke-dasharray:none;stroke-opacity:1"
           id="path192" /></g><path
         d="m 52.133,16.27 c 0,-1.157 -0.063,-2.282 -0.578,-3.344 -0.563,-1.156 -1.563,-1.469 -2.25,-1.469 -0.813,0 -1.797,0.406 -2.313,1.563 -0.39,0.875 -0.531,1.75 -0.531,3.25 0,1.359 0.094,2.375 0.594,3.359 0.547,1.062 1.5,1.406 2.234,1.406 1.219,0 1.906,-0.734 2.313,-1.531 0.5,-1.047 0.531,-2.422 0.531,-3.234 z m -2.844,4.484 c -0.453,0 -1.359,-0.25 -1.625,-1.781 -0.156,-0.828 -0.156,-1.891 -0.156,-2.86 0,-1.156 0,-2.187 0.234,-3 0.235,-0.937 0.938,-1.375 1.547,-1.375 0.531,0 1.344,0.328 1.609,1.516 0.172,0.797 0.172,1.906 0.172,2.859 0,0.922 0,1.985 -0.156,2.844 -0.266,1.531 -1.141,1.797 -1.625,1.797 z"
         style="fill:#000000;fill-opacity:1;fill-rule:nonzero;stroke:none"
         id="path194" /><path
         d="m 55.273,20.066 c 0,-0.406 -0.328,-0.687 -0.671,-0.687 -0.391,0 -0.672,0.344 -0.672,0.672 0,0.406 0.328,0.687 0.672,0.687 0.39,0 0.671,-0.328 0.671,-0.672 z"
         style="fill:#000000;fill-opacity:1;fill-rule:nonzero;stroke:none"
         id="path196" /><path
         d="m 62.754,16.27 c 0,-1.157 -0.063,-2.282 -0.578,-3.344 -0.563,-1.156 -1.563,-1.469 -2.25,-1.469 -0.813,0 -1.797,0.406 -2.313,1.563 -0.39,0.875 -0.531,1.75 -0.531,3.25 0,1.359 0.094,2.375 0.594,3.359 0.547,1.062 1.5,1.406 2.234,1.406 1.219,0 1.906,-0.734 2.313,-1.531 0.5,-1.047 0.531,-2.422 0.531,-3.234 z m -2.844,4.484 c -0.453,0 -1.359,-0.25 -1.625,-1.781 -0.156,-0.828 -0.156,-1.891 -0.156,-2.86 0,-1.156 0,-2.187 0.234,-3 0.235,-0.937 0.938,-1.375 1.547,-1.375 0.531,0 1.344,0.328 1.61,1.516 0.171,0.797 0.171,1.906 0.171,2.859 0,0.922 0,1.985 -0.156,2.844 -0.265,1.531 -1.14,1.797 -1.625,1.797 z"
         style="fill:#000000;fill-opacity:1;fill-rule:nonzero;stroke:none"
         id="path198" /><path
         d="m 65.887,15.723 c -0.235,0.015 -0.282,0.031 -0.282,0.156 0,0.141 0.063,0.141 0.313,0.141 h 0.641 c 1.187,0 1.718,0.984 1.718,2.312 0,1.828 -0.953,2.328 -1.625,2.328 -0.672,0 -1.828,-0.328 -2.218,-1.25 0.437,0.078 0.843,-0.172 0.843,-0.687 0,-0.391 -0.297,-0.672 -0.687,-0.672 -0.328,0 -0.688,0.187 -0.688,0.719 0,1.25 1.235,2.265 2.782,2.265 1.656,0 2.89,-1.281 2.89,-2.687 0,-1.282 -1.031,-2.282 -2.375,-2.516 1.219,-0.359 2,-1.375 2,-2.469 0,-1.093 -1.14,-1.906 -2.5,-1.906 -1.39,0 -2.422,0.859 -2.422,1.875 0,0.563 0.422,0.672 0.641,0.672 0.297,0 0.625,-0.219 0.625,-0.641 0,-0.437 -0.328,-0.64 -0.641,-0.64 -0.078,0 -0.109,0 -0.156,0.015 0.531,-0.937 1.844,-0.937 1.906,-0.937 0.469,0 1.375,0.203 1.375,1.562 0,0.266 -0.047,1.047 -0.453,1.657 -0.406,0.609 -0.89,0.656 -1.265,0.671 z"
         style="fill:#000000;fill-opacity:1;fill-rule:nonzero;stroke:none"
         id="path200" /><path
         d="m 17.945,179.773 c 0.11,0.625 0.594,0.875 0.969,0.875 0.484,0 0.641,-0.375 0.641,-0.656 0,-0.609 -0.516,-1.015 -1.047,-1.015 -0.844,0 -1.219,0.953 -1.219,1.781 0,1.219 1.188,1.906 1.563,2.078 -1.485,0.453 -1.563,1.687 -1.563,2.047 0,2.031 2.609,3.109 3.047,3.109 0.078,0 0.172,-0.078 0.172,-0.219 0,-0.156 -0.11,-0.203 -0.188,-0.234 -2.218,-0.672 -2.64,-2.016 -2.64,-2.594 0,-0.89 0.843,-1.078 1.312,-1.078 0.438,0 0.906,0.125 1.86,0.36 l 2.734,0.687 c 1.187,0.297 2.281,0.875 2.281,1.922 0,0.109 0,0.609 -0.25,1.016 -0.14,-0.719 -0.734,-0.875 -0.984,-0.875 -0.391,0 -0.641,0.296 -0.641,0.687 0,0.469 0.422,0.984 1.063,0.984 0.843,0 1.218,-0.937 1.218,-1.781 0,-0.969 -0.765,-1.64 -1.578,-2.062 1.172,-0.313 1.578,-1.313 1.578,-2.047 0,-2.031 -2.609,-3.11 -3.046,-3.11 -0.11,0 -0.188,0.079 -0.188,0.204 0,0.171 0.109,0.203 0.266,0.25 1.75,0.546 2.562,1.703 2.562,2.593 0,0.703 -0.515,1.078 -1.328,1.078 -0.437,0 -0.766,-0.078 -2.078,-0.406 l -2.703,-0.687 c -1.203,-0.297 -2.078,-0.985 -2.078,-1.891 0,-0.047 0,-0.609 0.265,-1.016 z"
         style="fill:#000000;fill-opacity:1;fill-rule:nonzero;stroke:none"
         id="path202" /><path
         d="m 18.586,170.336 c 0,0.391 0,0.562 0.234,0.844 0.094,0.125 0.391,0.343 0.719,0.343 0.391,0 0.641,-0.296 0.641,-0.687 0,-0.469 -0.407,-1.016 -1.203,-1.016 -0.954,0 -1.688,0.922 -1.688,2.297 0,2.61 2.844,5.219 5.672,5.219 1.734,0 3.312,-1.078 3.312,-3.109 0,-2.704 -2.109,-4.422 -2.375,-4.422 -0.125,0 -0.218,0.125 -0.218,0.203 0,0.062 0.015,0.078 0.203,0.25 1.687,1.281 1.984,3.172 1.984,3.937 0,1.375 -1.187,1.813 -2.187,1.813 -0.703,0 -2.625,-0.344 -3.985,-1.063 -0.937,-0.515 -2.015,-1.593 -2.015,-2.843 0,-0.266 0.047,-1.36 0.906,-1.766 z"
         style="fill:#000000;fill-opacity:1;fill-rule:nonzero;stroke:none"
         id="path204" /><path
         d="m 15.621,164.164 v -3.859 c 0,-0.188 0,-0.438 -0.25,-0.438 -0.266,0 -0.266,0.235 -0.266,0.438 v 3.859 h -3.859 c -0.187,0 -0.437,0 -0.437,0.25 0,0.266 0.234,0.266 0.437,0.266 h 3.859 v 3.843 c 0,0.204 0,0.454 0.25,0.454 0.266,0 0.266,-0.235 0.266,-0.454 v -3.843 h 3.844 c 0.203,0 0.453,0 0.453,-0.25 0,-0.266 -0.234,-0.266 -0.453,-0.266 z"
         style="fill:#000000;fill-opacity:1;fill-rule:nonzero;stroke:none"
         id="path206" /><path
         d="m 30.93,152.516 c -0.016,0 -0.063,0 -0.125,0.062 -0.922,0.906 -3.485,3.36 -9.688,3.36 -6.219,0 -8.75,-2.407 -9.75,-3.391 -0.015,0 -0.062,-0.031 -0.125,-0.031 -0.047,0 -0.094,0.062 -0.094,0.14 0,0.219 1.469,1.906 3.672,2.891 2.203,0.984 4.36,1.265 6.266,1.265 1.437,0 3.875,-0.14 6.437,-1.328 2.079,-0.953 3.532,-2.593 3.532,-2.828 0,-0.109 -0.047,-0.14 -0.125,-0.14 z"
         style="fill:#000000;fill-opacity:1;fill-rule:nonzero;stroke:none"
         id="path208" /><path
         d="m 17.945,142.113 c 0.11,0.625 0.594,0.875 0.969,0.875 0.484,0 0.641,-0.375 0.641,-0.656 0,-0.609 -0.516,-1.016 -1.047,-1.016 -0.844,0 -1.219,0.954 -1.219,1.782 0,1.218 1.188,1.906 1.563,2.078 -1.485,0.453 -1.563,1.687 -1.563,2.047 0,2.031 2.609,3.109 3.047,3.109 0.078,0 0.172,-0.078 0.172,-0.219 0,-0.156 -0.11,-0.203 -0.188,-0.234 -2.218,-0.672 -2.64,-2.016 -2.64,-2.594 0,-0.89 0.843,-1.078 1.312,-1.078 0.438,0 0.906,0.125 1.86,0.359 l 2.734,0.688 c 1.187,0.297 2.281,0.875 2.281,1.922 0,0.109 0,0.609 -0.25,1.015 -0.14,-0.718 -0.734,-0.875 -0.984,-0.875 -0.391,0 -0.641,0.297 -0.641,0.688 0,0.469 0.422,0.984 1.063,0.984 0.843,0 1.218,-0.937 1.218,-1.781 0,-0.969 -0.765,-1.641 -1.578,-2.062 1.172,-0.313 1.578,-1.313 1.578,-2.047 0,-2.032 -2.609,-3.11 -3.046,-3.11 -0.11,0 -0.188,0.078 -0.188,0.203 0,0.172 0.109,0.204 0.266,0.25 1.75,0.547 2.562,1.704 2.562,2.594 0,0.703 -0.515,1.078 -1.328,1.078 -0.437,0 -0.766,-0.078 -2.078,-0.406 l -2.703,-0.687 c -1.203,-0.297 -2.078,-0.985 -2.078,-1.891 0,-0.047 0,-0.609 0.265,-1.016 z"
         style="fill:#000000;fill-opacity:1;fill-rule:nonzero;stroke:none"
         id="path210" /><path
         d="m 21.117,135.23 c -1.437,0 -3.875,0.141 -6.437,1.329 -2.078,0.953 -3.532,2.593 -3.532,2.828 0,0.062 0.016,0.14 0.125,0.14 0.032,0 0.063,-0.015 0.094,-0.031 1,-0.969 3.531,-3.391 9.719,-3.391 6.219,0 8.75,2.407 9.75,3.391 0.031,0.016 0.062,0.031 0.094,0.031 0.093,0 0.125,-0.078 0.125,-0.14 0,-0.219 -1.485,-1.907 -3.672,-2.891 -2.203,-0.984 -4.36,-1.266 -6.266,-1.266 z"
         style="fill:#000000;fill-opacity:1;fill-rule:nonzero;stroke:none"
         id="path212" /></g><g
       id="g214"><g
         id="g216"
         clip-path="url(#clipPath220)"><g
           id="g222"><g
             id="g224"><g
               id="g226"
               clip-path="url(#clipPath230)"><g
                 id="g232"><g
                   id="g234"><g
                     id="g236"><g
                       id="g238"
                       clip-path="url(#clipPath242)"><g
                         id="g244"><g
                           id="g246"><path
                             d="M 68.676,190.418 H 493.199"
                             style="fill:none;stroke:#000000;stroke-width:0.5;stroke-linecap:butt;stroke-linejoin:round;stroke-miterlimit:10;stroke-dasharray:0.5, 0.825;stroke-dashoffset:0;stroke-opacity:1"
                             id="path248" /></g></g></g></g></g></g></g></g></g></g></g><g
       id="g250"><g
         id="g252"
         clip-path="url(#clipPath256)"><g
           id="g258"><g
             id="g260"><g
               id="g262"
               clip-path="url(#clipPath266)"><g
                 id="g268"><g
                   id="g270"><g
                     id="g272"><g
                       id="g274"
                       clip-path="url(#clipPath278)"><g
                         id="g280"><g
                           id="g282"><path
                             d="m 70.016,-1 0.082,17.609 0.39,60.27 0.5,54.297 0.633,47.457 0.813,40.004 1.031,32.289 1.312,24.644 1.676,17.325 2.133,10.488 2.723,4.258 3.464,-1.395 4.415,-6.672 5.628,-12.023 7.172,-17.969 9.137,-24.727 13.176,-35.527 13.172,-31.558 13.175,-24.926 13.176,-18.055 13.176,-12.461 13.176,-8.582 13.172,-6.109 13.175,-4.371 13.176,-3.274 13.176,-2.328 13.176,-0.121 13.172,1.535 13.175,2.844 13.176,5.031 13.176,7.137 13.176,8.008 13.176,7.964 13.171,7.829 13.176,7.793 13.176,6.933 13.176,5.762 13.176,6.754 13.171,6.445 13.176,3.754 13.176,2.738 13.176,2.481 13.176,2.789 13.171,1.988 13.176,5.09"
                             style="fill:none;stroke:#1e75b3;stroke-width:1;stroke-linecap:square;stroke-linejoin:round;stroke-miterlimit:10;stroke-dasharray:none;stroke-opacity:1"
                             id="path284" /></g></g></g></g></g></g></g></g></g><g
           id="g286"><g
             id="g288"><g
               id="g290"
               clip-path="url(#clipPath294)"><g
                 id="g296"><g
                   id="g298"><g
                     id="g300"><g
                       id="g302"
                       clip-path="url(#clipPath306)"><g
                         id="g308"><g
                           id="g310"><path
                             d="m 71.715,-1 0.719,98.801 1.031,97.847 1.312,82.629 1.676,66.575 0.684,16.148 m 40.261,0 6.903,-31.215 13.172,-55.262 13.175,-44.949 13.176,-33.594 13.176,-23.937 13.176,-16.898 13.172,-12.184 13.175,-8.953 13.176,-6.879 13.176,-5.473 13.176,-3.324 13.172,-1.602 13.175,0.043 13.176,2.547 13.176,4.895 13.176,5.996 13.176,6.191 13.171,6.34 13.176,6.61 13.176,6.019 13.176,5.035 13.176,6.16 13.171,5.981 13.176,3.41 13.176,2.496 13.176,2.297 13.176,2.73 13.171,1.95 13.176,4.988"
                             style="fill:none;stroke:#2b9e2b;stroke-width:1;stroke-linecap:square;stroke-linejoin:round;stroke-miterlimit:10;stroke-dasharray:none;stroke-opacity:1"
                             id="path312" /></g></g></g></g></g></g></g></g></g></g></g><g
       id="g314"><g
         id="g316"><path
           d="M 77.16,306.852 V 15.77"
           style="fill:none;stroke:#000000;stroke-width:0.8;stroke-linecap:square;stroke-linejoin:miter;stroke-miterlimit:10;stroke-dasharray:none;stroke-opacity:1"
           id="path318" /></g><g
         id="g320"><path
           d="M 493.199,306.852 V 15.77"
           style="fill:none;stroke:#000000;stroke-width:0.8;stroke-linecap:square;stroke-linejoin:miter;stroke-miterlimit:10;stroke-dasharray:none;stroke-opacity:1"
           id="path322" /></g><g
         id="g324"><path
           d="M 77.16,306.852 H 493.199"
           style="fill:none;stroke:#000000;stroke-width:0.8;stroke-linecap:square;stroke-linejoin:miter;stroke-miterlimit:10;stroke-dasharray:none;stroke-opacity:1"
           id="path326" /></g><g
         id="g328"><path
           d="M 77.16,15.77 H 493.199"
           style="fill:none;stroke:#000000;stroke-width:0.8;stroke-linecap:square;stroke-linejoin:miter;stroke-miterlimit:10;stroke-dasharray:none;stroke-opacity:1"
           id="path330" /></g><path
         d="m 200.316,299.852 h 283.082 c 1.868,0 2.801,-0.668 2.801,-2.008 V 253.18 c 0,-1.34 -0.933,-2.008 -2.801,-2.008 H 200.316 c -1.867,0 -2.8,0.668 -2.8,2.008 v 44.664 c 0,1.34 0.933,2.008 2.8,2.008 z"
         style="fill:#ffffff;fill-opacity:0.8;fill-rule:nonzero;stroke:none"
         id="path332" /><g
         id="g334"><path
           d="m 200.238,299.93 h 283.239 c 1.867,0 2.8,-0.66 2.8,-1.985 v -44.207 c 0,-1.324 -0.933,-1.984 -2.8,-1.984 H 200.238 c -1.867,0 -2.8,0.66 -2.8,1.984 v 44.207 c 0,1.325 0.933,1.985 2.8,1.985 z"
           style="fill:none;stroke:#cacaca;stroke-width:0.84234;stroke-linecap:butt;stroke-linejoin:miter;stroke-miterlimit:10;stroke-dasharray:none;stroke-opacity:0.8"
           id="path336" /></g><g
         id="g338"><path
           d="m 203.113,266.344 h 28"
           style="fill:none;stroke:#1e75b3;stroke-width:1;stroke-linecap:square;stroke-linejoin:round;stroke-miterlimit:10;stroke-dasharray:none;stroke-opacity:1"
           id="path340" /></g><path
         d="m 245.348,262.777 c 0,-0.515 0.031,-0.656 1.078,-0.656 h 0.312 v -0.406 c -0.328,0.031 -1.531,0.031 -1.953,0.031 -0.422,0 -1.625,0 -1.969,-0.031 v 0.406 h 0.313 c 1.047,0 1.078,0.141 1.078,0.656 v 7.407 c 0,0.515 -0.031,0.656 -1.078,0.656 h -0.313 v 0.406 c 0.344,-0.031 1.532,-0.031 1.954,-0.031 0.421,0 1.64,0 1.968,0.031 v -0.406 h -0.312 c -1.047,0 -1.078,-0.141 -1.078,-0.656 z"
         style="fill:#000000;fill-opacity:1;fill-rule:nonzero;stroke:none"
         id="path342" /><path
         d="m 253.441,267.855 c 0,-1.296 0,-1.687 -0.312,-2.14 -0.406,-0.531 -1.063,-0.625 -1.531,-0.625 -1.36,0 -1.891,1.156 -2,1.437 h -0.016 v -1.437 l -1.891,0.156 v 0.406 c 0.938,0 1.047,0.094 1.047,0.782 v 3.781 c 0,0.625 -0.14,0.625 -1.047,0.625 v 0.406 c 0.36,-0.031 1.11,-0.031 1.5,-0.031 0.407,0 1.157,0 1.516,0.031 v -0.406 c -0.891,0 -1.062,0 -1.062,-0.625 v -2.594 c 0,-1.469 0.968,-2.25 1.828,-2.25 0.875,0 1.062,0.719 1.062,1.563 v 3.281 c 0,0.625 -0.14,0.625 -1.062,0.625 v 0.406 c 0.375,-0.031 1.125,-0.031 1.515,-0.031 0.407,0 1.157,0 1.516,0.031 v -0.406 c -0.688,0 -1.047,0 -1.063,-0.422 z"
         style="fill:#000000;fill-opacity:1;fill-rule:nonzero;stroke:none"
         id="path344" /><path
         d="m 256.777,265.637 h 1.969 v -0.407 h -1.969 v -2.562 h -0.312 c -0.016,1.312 -0.516,2.641 -1.781,2.687 v 0.282 h 1.187 v 3.875 c 0,1.547 1.031,1.875 1.766,1.875 0.89,0 1.343,-0.86 1.343,-1.875 v -0.797 h -0.312 v 0.765 c 0,1.016 -0.391,1.594 -0.938,1.594 -0.953,0 -0.953,-1.297 -0.953,-1.531 z"
         style="fill:#000000;fill-opacity:1;fill-rule:nonzero;stroke:none"
         id="path346" /><path
         d="m 262.062,267.996 c 0,-1.359 0.563,-2.625 1.641,-2.625 0.109,0 0.141,0 0.188,0.016 -0.11,0.062 -0.329,0.14 -0.329,0.515 0,0.407 0.313,0.563 0.547,0.563 0.266,0 0.547,-0.188 0.547,-0.563 0,-0.422 -0.375,-0.812 -0.968,-0.812 -1.188,0 -1.594,1.281 -1.672,1.547 H 262 v -1.547 l -1.875,0.156 v 0.406 c 0.953,0 1.063,0.094 1.063,0.782 v 3.781 c 0,0.625 -0.157,0.625 -1.063,0.625 v 0.406 c 0.391,-0.031 1.156,-0.031 1.578,-0.031 0.375,0 1.359,0 1.688,0.031 v -0.406 h -0.282 c -1.015,0 -1.047,-0.156 -1.047,-0.656 z"
         style="fill:#000000;fill-opacity:1;fill-rule:nonzero;stroke:none"
         id="path348" /><path
         d="m 267.453,262.652 c 0,-0.359 -0.281,-0.687 -0.672,-0.687 -0.375,0 -0.672,0.297 -0.672,0.672 0,0.422 0.329,0.687 0.672,0.687 0.422,0 0.672,-0.359 0.672,-0.672 z m -1.922,2.594 v 0.406 c 0.891,0 1.016,0.078 1.016,0.766 v 3.797 c 0,0.625 -0.141,0.625 -1.063,0.625 v 0.406 c 0.391,-0.031 1.063,-0.031 1.469,-0.031 0.156,0 0.969,0 1.438,0.031 v -0.406 c -0.907,0 -0.953,-0.063 -0.953,-0.61 v -5.14 z"
         style="fill:#000000;fill-opacity:1;fill-rule:nonzero;stroke:none"
         id="path350" /><path
         d="m 275.016,267.855 c 0,-1.296 0,-1.687 -0.313,-2.14 -0.406,-0.531 -1.062,-0.625 -1.531,-0.625 -1.36,0 -1.891,1.156 -2,1.437 h -0.016 v -1.437 l -1.89,0.156 v 0.406 c 0.937,0 1.046,0.094 1.046,0.782 v 3.781 c 0,0.625 -0.14,0.625 -1.046,0.625 v 0.406 c 0.359,-0.031 1.109,-0.031 1.5,-0.031 0.406,0 1.156,0 1.515,0.031 v -0.406 c -0.89,0 -1.062,0 -1.062,-0.625 v -2.594 c 0,-1.469 0.969,-2.25 1.828,-2.25 0.875,0 1.062,0.719 1.062,1.563 v 3.281 c 0,0.625 -0.14,0.625 -1.062,0.625 v 0.406 c 0.375,-0.031 1.125,-0.031 1.515,-0.031 0.407,0 1.157,0 1.516,0.031 v -0.406 c -0.687,0 -1.047,0 -1.062,-0.422 z"
         style="fill:#000000;fill-opacity:1;fill-rule:nonzero;stroke:none"
         id="path352" /><path
         d="m 280.965,265.34 c 0,-0.25 0,-0.313 -0.141,-0.313 -0.109,0 -0.375,0.297 -0.469,0.422 -0.437,-0.344 -0.875,-0.422 -1.312,-0.422 -1.688,0 -2.203,0.922 -2.203,1.688 0,0.156 0,0.64 0.531,1.125 0.453,0.39 0.922,0.484 1.563,0.609 0.781,0.156 0.953,0.203 1.296,0.485 0.266,0.203 0.438,0.515 0.438,0.906 0,0.594 -0.344,1.265 -1.578,1.265 -0.922,0 -1.594,-0.531 -1.891,-1.921 -0.062,-0.25 -0.062,-0.266 -0.078,-0.282 -0.016,-0.062 -0.078,-0.062 -0.125,-0.062 -0.156,0 -0.156,0.078 -0.156,0.328 v 1.891 c 0,0.25 0,0.328 0.14,0.328 0.079,0 0.094,-0.016 0.329,-0.313 0.062,-0.094 0.062,-0.125 0.281,-0.344 0.531,0.657 1.281,0.657 1.515,0.657 1.469,0 2.188,-0.813 2.188,-1.907 0,-0.765 -0.453,-1.203 -0.578,-1.328 -0.5,-0.437 -0.875,-0.515 -1.797,-0.687 -0.422,-0.078 -1.438,-0.281 -1.438,-1.11 0,-0.437 0.282,-1.078 1.547,-1.078 1.516,0 1.594,1.297 1.625,1.735 0.016,0.109 0.11,0.109 0.157,0.109 0.156,0 0.156,-0.078 0.156,-0.328 z"
         style="fill:#000000;fill-opacity:1;fill-rule:nonzero;stroke:none"
         id="path354" /><path
         d="m 284.191,262.652 c 0,-0.359 -0.281,-0.687 -0.671,-0.687 -0.375,0 -0.672,0.297 -0.672,0.672 0,0.422 0.328,0.687 0.672,0.687 0.421,0 0.671,-0.359 0.671,-0.672 z m -1.921,2.594 v 0.406 c 0.89,0 1.015,0.078 1.015,0.766 v 3.797 c 0,0.625 -0.14,0.625 -1.062,0.625 v 0.406 c 0.39,-0.031 1.062,-0.031 1.468,-0.031 0.157,0 0.969,0 1.438,0.031 v -0.406 c -0.906,0 -0.953,-0.063 -0.953,-0.61 v -5.14 z"
         style="fill:#000000;fill-opacity:1;fill-rule:nonzero;stroke:none"
         id="path356" /><path
         d="m 290.598,266.09 c -0.157,0 -0.672,0 -0.672,0.562 0,0.344 0.234,0.578 0.562,0.578 0.328,0 0.594,-0.203 0.594,-0.609 0,-0.922 -0.984,-1.594 -2.109,-1.594 -1.641,0 -2.938,1.453 -2.938,3.203 0,1.782 1.344,3.157 2.922,3.157 1.844,0 2.266,-1.672 2.266,-1.797 0,-0.125 -0.11,-0.125 -0.141,-0.125 -0.125,0 -0.141,0.031 -0.187,0.203 -0.313,0.984 -1.063,1.406 -1.813,1.406 -0.859,0 -1.984,-0.734 -1.984,-2.859 0,-2.313 1.187,-2.891 1.89,-2.891 0.532,0 1.297,0.219 1.61,0.766 z"
         style="fill:#000000;fill-opacity:1;fill-rule:nonzero;stroke:none"
         id="path358" /><path
         d="m 305.262,261.746 c 0,-0.25 0,-0.328 -0.141,-0.328 -0.078,0 -0.094,0.031 -0.172,0.172 l -0.687,1.109 c -0.625,-0.781 -1.578,-1.281 -2.578,-1.281 -2.563,0 -4.766,2.203 -4.766,5.062 0,2.875 2.234,5.063 4.766,5.063 2.281,0 3.578,-2 3.578,-3.531 0,-0.157 0,-0.235 -0.157,-0.235 -0.14,0 -0.14,0.063 -0.14,0.157 -0.125,2.218 -1.75,3.203 -3.11,3.203 -0.968,0 -3.64,-0.594 -3.64,-4.657 0,-4.031 2.625,-4.656 3.625,-4.656 1.469,0 2.75,1.25 3.031,3.344 0.031,0.156 0.031,0.203 0.203,0.203 0.188,0 0.188,-0.047 0.188,-0.312 z"
         style="fill:#000000;fill-opacity:1;fill-rule:nonzero;stroke:none"
         id="path360" /><path
         d="m 312.234,267.855 c 0,-1.296 0,-1.687 -0.312,-2.14 -0.406,-0.531 -1.063,-0.625 -1.531,-0.625 -1.203,0 -1.766,0.906 -1.953,1.344 h -0.016 v -4.875 l -1.938,0.156 v 0.406 c 0.938,0 1.047,0.094 1.047,0.781 v 7.313 c 0,0.625 -0.14,0.625 -1.047,0.625 v 0.406 c 0.36,-0.031 1.11,-0.031 1.5,-0.031 0.407,0 1.157,0 1.516,0.031 v -0.406 c -0.891,0 -1.062,0 -1.062,-0.625 v -2.594 c 0,-1.469 0.968,-2.25 1.828,-2.25 0.875,0 1.062,0.719 1.062,1.563 v 3.281 c 0,0.625 -0.14,0.625 -1.062,0.625 v 0.406 c 0.375,-0.031 1.125,-0.031 1.515,-0.031 0.407,0 1.157,0 1.516,0.031 v -0.406 c -0.688,0 -1.047,0 -1.063,-0.422 z"
         style="fill:#000000;fill-opacity:1;fill-rule:nonzero;stroke:none"
         id="path362" /><path
         d="m 318.996,267.527 c 0,-0.765 0,-1.312 -0.625,-1.859 -0.484,-0.453 -1.109,-0.641 -1.719,-0.641 -1.156,0 -2.031,0.75 -2.031,1.657 0,0.406 0.266,0.593 0.594,0.593 0.328,0 0.562,-0.234 0.562,-0.562 0,-0.578 -0.5,-0.578 -0.703,-0.578 0.313,-0.578 0.985,-0.828 1.547,-0.828 0.641,0 1.469,0.531 1.469,1.781 v 0.562 c -2.813,0.032 -3.875,1.203 -3.875,2.282 0,1.109 1.281,1.453 2.14,1.453 0.922,0 1.547,-0.563 1.813,-1.235 0.062,0.657 0.484,1.157 1.094,1.157 0.281,0 1.093,-0.188 1.093,-1.297 v -0.782 h -0.296 v 0.782 c 0,0.781 -0.344,0.906 -0.532,0.906 -0.531,0 -0.531,-0.75 -0.531,-0.953 z m -0.906,1.75 c 0,1.375 -1.031,1.828 -1.625,1.828 -0.688,0 -1.25,-0.5 -1.25,-1.171 0,-1.844 2.375,-2.016 2.875,-2.032 z"
         style="fill:#000000;fill-opacity:1;fill-rule:nonzero;stroke:none"
         id="path364" /><path
         d="m 322.754,267.996 c 0,-1.359 0.562,-2.625 1.641,-2.625 0.109,0 0.14,0 0.187,0.016 -0.109,0.062 -0.328,0.14 -0.328,0.515 0,0.407 0.312,0.563 0.547,0.563 0.265,0 0.547,-0.188 0.547,-0.563 0,-0.422 -0.375,-0.812 -0.969,-0.812 -1.188,0 -1.594,1.281 -1.672,1.547 h -0.016 v -1.547 l -1.875,0.156 v 0.406 c 0.954,0 1.063,0.094 1.063,0.782 v 3.781 c 0,0.625 -0.156,0.625 -1.063,0.625 v 0.406 c 0.391,-0.031 1.157,-0.031 1.579,-0.031 0.375,0 1.359,0 1.687,0.031 v -0.406 h -0.281 c -1.016,0 -1.047,-0.156 -1.047,-0.656 z"
         style="fill:#000000;fill-opacity:1;fill-rule:nonzero;stroke:none"
         id="path366" /><path
         d="m 335.723,267.855 c 0,-1.296 0,-1.687 -0.313,-2.14 -0.406,-0.531 -1.062,-0.625 -1.531,-0.625 -1.172,0 -1.75,0.844 -1.969,1.39 -0.203,-1.078 -0.953,-1.39 -1.828,-1.39 -1.359,0 -1.891,1.156 -2,1.437 h -0.016 v -1.437 l -1.89,0.156 v 0.406 c 0.937,0 1.047,0.094 1.047,0.782 v 3.781 c 0,0.625 -0.141,0.625 -1.047,0.625 v 0.406 c 0.359,-0.031 1.109,-0.031 1.5,-0.031 0.406,0 1.156,0 1.515,0.031 v -0.406 c -0.89,0 -1.062,0 -1.062,-0.625 v -2.594 c 0,-1.469 0.969,-2.25 1.828,-2.25 0.875,0 1.063,0.719 1.063,1.563 v 3.281 c 0,0.625 -0.141,0.625 -1.063,0.625 v 0.406 c 0.375,-0.031 1.125,-0.031 1.516,-0.031 0.406,0 1.156,0 1.515,0.031 v -0.406 c -0.89,0 -1.062,0 -1.062,-0.625 v -2.594 c 0,-1.469 0.969,-2.25 1.828,-2.25 0.875,0 1.062,0.719 1.062,1.563 v 3.281 c 0,0.625 -0.156,0.625 -1.062,0.625 v 0.406 c 0.375,-0.031 1.125,-0.031 1.516,-0.031 0.406,0 1.156,0 1.515,0.031 v -0.406 c -0.687,0 -1.047,0 -1.062,-0.422 z"
         style="fill:#000000;fill-opacity:1;fill-rule:nonzero;stroke:none"
         id="path368" /><path
         d="m 339.812,271.309 c 0,-0.875 -0.296,-1.422 -0.828,-1.422 -0.406,0 -0.672,0.312 -0.672,0.672 0,0.375 0.266,0.687 0.672,0.687 0.219,0 0.375,-0.094 0.454,-0.172 0.046,-0.031 0.062,-0.031 0.062,-0.031 0.031,0 0.031,0.187 0.031,0.266 0,0.89 -0.359,1.718 -0.969,2.359 -0.062,0.047 -0.078,0.078 -0.078,0.125 0,0.078 0.078,0.141 0.141,0.141 0.125,0 1.187,-1.032 1.187,-2.625 z"
         style="fill:#000000;fill-opacity:1;fill-rule:nonzero;stroke:none"
         id="path370" /><path
         d="m 348.582,261.918 c -0.125,-0.188 -0.141,-0.203 -0.453,-0.203 h -2.125 v 0.406 c 0.594,0 0.937,0 1.312,0.094 v 7.562 c 0,0.407 0,1.063 -1.312,1.063 v 0.406 c 0.359,-0.031 1.094,-0.031 1.484,-0.031 0.391,0 1.125,0 1.5,0.031 v -0.406 c -1.328,0 -1.328,-0.656 -1.328,-1.063 v -7.328 c 0.11,0.11 0.11,0.125 0.235,0.297 l 5.437,8.297 c 0.141,0.187 0.156,0.203 0.25,0.203 0.125,0 0.156,-0.062 0.172,-0.078 v -7.984 c 0,-0.407 0,-1.063 1.328,-1.063 v -0.406 c -0.359,0.031 -1.109,0.031 -1.5,0.031 -0.391,0 -1.125,0 -1.484,-0.031 v 0.406 c 1.328,0 1.328,0.656 1.328,1.063 v 6.093 z"
         style="fill:#000000;fill-opacity:1;fill-rule:nonzero;stroke:none"
         id="path372" /><path
         d="m 358.816,261.918 c -0.125,-0.188 -0.14,-0.203 -0.453,-0.203 h -2.125 v 0.406 c 0.594,0 0.938,0 1.313,0.094 v 7.562 c 0,0.407 0,1.063 -1.313,1.063 v 0.406 c 0.36,-0.031 1.094,-0.031 1.485,-0.031 0.39,0 1.125,0 1.5,0.031 v -0.406 c -1.328,0 -1.328,-0.656 -1.328,-1.063 v -7.328 c 0.109,0.11 0.109,0.125 0.234,0.297 l 5.437,8.297 c 0.141,0.187 0.157,0.203 0.25,0.203 0.125,0 0.157,-0.062 0.172,-0.078 v -7.984 c 0,-0.407 0,-1.063 1.328,-1.063 v -0.406 c -0.359,0.031 -1.109,0.031 -1.5,0.031 -0.39,0 -1.125,0 -1.484,-0.031 v 0.406 c 1.328,0 1.328,0.656 1.328,1.063 v 6.093 z"
         style="fill:#000000;fill-opacity:1;fill-rule:nonzero;stroke:none"
         id="path374" /><path
         d="m 373.852,267.668 h -0.313 c -0.141,1.406 -0.312,3.172 -2.75,3.172 h -1.219 c -0.609,0 -0.64,-0.094 -0.64,-0.563 v -7.484 c 0,-0.5 0.031,-0.672 1.234,-0.672 h 0.422 v -0.406 c -0.406,0.031 -1.625,0.031 -2.125,0.031 -0.406,0 -1.656,0 -1.984,-0.031 v 0.406 h 0.265 c 1.016,0 1.047,0.141 1.047,0.656 v 7.407 c 0,0.515 -0.031,0.656 -1.047,0.656 h -0.265 v 0.406 h 7.015 z"
         style="fill:#000000;fill-opacity:1;fill-rule:nonzero;stroke:none"
         id="path376" /><path
         d="m 384.281,266.512 c 0,-2.891 -2.109,-5.094 -4.547,-5.094 -2.484,0 -4.562,2.234 -4.562,5.094 0,2.843 2.109,5.031 4.547,5.031 2.5,0 4.562,-2.219 4.562,-5.031 z m -4.547,4.703 c -1.422,0 -3.265,-1.344 -3.265,-4.906 0,-3.422 1.937,-4.579 3.25,-4.579 1.39,0 3.265,1.204 3.265,4.579 0,3.625 -1.89,4.906 -3.25,4.906 z"
         style="fill:#000000;fill-opacity:1;fill-rule:nonzero;stroke:none"
         id="path378" /><path
         d="m 399.586,267.855 c 0,-1.296 0,-1.687 -0.313,-2.14 -0.406,-0.531 -1.062,-0.625 -1.531,-0.625 -1.172,0 -1.75,0.844 -1.969,1.39 -0.203,-1.078 -0.953,-1.39 -1.828,-1.39 -1.359,0 -1.89,1.156 -2,1.437 h -0.015 v -1.437 l -1.891,0.156 v 0.406 c 0.938,0 1.047,0.094 1.047,0.782 v 3.781 c 0,0.625 -0.141,0.625 -1.047,0.625 v 0.406 c 0.359,-0.031 1.109,-0.031 1.5,-0.031 0.406,0 1.156,0 1.516,0.031 v -0.406 c -0.891,0 -1.063,0 -1.063,-0.625 v -2.594 c 0,-1.469 0.969,-2.25 1.828,-2.25 0.875,0 1.063,0.719 1.063,1.563 v 3.281 c 0,0.625 -0.141,0.625 -1.063,0.625 v 0.406 c 0.375,-0.031 1.125,-0.031 1.516,-0.031 0.406,0 1.156,0 1.516,0.031 v -0.406 c -0.891,0 -1.063,0 -1.063,-0.625 v -2.594 c 0,-1.469 0.969,-2.25 1.828,-2.25 0.875,0 1.063,0.719 1.063,1.563 v 3.281 c 0,0.625 -0.157,0.625 -1.063,0.625 v 0.406 c 0.375,-0.031 1.125,-0.031 1.516,-0.031 0.406,0 1.156,0 1.515,0.031 v -0.406 c -0.687,0 -1.046,0 -1.062,-0.422 z"
         style="fill:#000000;fill-opacity:1;fill-rule:nonzero;stroke:none"
         id="path380" /><path
         d="m 406.348,267.527 c 0,-0.765 0,-1.312 -0.625,-1.859 -0.485,-0.453 -1.11,-0.641 -1.719,-0.641 -1.156,0 -2.031,0.75 -2.031,1.657 0,0.406 0.265,0.593 0.593,0.593 0.329,0 0.563,-0.234 0.563,-0.562 0,-0.578 -0.5,-0.578 -0.703,-0.578 0.312,-0.578 0.984,-0.828 1.547,-0.828 0.64,0 1.468,0.531 1.468,1.781 v 0.562 c -2.812,0.032 -3.875,1.203 -3.875,2.282 0,1.109 1.282,1.453 2.141,1.453 0.922,0 1.547,-0.563 1.813,-1.235 0.062,0.657 0.484,1.157 1.093,1.157 0.282,0 1.094,-0.188 1.094,-1.297 v -0.782 h -0.297 v 0.782 c 0,0.781 -0.344,0.906 -0.531,0.906 -0.531,0 -0.531,-0.75 -0.531,-0.953 z m -0.907,1.75 c 0,1.375 -1.031,1.828 -1.625,1.828 -0.687,0 -1.25,-0.5 -1.25,-1.171 0,-1.844 2.375,-2.016 2.875,-2.032 z"
         style="fill:#000000;fill-opacity:1;fill-rule:nonzero;stroke:none"
         id="path382" /><path
         d="m 410.121,265.637 h 1.969 v -0.407 h -1.969 v -2.562 h -0.312 c -0.016,1.312 -0.516,2.641 -1.782,2.687 v 0.282 h 1.188 v 3.875 c 0,1.547 1.031,1.875 1.765,1.875 0.891,0 1.344,-0.86 1.344,-1.875 v -0.797 h -0.312 v 0.765 c 0,1.016 -0.391,1.594 -0.938,1.594 -0.953,0 -0.953,-1.297 -0.953,-1.531 z"
         style="fill:#000000;fill-opacity:1;fill-rule:nonzero;stroke:none"
         id="path384" /><path
         d="m 418.121,266.09 c -0.156,0 -0.672,0 -0.672,0.562 0,0.344 0.235,0.578 0.563,0.578 0.328,0 0.593,-0.203 0.593,-0.609 0,-0.922 -0.984,-1.594 -2.109,-1.594 -1.641,0 -2.937,1.453 -2.937,3.203 0,1.782 1.343,3.157 2.921,3.157 1.844,0 2.266,-1.672 2.266,-1.797 0,-0.125 -0.109,-0.125 -0.141,-0.125 -0.125,0 -0.14,0.031 -0.187,0.203 -0.313,0.984 -1.063,1.406 -1.813,1.406 -0.859,0 -1.984,-0.734 -1.984,-2.859 0,-2.313 1.188,-2.891 1.891,-2.891 0.531,0 1.297,0.219 1.609,0.766 z"
         style="fill:#000000;fill-opacity:1;fill-rule:nonzero;stroke:none"
         id="path386" /><path
         d="m 424.969,267.855 c 0,-1.296 0,-1.687 -0.313,-2.14 -0.406,-0.531 -1.062,-0.625 -1.531,-0.625 -1.203,0 -1.766,0.906 -1.953,1.344 h -0.016 v -4.875 l -1.937,0.156 v 0.406 c 0.937,0 1.047,0.094 1.047,0.781 v 7.313 c 0,0.625 -0.141,0.625 -1.047,0.625 v 0.406 c 0.359,-0.031 1.109,-0.031 1.5,-0.031 0.406,0 1.156,0 1.515,0.031 v -0.406 c -0.89,0 -1.062,0 -1.062,-0.625 v -2.594 c 0,-1.469 0.969,-2.25 1.828,-2.25 0.875,0 1.062,0.719 1.062,1.563 v 3.281 c 0,0.625 -0.14,0.625 -1.062,0.625 v 0.406 c 0.375,-0.031 1.125,-0.031 1.516,-0.031 0.406,0 1.156,0 1.515,0.031 v -0.406 c -0.687,0 -1.047,0 -1.062,-0.422 z"
         style="fill:#000000;fill-opacity:1;fill-rule:nonzero;stroke:none"
         id="path388" /><path
         d="m 435.422,274.637 c 0,-0.047 0,-0.063 -0.234,-0.313 -1.391,-1.406 -2.172,-3.703 -2.172,-6.547 0,-2.718 0.656,-5.047 2.265,-6.687 0.141,-0.125 0.141,-0.156 0.141,-0.203 0,-0.078 -0.063,-0.11 -0.125,-0.11 -0.172,0 -1.328,1.016 -2,2.375 -0.719,1.407 -1.031,2.907 -1.031,4.625 0,1.235 0.187,2.891 0.906,4.391 0.828,1.672 1.969,2.578 2.125,2.578 0.062,0 0.125,-0.031 0.125,-0.109 z"
         style="fill:#000000;fill-opacity:1;fill-rule:nonzero;stroke:none"
         id="path390" /><path
         d="m 439.238,266.809 h 2.36 c 1.625,0 3.125,-1.11 3.125,-2.516 0,-1.344 -1.36,-2.578 -3.25,-2.578 h -4.688 v 0.406 h 0.266 c 1.015,0 1.047,0.141 1.047,0.656 v 7.407 c 0,0.515 -0.032,0.656 -1.047,0.656 h -0.266 v 0.406 c 0.328,-0.031 1.469,-0.031 1.875,-0.031 0.422,0 1.563,0 1.906,0.031 v -0.406 h -0.281 c -1.015,0 -1.047,-0.141 -1.047,-0.656 z m -0.031,-0.329 v -3.796 c 0,-0.469 0.031,-0.563 0.641,-0.563 h 1.312 c 2.266,0 2.266,1.578 2.266,2.172 0,0.594 0,2.187 -2.281,2.187 z"
         style="fill:#000000;fill-opacity:1;fill-rule:nonzero;stroke:none"
         id="path392" /><path
         d="m 446.074,261.715 v 0.406 h 0.266 c 1.015,0 1.047,0.141 1.047,0.656 v 7.407 c 0,0.515 -0.032,0.656 -1.047,0.656 h -0.266 v 0.406 h 4.875 c 2.328,0 4.203,-2.094 4.203,-4.672 0,-2.703 -1.89,-4.859 -4.203,-4.859 z m 3.063,9.125 c -0.61,0 -0.641,-0.094 -0.641,-0.563 v -7.593 c 0,-0.469 0.031,-0.563 0.641,-0.563 h 1.468 c 1.157,0 2.079,0.563 2.641,1.484 0.641,0.985 0.641,2.391 0.641,2.954 0,0.781 -0.016,2.093 -0.813,3.125 -0.469,0.578 -1.297,1.156 -2.469,1.156 z"
         style="fill:#000000;fill-opacity:1;fill-rule:nonzero;stroke:none"
         id="path394" /><path
         d="m 463.867,261.746 h -7.39 v 0.406 h 0.265 c 1.016,0 1.047,0.141 1.047,0.657 v 7.375 c 0,0.515 -0.031,0.656 -1.047,0.656 h -0.265 v 0.406 c 0.328,-0.031 1.578,-0.031 1.984,-0.031 0.5,0 1.719,0 2.125,0.031 v -0.406 h -0.422 c -1.203,0 -1.234,-0.172 -1.234,-0.672 v -3.469 h 1.218 c 1.313,0 1.454,0.453 1.454,1.625 h 0.312 v -3.656 h -0.312 c 0,1.172 -0.141,1.625 -1.454,1.625 h -1.218 v -3.594 c 0,-0.453 0.031,-0.547 0.64,-0.547 h 1.735 c 2.015,0 2.422,0.735 2.609,2.703 h 0.313 z"
         style="fill:#000000;fill-opacity:1;fill-rule:nonzero;stroke:none"
         id="path396" /><path
         d="m 472.75,268.043 c 0,1.953 -1.328,3.094 -2.641,3.094 -0.828,0 -2.281,-0.563 -2.281,-3 v -5.36 c 0,-0.515 0.031,-0.656 1.047,-0.656 h 0.281 v -0.406 c -0.344,0.031 -1.484,0.031 -1.89,0.031 -0.422,0 -1.563,0 -1.891,-0.031 v 0.406 h 0.266 c 1.015,0 1.047,0.141 1.047,0.656 v 5.282 c 0,2.015 1.624,3.484 3.39,3.484 1.953,0 3.047,-1.906 3.047,-3.297 v -5.281 c 0,-0.844 1.078,-0.844 1.328,-0.844 v -0.406 c -0.359,0.031 -1.109,0.031 -1.5,0.031 -0.406,0 -1.172,0 -1.531,-0.031 v 0.406 c 1.328,0 1.328,0.656 1.328,1.031 z"
         style="fill:#000000;fill-opacity:1;fill-rule:nonzero;stroke:none"
         id="path398" /><path
         d="m 478.973,267.777 c 0,-1.062 -0.141,-2.797 -0.922,-4.422 -0.828,-1.671 -1.969,-2.578 -2.125,-2.578 -0.047,0 -0.125,0.032 -0.125,0.11 0,0.047 0,0.078 0.234,0.312 1.406,1.406 2.188,3.719 2.188,6.563 0,2.703 -0.657,5.031 -2.282,6.672 -0.14,0.14 -0.14,0.156 -0.14,0.203 0,0.078 0.078,0.109 0.125,0.109 0.187,0 1.328,-1 2.015,-2.375 0.704,-1.422 1.032,-2.922 1.032,-4.594 z"
         style="fill:#000000;fill-opacity:1;fill-rule:nonzero;stroke:none"
         id="path400" /><g
         id="g402"><path
           d="m 203.113,285.863 h 28"
           style="fill:none;stroke:#2b9e2b;stroke-width:1;stroke-linecap:square;stroke-linejoin:round;stroke-miterlimit:10;stroke-dasharray:none;stroke-opacity:1"
           id="path404" /></g><path
         d="m 245.348,282.297 c 0,-0.516 0.031,-0.656 1.078,-0.656 h 0.312 v -0.407 c -0.328,0.032 -1.531,0.032 -1.953,0.032 -0.422,0 -1.625,0 -1.969,-0.032 v 0.407 h 0.313 c 1.047,0 1.078,0.14 1.078,0.656 v 7.406 c 0,0.516 -0.031,0.656 -1.078,0.656 h -0.313 v 0.407 c 0.344,-0.032 1.532,-0.032 1.954,-0.032 0.421,0 1.64,0 1.968,0.032 v -0.407 h -0.312 c -1.047,0 -1.078,-0.14 -1.078,-0.656 z"
         style="fill:#000000;fill-opacity:1;fill-rule:nonzero;stroke:none"
         id="path406" /><path
         d="m 253.441,287.375 c 0,-1.297 0,-1.687 -0.312,-2.141 -0.406,-0.531 -1.063,-0.625 -1.531,-0.625 -1.36,0 -1.891,1.157 -2,1.438 h -0.016 v -1.438 l -1.891,0.157 v 0.406 c 0.938,0 1.047,0.094 1.047,0.781 v 3.781 c 0,0.625 -0.14,0.625 -1.047,0.625 v 0.407 c 0.36,-0.032 1.11,-0.032 1.5,-0.032 0.407,0 1.157,0 1.516,0.032 v -0.407 c -0.891,0 -1.062,0 -1.062,-0.625 v -2.593 c 0,-1.469 0.968,-2.25 1.828,-2.25 0.875,0 1.062,0.718 1.062,1.562 v 3.281 c 0,0.625 -0.14,0.625 -1.062,0.625 v 0.407 c 0.375,-0.032 1.125,-0.032 1.515,-0.032 0.407,0 1.157,0 1.516,0.032 v -0.407 c -0.688,0 -1.047,0 -1.063,-0.421 z"
         style="fill:#000000;fill-opacity:1;fill-rule:nonzero;stroke:none"
         id="path408" /><path
         d="m 256.777,285.156 h 1.969 v -0.406 h -1.969 v -2.562 h -0.312 c -0.016,1.312 -0.516,2.64 -1.781,2.687 v 0.281 h 1.187 v 3.875 c 0,1.547 1.031,1.875 1.766,1.875 0.89,0 1.343,-0.859 1.343,-1.875 v -0.797 h -0.312 V 289 c 0,1.016 -0.391,1.594 -0.938,1.594 -0.953,0 -0.953,-1.297 -0.953,-1.532 z"
         style="fill:#000000;fill-opacity:1;fill-rule:nonzero;stroke:none"
         id="path410" /><path
         d="m 262.062,287.516 c 0,-1.36 0.563,-2.625 1.641,-2.625 0.109,0 0.141,0 0.188,0.015 -0.11,0.063 -0.329,0.141 -0.329,0.516 0,0.406 0.313,0.562 0.547,0.562 0.266,0 0.547,-0.187 0.547,-0.562 0,-0.422 -0.375,-0.813 -0.968,-0.813 -1.188,0 -1.594,1.282 -1.672,1.547 H 262 v -1.547 l -1.875,0.157 v 0.406 c 0.953,0 1.063,0.094 1.063,0.781 v 3.781 c 0,0.625 -0.157,0.625 -1.063,0.625 v 0.407 c 0.391,-0.032 1.156,-0.032 1.578,-0.032 0.375,0 1.359,0 1.688,0.032 v -0.407 h -0.282 c -1.015,0 -1.047,-0.156 -1.047,-0.656 z"
         style="fill:#000000;fill-opacity:1;fill-rule:nonzero;stroke:none"
         id="path412" /><path
         d="m 267.453,282.172 c 0,-0.36 -0.281,-0.688 -0.672,-0.688 -0.375,0 -0.672,0.297 -0.672,0.672 0,0.422 0.329,0.688 0.672,0.688 0.422,0 0.672,-0.36 0.672,-0.672 z m -1.922,2.594 v 0.406 c 0.891,0 1.016,0.078 1.016,0.766 v 3.796 c 0,0.625 -0.141,0.625 -1.063,0.625 v 0.407 c 0.391,-0.032 1.063,-0.032 1.469,-0.032 0.156,0 0.969,0 1.438,0.032 v -0.407 c -0.907,0 -0.953,-0.062 -0.953,-0.609 v -5.141 z"
         style="fill:#000000;fill-opacity:1;fill-rule:nonzero;stroke:none"
         id="path414" /><path
         d="m 275.016,287.375 c 0,-1.297 0,-1.687 -0.313,-2.141 -0.406,-0.531 -1.062,-0.625 -1.531,-0.625 -1.36,0 -1.891,1.157 -2,1.438 h -0.016 v -1.438 l -1.89,0.157 v 0.406 c 0.937,0 1.046,0.094 1.046,0.781 v 3.781 c 0,0.625 -0.14,0.625 -1.046,0.625 v 0.407 c 0.359,-0.032 1.109,-0.032 1.5,-0.032 0.406,0 1.156,0 1.515,0.032 v -0.407 c -0.89,0 -1.062,0 -1.062,-0.625 v -2.593 c 0,-1.469 0.969,-2.25 1.828,-2.25 0.875,0 1.062,0.718 1.062,1.562 v 3.281 c 0,0.625 -0.14,0.625 -1.062,0.625 v 0.407 c 0.375,-0.032 1.125,-0.032 1.515,-0.032 0.407,0 1.157,0 1.516,0.032 v -0.407 c -0.687,0 -1.047,0 -1.062,-0.421 z"
         style="fill:#000000;fill-opacity:1;fill-rule:nonzero;stroke:none"
         id="path416" /><path
         d="m 280.965,284.859 c 0,-0.25 0,-0.312 -0.141,-0.312 -0.109,0 -0.375,0.297 -0.469,0.422 -0.437,-0.344 -0.875,-0.422 -1.312,-0.422 -1.688,0 -2.203,0.922 -2.203,1.687 0,0.157 0,0.641 0.531,1.125 0.453,0.391 0.922,0.485 1.563,0.61 0.781,0.156 0.953,0.203 1.296,0.484 0.266,0.203 0.438,0.516 0.438,0.906 0,0.594 -0.344,1.266 -1.578,1.266 -0.922,0 -1.594,-0.531 -1.891,-1.922 -0.062,-0.25 -0.062,-0.265 -0.078,-0.281 -0.016,-0.063 -0.078,-0.063 -0.125,-0.063 -0.156,0 -0.156,0.079 -0.156,0.329 v 1.89 c 0,0.25 0,0.328 0.14,0.328 0.079,0 0.094,-0.015 0.329,-0.312 0.062,-0.094 0.062,-0.125 0.281,-0.344 0.531,0.656 1.281,0.656 1.515,0.656 1.469,0 2.188,-0.812 2.188,-1.906 0,-0.766 -0.453,-1.203 -0.578,-1.328 -0.5,-0.438 -0.875,-0.516 -1.797,-0.688 -0.422,-0.078 -1.438,-0.281 -1.438,-1.109 0,-0.437 0.282,-1.078 1.547,-1.078 1.516,0 1.594,1.297 1.625,1.734 0.016,0.11 0.11,0.11 0.157,0.11 0.156,0 0.156,-0.079 0.156,-0.329 z"
         style="fill:#000000;fill-opacity:1;fill-rule:nonzero;stroke:none"
         id="path418" /><path
         d="m 284.191,282.172 c 0,-0.36 -0.281,-0.688 -0.671,-0.688 -0.375,0 -0.672,0.297 -0.672,0.672 0,0.422 0.328,0.688 0.672,0.688 0.421,0 0.671,-0.36 0.671,-0.672 z m -1.921,2.594 v 0.406 c 0.89,0 1.015,0.078 1.015,0.766 v 3.796 c 0,0.625 -0.14,0.625 -1.062,0.625 v 0.407 c 0.39,-0.032 1.062,-0.032 1.468,-0.032 0.157,0 0.969,0 1.438,0.032 v -0.407 c -0.906,0 -0.953,-0.062 -0.953,-0.609 v -5.141 z"
         style="fill:#000000;fill-opacity:1;fill-rule:nonzero;stroke:none"
         id="path420" /><path
         d="m 290.598,285.609 c -0.157,0 -0.672,0 -0.672,0.563 0,0.344 0.234,0.578 0.562,0.578 0.328,0 0.594,-0.203 0.594,-0.609 0,-0.922 -0.984,-1.594 -2.109,-1.594 -1.641,0 -2.938,1.453 -2.938,3.203 0,1.781 1.344,3.156 2.922,3.156 1.844,0 2.266,-1.672 2.266,-1.797 0,-0.125 -0.11,-0.125 -0.141,-0.125 -0.125,0 -0.141,0.032 -0.187,0.204 -0.313,0.984 -1.063,1.406 -1.813,1.406 -0.859,0 -1.984,-0.735 -1.984,-2.86 0,-2.312 1.187,-2.89 1.89,-2.89 0.532,0 1.297,0.218 1.61,0.765 z"
         style="fill:#000000;fill-opacity:1;fill-rule:nonzero;stroke:none"
         id="path422" /><path
         d="m 305.262,281.266 c 0,-0.25 0,-0.328 -0.141,-0.328 -0.078,0 -0.094,0.031 -0.172,0.171 l -0.687,1.11 c -0.625,-0.781 -1.578,-1.281 -2.578,-1.281 -2.563,0 -4.766,2.203 -4.766,5.062 0,2.875 2.234,5.062 4.766,5.062 2.281,0 3.578,-2 3.578,-3.531 0,-0.156 0,-0.234 -0.157,-0.234 -0.14,0 -0.14,0.062 -0.14,0.156 -0.125,2.219 -1.75,3.203 -3.11,3.203 -0.968,0 -3.64,-0.594 -3.64,-4.656 0,-4.031 2.625,-4.656 3.625,-4.656 1.469,0 2.75,1.25 3.031,3.344 0.031,0.156 0.031,0.203 0.203,0.203 0.188,0 0.188,-0.047 0.188,-0.313 z"
         style="fill:#000000;fill-opacity:1;fill-rule:nonzero;stroke:none"
         id="path424" /><path
         d="m 312.234,287.375 c 0,-1.297 0,-1.687 -0.312,-2.141 -0.406,-0.531 -1.063,-0.625 -1.531,-0.625 -1.203,0 -1.766,0.907 -1.953,1.344 h -0.016 v -4.875 l -1.938,0.156 v 0.407 c 0.938,0 1.047,0.093 1.047,0.781 v 7.312 c 0,0.625 -0.14,0.625 -1.047,0.625 v 0.407 c 0.36,-0.032 1.11,-0.032 1.5,-0.032 0.407,0 1.157,0 1.516,0.032 v -0.407 c -0.891,0 -1.062,0 -1.062,-0.625 v -2.593 c 0,-1.469 0.968,-2.25 1.828,-2.25 0.875,0 1.062,0.718 1.062,1.562 v 3.281 c 0,0.625 -0.14,0.625 -1.062,0.625 v 0.407 c 0.375,-0.032 1.125,-0.032 1.515,-0.032 0.407,0 1.157,0 1.516,0.032 v -0.407 c -0.688,0 -1.047,0 -1.063,-0.421 z"
         style="fill:#000000;fill-opacity:1;fill-rule:nonzero;stroke:none"
         id="path426" /><path
         d="m 318.996,287.047 c 0,-0.766 0,-1.313 -0.625,-1.859 -0.484,-0.454 -1.109,-0.641 -1.719,-0.641 -1.156,0 -2.031,0.75 -2.031,1.656 0,0.406 0.266,0.594 0.594,0.594 0.328,0 0.562,-0.235 0.562,-0.563 0,-0.578 -0.5,-0.578 -0.703,-0.578 0.313,-0.578 0.985,-0.828 1.547,-0.828 0.641,0 1.469,0.531 1.469,1.781 v 0.563 c -2.813,0.031 -3.875,1.203 -3.875,2.281 0,1.109 1.281,1.453 2.14,1.453 0.922,0 1.547,-0.562 1.813,-1.234 0.062,0.656 0.484,1.156 1.094,1.156 0.281,0 1.093,-0.187 1.093,-1.297 v -0.781 h -0.296 v 0.781 c 0,0.781 -0.344,0.907 -0.532,0.907 -0.531,0 -0.531,-0.75 -0.531,-0.954 z m -0.906,1.75 c 0,1.375 -1.031,1.828 -1.625,1.828 -0.688,0 -1.25,-0.5 -1.25,-1.172 0,-1.844 2.375,-2.015 2.875,-2.031 z"
         style="fill:#000000;fill-opacity:1;fill-rule:nonzero;stroke:none"
         id="path428" /><path
         d="m 322.754,287.516 c 0,-1.36 0.562,-2.625 1.641,-2.625 0.109,0 0.14,0 0.187,0.015 -0.109,0.063 -0.328,0.141 -0.328,0.516 0,0.406 0.312,0.562 0.547,0.562 0.265,0 0.547,-0.187 0.547,-0.562 0,-0.422 -0.375,-0.813 -0.969,-0.813 -1.188,0 -1.594,1.282 -1.672,1.547 h -0.016 v -1.547 l -1.875,0.157 v 0.406 c 0.954,0 1.063,0.094 1.063,0.781 v 3.781 c 0,0.625 -0.156,0.625 -1.063,0.625 v 0.407 c 0.391,-0.032 1.157,-0.032 1.579,-0.032 0.375,0 1.359,0 1.687,0.032 v -0.407 h -0.281 c -1.016,0 -1.047,-0.156 -1.047,-0.656 z"
         style="fill:#000000;fill-opacity:1;fill-rule:nonzero;stroke:none"
         id="path430" /><path
         d="m 335.723,287.375 c 0,-1.297 0,-1.687 -0.313,-2.141 -0.406,-0.531 -1.062,-0.625 -1.531,-0.625 -1.172,0 -1.75,0.844 -1.969,1.391 -0.203,-1.078 -0.953,-1.391 -1.828,-1.391 -1.359,0 -1.891,1.157 -2,1.438 h -0.016 v -1.438 l -1.89,0.157 v 0.406 c 0.937,0 1.047,0.094 1.047,0.781 v 3.781 c 0,0.625 -0.141,0.625 -1.047,0.625 v 0.407 c 0.359,-0.032 1.109,-0.032 1.5,-0.032 0.406,0 1.156,0 1.515,0.032 v -0.407 c -0.89,0 -1.062,0 -1.062,-0.625 v -2.593 c 0,-1.469 0.969,-2.25 1.828,-2.25 0.875,0 1.063,0.718 1.063,1.562 v 3.281 c 0,0.625 -0.141,0.625 -1.063,0.625 v 0.407 c 0.375,-0.032 1.125,-0.032 1.516,-0.032 0.406,0 1.156,0 1.515,0.032 v -0.407 c -0.89,0 -1.062,0 -1.062,-0.625 v -2.593 c 0,-1.469 0.969,-2.25 1.828,-2.25 0.875,0 1.062,0.718 1.062,1.562 v 3.281 c 0,0.625 -0.156,0.625 -1.062,0.625 v 0.407 c 0.375,-0.032 1.125,-0.032 1.516,-0.032 0.406,0 1.156,0 1.515,0.032 v -0.407 c -0.687,0 -1.047,0 -1.062,-0.421 z"
         style="fill:#000000;fill-opacity:1;fill-rule:nonzero;stroke:none"
         id="path432" /><path
         d="m 339.812,290.828 c 0,-0.875 -0.296,-1.422 -0.828,-1.422 -0.406,0 -0.672,0.313 -0.672,0.672 0,0.375 0.266,0.688 0.672,0.688 0.219,0 0.375,-0.094 0.454,-0.172 0.046,-0.032 0.062,-0.032 0.062,-0.032 0.031,0 0.031,0.188 0.031,0.266 0,0.891 -0.359,1.719 -0.969,2.36 -0.062,0.046 -0.078,0.078 -0.078,0.124 0,0.079 0.078,0.141 0.141,0.141 0.125,0 1.187,-1.031 1.187,-2.625 z"
         style="fill:#000000;fill-opacity:1;fill-rule:nonzero;stroke:none"
         id="path434" /><path
         d="m 348.582,281.438 c -0.125,-0.188 -0.141,-0.204 -0.453,-0.204 h -2.125 v 0.407 c 0.594,0 0.937,0 1.312,0.093 v 7.563 c 0,0.406 0,1.062 -1.312,1.062 v 0.407 c 0.359,-0.032 1.094,-0.032 1.484,-0.032 0.391,0 1.125,0 1.5,0.032 v -0.407 c -1.328,0 -1.328,-0.656 -1.328,-1.062 v -7.328 c 0.11,0.109 0.11,0.125 0.235,0.297 l 5.437,8.296 c 0.141,0.188 0.156,0.204 0.25,0.204 0.125,0 0.156,-0.063 0.172,-0.078 v -7.985 c 0,-0.406 0,-1.062 1.328,-1.062 v -0.407 c -0.359,0.032 -1.109,0.032 -1.5,0.032 -0.391,0 -1.125,0 -1.484,-0.032 v 0.407 c 1.328,0 1.328,0.656 1.328,1.062 v 6.094 z"
         style="fill:#000000;fill-opacity:1;fill-rule:nonzero;stroke:none"
         id="path436" /><path
         d="m 358.793,282.266 c 0.906,-0.344 1.328,-1.063 1.328,-1.735 0,-0.75 -0.828,-1.328 -1.844,-1.328 -1.015,0 -1.781,0.578 -1.781,1.313 0,0.328 0.219,0.515 0.5,0.515 0.281,0 0.5,-0.219 0.5,-0.5 0,-0.343 -0.234,-0.484 -0.578,-0.484 0.266,-0.406 0.859,-0.609 1.328,-0.609 0.813,0 0.969,0.656 0.969,1.109 0,0.297 -0.063,0.765 -0.297,1.125 -0.313,0.453 -0.641,0.469 -0.938,0.484 -0.234,0.016 -0.25,0.016 -0.328,0.016 -0.093,0.016 -0.172,0.031 -0.172,0.125 0,0.141 0.079,0.141 0.25,0.141 h 0.454 c 0.843,0 1.218,0.671 1.218,1.609 0,1.25 -0.656,1.594 -1.156,1.594 -0.187,0 -1.141,-0.047 -1.578,-0.766 0.359,0.047 0.625,-0.203 0.625,-0.531 0,-0.328 -0.25,-0.532 -0.531,-0.532 -0.235,0 -0.532,0.157 -0.532,0.563 0,0.875 0.907,1.547 2.047,1.547 1.219,0 2.125,-0.891 2.125,-1.875 0,-0.859 -0.672,-1.578 -1.609,-1.781 z"
         style="fill:#000000;fill-opacity:1;fill-rule:nonzero;stroke:none"
         id="path438" /><path
         d="m 369.277,287.188 h -0.312 c -0.141,1.406 -0.313,3.171 -2.75,3.171 h -1.219 c -0.609,0 -0.641,-0.093 -0.641,-0.562 v -7.485 c 0,-0.5 0.032,-0.671 1.235,-0.671 h 0.422 v -0.407 c -0.407,0.032 -1.625,0.032 -2.125,0.032 -0.407,0 -1.657,0 -1.985,-0.032 v 0.407 h 0.266 c 1.016,0 1.047,0.14 1.047,0.656 v 7.406 c 0,0.516 -0.031,0.656 -1.047,0.656 h -0.266 v 0.407 h 7.016 z"
         style="fill:#000000;fill-opacity:1;fill-rule:nonzero;stroke:none"
         id="path440" /><path
         d="m 379.707,286.031 c 0,-2.89 -2.109,-5.093 -4.547,-5.093 -2.484,0 -4.562,2.234 -4.562,5.093 0,2.844 2.109,5.031 4.547,5.031 2.5,0 4.562,-2.218 4.562,-5.031 z m -4.547,4.703 c -1.422,0 -3.265,-1.343 -3.265,-4.906 0,-3.422 1.937,-4.578 3.25,-4.578 1.39,0 3.265,1.203 3.265,4.578 0,3.625 -1.89,4.906 -3.25,4.906 z"
         style="fill:#000000;fill-opacity:1;fill-rule:nonzero;stroke:none"
         id="path442" /><path
         d="m 395.012,287.375 c 0,-1.297 0,-1.687 -0.313,-2.141 -0.406,-0.531 -1.062,-0.625 -1.531,-0.625 -1.172,0 -1.75,0.844 -1.969,1.391 -0.203,-1.078 -0.953,-1.391 -1.828,-1.391 -1.359,0 -1.891,1.157 -2,1.438 h -0.016 v -1.438 l -1.89,0.157 v 0.406 c 0.937,0 1.047,0.094 1.047,0.781 v 3.781 c 0,0.625 -0.141,0.625 -1.047,0.625 v 0.407 c 0.359,-0.032 1.109,-0.032 1.5,-0.032 0.406,0 1.156,0 1.515,0.032 v -0.407 c -0.89,0 -1.062,0 -1.062,-0.625 v -2.593 c 0,-1.469 0.969,-2.25 1.828,-2.25 0.875,0 1.063,0.718 1.063,1.562 v 3.281 c 0,0.625 -0.141,0.625 -1.063,0.625 v 0.407 c 0.375,-0.032 1.125,-0.032 1.516,-0.032 0.406,0 1.156,0 1.515,0.032 v -0.407 c -0.89,0 -1.062,0 -1.062,-0.625 v -2.593 c 0,-1.469 0.969,-2.25 1.828,-2.25 0.875,0 1.062,0.718 1.062,1.562 v 3.281 c 0,0.625 -0.156,0.625 -1.062,0.625 v 0.407 c 0.375,-0.032 1.125,-0.032 1.516,-0.032 0.406,0 1.156,0 1.515,0.032 v -0.407 c -0.687,0 -1.047,0 -1.062,-0.421 z"
         style="fill:#000000;fill-opacity:1;fill-rule:nonzero;stroke:none"
         id="path444" /><path
         d="m 401.773,287.047 c 0,-0.766 0,-1.313 -0.625,-1.859 -0.484,-0.454 -1.109,-0.641 -1.718,-0.641 -1.157,0 -2.032,0.75 -2.032,1.656 0,0.406 0.266,0.594 0.594,0.594 0.328,0 0.563,-0.235 0.563,-0.563 0,-0.578 -0.5,-0.578 -0.703,-0.578 0.312,-0.578 0.984,-0.828 1.546,-0.828 0.641,0 1.469,0.531 1.469,1.781 v 0.563 c -2.812,0.031 -3.875,1.203 -3.875,2.281 0,1.109 1.281,1.453 2.141,1.453 0.922,0 1.547,-0.562 1.812,-1.234 0.063,0.656 0.485,1.156 1.094,1.156 0.281,0 1.094,-0.187 1.094,-1.297 v -0.781 h -0.297 v 0.781 c 0,0.781 -0.344,0.907 -0.531,0.907 -0.532,0 -0.532,-0.75 -0.532,-0.954 z m -0.906,1.75 c 0,1.375 -1.031,1.828 -1.625,1.828 -0.687,0 -1.25,-0.5 -1.25,-1.172 0,-1.844 2.375,-2.015 2.875,-2.031 z"
         style="fill:#000000;fill-opacity:1;fill-rule:nonzero;stroke:none"
         id="path446" /><path
         d="m 405.547,285.156 h 1.969 v -0.406 h -1.969 v -2.562 h -0.313 c -0.015,1.312 -0.515,2.64 -1.781,2.687 v 0.281 h 1.188 v 3.875 c 0,1.547 1.031,1.875 1.765,1.875 0.891,0 1.344,-0.859 1.344,-1.875 v -0.797 h -0.312 V 289 c 0,1.016 -0.391,1.594 -0.938,1.594 -0.953,0 -0.953,-1.297 -0.953,-1.532 z"
         style="fill:#000000;fill-opacity:1;fill-rule:nonzero;stroke:none"
         id="path448" /><path
         d="m 413.547,285.609 c -0.156,0 -0.672,0 -0.672,0.563 0,0.344 0.234,0.578 0.563,0.578 0.328,0 0.593,-0.203 0.593,-0.609 0,-0.922 -0.984,-1.594 -2.109,-1.594 -1.641,0 -2.938,1.453 -2.938,3.203 0,1.781 1.344,3.156 2.922,3.156 1.844,0 2.266,-1.672 2.266,-1.797 0,-0.125 -0.11,-0.125 -0.141,-0.125 -0.125,0 -0.14,0.032 -0.187,0.204 -0.313,0.984 -1.063,1.406 -1.813,1.406 -0.859,0 -1.984,-0.735 -1.984,-2.86 0,-2.312 1.187,-2.89 1.891,-2.89 0.531,0 1.296,0.218 1.609,0.765 z"
         style="fill:#000000;fill-opacity:1;fill-rule:nonzero;stroke:none"
         id="path450" /><path
         d="m 420.391,287.375 c 0,-1.297 0,-1.687 -0.313,-2.141 -0.406,-0.531 -1.062,-0.625 -1.531,-0.625 -1.203,0 -1.766,0.907 -1.953,1.344 h -0.016 v -4.875 l -1.937,0.156 v 0.407 c 0.937,0 1.047,0.093 1.047,0.781 v 7.312 c 0,0.625 -0.141,0.625 -1.047,0.625 v 0.407 c 0.359,-0.032 1.109,-0.032 1.5,-0.032 0.406,0 1.156,0 1.515,0.032 v -0.407 c -0.89,0 -1.062,0 -1.062,-0.625 v -2.593 c 0,-1.469 0.968,-2.25 1.828,-2.25 0.875,0 1.062,0.718 1.062,1.562 v 3.281 c 0,0.625 -0.14,0.625 -1.062,0.625 v 0.407 c 0.375,-0.032 1.125,-0.032 1.516,-0.032 0.406,0 1.156,0 1.515,0.032 v -0.407 c -0.687,0 -1.047,0 -1.062,-0.421 z"
         style="fill:#000000;fill-opacity:1;fill-rule:nonzero;stroke:none"
         id="path452" /><path
         d="m 430.848,294.156 c 0,-0.047 0,-0.062 -0.235,-0.312 -1.39,-1.406 -2.172,-3.703 -2.172,-6.547 0,-2.719 0.657,-5.047 2.266,-6.688 0.141,-0.125 0.141,-0.156 0.141,-0.203 0,-0.078 -0.063,-0.109 -0.125,-0.109 -0.172,0 -1.328,1.015 -2,2.375 -0.719,1.406 -1.032,2.906 -1.032,4.625 0,1.234 0.188,2.891 0.907,4.391 0.828,1.671 1.968,2.578 2.125,2.578 0.062,0 0.125,-0.032 0.125,-0.11 z"
         style="fill:#000000;fill-opacity:1;fill-rule:nonzero;stroke:none"
         id="path454" /><path
         d="m 434.664,286.328 h 2.359 c 1.625,0 3.125,-1.109 3.125,-2.516 0,-1.343 -1.359,-2.578 -3.25,-2.578 h -4.687 v 0.407 h 0.266 c 1.015,0 1.046,0.14 1.046,0.656 v 7.406 c 0,0.516 -0.031,0.656 -1.046,0.656 h -0.266 v 0.407 c 0.328,-0.032 1.469,-0.032 1.875,-0.032 0.422,0 1.562,0 1.906,0.032 v -0.407 h -0.281 c -1.016,0 -1.047,-0.14 -1.047,-0.656 z M 434.633,286 v -3.797 c 0,-0.469 0.031,-0.562 0.64,-0.562 h 1.313 c 2.266,0 2.266,1.578 2.266,2.171 0,0.594 0,2.188 -2.282,2.188 z"
         style="fill:#000000;fill-opacity:1;fill-rule:nonzero;stroke:none"
         id="path456" /><path
         d="m 441.5,281.234 v 0.407 h 0.266 c 1.015,0 1.046,0.14 1.046,0.656 v 7.406 c 0,0.516 -0.031,0.656 -1.046,0.656 H 441.5 v 0.407 h 4.875 c 2.328,0 4.203,-2.094 4.203,-4.672 0,-2.703 -1.89,-4.86 -4.203,-4.86 z m 3.062,9.125 c -0.609,0 -0.64,-0.093 -0.64,-0.562 v -7.594 c 0,-0.469 0.031,-0.562 0.64,-0.562 h 1.469 c 1.157,0 2.078,0.562 2.641,1.484 0.64,0.984 0.64,2.391 0.64,2.953 0,0.781 -0.015,2.094 -0.812,3.125 -0.469,0.578 -1.297,1.156 -2.469,1.156 z"
         style="fill:#000000;fill-opacity:1;fill-rule:nonzero;stroke:none"
         id="path458" /><path
         d="m 459.293,281.266 h -7.391 v 0.406 h 0.266 c 1.016,0 1.047,0.14 1.047,0.656 v 7.375 c 0,0.516 -0.031,0.656 -1.047,0.656 h -0.266 v 0.407 c 0.328,-0.032 1.578,-0.032 1.985,-0.032 0.5,0 1.718,0 2.125,0.032 v -0.407 h -0.422 c -1.203,0 -1.235,-0.171 -1.235,-0.671 v -3.469 h 1.219 c 1.313,0 1.453,0.453 1.453,1.625 h 0.313 v -3.656 h -0.313 c 0,1.171 -0.14,1.624 -1.453,1.624 h -1.219 v -3.593 c 0,-0.453 0.032,-0.547 0.641,-0.547 h 1.734 c 2.016,0 2.422,0.734 2.61,2.703 h 0.312 z"
         style="fill:#000000;fill-opacity:1;fill-rule:nonzero;stroke:none"
         id="path460" /><path
         d="m 468.176,287.562 c 0,1.954 -1.328,3.094 -2.641,3.094 -0.828,0 -2.281,-0.562 -2.281,-3 v -5.359 c 0,-0.516 0.031,-0.656 1.047,-0.656 h 0.281 v -0.407 c -0.344,0.032 -1.484,0.032 -1.891,0.032 -0.421,0 -1.562,0 -1.89,-0.032 v 0.407 h 0.265 c 1.016,0 1.047,0.14 1.047,0.656 v 5.281 c 0,2.016 1.625,3.484 3.391,3.484 1.953,0 3.047,-1.906 3.047,-3.296 v -5.282 c 0,-0.843 1.078,-0.843 1.328,-0.843 v -0.407 c -0.359,0.032 -1.109,0.032 -1.5,0.032 -0.406,0 -1.172,0 -1.531,-0.032 v 0.407 c 1.328,0 1.328,0.656 1.328,1.031 z"
         style="fill:#000000;fill-opacity:1;fill-rule:nonzero;stroke:none"
         id="path462" /><path
         d="m 474.398,287.297 c 0,-1.063 -0.14,-2.797 -0.921,-4.422 -0.829,-1.672 -1.969,-2.578 -2.125,-2.578 -0.047,0 -0.125,0.031 -0.125,0.109 0,0.047 0,0.078 0.234,0.313 1.406,1.406 2.187,3.719 2.187,6.562 0,2.703 -0.656,5.031 -2.281,6.672 -0.14,0.141 -0.14,0.156 -0.14,0.203 0,0.078 0.078,0.11 0.125,0.11 0.187,0 1.328,-1 2.015,-2.375 0.703,-1.422 1.031,-2.922 1.031,-4.594 z"
         style="fill:#000000;fill-opacity:1;fill-rule:nonzero;stroke:none"
         id="path464" /></g></g></svg>
