<?xml version="1.0" encoding="UTF-8" standalone="no"?>
<!-- Created with Inkscape (http://www.inkscape.org/) -->

<svg
   version="1.1"
   id="svg2"
   xml:space="preserve"
   width="480"
   height="336"
   viewBox="0 0 480 336"
   sodipodi:docname="charm_momfrac_xmin_dep_3fns.pdf"
   xmlns:inkscape="http://www.inkscape.org/namespaces/inkscape"
   xmlns:sodipodi="http://sodipodi.sourceforge.net/DTD/sodipodi-0.dtd"
   xmlns="http://www.w3.org/2000/svg"
   xmlns:svg="http://www.w3.org/2000/svg"><defs
     id="defs6"><clipPath
       clipPathUnits="userSpaceOnUse"
       id="clipPath20"><path
         d="M 43.418,15 H 324 V 204.996 H 43.418 Z"
         id="path18" /></clipPath><clipPath
       clipPathUnits="userSpaceOnUse"
       id="clipPath28"><path
         d="M 0,0 H 360 V 252 H 0 Z"
         id="path26" /></clipPath><clipPath
       clipPathUnits="userSpaceOnUse"
       id="clipPath44"><path
         d="M 43.418,14 H 325 V 204.996 H 43.418 Z"
         id="path42" /></clipPath><clipPath
       clipPathUnits="userSpaceOnUse"
       id="clipPath52"><path
         d="M 0,0 H 360 V 252 H 0 Z"
         id="path50" /></clipPath><clipPath
       clipPathUnits="userSpaceOnUse"
       id="clipPath68"><path
         d="M 43.418,53 H 324 V 204.996 H 43.418 Z"
         id="path66" /></clipPath><clipPath
       clipPathUnits="userSpaceOnUse"
       id="clipPath76"><path
         d="M 0,0 H 360 V 252 H 0 Z"
         id="path74" /></clipPath><clipPath
       clipPathUnits="userSpaceOnUse"
       id="clipPath92"><path
         d="M 43.418,52 H 325 V 204.996 H 43.418 Z"
         id="path90" /></clipPath><clipPath
       clipPathUnits="userSpaceOnUse"
       id="clipPath100"><path
         d="M 0,0 H 360 V 252 H 0 Z"
         id="path98" /></clipPath><clipPath
       clipPathUnits="userSpaceOnUse"
       id="clipPath302"><path
         d="M 43.418,90 H 325 V 204.996 H 43.418 Z"
         id="path300" /></clipPath><clipPath
       clipPathUnits="userSpaceOnUse"
       id="clipPath312"><path
         d="M 0,0 H 360 V 252 H 0 Z"
         id="path310" /></clipPath></defs><sodipodi:namedview
     id="namedview4"
     pagecolor="#ffffff"
     bordercolor="#666666"
     borderopacity="1.0"
     inkscape:pageshadow="2"
     inkscape:pageopacity="0.0"
     inkscape:pagecheckerboard="0" /><g
     id="g8"
     inkscape:groupmode="layer"
     inkscape:label="charm_momfrac_xmin_dep_3fns"
     transform="matrix(1.3333333,0,0,1.3333333,0,8.4e-6)"><g
       id="g10"><path
         d="M 43.418,10 H 342.52 V 204.996 H 43.418 Z"
         style="fill:#ffffff;fill-opacity:1;fill-rule:nonzero;stroke:none"
         id="path12" /></g><g
       id="g14"><g
         id="g16"
         clip-path="url(#clipPath20)"><g
           id="g22"><g
             id="g24" /><g
             id="g36"><g
               clip-path="url(#clipPath28)"
               id="g34"><g
                 id="g32"><path
                   d="M 43.555,213.812 V 18.508 l 0.449,-0.649 0.574,-0.754 0.731,-0.644 0.929,-0.641 1.184,-0.379 1.512,-0.199 1.925,0.289 2.457,0.727 3.125,1.519 3.985,2.325 5.078,3.578 6.469,5.765 9.332,6.653 9.328,7.3 9.328,8.067 9.332,8.519 9.328,9.047 9.328,9.309 9.328,9.687 9.332,9.805 9.329,10.008 9.328,9.957 9.328,9.996 9.332,9.656 9.328,9.328 9.328,8.582 9.332,7.922 9.328,7.02 9.328,6.289 9.328,5.351 9.332,4.668 9.329,3.817 9.328,3.039 9.328,2.207 9.332,2.168 9.328,2.015 9.328,2.008 9.332,1.481 9.328,1.191 v 0.512 l -9.328,0.137 -9.332,0.175 -9.328,0.176 -9.328,-0.121 -9.332,-0.578 -9.328,-1.238 -9.328,-1.621 -9.329,-1.704 -9.332,-1.964 -9.328,-2.364 -9.328,-2.797 -9.328,-3.207 -9.332,-3.707 -9.328,-4.144 -9.328,-4.528 -9.332,-4.675 -9.328,-4.817 -9.328,-4.843 -9.329,-4.743 -9.332,-4.332 -9.328,-3.992 -9.328,-3.39 -9.328,-2.645 -9.332,-1.344 -9.328,0.434 -9.328,3.305 -9.332,6.957 -6.469,11.683 -5.078,10.93 -3.985,10.066 -3.125,8.532 -2.457,6.824 -1.925,5.156 -1.512,3.672 -1.184,2.383 -0.929,1.339 -0.731,0.485 -0.574,-0.129 z"
                   style="fill:#1e75b3;fill-opacity:0.2;fill-rule:nonzero;stroke:none"
                   id="path30" /></g></g></g></g></g></g><g
       id="g38"><g
         id="g40"
         clip-path="url(#clipPath44)"><g
           id="g46"><g
             id="g48" /><g
             id="g60"><g
               clip-path="url(#clipPath52)"
               id="g58"><g
                 id="g56"><path
                   d="M 43.555,213.812 V 18.508 l 0.449,-0.649 0.574,-0.754 0.731,-0.644 0.929,-0.641 1.184,-0.379 1.512,-0.199 1.925,0.289 2.457,0.727 3.125,1.519 3.985,2.325 5.078,3.578 6.469,5.765 9.332,6.653 9.328,7.3 9.328,8.067 9.332,8.519 9.328,9.047 9.328,9.309 9.328,9.687 9.332,9.805 9.329,10.008 9.328,9.957 9.328,9.996 9.332,9.656 9.328,9.328 9.328,8.582 9.332,7.922 9.328,7.02 9.328,6.289 9.328,5.351 9.332,4.668 9.329,3.817 9.328,3.039 9.328,2.207 9.332,2.168 9.328,2.015 9.328,2.008 9.332,1.481 9.328,1.191 v 0.512 l -9.328,0.137 -9.332,0.175 -9.328,0.176 -9.328,-0.121 -9.332,-0.578 -9.328,-1.238 -9.328,-1.621 -9.329,-1.704 -9.332,-1.964 -9.328,-2.364 -9.328,-2.797 -9.328,-3.207 -9.332,-3.707 -9.328,-4.144 -9.328,-4.528 -9.332,-4.675 -9.328,-4.817 -9.328,-4.843 -9.329,-4.743 -9.332,-4.332 -9.328,-3.992 -9.328,-3.39 -9.328,-2.645 -9.332,-1.344 -9.328,0.434 -9.328,3.305 -9.332,6.957 -6.469,11.683 -5.078,10.93 -3.985,10.066 -3.125,8.532 -2.457,6.824 -1.925,5.156 -1.512,3.672 -1.184,2.383 -0.929,1.339 -0.731,0.485 -0.574,-0.129 z"
                   style="fill:none;stroke:#1e75b3;stroke-width:1;stroke-linecap:butt;stroke-linejoin:round;stroke-miterlimit:10;stroke-dasharray:none;stroke-opacity:0.2"
                   id="path54" /></g></g></g></g></g></g><g
       id="g62"><g
         id="g64"
         clip-path="url(#clipPath68)"><g
           id="g70"><g
             id="g72" /><g
             id="g84"><g
               clip-path="url(#clipPath76)"
               id="g82"><g
                 id="g80"><path
                   d="M 43.555,157.223 V 75.098 l 0.449,0.097 0.574,-0.168 0.731,-0.367 0.929,-0.762 1.184,-1.101 1.512,-1.645 1.925,-2.117 2.457,-2.762 3.125,-3.246 3.985,-3.687 5.078,-3.551 6.469,-2.777 9.332,0.246 9.328,2.683 9.328,4.825 9.332,6.187 9.328,7.367 9.328,8.043 9.328,8.719 9.332,9.043 9.329,9.406 9.328,9.485 9.328,9.644 9.332,9.399 9.328,9.132 9.328,8.446 9.332,7.824 9.328,6.953 9.328,6.246 9.328,5.324 9.332,4.649 9.329,3.805 9.328,3.031 9.328,2.203 9.332,2.168 9.328,2.015 9.328,2.008 9.332,1.481 9.328,1.191 v 0.512 l -9.328,0.137 -9.332,0.175 -9.328,0.172 -9.328,-0.121 -9.332,-0.574 -9.328,-1.246 -9.328,-1.625 -9.329,-1.715 -9.332,-1.984 -9.328,-2.391 -9.328,-2.84 -9.328,-3.277 -9.332,-3.801 -9.328,-4.281 -9.328,-4.723 -9.332,-4.933 -9.328,-5.172 -9.328,-5.313 -9.329,-5.344 -9.332,-5.093 -9.328,-4.961 -9.328,-4.653 -9.328,-4.328 -9.332,-3.672 -9.328,-2.812 -9.328,-1.317 -9.332,0.555 -6.469,3.141 -5.078,3.804 -3.985,4.051 -3.125,3.766 -2.457,3.336 -1.925,2.75 -1.512,2.226 -1.184,1.661 -0.929,1.214 -0.731,0.766 -0.574,0.453 z"
                   style="fill:#ff7d0c;fill-opacity:0.2;fill-rule:nonzero;stroke:none"
                   id="path78" /></g></g></g></g></g></g><g
       id="g86"><g
         id="g88"
         clip-path="url(#clipPath92)"><g
           id="g94"><g
             id="g96" /><g
             id="g108"><g
               clip-path="url(#clipPath100)"
               id="g106"><g
                 id="g104"><path
                   d="M 43.555,157.223 V 75.098 l 0.449,0.097 0.574,-0.168 0.731,-0.367 0.929,-0.762 1.184,-1.101 1.512,-1.645 1.925,-2.117 2.457,-2.762 3.125,-3.246 3.985,-3.687 5.078,-3.551 6.469,-2.777 9.332,0.246 9.328,2.683 9.328,4.825 9.332,6.187 9.328,7.367 9.328,8.043 9.328,8.719 9.332,9.043 9.329,9.406 9.328,9.485 9.328,9.644 9.332,9.399 9.328,9.132 9.328,8.446 9.332,7.824 9.328,6.953 9.328,6.246 9.328,5.324 9.332,4.649 9.329,3.805 9.328,3.031 9.328,2.203 9.332,2.168 9.328,2.015 9.328,2.008 9.332,1.481 9.328,1.191 v 0.512 l -9.328,0.137 -9.332,0.175 -9.328,0.172 -9.328,-0.121 -9.332,-0.574 -9.328,-1.246 -9.328,-1.625 -9.329,-1.715 -9.332,-1.984 -9.328,-2.391 -9.328,-2.84 -9.328,-3.277 -9.332,-3.801 -9.328,-4.281 -9.328,-4.723 -9.332,-4.933 -9.328,-5.172 -9.328,-5.313 -9.329,-5.344 -9.332,-5.093 -9.328,-4.961 -9.328,-4.653 -9.328,-4.328 -9.332,-3.672 -9.328,-2.812 -9.328,-1.317 -9.332,0.555 -6.469,3.141 -5.078,3.804 -3.985,4.051 -3.125,3.766 -2.457,3.336 -1.925,2.75 -1.512,2.226 -1.184,1.661 -0.929,1.214 -0.731,0.766 -0.574,0.453 z"
                   style="fill:none;stroke:#ff7d0c;stroke-width:1;stroke-linecap:butt;stroke-linejoin:round;stroke-miterlimit:10;stroke-dasharray:none;stroke-opacity:0.2"
                   id="path102" /></g></g></g></g></g></g><g
       id="g110"><path
         d="m 102.035,204.996 v -5"
         style="fill:none;stroke:#000000;stroke-width:0.8;stroke-linecap:butt;stroke-linejoin:round;stroke-miterlimit:10;stroke-dasharray:none;stroke-opacity:1"
         id="path112" /><path
         d="m 99.914,213.184 c 0,-0.985 -0.062,-1.954 -0.5,-2.86 -0.484,-1 -1.344,-1.265 -1.937,-1.265 -0.688,0 -1.532,0.343 -1.985,1.343 -0.328,0.75 -0.453,1.5 -0.453,2.782 0,1.156 0.094,2.031 0.516,2.89 0.468,0.906 1.297,1.188 1.922,1.188 1.031,0 1.625,-0.625 1.984,-1.313 0.422,-0.89 0.453,-2.062 0.453,-2.765 z m -2.437,3.843 c -0.391,0 -1.172,-0.218 -1.391,-1.515 -0.125,-0.719 -0.125,-1.625 -0.125,-2.469 0,-0.984 0,-1.859 0.187,-2.563 0.204,-0.812 0.813,-1.171 1.329,-1.171 0.453,0 1.14,0.265 1.375,1.296 0.156,0.688 0.156,1.625 0.156,2.438 0,0.797 0,1.703 -0.141,2.437 -0.219,1.313 -0.984,1.547 -1.39,1.547 z"
         style="fill:#000000;fill-opacity:1;fill-rule:nonzero;stroke:none"
         id="path114" /><path
         d="m 102.613,216.434 c 0,-0.344 -0.297,-0.579 -0.578,-0.579 -0.344,0 -0.578,0.282 -0.578,0.579 0,0.343 0.281,0.578 0.563,0.578 0.343,0 0.593,-0.282 0.593,-0.578 z"
         style="fill:#000000;fill-opacity:1;fill-rule:nonzero;stroke:none"
         id="path116" /><path
         d="m 108.926,214.996 h -0.266 c -0.047,0.203 -0.14,0.875 -0.25,1.063 -0.094,0.109 -0.765,0.109 -1.125,0.109 h -2.219 c 0.329,-0.281 1.063,-1.047 1.36,-1.328 1.828,-1.672 2.5,-2.297 2.5,-3.485 0,-1.375 -1.094,-2.296 -2.485,-2.296 -1.375,0 -2.203,1.187 -2.203,2.218 0,0.61 0.532,0.61 0.563,0.61 0.265,0 0.562,-0.188 0.562,-0.563 0,-0.344 -0.218,-0.562 -0.562,-0.562 -0.094,0 -0.125,0 -0.156,0.015 0.218,-0.812 0.875,-1.375 1.64,-1.375 1.016,0 1.641,0.86 1.641,1.953 0,1.016 -0.578,1.907 -1.266,2.672 l -2.422,2.703 v 0.282 h 4.375 z"
         style="fill:#000000;fill-opacity:1;fill-rule:nonzero;stroke:none"
         id="path118" /><path
         d="m 162.156,204.996 v -5"
         style="fill:none;stroke:#000000;stroke-width:0.8;stroke-linecap:butt;stroke-linejoin:round;stroke-miterlimit:10;stroke-dasharray:none;stroke-opacity:1"
         id="path120" /><path
         d="m 160.039,213.184 c 0,-0.985 -0.062,-1.954 -0.5,-2.86 -0.484,-1 -1.344,-1.265 -1.937,-1.265 -0.688,0 -1.532,0.343 -1.985,1.343 -0.328,0.75 -0.453,1.5 -0.453,2.782 0,1.156 0.094,2.031 0.516,2.89 0.468,0.906 1.297,1.188 1.922,1.188 1.031,0 1.625,-0.625 1.984,-1.313 0.422,-0.89 0.453,-2.062 0.453,-2.765 z m -2.437,3.843 c -0.391,0 -1.172,-0.218 -1.391,-1.515 -0.125,-0.719 -0.125,-1.625 -0.125,-2.469 0,-0.984 0,-1.859 0.187,-2.563 0.204,-0.812 0.813,-1.171 1.329,-1.171 0.453,0 1.14,0.265 1.375,1.296 0.156,0.688 0.156,1.625 0.156,2.438 0,0.797 0,1.703 -0.141,2.437 -0.219,1.313 -0.984,1.547 -1.39,1.547 z"
         style="fill:#000000;fill-opacity:1;fill-rule:nonzero;stroke:none"
         id="path122" /><path
         d="m 162.734,216.434 c 0,-0.344 -0.296,-0.579 -0.578,-0.579 -0.344,0 -0.578,0.282 -0.578,0.579 0,0.343 0.281,0.578 0.563,0.578 0.343,0 0.593,-0.282 0.593,-0.578 z"
         style="fill:#000000;fill-opacity:1;fill-rule:nonzero;stroke:none"
         id="path124" /><path
         d="m 168.094,209.23 c 0,-0.234 0,-0.281 -0.172,-0.281 -0.094,0 -0.125,0 -0.219,0.141 l -3.594,5.578 v 0.344 h 3.141 v 1.093 c 0,0.438 -0.031,0.563 -0.906,0.563 h -0.235 v 0.344 c 0.282,-0.032 1.219,-0.032 1.563,-0.032 0.328,0 1.281,0 1.562,0.032 v -0.344 H 169 c -0.875,0 -0.906,-0.125 -0.906,-0.563 v -1.093 h 1.203 v -0.344 h -1.203 z m -0.782,0.938 v 4.5 h -2.906 z"
         style="fill:#000000;fill-opacity:1;fill-rule:nonzero;stroke:none"
         id="path126" /><path
         d="m 222.277,204.996 v -5"
         style="fill:none;stroke:#000000;stroke-width:0.8;stroke-linecap:butt;stroke-linejoin:round;stroke-miterlimit:10;stroke-dasharray:none;stroke-opacity:1"
         id="path128" /><path
         d="m 220.16,213.184 c 0,-0.985 -0.062,-1.954 -0.5,-2.86 -0.484,-1 -1.344,-1.265 -1.937,-1.265 -0.688,0 -1.532,0.343 -1.985,1.343 -0.328,0.75 -0.453,1.5 -0.453,2.782 0,1.156 0.094,2.031 0.516,2.89 0.469,0.906 1.297,1.188 1.922,1.188 1.031,0 1.625,-0.625 1.984,-1.313 0.422,-0.89 0.453,-2.062 0.453,-2.765 z m -2.437,3.843 c -0.391,0 -1.172,-0.218 -1.391,-1.515 -0.125,-0.719 -0.125,-1.625 -0.125,-2.469 0,-0.984 0,-1.859 0.188,-2.563 0.203,-0.812 0.812,-1.171 1.328,-1.171 0.453,0 1.14,0.265 1.375,1.296 0.156,0.688 0.156,1.625 0.156,2.438 0,0.797 0,1.703 -0.141,2.437 -0.218,1.313 -0.984,1.547 -1.39,1.547 z"
         style="fill:#000000;fill-opacity:1;fill-rule:nonzero;stroke:none"
         id="path130" /><path
         d="m 222.855,216.434 c 0,-0.344 -0.296,-0.579 -0.578,-0.579 -0.343,0 -0.578,0.282 -0.578,0.579 0,0.343 0.281,0.578 0.563,0.578 0.343,0 0.593,-0.282 0.593,-0.578 z"
         style="fill:#000000;fill-opacity:1;fill-rule:nonzero;stroke:none"
         id="path132" /><path
         d="m 225.371,212.855 c 0,-3.031 1.469,-3.5 2.109,-3.5 0.438,0 0.875,0.125 1.094,0.485 -0.14,0 -0.594,0 -0.594,0.484 0,0.266 0.172,0.5 0.485,0.5 0.297,0 0.5,-0.187 0.5,-0.531 0,-0.625 -0.453,-1.234 -1.485,-1.234 -1.515,0 -3.093,1.546 -3.093,4.171 0,3.297 1.437,4.032 2.453,4.032 1.312,0 2.422,-1.141 2.422,-2.688 0,-1.594 -1.11,-2.656 -2.313,-2.656 -1.062,0 -1.453,0.922 -1.578,1.25 z m 1.469,4.079 c -0.75,0 -1.11,-0.657 -1.219,-0.907 -0.109,-0.312 -0.219,-0.906 -0.219,-1.734 0,-0.953 0.422,-2.141 1.5,-2.141 0.657,0 1,0.453 1.188,0.86 0.187,0.437 0.187,1.031 0.187,1.547 0,0.609 0,1.156 -0.234,1.609 -0.297,0.562 -0.719,0.766 -1.203,0.766 z"
         style="fill:#000000;fill-opacity:1;fill-rule:nonzero;stroke:none"
         id="path134" /><path
         d="m 282.398,204.996 v -5"
         style="fill:none;stroke:#000000;stroke-width:0.8;stroke-linecap:butt;stroke-linejoin:round;stroke-miterlimit:10;stroke-dasharray:none;stroke-opacity:1"
         id="path136" /><path
         d="m 280.281,213.184 c 0,-0.985 -0.062,-1.954 -0.5,-2.86 -0.484,-1 -1.343,-1.265 -1.937,-1.265 -0.688,0 -1.532,0.343 -1.985,1.343 -0.328,0.75 -0.453,1.5 -0.453,2.782 0,1.156 0.094,2.031 0.516,2.89 0.469,0.906 1.297,1.188 1.922,1.188 1.031,0 1.625,-0.625 1.984,-1.313 0.422,-0.89 0.453,-2.062 0.453,-2.765 z m -2.437,3.843 c -0.391,0 -1.172,-0.218 -1.391,-1.515 -0.125,-0.719 -0.125,-1.625 -0.125,-2.469 0,-0.984 0,-1.859 0.188,-2.563 0.203,-0.812 0.812,-1.171 1.328,-1.171 0.453,0 1.14,0.265 1.375,1.296 0.156,0.688 0.156,1.625 0.156,2.438 0,0.797 0,1.703 -0.141,2.437 -0.218,1.313 -0.984,1.547 -1.39,1.547 z"
         style="fill:#000000;fill-opacity:1;fill-rule:nonzero;stroke:none"
         id="path138" /><path
         d="m 282.977,216.434 c 0,-0.344 -0.297,-0.579 -0.579,-0.579 -0.343,0 -0.578,0.282 -0.578,0.579 0,0.343 0.282,0.578 0.563,0.578 0.344,0 0.594,-0.282 0.594,-0.578 z"
         style="fill:#000000;fill-opacity:1;fill-rule:nonzero;stroke:none"
         id="path140" /><path
         d="m 287.59,212.699 c 0.594,-0.328 1.469,-0.875 1.469,-1.875 0,-1.047 -1,-1.765 -2.11,-1.765 -1.172,0 -2.109,0.875 -2.109,1.968 0,0.407 0.125,0.813 0.453,1.219 0.141,0.156 0.141,0.156 0.984,0.75 -1.156,0.531 -1.765,1.344 -1.765,2.203 0,1.281 1.218,2.063 2.437,2.063 1.328,0 2.438,-0.985 2.438,-2.235 0,-1.218 -0.86,-1.75 -1.797,-2.328 z m -1.625,-1.078 c -0.156,-0.109 -0.641,-0.422 -0.641,-1 0,-0.781 0.813,-1.266 1.625,-1.266 0.86,0 1.625,0.61 1.625,1.469 0,0.735 -0.531,1.328 -1.219,1.703 z m 0.562,1.547 1.438,0.937 c 0.312,0.204 0.875,0.579 0.875,1.297 0,0.922 -0.922,1.532 -1.891,1.532 -1.015,0 -1.875,-0.735 -1.875,-1.735 0,-0.922 0.672,-1.672 1.453,-2.031 z"
         style="fill:#000000;fill-opacity:1;fill-rule:nonzero;stroke:none"
         id="path142" /><path
         d="m 342.52,204.996 v -5"
         style="fill:none;stroke:#000000;stroke-width:0.8;stroke-linecap:butt;stroke-linejoin:round;stroke-miterlimit:10;stroke-dasharray:none;stroke-opacity:1"
         id="path144" /><path
         d="m 338.48,209.355 c 0,-0.281 0,-0.296 -0.234,-0.296 -0.281,0.328 -0.891,0.765 -2.109,0.765 v 0.344 c 0.265,0 0.859,0 1.531,-0.297 v 6.219 c 0,0.437 -0.047,0.578 -1.094,0.578 h -0.375 v 0.344 c 0.328,-0.032 1.485,-0.032 1.875,-0.032 0.406,0 1.547,0 1.875,0.032 v -0.344 h -0.375 c -1.047,0 -1.094,-0.141 -1.094,-0.578 z"
         style="fill:#000000;fill-opacity:1;fill-rule:nonzero;stroke:none"
         id="path146" /><path
         d="m 343.098,216.434 c 0,-0.344 -0.297,-0.579 -0.578,-0.579 -0.344,0 -0.579,0.282 -0.579,0.579 0,0.343 0.282,0.578 0.563,0.578 0.344,0 0.594,-0.282 0.594,-0.578 z"
         style="fill:#000000;fill-opacity:1;fill-rule:nonzero;stroke:none"
         id="path148" /><path
         d="m 349.508,213.184 c 0,-0.985 -0.063,-1.954 -0.5,-2.86 -0.485,-1 -1.344,-1.265 -1.938,-1.265 -0.687,0 -1.531,0.343 -1.984,1.343 -0.328,0.75 -0.453,1.5 -0.453,2.782 0,1.156 0.094,2.031 0.515,2.89 0.469,0.906 1.297,1.188 1.922,1.188 1.032,0 1.625,-0.625 1.985,-1.313 0.422,-0.89 0.453,-2.062 0.453,-2.765 z m -2.438,3.843 c -0.39,0 -1.172,-0.218 -1.39,-1.515 -0.125,-0.719 -0.125,-1.625 -0.125,-2.469 0,-0.984 0,-1.859 0.187,-2.563 0.203,-0.812 0.813,-1.171 1.328,-1.171 0.453,0 1.141,0.265 1.375,1.296 0.157,0.688 0.157,1.625 0.157,2.438 0,0.797 0,1.703 -0.141,2.437 -0.219,1.313 -0.984,1.547 -1.391,1.547 z"
         style="fill:#000000;fill-opacity:1;fill-rule:nonzero;stroke:none"
         id="path150" /><path
         d="m 185.48,229.633 c -0.625,0.109 -0.875,0.594 -0.875,0.969 0,0.484 0.375,0.64 0.657,0.64 0.609,0 1.015,-0.515 1.015,-1.047 0,-0.843 -0.953,-1.218 -1.781,-1.218 -1.219,0 -1.906,1.187 -2.078,1.562 -0.453,-1.484 -1.688,-1.562 -2.047,-1.562 -2.031,0 -3.109,2.609 -3.109,3.046 0,0.079 0.078,0.172 0.218,0.172 0.157,0 0.204,-0.109 0.235,-0.187 0.672,-2.219 2.015,-2.641 2.594,-2.641 0.89,0 1.078,0.844 1.078,1.313 0,0.437 -0.125,0.906 -0.36,1.859 l -0.687,2.734 c -0.297,1.188 -0.875,2.282 -1.922,2.282 -0.109,0 -0.609,0 -1.016,-0.25 0.719,-0.141 0.875,-0.735 0.875,-0.985 0,-0.39 -0.297,-0.64 -0.687,-0.64 -0.469,0 -0.985,0.422 -0.985,1.062 0,0.844 0.938,1.219 1.782,1.219 0.968,0 1.64,-0.766 2.062,-1.578 0.313,1.172 1.313,1.578 2.047,1.578 2.031,0 3.109,-2.609 3.109,-3.047 0,-0.109 -0.078,-0.187 -0.203,-0.187 -0.172,0 -0.203,0.109 -0.25,0.265 -0.547,1.75 -1.703,2.563 -2.593,2.563 -0.704,0 -1.079,-0.516 -1.079,-1.328 0,-0.438 0.079,-0.766 0.407,-2.079 l 0.687,-2.703 c 0.297,-1.203 0.985,-2.078 1.891,-2.078 0.047,0 0.609,0 1.015,0.266 z"
         style="fill:#000000;fill-opacity:1;fill-rule:nonzero;stroke:none"
         id="path152" /><path
         d="m 197.133,237.355 c 0,-1.296 0,-1.687 -0.313,-2.14 -0.406,-0.531 -1.062,-0.625 -1.531,-0.625 -1.172,0 -1.75,0.844 -1.969,1.39 -0.203,-1.078 -0.953,-1.39 -1.828,-1.39 -1.359,0 -1.89,1.156 -2,1.437 h -0.015 v -1.437 l -1.891,0.156 v 0.406 c 0.937,0 1.047,0.094 1.047,0.782 v 3.781 c 0,0.625 -0.141,0.625 -1.047,0.625 v 0.406 c 0.359,-0.031 1.109,-0.031 1.5,-0.031 0.406,0 1.156,0 1.516,0.031 v -0.406 c -0.891,0 -1.063,0 -1.063,-0.625 v -2.594 c 0,-1.469 0.969,-2.25 1.828,-2.25 0.875,0 1.063,0.719 1.063,1.563 v 3.281 c 0,0.625 -0.141,0.625 -1.063,0.625 v 0.406 c 0.375,-0.031 1.125,-0.031 1.516,-0.031 0.406,0 1.156,0 1.515,0.031 v -0.406 c -0.89,0 -1.062,0 -1.062,-0.625 v -2.594 c 0,-1.469 0.969,-2.25 1.828,-2.25 0.875,0 1.063,0.719 1.063,1.563 v 3.281 c 0,0.625 -0.157,0.625 -1.063,0.625 v 0.406 c 0.375,-0.031 1.125,-0.031 1.516,-0.031 0.406,0 1.156,0 1.515,0.031 v -0.406 c -0.687,0 -1.047,0 -1.062,-0.422 z"
         style="fill:#000000;fill-opacity:1;fill-rule:nonzero;stroke:none"
         id="path154" /><path
         d="m 200.922,232.152 c 0,-0.359 -0.281,-0.687 -0.672,-0.687 -0.375,0 -0.672,0.297 -0.672,0.672 0,0.422 0.328,0.687 0.672,0.687 0.422,0 0.672,-0.359 0.672,-0.672 z M 199,234.746 v 0.406 c 0.891,0 1.016,0.078 1.016,0.766 v 3.797 c 0,0.625 -0.141,0.625 -1.063,0.625 v 0.406 c 0.391,-0.031 1.063,-0.031 1.469,-0.031 0.156,0 0.969,0 1.437,0.031 v -0.406 c -0.906,0 -0.953,-0.063 -0.953,-0.61 v -5.14 z"
         style="fill:#000000;fill-opacity:1;fill-rule:nonzero;stroke:none"
         id="path156" /><path
         d="m 208.48,237.355 c 0,-1.296 0,-1.687 -0.312,-2.14 -0.406,-0.531 -1.063,-0.625 -1.531,-0.625 -1.36,0 -1.891,1.156 -2,1.437 h -0.016 v -1.437 l -1.891,0.156 v 0.406 c 0.938,0 1.047,0.094 1.047,0.782 v 3.781 c 0,0.625 -0.14,0.625 -1.047,0.625 v 0.406 c 0.36,-0.031 1.11,-0.031 1.5,-0.031 0.407,0 1.157,0 1.516,0.031 v -0.406 c -0.891,0 -1.062,0 -1.062,-0.625 v -2.594 c 0,-1.469 0.968,-2.25 1.828,-2.25 0.875,0 1.062,0.719 1.062,1.563 v 3.281 c 0,0.625 -0.14,0.625 -1.062,0.625 v 0.406 c 0.375,-0.031 1.125,-0.031 1.515,-0.031 0.407,0 1.157,0 1.516,0.031 v -0.406 c -0.688,0 -1.047,0 -1.063,-0.422 z"
         style="fill:#000000;fill-opacity:1;fill-rule:nonzero;stroke:none"
         id="path158" /><path
         d="m 43.418,204.996 h 5"
         style="fill:none;stroke:#000000;stroke-width:0.8;stroke-linecap:butt;stroke-linejoin:round;stroke-miterlimit:10;stroke-dasharray:none;stroke-opacity:1"
         id="path160" /><path
         d="m 342.52,204.996 h -5"
         style="fill:none;stroke:#000000;stroke-width:0.8;stroke-linecap:butt;stroke-linejoin:round;stroke-miterlimit:10;stroke-dasharray:none;stroke-opacity:1"
         id="path162" /><path
         d="m 30.316,205.426 c 0,-0.985 -0.062,-1.953 -0.5,-2.86 -0.484,-1 -1.343,-1.265 -1.937,-1.265 -0.688,0 -1.531,0.344 -1.984,1.344 -0.329,0.75 -0.454,1.5 -0.454,2.781 0,1.156 0.094,2.031 0.516,2.89 0.469,0.907 1.297,1.188 1.922,1.188 1.031,0 1.625,-0.625 1.984,-1.313 0.422,-0.89 0.453,-2.062 0.453,-2.765 z m -2.437,3.844 c -0.391,0 -1.172,-0.219 -1.391,-1.516 -0.125,-0.719 -0.125,-1.625 -0.125,-2.469 0,-0.984 0,-1.859 0.188,-2.562 0.203,-0.813 0.812,-1.172 1.328,-1.172 0.453,0 1.141,0.265 1.375,1.297 0.156,0.687 0.156,1.625 0.156,2.437 0,0.797 0,1.703 -0.14,2.438 -0.219,1.312 -0.985,1.547 -1.391,1.547 z"
         style="fill:#000000;fill-opacity:1;fill-rule:nonzero;stroke:none"
         id="path164" /><path
         d="m 33.016,208.676 c 0,-0.344 -0.297,-0.578 -0.578,-0.578 -0.344,0 -0.579,0.281 -0.579,0.578 0,0.344 0.282,0.578 0.563,0.578 0.344,0 0.594,-0.281 0.594,-0.578 z"
         style="fill:#000000;fill-opacity:1;fill-rule:nonzero;stroke:none"
         id="path166" /><path
         d="m 39.422,205.426 c 0,-0.985 -0.063,-1.953 -0.5,-2.86 -0.484,-1 -1.344,-1.265 -1.938,-1.265 -0.687,0 -1.531,0.344 -1.984,1.344 -0.328,0.75 -0.453,1.5 -0.453,2.781 0,1.156 0.094,2.031 0.515,2.89 0.469,0.907 1.297,1.188 1.922,1.188 1.032,0 1.625,-0.625 1.985,-1.313 0.422,-0.89 0.453,-2.062 0.453,-2.765 z m -2.438,3.844 c -0.39,0 -1.172,-0.219 -1.39,-1.516 -0.125,-0.719 -0.125,-1.625 -0.125,-2.469 0,-0.984 0,-1.859 0.187,-2.562 0.203,-0.813 0.813,-1.172 1.328,-1.172 0.454,0 1.141,0.265 1.375,1.297 0.157,0.687 0.157,1.625 0.157,2.437 0,0.797 0,1.703 -0.141,2.438 -0.219,1.312 -0.984,1.547 -1.391,1.547 z"
         style="fill:#000000;fill-opacity:1;fill-rule:nonzero;stroke:none"
         id="path168" /><path
         d="m 43.418,174.996 h 5"
         style="fill:none;stroke:#000000;stroke-width:0.8;stroke-linecap:butt;stroke-linejoin:round;stroke-miterlimit:10;stroke-dasharray:none;stroke-opacity:1"
         id="path170" /><path
         d="m 342.52,174.996 h -5"
         style="fill:none;stroke:#000000;stroke-width:0.8;stroke-linecap:butt;stroke-linejoin:round;stroke-miterlimit:10;stroke-dasharray:none;stroke-opacity:1"
         id="path172" /><path
         d="m 30.316,175.426 c 0,-0.985 -0.062,-1.953 -0.5,-2.86 -0.484,-1 -1.343,-1.265 -1.937,-1.265 -0.688,0 -1.531,0.344 -1.984,1.344 -0.329,0.75 -0.454,1.5 -0.454,2.781 0,1.156 0.094,2.031 0.516,2.89 0.469,0.907 1.297,1.188 1.922,1.188 1.031,0 1.625,-0.625 1.984,-1.313 0.422,-0.89 0.453,-2.062 0.453,-2.765 z m -2.437,3.844 c -0.391,0 -1.172,-0.219 -1.391,-1.516 -0.125,-0.719 -0.125,-1.625 -0.125,-2.469 0,-0.984 0,-1.859 0.188,-2.562 0.203,-0.813 0.812,-1.172 1.328,-1.172 0.453,0 1.141,0.265 1.375,1.297 0.156,0.687 0.156,1.625 0.156,2.437 0,0.797 0,1.703 -0.14,2.438 -0.219,1.312 -0.985,1.547 -1.391,1.547 z"
         style="fill:#000000;fill-opacity:1;fill-rule:nonzero;stroke:none"
         id="path174" /><path
         d="m 33.016,178.676 c 0,-0.344 -0.297,-0.578 -0.578,-0.578 -0.344,0 -0.579,0.281 -0.579,0.578 0,0.344 0.282,0.578 0.563,0.578 0.344,0 0.594,-0.281 0.594,-0.578 z"
         style="fill:#000000;fill-opacity:1;fill-rule:nonzero;stroke:none"
         id="path176" /><path
         d="m 39.328,177.238 h -0.266 c -0.046,0.203 -0.14,0.875 -0.25,1.063 -0.093,0.109 -0.765,0.109 -1.124,0.109 h -2.219 c 0.328,-0.281 1.062,-1.047 1.359,-1.328 1.828,-1.672 2.5,-2.297 2.5,-3.484 0,-1.375 -1.094,-2.297 -2.484,-2.297 -1.375,0 -2.203,1.187 -2.203,2.219 0,0.609 0.531,0.609 0.562,0.609 0.266,0 0.563,-0.188 0.563,-0.563 0,-0.343 -0.219,-0.562 -0.563,-0.562 -0.094,0 -0.125,0 -0.156,0.016 0.219,-0.813 0.875,-1.375 1.641,-1.375 1.015,0 1.64,0.859 1.64,1.953 0,1.015 -0.578,1.906 -1.266,2.672 l -2.421,2.703 v 0.281 h 4.375 z"
         style="fill:#000000;fill-opacity:1;fill-rule:nonzero;stroke:none"
         id="path178" /><path
         d="m 43.418,144.996 h 5"
         style="fill:none;stroke:#000000;stroke-width:0.8;stroke-linecap:butt;stroke-linejoin:round;stroke-miterlimit:10;stroke-dasharray:none;stroke-opacity:1"
         id="path180" /><path
         d="m 342.52,144.996 h -5"
         style="fill:none;stroke:#000000;stroke-width:0.8;stroke-linecap:butt;stroke-linejoin:round;stroke-miterlimit:10;stroke-dasharray:none;stroke-opacity:1"
         id="path182" /><path
         d="m 30.316,145.426 c 0,-0.985 -0.062,-1.953 -0.5,-2.86 -0.484,-1 -1.343,-1.265 -1.937,-1.265 -0.688,0 -1.531,0.344 -1.984,1.344 -0.329,0.75 -0.454,1.5 -0.454,2.781 0,1.156 0.094,2.031 0.516,2.89 0.469,0.907 1.297,1.188 1.922,1.188 1.031,0 1.625,-0.625 1.984,-1.313 0.422,-0.89 0.453,-2.062 0.453,-2.765 z m -2.437,3.844 c -0.391,0 -1.172,-0.219 -1.391,-1.516 -0.125,-0.719 -0.125,-1.625 -0.125,-2.469 0,-0.984 0,-1.859 0.188,-2.562 0.203,-0.813 0.812,-1.172 1.328,-1.172 0.453,0 1.141,0.265 1.375,1.297 0.156,0.687 0.156,1.625 0.156,2.437 0,0.797 0,1.703 -0.14,2.438 -0.219,1.312 -0.985,1.547 -1.391,1.547 z"
         style="fill:#000000;fill-opacity:1;fill-rule:nonzero;stroke:none"
         id="path184" /><path
         d="m 33.016,148.676 c 0,-0.344 -0.297,-0.578 -0.578,-0.578 -0.344,0 -0.579,0.281 -0.579,0.578 0,0.344 0.282,0.578 0.563,0.578 0.344,0 0.594,-0.281 0.594,-0.578 z"
         style="fill:#000000;fill-opacity:1;fill-rule:nonzero;stroke:none"
         id="path186" /><path
         d="m 38.375,141.473 c 0,-0.235 0,-0.282 -0.172,-0.282 -0.094,0 -0.125,0 -0.219,0.141 l -3.593,5.578 v 0.344 h 3.14 v 1.094 c 0,0.437 -0.031,0.562 -0.906,0.562 h -0.234 v 0.344 c 0.281,-0.031 1.218,-0.031 1.562,-0.031 0.328,0 1.281,0 1.563,0.031 v -0.344 h -0.235 c -0.875,0 -0.906,-0.125 -0.906,-0.562 v -1.094 h 1.203 v -0.344 h -1.203 z m -0.781,0.937 v 4.5 h -2.906 z"
         style="fill:#000000;fill-opacity:1;fill-rule:nonzero;stroke:none"
         id="path188" /><path
         d="m 43.418,114.996 h 5"
         style="fill:none;stroke:#000000;stroke-width:0.8;stroke-linecap:butt;stroke-linejoin:round;stroke-miterlimit:10;stroke-dasharray:none;stroke-opacity:1"
         id="path190" /><path
         d="m 342.52,114.996 h -5"
         style="fill:none;stroke:#000000;stroke-width:0.8;stroke-linecap:butt;stroke-linejoin:round;stroke-miterlimit:10;stroke-dasharray:none;stroke-opacity:1"
         id="path192" /><path
         d="m 30.316,115.43 c 0,-0.985 -0.062,-1.953 -0.5,-2.86 -0.484,-1 -1.343,-1.265 -1.937,-1.265 -0.688,0 -1.531,0.343 -1.984,1.343 -0.329,0.75 -0.454,1.5 -0.454,2.782 0,1.156 0.094,2.031 0.516,2.89 0.469,0.907 1.297,1.188 1.922,1.188 1.031,0 1.625,-0.625 1.984,-1.313 0.422,-0.89 0.453,-2.062 0.453,-2.765 z m -2.437,3.843 c -0.391,0 -1.172,-0.218 -1.391,-1.515 -0.125,-0.719 -0.125,-1.625 -0.125,-2.469 0,-0.984 0,-1.859 0.188,-2.562 0.203,-0.813 0.812,-1.172 1.328,-1.172 0.453,0 1.141,0.265 1.375,1.297 0.156,0.687 0.156,1.625 0.156,2.437 0,0.797 0,1.703 -0.14,2.438 -0.219,1.312 -0.985,1.546 -1.391,1.546 z"
         style="fill:#000000;fill-opacity:1;fill-rule:nonzero;stroke:none"
         id="path194" /><path
         d="m 33.016,118.68 c 0,-0.344 -0.297,-0.578 -0.578,-0.578 -0.344,0 -0.579,0.281 -0.579,0.578 0,0.343 0.282,0.578 0.563,0.578 0.344,0 0.594,-0.281 0.594,-0.578 z"
         style="fill:#000000;fill-opacity:1;fill-rule:nonzero;stroke:none"
         id="path196" /><path
         d="m 35.531,115.102 c 0,-3.032 1.469,-3.5 2.11,-3.5 0.437,0 0.875,0.125 1.093,0.484 -0.14,0 -0.593,0 -0.593,0.484 0,0.266 0.171,0.5 0.484,0.5 0.297,0 0.5,-0.187 0.5,-0.531 0,-0.625 -0.453,-1.234 -1.484,-1.234 -1.516,0 -3.094,1.547 -3.094,4.172 0,3.296 1.437,4.031 2.453,4.031 1.312,0 2.422,-1.141 2.422,-2.688 0,-1.593 -1.11,-2.656 -2.313,-2.656 -1.062,0 -1.453,0.922 -1.578,1.25 z M 37,119.18 c -0.75,0 -1.109,-0.657 -1.219,-0.907 -0.109,-0.312 -0.219,-0.906 -0.219,-1.734 0,-0.953 0.422,-2.141 1.5,-2.141 0.657,0 1,0.454 1.188,0.86 0.188,0.437 0.188,1.031 0.188,1.547 0,0.609 0,1.156 -0.235,1.609 -0.297,0.563 -0.719,0.766 -1.203,0.766 z"
         style="fill:#000000;fill-opacity:1;fill-rule:nonzero;stroke:none"
         id="path198" /><path
         d="m 43.418,85 h 5"
         style="fill:none;stroke:#000000;stroke-width:0.8;stroke-linecap:butt;stroke-linejoin:round;stroke-miterlimit:10;stroke-dasharray:none;stroke-opacity:1"
         id="path200" /><path
         d="m 342.52,85 h -5"
         style="fill:none;stroke:#000000;stroke-width:0.8;stroke-linecap:butt;stroke-linejoin:round;stroke-miterlimit:10;stroke-dasharray:none;stroke-opacity:1"
         id="path202" /><path
         d="m 30.316,85.43 c 0,-0.985 -0.062,-1.953 -0.5,-2.86 -0.484,-1 -1.343,-1.265 -1.937,-1.265 -0.688,0 -1.531,0.343 -1.984,1.343 -0.329,0.75 -0.454,1.5 -0.454,2.782 0,1.156 0.094,2.031 0.516,2.89 0.469,0.907 1.297,1.188 1.922,1.188 1.031,0 1.625,-0.625 1.984,-1.313 0.422,-0.89 0.453,-2.062 0.453,-2.765 z m -2.437,3.843 c -0.391,0 -1.172,-0.218 -1.391,-1.515 -0.125,-0.719 -0.125,-1.625 -0.125,-2.469 0,-0.984 0,-1.859 0.188,-2.562 0.203,-0.813 0.812,-1.172 1.328,-1.172 0.453,0 1.141,0.265 1.375,1.297 0.156,0.687 0.156,1.625 0.156,2.437 0,0.797 0,1.703 -0.14,2.438 -0.219,1.312 -0.985,1.546 -1.391,1.546 z"
         style="fill:#000000;fill-opacity:1;fill-rule:nonzero;stroke:none"
         id="path204" /><path
         d="m 33.016,88.68 c 0,-0.344 -0.297,-0.578 -0.578,-0.578 -0.344,0 -0.579,0.281 -0.579,0.578 0,0.343 0.282,0.578 0.563,0.578 0.344,0 0.594,-0.281 0.594,-0.578 z"
         style="fill:#000000;fill-opacity:1;fill-rule:nonzero;stroke:none"
         id="path206" /><path
         d="m 37.625,84.945 c 0.594,-0.328 1.469,-0.875 1.469,-1.875 0,-1.047 -1,-1.765 -2.11,-1.765 -1.172,0 -2.109,0.875 -2.109,1.968 0,0.407 0.125,0.813 0.453,1.219 0.141,0.156 0.141,0.156 0.984,0.75 -1.156,0.531 -1.765,1.344 -1.765,2.203 0,1.282 1.219,2.063 2.437,2.063 1.328,0 2.438,-0.985 2.438,-2.235 0,-1.218 -0.86,-1.75 -1.797,-2.328 z M 36,83.867 c -0.156,-0.109 -0.641,-0.422 -0.641,-1 0,-0.781 0.813,-1.265 1.625,-1.265 0.86,0 1.625,0.609 1.625,1.468 0,0.735 -0.531,1.328 -1.218,1.703 z m 0.562,1.547 1.438,0.938 c 0.312,0.203 0.875,0.578 0.875,1.296 0,0.922 -0.922,1.532 -1.891,1.532 -1.015,0 -1.875,-0.735 -1.875,-1.735 0,-0.922 0.672,-1.672 1.453,-2.031 z"
         style="fill:#000000;fill-opacity:1;fill-rule:nonzero;stroke:none"
         id="path208" /><path
         d="m 43.418,55 h 5"
         style="fill:none;stroke:#000000;stroke-width:0.8;stroke-linecap:butt;stroke-linejoin:round;stroke-miterlimit:10;stroke-dasharray:none;stroke-opacity:1"
         id="path210" /><path
         d="m 342.52,55 h -5"
         style="fill:none;stroke:#000000;stroke-width:0.8;stroke-linecap:butt;stroke-linejoin:round;stroke-miterlimit:10;stroke-dasharray:none;stroke-opacity:1"
         id="path212" /><path
         d="m 28.395,51.602 c 0,-0.282 0,-0.297 -0.235,-0.297 -0.281,0.328 -0.89,0.765 -2.109,0.765 v 0.344 c 0.265,0 0.859,0 1.531,-0.297 v 6.219 c 0,0.437 -0.047,0.578 -1.094,0.578 h -0.375 v 0.344 c 0.328,-0.031 1.485,-0.031 1.875,-0.031 0.407,0 1.547,0 1.875,0.031 v -0.344 h -0.375 c -1.047,0 -1.093,-0.141 -1.093,-0.578 z"
         style="fill:#000000;fill-opacity:1;fill-rule:nonzero;stroke:none"
         id="path214" /><path
         d="m 33.016,58.68 c 0,-0.344 -0.297,-0.578 -0.578,-0.578 -0.344,0 -0.579,0.281 -0.579,0.578 0,0.343 0.282,0.578 0.563,0.578 0.344,0 0.594,-0.281 0.594,-0.578 z"
         style="fill:#000000;fill-opacity:1;fill-rule:nonzero;stroke:none"
         id="path216" /><path
         d="m 39.422,55.43 c 0,-0.985 -0.063,-1.953 -0.5,-2.86 -0.484,-1 -1.344,-1.265 -1.938,-1.265 -0.687,0 -1.531,0.343 -1.984,1.343 -0.328,0.75 -0.453,1.5 -0.453,2.782 0,1.156 0.094,2.031 0.515,2.89 0.469,0.907 1.297,1.188 1.922,1.188 1.032,0 1.625,-0.625 1.985,-1.313 0.422,-0.89 0.453,-2.062 0.453,-2.765 z m -2.438,3.843 c -0.39,0 -1.172,-0.218 -1.39,-1.515 -0.125,-0.719 -0.125,-1.625 -0.125,-2.469 0,-0.984 0,-1.859 0.187,-2.562 0.203,-0.813 0.813,-1.172 1.328,-1.172 0.454,0 1.141,0.265 1.375,1.297 0.157,0.687 0.157,1.625 0.157,2.437 0,0.797 0,1.703 -0.141,2.438 -0.219,1.312 -0.984,1.546 -1.391,1.546 z"
         style="fill:#000000;fill-opacity:1;fill-rule:nonzero;stroke:none"
         id="path218" /><path
         d="m 43.418,25 h 5"
         style="fill:none;stroke:#000000;stroke-width:0.8;stroke-linecap:butt;stroke-linejoin:round;stroke-miterlimit:10;stroke-dasharray:none;stroke-opacity:1"
         id="path220" /><path
         d="m 342.52,25 h -5"
         style="fill:none;stroke:#000000;stroke-width:0.8;stroke-linecap:butt;stroke-linejoin:round;stroke-miterlimit:10;stroke-dasharray:none;stroke-opacity:1"
         id="path222" /><path
         d="m 28.395,21.602 c 0,-0.282 0,-0.297 -0.235,-0.297 -0.281,0.328 -0.89,0.765 -2.109,0.765 v 0.344 c 0.265,0 0.859,0 1.531,-0.297 v 6.219 c 0,0.437 -0.047,0.578 -1.094,0.578 h -0.375 v 0.344 c 0.328,-0.031 1.485,-0.031 1.875,-0.031 0.407,0 1.547,0 1.875,0.031 v -0.344 h -0.375 c -1.047,0 -1.093,-0.141 -1.093,-0.578 z"
         style="fill:#000000;fill-opacity:1;fill-rule:nonzero;stroke:none"
         id="path224" /><path
         d="m 33.016,28.68 c 0,-0.344 -0.297,-0.578 -0.578,-0.578 -0.344,0 -0.579,0.281 -0.579,0.578 0,0.343 0.282,0.578 0.563,0.578 0.344,0 0.594,-0.281 0.594,-0.578 z"
         style="fill:#000000;fill-opacity:1;fill-rule:nonzero;stroke:none"
         id="path226" /><path
         d="m 39.328,27.242 h -0.266 c -0.046,0.203 -0.14,0.875 -0.25,1.063 -0.093,0.109 -0.765,0.109 -1.124,0.109 h -2.219 c 0.328,-0.281 1.062,-1.047 1.359,-1.328 1.828,-1.672 2.5,-2.297 2.5,-3.484 0,-1.375 -1.094,-2.297 -2.484,-2.297 -1.375,0 -2.203,1.187 -2.203,2.218 0,0.61 0.531,0.61 0.562,0.61 0.266,0 0.563,-0.188 0.563,-0.563 0,-0.343 -0.219,-0.562 -0.563,-0.562 -0.094,0 -0.125,0 -0.156,0.015 0.219,-0.812 0.875,-1.375 1.641,-1.375 1.015,0 1.64,0.86 1.64,1.954 0,1.015 -0.578,1.906 -1.266,2.671 l -2.421,2.704 v 0.281 h 4.375 z"
         style="fill:#000000;fill-opacity:1;fill-rule:nonzero;stroke:none"
         id="path228" /><path
         d="m 10.797,203.371 v 6.688 l 2.469,0.218 v -0.281 c -1.766,-0.156 -2.125,-0.312 -2.125,-1.969 0,-0.203 0,-0.484 0.031,-0.593 0.031,-0.235 0.156,-0.235 0.406,-0.235 h 5.781 c 0.36,0 0.516,0 0.516,1.156 v 0.438 h 0.344 c -0.031,-0.453 -0.031,-1.563 -0.031,-2.063 0,-0.515 0,-1.64 0.031,-2.093 h -0.344 v 0.437 c 0,1.156 -0.156,1.156 -0.516,1.156 h -5.781 c -0.219,0 -0.375,0 -0.406,-0.203 -0.031,-0.109 -0.031,-0.406 -0.031,-0.609 0,-1.656 0.359,-1.828 2.125,-1.984 v -0.266 z"
         style="fill:#000000;fill-opacity:1;fill-rule:nonzero;stroke:none"
         id="path230" /><path
         d="m 14.578,201.84 h -1.203 l 0.125,1.515 h 0.344 c 0,-0.765 0.078,-0.843 0.609,-0.843 h 2.938 c 0.484,0 0.484,0.109 0.484,0.843 h 0.344 c -0.016,-0.421 -0.031,-0.937 -0.031,-1.25 0,-0.437 0,-0.953 0.031,-1.39 h -0.344 v 0.234 c 0,0.813 -0.109,0.828 -0.516,0.828 h -1.687 c -1.078,0 -2.047,-0.453 -2.047,-1.281 0,-0.078 0,-0.109 0,-0.125 0.016,0.031 0.141,0.25 0.437,0.25 0.297,0 0.469,-0.234 0.469,-0.469 0,-0.203 -0.14,-0.468 -0.484,-0.468 -0.359,0 -0.672,0.343 -0.672,0.812 0,0.797 0.734,1.188 1.203,1.344 z"
         style="fill:#000000;fill-opacity:1;fill-rule:nonzero;stroke:none"
         id="path232" /><path
         d="m 17.359,195.102 h 0.985 l -0.125,-1.579 h -0.344 c 0,0.766 -0.078,0.86 -0.609,0.86 h -3.891 l 0.125,1.609 h 0.344 c 0,-0.765 0.078,-0.859 0.609,-0.859 h 1.953 c 0.953,0 1.688,0.531 1.688,1.328 0,0.922 -0.516,0.969 -1.078,0.969 h -3.641 l 0.125,1.609 h 0.344 c 0,-0.859 0.031,-0.859 1,-0.859 h 1.64 c 0.86,0 1.86,0 1.86,-1.672 0,-0.61 -0.313,-1.094 -0.985,-1.406 z"
         style="fill:#000000;fill-opacity:1;fill-rule:nonzero;stroke:none"
         id="path234" /><path
         d="m 14.453,192.098 h 2.938 c 0.484,0 0.484,0.125 0.484,0.859 h 0.344 c -0.016,-0.391 -0.031,-0.953 -0.031,-1.25 0,-0.281 0.015,-0.844 0.031,-1.219 h -0.344 c 0,0.735 0,0.86 -0.484,0.86 h -2.016 c -1.141,0 -1.75,-0.782 -1.75,-1.485 0,-0.687 0.578,-0.812 1.203,-0.812 h 2.563 c 0.484,0 0.484,0.125 0.484,0.859 h 0.344 c -0.016,-0.39 -0.031,-0.953 -0.031,-1.25 0,-0.281 0.015,-0.844 0.031,-1.219 h -0.344 c 0,0.563 0,0.844 -0.328,0.86 h -2.094 c -0.937,0 -1.281,0 -1.672,0.328 -0.187,0.156 -0.406,0.516 -0.406,1.156 0,0.797 0.469,1.313 1.156,1.625 h -1.156 l 0.125,1.547 h 0.344 c 0,-0.781 0.078,-0.859 0.609,-0.859 z"
         style="fill:#000000;fill-opacity:1;fill-rule:nonzero;stroke:none"
         id="path236" /><path
         d="m 15.828,185.938 c -1.781,0 -2.25,-0.891 -2.25,-1.485 0,-0.094 0.016,-0.781 0.406,-1.172 0.047,0.453 0.375,0.516 0.516,0.516 0.281,0 0.5,-0.188 0.5,-0.5 0,-0.281 -0.188,-0.5 -0.516,-0.5 -0.75,0 -1.172,0.828 -1.172,1.672 0,1.375 1.188,2.375 2.547,2.375 1.391,0 2.485,-1.078 2.485,-2.36 0,-1.453 -1.313,-1.812 -1.422,-1.812 -0.11,0 -0.11,0.109 -0.11,0.14 0,0.11 0.032,0.126 0.11,0.141 1.016,0.328 1.14,1.031 1.14,1.438 0,0.578 -0.468,1.547 -2.234,1.547 z"
         style="fill:#000000;fill-opacity:1;fill-rule:nonzero;stroke:none"
         id="path238" /><path
         d="m 17.391,178.715 c 0.437,-0.047 0.89,-0.344 0.89,-0.86 0,-0.234 -0.156,-0.906 -1.031,-0.906 h -0.625 v 0.281 h 0.625 c 0.625,0 0.688,0.266 0.688,0.391 0,0.359 -0.485,0.406 -0.547,0.406 h -2.188 c -0.453,0 -0.891,0 -1.281,0.391 -0.438,0.437 -0.61,0.984 -0.61,1.5 0,0.906 0.516,1.656 1.235,1.656 0.328,0 0.515,-0.219 0.515,-0.5 0,-0.312 -0.218,-0.5 -0.5,-0.5 -0.14,0 -0.5,0.047 -0.5,0.547 -0.39,-0.281 -0.515,-0.828 -0.515,-1.172 0,-0.547 0.437,-1.172 1.406,-1.172 h 0.406 c 0.032,0.563 0.063,1.328 0.391,2.016 0.375,0.828 0.953,1.109 1.422,1.109 0.89,0 1.172,-1.062 1.172,-1.765 0,-0.719 -0.438,-1.219 -0.953,-1.422 z m -1.797,0.062 h 1.094 c 1.031,0 1.406,0.797 1.406,1.282 0,0.546 -0.375,1 -0.922,1 -0.61,0 -1.516,-0.469 -1.578,-2.282 z"
         style="fill:#000000;fill-opacity:1;fill-rule:nonzero;stroke:none"
         id="path240" /><path
         d="m 13.844,174.984 v -1.578 H 13.5 v 1.578 h -2.016 v 0.266 c 0.891,0.016 2.063,0.344 2.11,1.422 h 0.25 v -0.938 h 3.015 c 1.344,0 1.485,-1.015 1.485,-1.406 0,-0.781 -0.782,-1.094 -1.485,-1.094 h -0.625 v 0.282 h 0.61 c 0.812,0 1.218,0.328 1.218,0.734 0,0.734 -1,0.734 -1.187,0.734 z"
         style="fill:#000000;fill-opacity:1;fill-rule:nonzero;stroke:none"
         id="path242" /><path
         d="m 15.453,171.387 c -1.625,-0.063 -1.906,-0.985 -1.906,-1.344 0,-1.141 1.484,-1.25 1.906,-1.25 z m 0.235,0.015 v -3.047 c 0,-0.25 0,-0.281 -0.235,-0.281 -1.078,0 -2.141,0.594 -2.141,1.969 0,1.266 1.126,2.266 2.5,2.266 1.469,0 2.532,-1.141 2.532,-2.407 0,-1.328 -1.219,-1.828 -1.422,-1.828 -0.11,0 -0.141,0.094 -0.141,0.141 0,0.109 0.063,0.125 0.157,0.14 1.124,0.391 1.124,1.375 1.124,1.485 0,0.547 -0.328,0.984 -0.734,1.234 -0.516,0.328 -1.25,0.328 -1.64,0.328 z"
         style="fill:#000000;fill-opacity:1;fill-rule:nonzero;stroke:none"
         id="path244" /><path
         d="m 17.609,163.602 h 0.735 l -0.125,-1.61 h -0.344 c 0,0.766 -0.078,0.844 -0.609,0.844 h -6.641 l 0.109,1.578 h 0.344 c 0,-0.766 0.078,-0.844 0.61,-0.844 h 2.374 c -0.406,0.313 -0.687,0.782 -0.687,1.375 0,1.297 1.078,2.438 2.484,2.438 1.391,0 2.485,-1.078 2.485,-2.313 0,-0.703 -0.375,-1.203 -0.735,-1.468 z m -2.921,0 h 2.234 c 0.203,0 0.219,0 0.406,0.109 0.531,0.328 0.766,0.828 0.766,1.297 0,0.5 -0.282,0.89 -0.703,1.156 -0.438,0.281 -1.063,0.313 -1.516,0.313 -0.406,0 -1.063,-0.016 -1.563,-0.344 -0.328,-0.219 -0.687,-0.641 -0.687,-1.235 0,-0.375 0.156,-0.843 0.656,-1.187 0.188,-0.109 0.203,-0.109 0.407,-0.109 z"
         style="fill:#000000;fill-opacity:1;fill-rule:nonzero;stroke:none"
         id="path246" /><path
         d="m 14.469,158.02 c 2.265,0 3.984,-1.782 3.984,-3.813 0,-1.781 -1.515,-2.859 -2.781,-2.859 -0.11,0 -0.188,0 -0.188,0.14 0,0.125 0.063,0.125 0.172,0.125 1.563,0.094 2.469,1.266 2.469,2.453 0,0.672 -0.375,2.829 -3.641,2.829 -3.281,0 -3.64,-2.141 -3.64,-2.813 0,-1.187 0.984,-2.172 2.594,-2.391 0.14,-0.015 0.187,-0.015 0.187,-0.171 0,-0.172 -0.047,-0.172 -0.266,-0.172 h -2.593 c -0.188,0 -0.266,0 -0.266,0.125 0,0.031 0,0.078 0.125,0.172 l 0.813,0.546 c -0.391,0.407 -0.938,0.954 -0.938,2.016 0,2.047 1.734,3.813 3.969,3.813 z"
         style="fill:#000000;fill-opacity:1;fill-rule:nonzero;stroke:none"
         id="path248" /><path
         d="m 17.391,149.512 c 0.484,0 0.484,0.125 0.484,0.859 h 0.344 c -0.016,-0.391 -0.031,-0.953 -0.031,-1.25 0,-0.281 0.015,-0.844 0.031,-1.219 h -0.344 c 0,0.735 0,0.86 -0.484,0.86 h -2.016 c -1.141,0 -1.75,-0.782 -1.75,-1.485 0,-0.687 0.578,-0.812 1.203,-0.812 h 2.563 c 0.484,0 0.484,0.125 0.484,0.859 h 0.344 c -0.016,-0.39 -0.031,-0.953 -0.031,-1.25 0,-0.281 0.015,-0.844 0.031,-1.219 h -0.344 c 0,0.563 0,0.844 -0.328,0.86 h -2.094 c -0.937,0 -1.281,0 -1.672,0.328 -0.187,0.156 -0.406,0.516 -0.406,1.156 0,0.922 0.656,1.406 1.078,1.594 h -3.828 l 0.109,1.578 h 0.344 c 0,-0.781 0.078,-0.859 0.61,-0.859 z"
         style="fill:#000000;fill-opacity:1;fill-rule:nonzero;stroke:none"
         id="path250" /><path
         d="m 17.391,140.992 c 0.437,-0.047 0.89,-0.344 0.89,-0.859 0,-0.235 -0.156,-0.906 -1.031,-0.906 h -0.625 v 0.281 h 0.625 c 0.625,0 0.688,0.265 0.688,0.39 0,0.36 -0.485,0.407 -0.547,0.407 h -2.188 c -0.453,0 -0.891,0 -1.281,0.39 -0.438,0.438 -0.61,0.985 -0.61,1.5 0,0.907 0.516,1.657 1.235,1.657 0.328,0 0.515,-0.219 0.515,-0.5 0,-0.313 -0.218,-0.5 -0.5,-0.5 -0.14,0 -0.5,0.046 -0.5,0.546 -0.39,-0.281 -0.515,-0.828 -0.515,-1.171 0,-0.547 0.437,-1.172 1.406,-1.172 h 0.406 c 0.032,0.562 0.063,1.328 0.391,2.015 0.375,0.828 0.953,1.11 1.422,1.11 0.89,0 1.172,-1.063 1.172,-1.766 0,-0.719 -0.438,-1.219 -0.953,-1.422 z m -1.797,0.063 h 1.094 c 1.031,0 1.406,0.797 1.406,1.281 0,0.547 -0.375,1 -0.922,1 -0.61,0 -1.516,-0.469 -1.578,-2.281 z"
         style="fill:#000000;fill-opacity:1;fill-rule:nonzero;stroke:none"
         id="path252" /><path
         d="m 14.578,137.324 h -1.203 l 0.125,1.516 h 0.344 c 0,-0.766 0.078,-0.844 0.609,-0.844 h 2.938 c 0.484,0 0.484,0.109 0.484,0.844 h 0.344 c -0.016,-0.422 -0.031,-0.938 -0.031,-1.25 0,-0.438 0,-0.953 0.031,-1.391 h -0.344 v 0.235 c 0,0.812 -0.109,0.828 -0.516,0.828 h -1.687 c -1.078,0 -2.047,-0.453 -2.047,-1.282 0,-0.078 0,-0.109 0,-0.125 0.016,0.032 0.141,0.25 0.437,0.25 0.297,0 0.469,-0.234 0.469,-0.468 0,-0.203 -0.14,-0.469 -0.484,-0.469 -0.359,0 -0.672,0.344 -0.672,0.812 0,0.797 0.734,1.188 1.203,1.344 z"
         style="fill:#000000;fill-opacity:1;fill-rule:nonzero;stroke:none"
         id="path254" /><path
         d="m 14.453,133.668 h 2.938 c 0.484,0 0.484,0.125 0.484,0.859 h 0.344 c -0.016,-0.39 -0.031,-0.953 -0.031,-1.25 0,-0.281 0.015,-0.843 0.031,-1.218 h -0.344 c 0,0.734 0,0.859 -0.484,0.859 h -2.016 c -1.141,0 -1.75,-0.781 -1.75,-1.484 0,-0.688 0.578,-0.813 1.203,-0.813 h 2.563 c 0.484,0 0.484,0.125 0.484,0.859 h 0.344 c -0.016,-0.39 -0.031,-0.953 -0.031,-1.25 0,-0.281 0.015,-0.843 0.031,-1.218 h -0.344 c 0,0.734 0,0.859 -0.484,0.859 h -2.016 c -1.141,0 -1.75,-0.781 -1.75,-1.484 0,-0.688 0.578,-0.813 1.203,-0.813 h 2.563 c 0.484,0 0.484,0.125 0.484,0.86 h 0.344 c -0.016,-0.391 -0.031,-0.938 -0.031,-1.235 0,-0.297 0.015,-0.859 0.031,-1.234 h -0.344 c 0,0.578 0,0.844 -0.328,0.859 h -2.094 c -0.937,0 -1.281,0 -1.672,0.328 -0.187,0.157 -0.406,0.516 -0.406,1.157 0,0.921 0.656,1.406 1.078,1.593 -0.953,0.157 -1.078,0.953 -1.078,1.453 0,0.797 0.469,1.313 1.156,1.625 h -1.156 l 0.125,1.547 h 0.344 c 0,-0.781 0.078,-0.859 0.609,-0.859 z"
         style="fill:#000000;fill-opacity:1;fill-rule:nonzero;stroke:none"
         id="path256" /><path
         d="m 10.984,120.055 c -0.25,0.093 -0.25,0.125 -0.25,0.39 v 1.844 h 0.344 v -0.266 c 0,-0.843 0.125,-0.859 0.516,-0.859 h 5.468 c 0.297,0 0.813,0 0.813,1.125 h 0.344 c -0.016,-0.375 -0.031,-0.922 -0.031,-1.281 0,-0.36 0.015,-0.891 0.031,-1.281 h -0.344 c 0,1.125 -0.516,1.125 -0.813,1.125 h -5.89 l 6.812,-2.641 c 0.141,-0.063 0.235,-0.109 0.235,-0.219 0,-0.125 -0.094,-0.156 -0.203,-0.203 l -6.938,-2.687 v -0.016 h 6.281 c 0.407,0 0.516,0.016 0.516,0.859 v 0.266 h 0.344 c -0.031,-0.406 -0.031,-1.156 -0.031,-1.578 0,-0.422 0,-1.156 0.031,-1.563 h -0.344 v 0.266 c 0,0.844 -0.109,0.859 -0.516,0.859 h -5.765 c -0.391,0 -0.516,-0.015 -0.516,-0.859 v -0.266 h -0.344 v 1.844 c 0,0.297 0.016,0.297 0.219,0.359 l 6.156,2.407 z"
         style="fill:#000000;fill-opacity:1;fill-rule:nonzero;stroke:none"
         id="path258" /><path
         d="m 15.875,107.5 c -1.406,0 -2.563,1.094 -2.563,2.422 0,1.359 1.188,2.422 2.563,2.422 1.406,0 2.469,-1.141 2.469,-2.422 0,-1.313 -1.078,-2.422 -2.469,-2.422 z m 2.187,2.422 c 0,0.469 -0.234,0.953 -0.734,1.25 -0.484,0.266 -1.14,0.266 -1.547,0.266 -0.422,0 -1.015,0 -1.5,-0.266 -0.5,-0.297 -0.734,-0.813 -0.734,-1.25 0,-0.469 0.25,-0.953 0.719,-1.234 0.468,-0.282 1.109,-0.282 1.515,-0.282 0.407,0 0.985,0 1.469,0.235 0.5,0.25 0.812,0.734 0.812,1.281 z"
         style="fill:#000000;fill-opacity:1;fill-rule:nonzero;stroke:none"
         id="path260" /><path
         d="m 14.453,105.973 h 2.938 c 0.484,0 0.484,0.125 0.484,0.859 h 0.344 c -0.016,-0.391 -0.031,-0.953 -0.031,-1.25 0,-0.281 0.015,-0.844 0.031,-1.219 h -0.344 c 0,0.735 0,0.86 -0.484,0.86 h -2.016 c -1.141,0 -1.75,-0.782 -1.75,-1.485 0,-0.687 0.578,-0.812 1.203,-0.812 h 2.563 c 0.484,0 0.484,0.125 0.484,0.859 h 0.344 c -0.016,-0.39 -0.031,-0.953 -0.031,-1.25 0,-0.281 0.015,-0.844 0.031,-1.219 h -0.344 c 0,0.735 0,0.86 -0.484,0.86 h -2.016 c -1.141,0 -1.75,-0.781 -1.75,-1.485 0,-0.687 0.578,-0.812 1.203,-0.812 h 2.563 c 0.484,0 0.484,0.125 0.484,0.859 h 0.344 c -0.016,-0.39 -0.031,-0.937 -0.031,-1.234 0,-0.297 0.015,-0.859 0.031,-1.234 h -0.344 c 0,0.578 0,0.843 -0.328,0.859 h -2.094 c -0.937,0 -1.281,0 -1.672,0.328 -0.187,0.156 -0.406,0.516 -0.406,1.156 0,0.922 0.656,1.407 1.078,1.594 -0.953,0.156 -1.078,0.953 -1.078,1.453 0,0.797 0.469,1.313 1.156,1.625 h -1.156 l 0.125,1.547 h 0.344 c 0,-0.781 0.078,-0.859 0.609,-0.859 z"
         style="fill:#000000;fill-opacity:1;fill-rule:nonzero;stroke:none"
         id="path262" /><path
         d="m 15.453,96.812 c -1.625,-0.062 -1.906,-0.984 -1.906,-1.343 0,-1.141 1.484,-1.25 1.906,-1.25 z m 0.235,0.016 v -3.047 c 0,-0.25 0,-0.281 -0.235,-0.281 -1.078,0 -2.141,0.594 -2.141,1.969 0,1.265 1.126,2.265 2.5,2.265 1.469,0 2.532,-1.14 2.532,-2.406 0,-1.328 -1.219,-1.828 -1.422,-1.828 -0.11,0 -0.141,0.094 -0.141,0.141 0,0.109 0.063,0.125 0.157,0.14 1.124,0.391 1.124,1.375 1.124,1.485 0,0.546 -0.328,0.984 -0.734,1.234 -0.516,0.328 -1.25,0.328 -1.64,0.328 z"
         style="fill:#000000;fill-opacity:1;fill-rule:nonzero;stroke:none"
         id="path264" /><path
         d="m 14.453,91.98 h 2.938 c 0.484,0 0.484,0.125 0.484,0.86 h 0.344 c -0.016,-0.391 -0.031,-0.953 -0.031,-1.25 0,-0.281 0.015,-0.844 0.031,-1.219 h -0.344 c 0,0.734 0,0.859 -0.484,0.859 h -2.016 c -1.141,0 -1.75,-0.781 -1.75,-1.484 0,-0.687 0.578,-0.812 1.203,-0.812 h 2.563 c 0.484,0 0.484,0.125 0.484,0.859 h 0.344 c -0.016,-0.391 -0.031,-0.953 -0.031,-1.25 0,-0.281 0.015,-0.844 0.031,-1.219 h -0.344 c 0,0.563 0,0.844 -0.328,0.86 h -2.094 c -0.937,0 -1.281,0 -1.672,0.328 -0.187,0.156 -0.406,0.515 -0.406,1.156 0,0.797 0.469,1.312 1.156,1.625 H 13.375 L 13.5,92.84 h 0.344 c 0,-0.781 0.078,-0.86 0.609,-0.86 z"
         style="fill:#000000;fill-opacity:1;fill-rule:nonzero;stroke:none"
         id="path266" /><path
         d="M 13.844,85.512 V 83.934 H 13.5 v 1.578 h -2.016 v 0.265 c 0.891,0.016 2.063,0.344 2.11,1.422 h 0.25 v -0.937 h 3.015 c 1.344,0 1.485,-1.016 1.485,-1.407 0,-0.781 -0.782,-1.093 -1.485,-1.093 h -0.625 v 0.281 h 0.61 c 0.812,0 1.218,0.328 1.218,0.734 0,0.735 -1,0.735 -1.187,0.735 z"
         style="fill:#000000;fill-opacity:1;fill-rule:nonzero;stroke:none"
         id="path268" /><path
         d="m 17.359,78.871 h 0.985 l -0.125,-1.578 h -0.344 c 0,0.766 -0.078,0.859 -0.609,0.859 h -3.891 l 0.125,1.61 h 0.344 c 0,-0.766 0.078,-0.86 0.609,-0.86 h 1.953 c 0.953,0 1.688,0.532 1.688,1.328 0,0.922 -0.516,0.969 -1.078,0.969 h -3.641 l 0.125,1.61 h 0.344 c 0,-0.86 0.031,-0.86 1,-0.86 h 1.64 c 0.86,0 1.86,0 1.86,-1.672 0,-0.609 -0.313,-1.093 -0.985,-1.406 z"
         style="fill:#000000;fill-opacity:1;fill-rule:nonzero;stroke:none"
         id="path270" /><path
         d="m 14.453,75.867 h 2.938 c 0.484,0 0.484,0.125 0.484,0.86 h 0.344 c -0.016,-0.391 -0.031,-0.954 -0.031,-1.25 0,-0.282 0.015,-0.844 0.031,-1.219 h -0.344 c 0,0.734 0,0.859 -0.484,0.859 h -2.016 c -1.141,0 -1.75,-0.781 -1.75,-1.484 0,-0.688 0.578,-0.813 1.203,-0.813 h 2.563 c 0.484,0 0.484,0.125 0.484,0.86 h 0.344 c -0.016,-0.391 -0.031,-0.953 -0.031,-1.25 0,-0.282 0.015,-0.844 0.031,-1.219 h -0.344 c 0,0.734 0,0.859 -0.484,0.859 h -2.016 c -1.141,0 -1.75,-0.781 -1.75,-1.484 0,-0.688 0.578,-0.813 1.203,-0.813 h 2.563 c 0.484,0 0.484,0.125 0.484,0.86 h 0.344 c -0.016,-0.391 -0.031,-0.938 -0.031,-1.235 0,-0.296 0.015,-0.859 0.031,-1.234 h -0.344 c 0,0.578 0,0.844 -0.328,0.859 h -2.094 c -0.937,0 -1.281,0 -1.672,0.329 -0.187,0.156 -0.406,0.515 -0.406,1.156 0,0.922 0.656,1.406 1.078,1.594 -0.953,0.156 -1.078,0.953 -1.078,1.453 0,0.797 0.469,1.312 1.156,1.625 h -1.156 l 0.125,1.547 h 0.344 c 0,-0.782 0.078,-0.86 0.609,-0.86 z"
         style="fill:#000000;fill-opacity:1;fill-rule:nonzero;stroke:none"
         id="path272" /><path
         d="m 10.766,58.52 v 6.015 h 0.343 V 64.27 c 0,-0.844 0.125,-0.86 0.516,-0.86 h 5.734 c 0.407,0 0.516,0.016 0.516,0.86 v 0.265 h 0.344 c -0.031,-0.39 -0.031,-1.234 -0.031,-1.672 0,-0.437 0,-1.437 0.031,-1.828 h -0.344 v 0.36 c 0,1.031 -0.141,1.031 -0.516,1.031 h -2.703 v -0.938 c 0,-1.047 0.36,-1.156 1.282,-1.156 v -0.281 h -2.907 v 0.281 c 0.922,0 1.281,0.109 1.281,1.156 v 0.938 h -2.765 c -0.359,0 -0.438,-0.016 -0.438,-0.531 v -1.313 c 0,-1.641 0.61,-1.922 2.125,-2.094 v -0.281 z"
         style="fill:#000000;fill-opacity:1;fill-rule:nonzero;stroke:none"
         id="path274" /><path
         d="m 14.578,56.836 h -1.203 l 0.125,1.516 h 0.344 c 0,-0.766 0.078,-0.844 0.609,-0.844 h 2.938 c 0.484,0 0.484,0.109 0.484,0.844 h 0.344 c -0.016,-0.422 -0.031,-0.938 -0.031,-1.25 0,-0.438 0,-0.954 0.031,-1.391 h -0.344 v 0.234 c 0,0.813 -0.109,0.828 -0.516,0.828 h -1.687 c -1.078,0 -2.047,-0.453 -2.047,-1.281 0,-0.078 0,-0.109 0,-0.125 0.016,0.031 0.141,0.25 0.437,0.25 0.297,0 0.469,-0.234 0.469,-0.469 0,-0.203 -0.14,-0.468 -0.484,-0.468 -0.359,0 -0.672,0.343 -0.672,0.812 0,0.797 0.734,1.188 1.203,1.344 z"
         style="fill:#000000;fill-opacity:1;fill-rule:nonzero;stroke:none"
         id="path276" /><path
         d="m 17.391,50.738 c 0.437,-0.047 0.89,-0.343 0.89,-0.859 0,-0.234 -0.156,-0.906 -1.031,-0.906 h -0.625 v 0.281 h 0.625 c 0.625,0 0.688,0.266 0.688,0.391 0,0.359 -0.485,0.406 -0.547,0.406 h -2.188 c -0.453,0 -0.891,0 -1.281,0.39 -0.438,0.438 -0.61,0.985 -0.61,1.5 0,0.907 0.516,1.657 1.235,1.657 0.328,0 0.515,-0.219 0.515,-0.5 0,-0.313 -0.218,-0.5 -0.5,-0.5 -0.14,0 -0.5,0.047 -0.5,0.547 -0.39,-0.282 -0.515,-0.829 -0.515,-1.172 0,-0.547 0.437,-1.172 1.406,-1.172 h 0.406 c 0.032,0.562 0.063,1.328 0.391,2.015 0.375,0.829 0.953,1.11 1.422,1.11 0.89,0 1.172,-1.063 1.172,-1.766 0,-0.719 -0.438,-1.219 -0.953,-1.422 z m -1.797,0.063 h 1.094 c 1.031,0 1.406,0.797 1.406,1.281 0,0.547 -0.375,1 -0.922,1 -0.61,0 -1.516,-0.469 -1.578,-2.281 z"
         style="fill:#000000;fill-opacity:1;fill-rule:nonzero;stroke:none"
         id="path278" /><path
         d="m 15.828,47.617 c -1.781,0 -2.25,-0.89 -2.25,-1.484 0,-0.094 0.016,-0.781 0.406,-1.172 0.047,0.453 0.375,0.516 0.516,0.516 0.281,0 0.5,-0.188 0.5,-0.5 0,-0.282 -0.188,-0.5 -0.516,-0.5 -0.75,0 -1.172,0.828 -1.172,1.671 0,1.375 1.188,2.375 2.547,2.375 1.391,0 2.485,-1.078 2.485,-2.359 0,-1.453 -1.313,-1.812 -1.422,-1.812 -0.11,0 -0.11,0.109 -0.11,0.14 0,0.11 0.032,0.125 0.11,0.141 1.016,0.328 1.14,1.031 1.14,1.437 0,0.578 -0.468,1.547 -2.234,1.547 z"
         style="fill:#000000;fill-opacity:1;fill-rule:nonzero;stroke:none"
         id="path280" /><path
         d="M 13.844,42.141 V 40.562 H 13.5 v 1.579 h -2.016 v 0.265 c 0.891,0.016 2.063,0.344 2.11,1.422 h 0.25 v -0.937 h 3.015 c 1.344,0 1.485,-1.016 1.485,-1.407 0,-0.781 -0.782,-1.093 -1.485,-1.093 h -0.625 v 0.281 h 0.61 c 0.812,0 1.218,0.328 1.218,0.734 0,0.735 -1,0.735 -1.187,0.735 z"
         style="fill:#000000;fill-opacity:1;fill-rule:nonzero;stroke:none"
         id="path282" /><path
         d="m 13.375,37.844 0.125,1.531 h 0.344 c 0,-0.719 0.062,-0.813 0.594,-0.813 h 2.953 c 0.484,0 0.484,0.126 0.484,0.86 h 0.344 c -0.016,-0.36 -0.031,-0.938 -0.031,-1.203 0,-0.391 0.015,-0.766 0.031,-1.141 h -0.344 c 0,0.719 -0.047,0.766 -0.484,0.766 z m -1.906,-0.047 c -0.344,0 -0.578,0.281 -0.578,0.578 0,0.344 0.297,0.578 0.578,0.578 0.297,0 0.578,-0.234 0.578,-0.578 0,-0.297 -0.219,-0.578 -0.578,-0.578 z"
         style="fill:#000000;fill-opacity:1;fill-rule:nonzero;stroke:none"
         id="path284" /><path
         d="m 15.875,31.59 c -1.406,0 -2.563,1.094 -2.563,2.422 0,1.359 1.188,2.422 2.563,2.422 1.406,0 2.469,-1.141 2.469,-2.422 0,-1.313 -1.078,-2.422 -2.469,-2.422 z m 2.187,2.422 c 0,0.468 -0.234,0.953 -0.734,1.25 -0.484,0.265 -1.14,0.265 -1.547,0.265 -0.422,0 -1.015,0 -1.5,-0.265 -0.5,-0.297 -0.734,-0.813 -0.734,-1.25 0,-0.469 0.25,-0.953 0.719,-1.235 0.468,-0.281 1.109,-0.281 1.515,-0.281 0.407,0 0.985,0 1.469,0.234 0.5,0.25 0.812,0.735 0.812,1.282 z"
         style="fill:#000000;fill-opacity:1;fill-rule:nonzero;stroke:none"
         id="path286" /><path
         d="m 14.453,30.062 h 2.938 c 0.484,0 0.484,0.126 0.484,0.86 h 0.344 c -0.016,-0.391 -0.031,-0.953 -0.031,-1.25 0,-0.281 0.015,-0.844 0.031,-1.219 h -0.344 c 0,0.735 0,0.859 -0.484,0.859 h -2.016 c -1.141,0 -1.75,-0.781 -1.75,-1.484 0,-0.687 0.578,-0.812 1.203,-0.812 h 2.563 c 0.484,0 0.484,0.125 0.484,0.859 h 0.344 c -0.016,-0.391 -0.031,-0.953 -0.031,-1.25 0,-0.281 0.015,-0.844 0.031,-1.219 h -0.344 c 0,0.563 0,0.844 -0.328,0.86 h -2.094 c -0.937,0 -1.281,0 -1.672,0.328 -0.187,0.156 -0.406,0.515 -0.406,1.156 0,0.797 0.469,1.312 1.156,1.625 h -1.156 l 0.125,1.547 h 0.344 c 0,-0.781 0.078,-0.86 0.609,-0.86 z"
         style="fill:#000000;fill-opacity:1;fill-rule:nonzero;stroke:none"
         id="path288" /><path
         d="m 20.844,18.512 c -0.032,0 -0.047,0 -0.235,0.187 -1.39,1.375 -3.453,1.719 -5.125,1.719 -1.906,0 -3.812,-0.422 -5.187,-1.766 -0.125,-0.14 -0.156,-0.14 -0.188,-0.14 -0.078,0 -0.109,0.047 -0.109,0.109 0,0.109 0.75,1.094 2.141,1.734 1.203,0.563 2.421,0.704 3.343,0.704 0.844,0 2.172,-0.125 3.407,-0.735 1.359,-0.656 2.062,-1.594 2.062,-1.703 0,-0.062 -0.031,-0.109 -0.109,-0.109 z"
         style="fill:#000000;fill-opacity:1;fill-rule:nonzero;stroke:none"
         id="path290" /><path
         d="m 10.422,10.383 c -0.094,-0.063 -0.141,-0.094 -0.203,-0.094 -0.11,0 -0.219,0.109 -0.219,0.219 0,0.109 0.078,0.172 0.156,0.234 0.75,0.547 1.047,1.281 1.047,2.078 0,0.766 -0.281,1.453 -0.844,2.047 C 10.172,15.086 10,15.305 10,15.664 c 0,0.828 0.922,1.609 2.203,1.609 1.328,0 2.219,-0.796 2.219,-1.609 0,-0.797 -0.984,-1.422 -2.203,-1.422 -0.157,0 -0.672,0 -1.235,0.219 0.407,-0.703 0.454,-1.25 0.454,-1.656 0,-0.828 -0.344,-1.391 -0.376,-1.453 l 7.329,4.906 c 0.14,0.109 0.203,0.109 0.218,0.109 0.125,0 0.219,-0.109 0.219,-0.219 0,-0.109 -0.047,-0.14 -0.156,-0.218 z m 3.75,5.265 c 0,0.219 -0.141,0.938 -1.953,0.938 -1.828,0 -1.969,-0.703 -1.969,-0.938 0,-0.578 0.812,-1.14 1.953,-1.14 1.188,0 1.969,0.578 1.969,1.14 z m 4.422,-4.859 c 0,0.219 -0.141,0.953 -1.969,0.953 -1.828,0 -1.969,-0.719 -1.969,-0.953 0,-0.578 0.813,-1.125 1.969,-1.125 1.172,0 1.969,0.563 1.969,1.125 z M 16.625,9.383 c -1.25,0 -2.203,0.64 -2.203,1.422 0,0.828 0.922,1.609 2.203,1.609 1.313,0 2.203,-0.781 2.203,-1.609 0,-0.797 -0.969,-1.422 -2.203,-1.422 z"
         style="fill:#000000;fill-opacity:1;fill-rule:nonzero;stroke:none"
         id="path292" /><path
         d="m 15.484,5.582 c -0.859,0 -2.187,0.125 -3.422,0.734 C 10.719,6.973 10,7.91 10,8.02 c 0,0.062 0.047,0.109 0.109,0.109 0.032,0 0.063,0 0.25,-0.203 1.094,-1.078 2.829,-1.703 5.125,-1.703 1.875,0 3.797,0.406 5.172,1.765 0.141,0.141 0.156,0.141 0.188,0.141 0.062,0 0.109,-0.047 0.109,-0.109 0,-0.11 -0.734,-1.094 -2.125,-1.735 C 17.609,5.723 16.406,5.582 15.484,5.582 Z"
         style="fill:#000000;fill-opacity:1;fill-rule:nonzero;stroke:none"
         id="path294" /></g><g
       id="g296"><g
         id="g298"
         clip-path="url(#clipPath302)"><g
           id="g304"><g
             id="g306"><g
               id="g308"
               clip-path="url(#clipPath312)"><g
                 id="g314"><path
                   d="m 43.555,116.16 0.449,-0.023 0.574,-0.313 0.731,-0.562 0.929,-0.989 1.184,-1.382 1.512,-1.934 1.925,-2.437 2.457,-3.047 3.125,-3.504 3.985,-3.871 5.078,-3.68 6.469,-2.957 9.332,-0.152 9.328,2 9.328,3.816 9.332,4.93 9.328,5.847 9.328,6.348 9.328,6.84 9.332,7.07 9.329,7.375 9.328,7.399 9.328,7.406 9.332,7.164 9.328,6.93 9.328,6.363 9.332,5.812 9.328,5.114 9.328,4.543 9.328,3.859 9.332,3.316 9.329,2.762 9.328,2.328 9.328,1.723 9.332,1.371 9.328,1.07 9.328,0.918 9.332,0.649 9.328,0.531"
                   style="fill:none;stroke:#1e75b3;stroke-width:1.5;stroke-linecap:butt;stroke-linejoin:round;stroke-miterlimit:10;stroke-dasharray:5.55, 2.4;stroke-dashoffset:0;stroke-opacity:1"
                   id="path316" /><path
                   d="m 43.555,116.16 0.449,-0.023 0.574,-0.313 0.731,-0.562 0.929,-0.989 1.184,-1.382 1.512,-1.934 1.925,-2.437 2.457,-3.047 3.125,-3.504 3.985,-3.871 5.078,-3.68 6.469,-2.957 9.332,-0.152 9.328,2 9.328,3.816 9.332,4.93 9.328,5.847 9.328,6.348 9.328,6.84 9.332,7.07 9.329,7.375 9.328,7.399 9.328,7.406 9.332,7.164 9.328,6.93 9.328,6.363 9.332,5.812 9.328,5.114 9.328,4.543 9.328,3.859 9.332,3.316 9.329,2.762 9.328,2.328 9.328,1.723 9.332,1.371 9.328,1.07 9.328,0.918 9.332,0.649 9.328,0.531"
                   style="fill:none;stroke:#ff7d0c;stroke-width:1.5;stroke-linecap:butt;stroke-linejoin:round;stroke-miterlimit:10;stroke-dasharray:5.55, 2.4;stroke-dashoffset:0;stroke-opacity:1"
                   id="path318" /></g></g></g></g></g></g><g
       id="g320"><path
         d="M 43.418,204.996 V 10"
         style="fill:none;stroke:#000000;stroke-width:0.8;stroke-linecap:square;stroke-linejoin:miter;stroke-miterlimit:10;stroke-dasharray:none;stroke-opacity:1"
         id="path322" /><path
         d="M 342.52,204.996 V 10"
         style="fill:none;stroke:#000000;stroke-width:0.8;stroke-linecap:square;stroke-linejoin:miter;stroke-miterlimit:10;stroke-dasharray:none;stroke-opacity:1"
         id="path324" /><path
         d="M 43.418,204.996 H 342.52"
         style="fill:none;stroke:#000000;stroke-width:0.8;stroke-linecap:square;stroke-linejoin:miter;stroke-miterlimit:10;stroke-dasharray:none;stroke-opacity:1"
         id="path326" /><path
         d="M 43.418,10 H 342.52"
         style="fill:none;stroke:#000000;stroke-width:0.8;stroke-linecap:square;stroke-linejoin:miter;stroke-miterlimit:10;stroke-dasharray:none;stroke-opacity:1"
         id="path328" /><path
         d="m 264.699,82.277 c -0.281,0.016 -0.344,0.032 -0.344,0.172 0,0.156 0.079,0.156 0.375,0.156 h 0.735 c 1.344,0 1.953,1.125 1.953,2.657 0,2.078 -1.078,2.64 -1.859,2.64 -0.766,0 -2.079,-0.375 -2.532,-1.422 0.5,0.079 0.969,-0.203 0.969,-0.781 0,-0.453 -0.344,-0.781 -0.781,-0.781 -0.391,0 -0.797,0.219 -0.797,0.828 0,1.422 1.422,2.578 3.187,2.578 1.891,0 3.297,-1.437 3.297,-3.047 0,-1.468 -1.187,-2.625 -2.703,-2.89 1.375,-0.407 2.266,-1.563 2.266,-2.813 0,-1.25 -1.297,-2.172 -2.844,-2.172 -1.594,0 -2.781,0.969 -2.781,2.125 0,0.641 0.5,0.766 0.734,0.766 0.344,0 0.719,-0.234 0.719,-0.719 0,-0.5 -0.375,-0.719 -0.734,-0.719 -0.094,0 -0.125,0 -0.172,0.016 0.609,-1.094 2.109,-1.094 2.187,-1.094 0.516,0 1.563,0.235 1.563,1.797 0,0.313 -0.047,1.203 -0.516,1.891 -0.469,0.703 -1.016,0.75 -1.453,0.765 z"
         style="fill:#000000;fill-opacity:1;fill-rule:nonzero;stroke:none"
         id="path330" /><path
         d="m 278.652,77.137 h -8.437 v 0.468 h 0.312 c 1.157,0 1.203,0.157 1.203,0.75 v 8.422 c 0,0.594 -0.046,0.75 -1.203,0.75 h -0.312 v 0.469 c 0.375,-0.031 1.797,-0.031 2.281,-0.031 0.547,0 1.953,0 2.422,0.031 v -0.469 h -0.484 c -1.391,0 -1.422,-0.187 -1.422,-0.765 v -3.969 h 1.406 c 1.5,0 1.656,0.531 1.656,1.875 h 0.36 V 80.48 h -0.36 c 0,1.329 -0.156,1.86 -1.656,1.86 h -1.406 v -4.094 c 0,-0.531 0.031,-0.641 0.734,-0.641 h 2 c 2.297,0 2.75,0.844 2.984,3.094 h 0.344 z"
         style="fill:#000000;fill-opacity:1;fill-rule:nonzero;stroke:none"
         id="path332" /><path
         d="m 283.336,77.34 c -0.156,-0.219 -0.172,-0.235 -0.516,-0.235 h -2.437 v 0.469 c 0.687,0 1.078,0 1.515,0.11 v 8.64 c 0,0.453 0,1.203 -1.515,1.203 v 0.469 c 0.406,-0.031 1.25,-0.031 1.703,-0.031 0.453,0 1.297,0 1.703,0.031 v -0.469 c -1.516,0 -1.516,-0.75 -1.516,-1.203 v -8.39 c 0.125,0.14 0.125,0.171 0.282,0.359 l 6.203,9.469 c 0.172,0.218 0.187,0.234 0.297,0.234 0.14,0 0.172,-0.062 0.187,-0.094 v -9.125 c 0,-0.453 0,-1.203 1.516,-1.203 v -0.469 c -0.422,0.032 -1.266,0.032 -1.703,0.032 -0.453,0 -1.297,0 -1.703,-0.032 v 0.469 c 1.5,0 1.5,0.75 1.5,1.203 v 6.969 z"
         style="fill:#000000;fill-opacity:1;fill-rule:nonzero;stroke:none"
         id="path334" /><path
         d="m 294.738,81.355 c -0.812,-0.218 -1.531,-1.015 -1.531,-2.031 0,-1.109 0.891,-2.125 2.141,-2.125 2.609,0 2.968,2.594 3.062,3.281 0.031,0.188 0.031,0.25 0.188,0.25 0.172,0 0.172,-0.078 0.172,-0.375 v -3.218 c 0,-0.282 0,-0.36 -0.157,-0.36 -0.047,0 -0.109,0 -0.218,0.203 l -0.532,0.969 c -0.765,-0.984 -1.812,-1.172 -2.515,-1.172 -1.766,0 -3.063,1.422 -3.063,3.047 0,0.766 0.266,1.469 0.86,2.094 0.562,0.625 1.125,0.766 2.25,1.062 0.562,0.125 1.437,0.344 1.656,0.438 0.75,0.375 1.25,1.234 1.25,2.125 0,1.187 -0.844,2.328 -2.172,2.328 -0.719,0 -1.703,-0.172 -2.484,-0.859 -0.922,-0.828 -0.985,-1.985 -1,-2.5 -0.016,-0.141 -0.157,-0.141 -0.188,-0.141 -0.172,0 -0.172,0.094 -0.172,0.375 v 3.219 c 0,0.281 0,0.359 0.156,0.359 0.094,0 0.11,-0.031 0.235,-0.219 0.062,-0.125 0.39,-0.718 0.515,-0.953 0.579,0.641 1.579,1.172 2.954,1.172 1.781,0 3.078,-1.5 3.078,-3.265 0,-0.969 -0.375,-1.688 -0.797,-2.204 -0.594,-0.718 -1.313,-0.906 -1.938,-1.062 z"
         style="fill:#000000;fill-opacity:1;fill-rule:nonzero;stroke:none"
         id="path336" /><path
         d="m 134.641,57.574 h 198.781 c 1.734,0 2.598,-0.867 2.598,-2.601 V 19.102 c 0,-1.735 -0.864,-2.602 -2.598,-2.602 H 134.641 c -1.735,0 -2.602,0.867 -2.602,2.602 v 35.871 c 0,1.734 0.867,2.601 2.602,2.601 z"
         style="fill:#ffffff;fill-opacity:0.8;fill-rule:nonzero;stroke:none"
         id="path338" /><path
         d="m 134.641,57.574 h 198.781 c 1.734,0 2.598,-0.867 2.598,-2.601 V 19.102 c 0,-1.735 -0.864,-2.602 -2.598,-2.602 H 134.641 c -1.735,0 -2.602,0.867 -2.602,2.602 v 35.871 c 0,1.734 0.867,2.601 2.602,2.601 z"
         style="fill:none;stroke:#cacaca;stroke-width:1;stroke-linecap:butt;stroke-linejoin:miter;stroke-miterlimit:10;stroke-dasharray:none;stroke-opacity:0.8"
         id="path340" /><path
         d="m 137.238,26.477 h 26"
         style="fill:none;stroke:#ff7d0c;stroke-width:1.5;stroke-linecap:butt;stroke-linejoin:round;stroke-miterlimit:10;stroke-dasharray:5.55, 2.4;stroke-dashoffset:0;stroke-opacity:1"
         id="path342" /><path
         d="m 137.238,21.93 h 26 v 9.098 h -26 z"
         style="fill:#ff7d0c;fill-opacity:0.2;fill-rule:nonzero;stroke:none"
         id="path344" /><path
         d="m 137.238,21.93 h 26 v 9.098 h -26 z"
         style="fill:none;stroke:#ff7d0c;stroke-width:1;stroke-linecap:butt;stroke-linejoin:miter;stroke-miterlimit:10;stroke-dasharray:none;stroke-opacity:0.2"
         id="path346" /><path
         d="m 176.469,26.902 h 2.187 c 1.516,0 2.906,-1.015 2.906,-2.328 0,-1.25 -1.265,-2.39 -3.015,-2.39 h -4.359 v 0.375 h 0.25 c 0.937,0 0.984,0.125 0.984,0.609 v 6.875 c 0,0.484 -0.047,0.609 -0.984,0.609 h -0.25 v 0.375 c 0.312,-0.031 1.374,-0.031 1.75,-0.031 0.39,0 1.453,0 1.75,0.031 v -0.375 h -0.25 c -0.938,0 -0.969,-0.125 -0.969,-0.609 z m -0.031,-0.312 v -3.516 c 0,-0.422 0.031,-0.515 0.593,-0.515 h 1.219 c 2.094,0 2.094,1.468 2.094,2.015 0,0.547 0,2.016 -2.11,2.016 z"
         style="fill:#000000;fill-opacity:1;fill-rule:nonzero;stroke:none"
         id="path348" /><path
         d="m 182.812,22.184 v 0.375 h 0.25 c 0.938,0 0.985,0.125 0.985,0.609 v 6.875 c 0,0.484 -0.047,0.609 -0.985,0.609 h -0.25 v 0.375 h 4.532 c 2.156,0 3.89,-1.937 3.89,-4.343 0,-2.5 -1.734,-4.5 -3.89,-4.5 z m 2.844,8.468 c -0.562,0 -0.594,-0.093 -0.594,-0.515 v -7.063 c 0,-0.422 0.032,-0.515 0.594,-0.515 h 1.36 c 1.078,0 1.937,0.515 2.468,1.375 0.578,0.921 0.578,2.218 0.578,2.734 0,0.734 -0.015,1.953 -0.75,2.906 -0.421,0.547 -1.203,1.078 -2.296,1.078 z"
         style="fill:#000000;fill-opacity:1;fill-rule:nonzero;stroke:none"
         id="path350" /><path
         d="m 199.332,22.199 h -6.859 v 0.375 h 0.265 c 0.922,0 0.969,0.141 0.969,0.61 v 6.859 c 0,0.484 -0.047,0.609 -0.969,0.609 h -0.265 v 0.375 c 0.312,-0.031 1.468,-0.031 1.859,-0.031 0.453,0 1.594,0 1.969,0.031 v -0.375 h -0.391 c -1.125,0 -1.156,-0.156 -1.156,-0.625 v -3.218 h 1.141 c 1.218,0 1.343,0.421 1.343,1.515 h 0.282 v -3.406 h -0.282 c 0,1.078 -0.125,1.516 -1.343,1.516 h -1.141 v -3.329 c 0,-0.437 0.031,-0.531 0.594,-0.531 h 1.625 c 1.859,0 2.234,0.688 2.422,2.516 h 0.281 z"
         style="fill:#000000;fill-opacity:1;fill-rule:nonzero;stroke:none"
         id="path352" /><path
         d="m 207.742,25.465 v 0.375 c 0.875,0 0.985,0.078 0.985,0.719 v 2.312 c 0,1.109 -0.579,2.031 -1.547,2.031 -1.063,0 -1.141,-0.609 -1.141,-1.297 v -4.296 l -1.812,0.156 v 0.375 c 0.984,0 0.984,0.031 0.984,1.187 v 1.938 c 0,0.812 0,1.265 0.375,1.703 0.312,0.328 0.844,0.484 1.516,0.484 0.218,0 0.625,0 1.062,-0.375 0.375,-0.297 0.594,-0.781 0.594,-0.781 v 1.156 l 1.797,-0.125 v -0.375 c -0.875,0 -0.985,-0.093 -0.985,-0.718 v -4.625 z"
         style="fill:#000000;fill-opacity:1;fill-rule:nonzero;stroke:none"
         id="path354" /><path
         d="m 216.602,27.887 c 0,-1.219 0,-1.578 -0.297,-1.985 -0.375,-0.515 -0.985,-0.593 -1.422,-0.593 -1.266,0 -1.75,1.078 -1.86,1.343 h -0.015 v -1.343 l -1.75,0.156 v 0.375 c 0.875,0 0.984,0.078 0.984,0.719 v 3.515 c 0,0.578 -0.156,0.578 -0.984,0.578 v 0.375 c 0.328,-0.031 1.031,-0.031 1.39,-0.031 0.375,0 1.079,0 1.407,0.031 v -0.375 c -0.828,0 -0.985,0 -0.985,-0.578 v -2.422 c 0,-1.359 0.907,-2.078 1.703,-2.078 0.797,0 0.985,0.656 0.985,1.453 v 3.047 c 0,0.578 -0.141,0.578 -0.985,0.578 v 0.375 c 0.344,-0.031 1.032,-0.031 1.407,-0.031 0.375,0 1.062,0 1.406,0.031 v -0.375 c -0.656,0 -0.969,0 -0.984,-0.39 z"
         style="fill:#000000;fill-opacity:1;fill-rule:nonzero;stroke:none"
         id="path356" /><path
         d="m 222.555,26.23 c -0.157,0 -0.641,0 -0.641,0.532 0,0.312 0.234,0.531 0.531,0.531 0.313,0 0.547,-0.172 0.547,-0.547 0,-0.875 -0.906,-1.5 -1.953,-1.5 -1.516,0 -2.719,1.344 -2.719,2.984 0,1.657 1.25,2.922 2.703,2.922 1.719,0 2.11,-1.547 2.11,-1.672 0,-0.109 -0.094,-0.109 -0.141,-0.109 -0.109,0 -0.125,0.031 -0.156,0.188 -0.297,0.921 -0.984,1.312 -1.688,1.312 -0.796,0 -1.843,-0.687 -1.843,-2.656 0,-2.156 1.093,-2.672 1.75,-2.672 0.484,0 1.203,0.187 1.5,0.687 z"
         style="fill:#000000;fill-opacity:1;fill-rule:nonzero;stroke:none"
         id="path358" /><path
         d="m 228.473,28.027 c 0.281,0 0.297,0 0.297,-0.25 0,-1.312 -0.688,-2.531 -2.266,-2.531 -1.469,0 -2.609,1.344 -2.609,2.938 0,1.718 1.312,2.968 2.75,2.968 1.546,0 2.125,-1.39 2.125,-1.672 0,-0.078 -0.063,-0.125 -0.141,-0.125 -0.094,0 -0.125,0.063 -0.156,0.125 -0.328,1.094 -1.203,1.391 -1.75,1.391 -0.532,0 -1.844,-0.359 -1.844,-2.609 v -0.235 z m -3.578,-0.25 c 0.093,-2.031 1.234,-2.265 1.593,-2.265 1.391,0 1.469,1.828 1.485,2.265 z"
         style="fill:#000000;fill-opacity:1;fill-rule:nonzero;stroke:none"
         id="path360" /><path
         d="m 231.293,28.012 c 0,-1.266 0.531,-2.438 1.516,-2.438 0.109,0 0.14,0 0.187,0.016 -0.109,0.047 -0.312,0.125 -0.312,0.469 0,0.39 0.296,0.531 0.5,0.531 0.265,0 0.531,-0.172 0.531,-0.531 0,-0.375 -0.36,-0.75 -0.906,-0.75 -1.11,0 -1.485,1.203 -1.563,1.437 h -0.016 v -1.437 l -1.734,0.156 v 0.375 c 0.891,0 0.984,0.078 0.984,0.719 v 3.515 c 0,0.578 -0.14,0.578 -0.984,0.578 v 0.375 c 0.359,-0.031 1.078,-0.031 1.469,-0.031 0.344,0 1.265,0 1.562,0.031 v -0.375 h -0.25 c -0.953,0 -0.984,-0.14 -0.984,-0.609 z"
         style="fill:#000000;fill-opacity:1;fill-rule:nonzero;stroke:none"
         id="path362" /><path
         d="m 236.23,25.824 h 1.829 v -0.375 h -1.829 v -2.39 h -0.281 c -0.015,1.218 -0.484,2.468 -1.656,2.5 v 0.265 h 1.094 v 3.594 c 0,1.437 0.968,1.734 1.656,1.734 0.812,0 1.234,-0.797 1.234,-1.734 v -0.734 h -0.281 v 0.718 c 0,0.922 -0.375,1.469 -0.875,1.469 -0.891,0 -0.891,-1.203 -0.891,-1.422 z"
         style="fill:#000000;fill-opacity:1;fill-rule:nonzero;stroke:none"
         id="path364" /><path
         d="m 243.98,27.574 c 0,-0.703 0,-1.219 -0.562,-1.734 -0.453,-0.406 -1.047,-0.594 -1.609,-0.594 -1.063,0 -1.875,0.703 -1.875,1.547 0,0.375 0.234,0.562 0.531,0.562 0.312,0 0.531,-0.234 0.531,-0.531 0,-0.531 -0.469,-0.531 -0.656,-0.531 0.297,-0.547 0.922,-0.781 1.437,-0.781 0.594,0 1.36,0.484 1.36,1.656 v 0.516 c -2.61,0.046 -3.594,1.125 -3.594,2.125 0,1.031 1.203,1.343 1.984,1.343 0.86,0 1.438,-0.515 1.688,-1.14 0.047,0.609 0.453,1.078 1.015,1.078 0.266,0 1.016,-0.172 1.016,-1.219 v -0.719 h -0.281 v 0.719 c 0,0.734 -0.313,0.844 -0.5,0.844 -0.485,0 -0.485,-0.688 -0.485,-0.875 z m -0.843,1.625 c 0,1.266 -0.938,1.703 -1.5,1.703 -0.641,0 -1.172,-0.468 -1.172,-1.093 0,-1.704 2.203,-1.86 2.672,-1.891 z"
         style="fill:#000000;fill-opacity:1;fill-rule:nonzero;stroke:none"
         id="path366" /><path
         d="m 247.562,23.043 c 0,-0.328 -0.265,-0.625 -0.624,-0.625 -0.344,0 -0.626,0.266 -0.626,0.625 0,0.375 0.313,0.625 0.626,0.625 0.39,0 0.624,-0.328 0.624,-0.625 z m -1.781,2.422 v 0.375 c 0.828,0 0.938,0.078 0.938,0.703 v 3.531 c 0,0.578 -0.141,0.578 -0.985,0.578 v 0.375 c 0.375,-0.031 0.985,-0.031 1.36,-0.031 0.156,0 0.906,0 1.344,0.031 v -0.375 c -0.844,0 -0.891,-0.062 -0.891,-0.578 v -4.765 z"
         style="fill:#000000;fill-opacity:1;fill-rule:nonzero;stroke:none"
         id="path368" /><path
         d="m 254.59,27.887 c 0,-1.219 0,-1.578 -0.297,-1.985 -0.375,-0.515 -0.984,-0.593 -1.422,-0.593 -1.266,0 -1.75,1.078 -1.859,1.343 h -0.016 v -1.343 l -1.75,0.156 v 0.375 c 0.875,0 0.984,0.078 0.984,0.719 v 3.515 c 0,0.578 -0.156,0.578 -0.984,0.578 v 0.375 c 0.328,-0.031 1.031,-0.031 1.391,-0.031 0.375,0 1.078,0 1.406,0.031 v -0.375 c -0.828,0 -0.984,0 -0.984,-0.578 v -2.422 c 0,-1.359 0.906,-2.078 1.703,-2.078 0.797,0 0.984,0.656 0.984,1.453 v 3.047 c 0,0.578 -0.141,0.578 -0.984,0.578 v 0.375 c 0.343,-0.031 1.031,-0.031 1.406,-0.031 0.375,0 1.062,0 1.406,0.031 v -0.375 c -0.656,0 -0.969,0 -0.984,-0.39 z"
         style="fill:#000000;fill-opacity:1;fill-rule:nonzero;stroke:none"
         id="path370" /><path
         d="m 257.676,25.824 h 1.828 v -0.375 h -1.828 v -2.39 h -0.281 c -0.016,1.218 -0.485,2.468 -1.657,2.5 v 0.265 h 1.094 v 3.594 c 0,1.437 0.969,1.734 1.656,1.734 0.813,0 1.235,-0.797 1.235,-1.734 v -0.734 h -0.282 v 0.718 c 0,0.922 -0.375,1.469 -0.875,1.469 -0.89,0 -0.89,-1.203 -0.89,-1.422 z"
         style="fill:#000000;fill-opacity:1;fill-rule:nonzero;stroke:none"
         id="path372" /><path
         d="m 262.676,23.043 c 0,-0.328 -0.266,-0.625 -0.625,-0.625 -0.344,0 -0.625,0.266 -0.625,0.625 0,0.375 0.312,0.625 0.625,0.625 0.39,0 0.625,-0.328 0.625,-0.625 z m -1.781,2.422 v 0.375 c 0.828,0 0.937,0.078 0.937,0.703 v 3.531 c 0,0.578 -0.141,0.578 -0.984,0.578 v 0.375 c 0.375,-0.031 0.984,-0.031 1.359,-0.031 0.156,0 0.906,0 1.344,0.031 v -0.375 c -0.844,0 -0.891,-0.062 -0.891,-0.578 v -4.765 z"
         style="fill:#000000;fill-opacity:1;fill-rule:nonzero;stroke:none"
         id="path374" /><path
         d="m 268.902,28.027 c 0.282,0 0.297,0 0.297,-0.25 0,-1.312 -0.687,-2.531 -2.265,-2.531 -1.469,0 -2.61,1.344 -2.61,2.938 0,1.718 1.313,2.968 2.75,2.968 1.547,0 2.125,-1.39 2.125,-1.672 0,-0.078 -0.062,-0.125 -0.14,-0.125 -0.094,0 -0.125,0.063 -0.157,0.125 -0.328,1.094 -1.203,1.391 -1.75,1.391 -0.531,0 -1.843,-0.359 -1.843,-2.609 v -0.235 z m -3.578,-0.25 c 0.094,-2.031 1.235,-2.265 1.594,-2.265 1.391,0 1.469,1.828 1.484,2.265 z"
         style="fill:#000000;fill-opacity:1;fill-rule:nonzero;stroke:none"
         id="path376" /><path
         d="m 273.82,25.543 c 0,-0.234 0,-0.297 -0.125,-0.297 -0.109,0 -0.359,0.297 -0.453,0.406 -0.39,-0.328 -0.797,-0.406 -1.203,-0.406 -1.578,0 -2.047,0.859 -2.047,1.578 0,0.141 0,0.594 0.5,1.047 0.406,0.359 0.86,0.453 1.453,0.563 0.703,0.14 0.875,0.187 1.203,0.437 0.235,0.203 0.407,0.484 0.407,0.844 0,0.562 -0.328,1.187 -1.469,1.187 -0.859,0 -1.484,-0.5 -1.766,-1.797 -0.047,-0.234 -0.047,-0.234 -0.062,-0.25 -0.031,-0.062 -0.078,-0.062 -0.125,-0.062 -0.141,0 -0.141,0.078 -0.141,0.297 v 1.765 c 0,0.235 0,0.297 0.141,0.297 0.062,0 0.078,-0.015 0.297,-0.281 0.062,-0.094 0.062,-0.109 0.25,-0.328 0.5,0.609 1.203,0.609 1.422,0.609 1.359,0 2.031,-0.75 2.031,-1.765 0,-0.703 -0.438,-1.125 -0.547,-1.235 -0.469,-0.406 -0.813,-0.484 -1.672,-0.64 -0.391,-0.078 -1.328,-0.25 -1.328,-1.032 0,-0.406 0.266,-1 1.437,-1 1.407,0 1.485,1.204 1.516,1.61 0.016,0.109 0.094,0.109 0.141,0.109 0.14,0 0.14,-0.078 0.14,-0.297 z"
         style="fill:#000000;fill-opacity:1;fill-rule:nonzero;stroke:none"
         id="path378" /><path
         d="m 137.238,45.066 h 26"
         style="fill:none;stroke:#1e75b3;stroke-width:1.5;stroke-linecap:butt;stroke-linejoin:round;stroke-miterlimit:10;stroke-dasharray:5.55, 2.4;stroke-dashoffset:0;stroke-opacity:1"
         id="path380" /><path
         d="m 137.238,40.516 h 26 v 9.098 h -26 z"
         style="fill:#1e75b3;fill-opacity:0.2;fill-rule:nonzero;stroke:none"
         id="path382" /><path
         d="m 137.238,40.516 h 26 v 9.098 h -26 z"
         style="fill:none;stroke:#1e75b3;stroke-width:1;stroke-linecap:butt;stroke-linejoin:miter;stroke-miterlimit:10;stroke-dasharray:none;stroke-opacity:0.2"
         id="path384" /><path
         d="m 176.469,45.488 h 2.187 c 1.516,0 2.906,-1.015 2.906,-2.328 0,-1.25 -1.265,-2.39 -3.015,-2.39 h -4.359 v 0.375 h 0.25 c 0.937,0 0.984,0.125 0.984,0.609 v 6.875 c 0,0.484 -0.047,0.609 -0.984,0.609 h -0.25 v 0.375 c 0.312,-0.031 1.374,-0.031 1.75,-0.031 0.39,0 1.453,0 1.75,0.031 v -0.375 h -0.25 c -0.938,0 -0.969,-0.125 -0.969,-0.609 z m -0.031,-0.312 V 41.66 c 0,-0.422 0.031,-0.515 0.593,-0.515 h 1.219 c 2.094,0 2.094,1.468 2.094,2.015 0,0.547 0,2.016 -2.11,2.016 z"
         style="fill:#000000;fill-opacity:1;fill-rule:nonzero;stroke:none"
         id="path386" /><path
         d="m 182.812,40.77 v 0.375 h 0.25 c 0.938,0 0.985,0.125 0.985,0.609 v 6.875 c 0,0.484 -0.047,0.609 -0.985,0.609 h -0.25 v 0.375 h 4.532 c 2.156,0 3.89,-1.937 3.89,-4.343 0,-2.5 -1.734,-4.5 -3.89,-4.5 z m 2.844,8.468 c -0.562,0 -0.594,-0.093 -0.594,-0.515 V 41.66 c 0,-0.422 0.032,-0.515 0.594,-0.515 h 1.36 c 1.078,0 1.937,0.515 2.468,1.375 0.578,0.921 0.578,2.218 0.578,2.734 0,0.734 -0.015,1.953 -0.75,2.906 -0.421,0.547 -1.203,1.078 -2.296,1.078 z"
         style="fill:#000000;fill-opacity:1;fill-rule:nonzero;stroke:none"
         id="path388" /><path
         d="m 199.332,40.785 h -6.859 v 0.375 h 0.265 c 0.922,0 0.969,0.141 0.969,0.61 v 6.859 c 0,0.484 -0.047,0.609 -0.969,0.609 h -0.265 v 0.375 c 0.312,-0.031 1.468,-0.031 1.859,-0.031 0.453,0 1.594,0 1.969,0.031 v -0.375 h -0.391 c -1.125,0 -1.156,-0.156 -1.156,-0.625 v -3.218 h 1.141 c 1.218,0 1.343,0.421 1.343,1.515 h 0.282 v -3.406 h -0.282 c 0,1.078 -0.125,1.516 -1.343,1.516 h -1.141 v -3.329 c 0,-0.437 0.031,-0.531 0.594,-0.531 h 1.625 c 1.859,0 2.234,0.688 2.422,2.516 h 0.281 z"
         style="fill:#000000;fill-opacity:1;fill-rule:nonzero;stroke:none"
         id="path390" /><path
         d="m 208.254,46.629 h 3.578 c 0.172,0 0.406,0 0.406,-0.234 0,-0.25 -0.218,-0.25 -0.406,-0.25 h -3.578 v -3.579 c 0,-0.187 0,-0.421 -0.234,-0.421 -0.25,0 -0.25,0.234 -0.25,0.421 v 3.579 h -3.579 c -0.171,0 -0.406,0 -0.406,0.234 0,0.25 0.219,0.25 0.406,0.25 h 3.579 v 3.562 c 0,0.188 0,0.422 0.234,0.422 0.25,0 0.25,-0.218 0.25,-0.422 z"
         style="fill:#000000;fill-opacity:1;fill-rule:nonzero;stroke:none"
         id="path392" /><path
         d="m 218.801,41.02 c -0.094,-0.25 -0.11,-0.25 -0.406,-0.25 h -2.016 v 0.375 h 0.266 c 0.937,0 0.968,0.125 0.968,0.609 v 6.531 c 0,0.344 0,0.953 -1.234,0.953 v 0.375 c 0.344,-0.031 1.031,-0.031 1.391,-0.031 0.359,0 1.046,0 1.39,0.031 v -0.375 c -1.234,0 -1.234,-0.609 -1.234,-0.953 v -7.078 h 0.015 l 3.125,8.156 c 0.047,0.141 0.094,0.25 0.219,0.25 0.11,0 0.141,-0.062 0.219,-0.265 l 3.141,-8.203 h 0.015 v 7.484 c 0,0.484 -0.031,0.609 -0.969,0.609 h -0.265 v 0.375 c 0.312,-0.031 1.344,-0.031 1.719,-0.031 0.375,0 1.406,0 1.703,0.031 v -0.375 h -0.25 c -0.938,0 -0.969,-0.125 -0.969,-0.609 v -6.875 c 0,-0.484 0.031,-0.609 0.969,-0.609 h 0.25 V 40.77 h -2 c -0.282,0 -0.297,0.015 -0.407,0.25 l -2.828,7.375 z"
         style="fill:#000000;fill-opacity:1;fill-rule:nonzero;stroke:none"
         id="path394" /><path
         d="m 235.168,41.754 c 0,-0.484 0.031,-0.609 0.969,-0.609 h 0.265 V 40.77 c -0.312,0.015 -1.375,0.015 -1.75,0.015 -0.39,0 -1.453,0 -1.765,-0.015 v 0.375 h 0.265 c 0.922,0 0.969,0.125 0.969,0.609 v 3.062 h -3.875 v -3.062 c 0,-0.484 0.031,-0.609 0.969,-0.609 h 0.265 V 40.77 c -0.312,0.015 -1.375,0.015 -1.75,0.015 -0.39,0 -1.453,0 -1.765,-0.015 v 0.375 h 0.265 c 0.922,0 0.969,0.125 0.969,0.609 v 6.875 c 0,0.484 -0.047,0.609 -0.969,0.609 h -0.265 v 0.375 c 0.312,-0.031 1.375,-0.031 1.75,-0.031 0.39,0 1.453,0 1.765,0.031 v -0.375 h -0.265 c -0.938,0 -0.969,-0.125 -0.969,-0.609 v -3.438 h 3.875 v 3.438 c 0,0.484 -0.047,0.609 -0.969,0.609 h -0.265 v 0.375 c 0.312,-0.031 1.375,-0.031 1.75,-0.031 0.39,0 1.453,0 1.765,0.031 v -0.375 h -0.265 c -0.938,0 -0.969,-0.125 -0.969,-0.609 z"
         style="fill:#000000;fill-opacity:1;fill-rule:nonzero;stroke:none"
         id="path396" /><path
         d="m 246.094,45.223 c 0,-2.688 -1.969,-4.735 -4.219,-4.735 -2.313,0 -4.234,2.078 -4.234,4.735 0,2.625 1.953,4.656 4.218,4.656 2.313,0 4.235,-2.047 4.235,-4.656 z m -4.219,4.359 c -1.328,0 -3.031,-1.234 -3.031,-4.547 0,-3.187 1.797,-4.25 3.015,-4.25 1.282,0 3.032,1.11 3.032,4.25 0,3.36 -1.766,4.547 -3.016,4.547 z"
         style="fill:#000000;fill-opacity:1;fill-rule:nonzero;stroke:none"
         id="path398" /><path
         d="m 254.188,46.629 c 0,1.812 -1.235,2.875 -2.454,2.875 -0.781,0 -2.125,-0.516 -2.125,-2.781 v -4.969 c 0,-0.484 0.032,-0.609 0.969,-0.609 h 0.266 V 40.77 c -0.313,0.015 -1.375,0.015 -1.75,0.015 -0.391,0 -1.453,0 -1.766,-0.015 v 0.375 h 0.266 c 0.922,0 0.968,0.125 0.968,0.609 v 4.891 c 0,1.875 1.5,3.234 3.141,3.234 1.797,0 2.828,-1.75 2.828,-3.047 v -4.906 c 0,-0.781 1,-0.781 1.235,-0.781 V 40.77 c -0.344,0.015 -1.047,0.015 -1.407,0.015 -0.375,0 -1.078,0 -1.406,-0.015 v 0.375 c 1.235,0 1.235,0.609 1.235,0.953 z"
         style="fill:#000000;fill-opacity:1;fill-rule:nonzero;stroke:none"
         id="path400" /><path
         d="m 263.84,44.051 v 0.375 c 0.875,0 0.984,0.078 0.984,0.719 v 2.312 c 0,1.109 -0.578,2.031 -1.547,2.031 -1.062,0 -1.14,-0.609 -1.14,-1.297 v -4.296 l -1.813,0.156 v 0.375 c 0.985,0 0.985,0.031 0.985,1.187 v 1.938 c 0,0.812 0,1.265 0.375,1.703 0.312,0.328 0.843,0.484 1.515,0.484 0.219,0 0.625,0 1.063,-0.375 0.375,-0.297 0.593,-0.781 0.593,-0.781 v 1.156 l 1.797,-0.125 v -0.375 c -0.875,0 -0.984,-0.093 -0.984,-0.718 v -4.625 z"
         style="fill:#000000;fill-opacity:1;fill-rule:nonzero;stroke:none"
         id="path402" /><path
         d="m 272.699,46.473 c 0,-1.219 0,-1.578 -0.297,-1.985 -0.375,-0.515 -0.984,-0.593 -1.422,-0.593 -1.265,0 -1.75,1.078 -1.859,1.343 h -0.016 v -1.343 l -1.75,0.156 v 0.375 c 0.875,0 0.985,0.078 0.985,0.719 v 3.515 c 0,0.578 -0.156,0.578 -0.985,0.578 v 0.375 c 0.329,-0.031 1.032,-0.031 1.391,-0.031 0.375,0 1.078,0 1.406,0.031 v -0.375 c -0.828,0 -0.984,0 -0.984,-0.578 v -2.422 c 0,-1.359 0.906,-2.078 1.703,-2.078 0.797,0 0.984,0.656 0.984,1.453 v 3.047 c 0,0.578 -0.14,0.578 -0.984,0.578 v 0.375 c 0.344,-0.031 1.031,-0.031 1.406,-0.031 0.375,0 1.063,0 1.407,0.031 v -0.375 c -0.657,0 -0.969,0 -0.985,-0.39 z"
         style="fill:#000000;fill-opacity:1;fill-rule:nonzero;stroke:none"
         id="path404" /><path
         d="m 278.656,44.816 c -0.156,0 -0.64,0 -0.64,0.532 0,0.312 0.234,0.531 0.531,0.531 0.312,0 0.547,-0.172 0.547,-0.547 0,-0.875 -0.906,-1.5 -1.953,-1.5 -1.516,0 -2.719,1.344 -2.719,2.984 0,1.657 1.25,2.922 2.703,2.922 1.719,0 2.109,-1.547 2.109,-1.672 0,-0.109 -0.093,-0.109 -0.14,-0.109 -0.11,0 -0.125,0.031 -0.156,0.188 -0.297,0.921 -0.985,1.312 -1.688,1.312 -0.797,0 -1.844,-0.687 -1.844,-2.656 0,-2.156 1.094,-2.672 1.75,-2.672 0.485,0 1.203,0.187 1.5,0.687 z"
         style="fill:#000000;fill-opacity:1;fill-rule:nonzero;stroke:none"
         id="path406" /><path
         d="m 284.57,46.613 c 0.282,0 0.297,0 0.297,-0.25 0,-1.312 -0.687,-2.531 -2.265,-2.531 -1.469,0 -2.61,1.344 -2.61,2.938 0,1.718 1.313,2.968 2.75,2.968 1.547,0 2.125,-1.39 2.125,-1.672 0,-0.078 -0.062,-0.125 -0.14,-0.125 -0.094,0 -0.125,0.063 -0.157,0.125 -0.328,1.094 -1.203,1.391 -1.75,1.391 -0.531,0 -1.843,-0.359 -1.843,-2.609 v -0.235 z m -3.578,-0.25 c 0.094,-2.031 1.235,-2.265 1.594,-2.265 1.391,0 1.469,1.828 1.484,2.265 z"
         style="fill:#000000;fill-opacity:1;fill-rule:nonzero;stroke:none"
         id="path408" /><path
         d="m 287.391,46.598 c 0,-1.266 0.531,-2.438 1.515,-2.438 0.11,0 0.141,0 0.188,0.016 -0.11,0.047 -0.313,0.125 -0.313,0.469 0,0.39 0.297,0.531 0.5,0.531 0.266,0 0.531,-0.172 0.531,-0.531 0,-0.375 -0.359,-0.75 -0.906,-0.75 -1.109,0 -1.484,1.203 -1.562,1.437 h -0.016 v -1.437 l -1.734,0.156 v 0.375 c 0.89,0 0.984,0.078 0.984,0.719 v 3.515 c 0,0.578 -0.14,0.578 -0.984,0.578 v 0.375 c 0.359,-0.031 1.078,-0.031 1.468,-0.031 0.344,0 1.266,0 1.563,0.031 v -0.375 h -0.25 c -0.953,0 -0.984,-0.14 -0.984,-0.609 z"
         style="fill:#000000;fill-opacity:1;fill-rule:nonzero;stroke:none"
         id="path410" /><path
         d="m 292.328,44.41 h 1.828 v -0.375 h -1.828 v -2.39 h -0.281 c -0.016,1.218 -0.485,2.468 -1.656,2.5 v 0.265 h 1.093 v 3.594 c 0,1.437 0.969,1.734 1.657,1.734 0.812,0 1.234,-0.797 1.234,-1.734 V 47.27 h -0.281 v 0.718 c 0,0.922 -0.375,1.469 -0.875,1.469 -0.891,0 -0.891,-1.203 -0.891,-1.422 z"
         style="fill:#000000;fill-opacity:1;fill-rule:nonzero;stroke:none"
         id="path412" /><path
         d="m 300.078,46.16 c 0,-0.703 0,-1.219 -0.562,-1.734 -0.454,-0.406 -1.047,-0.594 -1.61,-0.594 -1.062,0 -1.875,0.703 -1.875,1.547 0,0.375 0.235,0.562 0.531,0.562 0.313,0 0.532,-0.234 0.532,-0.531 0,-0.531 -0.469,-0.531 -0.656,-0.531 0.296,-0.547 0.921,-0.781 1.437,-0.781 0.594,0 1.359,0.484 1.359,1.656 v 0.516 c -2.609,0.046 -3.593,1.125 -3.593,2.125 0,1.031 1.203,1.343 1.984,1.343 0.859,0 1.437,-0.515 1.687,-1.14 0.047,0.609 0.454,1.078 1.016,1.078 0.266,0 1.016,-0.172 1.016,-1.219 v -0.719 h -0.282 v 0.719 c 0,0.734 -0.312,0.844 -0.5,0.844 -0.484,0 -0.484,-0.688 -0.484,-0.875 z m -0.844,1.625 c 0,1.266 -0.937,1.703 -1.5,1.703 -0.64,0 -1.172,-0.468 -1.172,-1.093 0,-1.704 2.204,-1.86 2.672,-1.891 z"
         style="fill:#000000;fill-opacity:1;fill-rule:nonzero;stroke:none"
         id="path414" /><path
         d="m 303.66,41.629 c 0,-0.328 -0.265,-0.625 -0.625,-0.625 -0.344,0 -0.625,0.266 -0.625,0.625 0,0.375 0.313,0.625 0.625,0.625 0.391,0 0.625,-0.328 0.625,-0.625 z m -1.781,2.422 v 0.375 c 0.828,0 0.937,0.078 0.937,0.703 v 3.531 c 0,0.578 -0.14,0.578 -0.984,0.578 v 0.375 c 0.375,-0.031 0.984,-0.031 1.359,-0.031 0.157,0 0.907,0 1.344,0.031 v -0.375 c -0.844,0 -0.89,-0.062 -0.89,-0.578 v -4.765 z"
         style="fill:#000000;fill-opacity:1;fill-rule:nonzero;stroke:none"
         id="path416" /><path
         d="m 310.688,46.473 c 0,-1.219 0,-1.578 -0.297,-1.985 -0.375,-0.515 -0.985,-0.593 -1.422,-0.593 -1.266,0 -1.75,1.078 -1.86,1.343 h -0.015 v -1.343 l -1.75,0.156 v 0.375 c 0.875,0 0.984,0.078 0.984,0.719 v 3.515 c 0,0.578 -0.156,0.578 -0.984,0.578 v 0.375 c 0.328,-0.031 1.031,-0.031 1.39,-0.031 0.375,0 1.078,0 1.407,0.031 v -0.375 c -0.829,0 -0.985,0 -0.985,-0.578 v -2.422 c 0,-1.359 0.906,-2.078 1.703,-2.078 0.797,0 0.985,0.656 0.985,1.453 v 3.047 c 0,0.578 -0.141,0.578 -0.985,0.578 v 0.375 c 0.344,-0.031 1.032,-0.031 1.407,-0.031 0.375,0 1.062,0 1.406,0.031 v -0.375 c -0.656,0 -0.969,0 -0.984,-0.39 z"
         style="fill:#000000;fill-opacity:1;fill-rule:nonzero;stroke:none"
         id="path418" /><path
         d="m 313.773,44.41 h 1.829 v -0.375 h -1.829 v -2.39 h -0.281 c -0.015,1.218 -0.484,2.468 -1.656,2.5 v 0.265 h 1.094 v 3.594 c 0,1.437 0.968,1.734 1.656,1.734 0.812,0 1.234,-0.797 1.234,-1.734 V 47.27 h -0.281 v 0.718 c 0,0.922 -0.375,1.469 -0.875,1.469 -0.891,0 -0.891,-1.203 -0.891,-1.422 z"
         style="fill:#000000;fill-opacity:1;fill-rule:nonzero;stroke:none"
         id="path420" /><path
         d="m 318.773,41.629 c 0,-0.328 -0.265,-0.625 -0.625,-0.625 -0.343,0 -0.625,0.266 -0.625,0.625 0,0.375 0.313,0.625 0.625,0.625 0.391,0 0.625,-0.328 0.625,-0.625 z m -1.781,2.422 v 0.375 c 0.828,0 0.938,0.078 0.938,0.703 v 3.531 c 0,0.578 -0.141,0.578 -0.985,0.578 v 0.375 c 0.375,-0.031 0.985,-0.031 1.36,-0.031 0.156,0 0.906,0 1.343,0.031 v -0.375 c -0.843,0 -0.89,-0.062 -0.89,-0.578 v -4.765 z"
         style="fill:#000000;fill-opacity:1;fill-rule:nonzero;stroke:none"
         id="path422" /><path
         d="m 325,46.613 c 0.281,0 0.297,0 0.297,-0.25 0,-1.312 -0.688,-2.531 -2.266,-2.531 -1.469,0 -2.609,1.344 -2.609,2.938 0,1.718 1.312,2.968 2.75,2.968 1.547,0 2.125,-1.39 2.125,-1.672 0,-0.078 -0.063,-0.125 -0.141,-0.125 -0.094,0 -0.125,0.063 -0.156,0.125 -0.328,1.094 -1.203,1.391 -1.75,1.391 -0.531,0 -1.844,-0.359 -1.844,-2.609 v -0.235 z m -3.578,-0.25 c 0.094,-2.031 1.234,-2.265 1.594,-2.265 1.39,0 1.468,1.828 1.484,2.265 z"
         style="fill:#000000;fill-opacity:1;fill-rule:nonzero;stroke:none"
         id="path424" /><path
         d="m 329.918,44.129 c 0,-0.234 0,-0.297 -0.125,-0.297 -0.109,0 -0.359,0.297 -0.453,0.406 -0.391,-0.328 -0.797,-0.406 -1.203,-0.406 -1.578,0 -2.047,0.859 -2.047,1.578 0,0.141 0,0.594 0.5,1.047 0.406,0.359 0.859,0.453 1.453,0.563 0.703,0.14 0.875,0.187 1.203,0.437 0.234,0.203 0.406,0.484 0.406,0.844 0,0.562 -0.328,1.187 -1.468,1.187 -0.86,0 -1.485,-0.5 -1.766,-1.797 -0.047,-0.234 -0.047,-0.234 -0.063,-0.25 -0.031,-0.062 -0.078,-0.062 -0.125,-0.062 -0.14,0 -0.14,0.078 -0.14,0.297 v 1.765 c 0,0.235 0,0.297 0.14,0.297 0.063,0 0.079,-0.015 0.297,-0.281 0.063,-0.094 0.063,-0.109 0.25,-0.328 0.5,0.609 1.203,0.609 1.422,0.609 1.36,0 2.031,-0.75 2.031,-1.765 0,-0.703 -0.437,-1.125 -0.546,-1.235 -0.469,-0.406 -0.813,-0.484 -1.672,-0.64 -0.391,-0.078 -1.328,-0.25 -1.328,-1.032 0,-0.406 0.265,-1 1.437,-1 1.406,0 1.484,1.204 1.516,1.61 0.015,0.109 0.093,0.109 0.14,0.109 0.141,0 0.141,-0.078 0.141,-0.297 z"
         style="fill:#000000;fill-opacity:1;fill-rule:nonzero;stroke:none"
         id="path426" /></g></g></svg>
