<?xml version="1.0" encoding="UTF-8" standalone="no"?>
<!-- Created with Inkscape (http://www.inkscape.org/) -->

<svg
   xmlns:dc="http://purl.org/dc/elements/1.1/"
   xmlns:cc="http://creativecommons.org/ns#"
   xmlns:rdf="http://www.w3.org/1999/02/22-rdf-syntax-ns#"
   xmlns:svg="http://www.w3.org/2000/svg"
   xmlns="http://www.w3.org/2000/svg"
   xmlns:sodipodi="http://sodipodi.sourceforge.net/DTD/sodipodi-0.dtd"
   xmlns:inkscape="http://www.inkscape.org/namespaces/inkscape"
   width="203.74318mm"
   height="76.485771mm"
   viewBox="0 0 203.74318 76.485771"
   version="1.1"
   id="svg861"
   inkscape:version="0.92.4 (5da689c313, 2019-01-14)"
   sodipodi:docname="cdt.svg">
  <defs
     id="defs855" />
  <sodipodi:namedview
     id="base"
     pagecolor="#ffffff"
     bordercolor="#666666"
     borderopacity="1.0"
     inkscape:pageopacity="0.0"
     inkscape:pageshadow="2"
     inkscape:zoom="1.979899"
     inkscape:cx="658.44482"
     inkscape:cy="-60.233523"
     inkscape:document-units="mm"
     inkscape:current-layer="layer1"
     showgrid="false"
     inkscape:window-width="1366"
     inkscape:window-height="739"
     inkscape:window-x="0"
     inkscape:window-y="0"
     inkscape:window-maximized="1" />
  <metadata
     id="metadata858">
    <rdf:RDF>
      <cc:Work
         rdf:about="">
        <dc:format>image/svg+xml</dc:format>
        <dc:type
           rdf:resource="http://purl.org/dc/dcmitype/StillImage" />
        <dc:title />
      </cc:Work>
    </rdf:RDF>
  </metadata>
  <g
     inkscape:label="Layer 1"
     inkscape:groupmode="layer"
     id="layer1"
     transform="translate(-4.0044587,-16.510724)">
    <path
       style="fill:#ffffff;fill-opacity:1;stroke:none;stroke-width:0.26458332px;stroke-linecap:butt;stroke-linejoin:miter;stroke-opacity:1"
       d="m 182.91992,92.81308 14.65981,-0.04253 -7.36675,-12.674502 z"
       id="path884"
       inkscape:connector-curvature="0" />
    <path
       style="fill:#ffffff;fill-opacity:1;stroke:none;stroke-width:0.26458332px;stroke-linecap:butt;stroke-linejoin:miter;stroke-opacity:1"
       d="M 75.635339,92.813077 90.295145,92.770543 82.928407,80.096046 Z"
       id="path882"
       inkscape:connector-curvature="0" />
    <path
       style="fill:#ffffff;fill-opacity:1;stroke:none;stroke-width:0.26458332px;stroke-linecap:butt;stroke-linejoin:miter;stroke-opacity:1"
       d="m 109.11884,16.764541 -0.0729,58.000847 98.39025,2e-6 0.0378,-58.000848 z"
       id="path880"
       inkscape:connector-curvature="0" />
    <path
       style="fill:#ffffff;fill-opacity:1;stroke:none;stroke-width:0.26458332px;stroke-linecap:butt;stroke-linejoin:miter;stroke-opacity:1"
       d="m 4.2763122,17.168804 20.0452148,0.935444 h 13.096205 l 26.593318,0.133634 14.833457,1.737252 13.764382,-1.737252 10.022611,-1.069078 -2.845788,14.113934 0.566968,10.583333 0.94494,8.126488 -1.511908,9.827379 -2.645834,8.504465 -10.961311,2.456844 -9.449401,-0.566962 -12.473215,1.700892 -11.339284,0.944941 -34.77381,0.377973 L 5.3543079,71.341949 7.5595239,60.386903 4.346726,41.866071 8.315476,30.337797 Z"
       id="path878"
       inkscape:connector-curvature="0" />
    <path
       style="fill:none;stroke:#000000;stroke-width:0.26458332px;stroke-linecap:butt;stroke-linejoin:miter;stroke-opacity:1"
       d="m 109.25349,28.35257 6.21823,-11.432928 5.59137,11.394638 6.50387,-11.583626"
       id="path1516"
       inkscape:connector-curvature="0"
       sodipodi:nodetypes="cccc" />
    <path
       style="fill:none;stroke:#000000;stroke-width:0.26458332px;stroke-linecap:butt;stroke-linejoin:miter;stroke-opacity:1"
       d="m 121.06309,28.31428 17.08721,-11.583626 7.02695,11.740189"
       id="path1518"
       inkscape:connector-curvature="0"
       sodipodi:nodetypes="ccc" />
    <path
       style="fill:none;stroke:#000000;stroke-width:0.26458332px;stroke-linecap:butt;stroke-linejoin:miter;stroke-opacity:1"
       d="m 145.17725,28.470843 11.93856,-11.692594 -4.16908,11.592368"
       id="path1520"
       inkscape:connector-curvature="0"
       sodipodi:nodetypes="ccc" />
    <path
       style="fill:none;stroke:#000000;stroke-width:0.26458332px;stroke-linecap:butt;stroke-linejoin:miter;stroke-opacity:1"
       d="m 157.11581,16.778249 3.1795,11.492142"
       id="path1522"
       inkscape:connector-curvature="0"
       sodipodi:nodetypes="cc" />
    <path
       style="fill:none;stroke:#000000;stroke-width:0.26458332px;stroke-linecap:butt;stroke-linejoin:miter;stroke-opacity:1"
       d="m 157.11581,16.778249 12.64537,11.497136 0.30993,-11.416349 9.66062,11.342859 -0.0811,-11.379122"
       id="path1524"
       inkscape:connector-curvature="0"
       sodipodi:nodetypes="ccccc" />
    <path
       style="fill:none;stroke:#000000;stroke-width:0.26458332px;stroke-linecap:butt;stroke-linejoin:miter;stroke-opacity:1"
       d="m 179.73173,28.201895 9.06738,-11.282253"
       id="path1528"
       inkscape:connector-curvature="0"
       sodipodi:nodetypes="cc" />
    <path
       style="fill:none;stroke:#000000;stroke-width:0.26458332px;stroke-linecap:butt;stroke-linejoin:miter;stroke-opacity:1"
       d="m 188.79911,16.919642 2.45684,11.261003 5.24385,-11.204666 1.73488,11.2104 9.16647,-11.41848"
       id="path1530"
       inkscape:connector-curvature="0"
       sodipodi:nodetypes="ccccc" />
    <path
       style="fill:none;stroke:#000000;stroke-width:0.26458332px;stroke-linecap:butt;stroke-linejoin:miter;stroke-opacity:1"
       d="m 109.25349,28.35257 6.74148,11.534145 5.06812,-11.572436 -5.06812,11.572436 29.18228,-11.415871 0.21737,11.282235 7.55211,-11.382462 7.41499,11.649733 -0.0664,-11.74996 0.0664,11.74996 9.39946,-11.744965 5.43399,11.477694 4.53656,-11.551184 -4.53656,11.551184 16.06078,-11.572436 16.05742,11.738001 -9.07869,-11.732264 9.07869,11.732264"
       id="path1532"
       inkscape:connector-curvature="0"
       sodipodi:nodetypes="cccccccccccccccccc" />
    <path
       style="fill:none;stroke:#000000;stroke-width:0.26458332px;stroke-linecap:butt;stroke-linejoin:miter;stroke-opacity:1"
       d="M 145.17725,28.470844 136.842,39.886713"
       id="path1534"
       inkscape:connector-curvature="0"
       sodipodi:nodetypes="cc" />
    <path
       style="fill:none;stroke:#000000;stroke-width:0.26458332px;stroke-linecap:butt;stroke-linejoin:miter;stroke-opacity:1"
       d="m 191.25595,28.180643 -2.83094,11.70607"
       id="path1536"
       inkscape:connector-curvature="0"
       sodipodi:nodetypes="cc" />
    <path
       style="fill:none;stroke:#000000;stroke-width:0.26458332px;stroke-linecap:butt;stroke-linejoin:miter;stroke-opacity:1"
       d="m 109.15663,51.565727 6.83834,-11.679012 3.47451,11.75986 17.37252,-11.759863 -17.37252,11.759863 25.92514,-11.893496 -12.82894,11.626224 12.82894,-11.626224 -0.80181,11.49259 0.80181,-11.49259 9.2208,11.49259 5.7463,-11.225319 1.46998,11.358955 -1.46998,-11.358955 19.77794,11.492589 -4.94449,-11.75986 12.2944,11.759859 0.93544,-11.626226 -0.93544,11.626226 19.8238,-11.594294 -11.27118,11.46066 11.27118,-11.46066 -3.78763,11.460661 3.78763,-11.460661"
       id="path1538"
       inkscape:connector-curvature="0"
       sodipodi:nodetypes="cccccccccccccccccccccccc" />
    <path
       style="fill:none;stroke:#000000;stroke-width:0.26458332px;stroke-linecap:butt;stroke-linejoin:miter;stroke-opacity:1"
       d="m 109.15663,51.565727 3.76474,11.573436 6.54811,-11.49259 -6.54811,11.49259 19.64431,-11.759861 -0.66817,11.559407 0.66817,-11.559407 5.01131,11.49259 7.01582,-11.626223 4.81085,11.893494 5.21176,-11.893494 -5.27857,11.826676 12.49485,-11.69304 0.20045,11.759858 -0.20045,-11.759858 9.02034,11.559404 9.28762,-11.425771 0.0668,11.492589 7.28309,-11.492589 -7.21628,11.492589 15.7689,-11.626222 -1.53679,11.826676 9.02034,-11.826676 3.87268,11.78625"
       id="path1540"
       inkscape:connector-curvature="0" />
    <path
       style="fill:none;stroke:#000000;stroke-width:0.26458332px;stroke-linecap:butt;stroke-linejoin:miter;stroke-opacity:1"
       d="m 109.04597,74.765389 3.8754,-11.626226 1.33635,11.559405 17.63979,-11.759859 -8.55262,11.75986 14.2321,-11.826677 -1.26953,11.826676 1.26953,-11.826676 6.74855,11.759861 5.07812,-11.49259 4.07587,11.492589 -4.07587,-11.492589 10.95806,11.358954 1.67043,-11.358954 2.87315,11.49259 5.94674,-11.693044 -5.94674,11.693044 15.36797,-11.626226 -6.94898,11.626226 6.94898,-11.626226 -2.13813,11.626226 2.07132,-11.626226 2.17158,11.726451 12.12734,-11.525997 5.07813,11.492588 7.81491,-11.533014"
       id="path1561"
       inkscape:connector-curvature="0"
       sodipodi:nodetypes="cccccccccccccccccccccccccc" />
    <text
       xml:space="preserve"
       style="font-style:normal;font-weight:normal;font-size:10.58333302px;line-height:1.25;font-family:sans-serif;letter-spacing:0px;word-spacing:0px;fill:#000000;fill-opacity:1;stroke:none;stroke-width:0.26458332"
       x="122.40945"
       y="88.085327"
       id="text1565"><tspan
         sodipodi:role="line"
         id="tspan1563"
         x="122.40945"
         y="88.085327"
         style="font-style:normal;font-variant:normal;font-weight:normal;font-stretch:normal;font-size:7.05555534px;font-family:'Latin Modern Math';-inkscape-font-specification:'Latin Modern Math, Normal';font-variant-ligatures:normal;font-variant-caps:normal;font-variant-numeric:normal;font-feature-settings:normal;text-align:start;writing-mode:lr-tb;text-anchor:start;stroke-width:0.26458332">Building block:</tspan></text>
    <text
       xml:space="preserve"
       style="font-style:normal;font-weight:normal;font-size:10.58333302px;line-height:1.25;font-family:sans-serif;letter-spacing:0px;word-spacing:0px;fill:#000000;fill-opacity:1;stroke:none;stroke-width:0.26458332"
       x="15.10077"
       y="88.085327"
       id="text1565-0"><tspan
         sodipodi:role="line"
         id="tspan1563-6"
         x="15.10077"
         y="88.085327"
         style="font-style:normal;font-variant:normal;font-weight:normal;font-stretch:normal;font-size:7.05555534px;font-family:'Latin Modern Math';-inkscape-font-specification:'Latin Modern Math, Normal';font-variant-ligatures:normal;font-variant-caps:normal;font-variant-numeric:normal;font-feature-settings:normal;text-align:start;writing-mode:lr-tb;text-anchor:start;stroke-width:0.26458332">Building block:</tspan></text>
    <path
       sodipodi:type="star"
       style="opacity:1;vector-effect:none;fill:none;fill-opacity:1;fill-rule:evenodd;stroke:#030000;stroke-width:0.36500001;stroke-linecap:round;stroke-linejoin:miter;stroke-miterlimit:4;stroke-dasharray:none;stroke-dashoffset:0;stroke-opacity:1;paint-order:stroke fill markers"
       id="path1585"
       sodipodi:sides="3"
       sodipodi:cx="178.98727"
       sodipodi:cy="80.92205"
       sodipodi:r1="8.4638786"
       sodipodi:r2="16.927757"
       sodipodi:arg1="1.8850282"
       sodipodi:arg2="2.9322258"
       inkscape:flatsided="true"
       inkscape:rounded="0"
       inkscape:randomized="0"
       d="m 176.37121,88.971487 -3.04692,-14.339735 13.94203,4.53116 z"
       inkscape:transform-center-x="2.9866582"
       inkscape:transform-center-y="-1.2449409"
       transform="rotate(-78.170399,189.31407,77.815591)" />
    <path
       style="fill:none;stroke:#ff0000;stroke-width:0.36500001;stroke-linecap:round;stroke-linejoin:miter;stroke-miterlimit:4;stroke-dasharray:none;stroke-opacity:1"
       d="m 182.91992,92.813081 14.65981,-0.04253"
       id="path1591"
       inkscape:connector-curvature="0" />
    <path
       sodipodi:type="star"
       style="opacity:1;vector-effect:none;fill:none;fill-opacity:1;fill-rule:evenodd;stroke:#030000;stroke-width:0.36500001;stroke-linecap:round;stroke-linejoin:miter;stroke-miterlimit:4;stroke-dasharray:none;stroke-dashoffset:0;stroke-opacity:1;paint-order:stroke fill markers"
       id="path1585-5"
       sodipodi:sides="3"
       sodipodi:cx="178.98727"
       sodipodi:cy="80.92205"
       sodipodi:r1="8.4638786"
       sodipodi:r2="16.927757"
       sodipodi:arg1="1.8850282"
       sodipodi:arg2="2.9322258"
       inkscape:flatsided="true"
       inkscape:rounded="0"
       inkscape:randomized="0"
       d="m 176.37121,88.971487 -3.04692,-14.339735 13.94203,4.53116 z"
       inkscape:transform-center-x="2.9866582"
       inkscape:transform-center-y="-1.2449409"
       transform="rotate(-78.170399,135.67178,143.85726)" />
    <path
       style="fill:none;stroke:#000000;stroke-width:0.26458332px;stroke-linecap:butt;stroke-linejoin:round;stroke-opacity:1"
       d="M 7.5595238,60.386904 21.355655,48.85863 27.403274,63.977678 7.5595238,60.386904 4.346726,41.866071 8.315476,30.337797 4.2763122,17.168804 C 24.379464,26.558036 24.379464,26.558036 24.379464,26.558036 L 24.321527,18.104248 4.2763122,17.168804"
       id="path841"
       inkscape:connector-curvature="0"
       sodipodi:nodetypes="ccccccc" />
    <path
       style="fill:none;stroke:#000000;stroke-width:0.26458332px;stroke-linecap:butt;stroke-linejoin:bevel;stroke-opacity:1"
       d="M 21.355655,48.85863 4.346726,41.866071 22.489583,34.117559 Z"
       id="path843"
       inkscape:connector-curvature="0" />
    <path
       style="fill:none;stroke:#000000;stroke-width:0.26458332px;stroke-linecap:butt;stroke-linejoin:miter;stroke-opacity:1"
       d="M 22.489583,34.117557 8.315476,30.337797 24.379464,26.558036 Z"
       id="path845"
       inkscape:connector-curvature="0" />
    <path
       style="fill:none;stroke:#000000;stroke-width:0.26458332px;stroke-linecap:butt;stroke-linejoin:miter;stroke-opacity:1"
       d="M 22.489583,34.117557 40.254465,37.897321 24.379464,26.558036 34.395833,23.912202 40.018229,37.802827"
       id="path847"
       inkscape:connector-curvature="0" />
    <path
       style="fill:none;stroke:#000000;stroke-width:0.26458332px;stroke-linecap:butt;stroke-linejoin:miter;stroke-opacity:1"
       d="m 24.321527,18.104248 h 13.096207 l -13.03827,8.453788 v 0"
       id="path849"
       inkscape:connector-curvature="0" />
    <path
       style="fill:none;stroke:#000000;stroke-width:0.26458332px;stroke-linecap:butt;stroke-linejoin:round;stroke-opacity:1"
       d="m 34.395833,23.912202 3.021901,-5.807954 6.949006,9.822155 z"
       id="path851"
       inkscape:connector-curvature="0" />
    <path
       style="fill:none;stroke:#000000;stroke-width:0.26458332px;stroke-linecap:butt;stroke-linejoin:miter;stroke-opacity:1"
       d="M 44.36674,27.926403 40.018229,37.802827 51.850287,35.14268 49.578498,44.697565 40.018229,37.802827 37.01683,47.771166 22.489583,34.117557"
       id="path853"
       inkscape:connector-curvature="0" />
    <path
       style="fill:none;stroke:#000000;stroke-width:0.26458332px;stroke-linecap:butt;stroke-linejoin:miter;stroke-opacity:1"
       d="M 21.355655,48.85863 37.01683,47.771166 49.578498,44.697565"
       id="path855"
       inkscape:connector-curvature="0" />
    <path
       style="fill:none;stroke:#000000;stroke-width:0.26458332px;stroke-linecap:butt;stroke-linejoin:miter;stroke-opacity:1"
       d="M 51.850287,35.14268 44.36674,27.926403"
       id="path857"
       inkscape:connector-curvature="0" />
    <path
       style="fill:none;stroke:#000000;stroke-width:0.26458332px;stroke-linecap:butt;stroke-linejoin:miter;stroke-opacity:1"
       d="m 37.417734,18.104248 26.593316,0.133634 -19.64431,9.688521 18.17433,-1.670435 -10.690783,8.886712 16.303442,2.739512 -18.575231,6.815373 12.160763,8.285355 7.216277,-7.216277 3.474503,12.294399 -24.187893,1.603615"
       id="path859"
       inkscape:connector-curvature="0" />
    <path
       style="fill:none;stroke:#000000;stroke-width:0.26458332px;stroke-linecap:butt;stroke-linejoin:miter;stroke-opacity:1"
       d="m 48.242148,59.664657 13.497113,-6.681737 10.69078,5.078122"
       id="path861"
       inkscape:connector-curvature="0" />
    <path
       style="fill:none;stroke:#000000;stroke-width:0.26458332px;stroke-linecap:butt;stroke-linejoin:miter;stroke-opacity:1"
       d="m 49.578498,44.697565 19.37704,1.069078 -0.801809,-7.884451"
       id="path863"
       inkscape:connector-curvature="0" />
    <path
       style="fill:none;stroke:#000000;stroke-width:0.26458332px;stroke-linecap:butt;stroke-linejoin:miter;stroke-opacity:1"
       d="M 37.01683,47.771166 61.739261,52.98292"
       id="path865"
       inkscape:connector-curvature="0" />
    <path
       style="fill:none;stroke:#000000;stroke-width:0.26458332px;stroke-linecap:butt;stroke-linejoin:miter;stroke-opacity:1"
       d="M 48.242148,59.664657 37.01683,47.771166 27.403274,63.977678 Z"
       id="path867"
       inkscape:connector-curvature="0" />
    <path
       style="fill:none;stroke:#000000;stroke-width:0.26458332px;stroke-linecap:butt;stroke-linejoin:bevel;stroke-opacity:1"
       d="M 48.242148,59.664657 54.389347,67.682744 72.430041,58.061042 67.218287,64.47551 82.853553,62.337354 72.430041,58.061042 81.38357,45.365738 68.955538,45.766643 78.710874,33.60588 68.153729,37.882192 68.821902,26.122333 60.937451,32.536802 51.850287,35.14268"
       id="path869"
       inkscape:connector-curvature="0" />
    <path
       style="fill:none;stroke:#000000;stroke-width:0.26458332px;stroke-linecap:butt;stroke-linejoin:round;stroke-opacity:1"
       d="m 68.153729,37.882192 -7.216278,-5.34539 1.603619,-6.280834 1.46998,-8.018086 4.810852,7.884451 -6.280832,0.133635"
       id="path871"
       inkscape:connector-curvature="0"
       sodipodi:nodetypes="cccccc" />
    <path
       style="fill:none;stroke:#000000;stroke-width:0.26458332px;stroke-linecap:butt;stroke-linejoin:miter;stroke-opacity:1"
       d="m 64.01105,18.237882 14.833459,1.737252 -10.022607,6.147199 22.183371,-1.469982 1.603618,-6.414469"
       id="path873"
       inkscape:connector-curvature="0" />
    <path
       style="fill:none;stroke:#000000;stroke-width:0.26458332px;stroke-linecap:butt;stroke-linejoin:miter;stroke-opacity:1"
       d="m 92.608891,18.237882 -13.764384,1.737252 12.160766,4.677217"
       id="path875"
       inkscape:connector-curvature="0" />
    <path
       style="fill:none;stroke:#000000;stroke-width:0.26458332px;stroke-linecap:butt;stroke-linejoin:miter;stroke-opacity:1"
       d="m 68.821902,26.122333 9.888972,7.483547 12.294399,-8.953529 -0.102,23.072351 -12.192399,-14.118822 2.672696,11.759858 1.469983,16.971616"
       id="path877"
       inkscape:connector-curvature="0" />
    <path
       style="fill:none;stroke:#000000;stroke-width:0.26458332px;stroke-linecap:butt;stroke-linejoin:miter;stroke-opacity:1"
       d="m 90.903273,47.724702 -8.04972,14.612652"
       id="path879"
       inkscape:connector-curvature="0" />
    <path
       style="fill:none;stroke:#000000;stroke-width:0.26458332px;stroke-linecap:butt;stroke-linejoin:miter;stroke-opacity:1"
       d="m 81.38357,45.365738 9.519703,2.358964"
       id="path881"
       inkscape:connector-curvature="0" />
    <path
       style="fill:none;stroke:#000000;stroke-width:0.26458332px;stroke-linecap:butt;stroke-linejoin:bevel;stroke-opacity:1"
       d="m 91.005273,24.652351 9.347407,17.21372 -9.449407,5.858631 10.394347,2.267858 -18.444067,12.344794 16.932161,-2.517415 -2.645834,8.504465 -14.286327,-5.98705 3.325018,8.443894 -9.449405,-0.566963 6.124387,-7.876931 -18.597602,9.577824 2.962336,-7.439668 -12.82894,3.207234"
       id="path883"
       inkscape:connector-curvature="0" />
    <path
       style="fill:none;stroke:#000000;stroke-width:0.26458332px;stroke-linecap:butt;stroke-linejoin:miter;stroke-opacity:1"
       d="M 64.255951,71.915178 54.389347,67.682744"
       id="path885"
       inkscape:connector-curvature="0" />
    <path
       style="fill:none;stroke:#000000;stroke-width:0.26458332px;stroke-linecap:butt;stroke-linejoin:miter;stroke-opacity:1"
       d="M 76.729166,70.214285 64.255951,71.915178"
       id="path887"
       inkscape:connector-curvature="0" />
    <path
       style="fill:none;stroke:#000000;stroke-width:0.26458332px;stroke-linecap:butt;stroke-linejoin:miter;stroke-opacity:1"
       d="M 86.178569,70.781248 97.139878,68.324404"
       id="path889"
       inkscape:connector-curvature="0" />
    <path
       style="fill:none;stroke:#000000;stroke-width:0.26458332px;stroke-linecap:butt;stroke-linejoin:miter;stroke-opacity:1"
       d="M 99.785714,59.819939 101.29762,49.99256"
       id="path891"
       inkscape:connector-curvature="0" />
    <path
       style="fill:none;stroke:#000000;stroke-width:0.26499999;stroke-linecap:square;stroke-linejoin:round;stroke-miterlimit:4;stroke-dasharray:none;stroke-opacity:1"
       d="M 91.005273,24.652351 102.6315,17.168804 92.608891,18.237882"
       id="path893"
       inkscape:connector-curvature="0"
       sodipodi:nodetypes="ccc" />
    <path
       style="fill:none;stroke:#000000;stroke-width:0.26499999;stroke-linecap:square;stroke-linejoin:round;stroke-miterlimit:4;stroke-dasharray:none;stroke-opacity:1"
       d="m 91.005273,24.652351 5.567642,0.204791 6.058585,-7.688338 -2.845786,14.113934 0.566966,10.583333"
       id="path895"
       inkscape:connector-curvature="0"
       sodipodi:nodetypes="ccccc" />
    <path
       style="fill:none;stroke:#000000;stroke-width:0.26458332px;stroke-linecap:butt;stroke-linejoin:miter;stroke-opacity:1"
       d="m 96.572913,24.857142 3.212801,6.425596"
       id="path897"
       inkscape:connector-curvature="0" />
    <path
       style="fill:none;stroke:#000000;stroke-width:0.26458332px;stroke-linecap:butt;stroke-linejoin:miter;stroke-opacity:1"
       d="m 100.35268,41.866071 0.94494,8.126489"
       id="path899"
       inkscape:connector-curvature="0" />
    <path
       style="fill:none;stroke:#000000;stroke-width:0.26458332px;stroke-linecap:butt;stroke-linejoin:bevel;stroke-opacity:1"
       d="m 7.5595238,60.386904 -2.2678572,10.961309 22.1116074,-7.370535 -9.260417,9.260416 24.190476,-5.10268 -14.930059,-4.157736 19.465774,0.377976 1.3731,-4.690997"
       id="path901"
       inkscape:connector-curvature="0" />
    <path
       style="fill:none;stroke:#000000;stroke-width:0.26458332px;stroke-linecap:butt;stroke-linejoin:miter;stroke-opacity:1"
       d="m 64.255951,71.915178 -11.339285,0.944941 1.472681,-5.177375 -7.520299,-3.32709 -4.535715,3.779758 12.056014,-0.452668"
       id="path903"
       inkscape:connector-curvature="0" />
    <path
       style="fill:none;stroke:#000000;stroke-width:0.26458332px;stroke-linecap:butt;stroke-linejoin:miter;stroke-opacity:1"
       d="M 52.916666,72.860119 42.333333,68.135412"
       id="path905"
       inkscape:connector-curvature="0" />
    <path
       style="fill:none;stroke:#000000;stroke-width:0.26458332px;stroke-linecap:butt;stroke-linejoin:bevel;stroke-opacity:1"
       d="M 5.3543079,71.341949 18.142857,73.238092"
       id="path907"
       inkscape:connector-curvature="0"
       sodipodi:nodetypes="cc" />
    <path
       style="fill:none;stroke:#000000;stroke-width:0.26458332px;stroke-linecap:butt;stroke-linejoin:miter;stroke-opacity:1"
       d="M 18.142857,73.238092 52.916666,72.860119"
       id="path909"
       inkscape:connector-curvature="0" />
    <path
       style="fill:none;stroke:#000000;stroke-width:0.26458332px;stroke-linecap:butt;stroke-linejoin:miter;stroke-opacity:1"
       d="m 91.005273,24.652351 8.780439,6.630387"
       id="path911"
       inkscape:connector-curvature="0" />
    <path
       style="fill:none;stroke:#ff0000;stroke-width:0.46163106;stroke-linecap:round;stroke-linejoin:miter;stroke-miterlimit:4;stroke-dasharray:none;stroke-opacity:1"
       d="m 109.11884,16.764541 h 12.2944 12.29439 12.2944 l 12.2944,10e-7 h 12.2944 12.2944 12.29439 12.2944"
       id="path1442"
       inkscape:connector-curvature="0"
       sodipodi:nodetypes="ccccccccc" />
    <path
       style="fill:none;stroke:#ff0000;stroke-width:0.465;stroke-linecap:round;stroke-linejoin:miter;stroke-miterlimit:4;stroke-dasharray:none;stroke-opacity:1"
       d="m 109.08104,74.76539 98.35518,10e-7"
       id="path1442-9"
       inkscape:connector-curvature="0" />
    <path
       style="fill:none;stroke:#ff0000;stroke-width:0.46163106;stroke-linecap:round;stroke-linejoin:miter;stroke-miterlimit:4;stroke-dasharray:none;stroke-opacity:1"
       d="m 109.00544,28.364382 98.35519,1e-6"
       id="path1442-1"
       inkscape:connector-curvature="0" />
    <path
       style="fill:none;stroke:#ff0000;stroke-width:0.46501714;stroke-linecap:round;stroke-linejoin:miter;stroke-miterlimit:4;stroke-dasharray:none;stroke-opacity:1"
       d="m 109.19443,39.96589 97.84727,10e-7"
       id="path1442-7"
       inkscape:connector-curvature="0" />
    <path
       style="fill:none;stroke:#ff0000;stroke-width:0.465;stroke-linecap:round;stroke-linejoin:miter;stroke-miterlimit:4;stroke-dasharray:none;stroke-opacity:1"
       d="m 109.15663,51.565727 98.35519,10e-7"
       id="path1442-0"
       inkscape:connector-curvature="0" />
    <path
       style="fill:none;stroke:#ff0000;stroke-width:0.465;stroke-linecap:round;stroke-linejoin:miter;stroke-miterlimit:4;stroke-dasharray:none;stroke-opacity:1"
       d="m 109.04324,63.165555 98.35518,1e-6"
       id="path1442-6"
       inkscape:connector-curvature="0" />
    <path
       style="fill:#ff0000;stroke:#000000;stroke-width:0.465;stroke-linecap:round;stroke-linejoin:miter;stroke-miterlimit:4;stroke-dasharray:none;stroke-opacity:1"
       d="M 207.40115,74.765391 V 16.767899"
       id="path1425-4"
       inkscape:connector-curvature="0" />
    <path
       style="fill:#ff0000;stroke:#000000;stroke-width:0.465;stroke-linecap:round;stroke-linejoin:miter;stroke-miterlimit:4;stroke-dasharray:none;stroke-opacity:1"
       d="M 109.04597,74.765389 V 16.767898"
       id="path1425"
       inkscape:connector-curvature="0" />
  </g>
</svg>
